<?xml version="1.0" encoding="utf-8"?>
<!-- Generator: Adobe Illustrator 28.0.0, SVG Export Plug-In . SVG Version: 6.00 Build 0)  -->
<svg version="1.1" id="_Слой_1" xmlns="http://www.w3.org/2000/svg" xmlns:xlink="http://www.w3.org/1999/xlink" x="0px"
	 y="0px" viewBox="0 0 974.4 357.7" style="enable-background:new 0 0 974.4 357.7;" xml:space="preserve">
<style type="text/css">
	.st0{clip-path:url(#SVGID_00000062891876835551508580000017648749544648212905_);}
	.st1{fill:#201600;}
	.st2{fill:#3EB5F1;}
	.st3{fill:#72AE5F;}
	.st4{fill:#87589F;}
	.st5{fill:#7F7D7C;}
	.st6{fill:#DD7E55;}
	.st7{fill:#FFFFFF;}
	.st8{fill-rule:evenodd;clip-rule:evenodd;fill:#52AC62;}
	.st9{fill-rule:evenodd;clip-rule:evenodd;fill:#FFFFFF;}
	.st10{fill-rule:evenodd;clip-rule:evenodd;fill:#72AE5F;}
</style>
<g>
	<defs>
		<rect id="SVGID_1_" x="-62.5" y="-178.1" width="1190.6" height="841.9"/>
	</defs>
	<clipPath id="SVGID_00000000944018702662877110000004536727648460834996_">
		<use xlink:href="#SVGID_1_"  style="overflow:visible;"/>
	</clipPath>
	<g style="clip-path:url(#SVGID_00000000944018702662877110000004536727648460834996_);">
		<path class="st1" d="M252.7,285.4l-1.9,1.8l-1.8-1.8H252.7z M252.7,285.1h-3.7l1.8-1.8L252.7,285.1z M253.9,285.2c0-1.6-1.3-3-3-3
			s-3,1.3-3,3s1.3,3,3,3S253.9,286.9,253.9,285.2 M254.3,285.2c0,1.9-1.5,3.4-3.4,3.4s-3.4-1.5-3.4-3.4s1.5-3.4,3.4-3.4
			S254.3,283.3,254.3,285.2 M255.4,280.7h-9v9h9V280.7z"/>
		<path class="st1" d="M243.4,285.4l-1.8,1.9l-1.8-1.9H243.4L243.4,285.4z M243.4,285.1h-3.7l1.8-1.9L243.4,285.1L243.4,285.1z
			 M244.5,285.3c0-1.6-1.3-3-3-3s-3,1.3-3,3s1.3,3,3,3S244.5,286.9,244.5,285.3 M244.9,285.3c0,1.9-1.5,3.4-3.4,3.4
			s-3.4-1.5-3.4-3.4s1.5-3.4,3.4-3.4S244.9,283.4,244.9,285.3 M246,280.8h-9v9h9V280.8z"/>
		<path class="st1" d="M801.6,241.9l-0.4-2.7l2.7-0.4L801.6,241.9z M801.9,242.2l2.3-3.1l0.4,2.7L801.9,242.2z M801,243
			c1.4,1,3.3,0.8,4.3-0.6s0.8-3.3-0.6-4.3s-3.3-0.8-4.3,0.6C799.4,240,799.7,242,801,243 M800.7,243.4c-1.6-1.2-1.9-3.4-0.7-5
			c1.2-1.6,3.4-1.9,5-0.7c1.6,1.2,1.9,3.4,0.7,5S802.3,244.6,800.7,243.4 M796.3,241.4l7.5,5.6l5.7-7.5l-7.5-5.6L796.3,241.4z"/>
		<path class="st1" d="M795.7,249.7l-0.4-2.7l2.7-0.4L795.7,249.7z M796,249.9l2.3-3.1l0.4,2.7L796,249.9L796,249.9z M795.2,250.8
			c1.4,1,3.3,0.8,4.3-0.6c1-1.4,0.8-3.3-0.6-4.3s-3.3-0.8-4.3,0.6S793.8,249.7,795.2,250.8 M794.9,251.2c-1.6-1.2-1.9-3.4-0.7-5
			s3.4-1.9,5-0.7c1.6,1.2,1.9,3.4,0.7,5C798.7,252,796.5,252.4,794.9,251.2 M790.5,249.2l7.5,5.6l5.7-7.5l-7.5-5.6L790.5,249.2
			L790.5,249.2z"/>
		<polygon class="st2" points="870.5,113.8 871.2,112.8 871.2,112.8 880.8,99.9 879.8,99.1 870.2,112 848.6,95.9 863.3,76.2 
			884.9,92.3 882.4,95.7 883.4,96.5 886.7,92.1 886.7,92.1 886.7,92.1 864.1,75.2 864.1,75.2 863.1,74.4 863.1,74.4 863.1,74.4 
			862.3,75.4 862.3,75.4 847.6,95.1 847.6,95.1 846.8,96.1 846.8,96.1 846.8,96.1 847.8,96.9 847.8,96.9 		"/>
		
			<rect x="927.4" y="82" transform="matrix(0.5983 -0.8013 0.8013 0.5983 311.6723 786.9506)" class="st2" width="26.8" height="1.3"/>
		
			<rect x="939.4" y="55.4" transform="matrix(0.5985 -0.8011 0.8011 0.5985 324.4036 779.7419)" class="st2" width="1.3" height="21.8"/>
		
			<rect x="812.8" y="223.8" transform="matrix(0.5982 -0.8014 0.8014 0.5982 138.2959 746.4535)" class="st3" width="1.3" height="23"/>
		
			<rect x="805.7" y="229.7" transform="matrix(0.5983 -0.8013 0.8013 0.5983 134.7684 740.9068)" class="st3" width="1.3" height="12.6"/>
		
			<rect x="802.9" y="252.4" transform="matrix(0.5983 -0.8013 0.8013 0.5983 115.89 747.5839)" class="st3" width="1.3" height="11.6"/>
		
			<rect x="802.2" y="250.9" transform="matrix(0.5983 -0.8013 0.8013 0.5983 125.7758 754.0014)" class="st3" width="25.5" height="1.3"/>
		
			<rect x="794.9" y="246.8" transform="matrix(0.5983 -0.8013 0.8013 0.5983 125.1079 744.4197)" class="st3" width="20.3" height="1.3"/>
		<polygon class="st2" points="915.4,80.9 933,94 933.7,93 916.2,79.9 		"/>
		
			<rect x="922.3" y="63.8" transform="matrix(0.5983 -0.8013 0.8013 0.5983 321.3256 769.7899)" class="st2" width="12.3" height="1.3"/>
		<polygon class="st4" points="840.8,153.4 840.8,153.4 850.9,139.9 849.9,139.2 840.3,151.9 818.8,135.8 832,118.1 853.6,134.2 
			852.6,135.5 853.6,136.3 855.4,133.9 854.4,133.1 854.4,133.1 832.8,117 832.8,117 831.8,116.3 817,136 817,136 817,136.1 
			840.6,153.7 		"/>
		<polygon class="st4" points="816.4,186.1 816.4,186.1 835,161.1 834,160.4 815.9,184.6 794.4,168.5 817,138.2 838.6,154.3 
			836.6,157 837.6,157.7 840.3,154 840.3,154 840.4,154 816.7,136.4 816,137.4 816,137.4 792.5,168.8 793.6,169.5 793.6,169.5 
			816.2,186.4 		"/>
		<polygon class="st4" points="791.9,218.9 791.9,218.9 810.5,194 809.5,193.2 791.4,217.4 769.8,201.3 792.5,171 814,187.1 
			812,189.8 813.1,190.6 815.8,186.9 815.8,186.9 815.8,186.9 792.2,169.2 791.4,170.2 791.4,170.2 768,201.6 769,202.4 
			769.1,202.4 791.6,219.2 		"/>
		<polygon class="st4" points="767.4,251.8 767.4,251.8 786,226.8 784.9,226.1 766.9,250.3 745.3,234.2 767.9,203.9 789.5,220 
			787.5,222.7 788.5,223.4 791.3,219.8 791.3,219.7 791.3,219.7 767.7,202.1 766.9,203.1 766.9,203.1 743.5,234.5 744.5,235.2 
			744.5,235.2 767.1,252.1 		"/>
		<polygon class="st2" points="855.8,133.4 864.9,121.2 863.9,120.4 862.5,122.2 859,119.7 858.3,120.7 861.8,123.3 855.4,131.7 
			833.8,115.6 840,107.4 855.6,118.8 856.4,117.8 840.7,106.4 846.9,98.1 868.5,114.2 865.9,117.6 867,118.4 869.6,115 869.6,115 
			870.3,113.9 846.7,96.3 846.7,96.3 846.7,96.3 832.1,115.9 832.1,115.9 832.1,115.9 855.5,133.4 855.6,133.3 		"/>
		<polygon class="st5" points="887.1,91.7 887.1,91.7 898.3,76.7 897.3,75.9 894.6,79.4 891.3,76.9 890.5,77.9 893.9,80.4 886.7,90 
			865,73.8 872.2,64.2 886.7,75.1 887.5,74.1 872.9,63.2 880.2,53.5 901.9,69.8 899.8,72.5 900.9,73.3 903.7,69.5 903.6,69.5 
			903.7,69.5 879.9,51.7 879.1,52.7 879.1,52.8 863.2,74 863.3,74.1 863.3,74.1 887,91.8 		"/>
		<path class="st1" d="M806.4,227.5L806.4,227.5c20.3-27.1,40.6-54.2,60.9-81.4l0-0.1l-0.1,0c-0.2-0.2-0.5-0.4-0.7-0.5l-0.1,0l0,0.1
			c-15.2,20.4-30.4,40.7-45.6,61.1c-5.1,6.8-10.1,13.6-15.2,20.4l0,0.1l0.1,0C805.9,227.2,806.2,227.3,806.4,227.5l0,0.1
			L806.4,227.5L806.4,227.5L806.4,227.5c-0.2-0.2-0.4-0.4-0.7-0.6l0,0.1l0.1,0c5.1-6.8,10.1-13.6,15.2-20.4
			c15.2-20.4,30.4-40.7,45.6-61.1l-0.1,0l0,0.1c0.2,0.2,0.5,0.4,0.7,0.5l0-0.1l-0.1,0C846.9,173.1,826.6,200.3,806.4,227.5
			L806.4,227.5L806.4,227.5L806.4,227.5L806.4,227.5z"/>
		<path class="st1" d="M806.6,96.1L806.6,96.1L820,78.2l0-0.1l-0.1,0l0,0.1l0.1,0c7.9,5.9,15.8,11.8,23.6,17.6l0.1,0l0-0.1
			c0.4-0.6,0.8-1.1,1.3-1.7l0-0.1l-0.1,0c-0.9-0.7-1.8-1.3-2.7-2c-4.6-3.5-9.2-6.9-13.9-10.4c-2.9-2.2-5.9-4.4-8.8-6.6l-0.1-0.1
			l-0.1,0.1l0,0.1c-5.3,7.1-10.7,14.2-16,21.3l0,0.1l0.1,0.1c8.4,6.3,16.8,12.6,25.3,18.9l0.1,0l0-0.1c0.4-0.6,0.8-1.1,1.3-1.7
			l0-0.1l-0.1,0c-3-2.2-5.9-4.4-8.9-6.6C816.4,103.4,811.5,99.8,806.6,96.1L806.6,96.1L806.6,96.1l0,0.1L806.6,96.1L806.6,96.1
			L806.6,96.1l-0.1,0l0,0.1l0.1,0.1c4.9,3.7,9.8,7.3,14.7,11c3,2.2,5.9,4.4,8.9,6.6l0-0.1l-0.1,0c-0.4,0.6-0.8,1.1-1.3,1.7l0.1,0
			l0-0.1c-8.4-6.3-16.9-12.6-25.3-18.9l0,0l0,0.1l0.1,0c5.3-7.1,10.6-14.2,16-21.3l0-0.1l0,0l-0.1-0.1l0,0.1
			c2.9,2.2,5.9,4.4,8.8,6.6c4.6,3.5,9.2,6.9,13.9,10.4c0.9,0.7,1.8,1.3,2.7,2l0-0.1l-0.1,0c-0.4,0.6-0.8,1.1-1.2,1.7l0.1,0l0-0.1
			c-7.9-5.9-15.8-11.8-23.6-17.6l-0.1,0l-0.1,0l-0.1,0.1L806.6,96.1L806.6,96.1L806.6,96.1z"/>
		<path class="st1" d="M953.3,71.6L953.3,71.6c4.9-6.5,9.8-13,14.7-19.5l0.1-0.1l-0.1-0.1c-0.2-0.2-0.4-0.3-0.7-0.5
			c-0.2-0.1-0.3-0.2-0.4-0.3c-0.2-0.1-0.4-0.3-0.6-0.4l0,0l-0.1,0L911,9.5l-0.1-0.1c-0.5-0.4-1.1-0.9-1.7-1.3l-0.1-0.1l0,0.1
			c-6.6,8.8-13.2,17.6-19.7,26.4c-3.3,4.4-6.6,8.8-9.9,13.2l0,0.1l0.1,0.1c0.6,0.4,1.1,0.8,1.7,1.3l0.1,0.1l0-0.1
			c9.4-12.6,18.9-25.3,28.3-37.9l55.2,41.2c-4.4,5.9-8.8,11.8-13.3,17.8l0,0.1l0.1,0.1C952.1,70.8,952.7,71.3,953.3,71.6l0,0.1
			L953.3,71.6L953.3,71.6L953.3,71.6c-0.5-0.5-1.1-0.9-1.6-1.3l0,0.1l0.1,0.1c4.4-5.9,8.8-11.8,13.3-17.8l0.1-0.1l0.1-0.1l-0.1-0.1
			l-55.2-41.2l-0.1-0.1l-0.1-0.1l-0.1,0.1c-9.4,12.6-18.9,25.3-28.3,37.9l0.1,0.1l0-0.1c-0.6-0.4-1.1-0.8-1.7-1.3l0,0.1l0.1,0.1
			c3.3-4.4,6.6-8.8,9.9-13.2c6.6-8.8,13.2-17.6,19.7-26.4l-0.1-0.1l0,0.1c0.6,0.4,1.1,0.8,1.7,1.3l0.1,0.1l55.2,41.2l0.1,0l0-0.1
			l-0.1,0.1c0.2,0.1,0.4,0.3,0.6,0.4c0.2,0.1,0.3,0.2,0.4,0.3c0.2,0.2,0.4,0.3,0.7,0.5l0.1-0.1l-0.1-0.1
			C962.9,58.5,958.1,65,953.3,71.6L953.3,71.6L953.3,71.6L953.3,71.6L953.3,71.6z"/>
		<polygon class="st6" points="765.1,319.1 765.9,318.1 765.9,318.1 774.6,306.4 774.4,306.2 774.4,306.2 756.3,292.6 755.5,293.6 
			755.5,293.7 752.7,297.4 753.8,298.2 756.6,294.4 772.9,306.6 764.9,317.3 748.6,305.2 751.2,301.6 750.2,300.9 746.8,305.4 
			746.8,305.4 746.8,305.5 		"/>
		<polygon class="st4" points="742.6,284.7 742.6,284.7 762.3,258.4 761.2,257.6 751.2,271 748.3,268.9 747.6,269.9 750.5,272.1 
			742.3,282.9 720.9,266.9 729,256 744.4,267.5 745.1,266.5 744.8,266.2 748,261.8 747,261.1 743.7,265.4 729.8,255 737.6,244.6 
			751.5,255 750.7,256.1 751.7,256.9 754.1,253.7 753.1,252.9 752.3,254 738.3,243.5 743.6,236.6 757.5,247 756.1,248.8 
			757.2,249.6 758.6,247.8 765,252.6 763.9,254.1 764.9,254.9 766,253.3 766.1,253.3 766.8,252.3 743.3,234.7 742.5,235.8 
			742.5,235.8 737.3,242.8 737.3,242.8 736.5,243.8 736.5,243.8 728.7,254.2 728.7,254.2 727.9,255.2 728,255.3 719.1,267.2 
			719.1,267.2 719.1,267.2 742.6,284.7 		"/>
		<polygon class="st5" points="719.2,295.8 720.5,295.8 734.3,295.8 734.3,295.8 737.6,291.4 736.6,290.6 733.7,294.6 720.5,294.6 
			720.5,270.2 740.6,285.2 739.2,287.2 740.2,287.9 742.4,285 719.2,267.7 		"/>
		<polygon class="st3" points="261.6,295.9 262.9,295.9 262.9,266.7 237.8,266.7 237.8,266.6 236.5,266.6 236.5,279.8 255.9,279.8 
			255.9,289.8 257.2,289.8 257.2,278.2 255.9,278.2 255.9,278.5 237.8,278.5 237.8,268 261.6,268 		"/>
		<polygon class="st2" points="679.7,335.2 718.5,335.2 718.5,306 689,306 689,307.3 717.2,307.3 717.2,333.9 681,333.9 681,307.3 
			685,307.3 685,306 679.7,306 		"/>
		<polygon class="st2" points="640.4,335.2 679,335.2 679,306 649.4,306 649.4,307.3 677.7,307.3 677.7,333.9 641.7,333.9 
			641.7,307.3 645.7,307.3 645.7,306 640.4,306 		"/>
		<polygon class="st2" points="75.2,335.2 101.6,335.2 101.6,306 85.5,306 85.5,307.3 100.3,307.3 100.3,333.9 76.5,333.9 
			76.5,307.3 78.8,307.3 78.8,306 75.2,306 		"/>
		<polygon class="st2" points="236.4,335.2 262.4,335.2 262.4,306 258.7,306 258.7,307.3 261.1,307.3 261.1,333.9 237.7,333.9 
			237.7,307.3 254.2,307.3 254.2,306 236.4,306 		"/>
		<polygon class="st2" points="183.1,335.2 208.9,335.2 208.9,306 205.1,306 205.1,307.3 207.6,307.3 207.6,333.9 184.3,333.9 
			184.3,307.3 200.3,307.3 200.3,306 183.1,306 		"/>
		<polygon class="st2" points="209.4,335.2 235.8,335.2 235.8,306 218.5,306 218.5,307.3 234.5,307.3 234.5,333.9 210.7,333.9 
			210.7,307.3 213.4,307.3 213.4,306 209.4,306 		"/>
		<polygon class="st2" points="317.5,335.2 356.6,335.2 356.6,333.9 356.6,307.3 356.6,306 327,306 327,307.3 355.3,307.3 
			355.3,333.9 318.8,333.9 318.8,307.3 322.3,307.3 322.3,306 317.5,306 		"/>
		<polygon class="st2" points="263.1,335.2 302.6,335.2 302.6,306 274.6,306 274.6,307.3 301.3,307.3 301.3,333.9 264.4,333.9 
			264.4,307.3 269.5,307.3 269.5,306 263.1,306 		"/>
		<path class="st2" d="M521,306h-46.5v1.3H521V306z M464.5,335.2h67.2V306h-6.2v1.3h4.9v26.6h-64.7v-26.6h4V306h-5.3L464.5,335.2
			L464.5,335.2z"/>
		<path class="st2" d="M441.7,306h-48.2v1.3h48.2V306z M384.4,335.2h66.2V306H446v1.3h3.3v26.6h-63.6v-26.6h2.7V306h-4L384.4,335.2
			L384.4,335.2z"/>
		<path class="st2" d="M146.4,306h-35.2v1.3h35.2V306z M102.1,335.2h53.2V306h-3.8v1.3h2.5v26.6h-50.6v-26.6h2.7V306h-4L102.1,335.2
			L102.1,335.2z"/>
		<polygon class="st2" points="465.3,295.9 470.6,295.9 470.6,294.6 466.6,294.6 466.6,268 502.7,268 502.7,294.6 474.4,294.6 
			474.4,295.9 503.9,295.9 503.9,266.7 465.3,266.7 		"/>
		<polygon class="st2" points="534.7,335.2 572.3,335.2 572.3,306 543.4,306 543.4,307.3 571,307.3 571,333.9 536,333.9 536,307.3 
			539,307.3 539,306 534.7,306 		"/>
		<polygon class="st3" points="561.9,295.9 563.2,295.9 563.2,266.7 534.7,266.7 534.7,295.9 537.9,295.9 537.9,294.6 536,294.6 
			536,282.3 537.7,282.3 537.7,281 536,281 536,268 561.9,268 561.9,281 543.1,281 543.1,282.3 547.5,282.3 547.5,286 548.8,286 
			548.8,282.3 561.9,282.3 561.9,294.6 548.8,294.6 548.8,289.6 547.5,289.6 547.5,294.6 542.8,294.6 542.8,295.9 561.9,295.9 		"/>
		<polygon class="st2" points="601.1,335.2 639.7,335.2 639.7,306 610.2,306 610.2,307.3 638.4,307.3 638.4,333.9 602.4,333.9 
			602.4,307.3 606.4,307.3 606.4,306 601.1,306 		"/>
		<polygon class="st4" points="679.7,295.9 709.2,295.9 709.2,294.6 681,294.6 681,268 717.2,268 717.2,294.6 713.2,294.6 
			713.2,295.9 718.5,295.9 718.5,266.7 679.7,266.7 		"/>
		<polygon class="st4" points="640.4,295.9 669.7,295.9 669.7,294.6 641.7,294.6 641.7,268 677.7,268 677.7,294.6 673.7,294.6 
			673.7,295.9 679,295.9 679,266.7 640.4,266.7 		"/>
		<polygon class="st2" points="129.3,289.8 145.2,289.8 145.2,288.5 130.6,288.5 130.6,268 154,268 154,288.5 150.6,288.5 
			150.6,289.8 155.3,289.8 155.3,266.7 129.3,266.7 		"/>
		<polygon class="st2" points="155.7,289.8 171.7,289.8 171.7,288.5 157,288.5 157,268 181.3,268 181.3,288.5 176.9,288.5 
			176.9,289.8 182.6,289.8 182.6,266.7 155.7,266.7 		"/>
		<polygon class="st5" points="102.1,289.8 118.4,289.8 118.4,288.5 103.4,288.5 103.4,268 127.5,268 127.5,288.5 124.1,288.5 
			124.1,289.8 128.8,289.8 128.8,266.7 102.1,266.7 		"/>
		<polygon class="st5" points="88.9,289.8 93.2,289.8 93.2,288.5 90.2,288.5 90.2,268 100.3,268 100.3,288.5 98.4,288.5 98.4,289.8 
			101.6,289.8 101.6,266.7 88.9,266.7 		"/>
		<polygon class="st5" points="47.1,289.8 64.8,289.8 64.8,288.5 48.4,288.5 48.4,268 74.6,268 74.6,282 75.8,282 75.8,268 
			86.8,268 86.8,288.5 75.8,288.5 75.8,286.5 74.6,286.5 74.6,288.5 70.5,288.5 70.5,289.8 88.1,289.8 88.1,266.7 47.1,266.7 		"/>
		<path class="st2" d="M274.6,295.9h60v-1.3h-60V295.9z M263.1,295.9h6.4v-1.3h-5.1V268h77.5v26.6h-2.8v1.3h4.1v-29.2h-80.1
			L263.1,295.9L263.1,295.9z"/>
		<polygon class="st6" points="424.5,295.9 454.8,295.9 454.8,294.6 425.8,294.6 425.8,268 463.5,268 463.5,294.6 459.3,294.6 
			459.3,295.9 464.8,295.9 464.8,266.7 424.5,266.7 		"/>
		<polygon class="st6" points="397.1,295.9 405.4,295.9 405.4,294.6 398.4,294.6 398.4,268 422.7,268 422.7,294.6 409.7,294.6 
			409.7,295.9 424,295.9 424,266.7 397.1,266.7 		"/>
		<polygon class="st2" points="357.2,335.2 383.7,335.2 383.7,306 365.2,306 365.2,307.3 373,307.3 373,319.5 375.9,319.5 
			375.9,318.2 374.3,318.2 374.3,307.3 382.4,307.3 382.4,318.2 380.2,318.2 380.2,319.5 382.4,319.5 382.4,333.9 358.5,333.9 
			358.5,307.3 360.3,307.3 360.3,306 357.2,306 		"/>
		<polygon class="st3" points="343.7,295.9 351.1,295.9 351.1,294.6 345,294.6 345,283.5 348.5,283.5 348.5,282.2 345,282.2 
			345,268 369.3,268 369.3,282.2 354.5,282.2 354.5,275.4 353.2,275.4 353.2,283.5 360,283.5 360,287.1 361.3,287.1 361.3,283.5 
			369.3,283.5 369.3,294.6 361.3,294.6 361.3,291.6 360,291.6 360,294.6 356.4,294.6 356.4,295.9 370.6,295.9 370.6,266.7 
			343.7,266.7 		"/>
		<polygon class="st2" points="504.4,295.9 521,295.9 521,294.6 505.7,294.6 505.7,268 530.5,268 530.5,294.6 525.6,294.6 
			525.6,295.9 531.7,295.9 531.7,266.7 504.4,266.7 		"/>
		<polygon class="st2" points="586.4,295.9 592.1,295.9 592.1,294.6 587.7,294.6 587.7,268 599.2,268 599.2,294.6 596.1,294.6 
			596.1,295.9 600.5,295.9 600.5,266.7 586.4,266.7 		"/>
		<polygon class="st2" points="451.1,335.2 463.9,335.2 463.9,306 459.3,306 459.3,307.3 462.6,307.3 462.6,333.9 452.4,333.9 
			452.4,307.3 454.8,307.3 454.8,306 451.1,306 		"/>
		<polygon class="st2" points="303.2,335.2 317,335.2 317,306 311,306 311,307.3 315.7,307.3 315.7,333.9 304.5,333.9 304.5,307.3 
			306.3,307.3 306.3,306 303.2,306 		"/>
		<polygon class="st2" points="155.7,335.2 168.6,335.2 168.6,306 163.9,306 163.9,307.3 167.3,307.3 167.3,333.9 157,333.9 
			157,307.3 158.8,307.3 158.8,306 155.7,306 		"/>
		<polygon class="st2" points="169.1,335.2 182.6,335.2 182.6,306 179.5,306 179.5,307.3 181.3,307.3 181.3,333.9 170.4,333.9 
			170.4,307.3 175.1,307.3 175.1,306 169.1,306 		"/>
		<polygon class="st2" points="586.4,335.3 587.7,335.3 587.7,335.2 600.5,335.2 600.5,306 581.1,306 581.1,307.3 586.4,307.3 
			586.4,311.3 587.7,311.3 587.7,307.3 599.2,307.3 599.2,333.9 587.7,333.9 587.7,315.5 586.4,315.5 586.4,316.7 581.1,316.7 
			581.1,318 586.4,318 586.4,333.9 574,333.9 574,318 576.8,318 576.8,316.7 574,316.7 574,307.3 576.8,307.3 576.8,306 572.7,306 
			572.7,335.2 586.4,335.2 		"/>
		<polygon class="st4" points="601.1,295.9 630.4,295.9 630.4,294.6 602.4,294.6 602.4,268 638.4,268 638.4,294.6 634.4,294.6 
			634.4,295.9 639.7,295.9 639.7,266.7 601.1,266.7 		"/>
		<polygon class="st2" points="765,319.3 765,319.3 765,319.3 746.7,305.6 746.4,306 728.3,306 728.3,307.3 746.7,307.3 
			763.2,319.6 752.5,333.9 720.5,333.9 720.5,307.3 723.6,307.3 723.6,306 719.2,306 719.2,335.2 753.1,335.2 753.1,335.2 
			753.1,335.2 		"/>
		<path class="st1" d="M924.1,62.8l11.5-15.4l-1.8-1.4l-1.1,1.4l-22.2-16.6l0,0l-1.8-1.4l-19.3,25.9l-8.1-6.1v0l-1.8-1.4l0,0l0,0
			l-1.3,1.8h0l-159.8,214H44.4v26.4h2.3v-24.1h186.9v21.4h-25.9v2.3h28.2v-23.7h296.2v31.1h2.3v-31.1H719l0.2,0.2L879.9,51.2
			l9.9,7.4l0.8-1l0,0l18.5-24.8l22.2,16.6l-9,12.1L924.1,62.8L924.1,62.8z M74.9,337.8h679.6l0,0h0v-0.1l198.7-266l-1.8-1.4v0
			l-18-13.5l-1.3,1.8l18,13.5l-63.7,85.3l-16.7-12.5l18.7-25l-1.8-1.4l-18.7,25l-0.1-0.1l-1.3,1.8l18.6,13.9l-77.1,103.2L789,248.5
			l-1.3,1.8l0,0l-17.2,23l1.8,1.4l17.2-23l17,12.7l-15.9,21.3l-2.7-2l-1.3,1.8l2.6,2l-35.9,48.1H534.3v-31.1h-2.3v31.1H74.9v-12.7
			H41.9V296h16.5v-2.3H38.2v2.3h1.4v29.1h33.1v10.4h0v2.3h0L74.9,337.8L74.9,337.8L74.9,337.8z"/>
		<polygon class="st1" points="20.3,337.7 20.3,337.8 22.5,337.8 72.6,337.8 72.7,337.8 72.7,337.7 72.7,335.6 72.7,335.6 
			72.6,335.6 22.5,335.6 22.4,335.6 22.4,335.6 22.5,335.6 22.5,266.1 44.4,266.1 44.4,266.1 44.4,266 44.4,263.9 44.4,263.8 
			44.4,263.8 20.3,263.8 20.2,263.8 20.2,335.6 20.2,337.7 20.2,337.8 20.3,337.8 20.3,337.7 20.4,337.7 20.4,335.6 20.4,263.9 
			20.3,263.9 20.3,264 44.4,264 44.4,263.9 44.3,263.9 44.3,266 44.4,266 44.4,265.9 22.5,265.9 22.3,265.9 22.3,335.7 22.5,335.7 
			72.6,335.7 72.6,335.6 72.5,335.6 72.5,337.7 72.6,337.7 72.6,337.7 22.5,337.7 20.3,337.7 20.3,337.7 20.4,337.7 		"/>
		<rect x="207.7" y="266.7" class="st7" width="25.2" height="19.9"/>
		<rect x="221.9" y="268.5" class="st1" width="1.6" height="7.4"/>
		<rect x="219.3" y="268.5" class="st1" width="1.6" height="7.4"/>
		<rect x="216.7" y="268.5" class="st1" width="1.6" height="7.4"/>
		<rect x="214.1" y="268.5" class="st1" width="1.6" height="7.4"/>
		<rect x="211.5" y="268.5" class="st1" width="1.6" height="7.4"/>
		<rect x="208.9" y="268.5" class="st1" width="1.6" height="7.4"/>
		<rect x="221.9" y="277.4" class="st1" width="1.6" height="7.4"/>
		<rect x="219.3" y="277.4" class="st1" width="1.6" height="7.4"/>
		<rect x="216.7" y="277.4" class="st1" width="1.6" height="7.4"/>
		<rect x="214.1" y="277.4" class="st1" width="1.6" height="7.4"/>
		<rect x="211.5" y="277.4" class="st1" width="1.6" height="7.4"/>
		<rect x="208.9" y="277.4" class="st1" width="1.6" height="7.4"/>
		
			<rect x="777.3" y="258.6" transform="matrix(0.5983 -0.8013 0.8013 0.5983 102.1076 740.7442)" class="st7" width="25.2" height="19.9"/>
		
			<rect x="873.3" y="130.5" transform="matrix(0.5982 -0.8014 0.8014 0.5982 243.4642 766.3392)" class="st7" width="25.2" height="19.9"/>
		<polygon class="st1" points="785.2,261.3 784.3,262.5 790.2,266.9 791.1,265.7 		"/>
		<polygon class="st1" points="783.7,263.3 782.7,264.6 788.7,269 789.6,267.7 		"/>
		<polygon class="st1" points="782.1,265.4 781.2,266.7 787.1,271.1 788.1,269.8 		"/>
		<polygon class="st1" points="780.6,267.5 779.6,268.7 785.6,273.1 786.5,271.9 		"/>
		<polygon class="st1" points="779,269.5 778.1,270.8 784,275.2 785,274 		"/>
		<polygon class="st1" points="777.5,271.6 776.5,272.9 782.5,277.3 783.4,276 		"/>
		<rect x="794" y="265.6" transform="matrix(0.599 -0.8007 0.8007 0.599 103.0388 744.402)" class="st1" width="1.6" height="7.4"/>
		<polygon class="st1" points="790.8,268.6 789.8,269.9 795.8,274.3 796.7,273 		"/>
		<polygon class="st1" points="789.2,270.7 788.3,272 794.2,276.4 795.2,275.1 		"/>
		<polygon class="st1" points="787.7,272.8 786.7,274 792.7,278.5 793.6,277.2 		"/>
		<polygon class="st1" points="786.1,274.8 785.2,276.1 791.1,280.5 792.1,279.3 		"/>
		<polygon class="st1" points="784.6,276.9 783.7,278.2 789.6,282.6 790.5,281.3 		"/>
		<polygon class="st1" points="890.6,147.7 891.5,146.5 885.6,142 884.6,143.3 		"/>
		<polygon class="st1" points="892.1,145.7 893,144.4 887.1,140 886.2,141.2 		"/>
		<polygon class="st1" points="893.7,143.6 894.6,142.3 888.7,137.9 887.7,139.2 		"/>
		<polygon class="st1" points="895.2,141.5 896.1,140.3 890.2,135.8 889.3,137.1 		"/>
		<polygon class="st1" points="896.7,139.4 897.7,138.2 891.8,133.8 890.8,135 		"/>
		<polygon class="st1" points="898.3,137.4 899.2,136.1 893.3,131.7 892.4,132.9 		"/>
		<polygon class="st1" points="883.5,142.4 884.4,141.2 878.5,136.7 877.5,138 		"/>
		<polygon class="st1" points="885,140.3 885.9,139.1 880,134.7 879.1,135.9 		"/>
		
			<rect x="883.2" y="131.7" transform="matrix(0.5993 -0.8005 0.8005 0.5993 245.8586 761.9069)" class="st1" width="1.6" height="7.4"/>
		<polygon class="st1" points="888.1,136.2 889,134.9 883.1,130.5 882.2,131.8 		"/>
		<polygon class="st1" points="889.6,134.1 890.6,132.9 884.7,128.5 883.7,129.7 		"/>
		<polygon class="st1" points="891.2,132.1 892.1,130.8 886.2,126.4 885.3,127.6 		"/>
		
			<rect x="913.9" y="76.6" transform="matrix(0.5986 -0.801 0.801 0.5986 307.0071 767.1428)" class="st2" width="10.2" height="1.3"/>
		<polygon class="st6" points="931.9,95.5 931.9,95.5 932.6,94.4 915.2,81.4 915.2,81.4 915.1,81.3 905.5,94.2 906.5,95 915.3,83.1 
			930.8,94.7 917.3,112.8 901.8,101.3 903.6,98.9 902.5,98.1 900,101.5 900.1,101.6 900.1,101.6 916.5,113.9 916.5,113.9 
			917.5,114.7 		"/>
		<polygon class="st2" points="907,128.7 907,128.7 917.3,115 916.2,114.3 916.2,114.3 899.7,101.9 898.9,103 897.8,104.5 
			898.8,105.3 900,103.7 915.5,115.3 906.5,127.3 895.2,118.9 898.1,115 897,114.3 897,114.3 893.8,111.9 895.7,109.4 894.7,108.6 
			892.8,111.1 892.8,111.1 892,112.2 896.3,115.3 893.4,119.2 894.4,120 894.4,119.9 906.7,129.1 		"/>
		<rect x="563.7" y="268.8" class="st7" width="21.9" height="21.9"/>
		<rect x="564.5" y="282.2" class="st1" width="5.6" height="1.3"/>
		<rect x="564.5" y="280.3" class="st1" width="5.6" height="1.3"/>
		<rect x="564.5" y="278.4" class="st1" width="5.6" height="1.3"/>
		<rect x="564.5" y="276.4" class="st1" width="5.6" height="1.3"/>
		<rect x="576.6" y="269.6" class="st1" width="1.3" height="5.6"/>
		<rect x="574.7" y="269.6" class="st1" width="1.3" height="5.6"/>
		<rect x="572.8" y="269.6" class="st1" width="1.3" height="5.6"/>
		<rect x="570.9" y="269.6" class="st1" width="1.3" height="5.6"/>
		<rect x="577.1" y="284.4" class="st1" width="1.3" height="5.6"/>
		<rect x="575.3" y="284.4" class="st1" width="1.3" height="5.6"/>
		<rect x="573.4" y="284.4" class="st1" width="1.3" height="5.6"/>
		<rect x="571.6" y="284.4" class="st1" width="1.3" height="5.6"/>
		<rect x="579.2" y="281.6" class="st1" width="5.6" height="1.3"/>
		<rect x="579.2" y="279.7" class="st1" width="5.6" height="1.3"/>
		<rect x="579.2" y="277.9" class="st1" width="5.6" height="1.3"/>
		<rect x="579.2" y="276" class="st1" width="5.6" height="1.3"/>
		<polygon class="st1" points="584.7,284.4 584.7,284.4 579.2,284.4 579.2,289.9 584.8,289.9 584.8,284.4 584.7,284.4 584.7,284.4 
			584.7,284.4 584.7,289.8 579.3,289.8 579.3,284.5 584.7,284.5 584.7,284.4 584.7,284.4 		"/>
		<polygon class="st1" points="584.8,269.7 584.8,269.6 579.2,269.6 579.2,275.2 584.8,275.2 584.8,269.6 584.8,269.6 584.8,269.7 
			584.7,269.7 584.7,275.1 579.4,275.1 579.4,269.7 584.8,269.7 584.8,269.7 584.7,269.7 		"/>
		<polygon class="st1" points="578.3,276.1 578.3,276 570.9,276 570.9,283.5 578.4,283.5 578.4,276 578.3,276 578.3,276.1 
			578.2,276.1 578.2,283.3 571,283.3 571,276.2 578.3,276.2 578.3,276.1 578.2,276.1 		"/>
		<polygon class="st1" points="570,284.4 570,284.4 564.5,284.4 564.5,289.9 570,289.9 570,284.4 570,284.4 570,284.4 569.9,284.4 
			569.9,289.8 564.6,289.8 564.6,284.5 570,284.5 570,284.4 569.9,284.4 		"/>
		<polygon class="st1" points="570,269.7 570,269.6 564.5,269.6 564.5,275.2 570.1,275.2 570.1,269.6 570,269.6 570,269.7 
			570,269.7 570,275.1 564.6,275.1 564.6,269.7 570,269.7 570,269.7 570,269.7 		"/>
		<rect x="372.9" y="269.4" class="st7" width="21.9" height="21.9"/>
		<rect x="373.8" y="282.8" class="st1" width="5.6" height="1.3"/>
		<rect x="373.8" y="280.9" class="st1" width="5.6" height="1.3"/>
		<rect x="373.8" y="279" class="st1" width="5.6" height="1.3"/>
		<rect x="373.8" y="277.1" class="st1" width="5.6" height="1.3"/>
		<rect x="385.8" y="270.2" class="st1" width="1.3" height="5.6"/>
		<rect x="383.9" y="270.2" class="st1" width="1.3" height="5.6"/>
		<rect x="382.1" y="270.2" class="st1" width="1.3" height="5.6"/>
		<rect x="380.2" y="270.2" class="st1" width="1.3" height="5.6"/>
		<rect x="386.4" y="285" class="st1" width="1.3" height="5.6"/>
		<rect x="384.5" y="285" class="st1" width="1.3" height="5.6"/>
		<rect x="382.7" y="285" class="st1" width="1.3" height="5.6"/>
		<rect x="380.9" y="285" class="st1" width="1.3" height="5.6"/>
		<rect x="388.5" y="282.2" class="st1" width="5.6" height="1.3"/>
		<rect x="388.5" y="280.3" class="st1" width="5.6" height="1.3"/>
		<rect x="388.5" y="278.5" class="st1" width="5.6" height="1.3"/>
		<rect x="388.5" y="276.6" class="st1" width="5.6" height="1.3"/>
		<polygon class="st1" points="394,285 394,285 388.5,285 388.5,290.5 394.1,290.5 394.1,285 394,285 394,285 393.9,285 
			393.9,290.4 388.6,290.4 388.6,285.1 394,285.1 394,285 393.9,285 		"/>
		<polygon class="st1" points="394,270.3 394,270.2 388.5,270.2 388.5,275.8 394.1,275.8 394.1,270.2 394,270.2 394,270.3 
			394,270.3 394,275.7 388.6,275.7 388.6,270.3 394,270.3 394,270.3 394,270.3 		"/>
		<polygon class="st1" points="387.6,276.7 387.6,276.6 380.2,276.6 380.2,284.1 387.6,284.1 387.6,276.6 387.6,276.6 387.6,276.7 
			387.5,276.7 387.5,283.9 380.3,283.9 380.3,276.8 387.6,276.8 387.6,276.7 387.5,276.7 		"/>
		<polygon class="st1" points="379.3,285 379.3,285 373.7,285 373.7,290.5 379.3,290.5 379.3,285 379.3,285 379.3,285 379.2,285 
			379.2,290.4 373.9,290.4 373.9,285.1 379.3,285.1 379.3,285 379.2,285 		"/>
		<polygon class="st1" points="379.3,270.3 379.3,270.2 373.8,270.2 373.8,275.8 379.3,275.8 379.3,270.2 379.3,270.2 379.3,270.3 
			379.2,270.3 379.2,275.7 373.9,275.7 373.9,270.3 379.3,270.3 379.3,270.3 379.2,270.3 		"/>
		<path class="st5" d="M81.1,281.7c1.9,0,3.4-1.5,3.4-3.4s-1.5-3.4-3.4-3.4s-3.4,1.5-3.4,3.4S79.3,281.7,81.1,281.7"/>
		<path class="st7" d="M79,278.6l0.4,0c0,0.1,0,0.2,0.1,0.2c0.1,0,0.1,0.1,0.2,0.1c0.1,0,0.1,0,0.2-0.1s0.1-0.1,0.1-0.2
			c0-0.1,0-0.2-0.1-0.2s-0.1-0.1-0.2-0.1c-0.1,0-0.1,0-0.2,0l0-0.3c0.1,0,0.2,0,0.2-0.1s0.1-0.1,0.1-0.2c0-0.1,0-0.1-0.1-0.1
			s-0.1-0.1-0.1-0.1s-0.1,0-0.2,0.1c0,0-0.1,0.1-0.1,0.2l-0.3-0.1c0-0.1,0.1-0.2,0.1-0.3c0.1-0.1,0.1-0.1,0.2-0.2s0.2-0.1,0.3-0.1
			c0.2,0,0.3,0.1,0.4,0.2c0.1,0.1,0.1,0.2,0.1,0.3c0,0.2-0.1,0.3-0.3,0.4c0.1,0,0.2,0.1,0.3,0.1c0.1,0.1,0.1,0.2,0.1,0.3
			c0,0.2-0.1,0.3-0.2,0.4c-0.1,0.1-0.3,0.2-0.4,0.2c-0.2,0-0.3,0-0.4-0.1S79.1,278.8,79,278.6"/>
		<path class="st7" d="M81.1,277.6c0,0-0.1,0-0.1,0s-0.1,0.1-0.1,0.1c0,0.1,0,0.2,0,0.5s0,0.4,0,0.5c0,0.1,0.1,0.1,0.1,0.2
			s0.1,0,0.1,0s0.1,0,0.1,0s0.1-0.1,0.1-0.1c0-0.1,0-0.2,0-0.5s0-0.4,0-0.5c0-0.1-0.1-0.1-0.1-0.2S81.2,277.6,81.1,277.6
			 M81.1,277.3c0.2,0,0.3,0.1,0.4,0.2c0.1,0.1,0.2,0.4,0.2,0.8s-0.1,0.6-0.2,0.8c-0.1,0.1-0.2,0.2-0.4,0.2s-0.3-0.1-0.4-0.2
			c-0.1-0.1-0.2-0.4-0.2-0.8s0.1-0.6,0.2-0.8C80.8,277.3,80.9,277.3,81.1,277.3"/>
		<path class="st7" d="M82.9,279.1h-0.4v-1.4c-0.1,0.1-0.3,0.2-0.5,0.3v-0.3c0.1,0,0.2-0.1,0.3-0.2c0.1-0.1,0.2-0.2,0.2-0.3h0.3
			L82.9,279.1L82.9,279.1z"/>
		<path class="st5" d="M94.6,281.5c1.9,0,3.4-1.5,3.4-3.4s-1.5-3.4-3.4-3.4s-3.4,1.5-3.4,3.4S92.7,281.5,94.6,281.5"/>
		<path class="st7" d="M92.5,278.5l0.4,0c0,0.1,0,0.2,0.1,0.2c0.1,0,0.1,0.1,0.2,0.1c0.1,0,0.1,0,0.2-0.1s0.1-0.1,0.1-0.2
			c0-0.1,0-0.2-0.1-0.2s-0.1-0.1-0.2-0.1c-0.1,0-0.1,0-0.2,0l0-0.3c0.1,0,0.2,0,0.2-0.1s0.1-0.1,0.1-0.2c0-0.1,0-0.1-0.1-0.1
			s-0.1-0.1-0.1-0.1s-0.1,0-0.2,0.1c0,0-0.1,0.1-0.1,0.2l-0.3-0.1c0-0.1,0.1-0.2,0.1-0.3c0.1-0.1,0.1-0.1,0.2-0.2s0.2-0.1,0.3-0.1
			c0.2,0,0.3,0.1,0.4,0.2c0.1,0.1,0.1,0.2,0.1,0.3c0,0.2-0.1,0.3-0.3,0.4c0.1,0,0.2,0.1,0.3,0.1c0.1,0.1,0.1,0.2,0.1,0.3
			c0,0.2-0.1,0.3-0.2,0.4c-0.1,0.1-0.3,0.2-0.4,0.2c-0.2,0-0.3,0-0.4-0.1S92.5,278.6,92.5,278.5"/>
		<path class="st7" d="M94.6,277.4c0,0-0.1,0-0.1,0s-0.1,0.1-0.1,0.1c0,0.1,0,0.2,0,0.5s0,0.4,0,0.5c0,0.1,0.1,0.1,0.1,0.2
			s0.1,0,0.1,0s0.1,0,0.1,0s0.1-0.1,0.1-0.1c0-0.1,0-0.2,0-0.5s0-0.4,0-0.5c0-0.1-0.1-0.1-0.1-0.2S94.6,277.4,94.6,277.4
			 M94.6,277.1c0.2,0,0.3,0.1,0.4,0.2c0.1,0.1,0.2,0.4,0.2,0.8s-0.1,0.6-0.2,0.8c-0.1,0.1-0.2,0.2-0.4,0.2s-0.3-0.1-0.4-0.2
			c-0.1-0.1-0.2-0.4-0.2-0.8s0.1-0.6,0.2-0.8C94.3,277.1,94.4,277.1,94.6,277.1"/>
		<path class="st7" d="M96.6,278.6v0.3h-1.2c0-0.1,0.1-0.2,0.1-0.4c0.1-0.1,0.2-0.3,0.4-0.5c0.2-0.1,0.3-0.2,0.3-0.3
			c0.1-0.1,0.1-0.1,0.1-0.2c0-0.1,0-0.1-0.1-0.2s-0.1-0.1-0.2-0.1s-0.1,0-0.2,0.1c0,0-0.1,0.1-0.1,0.2l-0.4,0c0-0.2,0.1-0.3,0.2-0.4
			s0.2-0.1,0.4-0.1c0.2,0,0.3,0,0.4,0.1c0.1,0.1,0.2,0.2,0.2,0.4c0,0.1,0,0.2-0.1,0.2s-0.1,0.1-0.1,0.2c0,0-0.1,0.1-0.2,0.2
			c-0.1,0.1-0.2,0.2-0.2,0.2c0,0-0.1,0.1-0.1,0.1L96.6,278.6L96.6,278.6z"/>
		<path class="st5" d="M114.9,281.5c1.9,0,3.4-1.5,3.4-3.4s-1.5-3.4-3.4-3.4s-3.4,1.5-3.4,3.4S113.1,281.5,114.9,281.5"/>
		<path class="st7" d="M112.8,278.5l0.4,0c0,0.1,0,0.2,0.1,0.2c0.1,0,0.1,0.1,0.2,0.1c0.1,0,0.1,0,0.2-0.1s0.1-0.1,0.1-0.2
			c0-0.1,0-0.2-0.1-0.2s-0.1-0.1-0.2-0.1c-0.1,0-0.1,0-0.2,0l0-0.3c0.1,0,0.2,0,0.2-0.1s0.1-0.1,0.1-0.2c0-0.1,0-0.1-0.1-0.1
			s-0.1-0.1-0.1-0.1s-0.1,0-0.2,0.1c0,0-0.1,0.1-0.1,0.2l-0.3-0.1c0-0.1,0.1-0.2,0.1-0.3c0.1-0.1,0.1-0.1,0.2-0.2s0.2-0.1,0.3-0.1
			c0.2,0,0.3,0.1,0.4,0.2c0.1,0.1,0.1,0.2,0.1,0.3c0,0.2-0.1,0.3-0.3,0.4c0.1,0,0.2,0.1,0.3,0.1c0.1,0.1,0.1,0.2,0.1,0.3
			c0,0.2-0.1,0.3-0.2,0.4c-0.1,0.1-0.3,0.2-0.4,0.2c-0.2,0-0.3,0-0.4-0.1S112.8,278.6,112.8,278.5"/>
		<path class="st7" d="M114.9,277.4c0,0-0.1,0-0.1,0s-0.1,0.1-0.1,0.1c0,0.1,0,0.2,0,0.5s0,0.4,0,0.5c0,0.1,0.1,0.1,0.1,0.2
			s0.1,0,0.1,0s0.1,0,0.1,0s0.1-0.1,0.1-0.1c0-0.1,0-0.2,0-0.5s0-0.4,0-0.5c0-0.1-0.1-0.1-0.1-0.2S115,277.4,114.9,277.4
			 M114.9,277.1c0.2,0,0.3,0.1,0.4,0.2c0.1,0.1,0.2,0.4,0.2,0.8s-0.1,0.6-0.2,0.8c-0.1,0.1-0.2,0.2-0.4,0.2s-0.3-0.1-0.4-0.2
			c-0.1-0.1-0.2-0.4-0.2-0.8s0.1-0.6,0.2-0.8C114.6,277.1,114.7,277.1,114.9,277.1"/>
		<path class="st7" d="M115.7,278.5l0.4,0c0,0.1,0,0.2,0.1,0.2c0.1,0,0.1,0.1,0.2,0.1c0.1,0,0.1,0,0.2-0.1s0.1-0.1,0.1-0.2
			c0-0.1,0-0.2-0.1-0.2s-0.1-0.1-0.2-0.1c0,0-0.1,0-0.2,0l0-0.3c0.1,0,0.2,0,0.2-0.1s0.1-0.1,0.1-0.2c0-0.1,0-0.1-0.1-0.1
			s-0.1-0.1-0.1-0.1s-0.1,0-0.2,0.1c0,0-0.1,0.1-0.1,0.2l-0.3-0.1c0-0.1,0.1-0.2,0.1-0.3c0.1-0.1,0.1-0.1,0.2-0.2s0.2-0.1,0.3-0.1
			c0.2,0,0.3,0.1,0.4,0.2c0.1,0.1,0.1,0.2,0.1,0.3c0,0.2-0.1,0.3-0.3,0.4c0.1,0,0.2,0.1,0.3,0.1c0.1,0.1,0.1,0.2,0.1,0.3
			c0,0.2-0.1,0.3-0.2,0.4c-0.1,0.1-0.3,0.2-0.4,0.2s-0.3,0-0.4-0.1S115.8,278.6,115.7,278.5"/>
		<path class="st2" d="M89.3,324.2c1.9,0,3.4-1.5,3.4-3.4s-1.5-3.4-3.4-3.4s-3.4,1.5-3.4,3.4S87.4,324.2,89.3,324.2"/>
		<path class="st7" d="M86.7,321.1l0.3,0c0,0.1,0,0.2,0.1,0.2c0,0,0.1,0.1,0.1,0.1s0.1,0,0.2-0.1s0.1-0.1,0.1-0.2
			c0-0.1,0-0.2-0.1-0.2s-0.1-0.1-0.1-0.1c0,0-0.1,0-0.1,0l0-0.3c0.1,0,0.1,0,0.2-0.1c0,0,0.1-0.1,0.1-0.2c0-0.1,0-0.1-0.1-0.1
			s-0.1-0.1-0.1-0.1s-0.1,0-0.1,0.1c0,0-0.1,0.1-0.1,0.2l-0.3-0.1c0-0.1,0.1-0.2,0.1-0.3c0-0.1,0.1-0.1,0.2-0.2
			c0.1,0,0.1-0.1,0.2-0.1c0.1,0,0.3,0.1,0.4,0.2c0.1,0.1,0.1,0.2,0.1,0.3c0,0.2-0.1,0.3-0.2,0.4c0.1,0,0.2,0.1,0.2,0.1
			c0.1,0.1,0.1,0.2,0.1,0.3c0,0.2-0.1,0.3-0.1,0.4c-0.1,0.1-0.2,0.2-0.4,0.2c-0.1,0-0.3,0-0.4-0.1C86.8,321.4,86.7,321.3,86.7,321.1
			"/>
		<path class="st7" d="M88.5,320.9v-0.6l-0.4,0.6H88.5z M88.5,321.6v-0.4h-0.7v-0.3l0.7-1.2h0.3v1.2H89v0.3h-0.2v0.4H88.5
			L88.5,321.6z"/>
		<path class="st7" d="M89.7,320c0,0-0.1,0-0.1,0s-0.1,0.1-0.1,0.1c0,0.1,0,0.2,0,0.5s0,0.4,0,0.5c0,0.1,0,0.1,0.1,0.2
			c0,0,0.1,0,0.1,0s0.1,0,0.1,0s0.1-0.1,0.1-0.1c0-0.1,0-0.2,0-0.5s0-0.4,0-0.5c0-0.1,0-0.1-0.1-0.2C89.7,320.1,89.7,320,89.7,320
			 M89.7,319.7c0.1,0,0.3,0.1,0.4,0.2c0.1,0.1,0.2,0.4,0.2,0.8s-0.1,0.6-0.2,0.8c-0.1,0.1-0.2,0.2-0.4,0.2s-0.3-0.1-0.4-0.2
			c-0.1-0.1-0.1-0.4-0.1-0.8s0.1-0.6,0.2-0.8C89.4,319.8,89.5,319.7,89.7,319.7"/>
		<path class="st7" d="M91.3,320.9l-0.2-0.7l-0.2,0.7H91.3z M91.9,321.6h-0.4l-0.1-0.4h-0.6l-0.1,0.4h-0.3l0.6-1.9h0.3L91.9,321.6
			L91.9,321.6z"/>
		<path class="st2" d="M120.5,324.6c1.9,0,3.4-1.5,3.4-3.4s-1.5-3.4-3.4-3.4s-3.4,1.5-3.4,3.4S118.6,324.6,120.5,324.6"/>
		<path class="st7" d="M118.7,321.5l0.3,0c0,0.1,0,0.2,0.1,0.2c0,0,0.1,0.1,0.1,0.1s0.1,0,0.2-0.1s0.1-0.1,0.1-0.2
			c0-0.1,0-0.2-0.1-0.2s-0.1-0.1-0.1-0.1c0,0-0.1,0-0.1,0l0-0.3c0.1,0,0.1,0,0.2-0.1c0,0,0.1-0.1,0.1-0.2c0-0.1,0-0.1-0.1-0.1
			s-0.1-0.1-0.1-0.1s-0.1,0-0.1,0.1c0,0-0.1,0.1-0.1,0.2l-0.3-0.1c0-0.1,0.1-0.2,0.1-0.3c0-0.1,0.1-0.1,0.2-0.2
			c0.1,0,0.1-0.1,0.2-0.1c0.1,0,0.3,0.1,0.4,0.2c0.1,0.1,0.1,0.2,0.1,0.3c0,0.2-0.1,0.3-0.2,0.4c0.1,0,0.2,0.1,0.2,0.1
			c0.1,0.1,0.1,0.2,0.1,0.3c0,0.2-0.1,0.3-0.1,0.4c-0.1,0.1-0.2,0.2-0.4,0.2c-0.1,0-0.3,0-0.4-0.1
			C118.8,321.8,118.7,321.6,118.7,321.5"/>
		<path class="st7" d="M120.5,321.3v-0.6l-0.4,0.6H120.5z M120.5,322v-0.4h-0.7v-0.3l0.7-1.2h0.3v1.2h0.2v0.3h-0.2v0.4H120.5
			L120.5,322z"/>
		<path class="st7" d="M121.7,320.4c0,0-0.1,0-0.1,0s-0.1,0.1-0.1,0.1c0,0.1,0,0.2,0,0.5s0,0.4,0,0.5c0,0.1,0,0.1,0.1,0.2
			c0,0,0.1,0,0.1,0s0.1,0,0.1,0s0.1-0.1,0.1-0.1c0-0.1,0-0.2,0-0.5s0-0.4,0-0.5c0-0.1,0-0.1-0.1-0.2
			C121.8,320.4,121.7,320.4,121.7,320.4 M121.7,320.1c0.1,0,0.3,0.1,0.4,0.2c0.1,0.1,0.2,0.4,0.2,0.8s-0.1,0.6-0.2,0.8
			c-0.1,0.1-0.2,0.2-0.4,0.2s-0.3-0.1-0.4-0.2c-0.1-0.1-0.1-0.4-0.1-0.8s0.1-0.6,0.2-0.8C121.4,320.2,121.5,320.1,121.7,320.1"/>
		<path class="st2" d="M162.4,324.6c1.9,0,3.4-1.5,3.4-3.4s-1.5-3.4-3.4-3.4s-3.4,1.5-3.4,3.4S160.5,324.6,162.4,324.6"/>
		<path class="st7" d="M160.6,321.5l0.3,0c0,0.1,0,0.2,0.1,0.2c0,0,0.1,0.1,0.1,0.1s0.1,0,0.2-0.1s0.1-0.1,0.1-0.2
			c0-0.1,0-0.2-0.1-0.2s-0.1-0.1-0.1-0.1c0,0-0.1,0-0.1,0l0-0.3c0.1,0,0.1,0,0.2-0.1c0,0,0.1-0.1,0.1-0.2c0-0.1,0-0.1-0.1-0.1
			s-0.1-0.1-0.1-0.1s-0.1,0-0.1,0.1c0,0-0.1,0.1-0.1,0.2l-0.3-0.1c0-0.1,0.1-0.2,0.1-0.3c0-0.1,0.1-0.1,0.2-0.2
			c0.1,0,0.1-0.1,0.2-0.1c0.1,0,0.3,0.1,0.4,0.2c0.1,0.1,0.1,0.2,0.1,0.3c0,0.2-0.1,0.3-0.2,0.4c0.1,0,0.2,0.1,0.2,0.1
			c0.1,0.1,0.1,0.2,0.1,0.3c0,0.2-0.1,0.3-0.1,0.4c-0.1,0.1-0.2,0.2-0.4,0.2c-0.1,0-0.3,0-0.4-0.1
			C160.7,321.8,160.7,321.6,160.6,321.5"/>
		<path class="st7" d="M162.5,321.3v-0.6l-0.4,0.6H162.5z M162.5,322v-0.4h-0.7v-0.3l0.7-1.2h0.3v1.2h0.2v0.3h-0.2v0.4H162.5
			L162.5,322z"/>
		<path class="st7" d="M163.4,321.4c0,0.1,0,0.2,0.1,0.3s0.1,0.1,0.2,0.1s0.1,0,0.1-0.1s0.1-0.1,0.1-0.3s0-0.2-0.1-0.3
			s-0.1-0.1-0.1-0.1s-0.1,0-0.1,0.1S163.4,321.3,163.4,321.4 M164.1,320.6l-0.3,0c0-0.1,0-0.1-0.1-0.2c0,0-0.1,0-0.1,0
			c-0.1,0-0.1,0-0.2,0.1c0,0.1-0.1,0.2-0.1,0.4c0.1-0.1,0.2-0.2,0.3-0.2c0.1,0,0.2,0.1,0.3,0.2c0.1,0.1,0.1,0.3,0.1,0.4
			c0,0.2-0.1,0.4-0.1,0.5c-0.1,0.1-0.2,0.2-0.4,0.2c-0.2,0-0.3-0.1-0.4-0.2c-0.1-0.1-0.2-0.4-0.2-0.7s0.1-0.6,0.2-0.7
			s0.2-0.2,0.4-0.2c0.1,0,0.2,0,0.3,0.1S164.1,320.4,164.1,320.6"/>
		<path class="st2" d="M176.2,324.4c1.9,0,3.4-1.5,3.4-3.4s-1.5-3.4-3.4-3.4s-3.4,1.5-3.4,3.4S174.3,324.4,176.2,324.4"/>
		<path class="st7" d="M173.5,321.3l0.3,0c0,0.1,0,0.2,0.1,0.2c0,0,0.1,0.1,0.1,0.1c0.1,0,0.1,0,0.1-0.1s0.1-0.1,0.1-0.2
			c0-0.1,0-0.2-0.1-0.2s-0.1-0.1-0.1-0.1c0,0-0.1,0-0.1,0l0-0.3c0.1,0,0.1,0,0.2-0.1s0.1-0.1,0.1-0.2c0-0.1,0-0.1,0-0.1
			s-0.1-0.1-0.1-0.1s-0.1,0-0.1,0.1c0,0-0.1,0.1-0.1,0.2l-0.3-0.1c0-0.1,0.1-0.2,0.1-0.3c0-0.1,0.1-0.1,0.2-0.2s0.1-0.1,0.2-0.1
			c0.1,0,0.3,0.1,0.3,0.2c0.1,0.1,0.1,0.2,0.1,0.3c0,0.2-0.1,0.3-0.2,0.4c0.1,0,0.2,0.1,0.2,0.1s0.1,0.2,0.1,0.3
			c0,0.2-0.1,0.3-0.1,0.4c-0.1,0.1-0.2,0.2-0.4,0.2s-0.2,0-0.3-0.1S173.5,321.5,173.5,321.3"/>
		<path class="st7" d="M174.6,321.3l0.3,0c0,0.1,0,0.2,0.1,0.2s0.1,0.1,0.1,0.1c0.1,0,0.1,0,0.1-0.1s0.1-0.1,0.1-0.2
			c0-0.1,0-0.2-0.1-0.2s-0.1-0.1-0.1-0.1c0,0-0.1,0-0.1,0l0-0.3c0.1,0,0.1,0,0.2-0.1s0.1-0.1,0.1-0.2c0-0.1,0-0.1,0-0.1
			s-0.1-0.1-0.1-0.1s-0.1,0-0.1,0.1c0,0-0.1,0.1-0.1,0.2l-0.3-0.1c0-0.1,0.1-0.2,0.1-0.3c0-0.1,0.1-0.1,0.2-0.2s0.1-0.1,0.2-0.1
			c0.1,0,0.3,0.1,0.3,0.2c0.1,0.1,0.1,0.2,0.1,0.3c0,0.2-0.1,0.3-0.2,0.4c0.1,0,0.2,0.1,0.2,0.1s0.1,0.2,0.1,0.3
			c0,0.2-0.1,0.3-0.1,0.4c-0.1,0.1-0.2,0.2-0.4,0.2s-0.2,0-0.3-0.1S174.6,321.5,174.6,321.3"/>
		<path class="st7" d="M176.4,320.6c0-0.1,0-0.2-0.1-0.3c0-0.1-0.1-0.1-0.1-0.1c-0.1,0-0.1,0-0.1,0.1c0,0-0.1,0.1-0.1,0.3
			s0,0.2,0.1,0.3c0,0.1,0.1,0.1,0.1,0.1s0.1,0,0.1-0.1C176.4,320.8,176.5,320.7,176.4,320.6 M175.8,321.4l0.3,0c0,0.1,0,0.1,0.1,0.2
			c0,0,0.1,0,0.1,0c0.1,0,0.1,0,0.1-0.1s0.1-0.2,0.1-0.4c-0.1,0.1-0.2,0.2-0.3,0.2c-0.1,0-0.2-0.1-0.3-0.2c-0.1-0.1-0.1-0.3-0.1-0.4
			s0.1-0.3,0.1-0.5s0.2-0.2,0.4-0.2c0.1,0,0.3,0.1,0.4,0.2s0.1,0.4,0.1,0.7s-0.1,0.6-0.1,0.7c-0.1,0.1-0.2,0.2-0.4,0.2
			c-0.1,0-0.2,0-0.3-0.1C175.9,321.6,175.8,321.5,175.8,321.4"/>
		<path class="st7" d="M177.9,320.9c0,0.2,0,0.4,0.1,0.5c0.1,0.1,0.2,0.2,0.3,0.2s0.2-0.1,0.3-0.2s0.1-0.3,0.1-0.5s0-0.4-0.1-0.5
			s-0.2-0.1-0.3-0.1s-0.2,0-0.3,0.1S177.9,320.7,177.9,320.9 M177,320h0.3v0.8h0.2c0-0.2,0.1-0.4,0.2-0.6c0.1-0.2,0.3-0.2,0.5-0.2
			s0.4,0.1,0.5,0.2c0.1,0.2,0.2,0.4,0.2,0.7c0,0.2,0,0.4-0.1,0.5c-0.1,0.1-0.1,0.2-0.2,0.3c-0.1,0.1-0.2,0.1-0.4,0.1s-0.3,0-0.4-0.1
			c-0.1-0.1-0.2-0.1-0.2-0.3s-0.1-0.3-0.1-0.4h-0.2v0.8H177V320L177,320z"/>
		<path class="st2" d="M197,324.4c1.9,0,3.4-1.5,3.4-3.4s-1.5-3.4-3.4-3.4s-3.4,1.5-3.4,3.4S195.1,324.4,197,324.4"/>
		<path class="st7" d="M194.2,321.3l0.3,0c0,0.1,0,0.2,0.1,0.2s0.1,0.1,0.1,0.1c0.1,0,0.1,0,0.1-0.1s0.1-0.1,0.1-0.2
			c0-0.1,0-0.2-0.1-0.2s-0.1-0.1-0.1-0.1c0,0-0.1,0-0.1,0l0-0.3c0.1,0,0.1,0,0.2-0.1c0,0,0.1-0.1,0.1-0.2c0-0.1,0-0.1,0-0.1
			s-0.1-0.1-0.1-0.1s-0.1,0-0.1,0.1s-0.1,0.1-0.1,0.2l-0.3-0.1c0-0.1,0-0.2,0.1-0.3c0-0.1,0.1-0.1,0.2-0.2s0.1-0.1,0.2-0.1
			c0.1,0,0.3,0.1,0.3,0.2c0.1,0.1,0.1,0.2,0.1,0.3c0,0.2-0.1,0.3-0.2,0.4c0.1,0,0.1,0.1,0.2,0.1c0,0.1,0.1,0.2,0.1,0.3
			c0,0.2,0,0.3-0.1,0.4c-0.1,0.1-0.2,0.2-0.4,0.2c-0.1,0-0.2,0-0.3-0.1S194.2,321.5,194.2,321.3"/>
		<path class="st7" d="M195.4,321.3l0.3,0c0,0.1,0,0.2,0.1,0.2c0,0,0.1,0.1,0.1,0.1c0.1,0,0.1,0,0.1-0.1s0.1-0.1,0.1-0.2
			c0-0.1,0-0.2-0.1-0.2s-0.1-0.1-0.1-0.1c0,0-0.1,0-0.1,0l0-0.3c0.1,0,0.1,0,0.2-0.1c0,0,0.1-0.1,0.1-0.2c0-0.1,0-0.1,0-0.1
			c0,0-0.1-0.1-0.1-0.1s-0.1,0-0.1,0.1s-0.1,0.1-0.1,0.2l-0.3-0.1c0-0.1,0-0.2,0.1-0.3c0-0.1,0.1-0.1,0.2-0.2s0.1-0.1,0.2-0.1
			c0.1,0,0.3,0.1,0.3,0.2c0.1,0.1,0.1,0.2,0.1,0.3c0,0.2-0.1,0.3-0.2,0.4c0.1,0,0.2,0.1,0.2,0.1s0.1,0.2,0.1,0.3
			c0,0.2,0,0.3-0.1,0.4c-0.1,0.1-0.2,0.2-0.4,0.2c-0.1,0-0.2,0-0.3-0.1S195.4,321.5,195.4,321.3"/>
		<path class="st7" d="M196.8,321.2c0,0.1,0,0.2,0.1,0.2c0,0.1,0.1,0.1,0.1,0.1s0.1,0,0.1-0.1s0.1-0.1,0.1-0.2c0-0.1,0-0.2-0.1-0.2
			s-0.1-0.1-0.1-0.1c-0.1,0-0.1,0-0.2,0.1S196.8,321.2,196.8,321.2 M196.8,320.4c0,0.1,0,0.1,0,0.2s0.1,0.1,0.1,0.1s0.1,0,0.1-0.1
			s0-0.1,0-0.2s0-0.1,0-0.2s-0.1-0.1-0.1-0.1s-0.1,0-0.1,0.1S196.8,320.4,196.8,320.4 M196.8,320.8c-0.1,0-0.1-0.1-0.2-0.2
			s0-0.1,0-0.2c0-0.1,0-0.2,0.1-0.4s0.2-0.1,0.3-0.1s0.3,0,0.3,0.1c0.1,0.1,0.1,0.2,0.1,0.4c0,0.1,0,0.2,0,0.2
			c0,0.1-0.1,0.1-0.1,0.1c0.1,0,0.1,0.1,0.2,0.2s0.1,0.2,0.1,0.3c0,0.2,0,0.3-0.1,0.4c-0.1,0.1-0.2,0.2-0.4,0.2
			c-0.1,0-0.2,0-0.3-0.1c-0.1-0.1-0.2-0.2-0.2-0.4c0-0.1,0-0.2,0.1-0.3C196.6,320.9,196.7,320.8,196.8,320.8"/>
		<path class="st7" d="M198.6,320.9c0,0.2,0,0.4,0.1,0.5c0.1,0.1,0.2,0.2,0.3,0.2s0.2-0.1,0.3-0.2c0.1-0.1,0.1-0.3,0.1-0.5
			s0-0.4-0.1-0.5c-0.1-0.1-0.2-0.1-0.3-0.1s-0.2,0-0.3,0.1C198.6,320.5,198.6,320.7,198.6,320.9 M197.7,320h0.3v0.8h0.2
			c0-0.2,0.1-0.4,0.2-0.6c0.1-0.2,0.3-0.2,0.5-0.2s0.4,0.1,0.5,0.2c0.1,0.2,0.2,0.4,0.2,0.7c0,0.2,0,0.4-0.1,0.5
			c0,0.1-0.1,0.2-0.2,0.3s-0.2,0.1-0.4,0.1s-0.3,0-0.4-0.1c-0.1-0.1-0.2-0.1-0.2-0.3s-0.1-0.3-0.1-0.4H198v0.8h-0.3L197.7,320
			L197.7,320z"/>
		<path class="st2" d="M221.9,324.2c1.9,0,3.4-1.5,3.4-3.4s-1.5-3.4-3.4-3.4s-3.4,1.5-3.4,3.4S220,324.2,221.9,324.2"/>
		<path class="st7" d="M219.1,321.1l0.3,0c0,0.1,0,0.2,0.1,0.2s0.1,0.1,0.1,0.1c0.1,0,0.1,0,0.1-0.1s0.1-0.1,0.1-0.2
			c0-0.1,0-0.2-0.1-0.2s-0.1-0.1-0.1-0.1c0,0-0.1,0-0.1,0l0-0.3c0.1,0,0.1,0,0.2-0.1c0,0,0.1-0.1,0.1-0.2c0-0.1,0-0.1,0-0.1
			s-0.1-0.1-0.1-0.1s-0.1,0-0.1,0.1s-0.1,0.1-0.1,0.2l-0.3-0.1c0-0.1,0-0.2,0.1-0.3c0-0.1,0.1-0.1,0.2-0.2s0.1-0.1,0.2-0.1
			c0.1,0,0.3,0.1,0.3,0.2c0.1,0.1,0.1,0.2,0.1,0.3c0,0.2-0.1,0.3-0.2,0.4c0.1,0,0.2,0.1,0.2,0.1s0.1,0.2,0.1,0.3
			c0,0.2,0,0.3-0.1,0.4c-0.1,0.1-0.2,0.2-0.4,0.2c-0.1,0-0.2,0-0.3-0.1S219.2,321.3,219.1,321.1"/>
		<path class="st7" d="M220.8,320C220.8,320,220.7,320.1,220.8,320c-0.1,0.1-0.1,0.1-0.1,0.2c0,0.1,0,0.2,0,0.5s0,0.4,0,0.5
			c0,0.1,0,0.1,0.1,0.2s0.1,0,0.1,0s0.1,0,0.1,0s0-0.1,0.1-0.1c0-0.1,0-0.2,0-0.5s0-0.4,0-0.5C220.9,320.2,220.9,320.1,220.8,320
			C220.9,320.1,220.8,320,220.8,320 M220.8,319.7c0.1,0,0.3,0.1,0.3,0.2c0.1,0.1,0.1,0.4,0.1,0.8s0,0.6-0.1,0.8
			c-0.1,0.1-0.2,0.2-0.3,0.2s-0.3-0.1-0.4-0.2c-0.1-0.1-0.1-0.4-0.1-0.8s0-0.6,0.1-0.8C220.5,319.8,220.6,319.7,220.8,319.7"/>
		<path class="st7" d="M222,320.9v-0.6l-0.4,0.6H222z M222,321.6v-0.4h-0.6v-0.3l0.6-1.2h0.2v1.2h0.2v0.3h-0.2v0.4H222L222,321.6z"
			/>
		<path class="st7" d="M223.5,320.7c0,0.2,0,0.4,0.1,0.5c0.1,0.1,0.2,0.2,0.3,0.2s0.2-0.1,0.3-0.2c0.1-0.1,0.1-0.3,0.1-0.5
			s0-0.4-0.1-0.5c-0.1-0.1-0.2-0.1-0.3-0.1s-0.2,0-0.3,0.1C223.6,320.3,223.5,320.5,223.5,320.7 M222.7,319.8h0.3v0.8h0.2
			c0-0.2,0.1-0.4,0.2-0.6c0.1-0.2,0.3-0.2,0.5-0.2s0.4,0.1,0.5,0.2c0.1,0.2,0.2,0.4,0.2,0.7c0,0.2,0,0.4-0.1,0.5
			c0,0.1-0.1,0.2-0.2,0.3s-0.2,0.1-0.4,0.1s-0.3,0-0.4-0.1c-0.1-0.1-0.2-0.1-0.2-0.3s-0.1-0.3-0.1-0.4H223v0.8h-0.3L222.7,319.8
			L222.7,319.8z"/>
		<path class="st2" d="M249.6,324c1.9,0,3.4-1.5,3.4-3.4s-1.5-3.4-3.4-3.4s-3.4,1.5-3.4,3.4S247.7,324,249.6,324"/>
		<path class="st7" d="M247.9,321l0.3,0c0,0.1,0,0.2,0.1,0.2c0,0,0.1,0.1,0.1,0.1c0.1,0,0.1,0,0.1-0.1s0.1-0.1,0.1-0.2
			c0-0.1,0-0.2-0.1-0.2s-0.1-0.1-0.1-0.1c0,0-0.1,0-0.1,0l0-0.3c0.1,0,0.1,0,0.2-0.1c0,0,0.1-0.1,0.1-0.2c0-0.1,0-0.1,0-0.1
			c0,0-0.1-0.1-0.1-0.1s-0.1,0-0.1,0.1s-0.1,0.1-0.1,0.2l-0.3-0.1c0-0.1,0-0.2,0.1-0.3c0-0.1,0.1-0.1,0.2-0.2s0.1-0.1,0.2-0.1
			c0.1,0,0.3,0.1,0.3,0.2c0.1,0.1,0.1,0.2,0.1,0.3c0,0.2-0.1,0.3-0.2,0.4c0.1,0,0.2,0.1,0.2,0.1s0.1,0.2,0.1,0.3
			c0,0.2,0,0.3-0.1,0.4c-0.1,0.1-0.2,0.2-0.4,0.2c-0.1,0-0.2,0-0.3-0.1S247.9,321.1,247.9,321"/>
		<path class="st7" d="M250.1,321.1v0.3h-1c0-0.1,0-0.2,0.1-0.4c0-0.1,0.2-0.3,0.3-0.5c0.1-0.1,0.2-0.2,0.2-0.3
			c0-0.1,0.1-0.1,0.1-0.2c0-0.1,0-0.1,0-0.2c0,0-0.1-0.1-0.1-0.1s-0.1,0-0.1,0.1c0,0-0.1,0.1-0.1,0.2l-0.3,0c0-0.2,0.1-0.3,0.2-0.4
			s0.2-0.1,0.3-0.1c0.1,0,0.3,0,0.4,0.1c0.1,0.1,0.1,0.2,0.1,0.4c0,0.1,0,0.2,0,0.2c0,0.1-0.1,0.1-0.1,0.2c0,0-0.1,0.1-0.2,0.2
			c-0.1,0.1-0.1,0.2-0.2,0.2c0,0,0,0.1-0.1,0.1L250.1,321.1L250.1,321.1z"/>
		<path class="st7" d="M250.2,319.9v-0.3h1v0.3c-0.1,0.1-0.2,0.2-0.2,0.4c-0.1,0.2-0.1,0.4-0.2,0.6s-0.1,0.4-0.1,0.6h-0.3
			c0-0.3,0-0.5,0.1-0.8c0.1-0.3,0.2-0.5,0.3-0.7H250.2L250.2,319.9z"/>
		<path class="st2" d="M284,324c1.9,0,3.4-1.5,3.4-3.4s-1.5-3.4-3.4-3.4s-3.4,1.5-3.4,3.4S282.1,324,284,324"/>
		<path class="st7" d="M282.3,321l0.3,0c0,0.1,0,0.2,0.1,0.2s0.1,0.1,0.1,0.1c0.1,0,0.1,0,0.1-0.1s0.1-0.1,0.1-0.2
			c0-0.1,0-0.2-0.1-0.2s-0.1-0.1-0.1-0.1c0,0-0.1,0-0.1,0l0-0.3c0.1,0,0.1,0,0.2-0.1c0,0,0.1-0.1,0.1-0.2c0-0.1,0-0.1,0-0.1
			s-0.1-0.1-0.1-0.1s-0.1,0-0.1,0.1s-0.1,0.1-0.1,0.2l-0.3-0.1c0-0.1,0-0.2,0.1-0.3c0-0.1,0.1-0.1,0.2-0.2s0.1-0.1,0.2-0.1
			c0.1,0,0.3,0.1,0.3,0.2c0.1,0.1,0.1,0.2,0.1,0.3c0,0.2-0.1,0.3-0.2,0.4c0.1,0,0.2,0.1,0.2,0.1s0.1,0.2,0.1,0.3
			c0,0.2,0,0.3-0.1,0.4c-0.1,0.1-0.2,0.2-0.4,0.2c-0.1,0-0.2,0-0.3-0.1S282.3,321.1,282.3,321"/>
		<path class="st7" d="M284.4,321.1v0.3h-1c0-0.1,0-0.2,0.1-0.4c0-0.1,0.2-0.3,0.3-0.5c0.1-0.1,0.2-0.2,0.2-0.3
			c0-0.1,0.1-0.1,0.1-0.2c0-0.1,0-0.1,0-0.2c0,0-0.1-0.1-0.1-0.1s-0.1,0-0.1,0.1c0,0-0.1,0.1-0.1,0.2l-0.3,0c0-0.2,0.1-0.3,0.2-0.4
			s0.2-0.1,0.3-0.1c0.1,0,0.3,0,0.4,0.1c0.1,0.1,0.1,0.2,0.1,0.4c0,0.1,0,0.2,0,0.2c0,0.1-0.1,0.1-0.1,0.2c0,0-0.1,0.1-0.2,0.2
			c-0.1,0.1-0.1,0.2-0.2,0.2c0,0,0,0.1-0.1,0.1L284.4,321.1L284.4,321.1z"/>
		<path class="st7" d="M284.9,320.8c0,0.1,0,0.2,0.1,0.3c0,0.1,0.1,0.1,0.1,0.1s0.1,0,0.1-0.1c0,0,0-0.1,0-0.3s0-0.2-0.1-0.3
			s-0.1-0.1-0.1-0.1s-0.1,0-0.1,0.1S284.9,320.7,284.9,320.8 M285.6,320l-0.3,0c0-0.1,0-0.1,0-0.2c0,0-0.1,0-0.1,0
			c-0.1,0-0.1,0-0.2,0.1c0,0.1-0.1,0.2-0.1,0.4c0.1-0.1,0.2-0.2,0.3-0.2c0.1,0,0.2,0.1,0.3,0.2c0.1,0.1,0.1,0.3,0.1,0.4
			c0,0.2,0,0.4-0.1,0.5c-0.1,0.1-0.2,0.2-0.4,0.2c-0.1,0-0.3-0.1-0.4-0.2s-0.1-0.4-0.1-0.7s0-0.6,0.1-0.7s0.2-0.2,0.4-0.2
			c0.1,0,0.2,0,0.3,0.1C285.5,319.8,285.6,319.9,285.6,320"/>
		<path class="st2" d="M309.8,323.6c1.9,0,3.4-1.5,3.4-3.4s-1.5-3.4-3.4-3.4s-3.4,1.5-3.4,3.4S308,323.6,309.8,323.6"/>
		<path class="st7" d="M308.2,320.6l0.3,0c0,0.1,0,0.2,0.1,0.2c0,0,0.1,0.1,0.1,0.1c0.1,0,0.1,0,0.1-0.1s0.1-0.1,0.1-0.2
			c0-0.1,0-0.2-0.1-0.2s-0.1-0.1-0.1-0.1c0,0-0.1,0-0.1,0l0-0.3c0.1,0,0.1,0,0.2-0.1c0,0,0.1-0.1,0.1-0.2c0-0.1,0-0.1,0-0.1
			s-0.1-0.1-0.1-0.1s-0.1,0-0.1,0.1s-0.1,0.1-0.1,0.2l-0.3-0.1c0-0.1,0-0.2,0.1-0.3c0-0.1,0.1-0.1,0.2-0.2s0.1-0.1,0.2-0.1
			c0.1,0,0.3,0.1,0.3,0.2c0.1,0.1,0.1,0.2,0.1,0.3c0,0.2-0.1,0.3-0.2,0.4c0.1,0,0.2,0.1,0.2,0.1s0.1,0.2,0.1,0.3
			c0,0.2,0,0.3-0.1,0.4c-0.1,0.1-0.2,0.2-0.4,0.2c-0.1,0-0.2,0-0.3-0.1S308.2,320.7,308.2,320.6"/>
		<path class="st7" d="M310.3,320.7v0.3h-1c0-0.1,0-0.2,0.1-0.4c0-0.1,0.2-0.3,0.3-0.5c0.1-0.1,0.2-0.2,0.2-0.3
			c0-0.1,0.1-0.1,0.1-0.2c0-0.1,0-0.1,0-0.2c0,0-0.1-0.1-0.1-0.1s-0.1,0-0.1,0.1c0,0-0.1,0.1-0.1,0.2l-0.3,0c0-0.2,0.1-0.3,0.2-0.4
			s0.2-0.1,0.3-0.1c0.1,0,0.3,0,0.4,0.1c0.1,0.1,0.1,0.2,0.1,0.4c0,0.1,0,0.2,0,0.2c0,0.1-0.1,0.1-0.1,0.2c0,0-0.1,0.1-0.2,0.2
			c-0.1,0.1-0.1,0.2-0.2,0.2c0,0,0,0.1-0.1,0.1L310.3,320.7L310.3,320.7z"/>
		<path class="st7" d="M310.5,320.6l0.3,0c0,0.1,0,0.1,0.1,0.2s0.1,0.1,0.1,0.1c0.1,0,0.1,0,0.1-0.1s0.1-0.1,0.1-0.3
			c0-0.1,0-0.2-0.1-0.3s-0.1-0.1-0.2-0.1c-0.1,0-0.2,0-0.2,0.1l-0.2,0l0.1-1h0.8v0.3h-0.5l0,0.3c0.1,0,0.1-0.1,0.2-0.1
			c0.1,0,0.2,0.1,0.3,0.2c0.1,0.1,0.1,0.3,0.1,0.5c0,0.1,0,0.3-0.1,0.4c-0.1,0.2-0.2,0.2-0.4,0.2c-0.1,0-0.2,0-0.3-0.1
			C310.5,320.9,310.5,320.7,310.5,320.6"/>
		<path class="st2" d="M299.7,285.2c1.9,0,3.4-1.5,3.4-3.4s-1.5-3.4-3.4-3.4s-3.4,1.5-3.4,3.4S297.8,285.2,299.7,285.2"/>
		<path class="st7" d="M297.2,282.2l0.3,0c0,0.1,0,0.2,0.1,0.2c0,0,0.1,0.1,0.1,0.1c0.1,0,0.1,0,0.1-0.1s0.1-0.1,0.1-0.2
			c0-0.1,0-0.2-0.1-0.2s-0.1-0.1-0.1-0.1c0,0-0.1,0-0.1,0l0-0.3c0.1,0,0.1,0,0.2-0.1c0,0,0.1-0.1,0.1-0.2c0-0.1,0-0.1,0-0.1
			c0,0-0.1-0.1-0.1-0.1s-0.1,0-0.1,0.1s-0.1,0.1-0.1,0.2l-0.3-0.1c0-0.1,0-0.2,0.1-0.3c0-0.1,0.1-0.1,0.2-0.2s0.1-0.1,0.2-0.1
			c0.1,0,0.3,0.1,0.3,0.2c0.1,0.1,0.1,0.2,0.1,0.3c0,0.2-0.1,0.3-0.2,0.4c0.1,0,0.2,0.1,0.2,0.1s0.1,0.2,0.1,0.3
			c0,0.2,0,0.3-0.1,0.4c-0.1,0.1-0.2,0.2-0.4,0.2c-0.1,0-0.2,0-0.3-0.1S297.3,282.3,297.2,282.2"/>
		<path class="st7" d="M298.9,281.1C298.9,281.1,298.8,281.1,298.9,281.1c-0.1,0.1-0.1,0.1-0.1,0.2c0,0.1,0,0.2,0,0.5s0,0.4,0,0.5
			c0,0.1,0,0.1,0.1,0.2s0.1,0,0.1,0s0.1,0,0.1,0s0-0.1,0.1-0.1c0-0.1,0-0.2,0-0.5s0-0.4,0-0.5C299,281.2,299,281.1,298.9,281.1
			C299,281.1,298.9,281.1,298.9,281.1 M298.9,280.8c0.1,0,0.3,0.1,0.3,0.2c0.1,0.1,0.1,0.4,0.1,0.8s0,0.6-0.1,0.8
			c-0.1,0.1-0.2,0.2-0.3,0.2s-0.3-0.1-0.4-0.2c-0.1-0.1-0.1-0.4-0.1-0.8s0-0.6,0.1-0.8C298.6,280.8,298.7,280.8,298.9,280.8"/>
		<path class="st7" d="M300.3,282.7H300v-1.4c-0.1,0.1-0.2,0.2-0.4,0.3v-0.3c0.1,0,0.2-0.1,0.2-0.2c0.1-0.1,0.1-0.2,0.2-0.3h0.2
			L300.3,282.7L300.3,282.7z"/>
		<path class="st7" d="M301.6,281.9l-0.2-0.7l-0.2,0.7H301.6z M302.1,282.7h-0.3l-0.1-0.4h-0.6l-0.1,0.4h-0.3l0.6-1.9h0.3
			L302.1,282.7L302.1,282.7z"/>
		<path class="st6" d="M409.4,286.3c1.9,0,3.4-1.5,3.4-3.4s-1.5-3.4-3.4-3.4s-3.4,1.5-3.4,3.4S407.5,286.3,409.4,286.3"/>
		<path class="st7" d="M407.7,283.3l0.3,0c0,0.1,0,0.2,0.1,0.2c0,0,0.1,0.1,0.1,0.1c0.1,0,0.1,0,0.1-0.1s0.1-0.1,0.1-0.2
			c0-0.1,0-0.2-0.1-0.2s-0.1-0.1-0.1-0.1c0,0-0.1,0-0.1,0l0-0.3c0.1,0,0.1,0,0.2-0.1c0,0,0.1-0.1,0.1-0.2c0-0.1,0-0.1,0-0.1
			s-0.1-0.1-0.1-0.1s-0.1,0-0.1,0.1s-0.1,0.1-0.1,0.2l-0.3-0.1c0-0.1,0-0.2,0.1-0.3c0-0.1,0.1-0.1,0.2-0.2s0.1-0.1,0.2-0.1
			c0.1,0,0.3,0.1,0.3,0.2c0.1,0.1,0.1,0.2,0.1,0.3c0,0.2-0.1,0.3-0.2,0.4c0.1,0,0.2,0.1,0.2,0.1s0.1,0.2,0.1,0.3
			c0,0.2,0,0.3-0.1,0.4c-0.1,0.1-0.2,0.2-0.4,0.2c-0.1,0-0.2,0-0.3-0.1S407.7,283.4,407.7,283.3"/>
		<path class="st7" d="M409.4,282.2C409.4,282.2,409.3,282.2,409.4,282.2c-0.1,0.1-0.1,0.1-0.1,0.2c0,0.1,0,0.2,0,0.5s0,0.4,0,0.5
			c0,0.1,0,0.1,0.1,0.2s0.1,0,0.1,0s0.1,0,0.1,0s0-0.1,0.1-0.1c0-0.1,0-0.2,0-0.5s0-0.4,0-0.5C409.5,282.3,409.5,282.3,409.4,282.2
			C409.4,282.2,409.4,282.2,409.4,282.2 M409.4,281.9c0.1,0,0.3,0.1,0.3,0.2c0.1,0.1,0.1,0.4,0.1,0.8s0,0.6-0.1,0.8
			c-0.1,0.1-0.2,0.2-0.3,0.2s-0.3-0.1-0.4-0.2c-0.1-0.1-0.1-0.4-0.1-0.8s0-0.6,0.1-0.8C409.1,281.9,409.2,281.9,409.4,281.9"/>
		<path class="st7" d="M411,283.4v0.3h-1c0-0.1,0-0.2,0.1-0.4c0-0.1,0.2-0.3,0.3-0.5c0.1-0.1,0.2-0.2,0.2-0.3c0-0.1,0.1-0.1,0.1-0.2
			c0-0.1,0-0.1,0-0.2c0,0-0.1-0.1-0.1-0.1s-0.1,0-0.1,0.1c0,0-0.1,0.1-0.1,0.2l-0.3,0c0-0.2,0.1-0.3,0.2-0.4s0.2-0.1,0.3-0.1
			c0.1,0,0.3,0,0.4,0.1c0.1,0.1,0.1,0.2,0.1,0.4c0,0.1,0,0.2,0,0.2c0,0.1-0.1,0.1-0.1,0.2c0,0-0.1,0.1-0.2,0.2
			c-0.1,0.1-0.1,0.2-0.2,0.2c0,0,0,0.1-0.1,0.1L411,283.4L411,283.4z"/>
		<path class="st6" d="M446,286.1c1.9,0,3.4-1.5,3.4-3.4s-1.5-3.4-3.4-3.4s-3.4,1.5-3.4,3.4S444.1,286.1,446,286.1"/>
		<path class="st7" d="M444.3,283.1l0.3,0c0,0.1,0,0.2,0.1,0.2c0,0,0.1,0.1,0.1,0.1c0.1,0,0.1,0,0.1-0.1s0.1-0.1,0.1-0.2
			c0-0.1,0-0.2-0.1-0.2s-0.1-0.1-0.1-0.1c0,0-0.1,0-0.1,0l0-0.3c0.1,0,0.1,0,0.2-0.1c0,0,0.1-0.1,0.1-0.2c0-0.1,0-0.1,0-0.1
			c0,0-0.1-0.1-0.1-0.1s-0.1,0-0.1,0.1s-0.1,0.1-0.1,0.2l-0.3-0.1c0-0.1,0-0.2,0.1-0.3c0-0.1,0.1-0.1,0.2-0.2s0.1-0.1,0.2-0.1
			c0.1,0,0.3,0.1,0.3,0.2c0.1,0.1,0.1,0.2,0.1,0.3c0,0.2-0.1,0.3-0.2,0.4c0.1,0,0.2,0.1,0.2,0.1s0.1,0.2,0.1,0.3
			c0,0.2,0,0.3-0.1,0.4c-0.1,0.1-0.2,0.2-0.4,0.2s-0.2,0-0.3-0.1S444.3,283.2,444.3,283.1"/>
		<path class="st7" d="M446,282C446,282,445.9,282,446,282c-0.1,0.1-0.1,0.1-0.1,0.2c0,0.1,0,0.2,0,0.5s0,0.4,0,0.5
			c0,0.1,0,0.1,0.1,0.2s0.1,0,0.1,0s0.1,0,0.1,0s0-0.1,0.1-0.1c0-0.1,0-0.2,0-0.5s0-0.4,0-0.5C446.1,282.1,446.1,282.1,446,282
			C446,282,446,282,446,282 M446,281.7c0.1,0,0.3,0.1,0.3,0.2c0.1,0.1,0.1,0.4,0.1,0.8s0,0.6-0.1,0.8c-0.1,0.1-0.2,0.2-0.3,0.2
			s-0.3-0.1-0.4-0.2c-0.1-0.1-0.1-0.4-0.1-0.8s0-0.6,0.1-0.8C445.7,281.7,445.8,281.7,446,281.7"/>
		<path class="st7" d="M446.6,283.1l0.3,0c0,0.1,0,0.2,0.1,0.2c0,0,0.1,0.1,0.1,0.1c0.1,0,0.1,0,0.1-0.1s0.1-0.1,0.1-0.2
			c0-0.1,0-0.2-0.1-0.2s-0.1-0.1-0.1-0.1c0,0-0.1,0-0.1,0l0-0.3c0.1,0,0.1,0,0.2-0.1c0,0,0.1-0.1,0.1-0.2c0-0.1,0-0.1,0-0.1
			s-0.1-0.1-0.1-0.1s-0.1,0-0.1,0.1s-0.1,0.1-0.1,0.2l-0.3-0.1c0-0.1,0-0.2,0.1-0.3c0-0.1,0.1-0.1,0.2-0.2s0.1-0.1,0.2-0.1
			c0.1,0,0.3,0.1,0.3,0.2c0.1,0.1,0.1,0.2,0.1,0.3c0,0.2-0.1,0.3-0.2,0.4c0.1,0,0.2,0.1,0.2,0.1s0.1,0.2,0.1,0.3
			c0,0.2,0,0.3-0.1,0.4c-0.1,0.1-0.2,0.2-0.4,0.2c-0.1,0-0.2,0-0.3-0.1S446.6,283.2,446.6,283.1"/>
		<path class="st2" d="M516.7,285.8c1.9,0,3.4-1.5,3.4-3.4s-1.5-3.4-3.4-3.4s-3.4,1.5-3.4,3.4S514.9,285.8,516.7,285.8"/>
		<path class="st7" d="M515.1,282.8l0.3,0c0,0.1,0,0.2,0.1,0.2c0,0,0.1,0.1,0.1,0.1c0.1,0,0.1,0,0.2-0.1s0.1-0.1,0.1-0.2
			c0-0.1,0-0.2-0.1-0.2s-0.1-0.1-0.1-0.1c0,0-0.1,0-0.1,0l0-0.3c0.1,0,0.1,0,0.2-0.1s0.1-0.1,0.1-0.2c0-0.1,0-0.1,0-0.1
			c0,0-0.1-0.1-0.1-0.1s-0.1,0-0.1,0.1c0,0-0.1,0.1-0.1,0.2l-0.3-0.1c0-0.1,0-0.2,0.1-0.3c0-0.1,0.1-0.1,0.2-0.2
			c0.1,0,0.1-0.1,0.2-0.1c0.1,0,0.3,0.1,0.3,0.2c0.1,0.1,0.1,0.2,0.1,0.3c0,0.2-0.1,0.3-0.2,0.4c0.1,0,0.2,0.1,0.2,0.1
			c0,0.1,0.1,0.2,0.1,0.3c0,0.2,0,0.3-0.2,0.4c-0.1,0.1-0.2,0.2-0.4,0.2s-0.2,0-0.3-0.1S515.1,282.9,515.1,282.8"/>
		<path class="st7" d="M516.7,281.7C516.7,281.7,516.6,281.7,516.7,281.7c-0.1,0.1-0.1,0.1-0.2,0.2c0,0.1,0,0.2,0,0.5s0,0.4,0,0.5
			c0,0.1,0,0.1,0.1,0.2s0.1,0,0.1,0s0.1,0,0.1,0s0-0.1,0.1-0.1c0-0.1,0-0.2,0-0.5s0-0.4,0-0.5C516.8,281.8,516.8,281.7,516.7,281.7
			C516.8,281.7,516.7,281.7,516.7,281.7 M516.7,281.4c0.2,0,0.3,0.1,0.3,0.2c0.1,0.1,0.2,0.4,0.2,0.8s0,0.6-0.2,0.8
			c-0.1,0.1-0.2,0.2-0.3,0.2s-0.3-0.1-0.4-0.2c-0.1-0.1-0.1-0.4-0.1-0.8s0-0.6,0.2-0.8C516.4,281.4,516.6,281.4,516.7,281.4"/>
		<path class="st7" d="M517.9,282.6v-0.6l-0.3,0.6H517.9z M517.9,283.3v-0.4h-0.6v-0.3l0.7-1.2h0.2v1.2h0.2v0.3h-0.2v0.4H517.9
			L517.9,283.3z"/>
		<path class="st2" d="M594.3,284.3c1.9,0,3.4-1.5,3.4-3.4s-1.5-3.4-3.4-3.4s-3.4,1.5-3.4,3.4S592.4,284.3,594.3,284.3"/>
		<path class="st7" d="M592.6,281.2l0.3,0c0,0.1,0,0.2,0.1,0.2s0.1,0.1,0.1,0.1c0.1,0,0.1,0,0.2-0.1s0.1-0.1,0.1-0.2
			c0-0.1,0-0.2-0.1-0.2s-0.1-0.1-0.1-0.1c0,0-0.1,0-0.1,0l0-0.3c0.1,0,0.1,0,0.2-0.1s0.1-0.1,0.1-0.2c0-0.1,0-0.1,0-0.1
			c0,0-0.1-0.1-0.1-0.1s-0.1,0-0.1,0.1c0,0-0.1,0.1-0.1,0.2l-0.3-0.1c0-0.1,0-0.2,0.1-0.3c0-0.1,0.1-0.1,0.2-0.2
			c0.1,0,0.1-0.1,0.2-0.1c0.1,0,0.3,0.1,0.3,0.2c0.1,0.1,0.1,0.2,0.1,0.3c0,0.2-0.1,0.3-0.2,0.4c0.1,0,0.2,0.1,0.2,0.1
			c0,0.1,0.1,0.2,0.1,0.3c0,0.2,0,0.3-0.2,0.4c-0.1,0.1-0.2,0.2-0.4,0.2s-0.2,0-0.3-0.1S592.7,281.4,592.6,281.2"/>
		<path class="st7" d="M594.3,280.1C594.3,280.1,594.2,280.2,594.3,280.1c-0.1,0.1-0.1,0.1-0.2,0.2c0,0.1,0,0.2,0,0.5s0,0.4,0,0.5
			c0,0.1,0,0.1,0.1,0.2s0.1,0,0.1,0s0.1,0,0.1,0c0,0,0-0.1,0.1-0.1c0-0.1,0-0.2,0-0.5s0-0.4,0-0.5
			C594.4,280.3,594.4,280.2,594.3,280.1C594.4,280.2,594.3,280.1,594.3,280.1 M594.3,279.8c0.2,0,0.3,0.1,0.3,0.2
			c0.1,0.1,0.2,0.4,0.2,0.8s0,0.6-0.2,0.8c-0.1,0.1-0.2,0.2-0.3,0.2s-0.3-0.1-0.4-0.2c-0.1-0.1-0.1-0.4-0.1-0.8s0-0.6,0.2-0.8
			C594,279.9,594.1,279.8,594.3,279.8"/>
		<path class="st7" d="M595,281.2l0.3,0c0,0.1,0,0.1,0.1,0.2s0.1,0.1,0.1,0.1c0.1,0,0.1,0,0.2-0.1c0-0.1,0.1-0.1,0.1-0.3
			c0-0.1,0-0.2-0.1-0.3s-0.1-0.1-0.2-0.1c-0.1,0-0.2,0-0.2,0.1l-0.2,0l0.2-1h0.8v0.3h-0.5l0,0.3c0.1,0,0.1-0.1,0.2-0.1
			c0.1,0,0.2,0.1,0.3,0.2c0.1,0.1,0.1,0.3,0.1,0.5c0,0.1,0,0.3-0.1,0.4c-0.1,0.2-0.2,0.2-0.4,0.2c-0.1,0-0.2,0-0.3-0.1
			C595,281.5,595,281.4,595,281.2"/>
		<path class="st2" d="M620.5,284.5c1.9,0,3.4-1.5,3.4-3.4s-1.5-3.4-3.4-3.4s-3.4,1.5-3.4,3.4S618.7,284.5,620.5,284.5"/>
		<path class="st7" d="M618.9,281.4l0.3,0c0,0.1,0,0.2,0.1,0.2c0,0,0.1,0.1,0.1,0.1c0.1,0,0.1,0,0.2-0.1s0.1-0.1,0.1-0.2
			c0-0.1,0-0.2-0.1-0.2s-0.1-0.1-0.1-0.1c0,0-0.1,0-0.1,0l0-0.3c0.1,0,0.1,0,0.2-0.1s0.1-0.1,0.1-0.2c0-0.1,0-0.1,0-0.1
			c0,0-0.1-0.1-0.1-0.1s-0.1,0-0.1,0.1c0,0-0.1,0.1-0.1,0.2l-0.3-0.1c0-0.1,0-0.2,0.1-0.3c0-0.1,0.1-0.1,0.2-0.2
			c0.1,0,0.1-0.1,0.2-0.1c0.1,0,0.3,0.1,0.3,0.2c0.1,0.1,0.1,0.2,0.1,0.3c0,0.2-0.1,0.3-0.2,0.4c0.1,0,0.2,0.1,0.2,0.1
			c0,0.1,0.1,0.2,0.1,0.3c0,0.2,0,0.3-0.2,0.4c-0.1,0.1-0.2,0.2-0.4,0.2s-0.2,0-0.3-0.1S618.9,281.6,618.9,281.4"/>
		<path class="st7" d="M620.5,280.3C620.5,280.3,620.5,280.3,620.5,280.3c-0.1,0.1-0.1,0.1-0.2,0.2c0,0.1,0,0.2,0,0.5s0,0.4,0,0.5
			c0,0.1,0,0.1,0.1,0.2s0.1,0,0.1,0s0.1,0,0.1,0s0-0.1,0.1-0.1c0-0.1,0-0.2,0-0.5s0-0.4,0-0.5C620.7,280.5,620.6,280.4,620.5,280.3
			C620.6,280.3,620.6,280.3,620.5,280.3 M620.5,280c0.2,0,0.3,0.1,0.3,0.2c0.1,0.1,0.2,0.4,0.2,0.8s0,0.6-0.2,0.8
			c-0.1,0.1-0.2,0.2-0.3,0.2s-0.3-0.1-0.4-0.2c-0.1-0.1-0.1-0.4-0.1-0.8s0-0.6,0.2-0.8C620.3,280.1,620.4,280,620.5,280"/>
		<path class="st7" d="M621.5,281.3c0,0.1,0,0.2,0.1,0.3c0,0.1,0.1,0.1,0.2,0.1c0,0,0.1,0,0.1-0.1s0-0.1,0-0.3s0-0.2-0.1-0.3
			s-0.1-0.1-0.1-0.1s-0.1,0-0.1,0.1C621.5,281.1,621.5,281.2,621.5,281.3 M622.2,280.5l-0.3,0c0-0.1,0-0.1,0-0.2c0,0-0.1,0-0.1,0
			c-0.1,0-0.1,0-0.2,0.1c0,0.1-0.1,0.2-0.1,0.4c0.1-0.1,0.2-0.2,0.3-0.2c0.1,0,0.2,0.1,0.3,0.2c0.1,0.1,0.1,0.3,0.1,0.4
			c0,0.2,0,0.4-0.1,0.5c-0.1,0.1-0.2,0.2-0.3,0.2c-0.2,0-0.3-0.1-0.4-0.2s-0.2-0.4-0.2-0.7s0-0.6,0.2-0.7c0.1-0.1,0.2-0.2,0.4-0.2
			c0.1,0,0.2,0,0.3,0.1C622.1,280.2,622.1,280.3,622.2,280.5"/>
		<path class="st4" d="M657.7,284.7c1.9,0,3.4-1.5,3.4-3.4s-1.5-3.4-3.4-3.4s-3.4,1.5-3.4,3.4S655.8,284.7,657.7,284.7"/>
		<path class="st7" d="M656,281.6l0.3,0c0,0.1,0,0.2,0.1,0.2c0,0,0.1,0.1,0.1,0.1c0.1,0,0.1,0,0.2-0.1s0.1-0.1,0.1-0.2
			c0-0.1,0-0.2-0.1-0.2s-0.1-0.1-0.1-0.1c0,0-0.1,0-0.1,0l0-0.3c0.1,0,0.1,0,0.2-0.1s0.1-0.1,0.1-0.2c0-0.1,0-0.1,0-0.1
			c0,0-0.1-0.1-0.1-0.1s-0.1,0-0.1,0.1c0,0-0.1,0.1-0.1,0.2l-0.3-0.1c0-0.1,0-0.2,0.1-0.3c0-0.1,0.1-0.1,0.2-0.2
			c0.1,0,0.1-0.1,0.2-0.1c0.1,0,0.3,0.1,0.3,0.2c0.1,0.1,0.1,0.2,0.1,0.3c0,0.2-0.1,0.3-0.2,0.4c0.1,0,0.2,0.1,0.2,0.1
			c0,0.1,0.1,0.2,0.1,0.3c0,0.2,0,0.3-0.2,0.4c-0.1,0.1-0.2,0.2-0.4,0.2s-0.2,0-0.3-0.1S656,281.7,656,281.6"/>
		<path class="st7" d="M657.7,280.5C657.7,280.5,657.6,280.5,657.7,280.5c-0.1,0.1-0.1,0.1-0.2,0.2c0,0.1,0,0.2,0,0.5s0,0.4,0,0.5
			c0,0.1,0,0.1,0.1,0.2s0.1,0,0.1,0s0.1,0,0.1,0s0-0.1,0.1-0.1c0-0.1,0-0.2,0-0.5s0-0.4,0-0.5C657.8,280.6,657.8,280.6,657.7,280.5
			C657.7,280.5,657.7,280.5,657.7,280.5 M657.7,280.2c0.2,0,0.3,0.1,0.3,0.2c0.1,0.1,0.2,0.4,0.2,0.8s0,0.6-0.2,0.8
			c-0.1,0.1-0.2,0.2-0.3,0.2s-0.3-0.1-0.4-0.2c-0.1-0.1-0.1-0.4-0.1-0.8s0-0.6,0.2-0.8C657.4,280.3,657.5,280.2,657.7,280.2"/>
		<path class="st7" d="M658.3,280.6v-0.3h1v0.3c-0.1,0.1-0.2,0.2-0.2,0.4c-0.1,0.2-0.2,0.4-0.2,0.6s-0.1,0.4-0.1,0.6h-0.3
			c0-0.3,0-0.5,0.1-0.8c0.1-0.3,0.2-0.5,0.3-0.7H658.3z"/>
		<path class="st2" d="M338.6,323.4c1.9,0,3.4-1.5,3.4-3.4s-1.5-3.4-3.4-3.4s-3.4,1.5-3.4,3.4S336.8,323.4,338.6,323.4"/>
		<path class="st7" d="M337,320.4l0.3,0c0,0.1,0,0.2,0.1,0.2c0,0,0.1,0.1,0.1,0.1c0.1,0,0.1,0,0.1-0.1s0.1-0.1,0.1-0.2
			c0-0.1,0-0.2-0.1-0.2s-0.1-0.1-0.1-0.1c0,0-0.1,0-0.1,0l0-0.3c0.1,0,0.1,0,0.2-0.1c0,0,0.1-0.1,0.1-0.2c0-0.1,0-0.1,0-0.1
			c0,0-0.1-0.1-0.1-0.1s-0.1,0-0.1,0.1s-0.1,0.1-0.1,0.2l-0.3-0.1c0-0.1,0-0.2,0.1-0.3c0-0.1,0.1-0.1,0.2-0.2s0.1-0.1,0.2-0.1
			c0.1,0,0.3,0.1,0.3,0.2c0.1,0.1,0.1,0.2,0.1,0.3c0,0.2-0.1,0.3-0.2,0.4c0.1,0,0.2,0.1,0.2,0.1s0.1,0.2,0.1,0.3
			c0,0.2,0,0.3-0.1,0.4c-0.1,0.1-0.2,0.2-0.4,0.2c-0.1,0-0.2,0-0.3-0.1S337,320.5,337,320.4"/>
		<path class="st7" d="M339.1,320.6v0.3h-1c0-0.1,0-0.2,0.1-0.4c0-0.1,0.2-0.3,0.3-0.5c0.1-0.1,0.2-0.2,0.2-0.3
			c0-0.1,0.1-0.1,0.1-0.2c0-0.1,0-0.1,0-0.2c0,0-0.1-0.1-0.1-0.1s-0.1,0-0.1,0.1c0,0-0.1,0.1-0.1,0.2l-0.3,0c0-0.2,0.1-0.3,0.2-0.4
			s0.2-0.1,0.3-0.1c0.1,0,0.3,0,0.4,0.1c0.1,0.1,0.1,0.2,0.1,0.4c0,0.1,0,0.2,0,0.2c0,0.1-0.1,0.1-0.1,0.2c0,0-0.1,0.1-0.2,0.2
			c-0.1,0.1-0.1,0.2-0.2,0.2c0,0,0,0.1-0.1,0.1L339.1,320.6L339.1,320.6z"/>
		<path class="st7" d="M339.9,320.2v-0.6l-0.4,0.6H339.9z M339.9,320.9v-0.4h-0.6v-0.3l0.6-1.2h0.2v1.2h0.2v0.3h-0.2v0.4H339.9
			L339.9,320.9z"/>
		<path class="st2" d="M366,323.7c1.9,0,3.4-1.5,3.4-3.4s-1.5-3.4-3.4-3.4s-3.4,1.5-3.4,3.4S364.1,323.7,366,323.7"/>
		<path class="st7" d="M364.3,320.6l0.3,0c0,0.1,0,0.2,0.1,0.2s0.1,0.1,0.1,0.1c0.1,0,0.1,0,0.1-0.1s0.1-0.1,0.1-0.2
			c0-0.1,0-0.2-0.1-0.2s-0.1-0.1-0.1-0.1c0,0-0.1,0-0.1,0l0-0.3c0.1,0,0.1,0,0.2-0.1c0,0,0.1-0.1,0.1-0.2c0-0.1,0-0.1,0-0.1
			s-0.1-0.1-0.1-0.1s-0.1,0-0.1,0.1s-0.1,0.1-0.1,0.2l-0.3-0.1c0-0.1,0-0.2,0.1-0.3c0-0.1,0.1-0.1,0.2-0.2s0.1-0.1,0.2-0.1
			c0.1,0,0.3,0.1,0.3,0.2c0.1,0.1,0.1,0.2,0.1,0.3c0,0.2-0.1,0.3-0.2,0.4c0.1,0,0.2,0.1,0.2,0.1s0.1,0.2,0.1,0.3
			c0,0.2,0,0.3-0.1,0.4c-0.1,0.1-0.2,0.2-0.4,0.2c-0.1,0-0.2,0-0.3-0.1S364.3,320.8,364.3,320.6"/>
		<path class="st7" d="M366.4,320.8v0.3h-1c0-0.1,0-0.2,0.1-0.4c0-0.1,0.2-0.3,0.3-0.5c0.1-0.1,0.2-0.2,0.2-0.3
			c0-0.1,0.1-0.1,0.1-0.2c0-0.1,0-0.1,0-0.2c0,0-0.1-0.1-0.1-0.1s-0.1,0-0.1,0.1c0,0-0.1,0.1-0.1,0.2l-0.3,0c0-0.2,0.1-0.3,0.2-0.4
			s0.2-0.1,0.3-0.1c0.1,0,0.3,0,0.4,0.1c0.1,0.1,0.1,0.2,0.1,0.4c0,0.1,0,0.2,0,0.2c0,0.1-0.1,0.1-0.1,0.2c0,0-0.1,0.1-0.2,0.2
			c-0.1,0.1-0.1,0.2-0.2,0.2c0,0,0,0.1-0.1,0.1L366.4,320.8L366.4,320.8z"/>
		<path class="st7" d="M366.6,320.6l0.3,0c0,0.1,0,0.2,0.1,0.2s0.1,0.1,0.1,0.1c0.1,0,0.1,0,0.1-0.1s0.1-0.1,0.1-0.2
			c0-0.1,0-0.2-0.1-0.2s-0.1-0.1-0.1-0.1c0,0-0.1,0-0.1,0l0-0.3c0.1,0,0.1,0,0.2-0.1c0,0,0.1-0.1,0.1-0.2c0-0.1,0-0.1,0-0.1
			s-0.1-0.1-0.1-0.1s-0.1,0-0.1,0.1s-0.1,0.1-0.1,0.2l-0.3-0.1c0-0.1,0-0.2,0.1-0.3c0-0.1,0.1-0.1,0.2-0.2s0.1-0.1,0.2-0.1
			c0.1,0,0.3,0.1,0.3,0.2c0.1,0.1,0.1,0.2,0.1,0.3c0,0.2-0.1,0.3-0.2,0.4c0.1,0,0.2,0.1,0.2,0.1s0.1,0.2,0.1,0.3
			c0,0.2,0,0.3-0.1,0.4c-0.1,0.1-0.2,0.2-0.4,0.2c-0.1,0-0.2,0-0.3-0.1S366.6,320.8,366.6,320.6"/>
		<path class="st2" d="M404.6,323.6c1.9,0,3.4-1.5,3.4-3.4s-1.5-3.4-3.4-3.4s-3.4,1.5-3.4,3.4S402.7,323.6,404.6,323.6"/>
		<path class="st7" d="M402.9,320.6l0.3,0c0,0.1,0,0.2,0.1,0.2s0.1,0.1,0.1,0.1c0.1,0,0.1,0,0.1-0.1s0.1-0.1,0.1-0.2
			c0-0.1,0-0.2-0.1-0.2s-0.1-0.1-0.1-0.1c0,0-0.1,0-0.1,0l0-0.3c0.1,0,0.1,0,0.2-0.1c0,0,0.1-0.1,0.1-0.2c0-0.1,0-0.1,0-0.1
			s-0.1-0.1-0.1-0.1s-0.1,0-0.1,0.1s-0.1,0.1-0.1,0.2l-0.3-0.1c0-0.1,0-0.2,0.1-0.3c0-0.1,0.1-0.1,0.2-0.2s0.1-0.1,0.2-0.1
			c0.1,0,0.3,0.1,0.3,0.2c0.1,0.1,0.1,0.2,0.1,0.3c0,0.2-0.1,0.3-0.2,0.4c0.1,0,0.1,0.1,0.2,0.1c0,0.1,0.1,0.2,0.1,0.3
			c0,0.2,0,0.3-0.1,0.4c-0.1,0.1-0.2,0.2-0.4,0.2c-0.1,0-0.2,0-0.3-0.1S402.9,320.7,402.9,320.6"/>
		<path class="st7" d="M405.1,320.7v0.3h-1c0-0.1,0-0.2,0.1-0.4c0-0.1,0.2-0.3,0.3-0.5c0.1-0.1,0.2-0.2,0.2-0.3
			c0-0.1,0.1-0.1,0.1-0.2c0-0.1,0-0.1,0-0.2c0,0-0.1-0.1-0.1-0.1s-0.1,0-0.1,0.1c0,0-0.1,0.1-0.1,0.2l-0.3,0c0-0.2,0.1-0.3,0.2-0.4
			s0.2-0.1,0.3-0.1c0.1,0,0.3,0,0.4,0.1c0.1,0.1,0.1,0.2,0.1,0.4c0,0.1,0,0.2,0,0.2c0,0.1-0.1,0.1-0.1,0.2c0,0-0.1,0.1-0.2,0.2
			c-0.1,0.1-0.1,0.2-0.2,0.2c0,0,0,0.1-0.1,0.1L405.1,320.7L405.1,320.7z"/>
		<path class="st7" d="M406.2,320.7v0.3h-1c0-0.1,0-0.2,0.1-0.4c0-0.1,0.2-0.3,0.3-0.5c0.1-0.1,0.2-0.2,0.2-0.3
			c0-0.1,0.1-0.1,0.1-0.2c0-0.1,0-0.1,0-0.2c0,0-0.1-0.1-0.1-0.1s-0.1,0-0.1,0.1c0,0-0.1,0.1-0.1,0.2l-0.3,0c0-0.2,0.1-0.3,0.2-0.4
			s0.2-0.1,0.3-0.1c0.1,0,0.3,0,0.4,0.1c0.1,0.1,0.1,0.2,0.1,0.4c0,0.1,0,0.2,0,0.2c0,0.1-0.1,0.1-0.1,0.2c0,0-0.1,0.1-0.2,0.2
			c-0.1,0.1-0.1,0.2-0.2,0.2c0,0,0,0.1-0.1,0.1L406.2,320.7L406.2,320.7z"/>
		<path class="st2" d="M457.2,323.3c1.9,0,3.4-1.5,3.4-3.4s-1.5-3.4-3.4-3.4s-3.4,1.5-3.4,3.4S455.3,323.3,457.2,323.3"/>
		<path class="st7" d="M455.5,320.3l0.3,0c0,0.1,0,0.2,0.1,0.2s0.1,0.1,0.1,0.1c0.1,0,0.1,0,0.2-0.1s0.1-0.1,0.1-0.2
			c0-0.1,0-0.2-0.1-0.2s-0.1-0.1-0.1-0.1c0,0-0.1,0-0.1,0l0-0.3c0.1,0,0.1,0,0.2-0.1s0.1-0.1,0.1-0.2c0-0.1,0-0.1,0-0.1
			c0,0-0.1-0.1-0.1-0.1s-0.1,0-0.1,0.1c0,0-0.1,0.1-0.1,0.2l-0.3-0.1c0-0.1,0-0.2,0.1-0.3c0-0.1,0.1-0.1,0.2-0.2
			c0.1,0,0.1-0.1,0.2-0.1c0.1,0,0.3,0.1,0.3,0.2c0.1,0.1,0.1,0.2,0.1,0.3c0,0.2-0.1,0.3-0.2,0.4c0.1,0,0.2,0.1,0.2,0.1
			c0,0.1,0.1,0.2,0.1,0.3c0,0.2,0,0.3-0.2,0.4c-0.1,0.1-0.2,0.2-0.4,0.2s-0.2,0-0.3-0.1S455.5,320.4,455.5,320.3"/>
		<path class="st7" d="M457.6,320.4v0.3h-1c0-0.1,0-0.2,0.1-0.4c0-0.1,0.2-0.3,0.3-0.5c0.1-0.1,0.2-0.2,0.2-0.3
			c0-0.1,0.1-0.1,0.1-0.2c0-0.1,0-0.1,0-0.2c0,0-0.1-0.1-0.1-0.1s-0.1,0-0.1,0.1c0,0-0.1,0.1-0.1,0.2l-0.3,0c0-0.2,0.1-0.3,0.2-0.4
			s0.2-0.1,0.3-0.1c0.2,0,0.3,0,0.3,0.1c0.1,0.1,0.1,0.2,0.1,0.4c0,0.1,0,0.2,0,0.2c0,0.1-0.1,0.1-0.1,0.2c0,0-0.1,0.1-0.2,0.2
			c-0.1,0.1-0.2,0.2-0.2,0.2c0,0,0,0.1-0.1,0.1L457.6,320.4L457.6,320.4z"/>
		<path class="st7" d="M458.5,320.8h-0.3v-1.4c-0.1,0.1-0.2,0.2-0.4,0.3v-0.3c0.1,0,0.2-0.1,0.2-0.2c0.1-0.1,0.2-0.2,0.2-0.3h0.2
			L458.5,320.8L458.5,320.8z"/>
		<path class="st2" d="M498.9,323.3c1.9,0,3.4-1.5,3.4-3.4s-1.5-3.4-3.4-3.4s-3.4,1.5-3.4,3.4S497.1,323.3,498.9,323.3"/>
		<path class="st7" d="M497.3,320.3l0.3,0c0,0.1,0,0.2,0.1,0.2c0,0,0.1,0.1,0.1,0.1c0.1,0,0.1,0,0.2-0.1s0.1-0.1,0.1-0.2
			c0-0.1,0-0.2-0.1-0.2s-0.1-0.1-0.1-0.1c0,0-0.1,0-0.1,0l0-0.3c0.1,0,0.1,0,0.2-0.1s0.1-0.1,0.1-0.2c0-0.1,0-0.1,0-0.1
			c0,0-0.1-0.1-0.1-0.1s-0.1,0-0.1,0.1c0,0-0.1,0.1-0.1,0.2l-0.3-0.1c0-0.1,0-0.2,0.1-0.3c0-0.1,0.1-0.1,0.2-0.2
			c0.1,0,0.1-0.1,0.2-0.1c0.1,0,0.3,0.1,0.3,0.2c0.1,0.1,0.1,0.2,0.1,0.3c0,0.2-0.1,0.3-0.2,0.4c0.1,0,0.2,0.1,0.2,0.1
			c0,0.1,0.1,0.2,0.1,0.3c0,0.2,0,0.3-0.2,0.4c-0.1,0.1-0.2,0.2-0.4,0.2s-0.2,0-0.3-0.1S497.3,320.4,497.3,320.3"/>
		<path class="st7" d="M499.4,320.4v0.3h-1c0-0.1,0-0.2,0.1-0.4c0-0.1,0.2-0.3,0.3-0.5c0.1-0.1,0.2-0.2,0.2-0.3
			c0-0.1,0.1-0.1,0.1-0.2c0-0.1,0-0.1,0-0.2c0,0-0.1-0.1-0.1-0.1s-0.1,0-0.1,0.1c0,0-0.1,0.1-0.1,0.2l-0.3,0c0-0.2,0.1-0.3,0.2-0.4
			s0.2-0.1,0.3-0.1c0.2,0,0.3,0,0.3,0.1c0.1,0.1,0.1,0.2,0.1,0.4c0,0.1,0,0.2,0,0.2c0,0.1-0.1,0.1-0.1,0.2c0,0-0.1,0.1-0.2,0.2
			c-0.1,0.1-0.2,0.2-0.2,0.2c0,0,0,0.1-0.1,0.1L499.4,320.4L499.4,320.4z"/>
		<path class="st7" d="M500.1,319.2C500.1,319.2,500,319.2,500.1,319.2c-0.1,0.1-0.1,0.1-0.2,0.2c0,0.1,0,0.2,0,0.5s0,0.4,0,0.5
			c0,0.1,0,0.1,0.1,0.2s0.1,0,0.1,0s0.1,0,0.1,0s0-0.1,0.1-0.1c0-0.1,0-0.2,0-0.5s0-0.4,0-0.5C500.2,319.3,500.2,319.2,500.1,319.2
			C500.1,319.2,500.1,319.2,500.1,319.2 M500.1,318.9c0.2,0,0.3,0.1,0.3,0.2c0.1,0.1,0.2,0.4,0.2,0.8s0,0.6-0.2,0.8
			c-0.1,0.1-0.2,0.2-0.3,0.2s-0.3-0.1-0.4-0.2c-0.1-0.1-0.1-0.4-0.1-0.8s0-0.6,0.2-0.8C499.8,318.9,499.9,318.9,500.1,318.9"/>
		<path class="st2" d="M163.7,281.5c1.9,0,3.4-1.5,3.4-3.4s-1.5-3.4-3.4-3.4s-3.4,1.5-3.4,3.4S161.8,281.5,163.7,281.5"/>
		<path class="st7" d="M161.6,278.5l0.4,0c0,0.1,0,0.2,0.1,0.2c0.1,0,0.1,0.1,0.2,0.1c0.1,0,0.1,0,0.2-0.1s0.1-0.1,0.1-0.2
			c0-0.1,0-0.2-0.1-0.2s-0.1-0.1-0.2-0.1c-0.1,0-0.1,0-0.2,0l0-0.3c0.1,0,0.2,0,0.2-0.1s0.1-0.1,0.1-0.2c0-0.1,0-0.1-0.1-0.1
			s-0.1-0.1-0.1-0.1s-0.1,0-0.2,0.1c0,0-0.1,0.1-0.1,0.2l-0.3-0.1c0-0.1,0.1-0.2,0.1-0.3c0.1-0.1,0.1-0.1,0.2-0.2s0.2-0.1,0.3-0.1
			c0.2,0,0.3,0.1,0.4,0.2c0.1,0.1,0.1,0.2,0.1,0.3c0,0.2-0.1,0.3-0.3,0.4c0.1,0,0.2,0.1,0.3,0.1c0.1,0.1,0.1,0.2,0.1,0.3
			c0,0.2-0.1,0.3-0.2,0.4c-0.1,0.1-0.3,0.2-0.4,0.2s-0.3,0-0.4-0.1S161.6,278.6,161.6,278.5"/>
		<path class="st7" d="M163.8,278.3v-0.6l-0.4,0.6H163.8z M163.8,279v-0.4H163v-0.3l0.8-1.2h0.3v1.2h0.2v0.3h-0.2v0.4H163.8z"/>
		<path class="st7" d="M165.4,279h-0.4v-1.4c-0.1,0.1-0.3,0.2-0.5,0.3v-0.3c0.1,0,0.2-0.1,0.3-0.2c0.1-0.1,0.2-0.2,0.2-0.3h0.3
			L165.4,279L165.4,279z"/>
		<path class="st2" d="M175.6,281.6c1.9,0,3.4-1.5,3.4-3.4s-1.5-3.4-3.4-3.4s-3.4,1.5-3.4,3.4S173.7,281.6,175.6,281.6"/>
		<path class="st7" d="M172.9,278.7l0.3,0c0,0.1,0,0.2,0.1,0.2c0,0,0.1,0.1,0.1,0.1c0.1,0,0.1,0,0.1-0.1s0.1-0.1,0.1-0.2
			c0-0.1,0-0.2-0.1-0.2s-0.1-0.1-0.1-0.1c0,0-0.1,0-0.1,0l0-0.3c0.1,0,0.1,0,0.2-0.1s0.1-0.1,0.1-0.2c0-0.1,0-0.1-0.1-0.1
			c0,0-0.1-0.1-0.1-0.1s-0.1,0-0.1,0.1c0,0-0.1,0.1-0.1,0.2l-0.3-0.1c0-0.1,0.1-0.2,0.1-0.3c0-0.1,0.1-0.1,0.2-0.2s0.1-0.1,0.2-0.1
			c0.1,0,0.3,0.1,0.4,0.2c0.1,0.1,0.1,0.2,0.1,0.3c0,0.2-0.1,0.3-0.2,0.4c0.1,0,0.2,0.1,0.2,0.1s0.1,0.2,0.1,0.3
			c0,0.2-0.1,0.3-0.1,0.4c-0.1,0.1-0.2,0.2-0.4,0.2c-0.1,0-0.2,0-0.3-0.1S172.9,278.8,172.9,278.7"/>
		<path class="st7" d="M174.6,277.6C174.6,277.6,174.5,277.6,174.6,277.6c-0.1,0.1-0.1,0.1-0.1,0.2c0,0.1,0,0.2,0,0.5s0,0.4,0,0.5
			c0,0.1,0,0.1,0.1,0.2c0,0,0.1,0,0.1,0s0.1,0,0.1,0c0,0,0.1-0.1,0.1-0.1c0-0.1,0-0.2,0-0.5s0-0.4,0-0.5
			C174.7,277.8,174.7,277.7,174.6,277.6C174.6,277.6,174.6,277.6,174.6,277.6 M174.6,277.3c0.1,0,0.3,0.1,0.4,0.2
			c0.1,0.1,0.1,0.4,0.1,0.8s-0.1,0.6-0.1,0.8c-0.1,0.1-0.2,0.2-0.4,0.2s-0.3-0.1-0.4-0.2c-0.1-0.1-0.1-0.4-0.1-0.8s0.1-0.6,0.1-0.8
			C174.3,277.4,174.4,277.3,174.6,277.3"/>
		<path class="st7" d="M175.2,278.7l0.3,0c0,0.1,0,0.1,0.1,0.2c0,0,0.1,0.1,0.1,0.1c0.1,0,0.1,0,0.2-0.1c0-0.1,0.1-0.1,0.1-0.3
			c0-0.1,0-0.2-0.1-0.3s-0.1-0.1-0.2-0.1c-0.1,0-0.2,0-0.2,0.1l-0.2,0l0.1-1h0.8v0.3h-0.6l-0.1,0.3c0.1,0,0.1-0.1,0.2-0.1
			c0.1,0,0.2,0.1,0.3,0.2c0.1,0.1,0.1,0.3,0.1,0.5c0,0.1,0,0.3-0.1,0.4c-0.1,0.2-0.2,0.2-0.4,0.2c-0.1,0-0.3,0-0.4-0.1
			C175.3,279,175.3,278.9,175.2,278.7"/>
		<path class="st7" d="M177.3,278.3c0,0.2,0,0.4,0.1,0.5c0.1,0.1,0.2,0.2,0.3,0.2s0.2-0.1,0.3-0.2c0.1-0.1,0.1-0.3,0.1-0.5
			s0-0.4-0.1-0.5s-0.2-0.1-0.3-0.1s-0.2,0-0.3,0.1S177.3,278,177.3,278.3 M176.5,277.3h0.3v0.8h0.2c0-0.2,0.1-0.4,0.2-0.6
			c0.1-0.2,0.3-0.2,0.5-0.2s0.4,0.1,0.5,0.2s0.2,0.4,0.2,0.7c0,0.2,0,0.4-0.1,0.5c-0.1,0.1-0.1,0.2-0.2,0.3s-0.2,0.1-0.4,0.1
			s-0.3,0-0.4-0.1s-0.2-0.1-0.2-0.3c-0.1-0.1-0.1-0.3-0.1-0.4h-0.2v0.8h-0.3L176.5,277.3L176.5,277.3z"/>
		<path class="st2" d="M551.6,323.5c1.9,0,3.4-1.5,3.4-3.4s-1.5-3.4-3.4-3.4s-3.4,1.5-3.4,3.4S549.7,323.5,551.6,323.5"/>
		<path class="st2" d="M620.2,323.7c1.9,0,3.4-1.5,3.4-3.4s-1.5-3.4-3.4-3.4s-3.4,1.5-3.4,3.4S618.3,323.7,620.2,323.7"/>
		<path class="st2" d="M593.9,323.7c1.9,0,3.4-1.5,3.4-3.4s-1.5-3.4-3.4-3.4s-3.4,1.5-3.4,3.4S592.1,323.7,593.9,323.7"/>
		<path class="st7" d="M549.9,320.5l0.3,0c0,0.1,0,0.2,0.1,0.2s0.1,0.1,0.1,0.1c0.1,0,0.1,0,0.2-0.1s0.1-0.1,0.1-0.2
			c0-0.1,0-0.2-0.1-0.2s-0.1-0.1-0.1-0.1c0,0-0.1,0-0.1,0l0-0.3c0.1,0,0.1,0,0.2-0.1s0.1-0.1,0.1-0.2c0-0.1,0-0.1,0-0.1
			c0,0-0.1-0.1-0.1-0.1s-0.1,0-0.1,0.1c0,0-0.1,0.1-0.1,0.2l-0.3-0.1c0-0.1,0-0.2,0.1-0.3c0-0.1,0.1-0.1,0.2-0.2
			c0.1,0,0.1-0.1,0.2-0.1c0.1,0,0.3,0.1,0.3,0.2c0.1,0.1,0.1,0.2,0.1,0.3c0,0.2-0.1,0.3-0.2,0.4c0.1,0,0.2,0.1,0.2,0.1
			c0,0.1,0.1,0.2,0.1,0.3c0,0.2,0,0.3-0.2,0.4c-0.1,0.1-0.2,0.2-0.4,0.2s-0.2,0-0.3-0.1S549.9,320.6,549.9,320.5"/>
		<path class="st7" d="M551.8,321h-0.3v-1.4c-0.1,0.1-0.2,0.2-0.4,0.3v-0.3c0.1,0,0.2-0.1,0.2-0.2c0.1-0.1,0.2-0.2,0.2-0.3h0.2
			L551.8,321L551.8,321z"/>
		<path class="st7" d="M552.9,319.8c0-0.1,0-0.2-0.1-0.3c0-0.1-0.1-0.1-0.2-0.1s-0.1,0-0.1,0.1c0,0,0,0.1,0,0.3s0,0.2,0.1,0.3
			c0,0.1,0.1,0.1,0.1,0.1s0.1,0,0.1-0.1C552.9,319.9,552.9,319.9,552.9,319.8 M552.3,320.5l0.3,0c0,0.1,0,0.1,0,0.2s0.1,0,0.1,0
			c0.1,0,0.1,0,0.2-0.1c0-0.1,0.1-0.2,0.1-0.4c-0.1,0.1-0.2,0.2-0.3,0.2c-0.1,0-0.2-0.1-0.3-0.2c-0.1-0.1-0.1-0.3-0.1-0.4
			s0-0.3,0.1-0.5s0.2-0.2,0.3-0.2c0.2,0,0.3,0.1,0.4,0.2s0.2,0.4,0.2,0.7s0,0.6-0.2,0.7c-0.1,0.1-0.2,0.2-0.4,0.2
			c-0.1,0-0.2,0-0.3-0.1S552.3,320.7,552.3,320.5"/>
		<path class="st7" d="M618.5,320.6l0.3,0c0,0.1,0,0.2,0.1,0.2c0,0,0.1,0.1,0.1,0.1c0.1,0,0.1,0,0.2-0.1s0.1-0.1,0.1-0.2
			c0-0.1,0-0.2-0.1-0.2s-0.1-0.1-0.1-0.1c0,0-0.1,0-0.1,0l0-0.3c0.1,0,0.1,0,0.2-0.1s0.1-0.1,0.1-0.2c0-0.1,0-0.1,0-0.1
			c0,0-0.1-0.1-0.1-0.1s-0.1,0-0.1,0.1c0,0-0.1,0.1-0.1,0.2l-0.3-0.1c0-0.1,0-0.2,0.1-0.3c0-0.1,0.1-0.1,0.2-0.2
			c0.1,0,0.1-0.1,0.2-0.1c0.1,0,0.3,0.1,0.3,0.2c0.1,0.1,0.1,0.2,0.1,0.3c0,0.2-0.1,0.3-0.2,0.4c0.1,0,0.2,0.1,0.2,0.1
			c0,0.1,0.1,0.2,0.1,0.3c0,0.2,0,0.3-0.2,0.4c-0.1,0.1-0.2,0.2-0.4,0.2s-0.2,0-0.3-0.1S618.5,320.8,618.5,320.6"/>
		<path class="st7" d="M620.4,321.1h-0.3v-1.4c-0.1,0.1-0.2,0.2-0.4,0.3v-0.3c0.1,0,0.2-0.1,0.2-0.2c0.1-0.1,0.2-0.2,0.2-0.3h0.2
			L620.4,321.1L620.4,321.1z"/>
		<path class="st7" d="M621.5,319.9c0-0.1,0-0.2-0.1-0.3c0-0.1-0.1-0.1-0.2-0.1s-0.1,0-0.1,0.1s0,0.1,0,0.3s0,0.2,0.1,0.3
			c0,0.1,0.1,0.1,0.1,0.1s0.1,0,0.1-0.1C621.5,320.1,621.5,320,621.5,319.9 M620.8,320.7l0.3,0c0,0.1,0,0.1,0,0.2c0,0,0.1,0,0.1,0
			c0.1,0,0.1,0,0.2-0.1c0-0.1,0.1-0.2,0.1-0.4c-0.1,0.1-0.2,0.2-0.3,0.2c-0.1,0-0.2-0.1-0.3-0.2c-0.1-0.1-0.1-0.3-0.1-0.4
			s0-0.3,0.1-0.5s0.2-0.2,0.3-0.2c0.2,0,0.3,0.1,0.4,0.2s0.2,0.4,0.2,0.7s0,0.6-0.2,0.7c-0.1,0.1-0.2,0.2-0.4,0.2
			c-0.1,0-0.2,0-0.3-0.1S620.9,320.8,620.8,320.7"/>
		<path class="st2" d="M659.2,323.8c1.9,0,3.4-1.5,3.4-3.4s-1.5-3.4-3.4-3.4s-3.4,1.5-3.4,3.4S657.3,323.8,659.2,323.8"/>
		<path class="st7" d="M657.5,320.8l0.3,0c0,0.1,0,0.2,0.1,0.2s0.1,0.1,0.1,0.1c0.1,0,0.1,0,0.2-0.1s0.1-0.1,0.1-0.2
			c0-0.1,0-0.2-0.1-0.2s-0.1-0.1-0.1-0.1c0,0-0.1,0-0.1,0l0-0.3c0.1,0,0.1,0,0.2-0.1s0.1-0.1,0.1-0.2c0-0.1,0-0.1,0-0.1
			c0,0-0.1-0.1-0.1-0.1s-0.1,0-0.1,0.1c0,0-0.1,0.1-0.1,0.2l-0.3-0.1c0-0.1,0-0.2,0.1-0.3c0-0.1,0.1-0.1,0.2-0.2
			c0.1,0,0.1-0.1,0.2-0.1c0.1,0,0.3,0.1,0.3,0.2c0.1,0.1,0.1,0.2,0.1,0.3c0,0.2-0.1,0.3-0.2,0.4c0.1,0,0.2,0.1,0.2,0.1
			c0,0.1,0.1,0.2,0.1,0.3c0,0.2,0,0.3-0.2,0.4c-0.1,0.1-0.2,0.2-0.4,0.2s-0.2,0-0.3-0.1S657.5,320.9,657.5,320.8"/>
		<path class="st7" d="M659.4,321.3h-0.3v-1.4c-0.1,0.1-0.2,0.2-0.4,0.3v-0.3c0.1,0,0.2-0.1,0.2-0.2c0.1-0.1,0.2-0.2,0.2-0.3h0.2
			L659.4,321.3L659.4,321.3z"/>
		<path class="st7" d="M660.1,320.7c0,0.1,0,0.2,0.1,0.2c0,0.1,0.1,0.1,0.2,0.1s0.1,0,0.2-0.1c0,0,0.1-0.1,0.1-0.2
			c0-0.1,0-0.2-0.1-0.2s-0.1-0.1-0.2-0.1c-0.1,0-0.1,0-0.2,0.1C660.1,320.6,660.1,320.6,660.1,320.7 M660.1,319.9c0,0.1,0,0.1,0,0.2
			c0,0,0.1,0.1,0.1,0.1s0.1,0,0.1-0.1s0-0.1,0-0.2s0-0.1,0-0.2c0,0-0.1-0.1-0.1-0.1c-0.1,0-0.1,0-0.1,0.1S660.1,319.8,660.1,319.9
			 M660,320.3c-0.1,0-0.1-0.1-0.2-0.2s0-0.1,0-0.2c0-0.1,0-0.2,0.1-0.4s0.2-0.1,0.3-0.1s0.3,0,0.3,0.1c0.1,0.1,0.1,0.2,0.1,0.4
			c0,0.1,0,0.2,0,0.2c0,0.1-0.1,0.1-0.2,0.1c0.1,0,0.2,0.1,0.2,0.2s0.1,0.2,0.1,0.3c0,0.2,0,0.3-0.1,0.4c-0.1,0.1-0.2,0.2-0.4,0.2
			c-0.1,0-0.2,0-0.3-0.1c-0.1-0.1-0.2-0.2-0.2-0.4c0-0.1,0-0.2,0.1-0.3C659.9,320.4,660,320.3,660,320.3"/>
		<path class="st2" d="M702.4,324.6c1.9,0,3.4-1.5,3.4-3.4s-1.5-3.4-3.4-3.4s-3.4,1.5-3.4,3.4S700.5,324.6,702.4,324.6"/>
		<path class="st7" d="M700.7,321.6l0.3,0c0,0.1,0,0.2,0.1,0.2c0,0,0.1,0.1,0.1,0.1c0.1,0,0.1,0,0.2-0.1s0.1-0.1,0.1-0.2
			c0-0.1,0-0.2-0.1-0.2s-0.1-0.1-0.1-0.1c0,0-0.1,0-0.1,0l0-0.3c0.1,0,0.1,0,0.2-0.1s0.1-0.1,0.1-0.2c0-0.1,0-0.1,0-0.1
			c0,0-0.1-0.1-0.1-0.1s-0.1,0-0.1,0.1c0,0-0.1,0.1-0.1,0.2l-0.3-0.1c0-0.1,0-0.2,0.1-0.3c0-0.1,0.1-0.1,0.2-0.2
			c0.1,0,0.1-0.1,0.2-0.1c0.1,0,0.3,0.1,0.3,0.2c0.1,0.1,0.1,0.2,0.1,0.3c0,0.2-0.1,0.3-0.2,0.4c0.1,0,0.2,0.1,0.2,0.1
			c0,0.1,0.1,0.2,0.1,0.3c0,0.2,0,0.3-0.2,0.4c-0.1,0.1-0.2,0.2-0.4,0.2s-0.2,0-0.3-0.1S700.7,321.7,700.7,321.6"/>
		<path class="st7" d="M702.6,322h-0.3v-1.4c-0.1,0.1-0.2,0.2-0.4,0.3v-0.3c0.1,0,0.2-0.1,0.2-0.2c0.1-0.1,0.2-0.2,0.2-0.3h0.2
			L702.6,322L702.6,322z"/>
		<path class="st7" d="M703,320.5v-0.3h1v0.3c-0.1,0.1-0.2,0.2-0.2,0.4s-0.2,0.4-0.2,0.6s-0.1,0.4-0.1,0.6h-0.3c0-0.3,0-0.5,0.1-0.8
			c0.1-0.3,0.2-0.5,0.3-0.7H703z"/>
		<path class="st7" d="M592.1,320.8h0.3c0.1,0,0.2,0,0.2,0c0,0,0.1,0,0.1-0.1c0,0,0-0.1,0-0.1c0-0.1,0-0.1-0.1-0.2s-0.1-0.1-0.3-0.1
			h-0.3L592.1,320.8L592.1,320.8z M591.8,319.3h1.1v0.3h-0.8v0.4h0.4c0.1,0,0.2,0,0.3,0s0.1,0.1,0.2,0.2s0.1,0.2,0.1,0.3
			s0,0.2-0.1,0.3s-0.1,0.1-0.2,0.2s-0.2,0-0.3,0h-0.7L591.8,319.3L591.8,319.3z"/>
		<polygon class="st7" points="593.3,321.1 593.3,319.3 593.6,319.3 593.6,320 594.2,320 594.2,319.3 594.5,319.3 594.5,321.1 
			594.2,321.1 594.2,320.3 593.6,320.3 593.6,321.1 		"/>
		<path class="st7" d="M595.8,320.4l0.3,0.1c0,0.2-0.1,0.4-0.2,0.5s-0.2,0.1-0.4,0.1c-0.2,0-0.4-0.1-0.5-0.2
			c-0.1-0.2-0.2-0.4-0.2-0.7c0-0.3,0.1-0.5,0.2-0.7s0.3-0.3,0.5-0.3c0.2,0,0.3,0.1,0.5,0.2c0.1,0.1,0.1,0.2,0.2,0.3l-0.3,0.1
			c0-0.1,0-0.2-0.1-0.2s-0.1-0.1-0.2-0.1c-0.1,0-0.2,0-0.3,0.1s-0.1,0.3-0.1,0.5c0,0.2,0,0.4,0.1,0.5c0.1,0.1,0.2,0.1,0.3,0.1
			c0.1,0,0.2,0,0.2-0.1C595.7,320.7,595.8,320.6,595.8,320.4"/>
		<path class="st4" d="M697.4,285c1.9,0,3.4-1.5,3.4-3.4s-1.5-3.4-3.4-3.4s-3.4,1.5-3.4,3.4S695.5,285,697.4,285"/>
		<path class="st7" d="M695.7,282l0.3,0c0,0.1,0,0.2,0.1,0.2c0,0,0.1,0.1,0.1,0.1c0.1,0,0.1,0,0.2-0.1s0.1-0.1,0.1-0.2
			c0-0.1,0-0.2-0.1-0.2s-0.1-0.1-0.1-0.1c0,0-0.1,0-0.1,0l0-0.3c0.1,0,0.1,0,0.2-0.1s0.1-0.1,0.1-0.2c0-0.1,0-0.1,0-0.1
			c0,0-0.1-0.1-0.1-0.1s-0.1,0-0.1,0.1c0,0-0.1,0.1-0.1,0.2l-0.3-0.1c0-0.1,0-0.2,0.1-0.3c0-0.1,0.1-0.1,0.2-0.2
			c0.1,0,0.1-0.1,0.2-0.1c0.1,0,0.3,0.1,0.3,0.2c0.1,0.1,0.1,0.2,0.1,0.3c0,0.2-0.1,0.3-0.2,0.4c0.1,0,0.2,0.1,0.2,0.1
			c0,0.1,0.1,0.2,0.1,0.3c0,0.2,0,0.3-0.2,0.4c-0.1,0.1-0.2,0.2-0.4,0.2s-0.2,0-0.3-0.1S695.7,282.1,695.7,282"/>
		<path class="st7" d="M697.4,280.9C697.4,280.9,697.3,280.9,697.4,280.9c-0.1,0.1-0.1,0.1-0.2,0.2c0,0.1,0,0.2,0,0.5s0,0.4,0,0.5
			c0,0.1,0,0.1,0.1,0.2s0.1,0,0.1,0s0.1,0,0.1,0s0-0.1,0.1-0.1c0-0.1,0-0.2,0-0.5s0-0.4,0-0.5C697.5,281,697.5,281,697.4,280.9
			C697.4,280.9,697.4,280.9,697.4,280.9 M697.4,280.6c0.2,0,0.3,0.1,0.3,0.2c0.1,0.1,0.2,0.4,0.2,0.8s0,0.6-0.2,0.8
			c-0.1,0.1-0.2,0.2-0.3,0.2s-0.3-0.1-0.4-0.2c-0.1-0.1-0.1-0.4-0.1-0.8s0-0.6,0.2-0.8C697.1,280.6,697.2,280.6,697.4,280.6"/>
		<path class="st7" d="M698.3,281.9c0,0.1,0,0.2,0.1,0.2c0,0.1,0.1,0.1,0.2,0.1s0.1,0,0.2-0.1c0,0,0.1-0.1,0.1-0.2
			c0-0.1,0-0.2-0.1-0.2s-0.1-0.1-0.2-0.1c-0.1,0-0.1,0-0.2,0.1C698.3,281.8,698.3,281.8,698.3,281.9 M698.3,281.1c0,0.1,0,0.1,0,0.2
			c0,0,0.1,0.1,0.1,0.1s0.1,0,0.1-0.1s0-0.1,0-0.2s0-0.1,0-0.2c0,0-0.1-0.1-0.1-0.1c-0.1,0-0.1,0-0.1,0.1S698.3,281,698.3,281.1
			 M698.3,281.5c-0.1,0-0.1-0.1-0.2-0.2s0-0.1,0-0.2c0-0.1,0-0.2,0.1-0.4c0.1-0.1,0.2-0.1,0.3-0.1s0.3,0,0.3,0.1
			c0.1,0.1,0.1,0.2,0.1,0.4c0,0.1,0,0.2,0,0.2c0,0.1-0.1,0.1-0.2,0.1c0.1,0,0.2,0.1,0.2,0.2s0.1,0.2,0.1,0.3c0,0.2,0,0.3-0.1,0.4
			c-0.1,0.1-0.2,0.2-0.4,0.2c-0.1,0-0.2,0-0.3-0.1c-0.1-0.1-0.2-0.2-0.2-0.4c0-0.1,0-0.2,0.1-0.3
			C698.1,281.6,698.2,281.5,698.3,281.5"/>
		<path class="st4" d="M743.6,260.1c1.9,0,3.4-1.5,3.4-3.4c0-1.9-1.5-3.4-3.4-3.4s-3.4,1.5-3.4,3.4
			C740.2,258.6,741.7,260.1,743.6,260.1"/>
		<path class="st7" d="M741.9,257l0.3,0c0,0.1,0,0.2,0.1,0.2s0.1,0.1,0.1,0.1c0.1,0,0.1,0,0.2-0.1s0.1-0.1,0.1-0.2
			c0-0.1,0-0.2-0.1-0.2s-0.1-0.1-0.1-0.1c0,0-0.1,0-0.1,0l0-0.3c0.1,0,0.1,0,0.2-0.1s0.1-0.1,0.1-0.2c0-0.1,0-0.1,0-0.1
			c0,0-0.1-0.1-0.1-0.1s-0.1,0-0.1,0.1c0,0-0.1,0.1-0.1,0.2l-0.3-0.1c0-0.1,0-0.2,0.1-0.3c0-0.1,0.1-0.1,0.2-0.2
			c0.1,0,0.1-0.1,0.2-0.1c0.1,0,0.3,0.1,0.3,0.2c0.1,0.1,0.1,0.2,0.1,0.3c0,0.2-0.1,0.3-0.2,0.4c0.1,0,0.2,0.1,0.2,0.1
			c0,0.1,0.1,0.2,0.1,0.3c0,0.2,0,0.3-0.2,0.4c-0.1,0.1-0.2,0.2-0.4,0.2s-0.2,0-0.3-0.1S741.9,257.2,741.9,257"/>
		<path class="st7" d="M743.6,255.9C743.6,255.9,743.5,256,743.6,255.9c-0.1,0.1-0.1,0.1-0.2,0.2c0,0.1,0,0.2,0,0.5s0,0.4,0,0.5
			c0,0.1,0,0.1,0.1,0.2s0.1,0,0.1,0s0.1,0,0.1,0s0-0.1,0.1-0.1c0-0.1,0-0.2,0-0.5s0-0.4,0-0.5C743.7,256.1,743.7,256,743.6,255.9
			C743.6,256,743.6,255.9,743.6,255.9 M743.6,255.6c0.2,0,0.3,0.1,0.3,0.2c0.1,0.1,0.2,0.4,0.2,0.8s0,0.6-0.2,0.8
			c-0.1,0.1-0.2,0.2-0.3,0.2s-0.3-0.1-0.4-0.2c-0.1-0.1-0.1-0.4-0.1-0.8s0-0.6,0.2-0.8C743.3,255.7,743.4,255.6,743.6,255.6"/>
		<path class="st7" d="M744.9,256.3c0-0.1,0-0.2-0.1-0.3c0-0.1-0.1-0.1-0.2-0.1c0,0-0.1,0-0.1,0.1c0,0,0,0.1,0,0.3s0,0.2,0.1,0.3
			c0,0.1,0.1,0.1,0.1,0.1s0.1,0,0.1-0.1C744.9,256.5,744.9,256.4,744.9,256.3 M744.2,257.1l0.3,0c0,0.1,0,0.1,0,0.2c0,0,0.1,0,0.1,0
			c0.1,0,0.1,0,0.2-0.1c0-0.1,0.1-0.2,0.1-0.4c-0.1,0.1-0.2,0.2-0.3,0.2c-0.1,0-0.2-0.1-0.3-0.2c-0.1-0.1-0.1-0.3-0.1-0.4
			s0-0.3,0.1-0.5s0.2-0.2,0.3-0.2c0.2,0,0.3,0.1,0.4,0.2c0.1,0.1,0.2,0.4,0.2,0.7s0,0.6-0.2,0.7c-0.1,0.1-0.2,0.2-0.4,0.2
			c-0.1,0-0.2,0-0.3-0.1S744.3,257.3,744.2,257.1"/>
		<path class="st2" d="M735,324.2c1.9,0,3.4-1.5,3.4-3.4s-1.5-3.4-3.4-3.4s-3.4,1.5-3.4,3.4S733.2,324.2,735,324.2"/>
		<path class="st6" d="M760.2,309c1.9,0,3.4-1.5,3.4-3.4s-1.5-3.4-3.4-3.4s-3.4,1.5-3.4,3.4S758.3,309,760.2,309"/>
		<path class="st7" d="M733.4,321.1l0.3,0c0,0.1,0,0.2,0.1,0.2c0,0,0.1,0.1,0.1,0.1c0.1,0,0.1,0,0.2-0.1s0.1-0.1,0.1-0.2
			c0-0.1,0-0.2-0.1-0.2s-0.1-0.1-0.1-0.1c0,0-0.1,0-0.1,0l0-0.3c0.1,0,0.1,0,0.2-0.1s0.1-0.1,0.1-0.2c0-0.1,0-0.1,0-0.1
			c0,0-0.1-0.1-0.1-0.1s-0.1,0-0.1,0.1c0,0-0.1,0.1-0.1,0.2l-0.3-0.1c0-0.1,0-0.2,0.1-0.3c0-0.1,0.1-0.1,0.2-0.2
			c0.1,0,0.1-0.1,0.2-0.1c0.1,0,0.3,0.1,0.3,0.2c0.1,0.1,0.1,0.2,0.1,0.3c0,0.2-0.1,0.3-0.2,0.4c0.1,0,0.2,0.1,0.2,0.1
			c0,0.1,0.1,0.2,0.1,0.3c0,0.2,0,0.3-0.2,0.4c-0.1,0.1-0.2,0.2-0.4,0.2s-0.2,0-0.3-0.1S733.4,321.3,733.4,321.1"/>
		<path class="st7" d="M735.3,321.6H735v-1.4c-0.1,0.1-0.2,0.2-0.4,0.3v-0.3c0.1,0,0.2-0.1,0.2-0.2c0.1-0.1,0.2-0.2,0.2-0.3h0.2
			L735.3,321.6L735.3,321.6z"/>
		<path class="st7" d="M736,321c0,0.1,0,0.2,0.1,0.3c0,0.1,0.1,0.1,0.2,0.1c0,0,0.1,0,0.1-0.1s0-0.1,0-0.3s0-0.2-0.1-0.3
			s-0.1-0.1-0.1-0.1s-0.1,0-0.1,0.1C736,320.8,736,320.9,736,321 M736.7,320.2l-0.3,0c0-0.1,0-0.1,0-0.2c0,0-0.1,0-0.1,0
			c-0.1,0-0.1,0-0.2,0.1c0,0.1-0.1,0.2-0.1,0.4c0.1-0.1,0.2-0.2,0.3-0.2c0.1,0,0.2,0.1,0.3,0.2c0.1,0.1,0.1,0.3,0.1,0.4
			c0,0.2,0,0.4-0.1,0.5c-0.1,0.1-0.2,0.2-0.3,0.2c-0.2,0-0.3-0.1-0.4-0.2s-0.2-0.4-0.2-0.7s0-0.6,0.2-0.7c0.1-0.1,0.2-0.2,0.4-0.2
			c0.1,0,0.2,0,0.3,0.1C736.6,319.9,736.6,320.1,736.7,320.2"/>
		<path class="st7" d="M757.7,306l0.3,0c0,0.1,0,0.2,0.1,0.2s0.1,0.1,0.1,0.1c0.1,0,0.1,0,0.2-0.1c0-0.1,0.1-0.1,0.1-0.2
			c0-0.1,0-0.2-0.1-0.2s-0.1-0.1-0.1-0.1c0,0-0.1,0-0.1,0l0-0.3c0.1,0,0.1,0,0.2-0.1s0.1-0.1,0.1-0.2c0-0.1,0-0.1,0-0.1
			c0,0-0.1-0.1-0.1-0.1s-0.1,0-0.1,0.1c0,0-0.1,0.1-0.1,0.2l-0.3-0.1c0-0.1,0-0.2,0.1-0.3c0-0.1,0.1-0.1,0.2-0.2
			c0.1,0,0.1-0.1,0.2-0.1c0.1,0,0.3,0.1,0.3,0.2c0.1,0.1,0.1,0.2,0.1,0.3c0,0.2-0.1,0.3-0.2,0.4c0.1,0,0.2,0.1,0.2,0.1
			c0,0.1,0.1,0.2,0.1,0.3c0,0.2,0,0.3-0.2,0.4c-0.1,0.1-0.2,0.2-0.4,0.2s-0.2,0-0.3-0.1S757.8,306.1,757.7,306"/>
		<path class="st7" d="M759.6,306.5h-0.3v-1.4c-0.1,0.1-0.2,0.2-0.4,0.3v-0.3c0.1,0,0.2-0.1,0.2-0.2c0.1-0.1,0.2-0.2,0.2-0.3h0.2
			L759.6,306.5L759.6,306.5z"/>
		<path class="st7" d="M760.1,306l0.3,0c0,0.1,0,0.1,0.1,0.2s0.1,0.1,0.1,0.1c0.1,0,0.1,0,0.2-0.1c0-0.1,0.1-0.1,0.1-0.3
			c0-0.1,0-0.2-0.1-0.3s-0.1-0.1-0.2-0.1c-0.1,0-0.2,0-0.2,0.1l-0.2,0l0.2-1h0.8v0.3h-0.5l0,0.3c0.1,0,0.1-0.1,0.2-0.1
			c0.1,0,0.2,0.1,0.3,0.2c0.1,0.1,0.1,0.3,0.1,0.5c0,0.1,0,0.3-0.1,0.4c-0.1,0.2-0.2,0.2-0.4,0.2c-0.1,0-0.2,0-0.3-0.1
			C760.1,306.3,760.1,306.1,760.1,306"/>
		<path class="st7" d="M761.6,306.2h0.3c0.1,0,0.2,0,0.2,0c0,0,0.1,0,0.1-0.1c0,0,0-0.1,0-0.1c0-0.1,0-0.1-0.1-0.2s-0.1-0.1-0.3-0.1
			h-0.3L761.6,306.2L761.6,306.2z M761.3,304.6h1.1v0.3h-0.8v0.4h0.4c0.1,0,0.2,0,0.3,0s0.1,0.1,0.2,0.2s0.1,0.2,0.1,0.3
			s0,0.2-0.1,0.3s-0.1,0.1-0.2,0.2s-0.2,0-0.3,0h-0.7L761.3,304.6L761.3,304.6z"/>
		<path class="st4" d="M767.4,230.2c1.9,0,3.4-1.5,3.4-3.4s-1.5-3.4-3.4-3.4s-3.4,1.5-3.4,3.4S765.5,230.2,767.4,230.2"/>
		<path class="st4" d="M793.1,196.2c1.9,0,3.4-1.5,3.4-3.4s-1.5-3.4-3.4-3.4s-3.4,1.5-3.4,3.4S791.2,196.2,793.1,196.2"/>
		<path class="st4" d="M816.9,164c1.9,0,3.4-1.5,3.4-3.4s-1.5-3.4-3.4-3.4s-3.4,1.5-3.4,3.4S815,164,816.9,164"/>
		<path class="st4" d="M836.9,138.5c1.9,0,3.4-1.5,3.4-3.4s-1.5-3.4-3.4-3.4s-3.4,1.5-3.4,3.4S835,138.5,836.9,138.5"/>
		<path class="st2" d="M855.1,114.1c1.9,0,3.4-1.5,3.4-3.4s-1.5-3.4-3.4-3.4s-3.4,1.5-3.4,3.4S853.2,114.1,855.1,114.1"/>
		<path class="st2" d="M867.1,96.5c1.9,0,3.4-1.5,3.4-3.4s-1.5-3.4-3.4-3.4s-3.4,1.5-3.4,3.4S865.2,96.5,867.1,96.5"/>
		<path class="st6" d="M915.7,100.2c1.9,0,3.4-1.5,3.4-3.4s-1.5-3.4-3.4-3.4s-3.4,1.5-3.4,3.4S913.9,100.2,915.7,100.2"/>
		<path class="st2" d="M932.7,79.6c1.9,0,3.4-1.5,3.4-3.4s-1.5-3.4-3.4-3.4s-3.4,1.5-3.4,3.4C929.3,78.1,930.8,79.6,932.7,79.6"/>
		<path class="st5" d="M886.9,70.7c1.9,0,3.4-1.5,3.4-3.4s-1.5-3.4-3.4-3.4s-3.4,1.5-3.4,3.4S885.1,70.7,886.9,70.7"/>
		<path class="st7" d="M765.7,227.1l0.3,0c0,0.1,0,0.2,0.1,0.2s0.1,0.1,0.1,0.1c0.1,0,0.1,0,0.2-0.1s0.1-0.1,0.1-0.2
			c0-0.1,0-0.2-0.1-0.2s-0.1-0.1-0.1-0.1c0,0-0.1,0-0.1,0l0-0.3c0.1,0,0.1,0,0.2-0.1s0.1-0.1,0.1-0.2c0-0.1,0-0.1,0-0.1
			c0,0-0.1-0.1-0.1-0.1s-0.1,0-0.1,0.1c0,0-0.1,0.1-0.1,0.2l-0.3-0.1c0-0.1,0-0.2,0.1-0.3c0-0.1,0.1-0.1,0.2-0.2
			c0.1,0,0.1-0.1,0.2-0.1c0.1,0,0.3,0.1,0.3,0.2c0.1,0.1,0.1,0.2,0.1,0.3c0,0.2-0.1,0.3-0.2,0.4c0.1,0,0.2,0.1,0.2,0.1
			c0,0.1,0.1,0.2,0.1,0.3c0,0.2,0,0.3-0.2,0.4c-0.1,0.1-0.2,0.2-0.4,0.2s-0.2,0-0.3-0.1S765.7,227.2,765.7,227.1"/>
		<path class="st7" d="M767.6,227.6h-0.3v-1.4c-0.1,0.1-0.2,0.2-0.4,0.3v-0.3c0.1,0,0.2-0.1,0.2-0.2c0.1-0.1,0.2-0.2,0.2-0.3h0.2
			L767.6,227.6L767.6,227.6z"/>
		<path class="st7" d="M768.5,226C768.5,226,768.5,226,768.5,226c-0.1,0.1-0.1,0.1-0.2,0.2c0,0.1,0,0.2,0,0.5s0,0.4,0,0.5
			c0,0.1,0,0.1,0.1,0.2s0.1,0,0.1,0s0.1,0,0.1,0s0-0.1,0.1-0.1c0-0.1,0-0.2,0-0.5s0-0.4,0-0.5C768.7,226.2,768.7,226.1,768.5,226
			C768.6,226,768.6,226,768.5,226 M768.5,225.7c0.2,0,0.3,0.1,0.3,0.2c0.1,0.1,0.2,0.4,0.2,0.8s0,0.6-0.2,0.8
			c-0.1,0.1-0.2,0.2-0.3,0.2s-0.3-0.1-0.4-0.2c-0.1-0.1-0.1-0.4-0.1-0.8s0-0.6,0.2-0.8C768.3,225.8,768.4,225.7,768.5,225.7"/>
		<path class="st7" d="M791.5,193.2l0.3,0c0,0.1,0,0.2,0.1,0.2s0.1,0.1,0.1,0.1c0.1,0,0.1,0,0.2-0.1c0-0.1,0.1-0.1,0.1-0.2
			c0-0.1,0-0.2-0.1-0.2s-0.1-0.1-0.1-0.1c0,0-0.1,0-0.1,0l0-0.3c0.1,0,0.1,0,0.2-0.1s0.1-0.1,0.1-0.2c0-0.1,0-0.1,0-0.1
			c0,0-0.1-0.1-0.1-0.1s-0.1,0-0.1,0.1c0,0-0.1,0.1-0.1,0.2l-0.3-0.1c0-0.1,0-0.2,0.1-0.3c0-0.1,0.1-0.1,0.2-0.2
			c0.1,0,0.1-0.1,0.2-0.1c0.1,0,0.3,0.1,0.3,0.2c0.1,0.1,0.1,0.2,0.1,0.3c0,0.2-0.1,0.3-0.2,0.4c0.1,0,0.2,0.1,0.2,0.1
			c0,0.1,0.1,0.2,0.1,0.3c0,0.2,0,0.3-0.2,0.4c-0.1,0.1-0.2,0.2-0.4,0.2s-0.2,0-0.3-0.1S791.5,193.3,791.5,193.2"/>
		<path class="st7" d="M793.4,193.7h-0.3v-1.4c-0.1,0.1-0.2,0.2-0.4,0.3v-0.3c0.1,0,0.2-0.1,0.2-0.2c0.1-0.1,0.2-0.2,0.2-0.3h0.2
			L793.4,193.7L793.4,193.7z"/>
		<path class="st7" d="M794.4,193.7h-0.3v-1.4c-0.1,0.1-0.2,0.2-0.4,0.3v-0.3c0.1,0,0.2-0.1,0.2-0.2c0.1-0.1,0.2-0.2,0.2-0.3h0.2
			L794.4,193.7L794.4,193.7z"/>
		<path class="st7" d="M815.2,161l0.3,0c0,0.1,0,0.2,0.1,0.2c0,0,0.1,0.1,0.1,0.1c0.1,0,0.1,0,0.2-0.1s0.1-0.1,0.1-0.2
			c0-0.1,0-0.2-0.1-0.2s-0.1-0.1-0.1-0.1c0,0-0.1,0-0.1,0l0-0.3c0.1,0,0.1,0,0.2-0.1s0.1-0.1,0.1-0.2c0-0.1,0-0.1,0-0.1
			c0,0-0.1-0.1-0.1-0.1s-0.1,0-0.1,0.1c0,0-0.1,0.1-0.1,0.2l-0.3-0.1c0-0.1,0-0.2,0.1-0.3c0-0.1,0.1-0.1,0.2-0.2
			c0.1,0,0.1-0.1,0.2-0.1c0.1,0,0.3,0.1,0.3,0.2c0.1,0.1,0.1,0.2,0.1,0.3c0,0.2-0.1,0.3-0.2,0.4c0.1,0,0.2,0.1,0.2,0.1
			c0,0.1,0.1,0.2,0.1,0.3c0,0.2,0,0.3-0.2,0.4c-0.1,0.1-0.2,0.2-0.4,0.2s-0.2,0-0.3-0.1S815.2,161.1,815.2,161"/>
		<path class="st7" d="M817.1,161.5h-0.3v-1.4c-0.1,0.1-0.2,0.2-0.4,0.3v-0.3c0.1,0,0.2-0.1,0.2-0.2c0.1-0.1,0.2-0.2,0.2-0.3h0.2
			L817.1,161.5L817.1,161.5z"/>
		<path class="st7" d="M818.5,161.1v0.3h-1c0-0.1,0-0.2,0.1-0.4c0-0.1,0.2-0.3,0.3-0.5c0.1-0.1,0.2-0.2,0.2-0.3
			c0-0.1,0.1-0.1,0.1-0.2c0-0.1,0-0.1,0-0.2c0,0-0.1-0.1-0.1-0.1s-0.1,0-0.1,0.1c0,0-0.1,0.1-0.1,0.2l-0.3,0c0-0.2,0.1-0.3,0.2-0.4
			s0.2-0.1,0.3-0.1c0.2,0,0.3,0,0.3,0.1c0.1,0.1,0.1,0.2,0.1,0.4c0,0.1,0,0.2,0,0.2c0,0.1-0.1,0.1-0.1,0.2c0,0-0.1,0.1-0.2,0.2
			c-0.1,0.1-0.2,0.2-0.2,0.2c0,0,0,0.1-0.1,0.1L818.5,161.1L818.5,161.1z"/>
		<path class="st7" d="M835.2,135.5l0.3,0c0,0.1,0,0.2,0.1,0.2s0.1,0.1,0.1,0.1c0.1,0,0.1,0,0.2-0.1c0-0.1,0.1-0.1,0.1-0.2
			c0-0.1,0-0.2-0.1-0.2s-0.1-0.1-0.1-0.1c0,0-0.1,0-0.1,0l0-0.3c0.1,0,0.1,0,0.2-0.1s0.1-0.1,0.1-0.2c0-0.1,0-0.1,0-0.1
			c0,0-0.1-0.1-0.1-0.1s-0.1,0-0.1,0.1c0,0-0.1,0.1-0.1,0.2l-0.3-0.1c0-0.1,0-0.2,0.1-0.3c0-0.1,0.1-0.1,0.2-0.2
			c0.1,0,0.1-0.1,0.2-0.1c0.1,0,0.3,0.1,0.3,0.2c0.1,0.1,0.1,0.2,0.1,0.3c0,0.2-0.1,0.3-0.2,0.4c0.1,0,0.2,0.1,0.2,0.1
			s0.1,0.2,0.1,0.3c0,0.2,0,0.3-0.2,0.4c-0.1,0.1-0.2,0.2-0.4,0.2s-0.2,0-0.3-0.1S835.2,135.6,835.2,135.5"/>
		<path class="st7" d="M837.1,136h-0.3v-1.4c-0.1,0.1-0.2,0.2-0.4,0.3v-0.3c0.1,0,0.2-0.1,0.2-0.2c0.1-0.1,0.2-0.2,0.2-0.3h0.2
			L837.1,136L837.1,136z"/>
		<path class="st7" d="M837.5,135.5l0.3,0c0,0.1,0,0.2,0.1,0.2s0.1,0.1,0.1,0.1c0.1,0,0.1,0,0.2-0.1c0-0.1,0.1-0.1,0.1-0.2
			c0-0.1,0-0.2-0.1-0.2s-0.1-0.1-0.1-0.1c0,0-0.1,0-0.1,0l0-0.3c0.1,0,0.1,0,0.2-0.1s0.1-0.1,0.1-0.2c0-0.1,0-0.1,0-0.1
			c0,0-0.1-0.1-0.1-0.1s-0.1,0-0.1,0.1c0,0-0.1,0.1-0.1,0.2l-0.3-0.1c0-0.1,0-0.2,0.1-0.3c0-0.1,0.1-0.1,0.2-0.2
			c0.1,0,0.1-0.1,0.2-0.1c0.1,0,0.3,0.1,0.3,0.2c0.1,0.1,0.1,0.2,0.1,0.3c0,0.2-0.1,0.3-0.2,0.4c0.1,0,0.2,0.1,0.2,0.1
			s0.1,0.2,0.1,0.3c0,0.2,0,0.3-0.2,0.4c-0.1,0.1-0.2,0.2-0.4,0.2s-0.2,0-0.3-0.1S837.5,135.6,837.5,135.5"/>
		<path class="st7" d="M852.7,111.1l0.3,0c0,0.1,0,0.2,0.1,0.2s0.1,0.1,0.1,0.1c0.1,0,0.1,0,0.2-0.1c0-0.1,0.1-0.1,0.1-0.2
			c0-0.1,0-0.2-0.1-0.2s-0.1-0.1-0.1-0.1c0,0-0.1,0-0.1,0l0-0.3c0.1,0,0.1,0,0.2-0.1s0.1-0.1,0.1-0.2c0-0.1,0-0.1,0-0.1
			c0,0-0.1-0.1-0.1-0.1s-0.1,0-0.1,0.1c0,0-0.1,0.1-0.1,0.2l-0.3-0.1c0-0.1,0-0.2,0.1-0.3c0-0.1,0.1-0.1,0.2-0.2
			c0.1,0,0.1-0.1,0.2-0.1c0.1,0,0.3,0.1,0.3,0.2c0.1,0.1,0.1,0.2,0.1,0.3c0,0.2-0.1,0.3-0.2,0.4c0.1,0,0.2,0.1,0.2,0.1
			s0.1,0.2,0.1,0.3c0,0.2,0,0.3-0.2,0.4c-0.1,0.1-0.2,0.2-0.4,0.2s-0.2,0-0.3-0.1S852.7,111.2,852.7,111.1"/>
		<path class="st7" d="M854.6,111.6h-0.3v-1.4c-0.1,0.1-0.2,0.2-0.4,0.3v-0.3c0.1,0,0.2-0.1,0.2-0.2c0.1-0.1,0.2-0.2,0.2-0.3h0.2
			L854.6,111.6L854.6,111.6z"/>
		<path class="st7" d="M855.6,110.9v-0.6l-0.3,0.6H855.6z M855.6,111.6v-0.4h-0.6v-0.3l0.7-1.2h0.2v1.2h0.2v0.3h-0.2v0.4H855.6
			L855.6,111.6z"/>
		<path class="st7" d="M857,110.9l-0.2-0.7l-0.2,0.7H857L857,110.9z M857.6,111.6h-0.3l-0.1-0.4h-0.6l-0.1,0.4h-0.3l0.6-1.9h0.3
			L857.6,111.6z"/>
		<path class="st7" d="M865.4,93.4l0.3,0c0,0.1,0,0.2,0.1,0.2s0.1,0.1,0.1,0.1c0.1,0,0.1,0,0.2-0.1c0-0.1,0.1-0.1,0.1-0.2
			c0-0.1,0-0.2-0.1-0.2S866,93,865.9,93c0,0-0.1,0-0.1,0l0-0.3c0.1,0,0.1,0,0.2-0.1s0.1-0.1,0.1-0.2c0-0.1,0-0.1,0-0.1
			c0,0-0.1-0.1-0.1-0.1s-0.1,0-0.1,0.1c0,0-0.1,0.1-0.1,0.2l-0.3-0.1c0-0.1,0-0.2,0.1-0.3s0.1-0.1,0.2-0.2c0.1,0,0.1-0.1,0.2-0.1
			c0.1,0,0.3,0.1,0.3,0.2c0.1,0.1,0.1,0.2,0.1,0.3c0,0.2-0.1,0.3-0.2,0.4c0.1,0,0.2,0.1,0.2,0.1s0.1,0.2,0.1,0.3
			c0,0.2,0,0.3-0.2,0.4c-0.1,0.1-0.2,0.2-0.4,0.2s-0.2,0-0.3-0.1S865.5,93.5,865.4,93.4"/>
		<path class="st7" d="M867.3,93.9H867v-1.4c-0.1,0.1-0.2,0.2-0.4,0.3v-0.3c0.1,0,0.2-0.1,0.2-0.2c0.1-0.1,0.2-0.2,0.2-0.3h0.2
			L867.3,93.9L867.3,93.9z"/>
		<path class="st7" d="M868.3,93.2v-0.6l-0.3,0.6H868.3z M868.3,93.9v-0.4h-0.6v-0.3l0.7-1.2h0.2v1.2h0.2v0.3h-0.2v0.4H868.3
			L868.3,93.9z"/>
		<path class="st7" d="M913.3,97.1l0.3,0c0,0.1,0,0.2,0.1,0.2c0,0,0.1,0.1,0.1,0.1c0.1,0,0.1,0,0.2-0.1c0-0.1,0.1-0.1,0.1-0.2
			c0-0.1,0-0.2-0.1-0.2s-0.1-0.1-0.1-0.1c0,0-0.1,0-0.1,0l0-0.3c0.1,0,0.1,0,0.2-0.1s0.1-0.1,0.1-0.2c0-0.1,0-0.1,0-0.1
			c0,0-0.1-0.1-0.1-0.1s-0.1,0-0.1,0.1c0,0-0.1,0.1-0.1,0.2l-0.3-0.1c0-0.1,0-0.2,0.1-0.3s0.1-0.1,0.2-0.2c0.1,0,0.1-0.1,0.2-0.1
			c0.1,0,0.3,0.1,0.3,0.2c0.1,0.1,0.1,0.2,0.1,0.3c0,0.2-0.1,0.3-0.2,0.4c0.1,0,0.2,0.1,0.2,0.1s0.1,0.2,0.1,0.3
			c0,0.2,0,0.3-0.2,0.4c-0.1,0.1-0.2,0.2-0.4,0.2s-0.2,0-0.3-0.1S913.3,97.2,913.3,97.1"/>
		<path class="st7" d="M915.2,97.6h-0.3v-1.4c-0.1,0.1-0.2,0.2-0.4,0.3v-0.3c0.1,0,0.2-0.1,0.2-0.2c0.1-0.1,0.2-0.2,0.2-0.3h0.2
			L915.2,97.6L915.2,97.6z"/>
		<path class="st7" d="M915.6,97.1l0.3,0c0,0.1,0,0.1,0.1,0.2c0,0,0.1,0.1,0.1,0.1c0.1,0,0.1,0,0.2-0.1c0-0.1,0.1-0.1,0.1-0.3
			c0-0.1,0-0.2-0.1-0.3s-0.1-0.1-0.2-0.1c-0.1,0-0.2,0-0.2,0.1l-0.2,0l0.2-1h0.8v0.3H916l0,0.3c0.1,0,0.1-0.1,0.2-0.1
			c0.1,0,0.2,0.1,0.3,0.2c0.1,0.1,0.1,0.3,0.1,0.5c0,0.1,0,0.3-0.1,0.4c-0.1,0.2-0.2,0.2-0.4,0.2c-0.1,0-0.2,0-0.3-0.1
			S915.6,97.3,915.6,97.1"/>
		<path class="st7" d="M917.7,96.9l-0.2-0.7l-0.2,0.7H917.7L917.7,96.9z M918.2,97.6h-0.3l-0.1-0.4h-0.6l-0.1,0.4h-0.3l0.6-1.9h0.3
			L918.2,97.6L918.2,97.6z"/>
		<path class="st7" d="M930.3,76.6l0.3,0c0,0.1,0,0.2,0.1,0.2c0,0.1,0.1,0.1,0.1,0.1c0.1,0,0.1,0,0.2-0.1c0-0.1,0.1-0.1,0.1-0.2
			c0-0.1,0-0.2-0.1-0.2s-0.1-0.1-0.1-0.1c0,0-0.1,0-0.1,0l0-0.3c0.1,0,0.1,0,0.2-0.1s0.1-0.1,0.1-0.2c0-0.1,0-0.1,0-0.1
			c0,0-0.1-0.1-0.1-0.1s-0.1,0-0.1,0.1c0,0-0.1,0.1-0.1,0.2l-0.3-0.1c0-0.1,0-0.2,0.1-0.3c0-0.1,0.1-0.1,0.2-0.2
			c0.1,0,0.1-0.1,0.2-0.1c0.1,0,0.3,0.1,0.3,0.2c0.1,0.1,0.1,0.2,0.1,0.3c0,0.2-0.1,0.3-0.2,0.4c0.1,0,0.2,0.1,0.2,0.1
			s0.1,0.2,0.1,0.3c0,0.2,0,0.3-0.2,0.4c-0.1,0.1-0.2,0.2-0.4,0.2s-0.2-0.1-0.3-0.1C930.3,76.8,930.3,76.7,930.3,76.6"/>
		<path class="st7" d="M932.2,77h-0.3v-1.4c-0.1,0.1-0.2,0.2-0.4,0.3v-0.3c0.1,0,0.2-0.1,0.2-0.2s0.2-0.2,0.2-0.3h0.2L932.2,77
			L932.2,77z"/>
		<path class="st7" d="M933.1,76.4v-0.6l-0.3,0.6H933.1z M933.1,77v-0.4h-0.6v-0.3l0.7-1.2h0.2v1.2h0.2v0.3h-0.2V77H933.1L933.1,77z
			"/>
		<path class="st7" d="M934.1,76.2v0.5h0.3c0.1,0,0.2,0,0.2,0c0,0,0.1,0,0.1-0.1c0,0,0-0.1,0-0.2c0-0.1,0-0.1,0-0.1s0-0.1-0.1-0.1
			c0,0-0.1,0-0.3,0L934.1,76.2L934.1,76.2z M934.1,75.5v0.4h0.2c0.1,0,0.2,0,0.2,0c0,0,0.1,0,0.1-0.1c0,0,0-0.1,0-0.1s0-0.1,0-0.1
			c0,0-0.1-0.1-0.1-0.1c0,0-0.1,0-0.3,0L934.1,75.5L934.1,75.5z M933.8,75.2h0.6c0.1,0,0.2,0,0.3,0c0.1,0,0.1,0,0.2,0.1
			c0,0,0.1,0.1,0.1,0.2c0,0.1,0,0.1,0,0.2c0,0.1,0,0.2-0.1,0.2s-0.1,0.1-0.2,0.2c0.1,0,0.2,0.1,0.2,0.2c0,0.1,0.1,0.2,0.1,0.3
			c0,0.1,0,0.2,0,0.2c0,0.1-0.1,0.1-0.1,0.2c-0.1,0.1-0.1,0.1-0.2,0.1c0,0-0.2,0-0.4,0h-0.5V75.2L933.8,75.2z"/>
		<path class="st7" d="M884.5,67.7l0.3,0c0,0.1,0,0.2,0.1,0.2c0,0.1,0.1,0.1,0.1,0.1c0.1,0,0.1,0,0.2-0.1c0-0.1,0.1-0.1,0.1-0.2
			c0-0.1,0-0.2-0.1-0.2s-0.1-0.1-0.1-0.1c0,0-0.1,0-0.1,0l0-0.3c0.1,0,0.1,0,0.2-0.1s0.1-0.1,0.1-0.2c0-0.1,0-0.1,0-0.1
			c0,0-0.1-0.1-0.1-0.1s-0.1,0-0.1,0.1c0,0-0.1,0.1-0.1,0.2l-0.3-0.1c0-0.1,0-0.2,0.1-0.3s0.1-0.1,0.2-0.2c0.1,0,0.1-0.1,0.2-0.1
			c0.1,0,0.3,0.1,0.3,0.2c0.1,0.1,0.1,0.2,0.1,0.3c0,0.2-0.1,0.3-0.2,0.4c0.1,0,0.2,0.1,0.2,0.1s0.1,0.2,0.1,0.3
			c0,0.2,0,0.3-0.2,0.4c-0.1,0.1-0.2,0.2-0.4,0.2s-0.2-0.1-0.3-0.1C884.6,67.9,884.5,67.8,884.5,67.7"/>
		<path class="st7" d="M886.4,68.2h-0.3v-1.4c-0.1,0.1-0.2,0.2-0.4,0.3v-0.3c0.1,0,0.2-0.1,0.2-0.2s0.2-0.2,0.2-0.3h0.2L886.4,68.2
			L886.4,68.2z"/>
		<path class="st7" d="M887.4,67.5v-0.6l-0.3,0.6H887.4z M887.4,68.2v-0.4h-0.6v-0.3l0.7-1.2h0.2v1.2h0.2v0.3h-0.2v0.4H887.4
			L887.4,68.2z"/>
		<path class="st7" d="M888.3,67.9h0.3c0.1,0,0.2,0,0.2,0c0,0,0.1,0,0.1-0.1c0,0,0-0.1,0-0.1c0-0.1,0-0.1-0.1-0.2s-0.1-0.1-0.3-0.1
			h-0.3L888.3,67.9L888.3,67.9z M888,66.3h1.1v0.3h-0.8v0.4h0.4c0.1,0,0.2,0,0.3,0.1s0.1,0.1,0.2,0.2s0.1,0.2,0.1,0.3s0,0.2-0.1,0.3
			c0,0.1-0.1,0.1-0.2,0.2s-0.2,0.1-0.3,0.1H888L888,66.3L888,66.3z"/>
		<path class="st8" d="M895.4,124.2c1.8,0,3.2,1.5,3.2,3.2c0,1.8-1.5,3.2-3.2,3.2s-3.2-1.5-3.2-3.2
			C892.2,125.7,893.6,124.2,895.4,124.2"/>
		<path class="st9" d="M894.5,125.4c-0.2,0-0.4,0.2-0.3,0.5c0.1,0.5,0.9,0.4,0.8-0.2C894.9,125.5,894.7,125.3,894.5,125.4
			 M893.9,127.2v0.3h1v-0.5c0,0,0.4,0.6,0.4,0.6l-0.7,0.7c-0.1,0.1,0,0.5,0,0.6c0,0.2,0,0.5,0,0.6l0.4,0v-0.9c0-0.1,0.1-0.1,0.2-0.2
			l0.5-0.4v0.9l1.2,0v-0.4l-0.7,0c0-0.1,0-1,0-1.1s-0.7-1-0.7-1.1h0.5c0.1,0,0.1,0,0.2,0.1l0.3,0.4c0,0,0.3-0.2,0.3-0.3l-0.4-0.5
			c0-0.1-0.1-0.1-0.1-0.2c-0.2,0-0.7,0-0.9,0c-0.1,0-0.5,0.4-0.7,0.4c-0.1,0-0.1,0-0.1,0.1c0,0.1,0,0.3,0,0.4c0,0.1,0,0.1-0.1,0.1
			c-0.1,0-0.1,0-0.2,0s-0.2,0-0.2,0C894,127.2,893.9,127.1,893.9,127.2"/>
		<path class="st10" d="M248.6,270.4c1.7,0,3.1,1.4,3.1,3.1s-1.4,3.1-3.1,3.1s-3.1-1.4-3.1-3.1S246.9,270.4,248.6,270.4"/>
		<path class="st10" d="M361.3,271.3c1.7,0,3.1,1.4,3.1,3.1s-1.4,3.1-3.1,3.1s-3.1-1.4-3.1-3.1S359.6,271.3,361.3,271.3"/>
		<path class="st10" d="M548.8,270.6c1.7,0,3.1,1.4,3.1,3.1s-1.4,3.1-3.1,3.1s-3.1-1.4-3.1-3.1S547.1,270.6,548.8,270.6"/>
		<path class="st9" d="M248.6,272.9c-0.1,0-0.1,0.1-0.1,0.1l-0.4,0.7c0,0.1-0.1,0.1-0.1,0.2c-0.1,0.1-0.1,0.2-0.2,0.4
			c0,0.1-0.3,0.5-0.3,0.5c0,0.1,0,0.2,0.1,0.2c0,0,0.4,0,0.5,0h1.3c0.1,0,0.1,0,0.2-0.1c0-0.1,0-0.1,0-0.2c0-0.1-0.1-0.1-0.1-0.2
			l-0.7-1.4c0-0.1-0.1-0.2-0.1-0.2C248.7,272.9,248.6,272.9,248.6,272.9"/>
		<path class="st9" d="M361.3,275.9c0.1,0,0.1-0.1,0.1-0.1l0.4-0.7c0-0.1,0.1-0.1,0.1-0.2c0.1-0.1,0.1-0.2,0.2-0.4
			c0-0.1,0.3-0.5,0.3-0.5c0-0.1,0-0.2-0.1-0.2c0,0-0.4,0-0.5,0h-1.3c-0.1,0-0.1,0-0.2,0.1c0,0.1,0,0.1,0,0.2c0,0.1,0.1,0.1,0.1,0.2
			l0.7,1.4c0,0.1,0.1,0.2,0.1,0.2C361.3,276,361.3,276,361.3,275.9"/>
		<path class="st9" d="M548.8,275.3c0.1,0,0.1-0.1,0.1-0.1l0.4-0.7c0-0.1,0.1-0.1,0.1-0.2c0.1-0.1,0.1-0.2,0.2-0.4
			c0-0.1,0.3-0.5,0.3-0.5c0-0.1,0-0.2-0.1-0.2s-0.4,0-0.5,0H548c-0.1,0-0.2,0-0.2,0.1s0,0.1,0,0.2c0,0.1,0.1,0.1,0.1,0.2l0.7,1.4
			c0,0.1,0.1,0.2,0.2,0.2C548.8,275.3,548.8,275.3,548.8,275.3"/>
		<path class="st9" d="M248.5,271.5c-0.3,0-0.6,0.3-0.5,0.7c0,0.3,0.4,0.6,0.7,0.5c0.3,0,0.6-0.3,0.5-0.7
			C249.2,271.8,248.9,271.5,248.5,271.5"/>
		<path class="st9" d="M361.2,272.4c-0.3,0-0.6,0.3-0.5,0.7c0,0.3,0.4,0.6,0.7,0.5c0.3,0,0.6-0.3,0.5-0.7
			C361.9,272.7,361.6,272.4,361.2,272.4"/>
		<path class="st9" d="M548.7,271.8c-0.3,0-0.6,0.3-0.5,0.7c0,0.3,0.3,0.6,0.7,0.5c0.3,0,0.6-0.3,0.5-0.7
			C549.4,272,549.1,271.7,548.7,271.8"/>
		<path class="st10" d="M811.4,244.8c1.7,0,3.1,1.4,3.1,3.1s-1.4,3.1-3.1,3.1s-3.1-1.4-3.1-3.1S809.7,244.8,811.4,244.8"/>
		<path class="st9" d="M811.4,249.4c0.1,0,0.1-0.1,0.1-0.1l0.4-0.7c0-0.1,0.1-0.1,0.1-0.2c0.1-0.1,0.1-0.2,0.2-0.4
			c0-0.1,0.3-0.5,0.3-0.5c0-0.1,0-0.2-0.1-0.2s-0.4,0-0.5,0h-1.3c-0.1,0-0.2,0-0.2,0.1s0,0.1,0,0.2c0,0.1,0.1,0.1,0.1,0.2l0.7,1.4
			c0,0.1,0.1,0.2,0.2,0.2C811.4,249.4,811.4,249.5,811.4,249.4"/>
		<path class="st9" d="M811.3,245.9c-0.3,0-0.6,0.3-0.5,0.7c0,0.3,0.3,0.6,0.7,0.5c0.3,0,0.6-0.3,0.5-0.7
			C812,246.2,811.7,245.9,811.3,245.9"/>
	</g>
</g>
</svg>
