<?xml version="1.0" encoding="utf-8"?>
<!-- Generator: Adobe Illustrator 28.0.0, SVG Export Plug-In . SVG Version: 6.00 Build 0)  -->
<svg version="1.1" id="_Слой_1" xmlns="http://www.w3.org/2000/svg" xmlns:xlink="http://www.w3.org/1999/xlink" x="0px"
	 y="0px" viewBox="0 0 1133 390" style="enable-background:new 0 0 1133 390;" xml:space="preserve">
<style type="text/css">
	.st0{fill:none;stroke:#8F589E;stroke-width:1.54;stroke-miterlimit:22.93;}
	.st1{fill:#201600;}
	.st2{clip-path:url(#SVGID_00000132780762850706368260000012099526945161475256_);}
	.st3{fill:#93CFF7;}
	.st4{fill:#8F589E;}
	.st5{fill:#6AC0F3;}
	.st6{fill:#3EB5F1;}
	.st7{fill:#72AE5F;}
	.st8{fill:#7775B4;}
	.st9{fill:#FFFFFF;}
	.st10{fill-rule:evenodd;clip-rule:evenodd;fill:#72AE5F;}
	.st11{fill-rule:evenodd;clip-rule:evenodd;fill:#FFFFFF;}
	.st12{fill-rule:evenodd;clip-rule:evenodd;fill:#52AC62;}
	.st13{fill:none;stroke:#201600;stroke-width:1.23;stroke-miterlimit:22.93;}
</style>
<polyline class="st0" points="1034.5,95.6 1018.8,84 1039.5,57.5 1060.7,74.1 1040.7,100.3 1039.1,99 "/>
<path class="st1" d="M77.5,329.7v-2.6H54.2v2.6h1.6v33.8h38.3v12.1l0,0v2.6l0,0h2.6l0,0h774.1v-2.6H96.7v-14.7H58.3v-31.2
	L77.5,329.7L77.5,329.7z M828.7,292.4H61.3V323H64v-28h764.8L828.7,292.4L828.7,292.4z"/>
<g>
	<g>
		<defs>
			<rect id="SVGID_1_" x="-26" y="-179" width="1190.6" height="841.9"/>
		</defs>
		<clipPath id="SVGID_00000117635678901429530940000005346379741916135603_">
			<use xlink:href="#SVGID_1_"  style="overflow:visible;"/>
		</clipPath>
		<g style="clip-path:url(#SVGID_00000117635678901429530940000005346379741916135603_);">
			<path class="st1" d="M15.3,378L15.3,378l3.3,0.1c25.2,0,50.3,0,75.5,0h0.1v-2.6H17.4v0.1h0.1V295h43.8v-2.6H15.2v85.8h0.1V378
				L15.3,378l0.1-85.6h-0.1v0.1h46v-0.1h-0.1v2.4h0.1v-0.1H17.4v81H94v-0.1l0,0v2.4h0.1v-0.1c-25.2,0-50.3,0-75.5,0L15.3,378
				L15.3,378L15.3,378L15.3,378L15.3,378z"/>
			<rect x="825.5" y="292.4" class="st1" width="9.8" height="2.6"/>
			<rect x="868.8" y="375.6" class="st1" width="7.8" height="2.6"/>
			<polygon class="st1" points="911.8,283.8 892.9,308.1 895,309.7 912.3,287.4 932.6,303.3 934.2,301.2 912.5,284.3 912.5,284.3 
							"/>
			<polygon class="st1" points="1009.2,158.4 1009.2,158.4 1009.2,158.4 1031.5,175.8 1033.1,173.7 1012.8,157.9 1032.3,132.9 
				1030.2,131.3 			"/>
			<path class="st1" d="M1088.5,101.5l-214,275.1l2.1,1.6l214-275.1l0,0l1.6-2.1l-24.1-18.8l-1.6,2.1L1088.5,101.5L1088.5,101.5z
				 M1038.4,50.3L1038.4,50.3l-1.6,2.1l0,0l-21.3,27.4l-10-7.8l-0.7,0.9l0,0L833.2,293.4l2.1,1.6L1006,75.6l10,7.8l1.2-1.5l0,0
				l21.7-27.9l26.1,20.3l-11.6,14.8l2.1,1.6l15.7-20.2l-2.1-1.6l-2.5,3.2l-26.1-20.3l0,0L1038.4,50.3L1038.4,50.3L1038.4,50.3z"/>
			<polygon class="st3" points="830.2,296 828.7,296 828.7,297.5 830.2,297.5 830.2,329.6 828.7,329.6 828.7,296 			"/>
			<polygon class="st4" points="97.9,296 64.9,296 64.9,322.1 85.8,322.1 85.8,320.6 66.3,320.6 66.3,297.5 96.5,297.5 96.5,320.6 
				93.5,320.6 93.5,322.1 97.9,322.1 			"/>
			<polygon class="st4" points="130.2,296 98.9,296 98.9,322.1 117.8,322.1 117.8,320.6 100.4,320.6 100.4,297.5 128.7,297.5 
				128.7,320.6 124.8,320.6 124.8,322.1 130.2,322.1 			"/>
			<polygon class="st4" points="161.6,296 131.5,296 131.5,322.1 151.1,322.1 151.1,320.6 133,320.6 133,297.5 160.1,297.5 
				160.1,320.6 156.3,320.6 156.3,322.1 161.6,322.1 			"/>
			<path class="st4" d="M151.1,340.8h-40.8v1.5h40.8V340.8z M161.6,340.8h-5.3v1.5h3.8v30.9H99.4v-30.9h3.9v-1.5h-5.4v33.9h63.7
				V340.8L161.6,340.8z"/>
			<rect x="830.2" y="296" class="st3" width="5" height="1.5"/>
			<rect x="828.7" y="296" class="st5" width="1.5" height="1.5"/>
			<polygon class="st4" points="851.7,342.3 854.4,342.3 881.9,363.1 874.1,373.2 846,373.2 846,342.3 848.5,342.3 848.5,340.8 
				844.5,340.8 844.5,374.7 874.8,374.7 874.8,374.7 874.8,374.7 883.1,364 883.1,364 883.5,363.5 884,362.8 884,362.8 884,362.8 
				883.9,362.7 882.9,361.9 882.8,361.9 855,340.9 855,340.8 851.7,340.8 			"/>
			<polygon class="st6" points="209.3,340.8 174.1,340.8 174.1,342.3 207.8,342.3 207.8,373.2 164,373.2 164,342.3 167.2,342.3 
				167.2,340.8 162.5,340.8 162.5,374.7 209.3,374.7 			"/>
			<polygon class="st6" points="256.5,340.8 220.2,340.8 220.2,342.3 255,342.3 255,373.2 212.1,373.2 212.1,342.3 213.5,342.3 
				213.5,340.8 210.6,340.8 210.6,374.7 256.5,374.7 			"/>
			<polygon class="st6" points="320.1,340.8 300.1,340.8 300.1,342.3 318.6,342.3 318.6,373.2 291.3,373.2 291.3,342.3 293.9,342.3 
				293.9,340.8 289.8,340.8 289.8,374.7 320.1,374.7 			"/>
			<polygon class="st6" points="288.7,340.8 283.1,340.8 283.1,342.3 287.2,342.3 287.2,373.2 258.9,373.2 258.9,342.3 277.3,342.3 
				277.3,340.8 257.4,340.8 257.4,374.7 288.7,374.7 			"/>
			<polygon class="st6" points="304.6,296 289.8,296 289.8,329.6 293.9,329.6 293.9,328.1 291.3,328.1 291.3,297.5 303.1,297.5 
				303.1,328.1 300.1,328.1 300.1,329.6 304.6,329.6 			"/>
			<polygon class="st7" points="416.1,296 385.3,296 385.3,329.6 393.4,329.6 393.4,328.1 386.8,328.1 386.8,316.1 390.2,316.1 
				390.2,314.6 386.8,314.6 386.8,297.5 414.6,297.5 414.6,314.6 397.7,314.6 397.7,304.2 396.2,304.2 396.2,316.1 414.6,316.1 
				414.6,328.1 400.9,328.1 400.9,329.6 416.1,329.6 			"/>
			<polygon class="st7" points="640.2,296 609.4,296 609.4,329.6 617.5,329.6 617.5,328.1 610.9,328.1 610.9,316.1 614.3,316.1 
				614.3,314.6 610.9,314.6 610.9,297.5 638.7,297.5 638.7,314.6 621.8,314.6 621.8,304.2 620.3,304.2 620.3,316.1 638.7,316.1 
				638.7,328.1 625,328.1 625,329.6 640.2,329.6 			"/>
			<polygon class="st6" points="399.4,340.8 394.8,340.8 394.8,342.3 397.9,342.3 397.9,373.2 386.8,373.2 386.8,342.3 389.4,342.3 
				389.4,340.8 385.3,340.8 385.3,374.7 399.4,374.7 			"/>
			<polygon class="st8" points="494.9,340.8 491.2,340.8 491.2,342.3 493.5,342.3 493.5,373.2 481.5,373.2 481.5,342.3 484.4,342.3 
				484.4,340.8 480,340.8 480,374.7 494.9,374.7 			"/>
			<polygon class="st4" points="843.9,340.8 840.1,340.8 840.1,342.3 842.5,342.3 842.5,373.2 830.2,373.2 830.2,342.3 833.1,342.3 
				833.1,340.8 828.7,340.8 828.7,374.7 843.9,374.7 			"/>
			<polygon class="st8" points="511.4,340.8 506.3,340.8 506.3,342.3 509.9,342.3 509.9,373.2 497.3,373.2 497.3,342.3 499.9,342.3 
				499.9,340.8 495.8,340.8 495.8,374.7 511.4,374.7 			"/>
			<polygon class="st6" points="511.4,296 495.8,296 495.8,329.6 499.9,329.6 499.9,328.1 497.3,328.1 497.3,297.5 509.9,297.5 
				509.9,328.1 506.3,328.1 506.3,329.6 511.4,329.6 			"/>
			<path class="st8" d="M555.2,328.1v1.5h34.5v-1.5h-12.1v-2.5h-1.5v2.5h-15.7v-2.5H559v2.5H555.2z M608,296h-65v33.6h5.3v-1.5h-3.9
				v-30.6H559v22.7h1.5v-22.7h15.7v22.7h1.5v-22.7h28.9v30.6h-9.2v1.5H608V296L608,296z"/>
			<polygon class="st6" points="494.9,296 480,296 480,329.6 484.4,329.6 484.4,328.1 481.5,328.1 481.5,297.5 493.5,297.5 
				493.5,328.1 491.2,328.1 491.2,329.6 494.9,329.6 			"/>
			<polygon class="st6" points="384,296 305.9,296 305.9,329.6 370.7,329.6 370.7,328.1 338.3,328.1 338.3,322.8 336.8,322.8 
				336.8,328.1 321.5,328.1 321.5,316.9 336.8,316.9 336.8,318.2 338.3,318.2 338.3,316.9 338.3,316.9 338.3,315.4 338.3,315.4 
				338.3,305.1 336.8,305.1 336.8,315.4 321.5,315.4 321.5,307.3 320.1,307.3 320.1,328.1 307.4,328.1 307.4,297.5 320.1,297.5 
				320.1,300.5 321.5,300.5 321.5,297.5 336.8,297.5 336.8,300.5 338.3,300.5 338.3,297.5 382.5,297.5 382.5,328.1 377.1,328.1 
				377.1,329.6 384,329.6 			"/>
			<polygon class="st6" points="352.3,340.8 331.6,340.8 331.6,342.3 350.8,342.3 350.8,373.2 322.6,373.2 322.6,342.3 326.4,342.3 
				326.4,340.8 321.1,340.8 321.1,374.7 352.3,374.7 			"/>
			<polygon class="st6" points="384,340.8 365.1,340.8 365.1,342.3 382.5,342.3 382.5,373.2 355,373.2 355,342.3 358.9,342.3 
				358.9,340.8 353.5,340.8 353.5,374.7 384,374.7 			"/>
			<polygon class="st6" points="431.1,340.8 410.7,340.8 410.7,342.3 429.6,342.3 429.6,373.2 402.1,373.2 402.1,342.3 404.6,342.3 
				404.6,340.8 400.6,340.8 400.6,374.7 431.1,374.7 			"/>
			<polygon class="st6" points="478.9,340.8 444,340.8 444,342.3 477.4,342.3 477.4,373.2 433.8,373.2 433.8,342.3 437.5,342.3 
				437.5,340.8 432.3,340.8 432.3,374.7 478.9,374.7 			"/>
			<polygon class="st6" points="478.9,296 449.3,296 449.3,329.6 454.6,329.6 454.6,328.1 450.8,328.1 450.8,297.5 477.4,297.5 
				477.4,328.1 460.7,328.1 460.7,329.6 478.9,329.6 			"/>
			<polygon class="st6" points="542.2,296 512.6,296 512.6,329.6 527.9,329.6 527.9,328.1 514.1,328.1 514.1,297.5 540.7,297.5 
				540.7,328.1 535.2,328.1 535.2,329.6 542.2,329.6 			"/>
			<polygon class="st6" points="542.2,340.8 523.9,340.8 523.9,342.3 540.7,342.3 540.7,373.2 514.1,373.2 514.1,342.3 517.4,342.3 
				517.4,340.8 512.6,340.8 512.6,374.7 542.2,374.7 			"/>
			<polygon class="st6" points="639,340.8 621.1,340.8 621.1,342.3 637.5,342.3 637.5,373.2 610.9,373.2 610.9,342.3 614.2,342.3 
				614.2,340.8 609.4,340.8 609.4,374.7 639,374.7 			"/>
			<polygon class="st6" points="672.8,340.8 651.3,340.8 651.3,342.3 671.3,342.3 671.3,373.2 641.5,373.2 641.5,342.3 645.2,342.3 
				645.2,340.8 640,340.8 640,374.7 672.8,374.7 			"/>
			<polygon class="st4" points="704.2,296 673.9,296 673.9,329.6 677.6,329.6 677.6,328.1 675.4,328.1 675.4,297.5 702.7,297.5 
				702.7,328.1 684.5,328.1 684.5,329.6 704.2,329.6 			"/>
			<polygon class="st4" points="735.5,296 705.3,296 705.3,329.6 722.3,329.6 722.3,328.1 706.8,328.1 706.8,297.5 734,297.5 
				734,328.1 728.2,328.1 728.2,329.6 735.5,329.6 			"/>
			<polygon class="st4" points="719.7,340.8 684.5,340.8 684.5,342.3 718.2,342.3 718.2,373.2 675.4,373.2 675.4,342.3 677.6,342.3 
				677.6,340.8 673.9,340.8 673.9,374.7 719.7,374.7 			"/>
			<polygon class="st4" points="765.8,340.8 731.5,340.8 731.5,342.3 764.3,342.3 764.3,373.2 722.4,373.2 722.4,342.3 724.6,342.3 
				724.6,340.8 720.9,340.8 720.9,374.7 765.8,374.7 			"/>
			<polygon class="st4" points="797.1,340.8 777.6,340.8 777.6,342.3 795.7,342.3 795.7,373.2 768.5,373.2 768.5,342.3 771.5,342.3 
				771.5,340.8 767,340.8 767,374.7 797.1,374.7 			"/>
			<polygon class="st4" points="827.7,340.8 808.4,340.8 808.4,342.3 826.2,342.3 826.2,373.2 799.5,373.2 799.5,342.3 802.6,342.3 
				802.6,340.8 798,340.8 798,374.7 827.7,374.7 			"/>
			<polygon class="st4" points="827.7,296 782.4,296 782.4,329.6 817.2,329.6 817.2,328.1 783.9,328.1 783.9,297.5 826.2,297.5 
				826.2,328.1 822.7,328.1 822.7,329.6 827.7,329.6 			"/>
			<polygon class="st4" points="781.1,296 736.5,296 736.5,329.6 754.5,329.6 754.5,328.1 738,328.1 738,297.5 779.6,297.5 
				779.6,328.1 761,328.1 761,329.6 781.1,329.6 			"/>
			<polygon class="st6" points="608,340.8 555.3,340.8 555.3,342.3 558.5,342.3 558.5,350.2 560,350.2 560,342.3 606.5,342.3 
				606.5,373.2 560,373.2 560,354.3 558.5,354.3 558.5,360.9 554.2,360.9 554.2,362.4 558.5,362.4 558.5,373.2 544.5,373.2 
				544.5,362.4 549.1,362.4 549.1,360.9 544.5,360.9 544.5,342.3 548.4,342.3 548.4,340.8 543,340.8 543,374.7 608,374.7 			"/>
			<polygon class="st4" points="194,296 162.5,296 162.5,322.1 180.9,322.1 180.9,320.6 178.8,320.6 178.8,314.8 177.3,314.8 
				177.3,320.6 164,320.6 164,297.5 177.3,297.5 177.3,310.2 178.8,310.2 178.8,297.5 192.5,297.5 192.5,320.6 187.7,320.6 
				187.7,322.1 194,322.1 			"/>
			<path class="st1" d="M1053.8,7.4L1053.8,7.4c-0.6,0.6-1,1.2-1.5,1.9l0,0l-0.1,0.1l0.1,0.1l-0.1-0.1c-4.6,6.1-9.1,12.2-13.7,18.3
				c-11,14.7-22,29.4-33,44.2l-0.1,0.1l0.1,0.1c0.1,0.1,0.2,0.2,0.4,0.3c0.3,0.2,0.6,0.5,1,0.7c0.2,0.2,0.4,0.3,0.6,0.5l0.1,0.1
				l0.1-0.1c15.5-20.8,31.1-41.6,46.6-62.4l65.5,48.9c-9.9,13.2-19.7,26.4-29.6,39.6l-0.1,0.1l0.1,0.1c0.7,0.5,1.3,1,1.9,1.5
				l0.1,0.1l0.1-0.1c10.4-13.9,20.7-27.8,31.1-41.6l0,0l0,0v-0.1l-0.1-0.1c-18.9-14.1-37.8-28.2-56.8-42.4
				C1062.4,13.7,1058.1,10.5,1053.8,7.4V7.3V7.4L1053.8,7.4l-0.1,0.1c4.2,3.2,8.5,6.4,12.8,9.5c18.9,14.1,37.8,28.2,56.8,42.4
				l0.1-0.1h-0.1l0,0l0.1,0.1l-0.1-0.1c-10.4,13.9-20.7,27.8-31.1,41.6l0.1,0.1l0.1-0.1c-0.7-0.5-1.3-1-1.9-1.5l-0.1,0.1l0.1,0.1
				c9.9-13.2,19.7-26.4,29.6-39.6l0.1-0.1l0.1-0.1l-0.2-0.1l-65.5-48.9l-0.1-0.1l-0.1-0.1l-0.1,0.1c-15.5,20.8-31.1,41.6-46.6,62.4
				l0.1,0.1l0.1-0.1c-0.2-0.2-0.4-0.3-0.6-0.5c-0.3-0.2-0.6-0.5-1-0.7c-0.1-0.1-0.2-0.2-0.4-0.3l-0.1,0.1l0.1,0.1
				c11-14.7,22-29.4,33-44.2c4.6-6.1,9.1-12.2,13.7-18.3l0,0l0.1-0.1l-0.1-0.1l0.1,0.1C1052.9,8.8,1053.4,8.1,1053.8,7.4L1053.8,7.4
				L1053.8,7.4L1053.8,7.4L1053.8,7.4z"/>
			<polygon class="st7" points="286.8,329.9 288.3,329.9 288.3,296.1 259.2,296.1 259.2,296 257.7,296 257.7,311.3 280.1,311.3 
				280.1,322.9 281.6,322.9 281.6,309.4 280.1,309.4 280.1,309.8 259.2,309.8 259.2,297.6 286.8,297.6 			"/>
			<path class="st1" d="M261,317.3l2.1-2.1l2.1,2.1H261L261,317.3z M261,317.7h4.3l-2.1,2.1L261,317.7L261,317.7z M259.7,317.5
				c0,1.9,1.5,3.5,3.5,3.5s3.5-1.5,3.5-3.5s-1.5-3.5-3.5-3.5S259.7,315.6,259.7,317.5 M259.2,317.5c0-2.2,1.8-4,4-4s4,1.8,4,4
				s-1.8,4-4,4S259.2,319.7,259.2,317.5 M257.9,322.7h10.4v-10.4h-10.4V322.7z"/>
			<path class="st1" d="M271.9,317.3l2.1-2.1l2.1,2.1H271.9L271.9,317.3z M271.9,317.7h4.3l-2.1,2.1L271.9,317.7L271.9,317.7z
				 M270.6,317.5c0,1.9,1.5,3.5,3.4,3.5s3.5-1.5,3.5-3.5S276,314,274,314S270.6,315.6,270.6,317.5 M270,317.5c0-2.2,1.8-4,4-4
				s4,1.8,4,4s-1.8,4-4,4S270,319.7,270,317.5 M268.8,322.7h10.5v-10.4h-10.5V322.7z"/>
			<path class="st6" d="M850.5,326.5l-1.2,1.6h-20.5v1.5H850v-0.1l0,0l1.6-2.1L850.5,326.5L850.5,326.5z M835.2,296l-0.9,1.2
				l24.4,18.4l-5.3,7l1.2,0.9l6.2-8.2l0,0l0,0L835.2,296L835.2,296z"/>
			<polygon class="st4" points="873.1,333.3 873.1,333.3 872.7,333.8 869.7,337.7 870.8,338.6 873.4,335.4 892.4,349.7 884.5,359.9 
				865.6,345.7 867,343.8 865.8,342.9 863.5,345.9 863.6,346 863.6,346 884.5,361.8 884.7,362 894.5,349.5 894.4,349.4 894.5,349.4 
				873.6,333.7 			"/>
			<polygon class="st4" points="970.6,208.3 966.8,213.2 968,214.1 970.8,210.4 989.6,225 982.6,234 963.8,219.3 964.8,218.2 
				963.6,217.3 962.7,218.4 962.7,218.4 961.8,219.6 982.9,236.1 983.8,234.9 983.8,234.9 991.7,224.8 990.5,223.9 990.5,223.9 
				970.6,208.3 			"/>
			<path class="st8" d="M946.7,251.7l13.8,10.7l-7.9,10.1l-18.8-14.6l5.7-7.4l-1.2-0.9l-6.7,8.5l1.2,0.9l19.9,15.5l0,0l0,0l9.7-12.5
				l-1.2-0.9l0,0l-13.8-10.8L946.7,251.7L946.7,251.7z M941.4,245.7l-3.1,4l1.2,0.9l2.2-2.8l2,1.5l0.9-1.2L941.4,245.7L941.4,245.7
				L941.4,245.7L941.4,245.7z M946.2,246.2l-2-1.6l1.3-1.7l-1.2-0.9l-2.3,2.9l0,0l0,0l3.2,2.5L946.2,246.2L946.2,246.2z
				 M951.8,232.4l-4.2,5.4l1.2,0.9l3.3-4.2l18.8,14.6l-7.9,10.2l-14-10.9l-0.8,1.2l13.9,10.8l0,0l1.2,0.9L972,250l0,0l0.9-1.2
				l-20-15.6l0,0L951.8,232.4L951.8,232.4z"/>
			<polygon class="st4" points="961.2,220.4 961.1,220.4 957.7,224.8 958.9,225.8 961.4,222.5 980.2,237.1 973.2,246.1 954.4,231.4 
				955.7,229.9 954.5,229 952.3,231.7 952.4,231.7 952.4,231.7 973.5,248.2 973.5,248.2 973.5,248.2 982.3,236.9 982.3,236.9 
				982.3,236.9 			"/>
			<polygon class="st6" points="990,183.4 989.1,184.5 989.1,184.6 976.8,200.3 978,201.2 984.5,192.9 989.7,197 990.6,195.8 
				985.4,191.8 990.3,185.5 1009.1,200.1 1004.2,206.4 994.8,199.1 993.9,200.3 1003.2,207.6 992,222 973.2,207.3 974.3,205.9 
				973.2,205 971.1,207.6 972.3,208.5 972.3,208.5 992.3,224.1 993.2,222.9 993.2,222.9 1011.1,199.9 1011.1,199.9 1011.1,199.9 			
				"/>
			<path class="st6" d="M993.5,178.9l-0.9,1.1l1.2,0.9l0.8-1.1L993.5,178.9z M1008.5,159.6l-0.9,1.2l0,0l-11.3,14.5l1,1.1l11.5-14.7
				l18.8,14.6l-15.9,20.5l-18.8-14.6l1-1.2l-1.2-0.9l-1,1.2l0,0l-0.9,1.2L1012,199l0.9-1.2l0,0l16-20.5l0,0l0.9-1.2L1008.5,159.6
				L1008.5,159.6z"/>
			<polygon class="st6" points="1066.2,85.7 1066.2,85.6 1053.5,102 1054.7,102.9 1066.7,87.4 1085.5,102.1 1068.6,123.8 
				1049.8,109.1 1051.4,107 1050.3,106.1 1048.7,108.2 1047.7,109.4 1067.7,124.9 1067.7,124.9 1068.9,125.9 1086.7,103 1086.7,103 
				1087.6,101.8 1066.5,85.4 			"/>
			<polygon class="st6" points="1046.8,110.5 1045.9,111.7 1045.9,111.7 1043,115.4 1044.2,116.4 1047.1,112.6 1065.9,127.2 
				1052.4,144.6 1038.8,134 1044.9,126.1 1044.8,126.1 1044.9,126.1 1039.7,122.1 1041,120.5 1039.8,119.5 1038.5,121.2 
				1038.5,121.2 1037.6,122.4 1042.8,126.4 1036.7,134.2 1036.7,134.2 1036.7,134.2 1052.6,146.7 1052.7,146.6 1052.7,146.6 
				1068,127 1068,127 1068,127 			"/>
			<polygon class="st6" points="1005,78.2 1005,78.2 976.6,114.6 976.6,114.7 976.5,114.7 1001.8,134.4 1002.7,133.2 1002.7,133.2 
				1023.3,106.8 1022.1,105.9 1001.5,132.3 978.7,114.4 1006.1,79.2 1029,97 1025.5,101.5 1026.7,102.5 1031.1,96.8 1031.1,96.8 
				1031.1,96.8 1005.9,77.1 			"/>
			<polygon class="st6" points="967.1,126.8 949.3,149.6 949.4,149.6 949.4,149.6 973.4,168.3 973.4,168.4 974.6,169.3 986.8,153.5 
				985.7,152.6 974.3,167.2 951.4,149.3 967.4,128.9 990.3,146.7 989.3,147.9 990.5,148.8 991.5,147.6 991.5,147.6 992.4,146.4 
				967.2,126.8 967.2,126.8 			"/>
			<polygon class="st6" points="948.4,150.8 948.4,150.8 919.6,187.7 919.6,187.7 919.6,187.7 944.8,207.4 944.8,207.4 944.8,207.4 
				967.6,178.2 966.4,177.3 944.6,205.3 921.7,187.5 948.7,152.8 971.6,170.7 970.3,172.3 971.5,173.2 972.8,171.6 972.8,171.6 
				973.7,170.4 			"/>
			<polygon class="st6" points="918.8,188.8 918.8,188.8 890.3,225.3 891.5,226.2 891.5,226.2 915.5,245 916.5,243.8 916.5,243.8 
				938.1,216 936.9,215.1 915.3,242.9 892.4,225 919,190.9 941.9,208.7 940.6,210.4 941.8,211.3 944,208.5 944,208.4 944,208.4 			
				"/>
			<polygon class="st6" points="889.7,226.1 860.2,263.8 861.4,264.8 861.4,264.7 884.3,282.6 884.3,282.6 885.5,283.5 885.5,283.5 
				885.5,283.5 886.4,282.3 886.4,282.3 907.9,254.8 906.7,253.8 885.2,281.4 862.3,263.5 889.9,228.2 912.8,246 910.3,249.2 
				911.5,250.2 914.8,245.8 914.8,245.8 914.9,245.8 889.7,226.1 			"/>
			<polygon class="st7" points="925.8,265.4 940.7,277 941.6,275.8 926.7,264.2 			"/>
			<polygon class="st7" points="950.3,275.4 933.2,297.3 923.3,289.5 936.8,272.2 935.6,271.2 921.2,289.8 921.5,290 921.5,290 
				933.5,299.4 934.4,298.2 934.4,298.2 952.4,275.2 952.4,275.1 931.3,258.7 930.4,259.9 			"/>
			<polygon class="st6" points="859.3,265 836,294.8 837.2,295.8 837.2,295.8 861.3,314.5 862.2,313.3 862.2,313.3 879,291.8 
				877.8,290.9 861,312.4 838.2,294.6 859.6,267.1 882.5,284.9 881.6,286.1 882.7,287 884.5,284.7 884.5,284.7 884.5,284.7 
				860.5,265.9 860.5,265.9 			"/>
			<rect x="418" y="297.9" class="st9" width="30" height="30"/>
			<rect x="439.3" y="307.8" class="st1" width="7.6" height="1.8"/>
			<rect x="439.3" y="310.4" class="st1" width="7.6" height="1.8"/>
			<rect x="439.3" y="313" class="st1" width="7.6" height="1.8"/>
			<rect x="439.3" y="315.7" class="st1" width="7.6" height="1.8"/>
			<rect x="428.7" y="319.2" class="st1" width="1.8" height="7.6"/>
			<rect x="431.2" y="319.2" class="st1" width="1.8" height="7.6"/>
			<rect x="433.8" y="319.2" class="st1" width="1.8" height="7.6"/>
			<rect x="436.4" y="319.2" class="st1" width="1.8" height="7.6"/>
			<rect x="427.9" y="299" class="st1" width="1.7" height="7.6"/>
			<rect x="430.4" y="299" class="st1" width="1.7" height="7.6"/>
			<rect x="433" y="299" class="st1" width="1.7" height="7.6"/>
			<rect x="435.5" y="299" class="st1" width="1.7" height="7.6"/>
			<rect x="419.1" y="308.6" class="st1" width="7.6" height="1.8"/>
			<rect x="419.1" y="311.2" class="st1" width="7.6" height="1.8"/>
			<rect x="419.1" y="313.8" class="st1" width="7.6" height="1.8"/>
			<rect x="419.1" y="316.3" class="st1" width="7.6" height="1.8"/>
			<polygon class="st1" points="419.2,306.6 419.2,306.6 426.8,306.6 426.8,299 419.2,299 419.2,306.6 419.2,306.6 419.2,306.6 
				419.3,306.6 419.3,299.1 426.6,299.1 426.6,306.5 419.2,306.5 419.2,306.6 419.3,306.6 			"/>
			<polygon class="st1" points="419.2,326.7 419.2,326.8 426.8,326.8 426.8,319.2 419.1,319.2 419.1,326.8 419.2,326.8 419.2,326.7 
				419.3,326.7 419.3,319.3 426.6,319.3 426.6,326.7 419.2,326.7 419.2,326.7 419.3,326.7 			"/>
			<polygon class="st1" points="428,318 428,318 438.2,318 438.2,307.8 427.9,307.8 427.9,318 428,318 428,318 428.1,318 428.1,308 
				438,308 438,317.9 428,317.9 428,318 428.1,318 			"/>
			<polygon class="st1" points="439.4,306.6 439.4,306.6 446.9,306.6 446.9,299 439.3,299 439.3,306.6 439.4,306.6 439.4,306.6 
				439.5,306.6 439.5,299.1 446.8,299.1 446.8,306.5 439.4,306.5 439.4,306.6 439.5,306.6 			"/>
			<polygon class="st1" points="439.4,326.7 439.4,326.8 446.9,326.8 446.9,319.2 439.3,319.2 439.3,326.8 439.4,326.8 439.4,326.7 
				439.4,326.7 439.4,319.3 446.8,319.3 446.8,326.7 439.4,326.7 439.4,326.7 			"/>
			<rect x="642.9" y="297.9" class="st9" width="30" height="30"/>
			<rect x="664.2" y="307.8" class="st1" width="7.6" height="1.8"/>
			<rect x="664.2" y="310.4" class="st1" width="7.6" height="1.8"/>
			<rect x="664.2" y="313" class="st1" width="7.6" height="1.8"/>
			<rect x="664.2" y="315.7" class="st1" width="7.6" height="1.8"/>
			<rect x="653.5" y="319.2" class="st1" width="1.8" height="7.6"/>
			<rect x="656.1" y="319.2" class="st1" width="1.8" height="7.6"/>
			<rect x="658.7" y="319.2" class="st1" width="1.8" height="7.6"/>
			<rect x="661.3" y="319.2" class="st1" width="1.8" height="7.6"/>
			<rect x="652.8" y="299" class="st1" width="1.7" height="7.6"/>
			<rect x="655.3" y="299" class="st1" width="1.7" height="7.6"/>
			<rect x="657.8" y="299" class="st1" width="1.7" height="7.6"/>
			<rect x="660.4" y="299" class="st1" width="1.7" height="7.6"/>
			<rect x="644" y="308.6" class="st1" width="7.6" height="1.8"/>
			<rect x="644" y="311.2" class="st1" width="7.6" height="1.8"/>
			<rect x="644" y="313.8" class="st1" width="7.6" height="1.8"/>
			<rect x="644" y="316.3" class="st1" width="7.6" height="1.8"/>
			<polygon class="st1" points="644.1,306.6 644.1,306.6 651.7,306.6 651.7,299 644.1,299 644.1,306.6 644.1,306.6 644.1,306.6 
				644.2,306.6 644.2,299.1 651.5,299.1 651.5,306.5 644.1,306.5 644.1,306.6 644.2,306.6 			"/>
			<polygon class="st1" points="644.1,326.7 644.1,326.8 651.6,326.8 651.6,319.2 644,319.2 644,326.8 644.1,326.8 644.1,326.7 
				644.2,326.7 644.2,319.3 651.5,319.3 651.5,326.7 644.1,326.7 644.1,326.7 644.2,326.7 			"/>
			<polygon class="st1" points="652.9,318 652.9,318 663.1,318 663.1,307.8 652.8,307.8 652.8,318 652.9,318 652.9,318 653,318 
				653,308 662.9,308 662.9,317.9 652.9,317.9 652.9,318 653,318 			"/>
			<polygon class="st1" points="664.3,306.6 664.3,306.6 671.8,306.6 671.8,299 664.2,299 664.2,306.6 664.3,306.6 664.3,306.6 
				664.3,306.6 664.3,299.1 671.7,299.1 671.7,306.5 664.3,306.5 664.3,306.6 			"/>
			<polygon class="st1" points="664.2,326.7 664.2,326.8 671.8,326.8 671.8,319.2 664.2,319.2 664.2,326.8 664.2,326.8 664.2,326.7 
				664.3,326.7 664.3,319.3 671.7,319.3 671.7,326.7 664.2,326.7 664.2,326.7 664.3,326.7 			"/>
			<rect x="223.9" y="296.8" class="st9" width="29.2" height="23"/>
			
				<rect x="899.4" y="294.7" transform="matrix(0.6086 -0.7935 0.7935 0.6086 114.512 844.5394)" class="st9" width="27.8" height="23"/>
			
				<rect x="1017.6" y="141.7" transform="matrix(0.6086 -0.7935 0.7935 0.6086 282.4216 879.0261)" class="st9" width="29.2" height="23"/>
			
				<rect x="976" y="115.3" transform="matrix(0.6089 -0.7932 0.7932 0.6089 281.8565 830.2547)" class="st9" width="13.9" height="27.9"/>
			<rect x="240.3" y="298.9" class="st1" width="1.8" height="8.6"/>
			<rect x="237.3" y="298.9" class="st1" width="1.8" height="8.6"/>
			<rect x="234.3" y="298.9" class="st1" width="1.8" height="8.6"/>
			<rect x="231.3" y="298.9" class="st1" width="1.8" height="8.6"/>
			<rect x="228.3" y="298.9" class="st1" width="1.8" height="8.6"/>
			<rect x="225.3" y="298.9" class="st1" width="1.8" height="8.6"/>
			<rect x="240.3" y="309.2" class="st1" width="1.8" height="8.6"/>
			<rect x="237.3" y="309.2" class="st1" width="1.8" height="8.6"/>
			<rect x="234.3" y="309.2" class="st1" width="1.8" height="8.6"/>
			<rect x="231.3" y="309.2" class="st1" width="1.8" height="8.6"/>
			<rect x="228.3" y="309.2" class="st1" width="1.8" height="8.6"/>
			<rect x="225.3" y="309.2" class="st1" width="1.8" height="8.6"/>
			<polygon class="st1" points="908.4,297.1 907.3,298.6 914.1,303.8 915.2,302.3 			"/>
			<polygon class="st1" points="906.6,299.5 905.5,300.9 912.3,306.2 913.4,304.7 			"/>
			
				<rect x="906.7" y="300.9" transform="matrix(0.6097 -0.7926 0.7926 0.6097 112.294 838.4624)" class="st1" width="1.8" height="8.6"/>
			
				<rect x="904.9" y="303.3" transform="matrix(0.6095 -0.7928 0.7928 0.6095 109.87 838.2643)" class="st1" width="1.8" height="8.6"/>
			
				<rect x="903.1" y="305.8" transform="matrix(0.6071 -0.7946 0.7946 0.6071 108.7752 840.1847)" class="st1" width="1.8" height="8.6"/>
			
				<rect x="901.2" y="308.2" transform="matrix(0.6096 -0.7927 0.7927 0.6096 104.4802 837.0864)" class="st1" width="1.8" height="8.6"/>
			<polygon class="st1" points="916.6,303.4 915.5,304.8 922.2,310 923.4,308.6 			"/>
			
				<rect x="916.7" y="304.8" transform="matrix(0.6095 -0.7928 0.7928 0.6095 113.2887 848.2084)" class="st1" width="1.8" height="8.6"/>
			<polygon class="st1" points="912.9,308.1 911.8,309.6 918.6,314.8 919.7,313.4 			"/>
			<polygon class="st1" points="911.1,310.5 910,312 916.8,317.2 917.9,315.7 			"/>
			<polygon class="st1" points="909.3,312.9 908.2,314.3 915,319.5 916,318.1 			"/>
			
				<rect x="909.4" y="314.4" transform="matrix(0.6071 -0.7946 0.7946 0.6071 104.376 848.5767)" class="st1" width="1.8" height="8.6"/>
			
				<rect x="1033.8" y="154.3" transform="matrix(0.6092 -0.793 0.793 0.6092 278.5638 882.5335)" class="st1" width="1.8" height="8.6"/>
			<polygon class="st1" points="1039.4,159.5 1040.5,158.1 1033.7,152.9 1032.6,154.3 			"/>
			
				<rect x="1037.5" y="149.6" transform="matrix(0.607 -0.7947 0.7947 0.607 285.7998 885.6475)" class="st1" width="1.8" height="8.6"/>
			
				<rect x="1039.4" y="147.2" transform="matrix(0.6095 -0.7928 0.7928 0.6095 286.1183 883.8723)" class="st1" width="1.8" height="8.6"/>
			
				<rect x="1041.1" y="144.7" transform="matrix(0.607 -0.7947 0.7947 0.607 291.0599 886.6481)" class="st1" width="1.8" height="8.6"/>
			
				<rect x="1042.9" y="142.4" transform="matrix(0.6097 -0.7926 0.7926 0.6097 291.1361 884.5816)" class="st1" width="1.8" height="8.6"/>
			<polygon class="st1" points="1029.4,155.7 1030.5,154.2 1023.7,149 1022.6,150.4 			"/>
			
				<rect x="1027.5" y="145.7" transform="matrix(0.6067 -0.7949 0.7949 0.6067 285.1969 876.5163)" class="st1" width="1.8" height="8.6"/>
			
				<rect x="1029.4" y="143.3" transform="matrix(0.6095 -0.7928 0.7928 0.6095 285.2841 874.4258)" class="st1" width="1.8" height="8.6"/>
			
				<rect x="1031.1" y="140.9" transform="matrix(0.6072 -0.7945 0.7945 0.6072 289.9714 876.9766)" class="st1" width="1.8" height="8.6"/>
			
				<rect x="1032.9" y="138.6" transform="matrix(0.6092 -0.793 0.793 0.6092 290.7133 875.6648)" class="st1" width="1.8" height="8.6"/>
			
				<rect x="1034.9" y="136.2" transform="matrix(0.6095 -0.7928 0.7928 0.6095 293.0996 876.0229)" class="st1" width="1.8" height="8.6"/>
			
				<rect x="984.7" y="127.9" transform="matrix(0.609 -0.7931 0.7931 0.609 283.8388 833.4753)" class="st1" width="5.3" height="1.8"/>
			
				<rect x="982.3" y="126.1" transform="matrix(0.609 -0.7931 0.7931 0.609 284.3283 830.8948)" class="st1" width="5.3" height="1.8"/>
			<polygon class="st1" points="985,123.6 983.5,122.5 980.3,126.7 981.7,127.8 			"/>
			
				<rect x="977.6" y="122.6" transform="matrix(0.609 -0.7931 0.7931 0.609 285.3147 825.7318)" class="st1" width="5.3" height="1.8"/>
			
				<rect x="975.2" y="120.6" transform="matrix(0.6093 -0.7929 0.7929 0.6093 285.6578 822.8281)" class="st1" width="5.3" height="1.8"/>
			
				<rect x="972.8" y="118.8" transform="matrix(0.609 -0.7931 0.7931 0.609 286.41 820.493)" class="st1" width="5.3" height="1.8"/>
			
				<rect x="980.8" y="132.9" transform="matrix(0.6093 -0.7929 0.7929 0.6093 278.1202 832.092)" class="st1" width="5.3" height="1.8"/>
			
				<rect x="978.4" y="131.1" transform="matrix(0.6086 -0.7935 0.7935 0.6086 279.2589 830.1187)" class="st1" width="5.3" height="1.8"/>
			
				<rect x="976.1" y="129.3" transform="matrix(0.6093 -0.7929 0.7929 0.6093 279.1134 826.9253)" class="st1" width="5.3" height="1.8"/>
			
				<rect x="973.6" y="127.4" transform="matrix(0.6083 -0.7937 0.7937 0.6083 280.6098 825.1124)" class="st1" width="5.3" height="1.8"/>
			
				<rect x="971.3" y="125.6" transform="matrix(0.6086 -0.7935 0.7935 0.6086 280.8446 822.2977)" class="st1" width="5.3" height="1.8"/>
			<polygon class="st1" points="974,123.2 972.5,122.1 969.3,126.3 970.7,127.4 			"/>
			<polygon class="st1" points="254.3,293.7 254.3,320.4 222.6,320.4 222.6,323 254.3,323 254.3,323 256.9,323 256.9,293.7 			"/>
			<path class="st1" d="M918.1,283.8l-0.4-3l3-0.4L918.1,283.8z M918.5,284.1l2.6-3.4l0.4,3L918.5,284.1z M917.5,285
				c1.5,1.1,3.7,0.8,4.8-0.7s0.8-3.7-0.7-4.8c-1.5-1.1-3.7-0.8-4.8,0.7S916,283.8,917.5,285 M917.2,285.4c-1.8-1.3-2.1-3.8-0.8-5.6
				c1.3-1.8,3.8-2.1,5.6-0.8s2.1,3.8,0.8,5.6C921.4,286.4,918.9,286.8,917.2,285.4 M912.3,283.3l8.3,6.3l6.3-8.3l-8.3-6.3
				L912.3,283.3L912.3,283.3z"/>
			<path class="st1" d="M924.7,275.1l-0.4-3l3-0.4L924.7,275.1L924.7,275.1z M925,275.3l2.6-3.4l0.4,3L925,275.3z M924,276.3
				c1.5,1.1,3.7,0.8,4.8-0.7c1.2-1.5,0.8-3.7-0.7-4.8c-1.5-1.1-3.7-0.8-4.8,0.7S922.5,275.1,924,276.3 M923.7,276.7
				c-1.8-1.3-2.1-3.8-0.8-5.6c1.3-1.8,3.8-2.1,5.6-0.8c1.8,1.3,2.1,3.8,0.8,5.6C928,277.7,925.5,278,923.7,276.7 M918.8,274.5
				l8.3,6.3l6.3-8.3l-8.3-6.3L918.8,274.5L918.8,274.5z"/>
			<path class="st4" d="M131.1,362c2.2,0,3.9-1.8,3.9-3.9s-1.8-3.9-3.9-3.9s-3.9,1.8-3.9,3.9S128.9,362,131.1,362"/>
			<path class="st9" d="M129.9,358.2v-0.7l-0.4,0.7H129.9z M129.9,359v-0.4h-0.7v-0.4l0.8-1.4h0.3v1.4h0.2v0.4h-0.2v0.4H129.9
				L129.9,359z"/>
			<path class="st9" d="M130.5,358.4h0.3c0,0.1,0,0.2,0.1,0.2s0.1,0.1,0.2,0.1c0.1,0,0.1,0,0.2-0.1c0.1-0.1,0.1-0.2,0.1-0.3
				s0-0.2-0.1-0.3s-0.1-0.1-0.2-0.1c-0.1,0-0.2,0-0.3,0.2h-0.3l0.2-1.1h0.9v0.4H131l-0.1,0.4c0.1,0,0.1-0.1,0.2-0.1
				c0.1,0,0.3,0.1,0.4,0.2s0.2,0.3,0.2,0.5s0,0.3-0.1,0.5s-0.3,0.3-0.5,0.3s-0.3,0-0.4-0.2C130.6,358.8,130.6,358.6,130.5,358.4"/>
			<path class="st9" d="M133,358.6v0.4h-1.2c0-0.2,0.1-0.3,0.1-0.4c0.1-0.1,0.2-0.3,0.4-0.5c0.1-0.2,0.2-0.3,0.3-0.3
				c0.1-0.1,0.1-0.2,0.1-0.2c0-0.1,0-0.2-0.1-0.2c0,0-0.1-0.1-0.2-0.1s-0.1,0-0.2,0.1s-0.1,0.1-0.1,0.3h-0.3c0-0.2,0.1-0.4,0.2-0.5
				s0.2-0.2,0.4-0.2s0.3,0.1,0.4,0.2s0.1,0.3,0.1,0.4c0,0.1,0,0.2,0,0.3s-0.1,0.2-0.1,0.3s-0.1,0.2-0.2,0.3
				c-0.1,0.1-0.2,0.2-0.2,0.2l-0.1,0.1L133,358.6L133,358.6z"/>
			<path class="st6" d="M185.9,361.3c2.2,0,3.9-1.8,3.9-3.9s-1.8-3.9-3.9-3.9s-3.9,1.8-3.9,3.9S183.8,361.3,185.9,361.3"/>
			<path class="st9" d="M184.7,357.5v-0.7l-0.4,0.7H184.7z M184.7,358.3v-0.4H184v-0.4l0.8-1.4h0.3v1.4h0.2v0.4H185v0.4H184.7
				L184.7,358.3z"/>
			<path class="st9" d="M185.4,357.8h0.3c0,0.1,0,0.2,0.1,0.2s0.1,0.1,0.2,0.1c0.1,0,0.1,0,0.2-0.1c0.1-0.1,0.1-0.2,0.1-0.3
				s0-0.2-0.1-0.3s-0.1-0.1-0.2-0.1c-0.1,0-0.2,0-0.3,0.2h-0.3l0.2-1.1h0.9v0.4h-0.6l-0.1,0.4c0.1,0,0.1-0.1,0.2-0.1
				c0.1,0,0.3,0.1,0.4,0.2s0.2,0.3,0.2,0.5s0,0.3-0.1,0.5s-0.3,0.3-0.5,0.3s-0.3,0-0.4-0.2C185.4,358.1,185.4,358,185.4,357.8"/>
			<path class="st9" d="M187.6,358.3h-0.3v-1.6c-0.1,0.1-0.3,0.2-0.4,0.3v-0.4c0.1,0,0.2-0.1,0.3-0.2c0.1-0.1,0.2-0.2,0.2-0.3h0.3
				L187.6,358.3L187.6,358.3z"/>
			<path class="st6" d="M233.5,360.2c2.2,0,3.9-1.8,3.9-3.9s-1.8-3.9-3.9-3.9s-3.9,1.8-3.9,3.9S231.3,360.2,233.5,360.2"/>
			<path class="st9" d="M232.2,356.5v-0.7l-0.4,0.7H232.2z M232.2,357.3v-0.4h-0.7v-0.4l0.8-1.4h0.3v1.4h0.2v0.4h-0.2v0.4H232.2
				L232.2,357.3z"/>
			<path class="st9" d="M232.9,356.7h0.3c0,0.1,0,0.2,0.1,0.2c0,0,0.1,0.1,0.2,0.1s0.1,0,0.2-0.1s0.1-0.2,0.1-0.3s0-0.2-0.1-0.3
				c0-0.1-0.1-0.1-0.2-0.1s-0.2,0-0.3,0.2h-0.3l0.2-1.1h0.9v0.4h-0.6v0.4c0.1,0,0.1-0.1,0.2-0.1s0.3,0.1,0.4,0.2s0.2,0.3,0.2,0.5
				s0,0.3-0.1,0.5s-0.3,0.3-0.5,0.3s-0.3,0-0.4-0.2C233,357.1,232.9,356.9,232.9,356.7"/>
			<path class="st9" d="M234.8,355.4h-0.1c0,0-0.1,0.1-0.1,0.2c0,0.1,0,0.3,0,0.5s0,0.4,0,0.5s0,0.2,0.1,0.2s0.1,0,0.1,0h0.1
				c0,0,0.1-0.1,0.1-0.2c0-0.1,0-0.3,0-0.5s0-0.4,0-0.5s0-0.2-0.1-0.2S234.8,355.5,234.8,355.4 M234.8,355.1c0.2,0,0.3,0.1,0.4,0.2
				c0.1,0.2,0.2,0.5,0.2,0.9s-0.1,0.7-0.2,0.9s-0.2,0.2-0.4,0.2s-0.3-0.1-0.4-0.2c-0.1-0.2-0.2-0.5-0.2-0.9s0.1-0.7,0.2-0.9
				C234.5,355.2,234.6,355.1,234.8,355.1"/>
			<path class="st6" d="M273.3,361.1c2.2,0,3.9-1.8,3.9-3.9s-1.8-3.9-3.9-3.9s-3.9,1.8-3.9,3.9S271.2,361.1,273.3,361.1"/>
			<path class="st9" d="M272.1,357.3v-0.7l-0.4,0.7H272.1z M272.1,358.1v-0.4h-0.7v-0.4l0.8-1.4h0.3v1.4h0.2v0.4h-0.2v0.4H272.1
				L272.1,358.1z"/>
			<path class="st9" d="M273.4,357.3v-0.7l-0.4,0.7H273.4z M273.4,358.1v-0.4h-0.7v-0.4l0.8-1.4h0.3v1.4h0.2v0.4h-0.2v0.4H273.4
				L273.4,358.1z"/>
			<path class="st9" d="M274.9,356.7c0-0.1,0-0.2-0.1-0.3c0-0.1-0.1-0.1-0.2-0.1s-0.1,0-0.1,0.1s-0.1,0.2-0.1,0.3s0,0.2,0.1,0.3
				c0,0.1,0.1,0.1,0.2,0.1s0.1,0,0.2-0.1C274.9,356.9,274.9,356.9,274.9,356.7 M274.1,357.6h0.3c0,0.1,0,0.1,0.1,0.2
				s0.1,0.1,0.1,0.1c0.1,0,0.1,0,0.2-0.1c0-0.1,0.1-0.2,0.1-0.5c-0.1,0.1-0.2,0.2-0.3,0.2c-0.1,0-0.3-0.1-0.4-0.2
				c-0.1-0.1-0.1-0.3-0.1-0.5s0-0.4,0.2-0.5c0.1-0.1,0.2-0.2,0.4-0.2c0.2,0,0.3,0.1,0.4,0.2c0.1,0.2,0.2,0.5,0.2,0.8
				s-0.1,0.7-0.2,0.9s-0.3,0.3-0.5,0.3c-0.1,0-0.2,0-0.3-0.1S274.1,357.8,274.1,357.6"/>
			<path class="st6" d="M303.8,361.1c2.2,0,3.9-1.8,3.9-3.9s-1.8-3.9-3.9-3.9s-3.9,1.8-3.9,3.9S301.6,361.1,303.8,361.1"/>
			<path class="st9" d="M302.5,357.3v-0.7l-0.4,0.7H302.5z M302.5,358.1v-0.4h-0.7v-0.4l0.8-1.4h0.3v1.4h0.2v0.4h-0.2v0.4H302.5
				L302.5,358.1z"/>
			<path class="st9" d="M303.9,357.3v-0.7l-0.4,0.7H303.9z M303.9,358.1v-0.4h-0.7v-0.4l0.8-1.4h0.3v1.4h0.2v0.4h-0.2v0.4H303.9
				L303.9,358.1z"/>
			<path class="st9" d="M304.9,357.5c0,0.1,0,0.2,0.1,0.3c0,0.1,0.1,0.1,0.2,0.1s0.1,0,0.2-0.1c0-0.1,0.1-0.2,0.1-0.3s0-0.2-0.1-0.2
				c0-0.1-0.1-0.1-0.2-0.1s-0.1,0-0.2,0.1C304.9,357.3,304.9,357.4,304.9,357.5 M304.9,356.5c0,0.1,0,0.2,0.1,0.2l0.1,0.1
				c0,0,0.1,0,0.1-0.1s0.1-0.1,0.1-0.2s0-0.1-0.1-0.2s-0.1-0.1-0.1-0.1c-0.1,0-0.1,0-0.1,0.1C304.9,356.4,304.9,356.5,304.9,356.5
				 M304.8,357c-0.1,0-0.1-0.1-0.2-0.2s-0.1-0.2-0.1-0.3c0-0.2,0-0.3,0.1-0.4c0.1-0.1,0.2-0.2,0.4-0.2s0.3,0,0.4,0.2
				c0.1,0.1,0.1,0.2,0.1,0.4c0,0.1,0,0.2-0.1,0.3s-0.1,0.1-0.2,0.2c0.1,0,0.2,0.1,0.2,0.2s0.1,0.2,0.1,0.3c0,0.2,0,0.4-0.1,0.5
				s-0.2,0.2-0.4,0.2c-0.2,0-0.3,0-0.4-0.2c-0.1-0.1-0.2-0.3-0.2-0.5c0-0.1,0-0.2,0.1-0.3C304.7,357.1,304.7,357,304.8,357"/>
			<path class="st6" d="M337,361.1c2.2,0,3.9-1.8,3.9-3.9s-1.8-3.9-3.9-3.9s-3.9,1.8-3.9,3.9S334.8,361.1,337,361.1"/>
			<path class="st9" d="M335.7,357.3v-0.7l-0.4,0.7H335.7z M335.7,358.1v-0.4H335v-0.4l0.8-1.4h0.3v1.4h0.2v0.4h-0.2v0.4H335.7
				L335.7,358.1z"/>
			<path class="st9" d="M337.1,357.3v-0.7l-0.4,0.7H337.1z M337.1,358.1v-0.4h-0.7v-0.4l0.8-1.4h0.3v1.4h0.2v0.4h-0.2v0.4H337.1
				L337.1,358.1z"/>
			<path class="st9" d="M337.8,356.4V356h1.1v0.3c-0.1,0.1-0.2,0.3-0.3,0.5c-0.1,0.2-0.2,0.4-0.2,0.7c0,0.2-0.1,0.5-0.1,0.7H338
				c0-0.3,0.1-0.6,0.1-0.9c0.1-0.3,0.2-0.6,0.4-0.8L337.8,356.4L337.8,356.4z"/>
			<path class="st6" d="M368.1,361.1c2.2,0,3.9-1.8,3.9-3.9s-1.8-3.9-3.9-3.9s-3.9,1.8-3.9,3.9S365.9,361.1,368.1,361.1"/>
			<path class="st9" d="M366.8,357.3v-0.7l-0.4,0.7H366.8z M366.8,358.1v-0.4h-0.7v-0.4l0.8-1.4h0.3v1.4h0.2v0.4h-0.2v0.4H366.8
				L366.8,358.1z"/>
			<path class="st9" d="M368.1,357.3v-0.7l-0.4,0.7H368.1z M368.1,358.1v-0.4h-0.7v-0.4l0.8-1.4h0.3v1.4h0.2v0.4h-0.2v0.4H368.1
				L368.1,358.1z"/>
			<path class="st9" d="M369.2,357.4c0,0.1,0,0.2,0.1,0.3c0,0.1,0.1,0.1,0.2,0.1s0.1,0,0.2-0.1c0-0.1,0.1-0.2,0.1-0.3s0-0.2-0.1-0.3
				c0-0.1-0.1-0.1-0.2-0.1s-0.1,0-0.2,0.1S369.2,357.3,369.2,357.4 M369.9,356.5h-0.3c0-0.1,0-0.1-0.1-0.2s-0.1-0.1-0.1-0.1
				c-0.1,0-0.1,0-0.2,0.1s-0.1,0.2-0.1,0.5c0.1-0.1,0.2-0.2,0.3-0.2c0.1,0,0.3,0.1,0.4,0.2c0.1,0.1,0.1,0.3,0.1,0.5s0,0.4-0.2,0.5
				c-0.1,0.1-0.2,0.2-0.4,0.2c-0.2,0-0.3-0.1-0.4-0.2c-0.1-0.2-0.2-0.5-0.2-0.8s0.1-0.7,0.2-0.9s0.3-0.3,0.5-0.3
				c0.1,0,0.2,0,0.3,0.1S369.9,356.3,369.9,356.5"/>
			<path class="st6" d="M392.7,361.1c2.2,0,3.9-1.8,3.9-3.9s-1.8-3.9-3.9-3.9s-3.9,1.8-3.9,3.9S390.5,361.1,392.7,361.1"/>
			<path class="st9" d="M391.4,357.3v-0.7l-0.4,0.7H391.4z M391.4,358.1v-0.4h-0.7v-0.4l0.8-1.4h0.3v1.4h0.2v0.4h-0.2v0.4H391.4
				L391.4,358.1z"/>
			<path class="st9" d="M392.8,357.3v-0.7l-0.4,0.7H392.8z M392.8,358.1v-0.4H392v-0.4l0.8-1.4h0.3v1.4h0.2v0.4h-0.2v0.4H392.8
				L392.8,358.1z"/>
			<path class="st9" d="M393.4,357.6h0.3c0,0.1,0,0.2,0.1,0.2c0,0,0.1,0.1,0.2,0.1s0.1,0,0.2-0.1s0.1-0.2,0.1-0.3s0-0.2-0.1-0.3
				c0-0.1-0.1-0.1-0.2-0.1s-0.2,0-0.3,0.2h-0.3l0.2-1.1h0.9v0.4h-0.6v0.4c0.1,0,0.1-0.1,0.2-0.1s0.3,0.1,0.4,0.2
				c0.1,0.1,0.2,0.3,0.2,0.5s0,0.3-0.1,0.5s-0.3,0.3-0.5,0.3s-0.3,0-0.4-0.2C393.5,357.9,393.5,357.8,393.4,357.6"/>
			<path class="st6" d="M415.6,361.1c2.2,0,3.9-1.8,3.9-3.9s-1.8-3.9-3.9-3.9s-3.9,1.8-3.9,3.9S413.4,361.1,415.6,361.1"/>
			<path class="st9" d="M414.3,357.3v-0.7l-0.4,0.7H414.3z M414.3,358.1v-0.4h-0.7v-0.4l0.8-1.4h0.3v1.4h0.2v0.4h-0.2v0.4H414.3
				L414.3,358.1z"/>
			<path class="st9" d="M415.6,357.3v-0.7l-0.4,0.7H415.6z M415.6,358.1v-0.4h-0.7v-0.4l0.8-1.4h0.3v1.4h0.2v0.4H416v0.4H415.6
				L415.6,358.1z"/>
			<path class="st9" d="M417,357.3v-0.7l-0.4,0.7H417z M417,358.1v-0.4h-0.7v-0.4l0.8-1.4h0.3v1.4h0.2v0.4h-0.2v0.4H417L417,358.1z"
				/>
			<path class="st6" d="M454.3,361.1c2.2,0,3.9-1.8,3.9-3.9s-1.8-3.9-3.9-3.9s-3.9,1.8-3.9,3.9S452.1,361.1,454.3,361.1"/>
			<path class="st9" d="M453,357.3v-0.7l-0.4,0.7H453z M453,358.1v-0.4h-0.7v-0.4l0.8-1.4h0.3v1.4h0.2v0.4h-0.2v0.4H453L453,358.1z"
				/>
			<path class="st9" d="M454.4,357.3v-0.7l-0.4,0.7H454.4z M454.4,358.1v-0.4h-0.7v-0.4l0.8-1.4h0.3v1.4h0.2v0.4h-0.2v0.4H454.4
				L454.4,358.1z"/>
			<path class="st9" d="M455.1,357.5h0.3c0,0.1,0,0.2,0.1,0.2c0,0,0.1,0.1,0.2,0.1s0.1,0,0.2-0.1s0.1-0.2,0.1-0.3s0-0.2-0.1-0.2
				c0-0.1-0.1-0.1-0.2-0.1h-0.1v-0.3c0.1,0,0.2,0,0.2-0.1s0.1-0.1,0.1-0.2c0-0.1,0-0.1,0-0.2l-0.1-0.1c0,0-0.1,0-0.1,0.1
				c0,0-0.1,0.1-0.1,0.2l-0.3-0.1c0-0.1,0-0.2,0.1-0.3c0-0.1,0.1-0.1,0.2-0.2s0.2-0.1,0.3-0.1c0.2,0,0.3,0.1,0.4,0.2
				c0.1,0.1,0.1,0.2,0.1,0.4s-0.1,0.3-0.2,0.5c0.1,0,0.2,0.1,0.2,0.2c0.1,0.1,0.1,0.2,0.1,0.3c0,0.2-0.1,0.3-0.2,0.5
				s-0.2,0.2-0.4,0.2c-0.2,0-0.3-0.1-0.4-0.2S455.1,357.7,455.1,357.5"/>
			<path class="st8" d="M487.1,361.1c2.2,0,3.9-1.8,3.9-3.9s-1.8-3.9-3.9-3.9s-3.9,1.8-3.9,3.9S484.9,361.1,487.1,361.1"/>
			<path class="st9" d="M485.8,357.3v-0.7l-0.4,0.7H485.8z M485.8,358.1v-0.4h-0.7v-0.4l0.8-1.4h0.3v1.4h0.2v0.4h-0.2v0.4H485.8
				L485.8,358.1z"/>
			<path class="st9" d="M487.2,357.3v-0.7l-0.4,0.7H487.2z M487.2,358.1v-0.4h-0.7v-0.4l0.8-1.4h0.3v1.4h0.2v0.4h-0.2v0.4H487.2
				L487.2,358.1z"/>
			<path class="st9" d="M489,357.7v0.4h-1.2c0-0.2,0-0.3,0.1-0.4c0.1-0.1,0.2-0.3,0.4-0.5s0.2-0.3,0.3-0.3c0-0.1,0.1-0.2,0.1-0.2
				c0-0.1,0-0.2-0.1-0.2c0,0-0.1-0.1-0.2-0.1s-0.1,0-0.2,0.1s-0.1,0.1-0.1,0.3h-0.3c0-0.2,0.1-0.4,0.2-0.5s0.2-0.2,0.4-0.2
				s0.3,0.1,0.4,0.2s0.2,0.3,0.2,0.4c0,0.1,0,0.2,0,0.3s-0.1,0.2-0.1,0.3s-0.1,0.2-0.2,0.3c-0.1,0.1-0.2,0.2-0.2,0.2s0,0.1-0.1,0.1
				L489,357.7L489,357.7z"/>
			<path class="st8" d="M503.6,361.1c2.2,0,3.9-1.8,3.9-3.9s-1.8-3.9-3.9-3.9s-3.9,1.8-3.9,3.9S501.4,361.1,503.6,361.1"/>
			<path class="st9" d="M502.3,357.3v-0.7l-0.4,0.7H502.3z M502.3,358.1v-0.4h-0.7v-0.4l0.8-1.4h0.3v1.4h0.2v0.4h-0.2v0.4H502.3
				L502.3,358.1z"/>
			<path class="st9" d="M503.7,357.3v-0.7l-0.4,0.7H503.7z M503.7,358.1v-0.4H503v-0.4l0.8-1.4h0.3v1.4h0.2v0.4H504v0.4H503.7
				L503.7,358.1z"/>
			<path class="st9" d="M505.2,358.1h-0.3v-1.6c-0.1,0.1-0.3,0.2-0.4,0.3v-0.4c0.1,0,0.2-0.1,0.3-0.2c0.1-0.1,0.2-0.2,0.2-0.3h0.3
				L505.2,358.1L505.2,358.1z"/>
			<path class="st6" d="M527.6,361.1c2.2,0,3.9-1.8,3.9-3.9s-1.8-3.9-3.9-3.9s-3.9,1.8-3.9,3.9S525.5,361.1,527.6,361.1"/>
			<path class="st9" d="M526.3,357.3v-0.7l-0.4,0.7H526.3z M526.3,358.1v-0.4h-0.7v-0.4l0.8-1.4h0.3v1.4h0.2v0.4h-0.2v0.4H526.3
				L526.3,358.1z"/>
			<path class="st9" d="M527.7,357.3v-0.7l-0.4,0.7H527.7z M527.7,358.1v-0.4H527v-0.4l0.8-1.4h0.3v1.4h0.2v0.4H528v0.4H527.7
				L527.7,358.1z"/>
			<path class="st9" d="M528.9,356.3L528.9,356.3c-0.1,0-0.2,0.1-0.2,0.2c0,0.1,0,0.3,0,0.5s0,0.4,0,0.5s0,0.2,0.1,0.2s0.1,0,0.1,0
				h0.1c0,0,0.1-0.1,0.1-0.2c0-0.1,0-0.3,0-0.5s0-0.4,0-0.5S529.1,356.3,528.9,356.3C528.9,356.3,529,356.3,528.9,356.3 M528.9,356
				c0.2,0,0.3,0.1,0.4,0.2c0.1,0.2,0.2,0.5,0.2,0.9s-0.1,0.7-0.2,0.9c-0.1,0.2-0.2,0.2-0.4,0.2s-0.3-0.1-0.4-0.2s-0.2-0.5-0.2-0.9
				s0.1-0.7,0.2-0.9C528.6,356,528.8,356,528.9,356"/>
			<path class="st6" d="M583.9,361.1c2.2,0,3.9-1.8,3.9-3.9s-1.8-3.9-3.9-3.9s-3.9,1.8-3.9,3.9S581.7,361.1,583.9,361.1"/>
			<path class="st9" d="M582.6,357.3v-0.7l-0.4,0.7H582.6z M582.6,358.1v-0.4h-0.7v-0.4l0.8-1.4h0.3v1.4h0.2v0.4H583v0.4H582.6
				L582.6,358.1z"/>
			<path class="st9" d="M583.3,357.5h0.3c0,0.1,0,0.2,0.1,0.2c0,0,0.1,0.1,0.2,0.1c0.1,0,0.1,0,0.2-0.1s0.1-0.2,0.1-0.3
				s0-0.2-0.1-0.2s-0.1-0.1-0.2-0.1c0,0-0.1,0-0.2,0v-0.3c0.1,0,0.2,0,0.2-0.1c0,0,0.1-0.1,0.1-0.2c0-0.1,0-0.1,0-0.2l-0.1-0.1
				c0,0-0.1,0-0.2,0.1c0,0-0.1,0.1-0.1,0.2l-0.3-0.1c0-0.1,0-0.2,0.1-0.3c0-0.1,0.1-0.1,0.2-0.2s0.2-0.1,0.3-0.1
				c0.2,0,0.3,0.1,0.4,0.2c0.1,0.1,0.1,0.2,0.1,0.4s-0.1,0.3-0.2,0.5c0.1,0,0.2,0.1,0.2,0.2c0.1,0.1,0.1,0.2,0.1,0.3
				c0,0.2-0.1,0.3-0.2,0.5c-0.1,0.1-0.2,0.2-0.4,0.2s-0.3-0.1-0.4-0.2C583.4,357.9,583.3,357.7,583.3,357.5"/>
			<path class="st9" d="M585.4,356.7c0-0.1,0-0.2-0.1-0.3s-0.1-0.1-0.2-0.1s-0.1,0-0.2,0.1c0,0.1-0.1,0.2-0.1,0.3s0,0.2,0.1,0.3
				c0,0.1,0.1,0.1,0.2,0.1s0.1,0,0.2-0.1S585.4,356.9,585.4,356.7 M584.7,357.6h0.3c0,0.1,0,0.1,0.1,0.2l0.1,0.1
				c0.1,0,0.1,0,0.2-0.1s0.1-0.2,0.1-0.5c-0.1,0.1-0.2,0.2-0.3,0.2s-0.3-0.1-0.4-0.2s-0.2-0.3-0.2-0.5s0-0.4,0.2-0.5
				s0.2-0.2,0.4-0.2s0.3,0.1,0.4,0.2c0.1,0.2,0.2,0.5,0.2,0.8s-0.1,0.7-0.2,0.9c-0.1,0.2-0.3,0.3-0.5,0.3c-0.1,0-0.2,0-0.3-0.1
				S584.7,357.8,584.7,357.6"/>
			<path class="st6" d="M624,361.1c2.2,0,3.9-1.8,3.9-3.9s-1.8-3.9-3.9-3.9s-3.9,1.8-3.9,3.9S621.8,361.1,624,361.1"/>
			<path class="st9" d="M622.7,357.3v-0.7l-0.4,0.7H622.7z M622.7,358.1v-0.4H622v-0.4l0.8-1.4h0.3v1.4h0.2v0.4h-0.2v0.4H622.7
				L622.7,358.1z"/>
			<path class="st9" d="M623.4,357.5h0.3c0,0.1,0,0.2,0.1,0.2c0,0,0.1,0.1,0.2,0.1c0.1,0,0.1,0,0.2-0.1s0.1-0.2,0.1-0.3
				s0-0.2-0.1-0.2s-0.1-0.1-0.2-0.1c0,0-0.1,0-0.2,0v-0.3c0.1,0,0.2,0,0.2-0.1c0,0,0.1-0.1,0.1-0.2c0-0.1,0-0.1,0-0.2l-0.1-0.1
				c0,0-0.1,0-0.2,0.1c0,0-0.1,0.1-0.1,0.2l-0.3-0.1c0-0.1,0-0.2,0.1-0.3c0-0.1,0.1-0.1,0.2-0.2s0.2-0.1,0.3-0.1
				c0.2,0,0.3,0.1,0.4,0.2c0.1,0.1,0.1,0.2,0.1,0.4s-0.1,0.3-0.2,0.5c0.1,0,0.2,0.1,0.2,0.2c0.1,0.1,0.1,0.2,0.1,0.3
				c0,0.2-0.1,0.3-0.2,0.5s-0.2,0.2-0.4,0.2s-0.3-0.1-0.4-0.2C623.5,357.9,623.4,357.7,623.4,357.5"/>
			<path class="st9" d="M625.1,357.5c0,0.1,0,0.2,0.1,0.3c0,0.1,0.1,0.1,0.2,0.1s0.1,0,0.2-0.1c0-0.1,0.1-0.2,0.1-0.3s0-0.2-0.1-0.2
				s-0.1-0.1-0.2-0.1c-0.1,0-0.1,0-0.2,0.1S625.1,357.4,625.1,357.5 M625.1,356.5c0,0.1,0,0.2,0.1,0.2c0,0,0.1,0.1,0.2,0.1
				s0.1,0,0.2-0.1c0,0,0.1-0.1,0.1-0.2s0-0.1-0.1-0.2s-0.1-0.1-0.2-0.1c-0.1,0-0.1,0-0.2,0.1C625.1,356.4,625.1,356.5,625.1,356.5
				 M625,357c-0.1,0-0.2-0.1-0.2-0.2s-0.1-0.2-0.1-0.3c0-0.2,0-0.3,0.1-0.4c0.1-0.1,0.2-0.2,0.4-0.2s0.3,0,0.4,0.2s0.1,0.2,0.1,0.4
				c0,0.1,0,0.2-0.1,0.3s-0.1,0.1-0.2,0.2c0.1,0,0.2,0.1,0.2,0.2s0.1,0.2,0.1,0.3c0,0.2,0,0.4-0.2,0.5c-0.1,0.1-0.2,0.2-0.4,0.2
				s-0.3,0-0.4-0.2c-0.1-0.1-0.2-0.3-0.2-0.5c0-0.1,0-0.2,0.1-0.3C624.9,357.1,625,357,625,357"/>
			<path class="st6" d="M656.9,361.1c2.2,0,3.9-1.8,3.9-3.9s-1.8-3.9-3.9-3.9s-3.9,1.8-3.9,3.9S654.8,361.1,656.9,361.1"/>
			<path class="st9" d="M655.7,357.3v-0.7l-0.4,0.7H655.7z M655.7,358.1v-0.4H655v-0.4l0.8-1.4h0.3v1.4h0.2v0.4H656v0.4H655.7
				L655.7,358.1z"/>
			<path class="st9" d="M656.3,357.5h0.3c0,0.1,0,0.2,0.1,0.2c0,0,0.1,0.1,0.2,0.1c0.1,0,0.1,0,0.2-0.1s0.1-0.2,0.1-0.3
				s0-0.2-0.1-0.2s-0.1-0.1-0.2-0.1c0,0-0.1,0-0.2,0v-0.3c0.1,0,0.2,0,0.2-0.1c0,0,0.1-0.1,0.1-0.2c0-0.1,0-0.1,0-0.2l-0.1-0.1
				c0,0-0.1,0-0.2,0.1c0,0-0.1,0.1-0.1,0.2l-0.3-0.1c0-0.1,0-0.2,0.1-0.3c0-0.1,0.1-0.1,0.2-0.2s0.2-0.1,0.3-0.1
				c0.2,0,0.3,0.1,0.4,0.2c0.1,0.1,0.1,0.2,0.1,0.4s-0.1,0.3-0.2,0.5c0.1,0,0.2,0.1,0.2,0.2c0.1,0.1,0.1,0.2,0.1,0.3
				c0,0.2-0.1,0.3-0.2,0.5c-0.1,0.1-0.2,0.2-0.4,0.2s-0.3-0.1-0.4-0.2C656.4,357.9,656.4,357.7,656.3,357.5"/>
			<path class="st9" d="M657.7,356.4V356h1.2v0.3c-0.1,0.1-0.2,0.3-0.3,0.5s-0.2,0.4-0.2,0.7c0,0.2-0.1,0.5-0.1,0.7H658
				c0-0.3,0-0.6,0.2-0.9c0.1-0.3,0.2-0.6,0.4-0.8L657.7,356.4L657.7,356.4z"/>
			<path class="st4" d="M694.6,361.1c2.2,0,3.9-1.8,3.9-3.9s-1.8-3.9-3.9-3.9s-3.9,1.8-3.9,3.9S692.5,361.1,694.6,361.1"/>
			<path class="st9" d="M693.4,357.3v-0.7l-0.4,0.7H693.4z M693.4,358.1v-0.4h-0.7v-0.4l0.8-1.4h0.3v1.4h0.2v0.4h-0.2v0.4H693.4
				L693.4,358.1z"/>
			<path class="st9" d="M694,357.5h0.3c0,0.1,0,0.2,0.1,0.2c0,0,0.1,0.1,0.2,0.1c0.1,0,0.1,0,0.2-0.1s0.1-0.2,0.1-0.3s0-0.2-0.1-0.2
				s-0.1-0.1-0.2-0.1c0,0-0.1,0-0.2,0v-0.3c0.1,0,0.2,0,0.2-0.1c0,0,0.1-0.1,0.1-0.2c0-0.1,0-0.1,0-0.2l-0.1-0.1c0,0-0.1,0-0.2,0.1
				c0,0-0.1,0.1-0.1,0.2l-0.3-0.1c0-0.1,0-0.2,0.1-0.3c0-0.1,0.1-0.1,0.2-0.2s0.2-0.1,0.3-0.1c0.2,0,0.3,0.1,0.4,0.2
				c0.1,0.1,0.1,0.2,0.1,0.4s-0.1,0.3-0.2,0.5c0.1,0,0.2,0.1,0.2,0.2c0.1,0.1,0.1,0.2,0.1,0.3c0,0.2-0.1,0.3-0.2,0.5
				c-0.1,0.1-0.2,0.2-0.4,0.2s-0.3-0.1-0.4-0.2C694.1,357.9,694.1,357.7,694,357.5"/>
			<path class="st9" d="M695.8,357.4c0,0.1,0,0.2,0.1,0.3s0.1,0.1,0.2,0.1s0.1,0,0.2-0.1c0-0.1,0.1-0.2,0.1-0.3s0-0.2-0.1-0.3
				c0-0.1-0.1-0.1-0.2-0.1s-0.1,0-0.2,0.1S695.8,357.3,695.8,357.4 M696.5,356.5h-0.3c0-0.1,0-0.1-0.1-0.2l-0.1-0.1
				c-0.1,0-0.1,0-0.2,0.1s-0.1,0.2-0.1,0.5c0.1-0.1,0.2-0.2,0.3-0.2s0.3,0.1,0.4,0.2s0.2,0.3,0.2,0.5s0,0.4-0.2,0.5
				s-0.2,0.2-0.4,0.2s-0.3-0.1-0.4-0.2c-0.1-0.2-0.2-0.5-0.2-0.8s0.1-0.7,0.2-0.9c0.1-0.2,0.3-0.3,0.5-0.3c0.1,0,0.2,0,0.3,0.1
				S696.5,356.3,696.5,356.5"/>
			<path class="st4" d="M743,361.1c2.2,0,3.9-1.8,3.9-3.9s-1.8-3.9-3.9-3.9s-3.9,1.8-3.9,3.9S740.9,361.1,743,361.1"/>
			<path class="st9" d="M741.8,357.3v-0.7l-0.4,0.7H741.8z M741.8,358.1v-0.4H741v-0.4l0.8-1.4h0.3v1.4h0.2v0.4h-0.2v0.4H741.8
				L741.8,358.1z"/>
			<path class="st9" d="M742.4,357.5h0.3c0,0.1,0,0.2,0.1,0.2c0,0,0.1,0.1,0.2,0.1c0.1,0,0.1,0,0.2-0.1s0.1-0.2,0.1-0.3
				s0-0.2-0.1-0.2s-0.1-0.1-0.2-0.1c0,0-0.1,0-0.2,0v-0.3c0.1,0,0.2,0,0.2-0.1c0,0,0.1-0.1,0.1-0.2c0-0.1,0-0.1,0-0.2l-0.1-0.1
				c0,0-0.1,0-0.2,0.1c0,0-0.1,0.1-0.1,0.2l-0.3-0.1c0-0.1,0-0.2,0.1-0.3c0-0.1,0.1-0.1,0.2-0.2s0.2-0.1,0.3-0.1
				c0.2,0,0.3,0.1,0.4,0.2c0.1,0.1,0.1,0.2,0.1,0.4s-0.1,0.3-0.2,0.5c0.1,0,0.2,0.1,0.2,0.2c0.1,0.1,0.1,0.2,0.1,0.3
				c0,0.2-0.1,0.3-0.2,0.5s-0.2,0.2-0.4,0.2s-0.3-0.1-0.4-0.2C742.5,357.9,742.5,357.7,742.4,357.5"/>
			<path class="st9" d="M743.8,357.6h0.3c0,0.1,0,0.2,0.1,0.2c0,0,0.1,0.1,0.2,0.1c0.1,0,0.1,0,0.2-0.1s0.1-0.2,0.1-0.3
				s0-0.2-0.1-0.3s-0.1-0.1-0.2-0.1c-0.1,0-0.2,0-0.3,0.2h-0.3l0.2-1.1h0.9v0.4h-0.6v0.4c0.1,0,0.2-0.1,0.2-0.1
				c0.2,0,0.3,0.1,0.4,0.2s0.2,0.3,0.2,0.5s0,0.3-0.1,0.5s-0.3,0.3-0.5,0.3s-0.3,0-0.4-0.2C743.9,357.9,743.8,357.8,743.8,357.6"/>
			<path class="st4" d="M780.3,361.1c2.2,0,3.9-1.8,3.9-3.9s-1.8-3.9-3.9-3.9s-3.9,1.8-3.9,3.9S778.1,361.1,780.3,361.1"/>
			<path class="st9" d="M779,357.3v-0.7l-0.4,0.7H779z M779,358.1v-0.4h-0.7v-0.4l0.8-1.4h0.3v1.4h0.2v0.4h-0.2v0.4H779L779,358.1z"
				/>
			<path class="st9" d="M779.7,357.5h0.3c0,0.1,0,0.2,0.1,0.2c0,0,0.1,0.1,0.2,0.1c0.1,0,0.1,0,0.2-0.1s0.1-0.2,0.1-0.3
				s0-0.2-0.1-0.2s-0.1-0.1-0.2-0.1c0,0-0.1,0-0.2,0v-0.3c0.1,0,0.2,0,0.2-0.1c0,0,0.1-0.1,0.1-0.2c0-0.1,0-0.1,0-0.2l-0.1-0.1
				c0,0-0.1,0-0.2,0.1c0,0-0.1,0.1-0.1,0.2l-0.3-0.1c0-0.1,0-0.2,0.1-0.3c0-0.1,0.1-0.1,0.2-0.2s0.2-0.1,0.3-0.1
				c0.2,0,0.3,0.1,0.4,0.2c0.1,0.1,0.1,0.2,0.1,0.4s-0.1,0.3-0.2,0.5c0.1,0,0.2,0.1,0.2,0.2c0.1,0.1,0.1,0.2,0.1,0.3
				c0,0.2-0.1,0.3-0.2,0.5s-0.2,0.2-0.4,0.2s-0.3-0.1-0.4-0.2C779.8,357.9,779.7,357.7,779.7,357.5"/>
			<path class="st9" d="M781.7,357.3v-0.7l-0.4,0.7H781.7z M781.7,358.1v-0.4H781v-0.4l0.8-1.4h0.3v1.4h0.2v0.4H782v0.4H781.7
				L781.7,358.1z"/>
			<path class="st4" d="M812.7,361.1c2.2,0,3.9-1.8,3.9-3.9s-1.8-3.9-3.9-3.9s-3.9,1.8-3.9,3.9S810.5,361.1,812.7,361.1"/>
			<path class="st9" d="M811.4,357.3v-0.7l-0.4,0.7H811.4z M811.4,358.1v-0.4h-0.7v-0.4l0.8-1.4h0.3v1.4h0.2v0.4h-0.2v0.4H811.4
				L811.4,358.1z"/>
			<path class="st9" d="M812,357.5h0.3c0,0.1,0,0.2,0.1,0.2c0,0,0.1,0.1,0.2,0.1c0.1,0,0.1,0,0.2-0.1s0.1-0.2,0.1-0.3s0-0.2-0.1-0.2
				s-0.1-0.1-0.2-0.1c0,0-0.1,0-0.2,0v-0.3c0.1,0,0.2,0,0.2-0.1c0,0,0.1-0.1,0.1-0.2c0-0.1,0-0.1,0-0.2l-0.1-0.1c0,0-0.1,0-0.2,0.1
				c0,0-0.1,0.1-0.1,0.2l-0.3-0.1c0-0.1,0-0.2,0.1-0.3c0-0.1,0.1-0.1,0.2-0.2s0.2-0.1,0.3-0.1c0.2,0,0.3,0.1,0.4,0.2
				c0.1,0.1,0.1,0.2,0.1,0.4s-0.1,0.3-0.2,0.5c0.1,0,0.2,0.1,0.2,0.2c0.1,0.1,0.1,0.2,0.1,0.3c0,0.2-0.1,0.3-0.2,0.5
				s-0.2,0.2-0.4,0.2s-0.3-0.1-0.4-0.2C812.1,357.9,812.1,357.7,812,357.5"/>
			<path class="st9" d="M813.4,357.5h0.3c0,0.1,0,0.2,0.1,0.2c0,0,0.1,0.1,0.2,0.1c0.1,0,0.1,0,0.2-0.1s0.1-0.2,0.1-0.3
				s0-0.2-0.1-0.2s-0.1-0.1-0.2-0.1c0,0-0.1,0-0.2,0v-0.3c0.1,0,0.2,0,0.2-0.1c0,0,0.1-0.1,0.1-0.2c0-0.1,0-0.1,0-0.2l-0.1-0.1
				c0,0-0.1,0-0.2,0.1c0,0-0.1,0.1-0.1,0.2l-0.3-0.1c0-0.1,0-0.2,0.1-0.3c0-0.1,0.1-0.1,0.2-0.2s0.2-0.1,0.3-0.1
				c0.2,0,0.3,0.1,0.4,0.2c0.1,0.1,0.1,0.2,0.1,0.4s-0.1,0.3-0.2,0.5c0.1,0,0.2,0.1,0.2,0.2c0.1,0.1,0.1,0.2,0.1,0.3
				c0,0.2-0.1,0.3-0.2,0.5c-0.1,0.1-0.2,0.2-0.4,0.2s-0.3-0.1-0.4-0.2C813.5,357.9,813.4,357.7,813.4,357.5"/>
			<path class="st4" d="M857,361.1c2.2,0,3.9-1.8,3.9-3.9s-1.8-3.9-3.9-3.9s-3.9,1.8-3.9,3.9S854.8,361.1,857,361.1"/>
			<path class="st9" d="M855.7,357.3v-0.7l-0.4,0.7H855.7z M855.7,358.1v-0.4H855v-0.4l0.8-1.4h0.3v1.4h0.2v0.4H856v0.4H855.7
				L855.7,358.1z"/>
			<path class="st9" d="M856.4,357.5h0.3c0,0.1,0,0.2,0.1,0.2c0,0,0.1,0.1,0.2,0.1c0.1,0,0.1,0,0.2-0.1s0.1-0.2,0.1-0.3
				s0-0.2-0.1-0.2s-0.1-0.1-0.2-0.1c0,0-0.1,0-0.2,0v-0.3c0.1,0,0.2,0,0.2-0.1c0,0,0.1-0.1,0.1-0.2c0-0.1,0-0.1,0-0.2l-0.1-0.1
				c0,0-0.1,0-0.2,0.1c0,0-0.1,0.1-0.1,0.2l-0.3-0.1c0-0.1,0-0.2,0.1-0.3c0-0.1,0.1-0.1,0.2-0.2s0.2-0.1,0.3-0.1
				c0.2,0,0.3,0.1,0.4,0.2c0.1,0.1,0.1,0.2,0.1,0.4s-0.1,0.3-0.2,0.5c0.1,0,0.2,0.1,0.2,0.2c0.1,0.1,0.1,0.2,0.1,0.3
				c0,0.2-0.1,0.3-0.2,0.5c-0.1,0.1-0.2,0.2-0.4,0.2s-0.3-0.1-0.4-0.2C856.5,357.9,856.4,357.7,856.4,357.5"/>
			<path class="st9" d="M858.6,358.1h-0.3v-1.6c-0.1,0.1-0.3,0.2-0.4,0.3v-0.4c0.1,0,0.2-0.1,0.3-0.2c0.1-0.1,0.2-0.2,0.2-0.3h0.3
				L858.6,358.1L858.6,358.1z"/>
			<path class="st4" d="M878.4,351.2c2.2,0,3.9-1.8,3.9-3.9s-1.8-3.9-3.9-3.9s-3.9,1.8-3.9,3.9S876.2,351.2,878.4,351.2"/>
			<path class="st9" d="M877.1,347.5v-0.7l-0.4,0.7H877.1z M877.1,348.3v-0.4h-0.7v-0.4l0.8-1.4h0.3v1.4h0.2v0.4h-0.2v0.4H877.1
				L877.1,348.3z"/>
			<path class="st9" d="M877.8,347.7h0.3c0,0.1,0,0.2,0.1,0.2c0,0,0.1,0.1,0.2,0.1c0.1,0,0.1,0,0.2-0.1s0.1-0.2,0.1-0.3
				s0-0.2-0.1-0.2s-0.1-0.1-0.2-0.1c0,0-0.1,0-0.2,0V347c0.1,0,0.2,0,0.2-0.1c0,0,0.1-0.1,0.1-0.2c0-0.1,0-0.1,0-0.2l-0.1-0.1
				c0,0-0.1,0-0.2,0.1c0,0-0.1,0.1-0.1,0.2l-0.3-0.1c0-0.1,0-0.2,0.1-0.3c0-0.1,0.1-0.1,0.2-0.2s0.2-0.1,0.3-0.1
				c0.2,0,0.3,0.1,0.4,0.2c0.1,0.1,0.1,0.2,0.1,0.4s-0.1,0.3-0.2,0.5c0.1,0,0.2,0.1,0.2,0.2c0.1,0.1,0.1,0.2,0.1,0.3
				c0,0.2-0.1,0.3-0.2,0.5s-0.2,0.2-0.4,0.2s-0.3-0.1-0.4-0.2C877.9,348,877.8,347.9,877.8,347.7"/>
			<path class="st9" d="M879.7,346.5L879.7,346.5c-0.1,0-0.2,0.1-0.2,0.2c0,0.1,0,0.3,0,0.5s0,0.4,0,0.5s0,0.2,0.1,0.2s0.1,0,0.1,0
				h0.1c0,0,0.1-0.1,0.1-0.2c0-0.1,0-0.3,0-0.5s0-0.4,0-0.5S879.9,346.5,879.7,346.5C879.7,346.5,879.8,346.5,879.7,346.5
				 M879.7,346.1c0.2,0,0.3,0.1,0.4,0.2c0.1,0.2,0.2,0.5,0.2,0.9s-0.1,0.7-0.2,0.9c-0.1,0.2-0.2,0.2-0.4,0.2s-0.3-0.1-0.4-0.2
				s-0.2-0.5-0.2-0.9s0.1-0.7,0.2-0.9C879.4,346.2,879.5,346.1,879.7,346.1"/>
			<path class="st4" d="M836.4,361.1c2.2,0,3.9-1.8,3.9-3.9s-1.8-3.9-3.9-3.9s-3.9,1.8-3.9,3.9S834.2,361.1,836.4,361.1"/>
			<path class="st9" d="M834.5,357.3v-0.7l-0.4,0.7H834.5z M834.5,358.1v-0.4h-0.7v-0.4l0.8-1.4h0.3v1.4h0.2v0.4h-0.2v0.4H834.5
				L834.5,358.1z"/>
			<path class="st9" d="M835.2,357.5h0.3c0,0.1,0,0.2,0.1,0.2c0,0,0.1,0.1,0.2,0.1c0.1,0,0.1,0,0.2-0.1s0.1-0.2,0.1-0.3
				s0-0.2-0.1-0.2s-0.1-0.1-0.2-0.1c0,0-0.1,0-0.2,0v-0.3c0.1,0,0.2,0,0.2-0.1c0,0,0.1-0.1,0.1-0.2c0-0.1,0-0.1,0-0.2l-0.1-0.1
				c0,0-0.1,0-0.2,0.1c0,0-0.1,0.1-0.1,0.2l-0.3-0.1c0-0.1,0-0.2,0.1-0.3c0-0.1,0.1-0.1,0.2-0.2s0.2-0.1,0.3-0.1
				c0.2,0,0.3,0.1,0.4,0.2c0.1,0.1,0.1,0.2,0.1,0.4s-0.1,0.3-0.2,0.5c0.1,0,0.2,0.1,0.2,0.2c0.1,0.1,0.1,0.2,0.1,0.3
				c0,0.2-0.1,0.3-0.2,0.5s-0.2,0.2-0.4,0.2s-0.3-0.1-0.4-0.2C835.3,357.9,835.2,357.7,835.2,357.5"/>
			<path class="st9" d="M837.7,357.7v0.4h-1.2c0-0.2,0-0.3,0.1-0.4c0.1-0.1,0.2-0.3,0.4-0.5s0.2-0.3,0.3-0.3c0-0.1,0.1-0.2,0.1-0.2
				c0-0.1,0-0.2-0.1-0.2c0,0-0.1-0.1-0.2-0.1s-0.1,0-0.2,0.1s-0.1,0.1-0.1,0.3h-0.3c0-0.2,0.1-0.4,0.2-0.5s0.2-0.2,0.4-0.2
				s0.3,0.1,0.4,0.2s0.2,0.3,0.2,0.4c0,0.1,0,0.2,0,0.3s-0.1,0.2-0.1,0.3s-0.1,0.2-0.2,0.3c-0.1,0.1-0.2,0.2-0.2,0.2s0,0.1-0.1,0.1
				L837.7,357.7L837.7,357.7z"/>
			<path class="st6" d="M297.1,316.8c2.2,0,3.9-1.8,3.9-3.9s-1.8-3.9-3.9-3.9s-3.9,1.8-3.9,3.9S294.9,316.8,297.1,316.8"/>
			<path class="st9" d="M295.8,313v-0.7l-0.4,0.7H295.8z M295.8,313.8v-0.4h-0.7V313l0.8-1.4h0.3v1.4h0.2v0.4h-0.2v0.4H295.8
				L295.8,313.8z"/>
			<path class="st9" d="M297.1,312H297c0,0-0.1,0.1-0.1,0.2s0,0.3,0,0.5s0,0.4,0,0.5s0,0.2,0.1,0.2s0.1,0,0.1,0h0.1
				c0,0,0.1-0.1,0.1-0.2s0-0.3,0-0.5s0-0.4,0-0.5s0-0.2-0.1-0.2S297.1,312,297.1,312 M297.1,311.6c0.2,0,0.3,0.1,0.4,0.2
				c0.1,0.2,0.2,0.5,0.2,0.9s-0.1,0.7-0.2,0.9c-0.1,0.1-0.2,0.2-0.4,0.2s-0.3-0.1-0.4-0.2s-0.2-0.5-0.2-0.9s0.1-0.7,0.2-0.9
				C296.8,311.7,296.9,311.6,297.1,311.6"/>
			<path class="st9" d="M297.9,313.2h0.3c0,0.1,0,0.2,0.1,0.2c0,0,0.1,0.1,0.2,0.1s0.1,0,0.2-0.1c0-0.1,0.1-0.2,0.1-0.3
				c0-0.1,0-0.2-0.1-0.3c0-0.1-0.1-0.1-0.2-0.1s-0.2,0-0.3,0.2h-0.3l0.2-1.1h0.9v0.4h-0.6v0.4c0.1,0,0.1-0.1,0.2-0.1
				s0.3,0.1,0.4,0.2s0.2,0.3,0.2,0.5s0,0.3-0.1,0.5s-0.3,0.3-0.5,0.3s-0.3,0-0.4-0.2C297.9,313.6,297.9,313.4,297.9,313.2"/>
			<path class="st6" d="M361.6,316.8c2.2,0,3.9-1.8,3.9-3.9s-1.8-3.9-3.9-3.9s-3.9,1.8-3.9,3.9S359.5,316.8,361.6,316.8"/>
			<path class="st9" d="M360.4,313v-0.7L360,313H360.4z M360.4,313.8v-0.4h-0.7V313l0.8-1.4h0.3v1.4h0.2v0.4h-0.2v0.4H360.4
				L360.4,313.8z"/>
			<path class="st9" d="M361.6,312h-0.1c0,0-0.1,0.1-0.1,0.2s0,0.3,0,0.5s0,0.4,0,0.5s0,0.2,0.1,0.2s0.1,0,0.1,0h0.1
				c0,0,0.1-0.1,0.1-0.2s0-0.3,0-0.5s0-0.4,0-0.5s0-0.2-0.1-0.2S361.6,312,361.6,312 M361.6,311.6c0.2,0,0.3,0.1,0.4,0.2
				c0.1,0.2,0.2,0.5,0.2,0.9s-0.1,0.7-0.2,0.9c-0.1,0.1-0.2,0.2-0.4,0.2s-0.3-0.1-0.4-0.2s-0.2-0.5-0.2-0.9s0.1-0.7,0.2-0.9
				C361.3,311.7,361.4,311.6,361.6,311.6"/>
			<path class="st9" d="M362.8,313.1c0,0.1,0,0.2,0.1,0.3c0,0.1,0.1,0.1,0.2,0.1s0.1,0,0.2-0.1c0-0.1,0.1-0.2,0.1-0.3s0-0.2-0.1-0.3
				c0-0.1-0.1-0.1-0.2-0.1s-0.1,0-0.2,0.1S362.8,312.9,362.8,313.1 M363.5,312.1h-0.3c0-0.1,0-0.1-0.1-0.2l-0.1-0.1
				c-0.1,0-0.1,0-0.2,0.1s-0.1,0.2-0.1,0.5c0.1-0.1,0.2-0.2,0.3-0.2c0.1,0,0.3,0.1,0.4,0.2s0.1,0.3,0.1,0.5s0,0.4-0.2,0.5
				c-0.1,0.1-0.2,0.2-0.4,0.2c-0.2,0-0.3-0.1-0.4-0.2c-0.1-0.2-0.2-0.5-0.2-0.8s0.1-0.7,0.2-0.9c0.1-0.2,0.3-0.3,0.5-0.3
				c0.1,0,0.2,0,0.3,0.1C363.4,311.8,363.5,312,363.5,312.1"/>
			<path class="st6" d="M463.8,316.8c2.2,0,3.9-1.8,3.9-3.9s-1.8-3.9-3.9-3.9s-3.9,1.8-3.9,3.9S461.6,316.8,463.8,316.8"/>
			<path class="st9" d="M462.5,313v-0.7l-0.4,0.7H462.5z M462.5,313.8v-0.4h-0.7V313l0.8-1.4h0.3v1.4h0.2v0.4h-0.2v0.4H462.5
				L462.5,313.8z"/>
			<path class="st9" d="M463.7,312h-0.1c0,0-0.1,0.1-0.1,0.2s0,0.3,0,0.5s0,0.4,0,0.5s0,0.2,0.1,0.2s0.1,0,0.1,0h0.1
				c0,0,0.1-0.1,0.1-0.2s0-0.3,0-0.5s0-0.4,0-0.5s0-0.2-0.1-0.2S463.8,312,463.7,312 M463.7,311.6c0.2,0,0.3,0.1,0.4,0.2
				c0.1,0.2,0.2,0.5,0.2,0.9s-0.1,0.7-0.2,0.9c-0.1,0.1-0.2,0.2-0.4,0.2s-0.3-0.1-0.4-0.2c-0.1-0.2-0.2-0.5-0.2-0.9s0.1-0.7,0.2-0.9
				C463.4,311.7,463.6,311.6,463.7,311.6"/>
			<path class="st9" d="M464.5,312v-0.4h1.1v0.3c-0.1,0.1-0.2,0.3-0.3,0.5c-0.1,0.2-0.2,0.4-0.2,0.7c0,0.2-0.1,0.5-0.1,0.6h-0.3
				c0-0.3,0.1-0.6,0.1-0.9c0.1-0.3,0.2-0.6,0.4-0.8L464.5,312L464.5,312z"/>
			<path class="st6" d="M486.9,316.8c2.2,0,3.9-1.8,3.9-3.9s-1.8-3.9-3.9-3.9s-3.9,1.8-3.9,3.9S484.7,316.8,486.9,316.8"/>
			<path class="st9" d="M485.6,313v-0.7l-0.4,0.7H485.6z M485.6,313.8v-0.4h-0.7V313l0.8-1.4h0.3v1.4h0.2v0.4H486v0.4H485.6
				L485.6,313.8z"/>
			<path class="st9" d="M486.8,312L486.8,312c-0.1,0-0.2,0.1-0.2,0.2s0,0.3,0,0.5s0,0.4,0,0.5s0,0.2,0.1,0.2s0.1,0,0.1,0h0.1
				c0,0,0.1-0.1,0.1-0.2s0-0.3,0-0.5s0-0.4,0-0.5S487,312,486.8,312C486.8,312,486.9,312,486.8,312 M486.8,311.6
				c0.2,0,0.3,0.1,0.4,0.2c0.1,0.2,0.2,0.5,0.2,0.9s-0.1,0.7-0.2,0.9c-0.1,0.1-0.2,0.2-0.4,0.2s-0.3-0.1-0.4-0.2s-0.2-0.5-0.2-0.9
				s0.1-0.7,0.2-0.9C486.5,311.7,486.7,311.6,486.8,311.6"/>
			<path class="st9" d="M488,313.1c0,0.1,0,0.2,0.1,0.3c0,0.1,0.1,0.1,0.2,0.1s0.1,0,0.2-0.1c0-0.1,0.1-0.1,0.1-0.3
				c0-0.1,0-0.2-0.1-0.2c0-0.1-0.1-0.1-0.2-0.1c-0.1,0-0.1,0-0.2,0.1C488,313,488,313.1,488,313.1 M488,312.2c0,0.1,0,0.1,0.1,0.2
				c0,0,0.1,0.1,0.2,0.1s0.1,0,0.2-0.1c0,0,0.1-0.1,0.1-0.2s0-0.1-0.1-0.2s-0.1-0.1-0.2-0.1c-0.1,0-0.1,0-0.2,0.1
				C488,312.1,488,312.1,488,312.2 M487.9,312.6c-0.1,0-0.2-0.1-0.2-0.2s-0.1-0.2-0.1-0.3c0-0.2,0-0.3,0.1-0.4s0.2-0.2,0.4-0.2
				s0.3,0,0.4,0.2c0.1,0.1,0.1,0.2,0.1,0.4c0,0.1,0,0.2-0.1,0.3s-0.1,0.1-0.2,0.2c0.1,0,0.2,0.1,0.2,0.2s0.1,0.2,0.1,0.3
				c0,0.2,0,0.4-0.2,0.5c-0.1,0.1-0.2,0.2-0.4,0.2s-0.3,0-0.4-0.1c-0.1-0.1-0.2-0.3-0.2-0.5c0-0.1,0-0.2,0.1-0.3
				C487.8,312.8,487.8,312.7,487.9,312.6"/>
			<path class="st6" d="M503.6,316.8c2.2,0,3.9-1.8,3.9-3.9s-1.8-3.9-3.9-3.9s-3.9,1.8-3.9,3.9S501.4,316.8,503.6,316.8"/>
			<path class="st9" d="M502.3,313v-0.7l-0.4,0.7H502.3z M502.3,313.8v-0.4h-0.7V313l0.8-1.4h0.3v1.4h0.2v0.4h-0.2v0.4H502.3
				L502.3,313.8z"/>
			<path class="st9" d="M503.6,312L503.6,312c-0.1,0-0.2,0.1-0.2,0.2s0,0.3,0,0.5s0,0.4,0,0.5s0,0.2,0.1,0.2s0.1,0,0.1,0h0.1
				c0,0,0.1-0.1,0.1-0.2s0-0.3,0-0.5s0-0.4,0-0.5S503.8,312,503.6,312C503.6,312,503.6,312,503.6,312 M503.6,311.6
				c0.2,0,0.3,0.1,0.4,0.2c0.1,0.2,0.2,0.5,0.2,0.9s-0.1,0.7-0.2,0.9c-0.1,0.1-0.2,0.2-0.4,0.2s-0.3-0.1-0.4-0.2s-0.2-0.5-0.2-0.9
				s0.1-0.7,0.2-0.9C503.3,311.7,503.4,311.6,503.6,311.6"/>
			<path class="st9" d="M505.1,312.4c0-0.1,0-0.2-0.1-0.3s-0.1-0.1-0.2-0.1s-0.1,0-0.2,0.1c0,0.1-0.1,0.2-0.1,0.3s0,0.2,0.1,0.3
				c0,0.1,0.1,0.1,0.2,0.1s0.1,0,0.2-0.1C505.1,312.6,505.1,312.5,505.1,312.4 M504.3,313.3h0.3c0,0.1,0,0.1,0.1,0.2l0.1,0.1
				c0.1,0,0.1,0,0.2-0.1c0-0.1,0.1-0.2,0.1-0.5c-0.1,0.1-0.2,0.2-0.3,0.2s-0.3-0.1-0.4-0.2s-0.2-0.3-0.2-0.5s0-0.4,0.2-0.5
				s0.2-0.2,0.4-0.2s0.3,0.1,0.4,0.2c0.1,0.2,0.2,0.5,0.2,0.8s-0.1,0.7-0.2,0.9c-0.1,0.2-0.3,0.3-0.5,0.3c-0.1,0-0.2,0-0.3-0.1
				C504.4,313.6,504.4,313.5,504.3,313.3"/>
			<path class="st6" d="M528.2,316.8c2.2,0,3.9-1.8,3.9-3.9s-1.8-3.9-3.9-3.9s-3.9,1.8-3.9,3.9S526,316.8,528.2,316.8"/>
			<path class="st9" d="M526.9,313v-0.7l-0.4,0.7H526.9z M526.9,313.8v-0.4h-0.7V313l0.8-1.4h0.3v1.4h0.2v0.4h-0.2v0.4H526.9
				L526.9,313.8z"/>
			<path class="st9" d="M528.5,313.8h-0.3v-1.6c-0.1,0.1-0.3,0.2-0.4,0.3v-0.4c0.1,0,0.2-0.1,0.3-0.2s0.2-0.2,0.2-0.4h0.3
				L528.5,313.8L528.5,313.8z"/>
			<path class="st9" d="M529.5,312L529.5,312c-0.1,0-0.2,0.1-0.2,0.2s0,0.3,0,0.5s0,0.4,0,0.5s0,0.2,0.1,0.2s0.1,0,0.1,0h0.1
				c0,0,0.1-0.1,0.1-0.2s0-0.3,0-0.5s0-0.4,0-0.5S529.7,312,529.5,312C529.5,312,529.6,312,529.5,312 M529.5,311.6
				c0.2,0,0.3,0.1,0.4,0.2c0.1,0.2,0.2,0.5,0.2,0.9s-0.1,0.7-0.2,0.9c-0.1,0.1-0.2,0.2-0.4,0.2s-0.3-0.1-0.4-0.2s-0.2-0.5-0.2-0.9
				s0.1-0.7,0.2-0.9C529.2,311.7,529.4,311.6,529.5,311.6"/>
			<path class="st8" d="M552.3,316.8c2.2,0,3.9-1.8,3.9-3.9s-1.8-3.9-3.9-3.9s-3.9,1.8-3.9,3.9S550.1,316.8,552.3,316.8"/>
			<path class="st9" d="M551,313v-0.7l-0.4,0.7H551z M551,313.8v-0.4h-0.7V313l0.8-1.4h0.3v1.4h0.2v0.4h-0.2v0.4H551L551,313.8z"/>
			<path class="st9" d="M552.6,313.8h-0.3v-1.6c-0.1,0.1-0.3,0.2-0.4,0.3v-0.4c0.1,0,0.2-0.1,0.3-0.2s0.2-0.2,0.2-0.4h0.3
				L552.6,313.8L552.6,313.8z"/>
			<path class="st9" d="M553.8,313.8h-0.3v-1.6c-0.1,0.1-0.3,0.2-0.4,0.3v-0.4c0.1,0,0.2-0.1,0.3-0.2s0.2-0.2,0.2-0.4h0.3
				L553.8,313.8L553.8,313.8z"/>
			<path class="st8" d="M591.4,316.8c2.2,0,3.9-1.8,3.9-3.9s-1.8-3.9-3.9-3.9s-3.9,1.8-3.9,3.9S589.2,316.8,591.4,316.8"/>
			<path class="st9" d="M590.1,313v-0.7l-0.4,0.7H590.1z M590.1,313.8v-0.4h-0.7V313l0.8-1.4h0.3v1.4h0.2v0.4h-0.2v0.4H590.1
				L590.1,313.8z"/>
			<path class="st9" d="M591.7,313.8h-0.3v-1.6c-0.1,0.1-0.3,0.2-0.4,0.3v-0.4c0.1,0,0.2-0.1,0.3-0.2s0.2-0.2,0.2-0.4h0.3
				L591.7,313.8L591.7,313.8z"/>
			<path class="st9" d="M593.3,313.4v0.4h-1.2c0-0.1,0-0.3,0.1-0.4s0.2-0.3,0.4-0.5s0.2-0.3,0.3-0.4c0-0.1,0.1-0.2,0.1-0.2
				c0-0.1,0-0.2-0.1-0.2s-0.1-0.1-0.2-0.1s-0.1,0-0.2,0.1s-0.1,0.1-0.1,0.3h-0.3c0-0.2,0.1-0.4,0.2-0.5c0.1-0.1,0.2-0.1,0.4-0.1
				s0.3,0.1,0.4,0.2s0.2,0.3,0.2,0.4s0,0.2,0,0.3c0,0.1-0.1,0.2-0.1,0.3c0,0.1-0.1,0.2-0.2,0.3s-0.2,0.2-0.2,0.2s0,0.1-0.1,0.1
				L593.3,313.4L593.3,313.4z"/>
			<path class="st4" d="M687.6,316.8c2.2,0,3.9-1.8,3.9-3.9s-1.8-3.9-3.9-3.9s-3.9,1.8-3.9,3.9S685.4,316.8,687.6,316.8"/>
			<path class="st9" d="M686.3,313v-0.7l-0.4,0.7H686.3z M686.3,313.8v-0.4h-0.7V313l0.8-1.4h0.3v1.4h0.2v0.4h-0.2v0.4H686.3
				L686.3,313.8z"/>
			<path class="st9" d="M687.8,313.8h-0.3v-1.6c-0.1,0.1-0.3,0.2-0.4,0.3v-0.4c0.1,0,0.2-0.1,0.3-0.2s0.2-0.2,0.2-0.4h0.3
				L687.8,313.8L687.8,313.8z"/>
			<path class="st9" d="M688.3,313.2h0.3c0,0.1,0,0.2,0.1,0.2c0,0,0.1,0.1,0.2,0.1c0.1,0,0.1,0,0.2-0.1s0.1-0.1,0.1-0.3
				c0-0.1,0-0.2-0.1-0.2s-0.1-0.1-0.2-0.1c0,0-0.1,0-0.2,0v-0.3c0.1,0,0.2,0,0.2-0.1c0,0,0.1-0.1,0.1-0.2s0-0.1,0-0.2l-0.1-0.1
				c0,0-0.1,0-0.2,0.1c0,0-0.1,0.1-0.1,0.2l-0.3-0.1c0-0.1,0-0.2,0.1-0.3c0-0.1,0.1-0.1,0.2-0.2s0.2-0.1,0.3-0.1
				c0.2,0,0.3,0.1,0.4,0.2c0.1,0.1,0.1,0.2,0.1,0.4c0,0.2-0.1,0.3-0.2,0.5c0.1,0,0.2,0.1,0.2,0.2s0.1,0.2,0.1,0.3
				c0,0.2-0.1,0.4-0.2,0.5c-0.1,0.1-0.2,0.2-0.4,0.2s-0.3-0.1-0.4-0.2C688.4,313.5,688.3,313.4,688.3,313.2"/>
			<path class="st4" d="M719.3,316.8c2.2,0,3.9-1.8,3.9-3.9s-1.8-3.9-3.9-3.9s-3.9,1.8-3.9,3.9S717.1,316.8,719.3,316.8"/>
			<path class="st9" d="M718,313v-0.7l-0.4,0.7H718z M718,313.8v-0.4h-0.7V313l0.8-1.4h0.3v1.4h0.2v0.4h-0.2v0.4H718L718,313.8z"/>
			<path class="st9" d="M719.5,313.8h-0.3v-1.6c-0.1,0.1-0.3,0.2-0.4,0.3v-0.4c0.1,0,0.2-0.1,0.3-0.2s0.2-0.2,0.2-0.4h0.3
				L719.5,313.8L719.5,313.8z"/>
			<path class="st9" d="M720.7,313v-0.7l-0.4,0.7H720.7z M720.7,313.8v-0.4H720V313l0.8-1.4h0.3v1.4h0.2v0.4H721v0.4H720.7
				L720.7,313.8z"/>
			<path class="st4" d="M758.7,316.8c2.2,0,3.9-1.8,3.9-3.9s-1.8-3.9-3.9-3.9s-3.9,1.8-3.9,3.9S756.5,316.8,758.7,316.8"/>
			<path class="st9" d="M757.4,313v-0.7L757,313H757.4z M757.4,313.8v-0.4h-0.7V313l0.8-1.4h0.3v1.4h0.2v0.4h-0.2v0.4H757.4
				L757.4,313.8z"/>
			<path class="st9" d="M758.9,313.8h-0.3v-1.6c-0.1,0.1-0.3,0.2-0.4,0.3v-0.4c0.1,0,0.2-0.1,0.3-0.2s0.2-0.2,0.2-0.4h0.3
				L758.9,313.8L758.9,313.8z"/>
			<path class="st9" d="M759.4,313.2h0.3c0,0.1,0,0.2,0.1,0.2c0,0,0.1,0.1,0.2,0.1c0.1,0,0.1,0,0.2-0.1c0-0.1,0.1-0.2,0.1-0.3
				c0-0.1,0-0.2-0.1-0.3c0-0.1-0.1-0.1-0.2-0.1c-0.1,0-0.2,0-0.3,0.2h-0.3l0.2-1.1h0.9v0.4h-0.6v0.4c0.1,0,0.2-0.1,0.2-0.1
				c0.2,0,0.3,0.1,0.4,0.2s0.2,0.3,0.2,0.5s0,0.3-0.1,0.5s-0.3,0.3-0.5,0.3s-0.3,0-0.4-0.2C759.5,313.6,759.4,313.4,759.4,313.2"/>
			<path class="st4" d="M805.8,316.8c2.2,0,3.9-1.8,3.9-3.9s-1.8-3.9-3.9-3.9s-3.9,1.8-3.9,3.9S803.6,316.8,805.8,316.8"/>
			<path class="st9" d="M804.5,313v-0.7l-0.4,0.7H804.5z M804.5,313.8v-0.4h-0.7V313l0.8-1.4h0.3v1.4h0.2v0.4h-0.2v0.4H804.5
				L804.5,313.8z"/>
			<path class="st9" d="M806,313.8h-0.3v-1.6c-0.1,0.1-0.3,0.2-0.4,0.3v-0.4c0.1,0,0.2-0.1,0.3-0.2s0.2-0.2,0.2-0.4h0.3L806,313.8
				L806,313.8z"/>
			<path class="st9" d="M806.9,313.1c0,0.1,0,0.2,0.1,0.3s0.1,0.1,0.2,0.1s0.1,0,0.2-0.1c0-0.1,0.1-0.2,0.1-0.3s0-0.2-0.1-0.3
				c0-0.1-0.1-0.1-0.2-0.1s-0.1,0-0.2,0.1S806.9,312.9,806.9,313.1 M807.7,312.1h-0.3c0-0.1,0-0.1-0.1-0.2l-0.1-0.1
				c-0.1,0-0.1,0-0.2,0.1s-0.1,0.2-0.1,0.5c0.1-0.1,0.2-0.2,0.3-0.2s0.3,0.1,0.4,0.2s0.2,0.3,0.2,0.5s0,0.4-0.2,0.5
				s-0.2,0.2-0.4,0.2s-0.3-0.1-0.4-0.2c-0.1-0.2-0.2-0.5-0.2-0.8s0.1-0.7,0.2-0.9c0.1-0.2,0.3-0.3,0.5-0.3c0.1,0,0.2,0,0.3,0.1
				C807.6,311.8,807.6,312,807.7,312.1"/>
			<path class="st6" d="M838.8,316.8c2.2,0,3.9-1.8,3.9-3.9s-1.8-3.9-3.9-3.9s-3.9,1.8-3.9,3.9S836.6,316.8,838.8,316.8"/>
			<path class="st9" d="M837.5,313v-0.7l-0.4,0.7H837.5z M837.5,313.8v-0.4h-0.7V313l0.8-1.4h0.3v1.4h0.2v0.4h-0.2v0.4H837.5
				L837.5,313.8z"/>
			<path class="st9" d="M838.8,312L838.8,312c-0.1,0-0.2,0.1-0.2,0.2s0,0.3,0,0.5s0,0.4,0,0.5s0,0.2,0.1,0.2s0.1,0,0.1,0h0.1
				c0,0,0.1-0.1,0.1-0.2s0-0.3,0-0.5s0-0.4,0-0.5S839,312,838.8,312C838.8,312,838.8,312,838.8,312 M838.8,311.6
				c0.2,0,0.3,0.1,0.4,0.2c0.1,0.2,0.2,0.5,0.2,0.9s-0.1,0.7-0.2,0.9c-0.1,0.1-0.2,0.2-0.4,0.2s-0.3-0.1-0.4-0.2s-0.2-0.5-0.2-0.9
				s0.1-0.7,0.2-0.9C838.5,311.7,838.6,311.6,838.8,311.6"/>
			<path class="st9" d="M839.5,313.2h0.3c0,0.1,0,0.2,0.1,0.2c0,0,0.1,0.1,0.2,0.1c0.1,0,0.1,0,0.2-0.1c0-0.1,0.1-0.2,0.1-0.3
				c0-0.1,0-0.2-0.1-0.3c0-0.1-0.1-0.1-0.2-0.1c-0.1,0-0.2,0-0.3,0.2h-0.3l0.2-1.1h0.9v0.4H840v0.4c0.1,0,0.2-0.1,0.2-0.1
				c0.2,0,0.3,0.1,0.4,0.2s0.2,0.3,0.2,0.5s0,0.3-0.1,0.5s-0.3,0.3-0.5,0.3s-0.3,0-0.4-0.2C839.6,313.6,839.5,313.4,839.5,313.2"/>
			<path class="st6" d="M860,293.6c2.2,0,3.9-1.8,3.9-3.9s-1.8-3.9-3.9-3.9s-3.9,1.8-3.9,3.9S857.8,293.6,860,293.6"/>
			<path class="st9" d="M858.7,289.9v-0.7l-0.4,0.7H858.7z M858.7,290.7v-0.4H858v-0.4l0.8-1.4h0.3v1.4h0.2v0.4H859v0.4H858.7
				L858.7,290.7z"/>
			<path class="st9" d="M860.2,290.7h-0.3v-1.6c-0.1,0.1-0.3,0.2-0.4,0.3V289c0.1,0,0.2-0.1,0.3-0.2s0.2-0.2,0.2-0.4h0.3
				L860.2,290.7L860.2,290.7z"/>
			<path class="st9" d="M860.7,288.9v-0.4h1.2v0.3c-0.1,0.1-0.2,0.3-0.3,0.5s-0.2,0.4-0.2,0.7c0,0.2-0.1,0.5-0.1,0.6H861
				c0-0.3,0.1-0.6,0.2-0.9c0.1-0.3,0.2-0.6,0.4-0.8L860.7,288.9L860.7,288.9z"/>
			<path class="st6" d="M886.4,259.8c2.2,0,3.9-1.8,3.9-3.9s-1.8-3.9-3.9-3.9s-3.9,1.8-3.9,3.9S884.2,259.8,886.4,259.8"/>
			<path class="st9" d="M885.1,256v-0.7l-0.4,0.7H885.1z M885.1,256.8v-0.4h-0.7V256l0.8-1.4h0.3v1.4h0.2v0.4h-0.2v0.4H885.1
				L885.1,256.8z"/>
			<path class="st9" d="M886.6,256.8h-0.3v-1.6c-0.1,0.1-0.3,0.2-0.4,0.3v-0.4c0.1,0,0.2-0.1,0.3-0.2s0.2-0.2,0.2-0.4h0.3
				L886.6,256.8L886.6,256.8z"/>
			<path class="st9" d="M887.5,256.2c0,0.1,0,0.2,0.1,0.3c0,0.1,0.1,0.1,0.2,0.1s0.1,0,0.2-0.1c0-0.1,0.1-0.1,0.1-0.3
				c0-0.1,0-0.2-0.1-0.2c0-0.1-0.1-0.1-0.2-0.1c-0.1,0-0.1,0-0.2,0.1C887.5,256,887.5,256.1,887.5,256.2 M887.5,255.2
				c0,0.1,0,0.1,0.1,0.2c0,0,0.1,0.1,0.2,0.1s0.1,0,0.2-0.1c0,0,0.1-0.1,0.1-0.2s0-0.1-0.1-0.2s-0.1-0.1-0.2-0.1
				c-0.1,0-0.1,0-0.2,0.1C887.5,255.1,887.5,255.2,887.5,255.2 M887.4,255.7c-0.1,0-0.2-0.1-0.2-0.2s-0.1-0.2-0.1-0.3
				c0-0.2,0-0.3,0.1-0.4s0.2-0.2,0.4-0.2s0.3,0,0.4,0.2c0.1,0.1,0.1,0.2,0.1,0.4c0,0.1,0,0.2-0.1,0.3s-0.1,0.1-0.2,0.2
				c0.1,0,0.2,0.1,0.2,0.2s0.1,0.2,0.1,0.3c0,0.2,0,0.4-0.2,0.5c-0.1,0.1-0.2,0.2-0.4,0.2s-0.3,0-0.4-0.1c-0.1-0.1-0.2-0.3-0.2-0.5
				c0-0.1,0-0.2,0.1-0.3S887.3,255.7,887.4,255.7"/>
			<path class="st6" d="M917.4,221.4c2.2,0,3.9-1.8,3.9-3.9s-1.8-3.9-3.9-3.9s-3.9,1.8-3.9,3.9S915.3,221.4,917.4,221.4"/>
			<path class="st9" d="M916.2,217.7V217l-0.4,0.7H916.2z M916.2,218.5v-0.4h-0.7v-0.4l0.8-1.4h0.3v1.4h0.2v0.4h-0.2v0.4H916.2
				L916.2,218.5z"/>
			<path class="st9" d="M917.7,218.5h-0.3v-1.6c-0.1,0.1-0.3,0.2-0.4,0.3v-0.4c0.1,0,0.2-0.1,0.3-0.2s0.2-0.2,0.2-0.4h0.3
				L917.7,218.5L917.7,218.5z"/>
			<path class="st9" d="M918.9,217.1c0-0.1,0-0.2-0.1-0.3s-0.1-0.1-0.2-0.1s-0.1,0-0.2,0.1c0,0.1-0.1,0.2-0.1,0.3s0,0.2,0.1,0.3
				c0,0.1,0.1,0.1,0.2,0.1s0.1,0,0.2-0.1S919,217.2,918.9,217.1 M918.2,218h0.3c0,0.1,0,0.1,0.1,0.2l0.1,0.1c0.1,0,0.1,0,0.2-0.1
				c0-0.1,0.1-0.2,0.1-0.5c-0.1,0.1-0.2,0.2-0.3,0.2s-0.3-0.1-0.4-0.2s-0.2-0.3-0.2-0.5s0-0.4,0.2-0.5s0.2-0.2,0.4-0.2
				s0.3,0.1,0.4,0.2c0.1,0.2,0.2,0.5,0.2,0.8s-0.1,0.7-0.2,0.9c-0.1,0.2-0.3,0.3-0.5,0.3c-0.1,0-0.2,0-0.3-0.1
				C918.3,218.3,918.2,218.2,918.2,218"/>
			<path class="st6" d="M946.3,183.3c2.2,0,3.9-1.8,3.9-3.9s-1.8-3.9-3.9-3.9s-3.9,1.8-3.9,3.9S944.1,183.3,946.3,183.3"/>
			<path class="st9" d="M945,179.6v-0.7l-0.4,0.7H945z M945,180.4V180h-0.7v-0.4l0.8-1.4h0.3v1.4h0.2v0.4h-0.2v0.4H945L945,180.4z"
				/>
			<path class="st9" d="M946.8,180v0.4h-1.2c0-0.1,0-0.3,0.1-0.4s0.2-0.3,0.4-0.5s0.2-0.3,0.3-0.4c0-0.1,0.1-0.2,0.1-0.2
				c0-0.1,0-0.2-0.1-0.2s-0.1-0.1-0.2-0.1s-0.1,0-0.2,0.1s-0.1,0.1-0.1,0.3h-0.3c0-0.2,0.1-0.4,0.2-0.5c0.1-0.1,0.2-0.1,0.4-0.1
				s0.3,0.1,0.4,0.2s0.2,0.3,0.2,0.4s0,0.2,0,0.3c0,0.1-0.1,0.2-0.1,0.3c0,0.1-0.1,0.2-0.2,0.3s-0.2,0.2-0.2,0.2s0,0.1-0.1,0.1
				L946.8,180L946.8,180z"/>
			<path class="st9" d="M947.6,178.5L947.6,178.5c-0.1,0-0.2,0.1-0.2,0.2s0,0.3,0,0.5s0,0.4,0,0.5s0,0.2,0.1,0.2s0.1,0,0.1,0h0.1
				c0,0,0.1-0.1,0.1-0.2s0-0.3,0-0.5s0-0.4,0-0.5S947.8,178.5,947.6,178.5C947.6,178.5,947.6,178.5,947.6,178.5 M947.6,178.2
				c0.2,0,0.3,0.1,0.4,0.2c0.1,0.2,0.2,0.5,0.2,0.9s-0.1,0.7-0.2,0.9c-0.1,0.1-0.2,0.2-0.4,0.2s-0.3-0.1-0.4-0.2s-0.2-0.5-0.2-0.9
				s0.1-0.7,0.2-0.9C947.3,178.3,947.4,178.2,947.6,178.2"/>
			<path class="st6" d="M970.1,151.8c2.2,0,3.9-1.8,3.9-3.9s-1.8-3.9-3.9-3.9s-3.9,1.8-3.9,3.9S967.9,151.8,970.1,151.8"/>
			<path class="st9" d="M968.8,148.1v-0.7l-0.4,0.7H968.8z M968.8,148.9v-0.4h-0.7v-0.4l0.8-1.4h0.3v1.4h0.2v0.4h-0.2v0.4H968.8
				L968.8,148.9z"/>
			<path class="st9" d="M970.6,148.5v0.4h-1.2c0-0.1,0-0.3,0.1-0.4s0.2-0.3,0.4-0.5s0.2-0.3,0.3-0.4c0-0.1,0.1-0.2,0.1-0.3
				s0-0.2-0.1-0.2s-0.1-0.1-0.2-0.1s-0.1,0-0.2,0.1s-0.1,0.1-0.1,0.3h-0.3c0-0.2,0.1-0.4,0.2-0.5c0.1-0.1,0.2-0.1,0.4-0.1
				s0.3,0.1,0.4,0.2s0.2,0.3,0.2,0.4s0,0.2,0,0.3c0,0.1-0.1,0.2-0.1,0.3c0,0.1-0.1,0.2-0.2,0.3s-0.2,0.2-0.2,0.2s0,0.1-0.1,0.1
				L970.6,148.5L970.6,148.5z"/>
			<path class="st9" d="M971.7,148.9h-0.3v-1.6c-0.1,0.1-0.3,0.2-0.4,0.3v-0.4c0.1,0,0.2-0.1,0.3-0.2s0.2-0.2,0.2-0.3h0.3
				L971.7,148.9L971.7,148.9z"/>
			<path class="st6" d="M1003.3,111.1c2.2,0,3.9-1.8,3.9-3.9s-1.8-3.9-3.9-3.9s-3.9,1.8-3.9,3.9S1001.1,111.1,1003.3,111.1"/>
			<path class="st9" d="M1002,107.4v-0.7l-0.4,0.7H1002z M1002,108.2v-0.4h-0.7v-0.4l0.8-1.4h0.3v1.4h0.2v0.4h-0.2v0.4H1002
				L1002,108.2z"/>
			<path class="st9" d="M1003.8,107.8v0.4h-1.2c0-0.1,0.1-0.3,0.1-0.4c0.1-0.1,0.2-0.3,0.4-0.5c0.2-0.2,0.2-0.3,0.3-0.4
				c0.1-0.1,0.1-0.2,0.1-0.3s0-0.2-0.1-0.2s-0.1-0.1-0.2-0.1s-0.1,0-0.2,0.1s-0.1,0.1-0.1,0.3h-0.3c0-0.2,0.1-0.4,0.2-0.5
				s0.2-0.1,0.4-0.1c0.2,0,0.3,0.1,0.4,0.2s0.2,0.3,0.2,0.4s0,0.2,0,0.3s-0.1,0.2-0.1,0.3c0,0.1-0.1,0.2-0.2,0.3s-0.2,0.2-0.2,0.2
				l-0.1,0.1L1003.8,107.8L1003.8,107.8z"/>
			<path class="st9" d="M1005.1,107.8v0.4h-1.2c0-0.1,0.1-0.3,0.1-0.4c0.1-0.1,0.2-0.3,0.4-0.5c0.2-0.2,0.2-0.3,0.3-0.4
				c0.1-0.1,0.1-0.2,0.1-0.3s0-0.2-0.1-0.2s-0.1-0.1-0.2-0.1s-0.1,0-0.2,0.1s-0.1,0.1-0.1,0.3h-0.3c0-0.2,0.1-0.4,0.2-0.5
				s0.2-0.1,0.4-0.1c0.2,0,0.3,0.1,0.4,0.2s0.2,0.3,0.2,0.4s0,0.2,0,0.3s-0.1,0.2-0.1,0.3c0,0.1-0.1,0.2-0.2,0.3s-0.2,0.2-0.2,0.2
				l-0.1,0.1L1005.1,107.8L1005.1,107.8z"/>
			<path class="st6" d="M1052.7,131.2c2.2,0,3.9-1.8,3.9-3.9s-1.8-3.9-3.9-3.9s-3.9,1.8-3.9,3.9S1050.6,131.2,1052.7,131.2"/>
			<path class="st9" d="M1050.6,127.5v-0.7l-0.4,0.7H1050.6z M1050.6,128.3v-0.4h-0.7v-0.4l0.8-1.4h0.3v1.4h0.2v0.4h-0.2v0.4H1050.6
				L1050.6,128.3z"/>
			<path class="st9" d="M1052.4,127.9v0.4h-1.2c0-0.1,0.1-0.3,0.1-0.4c0.1-0.1,0.2-0.3,0.4-0.5c0.2-0.2,0.2-0.3,0.3-0.4
				c0.1-0.1,0.1-0.2,0.1-0.3s0-0.2-0.1-0.2s-0.1-0.1-0.2-0.1s-0.1,0-0.2,0.1s-0.1,0.1-0.1,0.3h-0.3c0-0.2,0.1-0.4,0.2-0.5
				s0.2-0.1,0.4-0.1c0.2,0,0.3,0.1,0.4,0.2s0.2,0.3,0.2,0.4s0,0.2,0,0.3s-0.1,0.2-0.1,0.3c0,0.1-0.1,0.2-0.2,0.3s-0.2,0.2-0.2,0.2
				l-0.1,0.1L1052.4,127.9L1052.4,127.9z"/>
			<path class="st9" d="M1052.6,127.7h0.3c0,0.1,0,0.2,0.1,0.2s0.1,0.1,0.2,0.1s0.1,0,0.2-0.1s0.1-0.1,0.1-0.3c0-0.1,0-0.2-0.1-0.2
				c-0.1-0.1-0.1-0.1-0.2-0.1c0,0-0.1,0-0.2,0V127c0.1,0,0.2,0,0.2-0.1c0.1,0,0.1-0.1,0.1-0.2s0-0.1-0.1-0.2l-0.1-0.1
				c0,0-0.1,0-0.2,0.1c0,0-0.1,0.1-0.1,0.2l-0.3-0.1c0-0.1,0.1-0.2,0.1-0.3c0-0.1,0.1-0.1,0.2-0.2c0.1,0,0.2-0.1,0.3-0.1
				c0.2,0,0.3,0.1,0.4,0.2s0.1,0.2,0.1,0.4c0,0.2-0.1,0.3-0.2,0.5c0.1,0,0.2,0.1,0.2,0.2c0.1,0.1,0.1,0.2,0.1,0.3
				c0,0.2-0.1,0.4-0.2,0.5s-0.2,0.2-0.4,0.2c-0.2,0-0.3-0.1-0.4-0.2C1052.7,128,1052.6,127.9,1052.6,127.7"/>
			<path class="st9" d="M1054.9,127.4l-0.2-0.8l-0.2,0.8H1054.9z M1055.6,128.3h-0.4l-0.2-0.5h-0.7l-0.2,0.5h-0.4l0.7-2.2h0.4
				L1055.6,128.3z"/>
			<path class="st6" d="M1067.7,110.3c2.2,0,3.9-1.8,3.9-3.9s-1.8-3.9-3.9-3.9s-3.9,1.8-3.9,3.9S1065.6,110.3,1067.7,110.3"/>
			<path class="st4" d="M1037.8,83.3c2.2,0,3.9-1.8,3.9-3.9s-1.8-3.9-3.9-3.9s-3.9,1.8-3.9,3.9S1035.6,83.3,1037.8,83.3"/>
			<path class="st9" d="M1066.5,106.5v-0.7l-0.4,0.7H1066.5z M1066.5,107.3v-0.4h-0.7v-0.4l0.8-1.4h0.3v1.4h0.2v0.4h-0.2v0.4H1066.5
				L1066.5,107.3z"/>
			<path class="st9" d="M1068.3,106.9v0.4h-1.2c0-0.1,0.1-0.3,0.1-0.4c0.1-0.1,0.2-0.3,0.4-0.5c0.2-0.2,0.2-0.3,0.3-0.4
				c0.1-0.1,0.1-0.2,0.1-0.3s0-0.2-0.1-0.2s-0.1-0.1-0.2-0.1s-0.1,0-0.2,0.1s-0.1,0.1-0.1,0.3h-0.3c0-0.2,0.1-0.4,0.2-0.5
				s0.2-0.1,0.4-0.1c0.2,0,0.3,0.1,0.4,0.2s0.2,0.3,0.2,0.4s0,0.2,0,0.3s-0.1,0.2-0.1,0.3c0,0.1-0.1,0.2-0.2,0.3s-0.2,0.2-0.2,0.2
				l-0.1,0.1L1068.3,106.9L1068.3,106.9z"/>
			<path class="st9" d="M1068.5,106.8h0.3c0,0.1,0,0.2,0.1,0.2s0.1,0.1,0.2,0.1s0.1,0,0.2-0.1s0.1-0.1,0.1-0.3c0-0.1,0-0.2-0.1-0.2
				c-0.1-0.1-0.1-0.1-0.2-0.1c0,0-0.1,0-0.2,0v-0.3c0.1,0,0.2,0,0.2-0.1c0.1,0,0.1-0.1,0.1-0.2s0-0.1-0.1-0.2l-0.1-0.1
				c0,0-0.1,0-0.2,0.1c0,0-0.1,0.1-0.1,0.2l-0.3-0.1c0-0.1,0.1-0.2,0.1-0.3c0-0.1,0.1-0.1,0.2-0.2c0.1,0,0.2-0.1,0.3-0.1
				c0.2,0,0.3,0.1,0.4,0.2s0.1,0.2,0.1,0.4c0,0.2-0.1,0.3-0.2,0.5c0.1,0,0.2,0.1,0.2,0.2c0.1,0.1,0.1,0.2,0.1,0.3
				c0,0.2-0.1,0.4-0.2,0.5s-0.2,0.2-0.4,0.2c-0.2,0-0.3-0.1-0.4-0.2C1068.5,107.1,1068.5,106.9,1068.5,106.8"/>
			<path class="st9" d="M1035.9,79.5v-0.7l-0.4,0.7H1035.9z M1035.9,80.3v-0.4h-0.7v-0.4l0.8-1.4h0.3v1.4h0.2v0.4h-0.2v0.4H1035.9
				L1035.9,80.3z"/>
			<path class="st9" d="M1037.7,79.9v0.4h-1.2c0-0.1,0.1-0.3,0.1-0.4c0.1-0.1,0.2-0.3,0.4-0.5c0.2-0.2,0.2-0.3,0.3-0.4
				c0.1-0.1,0.1-0.2,0.1-0.3s0-0.2-0.1-0.2s-0.1-0.1-0.2-0.1s-0.1,0-0.2,0.1s-0.1,0.1-0.1,0.3h-0.3c0-0.2,0.1-0.4,0.2-0.5
				s0.2-0.1,0.4-0.1c0.2,0,0.3,0.1,0.4,0.2s0.2,0.3,0.2,0.4s0,0.2,0,0.3s-0.1,0.2-0.1,0.3c0,0.1-0.1,0.2-0.2,0.3s-0.2,0.2-0.2,0.2
				l-0.1,0.1L1037.7,79.9L1037.7,79.9z"/>
			<path class="st9" d="M1039.1,79.9v0.4h-1.2c0-0.1,0.1-0.3,0.1-0.4c0.1-0.1,0.2-0.3,0.4-0.5c0.2-0.2,0.2-0.3,0.3-0.4
				c0.1-0.1,0.1-0.2,0.1-0.3s0-0.2-0.1-0.2s-0.1-0.1-0.2-0.1s-0.1,0-0.2,0.1s-0.1,0.1-0.1,0.3h-0.3c0-0.2,0.1-0.4,0.2-0.5
				s0.2-0.1,0.4-0.1c0.2,0,0.3,0.1,0.4,0.2s0.2,0.3,0.2,0.4s0,0.2,0,0.3s-0.1,0.2-0.1,0.3c0,0.1-0.1,0.2-0.2,0.3s-0.2,0.2-0.2,0.2
				l-0.1,0.1L1039.1,79.9L1039.1,79.9z"/>
			<path class="st9" d="M1040.3,79.5l-0.2-0.8l-0.2,0.8H1040.3z M1040.9,80.3h-0.4l-0.2-0.5h-0.7l-0.2,0.5h-0.4l0.7-2.2h0.4
				L1040.9,80.3z"/>
			<path class="st8" d="M946.7,263.6c2.2,0,3.9-1.8,3.9-3.9s-1.8-3.9-3.9-3.9s-3.9,1.8-3.9,3.9S944.5,263.6,946.7,263.6"/>
			<path class="st9" d="M945.3,259.9v-0.7l-0.4,0.7H945.3z M945.3,260.7v-0.4h-0.7v-0.4l0.8-1.4h0.3v1.4h0.2v0.4h-0.2v0.4H945.3
				L945.3,260.7z"/>
			<path class="st9" d="M947.1,260.3v0.4H946c0-0.1,0-0.3,0.1-0.4s0.2-0.3,0.4-0.5s0.2-0.3,0.3-0.4c0-0.1,0.1-0.2,0.1-0.2
				c0-0.1,0-0.2-0.1-0.2s-0.1-0.1-0.2-0.1s-0.1,0-0.2,0.1s-0.1,0.1-0.1,0.3H946c0-0.2,0.1-0.4,0.2-0.5c0.1-0.1,0.2-0.1,0.4-0.1
				s0.3,0.1,0.4,0.2s0.2,0.3,0.2,0.4s0,0.2,0,0.3c0,0.1-0.1,0.2-0.1,0.3c0,0.1-0.1,0.2-0.2,0.3s-0.2,0.2-0.2,0.2s0,0.1-0.1,0.1
				L947.1,260.3L947.1,260.3z"/>
			<path class="st9" d="M948.1,259.3c0-0.1,0-0.2-0.1-0.3s-0.1-0.1-0.2-0.1s-0.1,0-0.2,0.1c0,0.1-0.1,0.2-0.1,0.3s0,0.2,0.1,0.3
				c0,0.1,0.1,0.1,0.2,0.1s0.1,0,0.2-0.1S948.1,259.4,948.1,259.3 M947.4,260.2h0.3c0,0.1,0,0.1,0.1,0.2l0.1,0.1
				c0.1,0,0.1,0,0.2-0.1c0-0.1,0.1-0.2,0.1-0.5c-0.1,0.1-0.2,0.2-0.3,0.2s-0.3-0.1-0.4-0.2s-0.2-0.3-0.2-0.5s0-0.4,0.2-0.5
				s0.2-0.2,0.4-0.2s0.3,0.1,0.4,0.2c0.1,0.2,0.2,0.5,0.2,0.8s-0.1,0.7-0.2,0.9c-0.1,0.2-0.3,0.3-0.5,0.3c-0.1,0-0.2,0-0.3-0.1
				C947.5,260.5,947.4,260.4,947.4,260.2"/>
			<path class="st8" d="M958.1,250.6c2.2,0,3.9-1.8,3.9-3.9s-1.8-3.9-3.9-3.9s-3.9,1.8-3.9,3.9S956,250.6,958.1,250.6"/>
			<path class="st9" d="M956.8,246.8v-0.7l-0.4,0.7H956.8z M956.8,247.6v-0.4h-0.7v-0.4l0.8-1.4h0.3v1.4h0.2v0.4h-0.2v0.4H956.8
				L956.8,247.6z"/>
			<path class="st9" d="M958.7,247.2v0.4h-1.2c0-0.1,0-0.3,0.1-0.4s0.2-0.3,0.4-0.5s0.2-0.3,0.3-0.4c0-0.1,0.1-0.2,0.1-0.2
				c0-0.1,0-0.2-0.1-0.2s-0.1-0.1-0.2-0.1s-0.1,0-0.2,0.1s-0.1,0.1-0.1,0.3h-0.3c0-0.2,0.1-0.4,0.2-0.5c0.1-0.1,0.2-0.1,0.4-0.1
				s0.3,0.1,0.4,0.2s0.2,0.3,0.2,0.4s0,0.2,0,0.3c0,0.1-0.1,0.2-0.1,0.3c0,0.1-0.1,0.2-0.2,0.3s-0.2,0.2-0.2,0.2s0,0.1-0.1,0.1
				L958.7,247.2L958.7,247.2z"/>
			<path class="st9" d="M959.2,247c0,0.1,0,0.2,0.1,0.3c0,0.1,0.1,0.1,0.2,0.1s0.1,0,0.2-0.1c0-0.1,0.1-0.1,0.1-0.3
				c0-0.1,0-0.2-0.1-0.2c0-0.1-0.1-0.1-0.2-0.1s-0.1,0-0.2,0.1C959.2,246.8,959.2,246.9,959.2,247 M959.2,246c0,0.1,0,0.1,0.1,0.2
				c0,0,0.1,0.1,0.2,0.1s0.1,0,0.2-0.1c0,0,0.1-0.1,0.1-0.2s0-0.1-0.1-0.2s-0.1-0.1-0.2-0.1c-0.1,0-0.1,0-0.2,0.1
				C959.3,245.9,959.2,246,959.2,246 M959.2,246.5c-0.1,0-0.2-0.1-0.2-0.2s-0.1-0.2-0.1-0.3c0-0.2,0-0.3,0.1-0.4s0.2-0.2,0.4-0.2
				s0.3,0,0.4,0.2c0.1,0.1,0.1,0.2,0.1,0.4c0,0.1,0,0.2-0.1,0.3s-0.1,0.1-0.2,0.2c0.1,0,0.2,0.1,0.2,0.2s0.1,0.2,0.1,0.3
				c0,0.2,0,0.4-0.2,0.5c-0.1,0.1-0.2,0.2-0.4,0.2s-0.3,0-0.4-0.1c-0.1-0.1-0.2-0.3-0.2-0.5c0-0.1,0-0.2,0.1-0.3
				C959,246.6,959.1,246.5,959.2,246.5"/>
			<path class="st4" d="M967.1,238.1c2.2,0,3.9-1.8,3.9-3.9s-1.8-3.9-3.9-3.9s-3.9,1.8-3.9,3.9S964.9,238.1,967.1,238.1"/>
			<path class="st9" d="M965.8,234.4v-0.7l-0.4,0.7H965.8z M965.8,235.2v-0.4h-0.7v-0.4l0.8-1.4h0.3v1.4h0.2v0.4h-0.2v0.4H965.8
				L965.8,235.2z"/>
			<path class="st9" d="M967.6,234.8v0.4h-1.2c0-0.1,0-0.3,0.1-0.4s0.2-0.3,0.4-0.5s0.2-0.3,0.3-0.4c0-0.1,0.1-0.2,0.1-0.2
				c0-0.1,0-0.2-0.1-0.2s-0.1-0.1-0.2-0.1s-0.1,0-0.2,0.1s-0.1,0.1-0.1,0.3h-0.3c0-0.2,0.1-0.4,0.2-0.5c0.1-0.1,0.2-0.1,0.4-0.1
				s0.3,0.1,0.4,0.2s0.2,0.3,0.2,0.4s0,0.2,0,0.3c0,0.1-0.1,0.2-0.1,0.3c0,0.1-0.1,0.2-0.2,0.3s-0.2,0.2-0.2,0.2s0,0.1-0.1,0.1
				L967.6,234.8L967.6,234.8z"/>
			<path class="st9" d="M967.8,233.4V233h1.2v0.3c-0.1,0.1-0.2,0.3-0.3,0.5s-0.2,0.4-0.2,0.7c0,0.2-0.1,0.5-0.1,0.6h-0.3
				c0-0.3,0.1-0.6,0.2-0.9c0.1-0.3,0.2-0.6,0.4-0.8L967.8,233.4L967.8,233.4z"/>
			<path class="st4" d="M976.9,225.7c2.2,0,3.9-1.8,3.9-3.9s-1.8-3.9-3.9-3.9s-3.9,1.8-3.9,3.9S974.7,225.7,976.9,225.7"/>
			<path class="st9" d="M975.7,222.2v-0.7l-0.4,0.7H975.7z M975.7,223v-0.4H975v-0.4l0.8-1.4h0.3v1.4h0.2v0.4h-0.2v0.4H975.7
				L975.7,223z"/>
			<path class="st9" d="M977.5,222.6v0.4h-1.2c0-0.1,0-0.3,0.1-0.4s0.2-0.3,0.4-0.5s0.2-0.3,0.3-0.4c0-0.1,0.1-0.2,0.1-0.2
				c0-0.1,0-0.2-0.1-0.2s-0.1-0.1-0.2-0.1s-0.1,0-0.2,0.1s-0.1,0.1-0.1,0.3h-0.3c0-0.2,0.1-0.4,0.2-0.5c0.1-0.1,0.2-0.1,0.4-0.1
				s0.3,0.1,0.4,0.2s0.2,0.3,0.2,0.4s0,0.2,0,0.3c0,0.1-0.1,0.2-0.1,0.3c0,0.1-0.1,0.2-0.2,0.3s-0.2,0.2-0.2,0.2s0,0.1-0.1,0.1
				L977.5,222.6L977.5,222.6z"/>
			<path class="st9" d="M978.1,222.3c0,0.1,0,0.2,0.1,0.3s0.1,0.1,0.2,0.1s0.1,0,0.2-0.1c0-0.1,0.1-0.2,0.1-0.3s0-0.2-0.1-0.3
				c0-0.1-0.1-0.1-0.2-0.1s-0.1,0-0.2,0.1S978.1,222.1,978.1,222.3 M978.8,221.3h-0.3c0-0.1,0-0.1-0.1-0.2l-0.1-0.1
				c-0.1,0-0.1,0-0.2,0.1s-0.1,0.2-0.1,0.5c0.1-0.1,0.2-0.2,0.3-0.2s0.3,0.1,0.4,0.2s0.2,0.3,0.2,0.5s0,0.4-0.2,0.5
				s-0.2,0.2-0.4,0.2s-0.3-0.1-0.4-0.2c-0.1-0.2-0.2-0.5-0.2-0.8s0.1-0.7,0.2-0.9c0.1-0.2,0.3-0.3,0.5-0.3c0.1,0,0.2,0,0.3,0.1
				C978.7,221,978.8,221.2,978.8,221.3"/>
			<path class="st6" d="M988.9,210.3c2.2,0,3.9-1.8,3.9-3.9s-1.8-3.9-3.9-3.9s-3.9,1.8-3.9,3.9S986.7,210.3,988.9,210.3"/>
			<path class="st6" d="M1009.6,184c2.2,0,3.9-1.8,3.9-3.9s-1.8-3.9-3.9-3.9s-3.9,1.8-3.9,3.9S1007.4,184,1009.6,184"/>
			<path class="st9" d="M987.6,206.6v-0.7l-0.4,0.7H987.6z M987.6,207.4V207h-0.7v-0.4l0.8-1.4h0.3v1.4h0.2v0.4H988v0.4H987.6
				L987.6,207.4z"/>
			<path class="st9" d="M989.4,207v0.4h-1.2c0-0.1,0-0.3,0.1-0.4s0.2-0.3,0.4-0.5s0.2-0.3,0.3-0.4c0-0.1,0.1-0.2,0.1-0.2
				c0-0.1,0-0.2-0.1-0.2s-0.1-0.1-0.2-0.1s-0.1,0-0.2,0.1s-0.1,0.1-0.1,0.3h-0.3c0-0.2,0.1-0.4,0.2-0.5c0.1-0.1,0.2-0.1,0.4-0.1
				s0.3,0.1,0.4,0.2s0.2,0.3,0.2,0.4s0,0.2,0,0.3c0,0.1-0.1,0.2-0.1,0.3c0,0.1-0.1,0.2-0.2,0.3s-0.2,0.2-0.2,0.2s0,0.1-0.1,0.1
				L989.4,207L989.4,207z"/>
			<path class="st9" d="M989.7,206.8h0.3c0,0.1,0,0.2,0.1,0.2c0,0,0.1,0.1,0.2,0.1c0.1,0,0.1,0,0.2-0.1c0-0.1,0.1-0.2,0.1-0.3
				c0-0.1,0-0.2-0.1-0.3c0-0.1-0.1-0.1-0.2-0.1c-0.1,0-0.2,0-0.3,0.2h-0.3l0.2-1.1h0.9v0.4h-0.6v0.4c0.1,0,0.2-0.1,0.2-0.1
				c0.2,0,0.3,0.1,0.4,0.2s0.2,0.3,0.2,0.5s0,0.3-0.1,0.5s-0.3,0.3-0.5,0.3s-0.3,0-0.4-0.2C989.7,207.2,989.7,207,989.7,206.8"/>
			<path class="st9" d="M1008.3,180.2v-0.7l-0.4,0.7H1008.3z M1008.3,181v-0.4h-0.7v-0.4l0.8-1.4h0.3v1.4h0.2v0.4h-0.2v0.4H1008.3
				L1008.3,181z"/>
			<path class="st9" d="M1010.1,180.6v0.4h-1.2c0-0.1,0.1-0.3,0.1-0.4c0.1-0.1,0.2-0.3,0.4-0.5c0.2-0.2,0.2-0.3,0.3-0.4
				c0.1-0.1,0.1-0.2,0.1-0.2c0-0.1,0-0.2-0.1-0.2s-0.1-0.1-0.2-0.1s-0.1,0-0.2,0.1s-0.1,0.1-0.1,0.3h-0.3c0-0.2,0.1-0.4,0.2-0.5
				s0.2-0.1,0.4-0.1c0.2,0,0.3,0.1,0.4,0.2s0.2,0.3,0.2,0.4s0,0.2,0,0.3s-0.1,0.2-0.1,0.3c0,0.1-0.1,0.2-0.2,0.3s-0.2,0.2-0.2,0.2
				l-0.1,0.1L1010.1,180.6L1010.1,180.6z"/>
			<path class="st9" d="M1011,180.2v-0.7l-0.4,0.7H1011z M1011,181v-0.4h-0.7v-0.4l0.8-1.4h0.3v1.4h0.2v0.4h-0.2v0.4H1011L1011,181z
				"/>
			<path class="st4" d="M111.9,313.5c2.2,0,3.9-1.8,3.9-3.9s-1.8-3.9-3.9-3.9s-3.9,1.8-3.9,3.9S109.7,313.5,111.9,313.5"/>
			<path class="st9" d="M110.6,309.8V309l-0.4,0.7L110.6,309.8L110.6,309.8z M110.6,310.6v-0.4h-0.7v-0.4l0.8-1.4h0.3v1.4h0.2v0.4
				H111v0.4H110.6L110.6,310.6z"/>
			<path class="st9" d="M111.8,308.8h-0.1c0,0-0.1,0.1-0.1,0.2s0,0.3,0,0.5s0,0.4,0,0.5s0.1,0.2,0.1,0.2h0.1h0.1
				c0,0,0.1-0.1,0.1-0.2s0-0.3,0-0.5s0-0.4,0-0.5s-0.1-0.2-0.1-0.2S111.9,308.8,111.8,308.8 M111.8,308.4c0.2,0,0.3,0.1,0.4,0.2
				c0.1,0.2,0.2,0.5,0.2,0.9s-0.1,0.7-0.2,0.9c-0.1,0.1-0.2,0.2-0.4,0.2s-0.3-0.1-0.4-0.2s-0.2-0.5-0.2-0.9s0.1-0.7,0.2-0.9
				C111.5,308.5,111.6,308.4,111.8,308.4"/>
			<path class="st9" d="M113.7,310.2v0.4h-1.2c0-0.1,0.1-0.3,0.1-0.4c0.1-0.1,0.2-0.3,0.4-0.5c0.1-0.2,0.2-0.3,0.3-0.4
				s0.1-0.2,0.1-0.2c0-0.1,0-0.2-0.1-0.2s-0.1-0.1-0.2-0.1s-0.1,0-0.2,0.1s-0.1,0.1-0.1,0.3h-0.3c0-0.2,0.1-0.4,0.2-0.5
				c0.1-0.1,0.2-0.1,0.4-0.1s0.3,0.1,0.4,0.2s0.1,0.3,0.1,0.4s0,0.2,0,0.3s-0.1,0.2-0.1,0.3c0,0.1-0.1,0.2-0.2,0.3s-0.2,0.2-0.2,0.2
				l-0.1,0.1L113.7,310.2L113.7,310.2z"/>
			<path class="st4" d="M147,312.9c2.2,0,3.9-1.8,3.9-3.9s-1.8-3.9-3.9-3.9s-3.9,1.8-3.9,3.9S144.8,312.9,147,312.9"/>
			<path class="st9" d="M145.7,309.1v-0.7l-0.4,0.7H145.7z M145.7,309.9v-0.4H145v-0.4l0.8-1.4h0.3v1.4h0.2v0.4H146v0.4H145.7
				L145.7,309.9z"/>
			<path class="st9" d="M146.9,308.1h-0.1c0,0-0.1,0.1-0.1,0.2s0,0.3,0,0.5s0,0.4,0,0.5s0.1,0.2,0.1,0.2h0.1h0.1
				c0,0,0.1-0.1,0.1-0.2s0-0.3,0-0.5s0-0.4,0-0.5s-0.1-0.2-0.1-0.2S147,308.1,146.9,308.1 M146.9,307.8c0.2,0,0.3,0.1,0.4,0.2
				c0.1,0.2,0.2,0.5,0.2,0.9s-0.1,0.7-0.2,0.9c-0.1,0.1-0.2,0.2-0.4,0.2s-0.3-0.1-0.4-0.2c-0.1-0.2-0.2-0.5-0.2-0.9s0.1-0.7,0.2-0.9
				C146.6,307.9,146.8,307.8,146.9,307.8"/>
			<path class="st9" d="M147.7,309.4h0.3c0,0.1,0,0.2,0.1,0.2c0,0,0.1,0.1,0.2,0.1c0.1,0,0.1,0,0.2-0.1s0.1-0.1,0.1-0.3
				c0-0.1,0-0.2-0.1-0.2s-0.1-0.1-0.2-0.1h-0.1v-0.3c0.1,0,0.2,0,0.2-0.1c0.1,0,0.1-0.1,0.1-0.2s0-0.1-0.1-0.2l-0.1-0.1
				c0,0-0.1,0-0.1,0.1c0,0-0.1,0.1-0.1,0.2l-0.3-0.1c0-0.1,0.1-0.2,0.1-0.3c0-0.1,0.1-0.1,0.2-0.2c0.1,0,0.2-0.1,0.3-0.1
				c0.2,0,0.3,0.1,0.4,0.2c0.1,0.1,0.1,0.2,0.1,0.4c0,0.2-0.1,0.3-0.2,0.5c0.1,0,0.2,0.1,0.2,0.2c0.1,0.1,0.1,0.2,0.1,0.3
				c0,0.2-0.1,0.4-0.2,0.5s-0.2,0.2-0.4,0.2s-0.3-0.1-0.4-0.2C147.8,309.7,147.7,309.5,147.7,309.4"/>
			<path class="st4" d="M185.5,313.8c2.2,0,3.9-1.8,3.9-3.9s-1.8-3.9-3.9-3.9s-3.9,1.8-3.9,3.9S183.3,313.8,185.5,313.8"/>
			<path class="st9" d="M184.2,310v-0.7l-0.4,0.7H184.2z M184.2,310.8v-0.4h-0.7V310l0.8-1.4h0.3v1.4h0.2v0.4h-0.2v0.4H184.2
				L184.2,310.8z"/>
			<path class="st9" d="M185.5,309h-0.1c0,0-0.1,0.1-0.1,0.2s0,0.3,0,0.5s0,0.4,0,0.5s0.1,0.2,0.1,0.2h0.1h0.1c0,0,0.1-0.1,0.1-0.2
				s0-0.3,0-0.5s0-0.4,0-0.5s-0.1-0.2-0.1-0.2H185.5 M185.5,308.6c0.2,0,0.3,0.1,0.4,0.2c0.1,0.2,0.2,0.5,0.2,0.9s-0.1,0.7-0.2,0.9
				c-0.1,0.1-0.2,0.2-0.4,0.2s-0.3-0.1-0.4-0.2s-0.2-0.5-0.2-0.9s0.1-0.7,0.2-0.9C185.2,308.7,185.3,308.6,185.5,308.6"/>
			<path class="st9" d="M186.9,310v-0.7l-0.4,0.7H186.9z M186.9,310.8v-0.4h-0.7V310l0.8-1.4h0.3v1.4h0.2v0.4h-0.2v0.4H186.9
				L186.9,310.8z"/>
			<path class="st4" d="M82.5,313.3c2.2,0,3.9-1.8,3.9-3.9s-1.8-3.9-3.9-3.9s-3.9,1.8-3.9,3.9S80.3,313.3,82.5,313.3"/>
			<path class="st9" d="M81.2,309.5v-0.7l-0.4,0.7H81.2z M81.2,310.3v-0.4h-0.7v-0.4l0.8-1.4h0.3v1.4h0.2v0.4h-0.2v0.4H81.2
				L81.2,310.3z"/>
			<path class="st9" d="M82.5,308.5L82.5,308.5c-0.1,0-0.2,0.1-0.2,0.2s0,0.3,0,0.5s0,0.4,0,0.5s0.1,0.2,0.1,0.2h0.1h0.1
				c0,0,0.1-0.1,0.1-0.2s0-0.3,0-0.5s0-0.4,0-0.5S82.6,308.5,82.5,308.5L82.5,308.5 M82.5,308.1c0.2,0,0.3,0.1,0.4,0.2
				c0.1,0.2,0.2,0.5,0.2,0.9s-0.1,0.7-0.2,0.9c-0.1,0.1-0.2,0.2-0.4,0.2s-0.3-0.1-0.4-0.2c-0.1-0.2-0.2-0.5-0.2-0.9s0.1-0.7,0.2-0.9
				C82.2,308.2,82.3,308.2,82.5,308.1"/>
			<path class="st9" d="M84.1,310.3h-0.3v-1.6c-0.1,0.1-0.3,0.2-0.4,0.3v-0.4c0.1,0,0.2-0.1,0.3-0.2c0.1-0.1,0.2-0.2,0.2-0.4h0.3
				L84.1,310.3L84.1,310.3z"/>
			<path class="st10" d="M272.9,300.9c1.9,0,3.4,1.5,3.4,3.4s-1.5,3.4-3.4,3.4s-3.4-1.5-3.4-3.4S271,300.9,272.9,300.9"/>
			<path class="st10" d="M398,319c1.9,0,3.4,1.5,3.4,3.4s-1.5,3.4-3.4,3.4s-3.4-1.5-3.4-3.4S396.1,319,398,319"/>
			<path class="st11" d="M273,303.7c-0.1,0-0.1,0.1-0.1,0.2l-0.4,0.8c0,0.1-0.1,0.1-0.1,0.2c-0.1,0.1-0.1,0.3-0.2,0.4
				c0,0.1-0.3,0.5-0.3,0.6s0,0.2,0.1,0.2s0.5,0,0.6,0h1.5c0.1,0,0.2,0,0.2-0.1s0-0.2,0-0.2c0-0.1-0.1-0.1-0.1-0.2l-0.8-1.5
				c0-0.1-0.1-0.2-0.2-0.3C273,303.7,273,303.7,273,303.7"/>
			<path class="st11" d="M398.1,324.2c0.1,0,0.1-0.1,0.1-0.2l0.4-0.8c0-0.1,0.1-0.1,0.1-0.2c0.1-0.1,0.1-0.3,0.2-0.4
				c0-0.1,0.3-0.5,0.3-0.6s0-0.2-0.1-0.2s-0.5,0-0.6,0H397c-0.1,0-0.2,0-0.2,0.1s0,0.2,0,0.2c0,0.1,0.1,0.1,0.1,0.2l0.8,1.5
				c0,0.1,0.1,0.2,0.2,0.3C398,324.2,398,324.2,398.1,324.2"/>
			<path class="st11" d="M272.9,302.1c-0.4,0-0.7,0.4-0.6,0.8c0,0.4,0.4,0.7,0.8,0.6c0.4,0,0.7-0.4,0.6-0.8
				C273.7,302.4,273.3,302.1,272.9,302.1"/>
			<path class="st11" d="M397.9,320.3c-0.4,0-0.7,0.4-0.6,0.8c0,0.4,0.4,0.7,0.8,0.6c0.4,0,0.7-0.4,0.6-0.8
				C398.7,320.5,398.4,320.2,397.9,320.3"/>
			<path class="st10" d="M622.1,318c1.9,0,3.4,1.5,3.4,3.4s-1.5,3.4-3.4,3.4s-3.4-1.5-3.4-3.4S620.2,318,622.1,318"/>
			<path class="st11" d="M622.2,323.2c0.1,0,0.1-0.1,0.1-0.2l0.4-0.8c0-0.1,0.1-0.1,0.1-0.2c0.1-0.1,0.1-0.3,0.2-0.4
				c0-0.1,0.3-0.5,0.3-0.6s0-0.2-0.1-0.2s-0.5,0-0.6,0h-1.5c-0.1,0-0.2,0-0.2,0.1s0,0.2,0,0.2c0,0.1,0.1,0.1,0.1,0.2l0.8,1.5
				c0,0.1,0.1,0.2,0.2,0.3C622.1,323.2,622.2,323.2,622.2,323.2"/>
			<path class="st11" d="M622.1,319.3c-0.4,0-0.7,0.4-0.6,0.8c0,0.4,0.4,0.7,0.8,0.6c0.4,0,0.7-0.4,0.6-0.8
				C622.8,319.5,622.5,319.2,622.1,319.3"/>
			<path class="st10" d="M932.3,284.1c1.9,0,3.4,1.5,3.4,3.4s-1.5,3.4-3.4,3.4s-3.4-1.5-3.4-3.4S930.4,284.1,932.3,284.1"/>
			<path class="st11" d="M932.3,287c-0.1,0-0.1,0.1-0.1,0.2l-0.4,0.8c0,0.1-0.1,0.1-0.1,0.2c-0.1,0.1-0.1,0.3-0.2,0.4
				c0,0.1-0.3,0.5-0.3,0.6s0,0.2,0.1,0.2s0.5,0,0.6,0h1.5c0.1,0,0.2,0,0.2-0.1s0-0.2,0-0.2c0-0.1-0.1-0.1-0.1-0.2l-0.8-1.5
				c0-0.1-0.1-0.2-0.2-0.3C932.4,287,932.3,287,932.3,287"/>
			<path class="st11" d="M932.2,285.4c-0.4,0-0.7,0.4-0.6,0.8c0,0.4,0.4,0.7,0.8,0.6c0.4,0,0.7-0.4,0.6-0.8
				C933,285.7,932.6,285.4,932.2,285.4"/>
			<path class="st12" d="M1027.4,158.6c2,0,3.6,1.6,3.6,3.6s-1.6,3.6-3.6,3.6s-3.6-1.6-3.6-3.6S1025.4,158.6,1027.4,158.6"/>
			<path class="st11" d="M1026.3,159.8c-0.2,0.1-0.4,0.3-0.3,0.6c0.1,0.6,1,0.4,0.9-0.2C1026.8,160,1026.6,159.8,1026.3,159.8
				 M1025.8,161.9v0.4h1.1v-0.5c0.1,0.1,0.4,0.6,0.4,0.7l-0.7,0.7c-0.1,0.1,0,0.6,0,0.7c0,0.2,0,0.5,0,0.7h0.4v-1
				c0-0.1,0.1-0.1,0.2-0.2l0.6-0.5v1h1.4v-0.4h-0.8c0-0.1,0-1.2,0-1.2c0-0.1-0.8-1.1-0.8-1.2h0.5c0.1,0,0.1,0,0.2,0.1l0.4,0.5
				c0.1,0,0.3-0.2,0.3-0.3l-0.5-0.6c-0.1-0.1-0.1-0.1-0.2-0.2c-0.3,0-0.7,0-1,0c-0.1,0-0.6,0.4-0.7,0.5c-0.1,0-0.1,0-0.1,0.2
				s0,0.3,0,0.5c0,0.1,0,0.2-0.1,0.2s-0.2,0-0.2,0c-0.1,0-0.2,0-0.2,0C1025.8,161.9,1025.8,161.8,1025.8,161.9"/>
			<path class="st12" d="M658.3,309.7c2,0,3.6,1.6,3.6,3.6s-1.6,3.6-3.6,3.6s-3.6-1.6-3.6-3.6S656.3,309.7,658.3,309.7"/>
			<path class="st11" d="M657.2,311c-0.2,0.1-0.4,0.3-0.3,0.6c0.1,0.6,1,0.4,0.9-0.2C657.7,311.1,657.5,310.9,657.2,311
				 M656.6,313.1v0.4h1.1V313c0.1,0.1,0.4,0.6,0.4,0.7l-0.7,0.7c-0.1,0.1,0,0.6,0,0.7c0,0.2,0,0.5,0,0.7h0.4v-1
				c0-0.1,0.1-0.1,0.2-0.2l0.6-0.5v1h1.4v-0.4h-0.8c0-0.1,0-1.2,0-1.2c0-0.1-0.8-1.1-0.8-1.2h0.5c0.1,0,0.1,0,0.2,0.1l0.4,0.5
				c0.1,0,0.3-0.2,0.3-0.3l-0.5-0.6c0-0.1-0.1-0.1-0.2-0.2c-0.3,0-0.7,0-1,0c-0.1,0-0.6,0.4-0.7,0.5c-0.1,0-0.1,0-0.1,0.2
				s0,0.3,0,0.5c0,0.1,0,0.2-0.1,0.2s-0.2,0-0.2,0c-0.1,0-0.2,0-0.2,0C656.7,313,656.6,313,656.6,313.1"/>
			<line class="st13" x1="1053.4" y1="89.1" x2="1059.7" y2="94"/>
		</g>
	</g>
</g>
</svg>
