<?xml version="1.0" encoding="utf-8"?>
<!-- Generator: Adobe Illustrator 28.0.0, SVG Export Plug-In . SVG Version: 6.00 Build 0)  -->
<svg version="1.1" id="_Слой_1" xmlns="http://www.w3.org/2000/svg" xmlns:xlink="http://www.w3.org/1999/xlink" x="0px"
	 y="0px" viewBox="0 0 1190.6 841.9" style="enable-background:new 0 0 1190.6 841.9;" xml:space="preserve">
<style type="text/css">
	.st0{fill:none;stroke:#8F589E;stroke-width:1.54;stroke-miterlimit:22.93;}
	.st1{fill:#201600;}
	.st2{clip-path:url(#SVGID_00000054231914071799499310000014516806242696805054_);}
	.st3{fill:#93CFF7;}
	.st4{fill:#8F589E;}
	.st5{fill:#6AC0F3;}
	.st6{fill:#3EB5F1;}
	.st7{fill:#72AE5F;}
	.st8{fill:#7775B4;}
	.st9{fill:#FFFFFF;}
	.st10{fill-rule:evenodd;clip-rule:evenodd;fill:#72AE5F;}
	.st11{fill-rule:evenodd;clip-rule:evenodd;fill:#FFFFFF;}
	.st12{fill-rule:evenodd;clip-rule:evenodd;fill:#52AC62;}
	.st13{fill-rule:evenodd;clip-rule:evenodd;fill:#5C91C5;}
	.st14{fill:none;stroke:#201600;stroke-width:1.23;stroke-miterlimit:22.93;}
</style>
<polyline class="st0" points="1060.5,274.6 1044.8,263 1065.5,236.5 1086.7,253.1 1066.7,279.3 1065.1,278 "/>
<path class="st1" d="M103.5,508.7v-2.6H80.2v2.6h1.6v33.8h38.3v12.1l0,0v2.6l0,0l2.6,0l0,0l774.1,0v-2.6H122.7v-14.7H84.3v-31.2
	L103.5,508.7L103.5,508.7z M854.7,471.4H87.3V502H90v-28h764.8V471.4z"/>
<g>
	<defs>
		<rect id="SVGID_1_" width="1190.6" height="841.9"/>
	</defs>
	<clipPath id="SVGID_00000082328136090109639840000004563956342059526843_">
		<use xlink:href="#SVGID_1_"  style="overflow:visible;"/>
	</clipPath>
	<g style="clip-path:url(#SVGID_00000082328136090109639840000004563956342059526843_);">
		<path class="st1" d="M41.3,557L41.3,557l3.3,0.1c25.2,0,50.3,0,75.5,0h0.1v-2.6H43.4v0.1h0.1V474h43.8v-2.6H41.2v85.8h0.1
			L41.3,557L41.3,557l0.1-85.6h-0.1v0.1h46v-0.1h-0.1v2.4h0.1v-0.1H43.4v81H120v-0.1H120v2.4h0.1v-0.1c-25.2,0-50.3,0-75.5,0
			L41.3,557L41.3,557h0.1H41.3L41.3,557z"/>
		<rect x="851.5" y="471.4" class="st1" width="9.8" height="2.6"/>
		<rect x="894.8" y="554.6" class="st1" width="7.8" height="2.6"/>
		<polygon class="st1" points="937.8,462.8 918.9,487.1 921,488.7 938.3,466.4 958.6,482.3 960.2,480.2 938.5,463.3 938.5,463.3 		
			"/>
		<polygon class="st1" points="1035.2,337.4 1035.2,337.4 1035.2,337.4 1057.5,354.8 1059.1,352.7 1038.8,336.9 1058.3,311.9 
			1056.2,310.3 		"/>
		<path class="st1" d="M1114.5,280.5l-214,275.1l2.1,1.6l214-275.1h0l1.6-2.1l-24.1-18.8l-1.6,2.1L1114.5,280.5L1114.5,280.5z
			 M1064.4,229.3L1064.4,229.3l-1.6,2.1l0,0l-21.3,27.4l-10-7.8l-0.7,0.9l0,0L859.2,472.4l2.1,1.6L1032,254.6l10,7.8l1.2-1.5l0,0
			l21.7-27.9l26.1,20.3l-11.6,14.8l2.1,1.6l15.7-20.2l-2.1-1.6l-2.5,3.2l-26.1-20.3l0,0L1064.4,229.3L1064.4,229.3L1064.4,229.3z"/>
		<polygon class="st3" points="856.2,475 854.7,475 854.7,476.5 856.2,476.5 856.2,508.6 854.7,508.6 854.7,475 		"/>
		<polygon class="st4" points="123.9,475 90.9,475 90.9,501.1 111.8,501.1 111.8,499.6 92.3,499.6 92.3,476.5 122.5,476.5 
			122.5,499.6 119.5,499.6 119.5,501.1 123.9,501.1 		"/>
		<polygon class="st4" points="156.2,475 124.9,475 124.9,501.1 143.8,501.1 143.8,499.6 126.4,499.6 126.4,476.5 154.7,476.5 
			154.7,499.6 150.8,499.6 150.8,501.1 156.2,501.1 		"/>
		<polygon class="st4" points="187.6,475 157.5,475 157.5,501.1 177.1,501.1 177.1,499.6 159,499.6 159,476.5 186.1,476.5 
			186.1,499.6 182.3,499.6 182.3,501.1 187.6,501.1 		"/>
		<path class="st4" d="M177.1,519.8h-40.8v1.5h40.8V519.8z M187.6,519.8h-5.3v1.5h3.8v30.9h-60.7v-30.9h3.9v-1.5h-5.4v33.9h63.7
			L187.6,519.8L187.6,519.8z"/>
		<rect x="856.2" y="475" class="st3" width="5" height="1.5"/>
		<rect x="854.7" y="475" class="st5" width="1.5" height="1.5"/>
		<polygon class="st4" points="877.7,521.3 880.4,521.3 907.9,542.1 900.1,552.2 872,552.2 872,521.3 874.5,521.3 874.5,519.8 
			870.5,519.8 870.5,553.7 900.8,553.7 900.8,553.7 900.8,553.7 909.1,543 909.1,543 909.5,542.5 910,541.8 910,541.8 910,541.8 
			909.9,541.7 908.9,540.9 908.8,540.9 881,519.9 881,519.8 877.7,519.8 		"/>
		<polygon class="st6" points="235.3,519.8 200.1,519.8 200.1,521.3 233.8,521.3 233.8,552.2 190,552.2 190,521.3 193.2,521.3 
			193.2,519.8 188.5,519.8 188.5,553.7 235.3,553.7 		"/>
		<polygon class="st6" points="282.5,519.8 246.2,519.8 246.2,521.3 281,521.3 281,552.2 238.1,552.2 238.1,521.3 239.5,521.3 
			239.5,519.8 236.6,519.8 236.6,553.7 282.5,553.7 		"/>
		<polygon class="st6" points="346.1,519.8 326.1,519.8 326.1,521.3 344.6,521.3 344.6,552.2 317.3,552.2 317.3,521.3 319.9,521.3 
			319.9,519.8 315.8,519.8 315.8,553.7 346.1,553.7 		"/>
		<polygon class="st6" points="314.7,519.8 309.1,519.8 309.1,521.3 313.2,521.3 313.2,552.2 284.9,552.2 284.9,521.3 303.3,521.3 
			303.3,519.8 283.4,519.8 283.4,553.7 314.7,553.7 		"/>
		<polygon class="st6" points="330.6,475 315.8,475 315.8,508.6 319.9,508.6 319.9,507.1 317.3,507.1 317.3,476.5 329.1,476.5 
			329.1,507.1 326.1,507.1 326.1,508.6 330.6,508.6 		"/>
		<polygon class="st7" points="442.1,475 411.3,475 411.3,508.6 419.4,508.6 419.4,507.1 412.8,507.1 412.8,495.1 416.2,495.1 
			416.2,493.6 412.8,493.6 412.8,476.5 440.6,476.5 440.6,493.6 423.7,493.6 423.7,483.2 422.2,483.2 422.2,495.1 440.6,495.1 
			440.6,507.1 426.9,507.1 426.9,508.6 442.1,508.6 		"/>
		<polygon class="st7" points="666.2,475 635.4,475 635.4,508.6 643.5,508.6 643.5,507.1 636.9,507.1 636.9,495.1 640.3,495.1 
			640.3,493.6 636.9,493.6 636.9,476.5 664.7,476.5 664.7,493.6 647.8,493.6 647.8,483.2 646.3,483.2 646.3,495.1 664.7,495.1 
			664.7,507.1 651,507.1 651,508.6 666.2,508.6 		"/>
		<polygon class="st6" points="425.4,519.8 420.8,519.8 420.8,521.3 423.9,521.3 423.9,552.2 412.8,552.2 412.8,521.3 415.4,521.3 
			415.4,519.8 411.3,519.8 411.3,553.7 425.4,553.7 		"/>
		<polygon class="st8" points="520.9,519.8 517.2,519.8 517.2,521.3 519.5,521.3 519.5,552.2 507.5,552.2 507.5,521.3 510.4,521.3 
			510.4,519.8 506,519.8 506,553.7 520.9,553.7 		"/>
		<polygon class="st4" points="869.9,519.8 866.1,519.8 866.1,521.3 868.5,521.3 868.5,552.2 856.2,552.2 856.2,521.3 859.1,521.3 
			859.1,519.8 854.7,519.8 854.7,553.7 869.9,553.7 		"/>
		<polygon class="st8" points="537.4,519.8 532.3,519.8 532.3,521.3 535.9,521.3 535.9,552.2 523.3,552.2 523.3,521.3 525.9,521.3 
			525.9,519.8 521.8,519.8 521.8,553.7 537.4,553.7 		"/>
		<polygon class="st6" points="537.4,475 521.8,475 521.8,508.6 525.9,508.6 525.9,507.1 523.3,507.1 523.3,476.5 535.9,476.5 
			535.9,507.1 532.3,507.1 532.3,508.6 537.4,508.6 		"/>
		<path class="st8" d="M581.2,507.1v1.5h34.5v-1.5h-12.1v-2.5h-1.5v2.5h-15.7v-2.5H585v2.5H581.2z M634,475h-65v33.6h5.3v-1.5h-3.9
			v-30.6H585v22.7h1.5v-22.7h15.7v22.7h1.5v-22.7h28.9v30.6h-9.2v1.5H634L634,475L634,475z"/>
		<polygon class="st6" points="520.9,475 506,475 506,508.6 510.4,508.6 510.4,507.1 507.5,507.1 507.5,476.5 519.5,476.5 
			519.5,507.1 517.2,507.1 517.2,508.6 520.9,508.6 		"/>
		<polygon class="st6" points="410,475 331.9,475 331.9,508.6 396.7,508.6 396.7,507.1 364.3,507.1 364.3,501.8 362.8,501.8 
			362.8,507.1 347.5,507.1 347.5,495.9 362.8,495.9 362.8,497.2 364.3,497.2 364.3,495.9 364.3,495.9 364.3,494.4 364.3,494.4 
			364.3,484.1 362.8,484.1 362.8,494.4 347.5,494.4 347.5,486.3 346.1,486.3 346.1,507.1 333.4,507.1 333.4,476.5 346.1,476.5 
			346.1,479.5 347.5,479.5 347.5,476.5 362.8,476.5 362.8,479.5 364.3,479.5 364.3,476.5 408.5,476.5 408.5,507.1 403.1,507.1 
			403.1,508.6 410,508.6 		"/>
		<polygon class="st6" points="378.3,519.8 357.6,519.8 357.6,521.3 376.8,521.3 376.8,552.2 348.6,552.2 348.6,521.3 352.4,521.3 
			352.4,519.8 347.1,519.8 347.1,553.7 378.3,553.7 		"/>
		<polygon class="st6" points="410,519.8 391.1,519.8 391.1,521.3 408.5,521.3 408.5,552.2 381,552.2 381,521.3 384.9,521.3 
			384.9,519.8 379.5,519.8 379.5,553.7 410,553.7 		"/>
		<polygon class="st6" points="457.1,519.8 436.7,519.8 436.7,521.3 455.6,521.3 455.6,552.2 428.1,552.2 428.1,521.3 430.6,521.3 
			430.6,519.8 426.6,519.8 426.6,553.7 457.1,553.7 		"/>
		<polygon class="st6" points="504.9,519.8 470,519.8 470,521.3 503.4,521.3 503.4,552.2 459.8,552.2 459.8,521.3 463.5,521.3 
			463.5,519.8 458.3,519.8 458.3,553.7 504.9,553.7 		"/>
		<polygon class="st6" points="504.9,475 475.3,475 475.3,508.6 480.6,508.6 480.6,507.1 476.8,507.1 476.8,476.5 503.4,476.5 
			503.4,507.1 486.7,507.1 486.7,508.6 504.9,508.6 		"/>
		<polygon class="st6" points="568.2,475 538.6,475 538.6,508.6 553.9,508.6 553.9,507.1 540.1,507.1 540.1,476.5 566.7,476.5 
			566.7,507.1 561.2,507.1 561.2,508.6 568.2,508.6 		"/>
		<polygon class="st6" points="568.2,519.8 549.9,519.8 549.9,521.3 566.7,521.3 566.7,552.2 540.1,552.2 540.1,521.3 543.4,521.3 
			543.4,519.8 538.6,519.8 538.6,553.7 568.2,553.7 		"/>
		<polygon class="st6" points="665,519.8 647.1,519.8 647.1,521.3 663.5,521.3 663.5,552.2 636.9,552.2 636.9,521.3 640.2,521.3 
			640.2,519.8 635.4,519.8 635.4,553.7 665,553.7 		"/>
		<polygon class="st6" points="698.8,519.8 677.3,519.8 677.3,521.3 697.3,521.3 697.3,552.2 667.5,552.2 667.5,521.3 671.2,521.3 
			671.2,519.8 666,519.8 666,553.7 698.8,553.7 		"/>
		<polygon class="st4" points="730.2,475 699.9,475 699.9,508.6 703.6,508.6 703.6,507.1 701.4,507.1 701.4,476.5 728.7,476.5 
			728.7,507.1 710.5,507.1 710.5,508.6 730.2,508.6 		"/>
		<polygon class="st4" points="761.5,475 731.3,475 731.3,508.6 748.3,508.6 748.3,507.1 732.8,507.1 732.8,476.5 760,476.5 
			760,507.1 754.2,507.1 754.2,508.6 761.5,508.6 		"/>
		<polygon class="st4" points="745.7,519.8 710.5,519.8 710.5,521.3 744.2,521.3 744.2,552.2 701.4,552.2 701.4,521.3 703.6,521.3 
			703.6,519.8 699.9,519.8 699.9,553.7 745.7,553.7 		"/>
		<polygon class="st4" points="791.8,519.8 757.5,519.8 757.5,521.3 790.3,521.3 790.3,552.2 748.4,552.2 748.4,521.3 750.6,521.3 
			750.6,519.8 746.9,519.8 746.9,553.7 791.8,553.7 		"/>
		<polygon class="st4" points="823.1,519.8 803.6,519.8 803.6,521.3 821.7,521.3 821.7,552.2 794.5,552.2 794.5,521.3 797.5,521.3 
			797.5,519.8 793,519.8 793,553.7 823.1,553.7 		"/>
		<polygon class="st4" points="853.7,519.8 834.4,519.8 834.4,521.3 852.2,521.3 852.2,552.2 825.5,552.2 825.5,521.3 828.6,521.3 
			828.6,519.8 824,519.8 824,553.7 853.7,553.7 		"/>
		<polygon class="st4" points="853.7,475 808.4,475 808.4,508.6 843.2,508.6 843.2,507.1 809.9,507.1 809.9,476.5 852.2,476.5 
			852.2,507.1 848.7,507.1 848.7,508.6 853.7,508.6 		"/>
		<polygon class="st4" points="807.1,475 762.5,475 762.5,508.6 780.5,508.6 780.5,507.1 764,507.1 764,476.5 805.6,476.5 
			805.6,507.1 787,507.1 787,508.6 807.1,508.6 		"/>
		<polygon class="st6" points="634,519.8 581.3,519.8 581.3,521.3 584.5,521.3 584.5,529.2 586,529.2 586,521.3 632.5,521.3 
			632.5,552.2 586,552.2 586,533.3 584.5,533.3 584.5,539.9 580.2,539.9 580.2,541.4 584.5,541.4 584.5,552.2 570.5,552.2 
			570.5,541.4 575.1,541.4 575.1,539.9 570.5,539.9 570.5,521.3 574.4,521.3 574.4,519.8 569,519.8 569,553.7 634,553.7 		"/>
		<polygon class="st4" points="220,475 188.5,475 188.5,501.1 206.9,501.1 206.9,499.6 204.8,499.6 204.8,493.8 203.3,493.8 
			203.3,499.6 190,499.6 190,476.5 203.3,476.5 203.3,489.2 204.8,489.2 204.8,476.5 218.5,476.5 218.5,499.6 213.7,499.6 
			213.7,501.1 220,501.1 		"/>
		<path class="st1" d="M1079.8,186.4L1079.8,186.4c-0.6,0.6-1,1.2-1.5,1.9l0,0l-0.1,0.1l0.1,0.1l-0.1-0.1
			c-4.6,6.1-9.1,12.2-13.7,18.3c-11,14.7-22,29.4-33,44.2l-0.1,0.1l0.1,0.1c0.1,0.1,0.2,0.2,0.4,0.3c0.3,0.2,0.6,0.5,1,0.7
			c0.2,0.2,0.4,0.3,0.6,0.5l0.1,0.1l0.1-0.1c15.5-20.8,31.1-41.6,46.6-62.4l65.5,48.9c-9.9,13.2-19.7,26.4-29.6,39.6l-0.1,0.1
			l0.1,0.1c0.7,0.5,1.3,1,1.9,1.5l0.1,0.1l0.1-0.1c10.4-13.9,20.7-27.8,31.1-41.6l0,0v0l0-0.1l-0.1-0.1
			c-18.9-14.1-37.8-28.2-56.8-42.4C1088.4,192.7,1084.1,189.5,1079.8,186.4l0-0.1L1079.8,186.4L1079.8,186.4l-0.1,0.1
			c4.2,3.2,8.5,6.4,12.8,9.5c18.9,14.1,37.8,28.2,56.8,42.4l0.1-0.1l-0.1,0l0,0l0.1,0.1l-0.1-0.1c-10.4,13.9-20.7,27.8-31.1,41.6
			l0.1,0.1l0.1-0.1c-0.7-0.5-1.3-1-1.9-1.5l-0.1,0.1l0.1,0.1c9.9-13.2,19.7-26.4,29.6-39.6l0.1-0.1l0.1-0.1l-0.2-0.1l-65.5-48.9
			l-0.1-0.1l-0.1-0.1l-0.1,0.1c-15.5,20.8-31.1,41.6-46.6,62.4l0.1,0.1l0.1-0.1c-0.2-0.2-0.4-0.3-0.6-0.5c-0.3-0.2-0.6-0.5-1-0.7
			c-0.1-0.1-0.2-0.2-0.4-0.3l-0.1,0.1l0.1,0.1c11-14.7,22-29.4,33-44.2c4.6-6.1,9.1-12.2,13.7-18.3l0,0l0.1-0.1l-0.1-0.1l0.1,0.1
			C1078.9,187.8,1079.4,187.1,1079.8,186.4L1079.8,186.4L1079.8,186.4L1079.8,186.4L1079.8,186.4z"/>
		<polygon class="st7" points="312.8,508.9 314.3,508.9 314.3,475.1 285.2,475.1 285.2,475 283.7,475 283.7,490.3 306.1,490.3 
			306.1,501.9 307.6,501.9 307.6,488.4 306.1,488.4 306.1,488.8 285.2,488.8 285.2,476.6 312.8,476.6 		"/>
		<path class="st1" d="M287,496.3l2.1-2.1l2.1,2.1H287L287,496.3z M287,496.7h4.3l-2.1,2.1L287,496.7L287,496.7z M285.7,496.5
			c0,1.9,1.5,3.5,3.5,3.5s3.5-1.5,3.5-3.5s-1.5-3.5-3.5-3.5S285.7,494.6,285.7,496.5 M285.2,496.5c0-2.2,1.8-4,4-4s4,1.8,4,4
			s-1.8,4-4,4S285.2,498.7,285.2,496.5 M283.9,501.7h10.4v-10.4h-10.4V501.7z"/>
		<path class="st1" d="M297.9,496.3l2.1-2.1l2.1,2.1H297.9L297.9,496.3z M297.9,496.7h4.3l-2.1,2.1L297.9,496.7L297.9,496.7z
			 M296.6,496.5c0,1.9,1.5,3.5,3.4,3.5s3.5-1.5,3.5-3.5s-1.5-3.5-3.5-3.5S296.6,494.6,296.6,496.5 M296,496.5c0-2.2,1.8-4,4-4
			s4,1.8,4,4s-1.8,4-4,4S296,498.7,296,496.5 M294.8,501.7h10.5v-10.4h-10.5V501.7z"/>
		<path class="st6" d="M876.5,505.5l-1.2,1.6h-20.5v1.5H876v-0.1l0,0l1.6-2.1L876.5,505.5L876.5,505.5z M861.2,475l-0.9,1.2
			l24.4,18.4l-5.3,7l1.2,0.9l6.2-8.2l0,0l0,0L861.2,475L861.2,475z"/>
		<polygon class="st4" points="899.1,512.3 899.1,512.3 898.7,512.8 895.7,516.7 896.8,517.6 899.4,514.4 918.4,528.7 910.5,538.9 
			891.6,524.7 893,522.8 891.8,521.9 889.5,524.9 889.6,525 889.6,525 910.5,540.8 910.7,541 920.5,528.5 920.4,528.4 920.5,528.4 
			899.6,512.7 899.1,512.3 		"/>
		<polygon class="st4" points="996.6,387.3 992.8,392.2 994,393.1 996.8,389.4 1015.6,404 1008.6,413 989.8,398.3 990.8,397.2 
			989.6,396.3 988.7,397.4 988.7,397.4 987.8,398.6 1008.9,415.1 1009.8,413.9 1009.8,413.9 1017.7,403.8 1016.5,402.9 
			1016.5,402.9 996.6,387.3 996.6,387.3 		"/>
		<path class="st8" d="M972.7,430.7l13.8,10.7l-7.9,10.1l-18.8-14.6l5.7-7.4l-1.2-0.9l-6.7,8.5l1.2,0.9l19.9,15.5l0,0l0,0l9.7-12.5
			l-1.2-0.9v0l-13.8-10.8L972.7,430.7L972.7,430.7z M967.4,424.7l-3.1,4l1.2,0.9l2.2-2.8l2,1.5l0.9-1.2L967.4,424.7L967.4,424.7
			L967.4,424.7L967.4,424.7z M972.2,425.2l-2-1.6l1.3-1.7l-1.2-0.9l-2.3,2.9l0,0l0,0l3.2,2.5L972.2,425.2L972.2,425.2z M977.8,411.4
			l-4.2,5.4l1.2,0.9l3.3-4.2l18.8,14.6l-7.9,10.2l-14-10.9l-0.8,1.2l13.9,10.8l0,0l1.2,0.9L998,429l0,0l0.9-1.2l-20-15.6l0,0
			L977.8,411.4L977.8,411.4z"/>
		<polygon class="st4" points="987.2,399.4 987.1,399.4 983.7,403.8 984.9,404.8 987.4,401.5 1006.2,416.1 999.2,425.1 980.4,410.4 
			981.7,408.9 980.5,408 978.3,410.7 978.4,410.7 978.4,410.7 999.5,427.2 999.5,427.2 999.5,427.2 1008.3,415.9 1008.3,415.9 
			1008.3,415.9 987.2,399.4 		"/>
		<polygon class="st6" points="1016,362.4 1015.1,363.5 1015.1,363.6 1002.8,379.3 1004,380.2 1010.5,371.9 1015.7,376 
			1016.6,374.8 1011.4,370.8 1016.3,364.5 1035.1,379.1 1030.2,385.4 1020.8,378.1 1019.9,379.3 1029.2,386.6 1018,401 999.2,386.3 
			1000.3,384.9 999.2,384 997.1,386.6 998.3,387.5 998.3,387.5 1018.3,403.1 1019.2,401.9 1019.2,401.9 1037.1,378.9 1037.1,378.9 
			1037.1,378.9 		"/>
		<path class="st6" d="M1019.5,357.9l-0.9,1.1l1.2,0.9l0.8-1.1L1019.5,357.9z M1034.5,338.6l-0.9,1.2h0l-11.3,14.5l1,1.1l11.5-14.7
			l18.8,14.6l-15.9,20.5l-18.8-14.6l1-1.2l-1.2-0.9l-1,1.2h0l-0.9,1.2l21.2,16.5l0.9-1.2l0,0l16-20.5l0,0l0.9-1.2L1034.5,338.6
			L1034.5,338.6z"/>
		<polygon class="st6" points="1092.2,264.7 1092.2,264.6 1079.5,281 1080.7,281.9 1092.7,266.4 1111.5,281.1 1094.6,302.8 
			1075.8,288.1 1077.4,286 1076.3,285.1 1074.7,287.2 1073.7,288.4 1093.7,303.9 1093.7,303.9 1094.9,304.9 1112.7,282 1112.7,282 
			1113.6,280.8 1092.5,264.4 		"/>
		<polygon class="st6" points="1072.8,289.5 1071.9,290.7 1071.9,290.7 1069,294.4 1070.2,295.4 1073.1,291.6 1091.9,306.2 
			1078.4,323.6 1064.8,313 1070.9,305.1 1070.8,305.1 1070.9,305.1 1065.7,301.1 1067,299.5 1065.8,298.5 1064.5,300.2 
			1064.5,300.2 1063.6,301.4 1068.8,305.4 1062.7,313.2 1062.7,313.2 1062.7,313.2 1078.6,325.7 1078.7,325.6 1078.7,325.6 
			1094,306 1094,306 1094,306 		"/>
		<polygon class="st6" points="1031,257.2 1031,257.2 1002.6,293.6 1002.6,293.7 1002.5,293.7 1027.8,313.4 1028.7,312.2 
			1028.7,312.2 1049.3,285.8 1048.1,284.9 1027.5,311.3 1004.7,293.4 1032.1,258.2 1055,276 1051.5,280.5 1052.7,281.5 
			1057.1,275.8 1057.1,275.8 1057.1,275.8 1031.9,256.1 		"/>
		<polygon class="st6" points="993.1,305.8 975.3,328.6 975.4,328.6 975.4,328.6 999.4,347.3 999.4,347.4 1000.6,348.3 
			1012.8,332.5 1011.7,331.6 1000.3,346.2 977.4,328.3 993.4,307.9 1016.3,325.7 1015.3,326.9 1016.5,327.8 1017.5,326.6 
			1017.5,326.6 1018.4,325.4 993.2,305.8 993.2,305.8 		"/>
		<polygon class="st6" points="974.4,329.8 974.4,329.8 945.6,366.7 945.6,366.7 945.6,366.7 970.8,386.4 970.8,386.4 970.8,386.4 
			993.6,357.2 992.4,356.3 970.6,384.3 947.7,366.5 974.7,331.8 997.6,349.7 996.3,351.3 997.5,352.2 998.8,350.6 998.8,350.6 
			999.7,349.4 974.4,329.8 		"/>
		<polygon class="st6" points="944.8,367.8 944.8,367.8 916.3,404.3 917.5,405.2 917.5,405.2 941.5,424 942.5,422.8 942.5,422.8 
			964.1,395 962.9,394.1 941.3,421.9 918.4,404 945,369.9 967.9,387.7 966.6,389.4 967.8,390.3 970,387.5 970,387.4 970,387.4 
			944.8,367.8 		"/>
		<polygon class="st6" points="915.7,405.1 886.2,442.8 887.4,443.8 887.4,443.7 910.3,461.6 910.3,461.6 911.5,462.5 911.5,462.5 
			911.5,462.5 912.4,461.3 912.4,461.3 933.9,433.8 932.7,432.8 911.2,460.4 888.3,442.5 915.9,407.2 938.8,425 936.3,428.2 
			937.5,429.2 940.8,424.8 940.8,424.8 940.9,424.8 915.7,405.1 915.7,405.1 		"/>
		<polygon class="st7" points="951.8,444.4 966.7,456 967.6,454.8 952.7,443.2 		"/>
		<polygon class="st7" points="976.3,454.4 959.2,476.3 949.3,468.5 962.8,451.2 961.6,450.2 947.2,468.8 947.5,469 947.5,469 
			959.5,478.4 960.4,477.2 960.4,477.2 978.4,454.2 978.4,454.1 957.3,437.7 956.4,438.9 		"/>
		<polygon class="st6" points="885.3,444 862,473.8 863.2,474.8 863.2,474.8 887.3,493.5 888.2,492.3 888.2,492.3 905,470.8 
			903.8,469.9 887,491.4 864.2,473.6 885.6,446.1 908.5,463.9 907.6,465.1 908.7,466 910.5,463.7 910.5,463.7 910.5,463.7 
			886.5,444.9 886.5,444.9 		"/>
		<rect x="444" y="476.9" class="st9" width="30" height="30"/>
		<rect x="465.3" y="486.8" class="st1" width="7.6" height="1.8"/>
		<rect x="465.3" y="489.4" class="st1" width="7.6" height="1.8"/>
		<rect x="465.3" y="492" class="st1" width="7.6" height="1.8"/>
		<rect x="465.3" y="494.7" class="st1" width="7.6" height="1.8"/>
		<rect x="454.7" y="498.2" class="st1" width="1.8" height="7.6"/>
		<rect x="457.2" y="498.2" class="st1" width="1.8" height="7.6"/>
		<rect x="459.8" y="498.2" class="st1" width="1.8" height="7.6"/>
		<rect x="462.4" y="498.2" class="st1" width="1.8" height="7.6"/>
		<rect x="453.9" y="478" class="st1" width="1.7" height="7.6"/>
		<rect x="456.4" y="478" class="st1" width="1.7" height="7.6"/>
		<rect x="459" y="478" class="st1" width="1.7" height="7.6"/>
		<rect x="461.5" y="478" class="st1" width="1.7" height="7.6"/>
		<rect x="445.1" y="487.6" class="st1" width="7.6" height="1.8"/>
		<rect x="445.1" y="490.2" class="st1" width="7.6" height="1.8"/>
		<rect x="445.1" y="492.8" class="st1" width="7.6" height="1.8"/>
		<rect x="445.1" y="495.3" class="st1" width="7.6" height="1.8"/>
		<polygon class="st1" points="445.2,485.6 445.2,485.6 452.8,485.6 452.8,478 445.2,478 445.2,485.6 445.2,485.6 445.2,485.6 
			445.3,485.6 445.3,478.1 452.6,478.1 452.6,485.5 445.2,485.5 445.2,485.6 445.3,485.6 		"/>
		<polygon class="st1" points="445.2,505.7 445.2,505.8 452.8,505.8 452.8,498.2 445.1,498.2 445.1,505.8 445.2,505.8 445.2,505.7 
			445.3,505.7 445.3,498.3 452.6,498.3 452.6,505.7 445.2,505.7 445.2,505.7 445.3,505.7 		"/>
		<polygon class="st1" points="454,497 454,497 464.2,497 464.2,486.8 453.9,486.8 453.9,497 454,497 454,497 454.1,497 454.1,487 
			464,487 464,496.9 454,496.9 454,497 454.1,497 		"/>
		<polygon class="st1" points="465.4,485.6 465.4,485.6 472.9,485.6 472.9,478 465.3,478 465.3,485.6 465.4,485.6 465.4,485.6 
			465.5,485.6 465.5,478.1 472.8,478.1 472.8,485.5 465.4,485.5 465.4,485.6 465.5,485.6 		"/>
		<polygon class="st1" points="465.4,505.7 465.4,505.8 472.9,505.8 472.9,498.2 465.3,498.2 465.3,505.8 465.4,505.8 465.4,505.7 
			465.4,505.7 465.4,498.3 472.8,498.3 472.8,505.7 465.4,505.7 465.4,505.7 465.4,505.7 		"/>
		<rect x="668.9" y="476.9" class="st9" width="30" height="30"/>
		<rect x="690.2" y="486.8" class="st1" width="7.6" height="1.8"/>
		<rect x="690.2" y="489.4" class="st1" width="7.6" height="1.8"/>
		<rect x="690.2" y="492" class="st1" width="7.6" height="1.8"/>
		<rect x="690.2" y="494.7" class="st1" width="7.6" height="1.8"/>
		<rect x="679.5" y="498.2" class="st1" width="1.8" height="7.6"/>
		<rect x="682.1" y="498.2" class="st1" width="1.8" height="7.6"/>
		<rect x="684.7" y="498.2" class="st1" width="1.8" height="7.6"/>
		<rect x="687.3" y="498.2" class="st1" width="1.8" height="7.6"/>
		<rect x="678.8" y="478" class="st1" width="1.7" height="7.6"/>
		<rect x="681.3" y="478" class="st1" width="1.7" height="7.6"/>
		<rect x="683.8" y="478" class="st1" width="1.7" height="7.6"/>
		<rect x="686.4" y="478" class="st1" width="1.7" height="7.6"/>
		<rect x="670" y="487.6" class="st1" width="7.6" height="1.8"/>
		<rect x="670" y="490.2" class="st1" width="7.6" height="1.8"/>
		<rect x="670" y="492.8" class="st1" width="7.6" height="1.8"/>
		<rect x="670" y="495.3" class="st1" width="7.6" height="1.8"/>
		<polygon class="st1" points="670.1,485.6 670.1,485.6 677.7,485.6 677.7,478 670.1,478 670.1,485.6 670.1,485.6 670.1,485.6 
			670.2,485.6 670.2,478.1 677.5,478.1 677.5,485.5 670.1,485.5 670.1,485.6 670.2,485.6 		"/>
		<polygon class="st1" points="670.1,505.7 670.1,505.8 677.6,505.8 677.6,498.2 670,498.2 670,505.8 670.1,505.8 670.1,505.7 
			670.2,505.7 670.2,498.3 677.5,498.3 677.5,505.7 670.1,505.7 670.1,505.7 670.2,505.7 		"/>
		<polygon class="st1" points="678.9,497 678.9,497 689.1,497 689.1,486.8 678.8,486.8 678.8,497 678.9,497 678.9,497 679,497 
			679,487 688.9,487 688.9,496.9 678.9,496.9 678.9,497 679,497 		"/>
		<polygon class="st1" points="690.3,485.6 690.3,485.6 697.8,485.6 697.8,478 690.2,478 690.2,485.6 690.3,485.6 690.3,485.6 
			690.3,485.6 690.3,478.1 697.7,478.1 697.7,485.5 690.3,485.5 690.3,485.6 690.3,485.6 		"/>
		<polygon class="st1" points="690.2,505.7 690.2,505.8 697.8,505.8 697.8,498.2 690.2,498.2 690.2,505.8 690.2,505.8 690.2,505.7 
			690.3,505.7 690.3,498.3 697.7,498.3 697.7,505.7 690.2,505.7 690.2,505.7 690.3,505.7 		"/>
		<rect x="249.9" y="475.8" class="st9" width="29.2" height="23"/>
		
			<rect x="925.4" y="473.8" transform="matrix(0.6086 -0.7935 0.7935 0.6086 -17.4438 935.1788)" class="st9" width="27.8" height="23"/>
		
			<rect x="1043.6" y="320.8" transform="matrix(0.6086 -0.7935 0.7935 0.6086 150.5105 969.6882)" class="st9" width="29.2" height="23"/>
		
			<rect x="1002" y="294.3" transform="matrix(0.6089 -0.7932 0.7932 0.6089 150.0854 920.8856)" class="st9" width="13.9" height="27.9"/>
		<rect x="266.3" y="477.9" class="st1" width="1.8" height="8.6"/>
		<rect x="263.3" y="477.9" class="st1" width="1.8" height="8.6"/>
		<rect x="260.3" y="477.9" class="st1" width="1.8" height="8.6"/>
		<rect x="257.3" y="477.9" class="st1" width="1.8" height="8.6"/>
		<rect x="254.3" y="477.9" class="st1" width="1.8" height="8.6"/>
		<rect x="251.3" y="477.9" class="st1" width="1.8" height="8.6"/>
		<rect x="266.3" y="488.2" class="st1" width="1.8" height="8.6"/>
		<rect x="263.3" y="488.2" class="st1" width="1.8" height="8.6"/>
		<rect x="260.3" y="488.2" class="st1" width="1.8" height="8.6"/>
		<rect x="257.3" y="488.2" class="st1" width="1.8" height="8.6"/>
		<rect x="254.3" y="488.2" class="st1" width="1.8" height="8.6"/>
		<rect x="251.3" y="488.2" class="st1" width="1.8" height="8.6"/>
		<polygon class="st1" points="934.4,476.1 933.3,477.6 940.1,482.8 941.2,481.3 		"/>
		<polygon class="st1" points="932.6,478.5 931.5,479.9 938.3,485.2 939.4,483.7 		"/>
		
			<rect x="932.7" y="479.9" transform="matrix(0.6097 -0.7926 0.7926 0.6097 -19.4381 928.958)" class="st1" width="1.8" height="8.6"/>
		
			<rect x="930.9" y="482.3" transform="matrix(0.6095 -0.7928 0.7928 0.6095 -21.8681 928.7537)" class="st1" width="1.8" height="8.6"/>
		
			<rect x="929.1" y="484.8" transform="matrix(0.6071 -0.7946 0.7946 0.6071 -23.2168 931.1387)" class="st1" width="1.8" height="8.6"/>
		
			<rect x="927.2" y="487.1" transform="matrix(0.6096 -0.7927 0.7927 0.6096 -27.2024 927.616)" class="st1" width="1.8" height="8.6"/>
		<polygon class="st1" points="942.6,482.4 941.5,483.8 948.2,489 949.4,487.6 		"/>
		
			<rect x="942.7" y="483.8" transform="matrix(0.6095 -0.7928 0.7928 0.6095 -18.4461 938.6963)" class="st1" width="1.8" height="8.6"/>
		<polygon class="st1" points="938.9,487.1 937.8,488.6 944.6,493.8 945.7,492.4 		"/>
		<polygon class="st1" points="937.1,489.5 936,491 942.8,496.2 943.9,494.7 		"/>
		<polygon class="st1" points="935.3,491.9 934.2,493.3 941,498.5 942,497.1 		"/>
		
			<rect x="935.4" y="493.4" transform="matrix(0.6071 -0.7946 0.7946 0.6071 -27.5883 939.5684)" class="st1" width="1.8" height="8.6"/>
		
			<rect x="1059.8" y="333.3" transform="matrix(0.6092 -0.793 0.793 0.6092 146.8225 973.0997)" class="st1" width="1.8" height="8.6"/>
		<polygon class="st1" points="1065.4,338.5 1066.5,337.1 1059.7,331.9 1058.6,333.3 		"/>
		
			<rect x="1063.4" y="328.5" transform="matrix(0.607 -0.7947 0.7947 0.607 153.8473 976.6491)" class="st1" width="1.8" height="8.6"/>
		
			<rect x="1065.3" y="326.2" transform="matrix(0.6095 -0.7928 0.7928 0.6095 154.391 974.3468)" class="st1" width="1.8" height="8.6"/>
		
			<rect x="1067.1" y="323.7" transform="matrix(0.607 -0.7947 0.7947 0.607 159.0578 977.685)" class="st1" width="1.8" height="8.6"/>
		
			<rect x="1068.9" y="321.4" transform="matrix(0.6097 -0.7926 0.7926 0.6097 159.4001 975.0039)" class="st1" width="1.8" height="8.6"/>
		<polygon class="st1" points="1055.4,334.7 1056.5,333.2 1049.7,328 1048.6,329.4 		"/>
		
			<rect x="1053.5" y="324.7" transform="matrix(0.6067 -0.7949 0.7949 0.6067 153.1922 967.5722)" class="st1" width="1.8" height="8.6"/>
		
			<rect x="1055.3" y="322.3" transform="matrix(0.6095 -0.7928 0.7928 0.6095 153.5719 964.9194)" class="st1" width="1.8" height="8.6"/>
		
			<rect x="1057.1" y="319.9" transform="matrix(0.6072 -0.7945 0.7945 0.6072 157.991 967.9295)" class="st1" width="1.8" height="8.6"/>
		
			<rect x="1058.9" y="317.5" transform="matrix(0.6092 -0.793 0.793 0.6092 159.0058 966.2499)" class="st1" width="1.8" height="8.6"/>
		
			<rect x="1060.8" y="315.2" transform="matrix(0.6095 -0.7928 0.7928 0.6095 161.3774 966.4724)" class="st1" width="1.8" height="8.6"/>
		
			<rect x="1010.8" y="306.9" transform="matrix(0.609 -0.7931 0.7931 0.609 152.0386 924.1459)" class="st1" width="5.3" height="1.8"/>
		
			<rect x="1008.4" y="305.1" transform="matrix(0.609 -0.7931 0.7931 0.609 152.555 921.5519)" class="st1" width="5.3" height="1.8"/>
		<polygon class="st1" points="1011,302.6 1009.5,301.5 1006.3,305.7 1007.7,306.8 		"/>
		
			<rect x="1003.6" y="301.5" transform="matrix(0.609 -0.7931 0.7931 0.609 153.5895 916.3553)" class="st1" width="5.3" height="1.8"/>
		
			<rect x="1001.2" y="299.6" transform="matrix(0.6093 -0.7929 0.7929 0.6093 153.9219 913.3868)" class="st1" width="5.3" height="1.8"/>
		
			<rect x="998.9" y="297.8" transform="matrix(0.609 -0.7931 0.7931 0.609 154.62 911.1507)" class="st1" width="5.3" height="1.8"/>
		
			<rect x="1006.9" y="311.9" transform="matrix(0.6093 -0.7929 0.7929 0.6093 146.3284 922.6931)" class="st1" width="5.3" height="1.8"/>
		
			<rect x="1004.4" y="310.1" transform="matrix(0.6086 -0.7935 0.7935 0.6086 147.3869 920.8159)" class="st1" width="5.3" height="1.8"/>
		
			<rect x="1002.1" y="308.3" transform="matrix(0.6093 -0.7929 0.7929 0.6093 147.3609 917.4893)" class="st1" width="5.3" height="1.8"/>
		
			<rect x="999.7" y="306.4" transform="matrix(0.6083 -0.7937 0.7937 0.6083 148.6444 915.8874)" class="st1" width="5.3" height="1.8"/>
		
			<rect x="997.3" y="304.6" transform="matrix(0.6086 -0.7935 0.7935 0.6086 148.9375 913.0116)" class="st1" width="5.3" height="1.8"/>
		<polygon class="st1" points="1000,302.2 998.5,301.1 995.3,305.3 996.7,306.4 		"/>
		<polygon class="st1" points="280.3,472.7 280.3,499.4 248.6,499.4 248.6,502 280.3,502 280.3,502 282.9,502 282.9,472.7 		"/>
		<path class="st1" d="M944.1,462.8l-0.4-3l3-0.4L944.1,462.8z M944.5,463.1l2.6-3.4l0.4,3L944.5,463.1z M943.5,464
			c1.5,1.1,3.7,0.8,4.8-0.7s0.8-3.7-0.7-4.8c-1.5-1.1-3.7-0.8-4.8,0.7S942,462.8,943.5,464 M943.2,464.4c-1.8-1.3-2.1-3.8-0.8-5.6
			c1.3-1.8,3.8-2.1,5.6-0.8s2.1,3.8,0.8,5.6C947.4,465.4,944.9,465.8,943.2,464.4 M938.3,462.3l8.3,6.3l6.3-8.3l-8.3-6.3
			L938.3,462.3L938.3,462.3z"/>
		<path class="st1" d="M950.7,454.1l-0.4-3l3-0.4L950.7,454.1L950.7,454.1z M951,454.3l2.6-3.4l0.4,3L951,454.3z M950,455.3
			c1.5,1.1,3.7,0.8,4.8-0.7c1.2-1.5,0.8-3.7-0.7-4.8c-1.5-1.1-3.7-0.8-4.8,0.7S948.5,454.1,950,455.3 M949.7,455.7
			c-1.8-1.3-2.1-3.8-0.8-5.6c1.3-1.8,3.8-2.1,5.6-0.8c1.8,1.3,2.1,3.8,0.8,5.6C954,456.7,951.5,457,949.7,455.7 M944.8,453.5
			l8.3,6.3l6.3-8.3l-8.3-6.3L944.8,453.5L944.8,453.5z"/>
		<path class="st4" d="M157.1,541c2.2,0,3.9-1.8,3.9-3.9s-1.8-3.9-3.9-3.9s-3.9,1.8-3.9,3.9S154.9,541,157.1,541"/>
		<path class="st9" d="M155.9,537.2v-0.7l-0.4,0.7H155.9z M155.9,538v-0.4h-0.7v-0.4l0.8-1.4h0.3v1.4h0.2v0.4h-0.2v0.4H155.9
			L155.9,538z"/>
		<path class="st9" d="M156.5,537.4l0.3,0c0,0.1,0,0.2,0.1,0.2s0.1,0.1,0.2,0.1c0.1,0,0.1,0,0.2-0.1c0.1-0.1,0.1-0.2,0.1-0.3
			c0-0.1,0-0.2-0.1-0.3s-0.1-0.1-0.2-0.1c-0.1,0-0.2,0-0.3,0.2l-0.3,0l0.2-1.1h0.9v0.4H157l-0.1,0.4c0.1,0,0.1-0.1,0.2-0.1
			c0.1,0,0.3,0.1,0.4,0.2s0.2,0.3,0.2,0.5c0,0.2,0,0.3-0.1,0.5c-0.1,0.2-0.3,0.3-0.5,0.3c-0.2,0-0.3,0-0.4-0.2
			C156.6,537.8,156.6,537.6,156.5,537.4"/>
		<path class="st9" d="M159,537.6v0.4h-1.2c0-0.2,0.1-0.3,0.1-0.4c0.1-0.1,0.2-0.3,0.4-0.5c0.1-0.2,0.2-0.3,0.3-0.3
			c0.1-0.1,0.1-0.2,0.1-0.2c0-0.1,0-0.2-0.1-0.2c0,0-0.1-0.1-0.2-0.1s-0.1,0-0.2,0.1s-0.1,0.1-0.1,0.3l-0.3,0c0-0.2,0.1-0.4,0.2-0.5
			s0.2-0.2,0.4-0.2c0.2,0,0.3,0.1,0.4,0.2s0.1,0.3,0.1,0.4c0,0.1,0,0.2,0,0.3s-0.1,0.2-0.1,0.3c0,0.1-0.1,0.2-0.2,0.3
			c-0.1,0.1-0.2,0.2-0.2,0.2s-0.1,0.1-0.1,0.1L159,537.6L159,537.6z"/>
		<path class="st6" d="M211.9,540.3c2.2,0,3.9-1.8,3.9-3.9s-1.8-3.9-3.9-3.9s-3.9,1.8-3.9,3.9S209.8,540.3,211.9,540.3"/>
		<path class="st9" d="M210.7,536.5v-0.7l-0.4,0.7H210.7z M210.7,537.3v-0.4H210v-0.4l0.8-1.4h0.3v1.4h0.2v0.4H211v0.4H210.7
			L210.7,537.3z"/>
		<path class="st9" d="M211.4,536.8l0.3,0c0,0.1,0,0.2,0.1,0.2s0.1,0.1,0.2,0.1c0.1,0,0.1,0,0.2-0.1c0.1-0.1,0.1-0.2,0.1-0.3
			c0-0.1,0-0.2-0.1-0.3s-0.1-0.1-0.2-0.1c-0.1,0-0.2,0-0.3,0.2l-0.3,0l0.2-1.1h0.9v0.4h-0.6l-0.1,0.4c0.1,0,0.1-0.1,0.2-0.1
			c0.1,0,0.3,0.1,0.4,0.2s0.2,0.3,0.2,0.5c0,0.2,0,0.3-0.1,0.5c-0.1,0.2-0.3,0.3-0.5,0.3c-0.2,0-0.3,0-0.4-0.2
			C211.4,537.1,211.4,537,211.4,536.8"/>
		<path class="st9" d="M213.6,537.3h-0.3v-1.6c-0.1,0.1-0.3,0.2-0.4,0.3v-0.4c0.1,0,0.2-0.1,0.3-0.2c0.1-0.1,0.2-0.2,0.2-0.3h0.3
			L213.6,537.3L213.6,537.3z"/>
		<path class="st6" d="M259.5,539.2c2.2,0,3.9-1.8,3.9-3.9s-1.8-3.9-3.9-3.9s-3.9,1.8-3.9,3.9S257.3,539.2,259.5,539.2"/>
		<path class="st9" d="M258.2,535.5v-0.7l-0.4,0.7H258.2z M258.2,536.3v-0.4h-0.7v-0.4l0.8-1.4h0.3v1.4h0.2v0.4h-0.2v0.4H258.2
			L258.2,536.3z"/>
		<path class="st9" d="M258.9,535.7l0.3,0c0,0.1,0,0.2,0.1,0.2c0,0,0.1,0.1,0.2,0.1c0.1,0,0.1,0,0.2-0.1s0.1-0.2,0.1-0.3
			c0-0.1,0-0.2-0.1-0.3c0-0.1-0.1-0.1-0.2-0.1c-0.1,0-0.2,0-0.3,0.2l-0.3,0l0.2-1.1h0.9v0.4h-0.6l0,0.4c0.1,0,0.1-0.1,0.2-0.1
			c0.1,0,0.3,0.1,0.4,0.2s0.2,0.3,0.2,0.5c0,0.2,0,0.3-0.1,0.5c-0.1,0.2-0.3,0.3-0.5,0.3c-0.2,0-0.3,0-0.4-0.2
			C259,536.1,258.9,535.9,258.9,535.7"/>
		<path class="st9" d="M260.8,534.4c0,0-0.1,0-0.1,0c0,0-0.1,0.1-0.1,0.2c0,0.1,0,0.3,0,0.5s0,0.4,0,0.5c0,0.1,0,0.2,0.1,0.2
			s0.1,0,0.1,0s0.1,0,0.1,0c0,0,0.1-0.1,0.1-0.2c0-0.1,0-0.3,0-0.5s0-0.4,0-0.5c0-0.1,0-0.2-0.1-0.2S260.8,534.5,260.8,534.4
			 M260.8,534.1c0.2,0,0.3,0.1,0.4,0.2c0.1,0.2,0.2,0.5,0.2,0.9s-0.1,0.7-0.2,0.9c-0.1,0.2-0.2,0.2-0.4,0.2s-0.3-0.1-0.4-0.2
			c-0.1-0.2-0.2-0.5-0.2-0.9s0.1-0.7,0.2-0.9C260.5,534.2,260.6,534.1,260.8,534.1"/>
		<path class="st6" d="M299.3,540.1c2.2,0,3.9-1.8,3.9-3.9s-1.8-3.9-3.9-3.9s-3.9,1.8-3.9,3.9S297.2,540.1,299.3,540.1"/>
		<path class="st9" d="M298.1,536.3v-0.7l-0.4,0.7H298.1z M298.1,537.1v-0.4h-0.7v-0.4l0.8-1.4h0.3v1.4h0.2v0.4h-0.2v0.4H298.1
			L298.1,537.1z"/>
		<path class="st9" d="M299.4,536.3v-0.7l-0.4,0.7H299.4z M299.4,537.1v-0.4h-0.7v-0.4l0.8-1.4h0.3v1.4h0.2v0.4h-0.2v0.4H299.4
			L299.4,537.1z"/>
		<path class="st9" d="M300.9,535.7c0-0.1,0-0.2-0.1-0.3c0-0.1-0.1-0.1-0.2-0.1s-0.1,0-0.1,0.1s-0.1,0.2-0.1,0.3s0,0.2,0.1,0.3
			c0,0.1,0.1,0.1,0.2,0.1s0.1,0,0.2-0.1C300.9,535.9,300.9,535.9,300.9,535.7 M300.1,536.6l0.3,0c0,0.1,0,0.1,0.1,0.2
			s0.1,0.1,0.1,0.1c0.1,0,0.1,0,0.2-0.1c0-0.1,0.1-0.2,0.1-0.5c-0.1,0.1-0.2,0.2-0.3,0.2c-0.1,0-0.3-0.1-0.4-0.2
			c-0.1-0.1-0.1-0.3-0.1-0.5s0-0.4,0.2-0.5c0.1-0.1,0.2-0.2,0.4-0.2c0.2,0,0.3,0.1,0.4,0.2c0.1,0.2,0.2,0.5,0.2,0.8
			s-0.1,0.7-0.2,0.9c-0.1,0.2-0.3,0.3-0.5,0.3c-0.1,0-0.2,0-0.3-0.1S300.1,536.8,300.1,536.6"/>
		<path class="st6" d="M329.8,540.1c2.2,0,3.9-1.8,3.9-3.9s-1.8-3.9-3.9-3.9s-3.9,1.8-3.9,3.9S327.6,540.1,329.8,540.1"/>
		<path class="st9" d="M328.5,536.3v-0.7l-0.4,0.7H328.5z M328.5,537.1v-0.4h-0.7v-0.4l0.8-1.4h0.3v1.4h0.2v0.4h-0.2v0.4H328.5
			L328.5,537.1z"/>
		<path class="st9" d="M329.9,536.3v-0.7l-0.4,0.7H329.9z M329.9,537.1v-0.4h-0.7v-0.4l0.8-1.4h0.3v1.4h0.2v0.4h-0.2v0.4H329.9
			L329.9,537.1z"/>
		<path class="st9" d="M330.9,536.5c0,0.1,0,0.2,0.1,0.3c0,0.1,0.1,0.1,0.2,0.1s0.1,0,0.2-0.1c0-0.1,0.1-0.2,0.1-0.3
			c0-0.1,0-0.2-0.1-0.2c0-0.1-0.1-0.1-0.2-0.1c-0.1,0-0.1,0-0.2,0.1C330.9,536.3,330.9,536.4,330.9,536.5 M330.9,535.5
			c0,0.1,0,0.2,0.1,0.2c0,0,0.1,0.1,0.1,0.1s0.1,0,0.1-0.1s0.1-0.1,0.1-0.2s0-0.1-0.1-0.2s-0.1-0.1-0.1-0.1c-0.1,0-0.1,0-0.1,0.1
			C330.9,535.4,330.9,535.5,330.9,535.5 M330.8,536c-0.1,0-0.1-0.1-0.2-0.2s-0.1-0.2-0.1-0.3c0-0.2,0-0.3,0.1-0.4
			c0.1-0.1,0.2-0.2,0.4-0.2s0.3,0,0.4,0.2c0.1,0.1,0.1,0.2,0.1,0.4c0,0.1,0,0.2-0.1,0.3s-0.1,0.1-0.2,0.2c0.1,0,0.2,0.1,0.2,0.2
			s0.1,0.2,0.1,0.3c0,0.2,0,0.4-0.1,0.5c-0.1,0.1-0.2,0.2-0.4,0.2c-0.2,0-0.3,0-0.4-0.2c-0.1-0.1-0.2-0.3-0.2-0.5
			c0-0.1,0-0.2,0.1-0.3C330.7,536.1,330.7,536,330.8,536"/>
		<path class="st6" d="M363,540.1c2.2,0,3.9-1.8,3.9-3.9s-1.8-3.9-3.9-3.9s-3.9,1.8-3.9,3.9S360.8,540.1,363,540.1"/>
		<path class="st9" d="M361.7,536.3v-0.7l-0.4,0.7H361.7z M361.7,537.1v-0.4H361v-0.4l0.8-1.4h0.3v1.4h0.2v0.4h-0.2v0.4H361.7
			L361.7,537.1z"/>
		<path class="st9" d="M363.1,536.3v-0.7l-0.4,0.7H363.1z M363.1,537.1v-0.4h-0.7v-0.4l0.8-1.4h0.3v1.4h0.2v0.4h-0.2v0.4H363.1
			L363.1,537.1z"/>
		<path class="st9" d="M363.8,535.4V535h1.1v0.3c-0.1,0.1-0.2,0.3-0.3,0.5c-0.1,0.2-0.2,0.4-0.2,0.7c0,0.2-0.1,0.5-0.1,0.7H364
			c0-0.3,0.1-0.6,0.1-0.9c0.1-0.3,0.2-0.6,0.4-0.8H363.8L363.8,535.4z"/>
		<path class="st6" d="M394.1,540.1c2.2,0,3.9-1.8,3.9-3.9s-1.8-3.9-3.9-3.9s-3.9,1.8-3.9,3.9S391.9,540.1,394.1,540.1"/>
		<path class="st9" d="M392.8,536.3v-0.7l-0.4,0.7H392.8z M392.8,537.1v-0.4h-0.7v-0.4l0.8-1.4h0.3v1.4h0.2v0.4h-0.2v0.4H392.8
			L392.8,537.1z"/>
		<path class="st9" d="M394.1,536.3v-0.7l-0.4,0.7H394.1z M394.1,537.1v-0.4h-0.7v-0.4l0.8-1.4h0.3v1.4h0.2v0.4h-0.2v0.4H394.1
			L394.1,537.1z"/>
		<path class="st9" d="M395.2,536.4c0,0.1,0,0.2,0.1,0.3c0,0.1,0.1,0.1,0.2,0.1s0.1,0,0.2-0.1c0-0.1,0.1-0.2,0.1-0.3s0-0.2-0.1-0.3
			c0-0.1-0.1-0.1-0.2-0.1s-0.1,0-0.2,0.1S395.2,536.3,395.2,536.4 M395.9,535.5l-0.3,0c0-0.1,0-0.1-0.1-0.2s-0.1-0.1-0.1-0.1
			c-0.1,0-0.1,0-0.2,0.1s-0.1,0.2-0.1,0.5c0.1-0.1,0.2-0.2,0.3-0.2c0.1,0,0.3,0.1,0.4,0.2c0.1,0.1,0.1,0.3,0.1,0.5
			c0,0.2,0,0.4-0.2,0.5c-0.1,0.1-0.2,0.2-0.4,0.2c-0.2,0-0.3-0.1-0.4-0.2c-0.1-0.2-0.2-0.5-0.2-0.8s0.1-0.7,0.2-0.9
			c0.1-0.2,0.3-0.3,0.5-0.3c0.1,0,0.2,0,0.3,0.1S395.9,535.3,395.9,535.5"/>
		<path class="st6" d="M418.7,540.1c2.2,0,3.9-1.8,3.9-3.9s-1.8-3.9-3.9-3.9s-3.9,1.8-3.9,3.9S416.5,540.1,418.7,540.1"/>
		<path class="st9" d="M417.4,536.3v-0.7l-0.4,0.7H417.4z M417.4,537.1v-0.4h-0.7v-0.4l0.8-1.4h0.3v1.4h0.2v0.4h-0.2v0.4H417.4
			L417.4,537.1z"/>
		<path class="st9" d="M418.8,536.3v-0.7l-0.4,0.7H418.8z M418.8,537.1v-0.4H418v-0.4l0.8-1.4h0.3v1.4h0.2v0.4h-0.2v0.4H418.8
			L418.8,537.1z"/>
		<path class="st9" d="M419.4,536.6l0.3,0c0,0.1,0,0.2,0.1,0.2c0,0,0.1,0.1,0.2,0.1c0.1,0,0.1,0,0.2-0.1s0.1-0.2,0.1-0.3
			c0-0.1,0-0.2-0.1-0.3c0-0.1-0.1-0.1-0.2-0.1c-0.1,0-0.2,0-0.3,0.2l-0.3,0l0.2-1.1h0.9v0.4h-0.6l0,0.4c0.1,0,0.1-0.1,0.2-0.1
			c0.1,0,0.3,0.1,0.4,0.2c0.1,0.1,0.2,0.3,0.2,0.5c0,0.2,0,0.3-0.1,0.5c-0.1,0.2-0.3,0.3-0.5,0.3c-0.2,0-0.3,0-0.4-0.2
			C419.5,536.9,419.5,536.8,419.4,536.6"/>
		<path class="st6" d="M441.6,540.1c2.2,0,3.9-1.8,3.9-3.9s-1.8-3.9-3.9-3.9s-3.9,1.8-3.9,3.9S439.4,540.1,441.6,540.1"/>
		<path class="st9" d="M440.3,536.3v-0.7l-0.4,0.7H440.3z M440.3,537.1v-0.4h-0.7v-0.4l0.8-1.4h0.3v1.4h0.2v0.4h-0.2v0.4H440.3
			L440.3,537.1z"/>
		<path class="st9" d="M441.6,536.3v-0.7l-0.4,0.7H441.6z M441.6,537.1v-0.4h-0.7v-0.4l0.8-1.4h0.3v1.4h0.2v0.4h-0.2v0.4H441.6
			L441.6,537.1z"/>
		<path class="st9" d="M443,536.3v-0.7l-0.4,0.7H443z M443,537.1v-0.4h-0.7v-0.4l0.8-1.4h0.3v1.4h0.2v0.4h-0.2v0.4H443L443,537.1z"
			/>
		<path class="st6" d="M480.3,540.1c2.2,0,3.9-1.8,3.9-3.9s-1.8-3.9-3.9-3.9s-3.9,1.8-3.9,3.9S478.1,540.1,480.3,540.1"/>
		<path class="st9" d="M479,536.3v-0.7l-0.4,0.7H479z M479,537.1v-0.4h-0.7v-0.4l0.8-1.4h0.3v1.4h0.2v0.4h-0.2v0.4H479L479,537.1z"
			/>
		<path class="st9" d="M480.4,536.3v-0.7l-0.4,0.7H480.4z M480.4,537.1v-0.4h-0.7v-0.4l0.8-1.4h0.3v1.4h0.2v0.4h-0.2v0.4H480.4
			L480.4,537.1z"/>
		<path class="st9" d="M481.1,536.5l0.3,0c0,0.1,0,0.2,0.1,0.2c0,0,0.1,0.1,0.2,0.1c0.1,0,0.1,0,0.2-0.1s0.1-0.2,0.1-0.3
			c0-0.1,0-0.2-0.1-0.2c0-0.1-0.1-0.1-0.2-0.1c0,0-0.1,0-0.1,0l0-0.3c0.1,0,0.2,0,0.2-0.1s0.1-0.1,0.1-0.2c0-0.1,0-0.1,0-0.2
			c0,0-0.1-0.1-0.1-0.1s-0.1,0-0.1,0.1c0,0-0.1,0.1-0.1,0.2l-0.3-0.1c0-0.1,0-0.2,0.1-0.3c0-0.1,0.1-0.1,0.2-0.2s0.2-0.1,0.3-0.1
			c0.2,0,0.3,0.1,0.4,0.2c0.1,0.1,0.1,0.2,0.1,0.4c0,0.2-0.1,0.3-0.2,0.5c0.1,0,0.2,0.1,0.2,0.2c0.1,0.1,0.1,0.2,0.1,0.3
			c0,0.2-0.1,0.3-0.2,0.5s-0.2,0.2-0.4,0.2c-0.2,0-0.3-0.1-0.4-0.2S481.1,536.7,481.1,536.5"/>
		<path class="st8" d="M513.1,540.1c2.2,0,3.9-1.8,3.9-3.9s-1.8-3.9-3.9-3.9s-3.9,1.8-3.9,3.9S510.9,540.1,513.1,540.1"/>
		<path class="st9" d="M511.8,536.3v-0.7l-0.4,0.7H511.8z M511.8,537.1v-0.4h-0.7v-0.4l0.8-1.4h0.3v1.4h0.2v0.4h-0.2v0.4H511.8
			L511.8,537.1z"/>
		<path class="st9" d="M513.2,536.3v-0.7l-0.4,0.7H513.2z M513.2,537.1v-0.4h-0.7v-0.4l0.8-1.4h0.3v1.4h0.2v0.4h-0.2v0.4H513.2
			L513.2,537.1z"/>
		<path class="st9" d="M515,536.7v0.4h-1.2c0-0.2,0-0.3,0.1-0.4c0.1-0.1,0.2-0.3,0.4-0.5c0.2-0.2,0.2-0.3,0.3-0.3
			c0-0.1,0.1-0.2,0.1-0.2c0-0.1,0-0.2-0.1-0.2c0,0-0.1-0.1-0.2-0.1s-0.1,0-0.2,0.1s-0.1,0.1-0.1,0.3l-0.3,0c0-0.2,0.1-0.4,0.2-0.5
			s0.2-0.2,0.4-0.2c0.2,0,0.3,0.1,0.4,0.2s0.2,0.3,0.2,0.4c0,0.1,0,0.2,0,0.3c0,0.1-0.1,0.2-0.1,0.3c0,0.1-0.1,0.2-0.2,0.3
			c-0.1,0.1-0.2,0.2-0.2,0.2s0,0.1-0.1,0.1L515,536.7L515,536.7z"/>
		<path class="st8" d="M529.6,540.1c2.2,0,3.9-1.8,3.9-3.9s-1.8-3.9-3.9-3.9s-3.9,1.8-3.9,3.9S527.4,540.1,529.6,540.1"/>
		<path class="st9" d="M528.3,536.3v-0.7l-0.4,0.7H528.3z M528.3,537.1v-0.4h-0.7v-0.4l0.8-1.4h0.3v1.4h0.2v0.4h-0.2v0.4H528.3
			L528.3,537.1z"/>
		<path class="st9" d="M529.7,536.3v-0.7l-0.4,0.7H529.7z M529.7,537.1v-0.4h-0.7v-0.4l0.8-1.4h0.3v1.4h0.2v0.4H530v0.4H529.7
			L529.7,537.1z"/>
		<path class="st9" d="M531.2,537.1h-0.3v-1.6c-0.1,0.1-0.3,0.2-0.4,0.3v-0.4c0.1,0,0.2-0.1,0.3-0.2c0.1-0.1,0.2-0.2,0.2-0.3h0.3
			V537.1z"/>
		<path class="st6" d="M553.6,540.1c2.2,0,3.9-1.8,3.9-3.9s-1.8-3.9-3.9-3.9s-3.9,1.8-3.9,3.9S551.5,540.1,553.6,540.1"/>
		<path class="st9" d="M552.3,536.3v-0.7l-0.4,0.7H552.3z M552.3,537.1v-0.4h-0.7v-0.4l0.8-1.4h0.3v1.4h0.2v0.4h-0.2v0.4H552.3
			L552.3,537.1z"/>
		<path class="st9" d="M553.7,536.3v-0.7l-0.4,0.7H553.7z M553.7,537.1v-0.4H553v-0.4l0.8-1.4h0.3v1.4h0.2v0.4H554v0.4H553.7
			L553.7,537.1z"/>
		<path class="st9" d="M554.9,535.3c0,0-0.1,0-0.1,0c0,0-0.1,0.1-0.1,0.2c0,0.1,0,0.3,0,0.5s0,0.4,0,0.5c0,0.1,0,0.2,0.1,0.2
			s0.1,0,0.1,0s0.1,0,0.1,0c0,0,0.1-0.1,0.1-0.2c0-0.1,0-0.3,0-0.5s0-0.4,0-0.5c0-0.1,0-0.2-0.1-0.2S555,535.3,554.9,535.3
			 M554.9,535c0.2,0,0.3,0.1,0.4,0.2c0.1,0.2,0.2,0.5,0.2,0.9s-0.1,0.7-0.2,0.9c-0.1,0.2-0.2,0.2-0.4,0.2s-0.3-0.1-0.4-0.2
			s-0.2-0.5-0.2-0.9s0.1-0.7,0.2-0.9C554.6,535,554.8,535,554.9,535"/>
		<path class="st6" d="M609.9,540.1c2.2,0,3.9-1.8,3.9-3.9s-1.8-3.9-3.9-3.9s-3.9,1.8-3.9,3.9S607.7,540.1,609.9,540.1"/>
		<path class="st9" d="M608.6,536.3v-0.7l-0.4,0.7H608.6z M608.6,537.1v-0.4h-0.7v-0.4l0.8-1.4h0.3v1.4h0.2v0.4H609v0.4H608.6
			L608.6,537.1z"/>
		<path class="st9" d="M609.3,536.5l0.3,0c0,0.1,0,0.2,0.1,0.2c0,0,0.1,0.1,0.2,0.1c0.1,0,0.1,0,0.2-0.1s0.1-0.2,0.1-0.3
			c0-0.1,0-0.2-0.1-0.2s-0.1-0.1-0.2-0.1c0,0-0.1,0-0.2,0l0-0.3c0.1,0,0.2,0,0.2-0.1c0,0,0.1-0.1,0.1-0.2c0-0.1,0-0.1,0-0.2
			c0,0-0.1-0.1-0.1-0.1s-0.1,0-0.2,0.1c0,0-0.1,0.1-0.1,0.2l-0.3-0.1c0-0.1,0-0.2,0.1-0.3c0-0.1,0.1-0.1,0.2-0.2s0.2-0.1,0.3-0.1
			c0.2,0,0.3,0.1,0.4,0.2c0.1,0.1,0.1,0.2,0.1,0.4c0,0.2-0.1,0.3-0.2,0.5c0.1,0,0.2,0.1,0.2,0.2c0.1,0.1,0.1,0.2,0.1,0.3
			c0,0.2-0.1,0.3-0.2,0.5c-0.1,0.1-0.2,0.2-0.4,0.2c-0.2,0-0.3-0.1-0.4-0.2C609.4,536.9,609.3,536.7,609.3,536.5"/>
		<path class="st9" d="M611.4,535.7c0-0.1,0-0.2-0.1-0.3s-0.1-0.1-0.2-0.1s-0.1,0-0.2,0.1c0,0.1-0.1,0.2-0.1,0.3s0,0.2,0.1,0.3
			c0,0.1,0.1,0.1,0.2,0.1s0.1,0,0.2-0.1S611.4,535.9,611.4,535.7 M610.7,536.6l0.3,0c0,0.1,0,0.1,0.1,0.2c0,0,0.1,0.1,0.1,0.1
			c0.1,0,0.1,0,0.2-0.1s0.1-0.2,0.1-0.5c-0.1,0.1-0.2,0.2-0.3,0.2c-0.1,0-0.3-0.1-0.4-0.2s-0.2-0.3-0.2-0.5s0-0.4,0.2-0.5
			s0.2-0.2,0.4-0.2c0.2,0,0.3,0.1,0.4,0.2c0.1,0.2,0.2,0.5,0.2,0.8s-0.1,0.7-0.2,0.9c-0.1,0.2-0.3,0.3-0.5,0.3c-0.1,0-0.2,0-0.3-0.1
			S610.7,536.8,610.7,536.6"/>
		<path class="st6" d="M650,540.1c2.2,0,3.9-1.8,3.9-3.9s-1.8-3.9-3.9-3.9s-3.9,1.8-3.9,3.9S647.8,540.1,650,540.1"/>
		<path class="st9" d="M648.7,536.3v-0.7l-0.4,0.7H648.7z M648.7,537.1v-0.4H648v-0.4l0.8-1.4h0.3v1.4h0.2v0.4h-0.2v0.4H648.7
			L648.7,537.1z"/>
		<path class="st9" d="M649.4,536.5l0.3,0c0,0.1,0,0.2,0.1,0.2c0,0,0.1,0.1,0.2,0.1c0.1,0,0.1,0,0.2-0.1s0.1-0.2,0.1-0.3
			c0-0.1,0-0.2-0.1-0.2s-0.1-0.1-0.2-0.1c0,0-0.1,0-0.2,0l0-0.3c0.1,0,0.2,0,0.2-0.1c0,0,0.1-0.1,0.1-0.2c0-0.1,0-0.1,0-0.2
			c0,0-0.1-0.1-0.1-0.1s-0.1,0-0.2,0.1c0,0-0.1,0.1-0.1,0.2l-0.3-0.1c0-0.1,0-0.2,0.1-0.3c0-0.1,0.1-0.1,0.2-0.2s0.2-0.1,0.3-0.1
			c0.2,0,0.3,0.1,0.4,0.2c0.1,0.1,0.1,0.2,0.1,0.4c0,0.2-0.1,0.3-0.2,0.5c0.1,0,0.2,0.1,0.2,0.2c0.1,0.1,0.1,0.2,0.1,0.3
			c0,0.2-0.1,0.3-0.2,0.5s-0.2,0.2-0.4,0.2c-0.2,0-0.3-0.1-0.4-0.2C649.5,536.9,649.4,536.7,649.4,536.5"/>
		<path class="st9" d="M651.1,536.5c0,0.1,0,0.2,0.1,0.3c0,0.1,0.1,0.1,0.2,0.1s0.1,0,0.2-0.1c0-0.1,0.1-0.2,0.1-0.3
			c0-0.1,0-0.2-0.1-0.2s-0.1-0.1-0.2-0.1c-0.1,0-0.1,0-0.2,0.1S651.1,536.4,651.1,536.5 M651.1,535.5c0,0.1,0,0.2,0.1,0.2
			c0,0,0.1,0.1,0.2,0.1s0.1,0,0.2-0.1c0,0,0.1-0.1,0.1-0.2s0-0.1-0.1-0.2s-0.1-0.1-0.2-0.1c-0.1,0-0.1,0-0.2,0.1
			C651.1,535.4,651.1,535.5,651.1,535.5 M651,536c-0.1,0-0.2-0.1-0.2-0.2s-0.1-0.2-0.1-0.3c0-0.2,0-0.3,0.1-0.4
			c0.1-0.1,0.2-0.2,0.4-0.2s0.3,0,0.4,0.2s0.1,0.2,0.1,0.4c0,0.1,0,0.2-0.1,0.3s-0.1,0.1-0.2,0.2c0.1,0,0.2,0.1,0.2,0.2
			s0.1,0.2,0.1,0.3c0,0.2,0,0.4-0.2,0.5c-0.1,0.1-0.2,0.2-0.4,0.2c-0.2,0-0.3,0-0.4-0.2c-0.1-0.1-0.2-0.3-0.2-0.5
			c0-0.1,0-0.2,0.1-0.3C650.9,536.1,651,536,651,536"/>
		<path class="st6" d="M682.9,540.1c2.2,0,3.9-1.8,3.9-3.9s-1.8-3.9-3.9-3.9s-3.9,1.8-3.9,3.9S680.8,540.1,682.9,540.1"/>
		<path class="st9" d="M681.7,536.3v-0.7l-0.4,0.7H681.7z M681.7,537.1v-0.4h-0.7v-0.4l0.8-1.4h0.3v1.4h0.2v0.4H682v0.4H681.7
			L681.7,537.1z"/>
		<path class="st9" d="M682.3,536.5l0.3,0c0,0.1,0,0.2,0.1,0.2c0,0,0.1,0.1,0.2,0.1c0.1,0,0.1,0,0.2-0.1s0.1-0.2,0.1-0.3
			c0-0.1,0-0.2-0.1-0.2s-0.1-0.1-0.2-0.1c0,0-0.1,0-0.2,0l0-0.3c0.1,0,0.2,0,0.2-0.1c0,0,0.1-0.1,0.1-0.2c0-0.1,0-0.1,0-0.2
			c0,0-0.1-0.1-0.1-0.1s-0.1,0-0.2,0.1c0,0-0.1,0.1-0.1,0.2l-0.3-0.1c0-0.1,0-0.2,0.1-0.3c0-0.1,0.1-0.1,0.2-0.2s0.2-0.1,0.3-0.1
			c0.2,0,0.3,0.1,0.4,0.2c0.1,0.1,0.1,0.2,0.1,0.4c0,0.2-0.1,0.3-0.2,0.5c0.1,0,0.2,0.1,0.2,0.2c0.1,0.1,0.1,0.2,0.1,0.3
			c0,0.2-0.1,0.3-0.2,0.5c-0.1,0.1-0.2,0.2-0.4,0.2c-0.2,0-0.3-0.1-0.4-0.2C682.4,536.9,682.4,536.7,682.3,536.5"/>
		<path class="st9" d="M683.7,535.4V535h1.2v0.3c-0.1,0.1-0.2,0.3-0.3,0.5c-0.1,0.2-0.2,0.4-0.2,0.7c0,0.2-0.1,0.5-0.1,0.7h-0.3
			c0-0.3,0-0.6,0.2-0.9c0.1-0.3,0.2-0.6,0.4-0.8H683.7L683.7,535.4z"/>
		<path class="st4" d="M720.6,540.1c2.2,0,3.9-1.8,3.9-3.9s-1.8-3.9-3.9-3.9s-3.9,1.8-3.9,3.9S718.5,540.1,720.6,540.1"/>
		<path class="st9" d="M719.4,536.3v-0.7l-0.4,0.7H719.4z M719.4,537.1v-0.4h-0.7v-0.4l0.8-1.4h0.3v1.4h0.2v0.4h-0.2v0.4H719.4
			L719.4,537.1z"/>
		<path class="st9" d="M720,536.5l0.3,0c0,0.1,0,0.2,0.1,0.2c0,0,0.1,0.1,0.2,0.1c0.1,0,0.1,0,0.2-0.1s0.1-0.2,0.1-0.3
			c0-0.1,0-0.2-0.1-0.2s-0.1-0.1-0.2-0.1c0,0-0.1,0-0.2,0l0-0.3c0.1,0,0.2,0,0.2-0.1c0,0,0.1-0.1,0.1-0.2c0-0.1,0-0.1,0-0.2
			c0,0-0.1-0.1-0.1-0.1s-0.1,0-0.2,0.1c0,0-0.1,0.1-0.1,0.2l-0.3-0.1c0-0.1,0-0.2,0.1-0.3c0-0.1,0.1-0.1,0.2-0.2s0.2-0.1,0.3-0.1
			c0.2,0,0.3,0.1,0.4,0.2c0.1,0.1,0.1,0.2,0.1,0.4c0,0.2-0.1,0.3-0.2,0.5c0.1,0,0.2,0.1,0.2,0.2c0.1,0.1,0.1,0.2,0.1,0.3
			c0,0.2-0.1,0.3-0.2,0.5c-0.1,0.1-0.2,0.2-0.4,0.2c-0.2,0-0.3-0.1-0.4-0.2C720.1,536.9,720.1,536.7,720,536.5"/>
		<path class="st9" d="M721.8,536.4c0,0.1,0,0.2,0.1,0.3s0.1,0.1,0.2,0.1s0.1,0,0.2-0.1c0-0.1,0.1-0.2,0.1-0.3s0-0.2-0.1-0.3
			c0-0.1-0.1-0.1-0.2-0.1s-0.1,0-0.2,0.1S721.8,536.3,721.8,536.4 M722.5,535.5l-0.3,0c0-0.1,0-0.1-0.1-0.2c0,0-0.1-0.1-0.1-0.1
			c-0.1,0-0.1,0-0.2,0.1s-0.1,0.2-0.1,0.5c0.1-0.1,0.2-0.2,0.3-0.2c0.1,0,0.3,0.1,0.4,0.2s0.2,0.3,0.2,0.5c0,0.2,0,0.4-0.2,0.5
			s-0.2,0.2-0.4,0.2c-0.2,0-0.3-0.1-0.4-0.2c-0.1-0.2-0.2-0.5-0.2-0.8s0.1-0.7,0.2-0.9c0.1-0.2,0.3-0.3,0.5-0.3c0.1,0,0.2,0,0.3,0.1
			S722.5,535.3,722.5,535.5"/>
		<path class="st4" d="M769,540.1c2.2,0,3.9-1.8,3.9-3.9s-1.8-3.9-3.9-3.9s-3.9,1.8-3.9,3.9S766.9,540.1,769,540.1"/>
		<path class="st9" d="M767.8,536.3v-0.7l-0.4,0.7H767.8z M767.8,537.1v-0.4H767v-0.4l0.8-1.4h0.3v1.4h0.2v0.4h-0.2v0.4H767.8
			L767.8,537.1z"/>
		<path class="st9" d="M768.4,536.5l0.3,0c0,0.1,0,0.2,0.1,0.2c0,0,0.1,0.1,0.2,0.1c0.1,0,0.1,0,0.2-0.1s0.1-0.2,0.1-0.3
			c0-0.1,0-0.2-0.1-0.2s-0.1-0.1-0.2-0.1c0,0-0.1,0-0.2,0l0-0.3c0.1,0,0.2,0,0.2-0.1c0,0,0.1-0.1,0.1-0.2c0-0.1,0-0.1,0-0.2
			c0,0-0.1-0.1-0.1-0.1s-0.1,0-0.2,0.1c0,0-0.1,0.1-0.1,0.2l-0.3-0.1c0-0.1,0-0.2,0.1-0.3c0-0.1,0.1-0.1,0.2-0.2s0.2-0.1,0.3-0.1
			c0.2,0,0.3,0.1,0.4,0.2c0.1,0.1,0.1,0.2,0.1,0.4c0,0.2-0.1,0.3-0.2,0.5c0.1,0,0.2,0.1,0.2,0.2c0.1,0.1,0.1,0.2,0.1,0.3
			c0,0.2-0.1,0.3-0.2,0.5s-0.2,0.2-0.4,0.2c-0.2,0-0.3-0.1-0.4-0.2C768.5,536.9,768.5,536.7,768.4,536.5"/>
		<path class="st9" d="M769.8,536.6l0.3,0c0,0.1,0,0.2,0.1,0.2c0,0,0.1,0.1,0.2,0.1c0.1,0,0.1,0,0.2-0.1s0.1-0.2,0.1-0.3
			c0-0.1,0-0.2-0.1-0.3s-0.1-0.1-0.2-0.1c-0.1,0-0.2,0-0.3,0.2l-0.3,0l0.2-1.1h0.9v0.4h-0.6l0,0.4c0.1,0,0.2-0.1,0.2-0.1
			c0.2,0,0.3,0.1,0.4,0.2s0.2,0.3,0.2,0.5c0,0.2,0,0.3-0.1,0.5c-0.1,0.2-0.3,0.3-0.5,0.3c-0.2,0-0.3,0-0.4-0.2
			C769.9,536.9,769.8,536.8,769.8,536.6"/>
		<path class="st4" d="M806.3,540.1c2.2,0,3.9-1.8,3.9-3.9s-1.8-3.9-3.9-3.9s-3.9,1.8-3.9,3.9S804.1,540.1,806.3,540.1"/>
		<path class="st9" d="M805,536.3v-0.7l-0.4,0.7H805z M805,537.1v-0.4h-0.7v-0.4l0.8-1.4h0.3v1.4h0.2v0.4h-0.2v0.4H805L805,537.1z"
			/>
		<path class="st9" d="M805.7,536.5l0.3,0c0,0.1,0,0.2,0.1,0.2c0,0,0.1,0.1,0.2,0.1c0.1,0,0.1,0,0.2-0.1s0.1-0.2,0.1-0.3
			c0-0.1,0-0.2-0.1-0.2s-0.1-0.1-0.2-0.1c0,0-0.1,0-0.2,0l0-0.3c0.1,0,0.2,0,0.2-0.1c0,0,0.1-0.1,0.1-0.2c0-0.1,0-0.1,0-0.2
			c0,0-0.1-0.1-0.1-0.1s-0.1,0-0.2,0.1c0,0-0.1,0.1-0.1,0.2l-0.3-0.1c0-0.1,0-0.2,0.1-0.3c0-0.1,0.1-0.1,0.2-0.2s0.2-0.1,0.3-0.1
			c0.2,0,0.3,0.1,0.4,0.2c0.1,0.1,0.1,0.2,0.1,0.4c0,0.2-0.1,0.3-0.2,0.5c0.1,0,0.2,0.1,0.2,0.2c0.1,0.1,0.1,0.2,0.1,0.3
			c0,0.2-0.1,0.3-0.2,0.5s-0.2,0.2-0.4,0.2c-0.2,0-0.3-0.1-0.4-0.2C805.8,536.9,805.7,536.7,805.7,536.5"/>
		<path class="st9" d="M807.7,536.3v-0.7l-0.4,0.7H807.7z M807.7,537.1v-0.4H807v-0.4l0.8-1.4h0.3v1.4h0.2v0.4H808v0.4H807.7
			L807.7,537.1z"/>
		<path class="st4" d="M838.7,540.1c2.2,0,3.9-1.8,3.9-3.9s-1.8-3.9-3.9-3.9s-3.9,1.8-3.9,3.9S836.5,540.1,838.7,540.1"/>
		<path class="st9" d="M837.4,536.3v-0.7l-0.4,0.7H837.4z M837.4,537.1v-0.4h-0.7v-0.4l0.8-1.4h0.3v1.4h0.2v0.4h-0.2v0.4H837.4
			L837.4,537.1z"/>
		<path class="st9" d="M838,536.5l0.3,0c0,0.1,0,0.2,0.1,0.2c0,0,0.1,0.1,0.2,0.1c0.1,0,0.1,0,0.2-0.1s0.1-0.2,0.1-0.3
			c0-0.1,0-0.2-0.1-0.2s-0.1-0.1-0.2-0.1c0,0-0.1,0-0.2,0l0-0.3c0.1,0,0.2,0,0.2-0.1c0,0,0.1-0.1,0.1-0.2c0-0.1,0-0.1,0-0.2
			c0,0-0.1-0.1-0.1-0.1s-0.1,0-0.2,0.1c0,0-0.1,0.1-0.1,0.2l-0.3-0.1c0-0.1,0-0.2,0.1-0.3c0-0.1,0.1-0.1,0.2-0.2s0.2-0.1,0.3-0.1
			c0.2,0,0.3,0.1,0.4,0.2c0.1,0.1,0.1,0.2,0.1,0.4c0,0.2-0.1,0.3-0.2,0.5c0.1,0,0.2,0.1,0.2,0.2c0.1,0.1,0.1,0.2,0.1,0.3
			c0,0.2-0.1,0.3-0.2,0.5s-0.2,0.2-0.4,0.2c-0.2,0-0.3-0.1-0.4-0.2C838.1,536.9,838.1,536.7,838,536.5"/>
		<path class="st9" d="M839.4,536.5l0.3,0c0,0.1,0,0.2,0.1,0.2c0,0,0.1,0.1,0.2,0.1c0.1,0,0.1,0,0.2-0.1s0.1-0.2,0.1-0.3
			c0-0.1,0-0.2-0.1-0.2s-0.1-0.1-0.2-0.1c0,0-0.1,0-0.2,0l0-0.3c0.1,0,0.2,0,0.2-0.1c0,0,0.1-0.1,0.1-0.2c0-0.1,0-0.1,0-0.2
			c0,0-0.1-0.1-0.1-0.1s-0.1,0-0.2,0.1c0,0-0.1,0.1-0.1,0.2l-0.3-0.1c0-0.1,0-0.2,0.1-0.3c0-0.1,0.1-0.1,0.2-0.2s0.2-0.1,0.3-0.1
			c0.2,0,0.3,0.1,0.4,0.2c0.1,0.1,0.1,0.2,0.1,0.4c0,0.2-0.1,0.3-0.2,0.5c0.1,0,0.2,0.1,0.2,0.2c0.1,0.1,0.1,0.2,0.1,0.3
			c0,0.2-0.1,0.3-0.2,0.5c-0.1,0.1-0.2,0.2-0.4,0.2c-0.2,0-0.3-0.1-0.4-0.2C839.5,536.9,839.4,536.7,839.4,536.5"/>
		<path class="st4" d="M883,540.1c2.2,0,3.9-1.8,3.9-3.9s-1.8-3.9-3.9-3.9s-3.9,1.8-3.9,3.9S880.8,540.1,883,540.1"/>
		<path class="st9" d="M881.7,536.3v-0.7l-0.4,0.7H881.7z M881.7,537.1v-0.4H881v-0.4l0.8-1.4h0.3v1.4h0.2v0.4H882v0.4H881.7
			L881.7,537.1z"/>
		<path class="st9" d="M882.4,536.5l0.3,0c0,0.1,0,0.2,0.1,0.2c0,0,0.1,0.1,0.2,0.1c0.1,0,0.1,0,0.2-0.1s0.1-0.2,0.1-0.3
			c0-0.1,0-0.2-0.1-0.2s-0.1-0.1-0.2-0.1c0,0-0.1,0-0.2,0l0-0.3c0.1,0,0.2,0,0.2-0.1c0,0,0.1-0.1,0.1-0.2c0-0.1,0-0.1,0-0.2
			c0,0-0.1-0.1-0.1-0.1s-0.1,0-0.2,0.1c0,0-0.1,0.1-0.1,0.2l-0.3-0.1c0-0.1,0-0.2,0.1-0.3c0-0.1,0.1-0.1,0.2-0.2s0.2-0.1,0.3-0.1
			c0.2,0,0.3,0.1,0.4,0.2c0.1,0.1,0.1,0.2,0.1,0.4c0,0.2-0.1,0.3-0.2,0.5c0.1,0,0.2,0.1,0.2,0.2c0.1,0.1,0.1,0.2,0.1,0.3
			c0,0.2-0.1,0.3-0.2,0.5c-0.1,0.1-0.2,0.2-0.4,0.2c-0.2,0-0.3-0.1-0.4-0.2C882.5,536.9,882.4,536.7,882.4,536.5"/>
		<path class="st9" d="M884.6,537.1h-0.3v-1.6c-0.1,0.1-0.3,0.2-0.4,0.3v-0.4c0.1,0,0.2-0.1,0.3-0.2c0.1-0.1,0.2-0.2,0.2-0.3h0.3
			V537.1z"/>
		<path class="st4" d="M904.4,530.2c2.2,0,3.9-1.8,3.9-3.9s-1.8-3.9-3.9-3.9s-3.9,1.8-3.9,3.9S902.2,530.2,904.4,530.2"/>
		<path class="st9" d="M903.1,526.5v-0.7l-0.4,0.7H903.1z M903.1,527.3v-0.4h-0.7v-0.4l0.8-1.4h0.3v1.4h0.2v0.4h-0.2v0.4H903.1
			L903.1,527.3z"/>
		<path class="st9" d="M903.8,526.7l0.3,0c0,0.1,0,0.2,0.1,0.2c0,0,0.1,0.1,0.2,0.1c0.1,0,0.1,0,0.2-0.1s0.1-0.2,0.1-0.3
			c0-0.1,0-0.2-0.1-0.2s-0.1-0.1-0.2-0.1c0,0-0.1,0-0.2,0l0-0.3c0.1,0,0.2,0,0.2-0.1c0,0,0.1-0.1,0.1-0.2c0-0.1,0-0.1,0-0.2
			c0,0-0.1-0.1-0.1-0.1s-0.1,0-0.2,0.1c0,0-0.1,0.1-0.1,0.2l-0.3-0.1c0-0.1,0-0.2,0.1-0.3c0-0.1,0.1-0.1,0.2-0.2s0.2-0.1,0.3-0.1
			c0.2,0,0.3,0.1,0.4,0.2c0.1,0.1,0.1,0.2,0.1,0.4c0,0.2-0.1,0.3-0.2,0.5c0.1,0,0.2,0.1,0.2,0.2c0.1,0.1,0.1,0.2,0.1,0.3
			c0,0.2-0.1,0.3-0.2,0.5s-0.2,0.2-0.4,0.2c-0.2,0-0.3-0.1-0.4-0.2C903.9,527,903.8,526.9,903.8,526.7"/>
		<path class="st9" d="M905.7,525.5c0,0-0.1,0-0.1,0c0,0-0.1,0.1-0.1,0.2c0,0.1,0,0.3,0,0.5s0,0.4,0,0.5c0,0.1,0,0.2,0.1,0.2
			s0.1,0,0.1,0s0.1,0,0.1,0c0,0,0.1-0.1,0.1-0.2c0-0.1,0-0.3,0-0.5s0-0.4,0-0.5c0-0.1,0-0.2-0.1-0.2S905.8,525.5,905.7,525.5
			 M905.7,525.1c0.2,0,0.3,0.1,0.4,0.2c0.1,0.2,0.2,0.5,0.2,0.9s-0.1,0.7-0.2,0.9c-0.1,0.2-0.2,0.2-0.4,0.2s-0.3-0.1-0.4-0.2
			s-0.2-0.5-0.2-0.9s0.1-0.7,0.2-0.9C905.4,525.2,905.5,525.1,905.7,525.1"/>
		<path class="st4" d="M862.4,540.1c2.2,0,3.9-1.8,3.9-3.9s-1.8-3.9-3.9-3.9s-3.9,1.8-3.9,3.9S860.2,540.1,862.4,540.1"/>
		<path class="st9" d="M860.5,536.3v-0.7l-0.4,0.7H860.5z M860.5,537.1v-0.4h-0.7v-0.4l0.8-1.4h0.3v1.4h0.2v0.4h-0.2v0.4H860.5
			L860.5,537.1z"/>
		<path class="st9" d="M861.2,536.5l0.3,0c0,0.1,0,0.2,0.1,0.2c0,0,0.1,0.1,0.2,0.1c0.1,0,0.1,0,0.2-0.1s0.1-0.2,0.1-0.3
			c0-0.1,0-0.2-0.1-0.2s-0.1-0.1-0.2-0.1c0,0-0.1,0-0.2,0l0-0.3c0.1,0,0.2,0,0.2-0.1c0,0,0.1-0.1,0.1-0.2c0-0.1,0-0.1,0-0.2
			c0,0-0.1-0.1-0.1-0.1s-0.1,0-0.2,0.1c0,0-0.1,0.1-0.1,0.2l-0.3-0.1c0-0.1,0-0.2,0.1-0.3c0-0.1,0.1-0.1,0.2-0.2s0.2-0.1,0.3-0.1
			c0.2,0,0.3,0.1,0.4,0.2c0.1,0.1,0.1,0.2,0.1,0.4c0,0.2-0.1,0.3-0.2,0.5c0.1,0,0.2,0.1,0.2,0.2c0.1,0.1,0.1,0.2,0.1,0.3
			c0,0.2-0.1,0.3-0.2,0.5s-0.2,0.2-0.4,0.2c-0.2,0-0.3-0.1-0.4-0.2C861.3,536.9,861.2,536.7,861.2,536.5"/>
		<path class="st9" d="M863.7,536.7v0.4h-1.2c0-0.2,0-0.3,0.1-0.4c0.1-0.1,0.2-0.3,0.4-0.5c0.2-0.2,0.2-0.3,0.3-0.3
			c0-0.1,0.1-0.2,0.1-0.2c0-0.1,0-0.2-0.1-0.2c0,0-0.1-0.1-0.2-0.1s-0.1,0-0.2,0.1s-0.1,0.1-0.1,0.3l-0.3,0c0-0.2,0.1-0.4,0.2-0.5
			s0.2-0.2,0.4-0.2c0.2,0,0.3,0.1,0.4,0.2s0.2,0.3,0.2,0.4c0,0.1,0,0.2,0,0.3c0,0.1-0.1,0.2-0.1,0.3c0,0.1-0.1,0.2-0.2,0.3
			c-0.1,0.1-0.2,0.2-0.2,0.2s0,0.1-0.1,0.1L863.7,536.7L863.7,536.7z"/>
		<path class="st6" d="M323.1,495.8c2.2,0,3.9-1.8,3.9-3.9s-1.8-3.9-3.9-3.9s-3.9,1.8-3.9,3.9S320.9,495.8,323.1,495.8"/>
		<path class="st9" d="M321.8,492v-0.7l-0.4,0.7H321.8z M321.8,492.8v-0.4h-0.7V492l0.8-1.4h0.3v1.4h0.2v0.4h-0.2v0.4H321.8
			L321.8,492.8z"/>
		<path class="st9" d="M323.1,491c0,0-0.1,0-0.1,0s-0.1,0.1-0.1,0.2c0,0.1,0,0.3,0,0.5s0,0.4,0,0.5s0,0.2,0.1,0.2s0.1,0,0.1,0
			s0.1,0,0.1,0s0.1-0.1,0.1-0.2c0-0.1,0-0.3,0-0.5s0-0.4,0-0.5c0-0.1,0-0.2-0.1-0.2S323.1,491,323.1,491 M323.1,490.6
			c0.2,0,0.3,0.1,0.4,0.2c0.1,0.2,0.2,0.5,0.2,0.9s-0.1,0.7-0.2,0.9c-0.1,0.1-0.2,0.2-0.4,0.2s-0.3-0.1-0.4-0.2s-0.2-0.5-0.2-0.9
			s0.1-0.7,0.2-0.9C322.8,490.7,322.9,490.6,323.1,490.6"/>
		<path class="st9" d="M323.9,492.2l0.3,0c0,0.1,0,0.2,0.1,0.2c0,0,0.1,0.1,0.2,0.1c0.1,0,0.1,0,0.2-0.1c0-0.1,0.1-0.2,0.1-0.3
			c0-0.1,0-0.2-0.1-0.3c0-0.1-0.1-0.1-0.2-0.1c-0.1,0-0.2,0-0.3,0.2l-0.3,0l0.2-1.1h0.9v0.4h-0.6l0,0.4c0.1,0,0.1-0.1,0.2-0.1
			c0.1,0,0.3,0.1,0.4,0.2c0.1,0.1,0.2,0.3,0.2,0.5c0,0.2,0,0.3-0.1,0.5c-0.1,0.2-0.3,0.3-0.5,0.3c-0.2,0-0.3,0-0.4-0.2
			C323.9,492.6,323.9,492.4,323.9,492.2"/>
		<path class="st6" d="M387.6,495.8c2.2,0,3.9-1.8,3.9-3.9s-1.8-3.9-3.9-3.9s-3.9,1.8-3.9,3.9S385.5,495.8,387.6,495.8"/>
		<path class="st9" d="M386.4,492v-0.7L386,492H386.4z M386.4,492.8v-0.4h-0.7V492l0.8-1.4h0.3v1.4h0.2v0.4h-0.2v0.4H386.4
			L386.4,492.8z"/>
		<path class="st9" d="M387.6,491c0,0-0.1,0-0.1,0s-0.1,0.1-0.1,0.2c0,0.1,0,0.3,0,0.5s0,0.4,0,0.5s0,0.2,0.1,0.2s0.1,0,0.1,0
			s0.1,0,0.1,0s0.1-0.1,0.1-0.2c0-0.1,0-0.3,0-0.5s0-0.4,0-0.5c0-0.1,0-0.2-0.1-0.2S387.6,491,387.6,491 M387.6,490.6
			c0.2,0,0.3,0.1,0.4,0.2c0.1,0.2,0.2,0.5,0.2,0.9s-0.1,0.7-0.2,0.9c-0.1,0.1-0.2,0.2-0.4,0.2s-0.3-0.1-0.4-0.2s-0.2-0.5-0.2-0.9
			s0.1-0.7,0.2-0.9C387.3,490.7,387.4,490.6,387.6,490.6"/>
		<path class="st9" d="M388.8,492.1c0,0.1,0,0.2,0.1,0.3c0,0.1,0.1,0.1,0.2,0.1s0.1,0,0.2-0.1c0-0.1,0.1-0.2,0.1-0.3s0-0.2-0.1-0.3
			c0-0.1-0.1-0.1-0.2-0.1s-0.1,0-0.2,0.1S388.8,491.9,388.8,492.1 M389.5,491.1l-0.3,0c0-0.1,0-0.1-0.1-0.2c0,0-0.1-0.1-0.1-0.1
			c-0.1,0-0.1,0-0.2,0.1s-0.1,0.2-0.1,0.5c0.1-0.1,0.2-0.2,0.3-0.2c0.1,0,0.3,0.1,0.4,0.2c0.1,0.1,0.1,0.3,0.1,0.5
			c0,0.2,0,0.4-0.2,0.5c-0.1,0.1-0.2,0.2-0.4,0.2c-0.2,0-0.3-0.1-0.4-0.2c-0.1-0.2-0.2-0.5-0.2-0.8s0.1-0.7,0.2-0.9
			c0.1-0.2,0.3-0.3,0.5-0.3c0.1,0,0.2,0,0.3,0.1C389.4,490.8,389.5,491,389.5,491.1"/>
		<path class="st6" d="M489.8,495.8c2.2,0,3.9-1.8,3.9-3.9s-1.8-3.9-3.9-3.9s-3.9,1.8-3.9,3.9S487.6,495.8,489.8,495.8"/>
		<path class="st9" d="M488.5,492v-0.7l-0.4,0.7H488.5z M488.5,492.8v-0.4h-0.7V492l0.8-1.4h0.3v1.4h0.2v0.4h-0.2v0.4H488.5
			L488.5,492.8z"/>
		<path class="st9" d="M489.7,491c0,0-0.1,0-0.1,0s-0.1,0.1-0.1,0.2c0,0.1,0,0.3,0,0.5s0,0.4,0,0.5s0,0.2,0.1,0.2s0.1,0,0.1,0
			s0.1,0,0.1,0s0.1-0.1,0.1-0.2c0-0.1,0-0.3,0-0.5s0-0.4,0-0.5c0-0.1,0-0.2-0.1-0.2S489.8,491,489.7,491 M489.7,490.6
			c0.2,0,0.3,0.1,0.4,0.2c0.1,0.2,0.2,0.5,0.2,0.9s-0.1,0.7-0.2,0.9c-0.1,0.1-0.2,0.2-0.4,0.2s-0.3-0.1-0.4-0.2
			c-0.1-0.2-0.2-0.5-0.2-0.9s0.1-0.7,0.2-0.9C489.4,490.7,489.6,490.6,489.7,490.6"/>
		<path class="st9" d="M490.5,491v-0.4h1.1v0.3c-0.1,0.1-0.2,0.3-0.3,0.5c-0.1,0.2-0.2,0.4-0.2,0.7c0,0.2-0.1,0.5-0.1,0.6h-0.3
			c0-0.3,0.1-0.6,0.1-0.9c0.1-0.3,0.2-0.6,0.4-0.8L490.5,491L490.5,491z"/>
		<path class="st6" d="M512.9,495.8c2.2,0,3.9-1.8,3.9-3.9s-1.8-3.9-3.9-3.9s-3.9,1.8-3.9,3.9S510.7,495.8,512.9,495.8"/>
		<path class="st9" d="M511.6,492v-0.7l-0.4,0.7H511.6z M511.6,492.8v-0.4h-0.7V492l0.8-1.4h0.3v1.4h0.2v0.4h-0.2v0.4H511.6
			L511.6,492.8z"/>
		<path class="st9" d="M512.8,491c0,0-0.1,0-0.1,0c0,0-0.1,0.1-0.1,0.2c0,0.1,0,0.3,0,0.5s0,0.4,0,0.5s0,0.2,0.1,0.2s0.1,0,0.1,0
			s0.1,0,0.1,0c0,0,0.1-0.1,0.1-0.2c0-0.1,0-0.3,0-0.5s0-0.4,0-0.5c0-0.1,0-0.2-0.1-0.2S512.9,491,512.8,491 M512.8,490.6
			c0.2,0,0.3,0.1,0.4,0.2c0.1,0.2,0.2,0.5,0.2,0.9s-0.1,0.7-0.2,0.9c-0.1,0.1-0.2,0.2-0.4,0.2s-0.3-0.1-0.4-0.2s-0.2-0.5-0.2-0.9
			s0.1-0.7,0.2-0.9C512.5,490.7,512.7,490.6,512.8,490.6"/>
		<path class="st9" d="M514,492.1c0,0.1,0,0.2,0.1,0.3c0,0.1,0.1,0.1,0.2,0.1s0.1,0,0.2-0.1c0-0.1,0.1-0.1,0.1-0.3
			c0-0.1,0-0.2-0.1-0.2c0-0.1-0.1-0.1-0.2-0.1c-0.1,0-0.1,0-0.2,0.1C514,492,514,492.1,514,492.1 M514,491.2c0,0.1,0,0.1,0.1,0.2
			c0,0,0.1,0.1,0.2,0.1s0.1,0,0.2-0.1c0,0,0.1-0.1,0.1-0.2c0-0.1,0-0.1-0.1-0.2s-0.1-0.1-0.2-0.1c-0.1,0-0.1,0-0.2,0.1
			C514,491.1,514,491.1,514,491.2 M513.9,491.6c-0.1,0-0.2-0.1-0.2-0.2c0-0.1-0.1-0.2-0.1-0.3c0-0.2,0-0.3,0.1-0.4
			c0.1-0.1,0.2-0.2,0.4-0.2s0.3,0,0.4,0.2c0.1,0.1,0.1,0.2,0.1,0.4c0,0.1,0,0.2-0.1,0.3s-0.1,0.1-0.2,0.2c0.1,0,0.2,0.1,0.2,0.2
			s0.1,0.2,0.1,0.3c0,0.2,0,0.4-0.2,0.5c-0.1,0.1-0.2,0.2-0.4,0.2c-0.2,0-0.3,0-0.4-0.1c-0.1-0.1-0.2-0.3-0.2-0.5
			c0-0.1,0-0.2,0.1-0.3C513.8,491.8,513.8,491.7,513.9,491.6"/>
		<path class="st6" d="M529.6,495.8c2.2,0,3.9-1.8,3.9-3.9s-1.8-3.9-3.9-3.9s-3.9,1.8-3.9,3.9S527.4,495.8,529.6,495.8"/>
		<path class="st9" d="M528.3,492v-0.7l-0.4,0.7H528.3z M528.3,492.8v-0.4h-0.7V492l0.8-1.4h0.3v1.4h0.2v0.4h-0.2v0.4H528.3
			L528.3,492.8z"/>
		<path class="st9" d="M529.6,491c0,0-0.1,0-0.1,0c0,0-0.1,0.1-0.1,0.2c0,0.1,0,0.3,0,0.5s0,0.4,0,0.5s0,0.2,0.1,0.2s0.1,0,0.1,0
			s0.1,0,0.1,0c0,0,0.1-0.1,0.1-0.2c0-0.1,0-0.3,0-0.5s0-0.4,0-0.5c0-0.1,0-0.2-0.1-0.2S529.6,491,529.6,491 M529.6,490.6
			c0.2,0,0.3,0.1,0.4,0.2c0.1,0.2,0.2,0.5,0.2,0.9s-0.1,0.7-0.2,0.9c-0.1,0.1-0.2,0.2-0.4,0.2s-0.3-0.1-0.4-0.2s-0.2-0.5-0.2-0.9
			s0.1-0.7,0.2-0.9C529.3,490.7,529.4,490.6,529.6,490.6"/>
		<path class="st9" d="M531.1,491.4c0-0.1,0-0.2-0.1-0.3s-0.1-0.1-0.2-0.1s-0.1,0-0.2,0.1c0,0.1-0.1,0.2-0.1,0.3s0,0.2,0.1,0.3
			c0,0.1,0.1,0.1,0.2,0.1s0.1,0,0.2-0.1C531.1,491.6,531.1,491.5,531.1,491.4 M530.3,492.3l0.3,0c0,0.1,0,0.1,0.1,0.2
			c0,0,0.1,0.1,0.1,0.1c0.1,0,0.1,0,0.2-0.1c0-0.1,0.1-0.2,0.1-0.5c-0.1,0.1-0.2,0.2-0.3,0.2c-0.1,0-0.3-0.1-0.4-0.2
			s-0.2-0.3-0.2-0.5s0-0.4,0.2-0.5s0.2-0.2,0.4-0.2c0.2,0,0.3,0.1,0.4,0.2c0.1,0.2,0.2,0.5,0.2,0.8s-0.1,0.7-0.2,0.9
			c-0.1,0.2-0.3,0.3-0.5,0.3c-0.1,0-0.2,0-0.3-0.1C530.4,492.6,530.4,492.5,530.3,492.3"/>
		<path class="st6" d="M554.2,495.8c2.2,0,3.9-1.8,3.9-3.9s-1.8-3.9-3.9-3.9s-3.9,1.8-3.9,3.9S552,495.8,554.2,495.8"/>
		<path class="st9" d="M552.9,492v-0.7l-0.4,0.7H552.9z M552.9,492.8v-0.4h-0.7V492l0.8-1.4h0.3v1.4h0.2v0.4h-0.2v0.4H552.9
			L552.9,492.8z"/>
		<path class="st9" d="M554.5,492.8h-0.3v-1.6c-0.1,0.1-0.3,0.2-0.4,0.3v-0.4c0.1,0,0.2-0.1,0.3-0.2c0.1-0.1,0.2-0.2,0.2-0.4h0.3
			V492.8L554.5,492.8z"/>
		<path class="st9" d="M555.5,491c0,0-0.1,0-0.1,0c0,0-0.1,0.1-0.1,0.2c0,0.1,0,0.3,0,0.5s0,0.4,0,0.5s0,0.2,0.1,0.2s0.1,0,0.1,0
			s0.1,0,0.1,0c0,0,0.1-0.1,0.1-0.2c0-0.1,0-0.3,0-0.5s0-0.4,0-0.5c0-0.1,0-0.2-0.1-0.2S555.6,491,555.5,491 M555.5,490.6
			c0.2,0,0.3,0.1,0.4,0.2c0.1,0.2,0.2,0.5,0.2,0.9s-0.1,0.7-0.2,0.9c-0.1,0.1-0.2,0.2-0.4,0.2s-0.3-0.1-0.4-0.2s-0.2-0.5-0.2-0.9
			s0.1-0.7,0.2-0.9C555.2,490.7,555.4,490.6,555.5,490.6"/>
		<path class="st8" d="M578.3,495.8c2.2,0,3.9-1.8,3.9-3.9s-1.8-3.9-3.9-3.9s-3.9,1.8-3.9,3.9S576.1,495.8,578.3,495.8"/>
		<path class="st9" d="M577,492v-0.7l-0.4,0.7H577z M577,492.8v-0.4h-0.7V492l0.8-1.4h0.3v1.4h0.2v0.4h-0.2v0.4H577L577,492.8z"/>
		<path class="st9" d="M578.6,492.8h-0.3v-1.6c-0.1,0.1-0.3,0.2-0.4,0.3v-0.4c0.1,0,0.2-0.1,0.3-0.2c0.1-0.1,0.2-0.2,0.2-0.4h0.3
			V492.8L578.6,492.8z"/>
		<path class="st9" d="M579.8,492.8h-0.3v-1.6c-0.1,0.1-0.3,0.2-0.4,0.3v-0.4c0.1,0,0.2-0.1,0.3-0.2c0.1-0.1,0.2-0.2,0.2-0.4h0.3
			V492.8L579.8,492.8z"/>
		<path class="st8" d="M617.4,495.8c2.2,0,3.9-1.8,3.9-3.9s-1.8-3.9-3.9-3.9s-3.9,1.8-3.9,3.9S615.2,495.8,617.4,495.8"/>
		<path class="st9" d="M616.1,492v-0.7l-0.4,0.7H616.1z M616.1,492.8v-0.4h-0.7V492l0.8-1.4h0.3v1.4h0.2v0.4h-0.2v0.4H616.1
			L616.1,492.8z"/>
		<path class="st9" d="M617.7,492.8h-0.3v-1.6c-0.1,0.1-0.3,0.2-0.4,0.3v-0.4c0.1,0,0.2-0.1,0.3-0.2c0.1-0.1,0.2-0.2,0.2-0.4h0.3
			V492.8L617.7,492.8z"/>
		<path class="st9" d="M619.3,492.4v0.4h-1.2c0-0.1,0-0.3,0.1-0.4s0.2-0.3,0.4-0.5c0.2-0.2,0.2-0.3,0.3-0.4c0-0.1,0.1-0.2,0.1-0.2
			c0-0.1,0-0.2-0.1-0.2s-0.1-0.1-0.2-0.1s-0.1,0-0.2,0.1s-0.1,0.1-0.1,0.3l-0.3,0c0-0.2,0.1-0.4,0.2-0.5c0.1-0.1,0.2-0.1,0.4-0.1
			c0.2,0,0.3,0.1,0.4,0.2s0.2,0.3,0.2,0.4c0,0.1,0,0.2,0,0.3c0,0.1-0.1,0.2-0.1,0.3c0,0.1-0.1,0.2-0.2,0.3s-0.2,0.2-0.2,0.2
			c0,0,0,0.1-0.1,0.1L619.3,492.4L619.3,492.4z"/>
		<path class="st4" d="M713.6,495.8c2.2,0,3.9-1.8,3.9-3.9s-1.8-3.9-3.9-3.9s-3.9,1.8-3.9,3.9S711.4,495.8,713.6,495.8"/>
		<path class="st9" d="M712.3,492v-0.7l-0.4,0.7H712.3z M712.3,492.8v-0.4h-0.7V492l0.8-1.4h0.3v1.4h0.2v0.4h-0.2v0.4H712.3
			L712.3,492.8z"/>
		<path class="st9" d="M713.8,492.8h-0.3v-1.6c-0.1,0.1-0.3,0.2-0.4,0.3v-0.4c0.1,0,0.2-0.1,0.3-0.2c0.1-0.1,0.2-0.2,0.2-0.4h0.3
			V492.8L713.8,492.8z"/>
		<path class="st9" d="M714.3,492.2l0.3,0c0,0.1,0,0.2,0.1,0.2c0,0,0.1,0.1,0.2,0.1c0.1,0,0.1,0,0.2-0.1s0.1-0.1,0.1-0.3
			c0-0.1,0-0.2-0.1-0.2s-0.1-0.1-0.2-0.1c0,0-0.1,0-0.2,0l0-0.3c0.1,0,0.2,0,0.2-0.1c0,0,0.1-0.1,0.1-0.2c0-0.1,0-0.1,0-0.2
			c0,0-0.1-0.1-0.1-0.1s-0.1,0-0.2,0.1c0,0-0.1,0.1-0.1,0.2l-0.3-0.1c0-0.1,0-0.2,0.1-0.3c0-0.1,0.1-0.1,0.2-0.2s0.2-0.1,0.3-0.1
			c0.2,0,0.3,0.1,0.4,0.2c0.1,0.1,0.1,0.2,0.1,0.4c0,0.2-0.1,0.3-0.2,0.5c0.1,0,0.2,0.1,0.2,0.2s0.1,0.2,0.1,0.3
			c0,0.2-0.1,0.4-0.2,0.5c-0.1,0.1-0.2,0.2-0.4,0.2c-0.2,0-0.3-0.1-0.4-0.2C714.4,492.5,714.3,492.4,714.3,492.2"/>
		<path class="st4" d="M745.3,495.8c2.2,0,3.9-1.8,3.9-3.9s-1.8-3.9-3.9-3.9s-3.9,1.8-3.9,3.9S743.1,495.8,745.3,495.8"/>
		<path class="st9" d="M744,492v-0.7l-0.4,0.7H744z M744,492.8v-0.4h-0.7V492l0.8-1.4h0.3v1.4h0.2v0.4h-0.2v0.4H744L744,492.8z"/>
		<path class="st9" d="M745.5,492.8h-0.3v-1.6c-0.1,0.1-0.3,0.2-0.4,0.3v-0.4c0.1,0,0.2-0.1,0.3-0.2c0.1-0.1,0.2-0.2,0.2-0.4h0.3
			V492.8L745.5,492.8z"/>
		<path class="st9" d="M746.7,492v-0.7l-0.4,0.7H746.7z M746.7,492.8v-0.4h-0.7V492l0.8-1.4h0.3v1.4h0.2v0.4H747v0.4H746.7
			L746.7,492.8z"/>
		<path class="st4" d="M784.7,495.8c2.2,0,3.9-1.8,3.9-3.9s-1.8-3.9-3.9-3.9s-3.9,1.8-3.9,3.9S782.5,495.8,784.7,495.8"/>
		<path class="st9" d="M783.4,492v-0.7L783,492H783.4z M783.4,492.8v-0.4h-0.7V492l0.8-1.4h0.3v1.4h0.2v0.4h-0.2v0.4H783.4
			L783.4,492.8z"/>
		<path class="st9" d="M784.9,492.8h-0.3v-1.6c-0.1,0.1-0.3,0.2-0.4,0.3v-0.4c0.1,0,0.2-0.1,0.3-0.2c0.1-0.1,0.2-0.2,0.2-0.4h0.3
			V492.8L784.9,492.8z"/>
		<path class="st9" d="M785.4,492.2l0.3,0c0,0.1,0,0.2,0.1,0.2c0,0,0.1,0.1,0.2,0.1c0.1,0,0.1,0,0.2-0.1c0-0.1,0.1-0.2,0.1-0.3
			c0-0.1,0-0.2-0.1-0.3c0-0.1-0.1-0.1-0.2-0.1c-0.1,0-0.2,0-0.3,0.2l-0.3,0l0.2-1.1h0.9v0.4h-0.6l0,0.4c0.1,0,0.2-0.1,0.2-0.1
			c0.2,0,0.3,0.1,0.4,0.2s0.2,0.3,0.2,0.5c0,0.2,0,0.3-0.1,0.5c-0.1,0.2-0.3,0.3-0.5,0.3c-0.2,0-0.3,0-0.4-0.2
			C785.5,492.6,785.4,492.4,785.4,492.2"/>
		<path class="st4" d="M831.8,495.8c2.2,0,3.9-1.8,3.9-3.9s-1.8-3.9-3.9-3.9s-3.9,1.8-3.9,3.9S829.6,495.8,831.8,495.8"/>
		<path class="st9" d="M830.5,492v-0.7l-0.4,0.7H830.5z M830.5,492.8v-0.4h-0.7V492l0.8-1.4h0.3v1.4h0.2v0.4h-0.2v0.4H830.5
			L830.5,492.8z"/>
		<path class="st9" d="M832,492.8h-0.3v-1.6c-0.1,0.1-0.3,0.2-0.4,0.3v-0.4c0.1,0,0.2-0.1,0.3-0.2c0.1-0.1,0.2-0.2,0.2-0.4h0.3
			V492.8L832,492.8z"/>
		<path class="st9" d="M832.9,492.1c0,0.1,0,0.2,0.1,0.3s0.1,0.1,0.2,0.1s0.1,0,0.2-0.1c0-0.1,0.1-0.2,0.1-0.3s0-0.2-0.1-0.3
			c0-0.1-0.1-0.1-0.2-0.1s-0.1,0-0.2,0.1S832.9,491.9,832.9,492.1 M833.7,491.1l-0.3,0c0-0.1,0-0.1-0.1-0.2c0,0-0.1-0.1-0.1-0.1
			c-0.1,0-0.1,0-0.2,0.1s-0.1,0.2-0.1,0.5c0.1-0.1,0.2-0.2,0.3-0.2c0.1,0,0.3,0.1,0.4,0.2s0.2,0.3,0.2,0.5c0,0.2,0,0.4-0.2,0.5
			s-0.2,0.2-0.4,0.2c-0.2,0-0.3-0.1-0.4-0.2c-0.1-0.2-0.2-0.5-0.2-0.8s0.1-0.7,0.2-0.9c0.1-0.2,0.3-0.3,0.5-0.3c0.1,0,0.2,0,0.3,0.1
			C833.6,490.8,833.6,491,833.7,491.1"/>
		<path class="st6" d="M864.8,495.8c2.2,0,3.9-1.8,3.9-3.9s-1.8-3.9-3.9-3.9s-3.9,1.8-3.9,3.9S862.6,495.8,864.8,495.8"/>
		<path class="st9" d="M863.5,492v-0.7l-0.4,0.7H863.5z M863.5,492.8v-0.4h-0.7V492l0.8-1.4h0.3v1.4h0.2v0.4h-0.2v0.4H863.5
			L863.5,492.8z"/>
		<path class="st9" d="M864.8,491c0,0-0.1,0-0.1,0c0,0-0.1,0.1-0.1,0.2c0,0.1,0,0.3,0,0.5s0,0.4,0,0.5s0,0.2,0.1,0.2s0.1,0,0.1,0
			s0.1,0,0.1,0c0,0,0.1-0.1,0.1-0.2c0-0.1,0-0.3,0-0.5s0-0.4,0-0.5c0-0.1,0-0.2-0.1-0.2S864.8,491,864.8,491 M864.8,490.6
			c0.2,0,0.3,0.1,0.4,0.2c0.1,0.2,0.2,0.5,0.2,0.9s-0.1,0.7-0.2,0.9c-0.1,0.1-0.2,0.2-0.4,0.2s-0.3-0.1-0.4-0.2s-0.2-0.5-0.2-0.9
			s0.1-0.7,0.2-0.9C864.5,490.7,864.6,490.6,864.8,490.6"/>
		<path class="st9" d="M865.5,492.2l0.3,0c0,0.1,0,0.2,0.1,0.2c0,0,0.1,0.1,0.2,0.1c0.1,0,0.1,0,0.2-0.1c0-0.1,0.1-0.2,0.1-0.3
			c0-0.1,0-0.2-0.1-0.3c0-0.1-0.1-0.1-0.2-0.1c-0.1,0-0.2,0-0.3,0.2l-0.3,0l0.2-1.1h0.9v0.4H866l0,0.4c0.1,0,0.2-0.1,0.2-0.1
			c0.2,0,0.3,0.1,0.4,0.2s0.2,0.3,0.2,0.5c0,0.2,0,0.3-0.1,0.5c-0.1,0.2-0.3,0.3-0.5,0.3c-0.2,0-0.3,0-0.4-0.2
			C865.6,492.6,865.5,492.4,865.5,492.2"/>
		<path class="st6" d="M886,472.6c2.2,0,3.9-1.8,3.9-3.9s-1.8-3.9-3.9-3.9s-3.9,1.8-3.9,3.9S883.8,472.6,886,472.6"/>
		<path class="st9" d="M884.7,468.9v-0.7l-0.4,0.7H884.7z M884.7,469.7v-0.4H884v-0.4l0.8-1.4h0.3v1.4h0.2v0.4H885v0.4H884.7
			L884.7,469.7z"/>
		<path class="st9" d="M886.2,469.7h-0.3v-1.6c-0.1,0.1-0.3,0.2-0.4,0.3V468c0.1,0,0.2-0.1,0.3-0.2c0.1-0.1,0.2-0.2,0.2-0.4h0.3
			V469.7L886.2,469.7z"/>
		<path class="st9" d="M886.7,467.9v-0.4h1.2v0.3c-0.1,0.1-0.2,0.3-0.3,0.5c-0.1,0.2-0.2,0.4-0.2,0.7c0,0.2-0.1,0.5-0.1,0.6H887
			c0-0.3,0.1-0.6,0.2-0.9c0.1-0.3,0.2-0.6,0.4-0.8L886.7,467.9L886.7,467.9z"/>
		<path class="st6" d="M912.4,438.8c2.2,0,3.9-1.8,3.9-3.9s-1.8-3.9-3.9-3.9s-3.9,1.8-3.9,3.9S910.2,438.8,912.4,438.8"/>
		<path class="st9" d="M911.1,435v-0.7l-0.4,0.7H911.1z M911.1,435.8v-0.4h-0.7V435l0.8-1.4h0.3v1.4h0.2v0.4h-0.2v0.4H911.1
			L911.1,435.8z"/>
		<path class="st9" d="M912.6,435.8h-0.3v-1.6c-0.1,0.1-0.3,0.2-0.4,0.3v-0.4c0.1,0,0.2-0.1,0.3-0.2c0.1-0.1,0.2-0.2,0.2-0.4h0.3
			V435.8L912.6,435.8z"/>
		<path class="st9" d="M913.5,435.2c0,0.1,0,0.2,0.1,0.3c0,0.1,0.1,0.1,0.2,0.1s0.1,0,0.2-0.1c0-0.1,0.1-0.1,0.1-0.3
			c0-0.1,0-0.2-0.1-0.2c0-0.1-0.1-0.1-0.2-0.1c-0.1,0-0.1,0-0.2,0.1C913.5,435,913.5,435.1,913.5,435.2 M913.5,434.2
			c0,0.1,0,0.1,0.1,0.2c0,0,0.1,0.1,0.2,0.1s0.1,0,0.2-0.1c0,0,0.1-0.1,0.1-0.2c0-0.1,0-0.1-0.1-0.2s-0.1-0.1-0.2-0.1
			c-0.1,0-0.1,0-0.2,0.1C913.5,434.1,913.5,434.2,913.5,434.2 M913.4,434.7c-0.1,0-0.2-0.1-0.2-0.2c0-0.1-0.1-0.2-0.1-0.3
			c0-0.2,0-0.3,0.1-0.4c0.1-0.1,0.2-0.2,0.4-0.2s0.3,0,0.4,0.2c0.1,0.1,0.1,0.2,0.1,0.4c0,0.1,0,0.2-0.1,0.3s-0.1,0.1-0.2,0.2
			c0.1,0,0.2,0.1,0.2,0.2s0.1,0.2,0.1,0.3c0,0.2,0,0.4-0.2,0.5c-0.1,0.1-0.2,0.2-0.4,0.2c-0.2,0-0.3,0-0.4-0.1
			c-0.1-0.1-0.2-0.3-0.2-0.5c0-0.1,0-0.2,0.1-0.3S913.3,434.7,913.4,434.7"/>
		<path class="st6" d="M943.4,400.4c2.2,0,3.9-1.8,3.9-3.9s-1.8-3.9-3.9-3.9s-3.9,1.8-3.9,3.9S941.3,400.4,943.4,400.4"/>
		<path class="st9" d="M942.2,396.7V396l-0.4,0.7H942.2z M942.2,397.5v-0.4h-0.7v-0.4l0.8-1.4h0.3v1.4h0.2v0.4h-0.2v0.4H942.2
			L942.2,397.5z"/>
		<path class="st9" d="M943.7,397.5h-0.3v-1.6c-0.1,0.1-0.3,0.2-0.4,0.3v-0.4c0.1,0,0.2-0.1,0.3-0.2c0.1-0.1,0.2-0.2,0.2-0.4h0.3
			V397.5L943.7,397.5z"/>
		<path class="st9" d="M944.9,396.1c0-0.1,0-0.2-0.1-0.3s-0.1-0.1-0.2-0.1s-0.1,0-0.2,0.1c0,0.1-0.1,0.2-0.1,0.3s0,0.2,0.1,0.3
			c0,0.1,0.1,0.1,0.2,0.1s0.1,0,0.2-0.1S945,396.2,944.9,396.1 M944.2,397l0.3,0c0,0.1,0,0.1,0.1,0.2c0,0,0.1,0.1,0.1,0.1
			c0.1,0,0.1,0,0.2-0.1c0-0.1,0.1-0.2,0.1-0.5c-0.1,0.1-0.2,0.2-0.3,0.2c-0.1,0-0.3-0.1-0.4-0.2s-0.2-0.3-0.2-0.5s0-0.4,0.2-0.5
			s0.2-0.2,0.4-0.2c0.2,0,0.3,0.1,0.4,0.2c0.1,0.2,0.2,0.5,0.2,0.8s-0.1,0.7-0.2,0.9c-0.1,0.2-0.3,0.3-0.5,0.3c-0.1,0-0.2,0-0.3-0.1
			C944.3,397.3,944.2,397.2,944.2,397"/>
		<path class="st6" d="M972.3,362.3c2.2,0,3.9-1.8,3.9-3.9s-1.8-3.9-3.9-3.9s-3.9,1.8-3.9,3.9S970.1,362.3,972.3,362.3"/>
		<path class="st9" d="M971,358.6v-0.7l-0.4,0.7H971z M971,359.4v-0.4h-0.7v-0.4l0.8-1.4h0.3v1.4h0.2v0.4h-0.2v0.4H971L971,359.4z"
			/>
		<path class="st9" d="M972.8,359v0.4h-1.2c0-0.1,0-0.3,0.1-0.4s0.2-0.3,0.4-0.5c0.2-0.2,0.2-0.3,0.3-0.4c0-0.1,0.1-0.2,0.1-0.2
			c0-0.1,0-0.2-0.1-0.2s-0.1-0.1-0.2-0.1s-0.1,0-0.2,0.1s-0.1,0.1-0.1,0.3l-0.3,0c0-0.2,0.1-0.4,0.2-0.5c0.1-0.1,0.2-0.1,0.4-0.1
			c0.2,0,0.3,0.1,0.4,0.2s0.2,0.3,0.2,0.4c0,0.1,0,0.2,0,0.3c0,0.1-0.1,0.2-0.1,0.3c0,0.1-0.1,0.2-0.2,0.3s-0.2,0.2-0.2,0.2
			c0,0,0,0.1-0.1,0.1L972.8,359L972.8,359z"/>
		<path class="st9" d="M973.6,357.5c0,0-0.1,0-0.1,0c0,0-0.1,0.1-0.1,0.2c0,0.1,0,0.3,0,0.5s0,0.4,0,0.5s0,0.2,0.1,0.2s0.1,0,0.1,0
			s0.1,0,0.1,0c0,0,0.1-0.1,0.1-0.2c0-0.1,0-0.3,0-0.5s0-0.4,0-0.5c0-0.1,0-0.2-0.1-0.2S973.6,357.5,973.6,357.5 M973.6,357.2
			c0.2,0,0.3,0.1,0.4,0.2c0.1,0.2,0.2,0.5,0.2,0.9s-0.1,0.7-0.2,0.9c-0.1,0.1-0.2,0.2-0.4,0.2s-0.3-0.1-0.4-0.2s-0.2-0.5-0.2-0.9
			s0.1-0.7,0.2-0.9C973.3,357.3,973.4,357.2,973.6,357.2"/>
		<path class="st6" d="M996.1,330.8c2.2,0,3.9-1.8,3.9-3.9s-1.8-3.9-3.9-3.9s-3.9,1.8-3.9,3.9S993.9,330.8,996.1,330.8"/>
		<path class="st9" d="M994.8,327.1v-0.7l-0.4,0.7H994.8z M994.8,327.9v-0.4h-0.7v-0.4l0.8-1.4h0.3v1.4h0.2v0.4h-0.2v0.4H994.8
			L994.8,327.9z"/>
		<path class="st9" d="M996.6,327.5v0.4h-1.2c0-0.1,0-0.3,0.1-0.4s0.2-0.3,0.4-0.5c0.2-0.2,0.2-0.3,0.3-0.4c0-0.1,0.1-0.2,0.1-0.3
			s0-0.2-0.1-0.2s-0.1-0.1-0.2-0.1s-0.1,0-0.2,0.1s-0.1,0.1-0.1,0.3l-0.3,0c0-0.2,0.1-0.4,0.2-0.5c0.1-0.1,0.2-0.1,0.4-0.1
			c0.2,0,0.3,0.1,0.4,0.2s0.2,0.3,0.2,0.4c0,0.1,0,0.2,0,0.3c0,0.1-0.1,0.2-0.1,0.3c0,0.1-0.1,0.2-0.2,0.3s-0.2,0.2-0.2,0.2
			c0,0,0,0.1-0.1,0.1H996.6L996.6,327.5z"/>
		<path class="st9" d="M997.7,327.9h-0.3v-1.6c-0.1,0.1-0.3,0.2-0.4,0.3v-0.4c0.1,0,0.2-0.1,0.3-0.2c0.1-0.1,0.2-0.2,0.2-0.3h0.3
			V327.9L997.7,327.9z"/>
		<path class="st6" d="M1029.3,290.1c2.2,0,3.9-1.8,3.9-3.9s-1.8-3.9-3.9-3.9s-3.9,1.8-3.9,3.9S1027.1,290.1,1029.3,290.1"/>
		<path class="st9" d="M1028,286.4v-0.7l-0.4,0.7H1028z M1028,287.2v-0.4h-0.7v-0.4l0.8-1.4h0.3v1.4h0.2v0.4h-0.2v0.4H1028
			L1028,287.2z"/>
		<path class="st9" d="M1029.8,286.8v0.4h-1.2c0-0.1,0.1-0.3,0.1-0.4c0.1-0.1,0.2-0.3,0.4-0.5c0.2-0.2,0.2-0.3,0.3-0.4
			c0.1-0.1,0.1-0.2,0.1-0.3s0-0.2-0.1-0.2s-0.1-0.1-0.2-0.1s-0.1,0-0.2,0.1s-0.1,0.1-0.1,0.3l-0.3,0c0-0.2,0.1-0.4,0.2-0.5
			c0.1-0.1,0.2-0.1,0.4-0.1c0.2,0,0.3,0.1,0.4,0.2s0.2,0.3,0.2,0.4c0,0.1,0,0.2,0,0.3s-0.1,0.2-0.1,0.3c0,0.1-0.1,0.2-0.2,0.3
			s-0.2,0.2-0.2,0.2c0,0-0.1,0.1-0.1,0.1H1029.8L1029.8,286.8z"/>
		<path class="st9" d="M1031.1,286.8v0.4h-1.2c0-0.1,0.1-0.3,0.1-0.4c0.1-0.1,0.2-0.3,0.4-0.5c0.2-0.2,0.2-0.3,0.3-0.4
			c0.1-0.1,0.1-0.2,0.1-0.3s0-0.2-0.1-0.2s-0.1-0.1-0.2-0.1s-0.1,0-0.2,0.1s-0.1,0.1-0.1,0.3l-0.3,0c0-0.2,0.1-0.4,0.2-0.5
			c0.1-0.1,0.2-0.1,0.4-0.1c0.2,0,0.3,0.1,0.4,0.2s0.2,0.3,0.2,0.4c0,0.1,0,0.2,0,0.3s-0.1,0.2-0.1,0.3c0,0.1-0.1,0.2-0.2,0.3
			s-0.2,0.2-0.2,0.2c0,0-0.1,0.1-0.1,0.1H1031.1L1031.1,286.8z"/>
		<path class="st6" d="M1078.7,310.2c2.2,0,3.9-1.8,3.9-3.9s-1.8-3.9-3.9-3.9s-3.9,1.8-3.9,3.9S1076.6,310.2,1078.7,310.2"/>
		<path class="st9" d="M1076.6,306.5v-0.7l-0.4,0.7H1076.6z M1076.6,307.3v-0.4h-0.7v-0.4l0.8-1.4h0.3v1.4h0.2v0.4h-0.2v0.4H1076.6
			L1076.6,307.3z"/>
		<path class="st9" d="M1078.4,306.9v0.4h-1.2c0-0.1,0.1-0.3,0.1-0.4c0.1-0.1,0.2-0.3,0.4-0.5c0.2-0.2,0.2-0.3,0.3-0.4
			c0.1-0.1,0.1-0.2,0.1-0.3s0-0.2-0.1-0.2s-0.1-0.1-0.2-0.1s-0.1,0-0.2,0.1s-0.1,0.1-0.1,0.3l-0.3,0c0-0.2,0.1-0.4,0.2-0.5
			c0.1-0.1,0.2-0.1,0.4-0.1c0.2,0,0.3,0.1,0.4,0.2s0.2,0.3,0.2,0.4c0,0.1,0,0.2,0,0.3s-0.1,0.2-0.1,0.3c0,0.1-0.1,0.2-0.2,0.3
			s-0.2,0.2-0.2,0.2c0,0-0.1,0.1-0.1,0.1H1078.4L1078.4,306.9z"/>
		<path class="st9" d="M1078.6,306.7l0.3,0c0,0.1,0,0.2,0.1,0.2c0.1,0,0.1,0.1,0.2,0.1c0.1,0,0.1,0,0.2-0.1s0.1-0.1,0.1-0.3
			c0-0.1,0-0.2-0.1-0.2c-0.1-0.1-0.1-0.1-0.2-0.1c0,0-0.1,0-0.2,0l0-0.3c0.1,0,0.2,0,0.2-0.1c0.1,0,0.1-0.1,0.1-0.2
			c0-0.1,0-0.1-0.1-0.2c0,0-0.1-0.1-0.1-0.1s-0.1,0-0.2,0.1c0,0-0.1,0.1-0.1,0.2l-0.3-0.1c0-0.1,0.1-0.2,0.1-0.3
			c0-0.1,0.1-0.1,0.2-0.2c0.1,0,0.2-0.1,0.3-0.1c0.2,0,0.3,0.1,0.4,0.2c0.1,0.1,0.1,0.2,0.1,0.4c0,0.2-0.1,0.3-0.2,0.5
			c0.1,0,0.2,0.1,0.2,0.2c0.1,0.1,0.1,0.2,0.1,0.3c0,0.2-0.1,0.4-0.2,0.5c-0.1,0.1-0.2,0.2-0.4,0.2c-0.2,0-0.3-0.1-0.4-0.2
			C1078.7,307,1078.6,306.9,1078.6,306.7"/>
		<path class="st9" d="M1080.9,306.4l-0.2-0.8l-0.2,0.8H1080.9z M1081.6,307.3h-0.4l-0.2-0.5h-0.7l-0.2,0.5h-0.4l0.7-2.2h0.4
			L1081.6,307.3z"/>
		<path class="st6" d="M1093.7,289.3c2.2,0,3.9-1.8,3.9-3.9s-1.8-3.9-3.9-3.9s-3.9,1.8-3.9,3.9S1091.6,289.3,1093.7,289.3"/>
		<path class="st4" d="M1063.8,262.3c2.2,0,3.9-1.8,3.9-3.9s-1.8-3.9-3.9-3.9s-3.9,1.8-3.9,3.9S1061.6,262.3,1063.8,262.3"/>
		<path class="st9" d="M1092.5,285.5v-0.7l-0.4,0.7H1092.5z M1092.5,286.3v-0.4h-0.7v-0.4l0.8-1.4h0.3v1.4h0.2v0.4h-0.2v0.4H1092.5
			L1092.5,286.3z"/>
		<path class="st9" d="M1094.3,285.9v0.4h-1.2c0-0.1,0.1-0.3,0.1-0.4c0.1-0.1,0.2-0.3,0.4-0.5c0.2-0.2,0.2-0.3,0.3-0.4
			c0.1-0.1,0.1-0.2,0.1-0.3s0-0.2-0.1-0.2s-0.1-0.1-0.2-0.1s-0.1,0-0.2,0.1s-0.1,0.1-0.1,0.3l-0.3,0c0-0.2,0.1-0.4,0.2-0.5
			c0.1-0.1,0.2-0.1,0.4-0.1c0.2,0,0.3,0.1,0.4,0.2s0.2,0.3,0.2,0.4c0,0.1,0,0.2,0,0.3s-0.1,0.2-0.1,0.3c0,0.1-0.1,0.2-0.2,0.3
			s-0.2,0.2-0.2,0.2c0,0-0.1,0.1-0.1,0.1H1094.3L1094.3,285.9z"/>
		<path class="st9" d="M1094.5,285.8l0.3,0c0,0.1,0,0.2,0.1,0.2c0.1,0,0.1,0.1,0.2,0.1c0.1,0,0.1,0,0.2-0.1s0.1-0.1,0.1-0.3
			c0-0.1,0-0.2-0.1-0.2c-0.1-0.1-0.1-0.1-0.2-0.1c0,0-0.1,0-0.2,0l0-0.3c0.1,0,0.2,0,0.2-0.1c0.1,0,0.1-0.1,0.1-0.2
			c0-0.1,0-0.1-0.1-0.2c0,0-0.1-0.1-0.1-0.1s-0.1,0-0.2,0.1c0,0-0.1,0.1-0.1,0.2l-0.3-0.1c0-0.1,0.1-0.2,0.1-0.3
			c0-0.1,0.1-0.1,0.2-0.2c0.1,0,0.2-0.1,0.3-0.1c0.2,0,0.3,0.1,0.4,0.2c0.1,0.1,0.1,0.2,0.1,0.4c0,0.2-0.1,0.3-0.2,0.5
			c0.1,0,0.2,0.1,0.2,0.2c0.1,0.1,0.1,0.2,0.1,0.3c0,0.2-0.1,0.4-0.2,0.5c-0.1,0.1-0.2,0.2-0.4,0.2c-0.2,0-0.3-0.1-0.4-0.2
			C1094.5,286.1,1094.5,285.9,1094.5,285.8"/>
		<path class="st9" d="M1061.9,258.5v-0.7l-0.4,0.7H1061.9z M1061.9,259.3v-0.4h-0.7v-0.4l0.8-1.4h0.3v1.4h0.2v0.4h-0.2v0.4H1061.9
			L1061.9,259.3z"/>
		<path class="st9" d="M1063.7,258.9v0.4h-1.2c0-0.1,0.1-0.3,0.1-0.4c0.1-0.1,0.2-0.3,0.4-0.5c0.2-0.2,0.2-0.3,0.3-0.4
			c0.1-0.1,0.1-0.2,0.1-0.3s0-0.2-0.1-0.2s-0.1-0.1-0.2-0.1s-0.1,0-0.2,0.1s-0.1,0.1-0.1,0.3l-0.3,0c0-0.2,0.1-0.4,0.2-0.5
			c0.1-0.1,0.2-0.1,0.4-0.1c0.2,0,0.3,0.1,0.4,0.2s0.2,0.3,0.2,0.4c0,0.1,0,0.2,0,0.3s-0.1,0.2-0.1,0.3c0,0.1-0.1,0.2-0.2,0.3
			s-0.2,0.2-0.2,0.2c0,0-0.1,0.1-0.1,0.1H1063.7L1063.7,258.9z"/>
		<path class="st9" d="M1065.1,258.9v0.4h-1.2c0-0.1,0.1-0.3,0.1-0.4c0.1-0.1,0.2-0.3,0.4-0.5c0.2-0.2,0.2-0.3,0.3-0.4
			c0.1-0.1,0.1-0.2,0.1-0.3s0-0.2-0.1-0.2s-0.1-0.1-0.2-0.1s-0.1,0-0.2,0.1s-0.1,0.1-0.1,0.3l-0.3,0c0-0.2,0.1-0.4,0.2-0.5
			c0.1-0.1,0.2-0.1,0.4-0.1c0.2,0,0.3,0.1,0.4,0.2s0.2,0.3,0.2,0.4c0,0.1,0,0.2,0,0.3s-0.1,0.2-0.1,0.3c0,0.1-0.1,0.2-0.2,0.3
			s-0.2,0.2-0.2,0.2c0,0-0.1,0.1-0.1,0.1H1065.1L1065.1,258.9z"/>
		<path class="st9" d="M1066.3,258.5l-0.2-0.8l-0.2,0.8H1066.3z M1066.9,259.3h-0.4l-0.2-0.5h-0.7l-0.2,0.5h-0.4l0.7-2.2h0.4
			L1066.9,259.3z"/>
		<path class="st8" d="M972.7,442.6c2.2,0,3.9-1.8,3.9-3.9s-1.8-3.9-3.9-3.9s-3.9,1.8-3.9,3.9S970.5,442.6,972.7,442.6"/>
		<path class="st9" d="M971.3,438.9v-0.7l-0.4,0.7H971.3z M971.3,439.7v-0.4h-0.7v-0.4l0.8-1.4h0.3v1.4h0.2v0.4h-0.2v0.4H971.3
			L971.3,439.7z"/>
		<path class="st9" d="M973.1,439.3v0.4H972c0-0.1,0-0.3,0.1-0.4s0.2-0.3,0.4-0.5c0.2-0.2,0.2-0.3,0.3-0.4c0-0.1,0.1-0.2,0.1-0.2
			c0-0.1,0-0.2-0.1-0.2s-0.1-0.1-0.2-0.1s-0.1,0-0.2,0.1s-0.1,0.1-0.1,0.3l-0.3,0c0-0.2,0.1-0.4,0.2-0.5c0.1-0.1,0.2-0.1,0.4-0.1
			c0.2,0,0.3,0.1,0.4,0.2s0.2,0.3,0.2,0.4c0,0.1,0,0.2,0,0.3c0,0.1-0.1,0.2-0.1,0.3c0,0.1-0.1,0.2-0.2,0.3s-0.2,0.2-0.2,0.2
			c0,0,0,0.1-0.1,0.1L973.1,439.3L973.1,439.3z"/>
		<path class="st9" d="M974.1,438.3c0-0.1,0-0.2-0.1-0.3s-0.1-0.1-0.2-0.1s-0.1,0-0.2,0.1c0,0.1-0.1,0.2-0.1,0.3s0,0.2,0.1,0.3
			c0,0.1,0.1,0.1,0.2,0.1s0.1,0,0.2-0.1S974.1,438.4,974.1,438.3 M973.4,439.2l0.3,0c0,0.1,0,0.1,0.1,0.2c0,0,0.1,0.1,0.1,0.1
			c0.1,0,0.1,0,0.2-0.1c0-0.1,0.1-0.2,0.1-0.5c-0.1,0.1-0.2,0.2-0.3,0.2c-0.1,0-0.3-0.1-0.4-0.2s-0.2-0.3-0.2-0.5s0-0.4,0.2-0.5
			s0.2-0.2,0.4-0.2c0.2,0,0.3,0.1,0.4,0.2c0.1,0.2,0.2,0.5,0.2,0.8s-0.1,0.7-0.2,0.9c-0.1,0.2-0.3,0.3-0.5,0.3c-0.1,0-0.2,0-0.3-0.1
			C973.5,439.5,973.4,439.4,973.4,439.2"/>
		<path class="st8" d="M984.1,429.6c2.2,0,3.9-1.8,3.9-3.9s-1.8-3.9-3.9-3.9s-3.9,1.8-3.9,3.9S982,429.6,984.1,429.6"/>
		<path class="st9" d="M982.8,425.8v-0.7l-0.4,0.7H982.8z M982.8,426.6v-0.4h-0.7v-0.4l0.8-1.4h0.3v1.4h0.2v0.4h-0.2v0.4H982.8
			L982.8,426.6z"/>
		<path class="st9" d="M984.7,426.2v0.4h-1.2c0-0.1,0-0.3,0.1-0.4s0.2-0.3,0.4-0.5c0.2-0.2,0.2-0.3,0.3-0.4c0-0.1,0.1-0.2,0.1-0.2
			c0-0.1,0-0.2-0.1-0.2s-0.1-0.1-0.2-0.1s-0.1,0-0.2,0.1s-0.1,0.1-0.1,0.3l-0.3,0c0-0.2,0.1-0.4,0.2-0.5c0.1-0.1,0.2-0.1,0.4-0.1
			c0.2,0,0.3,0.1,0.4,0.2s0.2,0.3,0.2,0.4c0,0.1,0,0.2,0,0.3c0,0.1-0.1,0.2-0.1,0.3c0,0.1-0.1,0.2-0.2,0.3s-0.2,0.2-0.2,0.2
			c0,0,0,0.1-0.1,0.1L984.7,426.2L984.7,426.2z"/>
		<path class="st9" d="M985.2,426c0,0.1,0,0.2,0.1,0.3c0,0.1,0.1,0.1,0.2,0.1s0.1,0,0.2-0.1c0-0.1,0.1-0.1,0.1-0.3
			c0-0.1,0-0.2-0.1-0.2c0-0.1-0.1-0.1-0.2-0.1s-0.1,0-0.2,0.1C985.2,425.8,985.2,425.9,985.2,426 M985.2,425c0,0.1,0,0.1,0.1,0.2
			c0,0,0.1,0.1,0.2,0.1s0.1,0,0.2-0.1c0,0,0.1-0.1,0.1-0.2c0-0.1,0-0.1-0.1-0.2s-0.1-0.1-0.2-0.1c-0.1,0-0.1,0-0.2,0.1
			C985.3,424.9,985.2,425,985.2,425 M985.2,425.5c-0.1,0-0.2-0.1-0.2-0.2c0-0.1-0.1-0.2-0.1-0.3c0-0.2,0-0.3,0.1-0.4
			c0.1-0.1,0.2-0.2,0.4-0.2s0.3,0,0.4,0.2c0.1,0.1,0.1,0.2,0.1,0.4c0,0.1,0,0.2-0.1,0.3s-0.1,0.1-0.2,0.2c0.1,0,0.2,0.1,0.2,0.2
			s0.1,0.2,0.1,0.3c0,0.2,0,0.4-0.2,0.5c-0.1,0.1-0.2,0.2-0.4,0.2c-0.2,0-0.3,0-0.4-0.1c-0.1-0.1-0.2-0.3-0.2-0.5
			c0-0.1,0-0.2,0.1-0.3C985,425.6,985.1,425.5,985.2,425.5"/>
		<path class="st4" d="M993.1,417.1c2.2,0,3.9-1.8,3.9-3.9s-1.8-3.9-3.9-3.9s-3.9,1.8-3.9,3.9S990.9,417.1,993.1,417.1"/>
		<path class="st9" d="M991.8,413.4v-0.7l-0.4,0.7H991.8z M991.8,414.2v-0.4h-0.7v-0.4l0.8-1.4h0.3v1.4h0.2v0.4h-0.2v0.4H991.8
			L991.8,414.2z"/>
		<path class="st9" d="M993.6,413.8v0.4h-1.2c0-0.1,0-0.3,0.1-0.4s0.2-0.3,0.4-0.5c0.2-0.2,0.2-0.3,0.3-0.4c0-0.1,0.1-0.2,0.1-0.2
			c0-0.1,0-0.2-0.1-0.2s-0.1-0.1-0.2-0.1s-0.1,0-0.2,0.1s-0.1,0.1-0.1,0.3l-0.3,0c0-0.2,0.1-0.4,0.2-0.5c0.1-0.1,0.2-0.1,0.4-0.1
			c0.2,0,0.3,0.1,0.4,0.2s0.2,0.3,0.2,0.4c0,0.1,0,0.2,0,0.3c0,0.1-0.1,0.2-0.1,0.3c0,0.1-0.1,0.2-0.2,0.3s-0.2,0.2-0.2,0.2
			c0,0,0,0.1-0.1,0.1L993.6,413.8L993.6,413.8z"/>
		<path class="st9" d="M993.8,412.4v-0.4h1.2v0.3c-0.1,0.1-0.2,0.3-0.3,0.5c-0.1,0.2-0.2,0.4-0.2,0.7c0,0.2-0.1,0.5-0.1,0.6h-0.3
			c0-0.3,0.1-0.6,0.2-0.9c0.1-0.3,0.2-0.6,0.4-0.8L993.8,412.4L993.8,412.4z"/>
		<path class="st4" d="M1002.9,404.7c2.2,0,3.9-1.8,3.9-3.9s-1.8-3.9-3.9-3.9s-3.9,1.8-3.9,3.9S1000.7,404.7,1002.9,404.7"/>
		<path class="st9" d="M1001.7,401.2v-0.7l-0.4,0.7H1001.7z M1001.7,402v-0.4h-0.7v-0.4l0.8-1.4h0.3v1.4h0.2v0.4h-0.2v0.4H1001.7
			L1001.7,402z"/>
		<path class="st9" d="M1003.5,401.6v0.4h-1.2c0-0.1,0-0.3,0.1-0.4s0.2-0.3,0.4-0.5c0.2-0.2,0.2-0.3,0.3-0.4c0-0.1,0.1-0.2,0.1-0.2
			c0-0.1,0-0.2-0.1-0.2s-0.1-0.1-0.2-0.1s-0.1,0-0.2,0.1s-0.1,0.1-0.1,0.3l-0.3,0c0-0.2,0.1-0.4,0.2-0.5c0.1-0.1,0.2-0.1,0.4-0.1
			c0.2,0,0.3,0.1,0.4,0.2s0.2,0.3,0.2,0.4c0,0.1,0,0.2,0,0.3c0,0.1-0.1,0.2-0.1,0.3c0,0.1-0.1,0.2-0.2,0.3s-0.2,0.2-0.2,0.2
			c0,0,0,0.1-0.1,0.1L1003.5,401.6L1003.5,401.6z"/>
		<path class="st9" d="M1004.1,401.3c0,0.1,0,0.2,0.1,0.3s0.1,0.1,0.2,0.1s0.1,0,0.2-0.1c0-0.1,0.1-0.2,0.1-0.3s0-0.2-0.1-0.3
			c0-0.1-0.1-0.1-0.2-0.1s-0.1,0-0.2,0.1S1004.1,401.1,1004.1,401.3 M1004.8,400.3l-0.3,0c0-0.1,0-0.1-0.1-0.2c0,0-0.1-0.1-0.1-0.1
			c-0.1,0-0.1,0-0.2,0.1s-0.1,0.2-0.1,0.5c0.1-0.1,0.2-0.2,0.3-0.2c0.1,0,0.3,0.1,0.4,0.2s0.2,0.3,0.2,0.5c0,0.2,0,0.4-0.2,0.5
			s-0.2,0.2-0.4,0.2c-0.2,0-0.3-0.1-0.4-0.2c-0.1-0.2-0.2-0.5-0.2-0.8s0.1-0.7,0.2-0.9c0.1-0.2,0.3-0.3,0.5-0.3c0.1,0,0.2,0,0.3,0.1
			C1004.7,400,1004.8,400.2,1004.8,400.3"/>
		<path class="st6" d="M1014.9,389.3c2.2,0,3.9-1.8,3.9-3.9s-1.8-3.9-3.9-3.9s-3.9,1.8-3.9,3.9S1012.7,389.3,1014.9,389.3"/>
		<path class="st6" d="M1035.6,363c2.2,0,3.9-1.8,3.9-3.9s-1.8-3.9-3.9-3.9s-3.9,1.8-3.9,3.9S1033.4,363,1035.6,363"/>
		<path class="st9" d="M1013.6,385.6v-0.7l-0.4,0.7H1013.6z M1013.6,386.4v-0.4h-0.7v-0.4l0.8-1.4h0.3v1.4h0.2v0.4h-0.2v0.4H1013.6
			L1013.6,386.4z"/>
		<path class="st9" d="M1015.4,386v0.4h-1.2c0-0.1,0-0.3,0.1-0.4s0.2-0.3,0.4-0.5c0.2-0.2,0.2-0.3,0.3-0.4c0-0.1,0.1-0.2,0.1-0.2
			c0-0.1,0-0.2-0.1-0.2s-0.1-0.1-0.2-0.1s-0.1,0-0.2,0.1s-0.1,0.1-0.1,0.3l-0.3,0c0-0.2,0.1-0.4,0.2-0.5c0.1-0.1,0.2-0.1,0.4-0.1
			c0.2,0,0.3,0.1,0.4,0.2s0.2,0.3,0.2,0.4c0,0.1,0,0.2,0,0.3c0,0.1-0.1,0.2-0.1,0.3c0,0.1-0.1,0.2-0.2,0.3s-0.2,0.2-0.2,0.2
			c0,0,0,0.1-0.1,0.1L1015.4,386L1015.4,386z"/>
		<path class="st9" d="M1015.7,385.8l0.3,0c0,0.1,0,0.2,0.1,0.2c0,0,0.1,0.1,0.2,0.1c0.1,0,0.1,0,0.2-0.1c0-0.1,0.1-0.2,0.1-0.3
			c0-0.1,0-0.2-0.1-0.3c0-0.1-0.1-0.1-0.2-0.1c-0.1,0-0.2,0-0.3,0.2l-0.3,0l0.2-1.1h0.9v0.4h-0.6l0,0.4c0.1,0,0.2-0.1,0.2-0.1
			c0.2,0,0.3,0.1,0.4,0.2s0.2,0.3,0.2,0.5c0,0.2,0,0.3-0.1,0.5c-0.1,0.2-0.3,0.3-0.5,0.3c-0.2,0-0.3,0-0.4-0.2
			C1015.7,386.2,1015.7,386,1015.7,385.8"/>
		<path class="st9" d="M1034.3,359.2v-0.7l-0.4,0.7H1034.3z M1034.3,360v-0.4h-0.7v-0.4l0.8-1.4h0.3v1.4h0.2v0.4h-0.2v0.4H1034.3
			L1034.3,360z"/>
		<path class="st9" d="M1036.1,359.6v0.4h-1.2c0-0.1,0.1-0.3,0.1-0.4c0.1-0.1,0.2-0.3,0.4-0.5c0.2-0.2,0.2-0.3,0.3-0.4
			c0.1-0.1,0.1-0.2,0.1-0.2c0-0.1,0-0.2-0.1-0.2s-0.1-0.1-0.2-0.1s-0.1,0-0.2,0.1s-0.1,0.1-0.1,0.3l-0.3,0c0-0.2,0.1-0.4,0.2-0.5
			c0.1-0.1,0.2-0.1,0.4-0.1c0.2,0,0.3,0.1,0.4,0.2s0.2,0.3,0.2,0.4c0,0.1,0,0.2,0,0.3s-0.1,0.2-0.1,0.3c0,0.1-0.1,0.2-0.2,0.3
			s-0.2,0.2-0.2,0.2c0,0-0.1,0.1-0.1,0.1L1036.1,359.6L1036.1,359.6z"/>
		<path class="st9" d="M1037,359.2v-0.7l-0.4,0.7H1037z M1037,360v-0.4h-0.7v-0.4l0.8-1.4h0.3v1.4h0.2v0.4h-0.2v0.4H1037L1037,360z"
			/>
		<path class="st4" d="M137.9,492.5c2.2,0,3.9-1.8,3.9-3.9s-1.8-3.9-3.9-3.9s-3.9,1.8-3.9,3.9S135.7,492.5,137.9,492.5"/>
		<path class="st9" d="M136.6,488.8V488l-0.4,0.7H136.6z M136.6,489.6v-0.4h-0.7v-0.4l0.8-1.4h0.3v1.4h0.2v0.4h-0.2v0.4H136.6
			L136.6,489.6z"/>
		<path class="st9" d="M137.8,487.8c0,0-0.1,0-0.1,0s-0.1,0.1-0.1,0.2c0,0.1,0,0.3,0,0.5s0,0.4,0,0.5c0,0.1,0.1,0.2,0.1,0.2
			s0.1,0,0.1,0s0.1,0,0.1,0s0.1-0.1,0.1-0.2c0-0.1,0-0.3,0-0.5s0-0.4,0-0.5c0-0.1-0.1-0.2-0.1-0.2S137.9,487.8,137.8,487.8
			 M137.8,487.4c0.2,0,0.3,0.1,0.4,0.2c0.1,0.2,0.2,0.5,0.2,0.9s-0.1,0.7-0.2,0.9c-0.1,0.1-0.2,0.2-0.4,0.2s-0.3-0.1-0.4-0.2
			s-0.2-0.5-0.2-0.9s0.1-0.7,0.2-0.9C137.5,487.5,137.6,487.4,137.8,487.4"/>
		<path class="st9" d="M139.7,489.2v0.4h-1.2c0-0.1,0.1-0.3,0.1-0.4c0.1-0.1,0.2-0.3,0.4-0.5c0.1-0.2,0.2-0.3,0.3-0.4
			c0.1-0.1,0.1-0.2,0.1-0.2c0-0.1,0-0.2-0.1-0.2s-0.1-0.1-0.2-0.1s-0.1,0-0.2,0.1s-0.1,0.1-0.1,0.3l-0.3,0c0-0.2,0.1-0.4,0.2-0.5
			c0.1-0.1,0.2-0.1,0.4-0.1c0.2,0,0.3,0.1,0.4,0.2s0.1,0.3,0.1,0.4c0,0.1,0,0.2,0,0.3s-0.1,0.2-0.1,0.3c0,0.1-0.1,0.2-0.2,0.3
			s-0.2,0.2-0.2,0.2c0,0-0.1,0.1-0.1,0.1L139.7,489.2L139.7,489.2z"/>
		<path class="st4" d="M173,491.9c2.2,0,3.9-1.8,3.9-3.9s-1.8-3.9-3.9-3.9s-3.9,1.8-3.9,3.9S170.8,491.9,173,491.9"/>
		<path class="st9" d="M171.7,488.1v-0.7l-0.4,0.7H171.7z M171.7,488.9v-0.4H171v-0.4l0.8-1.4h0.3v1.4h0.2v0.4H172v0.4H171.7
			L171.7,488.9z"/>
		<path class="st9" d="M172.9,487.1c0,0-0.1,0-0.1,0s-0.1,0.1-0.1,0.2c0,0.1,0,0.3,0,0.5s0,0.4,0,0.5c0,0.1,0.1,0.2,0.1,0.2
			s0.1,0,0.1,0s0.1,0,0.1,0s0.1-0.1,0.1-0.2c0-0.1,0-0.3,0-0.5s0-0.4,0-0.5c0-0.1-0.1-0.2-0.1-0.2S173,487.1,172.9,487.1
			 M172.9,486.8c0.2,0,0.3,0.1,0.4,0.2c0.1,0.2,0.2,0.5,0.2,0.9s-0.1,0.7-0.2,0.9c-0.1,0.1-0.2,0.2-0.4,0.2s-0.3-0.1-0.4-0.2
			c-0.1-0.2-0.2-0.5-0.2-0.9s0.1-0.7,0.2-0.9C172.6,486.9,172.8,486.8,172.9,486.8"/>
		<path class="st9" d="M173.7,488.4l0.3,0c0,0.1,0,0.2,0.1,0.2c0,0,0.1,0.1,0.2,0.1c0.1,0,0.1,0,0.2-0.1s0.1-0.1,0.1-0.3
			c0-0.1,0-0.2-0.1-0.2s-0.1-0.1-0.2-0.1c0,0-0.1,0-0.1,0l0-0.3c0.1,0,0.2,0,0.2-0.1c0.1,0,0.1-0.1,0.1-0.2c0-0.1,0-0.1-0.1-0.2
			c0,0-0.1-0.1-0.1-0.1s-0.1,0-0.1,0.1c0,0-0.1,0.1-0.1,0.2l-0.3-0.1c0-0.1,0.1-0.2,0.1-0.3c0-0.1,0.1-0.1,0.2-0.2
			c0.1,0,0.2-0.1,0.3-0.1c0.2,0,0.3,0.1,0.4,0.2c0.1,0.1,0.1,0.2,0.1,0.4c0,0.2-0.1,0.3-0.2,0.5c0.1,0,0.2,0.1,0.2,0.2
			c0.1,0.1,0.1,0.2,0.1,0.3c0,0.2-0.1,0.4-0.2,0.5s-0.2,0.2-0.4,0.2c-0.2,0-0.3-0.1-0.4-0.2C173.8,488.7,173.7,488.5,173.7,488.4"/>
		<path class="st4" d="M211.5,492.8c2.2,0,3.9-1.8,3.9-3.9s-1.8-3.9-3.9-3.9s-3.9,1.8-3.9,3.9S209.3,492.8,211.5,492.8"/>
		<path class="st9" d="M210.2,489v-0.7l-0.4,0.7H210.2z M210.2,489.8v-0.4h-0.7V489l0.8-1.4h0.3v1.4h0.2v0.4h-0.2v0.4H210.2
			L210.2,489.8z"/>
		<path class="st9" d="M211.5,488c0,0-0.1,0-0.1,0s-0.1,0.1-0.1,0.2c0,0.1,0,0.3,0,0.5s0,0.4,0,0.5c0,0.1,0.1,0.2,0.1,0.2
			s0.1,0,0.1,0s0.1,0,0.1,0s0.1-0.1,0.1-0.2c0-0.1,0-0.3,0-0.5s0-0.4,0-0.5c0-0.1-0.1-0.2-0.1-0.2S211.5,488,211.5,488 M211.5,487.6
			c0.2,0,0.3,0.1,0.4,0.2c0.1,0.2,0.2,0.5,0.2,0.9s-0.1,0.7-0.2,0.9c-0.1,0.1-0.2,0.2-0.4,0.2s-0.3-0.1-0.4-0.2s-0.2-0.5-0.2-0.9
			s0.1-0.7,0.2-0.9C211.2,487.7,211.3,487.6,211.5,487.6"/>
		<path class="st9" d="M212.9,489v-0.7l-0.4,0.7H212.9z M212.9,489.8v-0.4h-0.7V489l0.8-1.4h0.3v1.4h0.2v0.4h-0.2v0.4H212.9
			L212.9,489.8z"/>
		<path class="st4" d="M108.5,492.3c2.2,0,3.9-1.8,3.9-3.9s-1.8-3.9-3.9-3.9s-3.9,1.8-3.9,3.9S106.3,492.3,108.5,492.3"/>
		<path class="st9" d="M107.2,488.5v-0.7l-0.4,0.7H107.2z M107.2,489.3v-0.4h-0.7v-0.4l0.8-1.4h0.3v1.4h0.2v0.4h-0.2v0.4H107.2
			L107.2,489.3z"/>
		<path class="st9" d="M108.5,487.5c0,0-0.1,0-0.1,0s-0.1,0.1-0.1,0.2c0,0.1,0,0.3,0,0.5s0,0.4,0,0.5s0.1,0.2,0.1,0.2s0.1,0,0.1,0
			s0.1,0,0.1,0s0.1-0.1,0.1-0.2c0-0.1,0-0.3,0-0.5s0-0.4,0-0.5c0-0.1-0.1-0.2-0.1-0.2S108.5,487.5,108.5,487.5 M108.5,487.1
			c0.2,0,0.3,0.1,0.4,0.2c0.1,0.2,0.2,0.5,0.2,0.9s-0.1,0.7-0.2,0.9c-0.1,0.1-0.2,0.2-0.4,0.2s-0.3-0.1-0.4-0.2
			c-0.1-0.2-0.2-0.5-0.2-0.9s0.1-0.7,0.2-0.9C108.2,487.2,108.3,487.2,108.5,487.1"/>
		<path class="st9" d="M110.1,489.3h-0.3v-1.6c-0.1,0.1-0.3,0.2-0.4,0.3v-0.4c0.1,0,0.2-0.1,0.3-0.2c0.1-0.1,0.2-0.2,0.2-0.4h0.3
			V489.3L110.1,489.3z"/>
		<path class="st10" d="M298.9,479.9c1.9,0,3.4,1.5,3.4,3.4s-1.5,3.4-3.4,3.4s-3.4-1.5-3.4-3.4S297,479.9,298.9,479.9"/>
		<path class="st10" d="M424,498c1.9,0,3.4,1.5,3.4,3.4s-1.5,3.4-3.4,3.4s-3.4-1.5-3.4-3.4S422.1,498,424,498"/>
		<path class="st11" d="M299,482.7c-0.1,0-0.1,0.1-0.1,0.2l-0.4,0.8c0,0.1-0.1,0.1-0.1,0.2c-0.1,0.1-0.1,0.3-0.2,0.4
			c0,0.1-0.3,0.5-0.3,0.6c0,0.1,0,0.2,0.1,0.2c0.1,0,0.5,0,0.6,0h1.5c0.1,0,0.2,0,0.2-0.1c0-0.1,0-0.2,0-0.2c0-0.1-0.1-0.1-0.1-0.2
			l-0.8-1.5c0-0.1-0.1-0.2-0.2-0.3C299,482.7,299,482.7,299,482.7"/>
		<path class="st11" d="M424.1,503.2c0.1,0,0.1-0.1,0.1-0.2l0.4-0.8c0-0.1,0.1-0.1,0.1-0.2c0.1-0.1,0.1-0.3,0.2-0.4
			c0-0.1,0.3-0.5,0.3-0.6c0-0.1,0-0.2-0.1-0.2c-0.1,0-0.5,0-0.6,0h-1.5c-0.1,0-0.2,0-0.2,0.1c0,0.1,0,0.2,0,0.2
			c0,0.1,0.1,0.1,0.1,0.2l0.8,1.5c0,0.1,0.1,0.2,0.2,0.3C424,503.2,424,503.2,424.1,503.2"/>
		<path class="st11" d="M298.9,481.1c-0.4,0-0.7,0.4-0.6,0.8c0,0.4,0.4,0.7,0.8,0.6c0.4,0,0.7-0.4,0.6-0.8
			C299.7,481.4,299.3,481.1,298.9,481.1"/>
		<path class="st11" d="M423.9,499.3c-0.4,0-0.7,0.4-0.6,0.8c0,0.4,0.4,0.7,0.8,0.6c0.4,0,0.7-0.4,0.6-0.8
			C424.7,499.5,424.4,499.2,423.9,499.3"/>
		<path class="st10" d="M648.1,497c1.9,0,3.4,1.5,3.4,3.4s-1.5,3.4-3.4,3.4s-3.4-1.5-3.4-3.4S646.2,497,648.1,497"/>
		<path class="st11" d="M648.2,502.2c0.1,0,0.1-0.1,0.1-0.2l0.4-0.8c0-0.1,0.1-0.1,0.1-0.2c0.1-0.1,0.1-0.3,0.2-0.4
			c0-0.1,0.3-0.5,0.3-0.6c0-0.1,0-0.2-0.1-0.2c-0.1,0-0.5,0-0.6,0h-1.5c-0.1,0-0.2,0-0.2,0.1c0,0.1,0,0.2,0,0.2
			c0,0.1,0.1,0.1,0.1,0.2l0.8,1.5c0,0.1,0.1,0.2,0.2,0.3C648.1,502.2,648.2,502.2,648.2,502.2"/>
		<path class="st11" d="M648.1,498.3c-0.4,0-0.7,0.4-0.6,0.8c0,0.4,0.4,0.7,0.8,0.6c0.4,0,0.7-0.4,0.6-0.8
			C648.8,498.5,648.5,498.2,648.1,498.3"/>
		<path class="st10" d="M958.3,463.1c1.9,0,3.4,1.5,3.4,3.4s-1.5,3.4-3.4,3.4s-3.4-1.5-3.4-3.4S956.4,463.1,958.3,463.1"/>
		<path class="st11" d="M958.3,466c-0.1,0-0.1,0.1-0.1,0.2l-0.4,0.8c0,0.1-0.1,0.1-0.1,0.2c-0.1,0.1-0.1,0.3-0.2,0.4
			c0,0.1-0.3,0.5-0.3,0.6c0,0.1,0,0.2,0.1,0.2c0.1,0,0.5,0,0.6,0h1.5c0.1,0,0.2,0,0.2-0.1c0-0.1,0-0.2,0-0.2c0-0.1-0.1-0.1-0.1-0.2
			l-0.8-1.5c0-0.1-0.1-0.2-0.2-0.3C958.4,466,958.3,466,958.3,466"/>
		<path class="st11" d="M958.2,464.4c-0.4,0-0.7,0.4-0.6,0.8c0,0.4,0.4,0.7,0.8,0.6c0.4,0,0.7-0.4,0.6-0.8
			C959,464.7,958.6,464.4,958.2,464.4"/>
		<path class="st12" d="M1053.4,337.6c2,0,3.6,1.6,3.6,3.6s-1.6,3.6-3.6,3.6s-3.6-1.6-3.6-3.6S1051.4,337.6,1053.4,337.6"/>
		<path class="st11" d="M1052.3,338.8c-0.2,0.1-0.4,0.3-0.3,0.6c0.1,0.6,1,0.4,0.9-0.2C1052.8,339,1052.6,338.8,1052.3,338.8
			 M1051.8,340.9v0.4l1.1,0v-0.5c0.1,0.1,0.4,0.6,0.4,0.7l-0.7,0.7c-0.1,0.1,0,0.6,0,0.7c0,0.2,0,0.5,0,0.7l0.4,0v-1
			c0-0.1,0.1-0.1,0.2-0.2l0.6-0.5v1h1.4v-0.4l-0.8,0c0-0.1,0-1.2,0-1.2c0-0.1-0.8-1.1-0.8-1.2h0.5c0.1,0,0.1,0,0.2,0.1l0.4,0.5
			c0.1,0,0.3-0.2,0.3-0.3l-0.5-0.6c-0.1-0.1-0.1-0.1-0.2-0.2c-0.3,0-0.7,0-1,0c-0.1,0-0.6,0.4-0.7,0.5c-0.1,0-0.1,0-0.1,0.2
			c0,0.2,0,0.3,0,0.5c0,0.1,0,0.2-0.1,0.2c-0.1,0-0.2,0-0.2,0c-0.1,0-0.2,0-0.2,0C1051.8,340.9,1051.8,340.8,1051.8,340.9"/>
		<path class="st12" d="M684.3,488.7c2,0,3.6,1.6,3.6,3.6s-1.6,3.6-3.6,3.6s-3.6-1.6-3.6-3.6S682.3,488.7,684.3,488.7"/>
		<path class="st11" d="M683.2,490c-0.2,0.1-0.4,0.3-0.3,0.6c0.1,0.6,1,0.4,0.9-0.2C683.7,490.1,683.5,489.9,683.2,490 M682.6,492.1
			v0.4l1.1,0v-0.5c0.1,0.1,0.4,0.6,0.4,0.7l-0.7,0.7c-0.1,0.1,0,0.6,0,0.7c0,0.2,0,0.5,0,0.7l0.4,0v-1c0-0.1,0.1-0.1,0.2-0.2
			l0.6-0.5v1h1.4v-0.4l-0.8,0c0-0.1,0-1.2,0-1.2c0-0.1-0.8-1.1-0.8-1.2h0.5c0.1,0,0.1,0,0.2,0.1l0.4,0.5c0.1,0,0.3-0.2,0.3-0.3
			l-0.5-0.6c0-0.1-0.1-0.1-0.2-0.2c-0.3,0-0.7,0-1,0c-0.1,0-0.6,0.4-0.7,0.5c-0.1,0-0.1,0-0.1,0.2c0,0.2,0,0.3,0,0.5
			c0,0.1,0,0.2-0.1,0.2c-0.1,0-0.2,0-0.2,0c-0.1,0-0.2,0-0.2,0C682.7,492,682.6,492,682.6,492.1"/>
		<path class="st13" d="M401.2,379.6c6.1,0,11.1,5,11.1,11.1s-5,11.1-11.1,11.1s-11.1-5-11.1-11.1S395.1,379.6,401.2,379.6"/>
		<path class="st9" d="M401.8,392v-3.2l-2.2,3.2H401.8z M401.8,395.5v-1.9h-3.9V392l4.1-6h1.5v6h1.2v1.6h-1.2v1.9L401.8,395.5
			L401.8,395.5z"/>
		<path class="st1" d="M418.8,390.5h2.2c-0.1-0.5-0.2-0.9-0.5-1.3c-0.3-0.3-0.7-0.5-1.2-0.5c-0.4,0-0.7,0.1-0.9,0.3
			c-0.2,0.2-0.4,0.5-0.5,0.8l-1.4-0.3c0.1-0.6,0.5-1.1,0.9-1.5c0.5-0.4,1.1-0.5,1.9-0.5c1,0,1.8,0.3,2.4,1s0.8,1.5,0.8,2.6
			c0,0.7-0.1,1.4-0.4,1.9c-0.3,0.5-0.6,0.9-1.1,1.2s-1,0.4-1.6,0.4c-1.6,0-2.5-0.7-2.9-2.2l1.4-0.4c0.1,0.5,0.2,0.9,0.5,1.1
			s0.6,0.4,1,0.4s0.8-0.1,1-0.4s0.5-0.7,0.6-1.4h-2.2L418.8,390.5L418.8,390.5z"/>
		<polygon class="st1" points="425.1,394.5 425.1,388.8 423,388.8 423,387.6 428.5,387.6 428.5,388.8 426.5,388.8 426.5,394.5 		"/>
		<path class="st1" d="M432.5,391.8l-1-2.5l-0.9,2.5H432.5L432.5,391.8z M435,394.5h-1.5l-0.6-1.6h-2.8l-0.6,1.6h-1.5l2.7-6.9h1.5
			L435,394.5L435,394.5z"/>
		<path class="st1" d="M440.1,387.6v2.9c0.2,0,0.4-0.1,0.5-0.3c0.1-0.1,0.3-0.5,0.5-1.1c0.3-0.7,0.6-1.2,0.9-1.4s0.8-0.3,1.4-0.3
			c0,0,0.1,0,0.2,0v1h-0.2c-0.3,0-0.5,0-0.6,0.1s-0.2,0.2-0.3,0.3c-0.1,0.1-0.2,0.4-0.4,0.9c-0.1,0.2-0.2,0.4-0.3,0.6
			s-0.3,0.3-0.5,0.5c0.3,0.1,0.6,0.3,0.8,0.5c0.2,0.3,0.4,0.6,0.7,1.1l0.9,1.9H442l-0.8-1.8c0,0,0-0.1-0.1-0.1c0,0-0.1-0.1-0.2-0.3
			c-0.2-0.3-0.3-0.5-0.4-0.6s-0.2-0.1-0.4-0.1v3h-1.4v-3c-0.2,0-0.3,0-0.4,0.1c-0.1,0.1-0.3,0.3-0.4,0.6c-0.1,0.2-0.1,0.3-0.2,0.3
			c0,0-0.1,0.1-0.1,0.1l-0.8,1.8h-1.6l0.9-1.9c0.2-0.5,0.5-0.8,0.6-1.1c0.2-0.3,0.5-0.5,0.8-0.5c-0.2-0.1-0.4-0.3-0.5-0.5
			c-0.1-0.2-0.2-0.4-0.3-0.6c-0.2-0.4-0.3-0.7-0.4-0.9c-0.1-0.1-0.2-0.3-0.3-0.3c-0.1-0.1-0.4-0.1-0.6-0.1c0,0-0.1,0-0.2,0v-1
			c0.1,0,0.2,0,0.2,0c0.7,0,1.1,0.1,1.4,0.3c0.3,0.2,0.6,0.7,0.8,1.4c0.2,0.5,0.4,0.9,0.5,1.1c0.1,0.1,0.3,0.2,0.5,0.3v-2.9
			L440.1,387.6L440.1,387.6z"/>
		<line class="st14" x1="1079.4" y1="268.1" x2="1085.7" y2="273"/>
	</g>
</g>
</svg>
