<?xml version="1.0" encoding="utf-8"?>
<!-- Generator: Adobe Illustrator 28.0.0, SVG Export Plug-In . SVG Version: 6.00 Build 0)  -->
<svg version="1.1" id="_Слой_1" xmlns="http://www.w3.org/2000/svg" xmlns:xlink="http://www.w3.org/1999/xlink" x="0px"
	 y="0px" viewBox="0 0 1137 408" style="enable-background:new 0 0 1137 408;" xml:space="preserve">
<style type="text/css">
	.st0{fill:#201600;}
	.st1{fill:#8F589E;}
	.st2{fill:#3EB5F1;}
	.st3{fill:#72AE5F;}
	.st4{clip-path:url(#SVGID_00000032647403746213258570000010305624292500059525_);}
	.st5{fill:#7775B4;}
	.st6{fill:#7F7D7C;}
	.st7{fill:none;stroke:#201600;stroke-width:0.18;}
	.st8{fill:#FFFFFF;}
	.st9{fill:none;stroke:#201600;stroke-width:0.15;}
	.st10{fill:none;stroke:#201600;stroke-width:0.2;}
	.st11{fill-rule:evenodd;clip-rule:evenodd;fill:#72AE5F;}
	.st12{fill-rule:evenodd;clip-rule:evenodd;fill:#FFFFFF;}
	.st13{fill-rule:evenodd;clip-rule:evenodd;fill:#52AC62;}
</style>
<polygon class="st0" points="187.2,331.2 226.3,331.2 226.3,300.4 224.9,300.4 224.9,329.7 187.2,329.7 "/>
<path class="st0" d="M605.3,340.2h1.5V300h-1.5V340.2z M605.3,390.6h1.5v-41.1h-1.5V390.6z"/>
<polygon class="st1" points="742.3,338.8 761.7,338.8 761.7,337.4 743.7,337.4 743.7,302.6 773.3,302.6 773.3,337.4 768.9,337.4 
	768.9,338.8 774.8,338.8 774.8,301.2 742.3,301.2 "/>
<path class="st2" d="M787.1,338.8h42.6v-1.5h-42.6V338.8z M775.6,338.8h4.8v-1.5H777v-34.7h63.1v34.7h-3.9v1.5h5.3v-37.6h-66
	L775.6,338.8L775.6,338.8z"/>
<polygon class="st1" points="743,389.3 776,389.3 776,351.7 768.6,351.7 768.6,353.1 774.6,353.1 774.6,387.9 744.4,387.9 
	744.4,353.1 762,353.1 762,351.7 743,351.7 "/>
<polygon class="st1" points="726.2,389.3 742.3,389.3 742.3,351.7 735,351.7 735,353.1 740.8,353.1 740.8,387.9 727.6,387.9 
	727.6,353.1 729,353.1 729,351.7 726.2,351.7 "/>
<polygon class="st1" points="708,338.8 726.2,338.8 726.2,337.4 709.4,337.4 709.4,302.6 739.8,302.6 739.8,337.4 733.9,337.4 
	733.9,338.8 741.2,338.8 741.2,301.2 708,301.2 "/>
<polygon class="st2" points="674.7,338.8 679.8,338.8 679.8,337.4 676.1,337.4 676.1,302.6 705.9,302.6 705.9,337.4 686.6,337.4 
	686.6,338.8 707.3,338.8 707.3,301.2 674.7,301.2 "/>
<polygon class="st1" points="709,389.3 725.4,389.3 725.4,351.7 721.4,351.7 721.4,353.1 724,353.1 724,387.9 710.4,387.9 
	710.4,353.1 715.2,353.1 715.2,351.7 709,351.7 "/>
<polygon class="st1" points="364.4,389.3 381.5,389.3 381.5,351.7 376,351.7 376,353.1 380.1,353.1 380.1,387.9 365.8,387.9 
	365.8,353.1 368,353.1 368,351.7 364.4,351.7 "/>
<polygon class="st1" points="312.4,389.3 329.5,389.3 329.5,351.7 324,351.7 324,353.1 328.1,353.1 328.1,387.9 313.8,387.9 
	313.8,353.1 316,353.1 316,351.7 312.4,351.7 "/>
<polygon class="st1" points="296,389.3 312,389.3 312,351.7 306.5,351.7 306.5,353.1 310.5,353.1 310.5,387.9 297.4,387.9 
	297.4,353.1 300.2,353.1 300.2,351.7 296,351.7 "/>
<polygon class="st1" points="261.8,389.3 295.1,389.3 295.1,351.7 274.1,351.7 274.1,353.1 293.7,353.1 293.7,387.9 263.2,387.9 
	263.2,353.1 265.8,353.1 265.8,351.7 261.8,351.7 "/>
<polygon class="st1" points="244.3,389.3 260.9,389.3 260.9,351.7 255,351.7 255,353.1 259.5,353.1 259.5,387.9 245.8,387.9 
	245.8,353.1 247.9,353.1 247.9,351.7 244.3,351.7 "/>
<polygon class="st1" points="192.9,389.3 243.5,389.3 243.5,351.7 204.6,351.7 204.6,353.1 242,353.1 242,387.9 194.4,387.9 
	194.4,353.1 196.9,353.1 196.9,351.7 192.9,351.7 "/>
<polygon class="st1" points="141.4,389.3 191.9,389.3 191.9,351.7 151.1,351.7 151.1,353.1 190.5,353.1 190.5,387.9 142.8,387.9 
	142.8,353.1 144.5,353.1 144.5,351.7 141.4,351.7 "/>
<polygon class="st1" points="125.4,389.3 140.3,389.3 140.3,351.7 137.5,351.7 137.5,353.1 138.9,353.1 138.9,387.9 126.8,387.9 
	126.8,353.1 129.9,353.1 129.9,351.7 125.4,351.7 "/>
<polygon class="st1" points="150.2,331.2 159.1,331.2 159.1,301.2 125.4,301.2 125.4,331.1 142.4,331.1 142.4,329.7 126.8,329.7 
	126.8,302.6 157.6,302.6 157.6,329.8 150.2,329.8 "/>
<polygon class="st1" points="118.8,331.2 124.5,331.2 124.5,301.2 90.9,301.2 90.9,331.1 110.8,331.1 110.8,329.7 92.3,329.7 
	92.3,302.6 123.1,302.6 123.1,329.8 118.8,329.8 "/>
<polygon class="st1" points="84.8,331.2 90,331.2 90,301.2 54.1,301.2 54.1,331.1 77.4,331.1 77.4,329.7 55.6,329.7 55.6,302.6 
	88.6,302.6 88.6,329.8 84.8,329.8 "/>
<polygon class="st1" points="108.1,389.3 124.5,389.3 124.5,351.7 119.6,351.7 119.6,353.1 123.1,353.1 123.1,387.9 109.6,387.9 
	109.6,353.1 113.3,353.1 113.3,351.7 108.1,351.7 "/>
<polygon class="st1" points="88.4,389.3 107.1,389.3 107.1,351.7 101.6,351.7 101.6,353.1 105.6,353.1 105.6,387.9 89.8,387.9 
	89.8,353.1 94.1,353.1 94.1,351.7 88.4,351.7 "/>
<polygon class="st1" points="330.5,389.3 363.2,389.3 363.2,351.7 343.2,351.7 343.2,353.1 361.8,353.1 361.8,387.9 331.9,387.9 
	331.9,353.1 335.2,353.1 335.2,351.7 330.5,351.7 "/>
<polygon class="st2" points="432.8,338.8 436.1,338.8 436.1,337.4 434.2,337.4 434.2,302.6 463.6,302.6 463.6,337.4 443.9,337.4 
	443.9,338.8 465,338.8 465,301.2 432.8,301.2 "/>
<polygon class="st3" points="364.4,338.8 373.2,338.8 373.2,337.4 365.8,337.4 365.8,302.6 395.7,302.6 395.7,320.1 377.4,320.1 
	377.4,310.2 375.9,310.2 375.9,320.1 375,320.1 375,321.5 375.9,321.5 375.9,321.6 377.4,321.6 377.4,321.5 385.5,321.5 
	385.5,326.3 386.9,326.3 386.9,321.5 395.7,321.5 395.7,337.4 386.9,337.4 386.9,331.5 385.5,331.5 385.5,337.4 380.8,337.4 
	380.8,338.8 397.1,338.8 397.1,301.2 364.4,301.2 "/>
<polygon class="st3" points="607.1,338.8 611.7,338.8 611.7,337.4 608.5,337.4 608.5,321.6 611.7,321.6 611.7,320.1 608.5,320.1 
	608.5,302.6 637.7,302.6 637.7,320.1 625.9,320.1 625.9,320.1 624.5,320.1 624.5,320.1 623.5,320.1 623.5,310.2 622.1,310.2 
	622.1,320.1 618.3,320.1 618.3,321.6 624.5,321.6 624.5,326.3 625.9,326.3 625.9,321.6 637.7,321.6 637.7,337.4 625.9,337.4 
	625.9,331.5 624.5,331.5 624.5,337.4 618.3,337.4 618.3,338.8 639.1,338.8 639.1,301.2 607.1,301.2 "/>
<polygon class="st3" points="259.5,338.8 260.9,338.8 260.9,301.2 227.7,301.2 227.7,317.7 252.9,317.7 252.9,331.1 254.4,331.1 
	254.4,308.1 252.9,308.1 252.9,316.3 229.1,316.3 229.1,302.6 259.5,302.6 "/>
<path class="st2" d="M307.9,337.4v1.5h39.8v-1.5l0,0v-6.2h-1.5v6.2H307.9L307.9,337.4z M347.6,301.2h-85.9v37.6h38.4v-1.5h-37v-34.7
	h83v28.5h1.5V301.2L347.6,301.2z"/>
<polygon class="st2" points="307.9,337.4 307.9,338.8 347.5,338.8 347.6,337.4 347.6,331.1 346.2,331.1 346.2,337.4 "/>
<g>
	<g>
		<defs>
			<rect id="SVGID_1_" x="-9" y="-125" width="1190.6" height="841.9"/>
		</defs>
		<clipPath id="SVGID_00000145058165823526878050000014580812235761888156_">
			<use xlink:href="#SVGID_1_"  style="overflow:visible;"/>
		</clipPath>
		<g style="clip-path:url(#SVGID_00000145058165823526878050000014580812235761888156_);">
			<path class="st1" d="M352.6,302.6h9.2v34.7h-4.1v1.5h5.5v-37.6H352C352.4,301.5,352.7,302.1,352.6,302.6"/>
			<polygon class="st1" points="354,337.4 349.9,337.4 349.9,302.6 354,302.6 354,301.2 348.5,301.2 348.5,338.8 353.9,338.8 			"/>
			<path class="st2" d="M511.5,337.4v1.5h11v-1.5h-4.6v-7.8h-1.5v7.8H511.5z M466.1,338.8h38v-1.5h-4v-7.6h-1.5v7.6h-31.2v-34.7
				h31.2V324h1.5v-21.3h16.2v21.1h1.5v-21.1h14.5v34.7h-2.6v1.5h4v-37.6H466L466.1,338.8L466.1,338.8z"/>
			<path class="st2" d="M580.8,337.4v1.5h9.5v-1.5h-4.7v-6.8h-1.4v6.8H580.8L580.8,337.4z M549,337.4v1.5h24.5v-1.5h-3.9v-7.8h-1.4
				v7.8H549z M535.2,338.8h6.2v-1.5h-4.8v-34.7h31.5v21.1h1.4v-21.1h14.8v21.6h1.4v-21.6h17.4v34.7h-5.8v1.5h7.2v-37.6h-69.4
				L535.2,338.8L535.2,338.8z"/>
			<path class="st1" d="M470.8,353.1v-1.5h-76.1v1.5h36.6v3.6h1.5v-3.6H470.8L470.8,353.1z M487.4,353.1v-1.5h-8.3v1.5h4.1v3.6h1.5
				v-3.6H487.4L487.4,353.1z M504,353.1v-1.5h-9.2v1.5h4.8v3.6h1.4v-3.6H504L504,353.1z M590.3,351.7h-79.1v1.5h79.1V351.7z
				 M382.6,389.3h222v-37.6h-7.3v1.5h5.8v34.7H501v-26.7h-1.4v26.7h-14.9v-26.7h-1.5v26.7h-50.4v-26.7h-1.5v26.7H384v-34.7h2.8v-1.5
				h-4.2L382.6,389.3L382.6,389.3z"/>
			<path class="st1" d="M692.6,353.1v-1.5H619v1.5h54.6v7.3h1.5v-7.3H692.6L692.6,353.1z M608.2,389.3H708v-37.6h-8.3v1.5h6.9v34.7
				H675v-21.2h-1.5v21.2h-63.9v-34.7h2.3v-1.5h-3.7L608.2,389.3L608.2,389.3z"/>
			<polygon class="st1" points="998.4,94.2 999.6,95.1 1026.2,115 1027.4,115.9 1028.3,114.7 1029.8,112.7 1028.6,111.8 
				1027.1,113.8 1000.5,93.9 1008.5,83.1 1035.2,103.1 1032.4,106.8 1033.6,107.6 1036.3,103.9 1037.2,102.8 1036.1,101.9 
				1009.4,82 1008.2,81.1 1007.4,82.2 999.3,93 			"/>
			<polygon class="st1" points="1024.6,153.8 1025.8,154.6 1048.3,171.5 1048.3,171.4 1049.1,170.3 1056.6,160.4 1057.4,159.2 
				1056.3,158.3 1035,142.4 1033.8,141.5 1032.9,142.7 1029.9,146.7 1031.1,147.5 1034.1,143.5 1055.4,159.5 1048,169.5 
				1026.7,153.5 1027.5,152.3 1026.4,151.5 1025.5,152.6 			"/>
			<polygon class="st1" points="1065.2,123.7 1066.1,124.4 1066.4,124.6 1076.1,131.9 1077.2,132.7 1078.1,131.6 1097.5,105.7 
				1098.3,104.6 1097.2,103.7 1075.5,87.5 1075.5,87.5 1074.7,86.9 1069.4,93.9 1070.6,94.8 1075,88.9 1096.3,104.8 1077,130.7 
				1067.3,123.4 1077,110.4 1076.9,110.3 1076.9,110.2 1065.4,101.6 1066.9,99.6 1065.8,98.8 1064.3,100.8 1063.4,101.9 
				1064.6,102.8 1075,110.6 			"/>
			<polygon class="st1" points="1014.5,167.3 1015.7,168.1 1037,184.1 1038.2,185 1039,183.8 1046.7,173.6 1047.5,172.5 
				1046.4,171.6 1025,155.6 1023.9,154.8 1023,155.9 1020.1,159.9 1021.2,160.7 1024.2,156.8 1045.5,172.8 1037.9,182.9 1016.6,167 
				1017.4,165.9 1016.2,165 1015.4,166.1 			"/>
			<polygon class="st1" points="1004.6,180.6 1005.7,181.5 1027.1,197.4 1028.2,198.3 1029.1,197.1 1036.8,186.8 1037.7,185.6 
				1036.5,184.8 1015.2,168.8 1014,167.9 1013.2,169.1 1009.9,173.4 1011.1,174.3 1014.3,170 1035.7,185.9 1027.9,196.2 
				1006.6,180.3 1007.5,179.1 1006.3,178.3 1005.4,179.4 			"/>
			<path class="st5" d="M991,214l15.1,11.3l1.2,0.9l0.9-1.2l8-10.7l0.9-1.2l-1.2-0.9l-21.3-16l-1.2-0.9l-0.9,1.2l-3.3,4.4l1.2,0.9
				l3.3-4.4l21.3,16l-8,10.7l-15-11.2L991,214L991,214z M983.7,208.5l1.2,0.9l2.8,2.1l0.9-1.1l-2.9-2.1l1-1.3l-1.2-0.9l-1,1.3
				L983.7,208.5L983.7,208.5z M987.2,212.1l-2.8-2.1l-1.2-0.9l-0.9,1.2l-6.5,8.8l1.2,0.9l6.5-8.8l2.8,2.1L987.2,212.1L987.2,212.1z
				 M973.7,221.9l1.2,0.9l21.3,16l1.2,0.9l0.9-1.2l7.8-10.4l0.9-1.2l-1.2-0.9l-15.2-11.4l-1,1.1l15.3,11.4l-7.8,10.4l-21.3-16
				l1.2-1.7l-1.2-0.9l-1.3,1.7L973.7,221.9L973.7,221.9z M994.1,194.6l1.2,0.9l21.3,16l1.2,0.9l0.9-1.2l8.2-11l0.9-1.2l-1.2-0.9
				l-21.3-16l-1.2-0.9l-0.9,1.2l-3.5,4.7l1.2,0.9l3.5-4.7l21.3,16l-8.2,11l-21.3-16l1-1.4L996,192l-1,1.4L994.1,194.6L994.1,194.6z"
				/>
			<polygon class="st1" points="963,236.2 964.1,237.1 985.5,253 986.6,253.9 987.5,252.7 996,241.3 996.9,240.2 995.7,239.3 
				974.4,223.4 973.2,222.5 972.4,223.6 969.4,227.6 970.6,228.4 973.5,224.5 994.8,240.5 986.3,251.9 965,235.9 966.5,233.9 
				965.4,233 963.8,235 			"/>
			<polygon class="st1" points="907,216.5 908.1,217.4 934.8,237.3 935.9,238.2 936.8,237 939.3,233.7 938.1,232.8 935.6,236.1 
				909,216.2 916.7,206 943.3,225.9 941.7,228.1 942.8,228.9 944.5,226.8 945.3,225.6 944.2,224.7 917.5,204.8 916.4,203.9 
				915.5,205.1 907.8,215.3 			"/>
			<polygon class="st1" points="896.7,230.2 897.9,231.1 924.5,251 925.7,251.9 926.5,250.7 928.5,248.2 927.3,247.3 925.4,249.8 
				898.7,229.9 906.7,219.3 933.3,239.2 930.8,242.5 932,243.4 934.5,240.1 935.4,238.9 934.2,238 907.5,218.1 906.4,217.2 
				905.5,218.4 897.6,229 			"/>
			<path class="st1" d="M892.2,294.1l-3.3,4.4l1.2,0.9l3.3-4.4l0.2,0.1l0.9-1.2l-0.2-0.1l12.9-17.2l-1.2-0.9L893.1,293l-4.8-3.6
				l-0.9,1.2L892.2,294.1L892.2,294.1z M844.1,300.6l29,21.7l0.1-0.1l0.8-1.1l6.5-8.6l0.9-1.2l5.3-7l-1.2-0.9l-5.3,7l-10.1-7.6
				l-0.9,1.2l10.1,7.6l-6.5,8.6l-26.7-19.9l11.6-15.6l8.6,6.4l-4.3,5.8l-0.9,1.2l1.2,0.9l1.9,1.4l0.9-1.2l-1.9-1.4l4.3-5.8l0.9-1.2
				l-1.2-0.9l-8.6-6.4l7-9.3l16.7,12.5l0.9-1.2L866.5,273l19.5-26.1l16.7,12.5l0.9-1.2l-16.7-12.5l9.6-12.8l26.7,19.9l-9.6,12.8
				l-4.9-3.7l-0.9,1.2l4.9,3.7l-2.8,3.8l1.2,0.9l2.8-3.8l0,0l0.9-1.2l0,0l9.6-12.8l0.9-1.2l-1.2-0.9l-26.7-19.9l-1.2-0.9l-0.9,1.2
				l-30,40l-0.9,1.2l-7,9.3l-0.9,1.2l-11.7,15.6L844.1,300.6L844.1,300.6L844.1,300.6z"/>
			<polygon class="st6" points="842.6,338.8 860.6,338.8 860.6,338.8 860.7,338.8 865.6,332.1 864.5,331.3 859.9,337.4 844,337.4 
				844,303.4 870.5,323.2 868.8,325.5 870,326.3 871.7,324 872.5,322.9 872.5,322.9 843.7,301.2 842.6,301.2 			"/>
			<polygon class="st1" points="952.3,250.4 953.5,251.3 974.8,267.2 976,268.1 976.8,267 985.2,255.7 986.1,254.5 985,253.7 
				963.6,237.7 962.5,236.9 961.6,238 959.1,241.4 960.2,242.3 962.8,238.9 984.1,254.8 975.7,266.1 954.3,250.1 955.8,248.1 
				954.7,247.3 953.2,249.3 			"/>
			<polygon class="st1" points="878,349.7 879.2,350.6 900.5,366.6 901.7,367.4 902.5,366.3 913.1,352.2 913.9,351 912.8,350.2 
				891.5,334.2 890.3,333.3 889.4,334.5 886.9,337.9 888.1,338.7 890.6,335.4 911.9,351.3 901.4,365.4 880,349.5 881.5,347.5 
				880.4,346.6 878.9,348.6 			"/>
			<path class="st1" d="M849.1,353.1v-1.5H787v1.5h21.5v6.9h1.5v-6.9h31.4v7.6h1.5v-7.6H849.1L849.1,353.1z M885.3,389.3l15.2-20.4
				l0,0l0.9-1.1L878.9,351l-1.2-0.9l-0.9,1.2l-0.3,0.5h-20.9v1.5h21.5l0.8-1l21.3,16l-14.8,19.8h-41.8v-20h-1.5v20h-31.4v-20.3h-1.5
				v20.3H778v-34.7h2.1v-1.5h-3.6v37.6L885.3,389.3L885.3,389.3z"/>
			<polygon class="st3" points="943.2,285.2 944,285.9 944.3,286.1 954.8,294 956,294.8 956,294.8 956.8,293.7 956.8,293.7 
				974.8,269.7 974.8,269.7 975.6,268.6 952,250.9 951.1,252 973.6,268.9 955.7,292.8 945.2,285 953.6,273.7 959,277.7 959.9,276.5 
				954.5,272.5 959.6,265.7 963.7,268.8 964.6,267.7 948.5,255.6 947.6,256.8 958.4,264.9 			"/>
			<polygon class="st1" points="948,161.5 949.2,162.4 975.9,182.4 977,183.2 977.9,182.1 980.1,179.1 978.9,178.3 976.7,181.2 
				950.1,161.3 988.9,109.4 1015.5,129.3 982.3,173.8 983.4,174.6 1016.7,130.2 1017.6,129 1016.4,128.2 989.8,108.2 988.6,107.4 
				987.7,108.5 948.9,160.4 			"/>
			<polygon class="st1" points="917.1,202.9 918.3,203.8 944.9,223.7 946.1,224.6 946.9,223.4 968.5,194.6 967.4,193.7 945.8,222.6 
				919.1,202.6 947.8,164.3 974.4,184.3 971.8,187.7 973,188.6 975.6,185.1 976.5,184 975.3,183.1 948.7,163.2 947.5,162.3 
				946.6,163.5 918,201.8 			"/>
			<polygon class="st0" points="84.8,392.8 887.3,392.8 888,391.7 1103.5,103.6 1101.4,102 1059.8,157.5 1037.1,140.5 1058,112.6 
				1056.4,111.4 1035.5,139.3 1035.4,139.3 1034.3,140.9 1034.3,140.9 1035.9,142.1 1058.7,159.1 956.2,296.1 931.8,277.9 
				931.5,278.3 930.6,279.5 909.4,307.8 911,309 932.2,280.7 955,297.7 885.9,390.1 87.5,390.1 87.5,373.5 47.4,373.5 47.4,340.2 
				65.5,340.2 65.5,337.5 42.6,337.5 42.6,340.2 44.7,340.2 44.7,376.2 45.3,376.2 47.4,376.2 84.8,376.2 			"/>
			<path class="st7" d="M1059.9,11l70.2,52.6l0.1,0.1l-0.1,0.1c-9.5,12.7-19,25.4-28.5,38.1c0.7,0.5,1.3,1,2,1.5
				c9.5-12.7,19-25.4,28.5-38.1c0.5-0.7,1-1.4,1.6-2.1c-0.7-0.5-1.4-1-2.1-1.6c-24.1-18-48.2-36.1-72.3-54.1
				c-0.3,0.4-0.5,0.7-0.8,1.1l-0.8,1c-16.6,22.2-33.2,44.4-49.8,66.5c0.7,0.5,1.3,1,2,1.5c16.6-22.2,33.2-44.4,49.8-66.5L1059.9,11
				L1059.9,11L1059.9,11z"/>
			<path class="st0" d="M1076.3,86.4l25.7,19.2l1.6-2.2l-25.7-19.2L1076.3,86.4L1076.3,86.4z M50.9,331.6h2.7v-31h789.5l165.3-220.8
				l11.7,8.8l0.5-0.7l1.1-1.5l23.8-31.8l28.1,21l-11.4,15.2l2.2,1.6l15-20.1l-2.2-1.6l-2,2.7l-28.1-21l-2.2-1.6l-1.6,2.2l-23.8,31.8
				l-9.6-7.2l-2.2-1.6l-1.6,2.2L841.9,297.9h-791V331.6L50.9,331.6z"/>
			<path class="st0" d="M940.1,278l-0.5-3.2l3.2-0.5L940.1,278L940.1,278z M940.5,278.2l2.8-3.7l0.5,3.2L940.5,278.2z M939.4,279.2
				c1.7,1.2,4,0.9,5.2-0.8c1.2-1.6,0.9-4-0.8-5.2c-1.6-1.2-4-0.9-5.2,0.8C937.4,275.7,937.8,278,939.4,279.2 M939.1,279.7
				c-1.9-1.4-2.3-4.1-0.9-6c1.4-1.9,4.1-2.3,6-0.9s2.3,4.1,0.9,6S941,281.1,939.1,279.7 M933.8,277.4l9,6.8l6.8-9l-9-6.8
				L933.8,277.4L933.8,277.4z"/>
			<path class="st0" d="M947.6,268l-0.5-3.2l3.2-0.5L947.6,268L947.6,268z M947.9,268.2l2.8-3.7l0.5,3.2L947.9,268.2L947.9,268.2z
				 M946.9,269.2c1.7,1.2,4,0.9,5.2-0.8c1.2-1.6,0.9-4-0.8-5.2s-4-0.9-5.2,0.8C944.9,265.7,945.3,268,946.9,269.2 M946.6,269.7
				c-1.9-1.4-2.3-4.1-0.9-6c1.4-1.9,4.1-2.3,6-0.9s2.3,4.1,0.9,6S948.5,271.1,946.6,269.7 M941.2,267.4l9,6.8l6.8-9l-9-6.8
				L941.2,267.4L941.2,267.4z"/>
			
				<rect x="918.5" y="291.5" transform="matrix(0.599 -0.8007 0.8007 0.599 131.5775 868.2069)" class="st8" width="28.4" height="22.4"/>
			
				<rect x="1043" y="126.3" transform="matrix(0.599 -0.8007 0.8007 0.599 313.8531 901.6539)" class="st8" width="28.4" height="22.3"/>
			<polygon class="st0" points="930,305 931,303.6 924.3,298.6 923.3,300 			"/>
			<polygon class="st0" points="931.7,302.6 932.8,301.2 926.1,296.2 925,297.7 			"/>
			<polygon class="st0" points="933.4,300.3 934.5,298.9 927.8,293.9 926.8,295.3 			"/>
			<polygon class="st0" points="935.2,298 936.2,296.6 929.6,291.6 928.5,293 			"/>
			<polygon class="st0" points="936.9,295.6 938,294.2 931.3,289.3 930.3,290.7 			"/>
			<polygon class="st0" points="938.7,293.3 939.7,291.9 933.1,286.9 932,288.3 			"/>
			
				<rect x="1050.8" y="132.4" transform="matrix(0.5996 -0.8003 0.8003 0.5996 311.8245 896.3535)" class="st0" width="1.8" height="8.3"/>
			<polygon class="st0" points="1056.2,137.5 1057.3,136 1050.6,131.1 1049.6,132.5 			"/>
			<polygon class="st0" points="1058,135.1 1059.1,133.7 1052.4,128.7 1051.3,130.1 			"/>
			<polygon class="st0" points="1059.7,132.8 1060.8,131.4 1054.1,126.4 1053.1,127.8 			"/>
			
				<rect x="1057.8" y="123.1" transform="matrix(0.5999 -0.8001 0.8001 0.5999 321.8148 897.9764)" class="st0" width="1.8" height="8.3"/>
			
				<rect x="1059.5" y="120.8" transform="matrix(0.6001 -0.7999 0.7999 0.6001 324.1194 898.1714)" class="st0" width="1.8" height="8.3"/>
			
				<rect x="1000.2" y="102.7" transform="matrix(0.5992 -0.8006 0.8006 0.5992 319.1386 844.7273)" class="st0" width="6.1" height="1.8"/>
			
				<rect x="1002.7" y="104.6" transform="matrix(0.5992 -0.8006 0.8006 0.5992 318.6375 847.4542)" class="st0" width="6.1" height="1.8"/>
			
				<rect x="1004.9" y="106.3" transform="matrix(0.5989 -0.8008 0.8008 0.5989 318.4077 850.1922)" class="st0" width="6.1" height="1.8"/>
			
				<rect x="1007.2" y="108" transform="matrix(0.5994 -0.8004 0.8004 0.5994 317.5364 852.2217)" class="st0" width="6.1" height="1.8"/>
			
				<rect x="1009.4" y="109.7" transform="matrix(0.5994 -0.8004 0.8004 0.5994 317.0443 854.7416)" class="st0" width="6.1" height="1.8"/>
			
				<rect x="1011.9" y="111.5" transform="matrix(0.5989 -0.8008 0.8008 0.5989 317.0324 857.8676)" class="st0" width="6.1" height="1.8"/>
			<path class="st0" d="M248.6,325.7l-2.3,2.3l-2.3-2.3H248.6z M248.6,325.3H244l2.3-2.3L248.6,325.3z M250,325.5
				c0-2.1-1.7-3.7-3.7-3.7s-3.7,1.7-3.7,3.7s1.7,3.7,3.7,3.7C248.4,329.2,250,327.6,250,325.5 M250.6,325.5c0,2.4-1.9,4.3-4.3,4.3
				s-4.3-1.9-4.3-4.3s1.9-4.3,4.3-4.3S250.6,323.1,250.6,325.5 M251.9,319.9h-11.3v11.3h11.3V319.9z"/>
			<path class="st0" d="M236.3,325.7L234,328l-2.3-2.3H236.3z M236.3,325.3h-4.6l2.3-2.3L236.3,325.3z M237.7,325.5
				c0-2.1-1.7-3.7-3.7-3.7s-3.7,1.7-3.7,3.7s1.7,3.7,3.7,3.7S237.7,327.6,237.7,325.5 M238.3,325.5c0,2.4-1.9,4.3-4.3,4.3
				s-4.3-1.9-4.3-4.3s1.9-4.3,4.3-4.3S238.3,323.1,238.3,325.5 M239.6,319.9h-11.3v11.3h11.3V319.9z"/>
			<rect x="640.1" y="301.2" class="st8" width="34.2" height="34.2"/>
			<rect x="641.3" y="322" class="st0" width="8.7" height="2"/>
			<rect x="641.3" y="319" class="st0" width="8.7" height="2"/>
			<rect x="641.3" y="316.1" class="st0" width="8.7" height="2"/>
			<rect x="641.3" y="313.1" class="st0" width="8.7" height="2"/>
			<rect x="660.2" y="302.4" class="st0" width="2" height="8.7"/>
			<rect x="657.2" y="302.4" class="st0" width="2" height="8.7"/>
			<rect x="654.3" y="302.4" class="st0" width="2" height="8.7"/>
			<rect x="651.3" y="302.4" class="st0" width="2" height="8.7"/>
			<rect x="661" y="325.4" class="st0" width="2" height="8.7"/>
			<rect x="658.2" y="325.4" class="st0" width="2" height="8.7"/>
			<rect x="655.3" y="325.4" class="st0" width="2" height="8.7"/>
			<rect x="652.4" y="325.4" class="st0" width="2" height="8.7"/>
			<rect x="664.3" y="321.1" class="st0" width="8.7" height="2"/>
			<rect x="664.3" y="318.2" class="st0" width="8.7" height="2"/>
			<rect x="664.3" y="315.3" class="st0" width="8.7" height="2"/>
			<rect x="664.3" y="312.4" class="st0" width="8.7" height="2"/>
			<path class="st9" d="M664.4,311h8.5v-8.5h-8.5V311z M664.4,334h8.5v-8.5h-8.5V334z"/>
			<rect x="651.4" y="312.5" class="st10" width="11.5" height="11.5"/>
			<path class="st9" d="M641.4,311h8.5v-8.5h-8.5V311z M641.4,334h8.5v-8.5h-8.5V334z"/>
			<rect x="397.7" y="301.2" class="st8" width="34.2" height="34.2"/>
			<rect x="399" y="322" class="st0" width="8.7" height="2"/>
			<rect x="399" y="319" class="st0" width="8.7" height="2"/>
			<rect x="399" y="316.1" class="st0" width="8.7" height="2"/>
			<rect x="399" y="313.1" class="st0" width="8.7" height="2"/>
			<rect x="417.8" y="302.4" class="st0" width="2" height="8.7"/>
			<rect x="414.8" y="302.4" class="st0" width="2" height="8.7"/>
			<rect x="411.9" y="302.4" class="st0" width="2" height="8.7"/>
			<rect x="409" y="302.4" class="st0" width="2" height="8.7"/>
			<rect x="418.7" y="325.4" class="st0" width="2" height="8.7"/>
			<rect x="415.8" y="325.4" class="st0" width="2" height="8.7"/>
			<rect x="412.9" y="325.4" class="st0" width="2" height="8.7"/>
			<rect x="410" y="325.4" class="st0" width="2" height="8.7"/>
			<rect x="422" y="321.1" class="st0" width="8.7" height="2"/>
			<rect x="422" y="318.2" class="st0" width="8.7" height="2"/>
			<rect x="422" y="315.3" class="st0" width="8.7" height="2"/>
			<rect x="422" y="312.4" class="st0" width="8.7" height="2"/>
			<path class="st9" d="M422,311h8.5v-8.5H422V311z M422,334h8.5v-8.5H422V334z"/>
			<rect x="409" y="312.5" class="st10" width="11.5" height="11.5"/>
			<path class="st9" d="M399,311h8.5v-8.5H399V311z M399,334h8.5v-8.5H399V334z"/>
			<rect x="194.8" y="304.8" class="st8" width="28.4" height="22.4"/>
			<rect x="210.7" y="306.8" class="st0" width="1.8" height="8.3"/>
			<rect x="207.8" y="306.8" class="st0" width="1.8" height="8.3"/>
			<rect x="204.9" y="306.8" class="st0" width="1.8" height="8.3"/>
			<rect x="201.9" y="306.8" class="st0" width="1.8" height="8.3"/>
			<rect x="199" y="306.8" class="st0" width="1.8" height="8.3"/>
			<rect x="196.1" y="306.8" class="st0" width="1.8" height="8.3"/>
			<rect x="210.7" y="316.8" class="st0" width="1.8" height="8.3"/>
			<rect x="207.8" y="316.8" class="st0" width="1.8" height="8.3"/>
			<rect x="204.9" y="316.8" class="st0" width="1.8" height="8.3"/>
			<rect x="201.9" y="316.8" class="st0" width="1.8" height="8.3"/>
			<rect x="199" y="316.8" class="st0" width="1.8" height="8.3"/>
			<rect x="196.1" y="316.8" class="st0" width="1.8" height="8.3"/>
			<path class="st7" d="M7.1,392.3h3.2c24.4,0,48.8,0,73.3,0v-2.7H9.2v-89h42.5v-2.7H7.1V392.3z"/>
			<path class="st1" d="M72.7,319.8c2.1,0,3.8-1.7,3.8-3.8s-1.7-3.8-3.8-3.8s-3.8,1.7-3.8,3.8S70.6,319.8,72.7,319.8"/>
			<path class="st8" d="M70.8,316.4h0.3c0,0.1,0,0.2,0.1,0.2s0.1,0.1,0.2,0.1s0.1,0,0.2-0.1s0.1-0.2,0.1-0.3c0-0.1,0-0.2-0.1-0.3
				c-0.1-0.1-0.1-0.1-0.2-0.1s-0.2,0-0.2,0.1h-0.3l0.2-1.1H72v0.4h-0.6l-0.1,0.4c0.1,0,0.2-0.1,0.2-0.1c0.1,0,0.3,0.1,0.4,0.2
				s0.2,0.3,0.2,0.5s0,0.3-0.1,0.5s-0.3,0.3-0.5,0.3s-0.3,0-0.4-0.2C70.9,316.7,70.9,316.6,70.8,316.4"/>
			<path class="st8" d="M72.7,315.2C72.7,315.2,72.6,315.2,72.7,315.2c-0.1,0.1-0.2,0.1-0.2,0.2s0,0.3,0,0.5s0,0.4,0,0.5
				s0,0.1,0.1,0.2s0.1,0,0.1,0h0.1c0,0,0.1-0.1,0.1-0.2s0-0.3,0-0.5s0-0.4,0-0.5C72.8,315.3,72.8,315.3,72.7,315.2L72.7,315.2
				 M72.7,314.9c0.2,0,0.3,0.1,0.4,0.2c0.1,0.2,0.2,0.5,0.2,0.9s-0.1,0.7-0.2,0.9c-0.1,0.1-0.2,0.2-0.4,0.2s-0.3-0.1-0.4-0.2
				s-0.2-0.4-0.2-0.8s0.1-0.7,0.2-0.9C72.4,314.9,72.5,314.8,72.7,314.9"/>
			<path class="st8" d="M74.2,317h-0.3v-1.5c-0.1,0.1-0.3,0.2-0.4,0.3v-0.4c0.1,0,0.2-0.1,0.3-0.2s0.2-0.2,0.2-0.3h0.3L74.2,317
				L74.2,317z"/>
			<path class="st1" d="M107,319.8c2.1,0,3.8-1.7,3.8-3.8s-1.7-3.8-3.8-3.8s-3.8,1.7-3.8,3.8S104.9,319.8,107,319.8"/>
			<path class="st8" d="M105.1,316.4h0.3c0,0.1,0,0.2,0.1,0.2s0.1,0.1,0.2,0.1s0.1,0,0.2-0.1s0.1-0.2,0.1-0.3c0-0.1,0-0.2-0.1-0.3
				c-0.1-0.1-0.1-0.1-0.2-0.1s-0.2,0-0.2,0.1h-0.3l0.2-1.1h0.9v0.4h-0.6l-0.1,0.4c0.1,0,0.2-0.1,0.2-0.1c0.1,0,0.3,0.1,0.4,0.2
				s0.2,0.3,0.2,0.5s0,0.3-0.1,0.5s-0.3,0.3-0.5,0.3s-0.3,0-0.4-0.2C105.2,316.7,105.2,316.6,105.1,316.4"/>
			<path class="st8" d="M107,315.2C107,315.2,106.9,315.2,107,315.2c-0.1,0.1-0.2,0.1-0.2,0.2s0,0.3,0,0.5s0,0.4,0,0.5
				s0,0.1,0.1,0.2s0.1,0,0.1,0h0.1c0,0,0.1-0.1,0.1-0.2s0-0.3,0-0.5s0-0.4,0-0.5C107.1,315.3,107.1,315.3,107,315.2L107,315.2
				 M107,314.9c0.2,0,0.3,0.1,0.4,0.2c0.1,0.2,0.2,0.5,0.2,0.9s-0.1,0.7-0.2,0.9c-0.1,0.1-0.2,0.2-0.4,0.2s-0.3-0.1-0.4-0.2
				s-0.2-0.4-0.2-0.8s0.1-0.7,0.2-0.9C106.7,314.9,106.8,314.8,107,314.9"/>
			<path class="st8" d="M108.8,316.6v0.4h-1.1c0-0.1,0.1-0.3,0.1-0.4c0.1-0.1,0.2-0.3,0.4-0.5c0.2-0.2,0.2-0.3,0.3-0.3
				c0-0.1,0.1-0.2,0.1-0.2s0-0.2-0.1-0.2s-0.1-0.1-0.2-0.1s-0.1,0-0.2,0.1s-0.1,0.1-0.1,0.2h-0.3c0-0.2,0.1-0.4,0.2-0.5
				s0.2-0.1,0.4-0.1c0.2,0,0.3,0.1,0.4,0.2s0.1,0.2,0.1,0.4c0,0.1,0,0.2,0,0.3s-0.1,0.2-0.1,0.3c0,0.1-0.1,0.1-0.2,0.3
				s-0.2,0.2-0.2,0.2l-0.1,0.1L108.8,316.6L108.8,316.6z"/>
			<path class="st1" d="M141.3,319.8c2.1,0,3.8-1.7,3.8-3.8s-1.7-3.8-3.8-3.8s-3.8,1.7-3.8,3.8S139.2,319.8,141.3,319.8"/>
			<path class="st8" d="M139.4,316.4h0.3c0,0.1,0,0.2,0.1,0.2s0.1,0.1,0.2,0.1c0.1,0,0.1,0,0.2-0.1c0.1-0.1,0.1-0.2,0.1-0.3
				c0-0.1,0-0.2-0.1-0.3s-0.1-0.1-0.2-0.1c-0.1,0-0.2,0-0.2,0.1h-0.3l0.2-1.1h0.9v0.4H140l-0.1,0.4c0.1,0,0.1-0.1,0.2-0.1
				c0.1,0,0.3,0.1,0.4,0.2c0.1,0.1,0.1,0.3,0.1,0.5s0,0.3-0.1,0.5s-0.3,0.3-0.5,0.3s-0.3,0-0.4-0.2
				C139.5,316.7,139.5,316.6,139.4,316.4"/>
			<path class="st8" d="M141.3,315.2h-0.1c0,0-0.1,0.1-0.1,0.2s0,0.3,0,0.5s0,0.4,0,0.5s0,0.1,0.1,0.2s0.1,0,0.1,0h0.1
				c0,0,0.1-0.1,0.1-0.2s0-0.3,0-0.5s0-0.4,0-0.5s0-0.1-0.1-0.2C141.4,315.2,141.3,315.2,141.3,315.2 M141.3,314.9
				c0.2,0,0.3,0.1,0.4,0.2c0.1,0.2,0.2,0.5,0.2,0.9s-0.1,0.7-0.2,0.9c-0.1,0.1-0.2,0.2-0.4,0.2s-0.3-0.1-0.4-0.2
				c-0.1-0.2-0.1-0.4-0.1-0.8s0.1-0.7,0.2-0.9C141,314.9,141.1,314.8,141.3,314.9"/>
			<path class="st8" d="M142,316.4h0.3c0,0.1,0,0.2,0.1,0.2c0,0,0.1,0.1,0.2,0.1c0.1,0,0.1,0,0.2-0.1s0.1-0.1,0.1-0.3
				c0-0.1,0-0.2-0.1-0.2c0-0.1-0.1-0.1-0.2-0.1h-0.1v-0.3c0.1,0,0.1,0,0.2-0.1c0.1,0,0.1-0.1,0.1-0.2s0-0.1-0.1-0.2
				s-0.1-0.1-0.1-0.1s-0.1,0-0.1,0.1s-0.1,0.1-0.1,0.2l-0.3-0.1c0-0.1,0.1-0.2,0.1-0.3s0.1-0.1,0.2-0.2c0.1,0,0.2-0.1,0.2-0.1
				c0.2,0,0.3,0.1,0.4,0.2c0.1,0.1,0.1,0.2,0.1,0.4c0,0.2-0.1,0.3-0.2,0.4c0.1,0,0.2,0.1,0.2,0.2c0.1,0.1,0.1,0.2,0.1,0.3
				c0,0.2-0.1,0.3-0.2,0.5c-0.1,0.1-0.2,0.2-0.4,0.2c-0.1,0-0.3,0-0.4-0.2C142.1,316.7,142,316.6,142,316.4"/>
			<path class="st2" d="M302.9,324c2.1,0,3.8-1.7,3.8-3.8s-1.7-3.8-3.8-3.8s-3.8,1.7-3.8,3.8S300.8,324,302.9,324"/>
			<path class="st8" d="M301.2,320.6h0.3c0,0.1,0,0.2,0.1,0.2s0.1,0.1,0.2,0.1s0.1,0,0.2-0.1c0-0.1,0.1-0.2,0.1-0.3
				c0-0.1,0-0.2-0.1-0.3s-0.1-0.1-0.2-0.1s-0.2,0-0.2,0.1h-0.3l0.2-1.1h0.9v0.4h-0.6v0.4c0.1,0,0.1-0.1,0.2-0.1s0.3,0.1,0.4,0.2
				s0.1,0.3,0.1,0.5s0,0.3-0.1,0.5s-0.3,0.3-0.5,0.3s-0.3,0-0.4-0.2C301.3,320.9,301.3,320.8,301.2,320.6"/>
			<path class="st8" d="M303.1,319.4H303c0,0,0,0.1-0.1,0.2c0,0.1,0,0.3,0,0.5s0,0.4,0,0.5s0,0.1,0.1,0.2s0.1,0,0.1,0h0.1
				c0,0,0-0.1,0.1-0.2c0-0.1,0-0.3,0-0.5s0-0.4,0-0.5s0-0.1-0.1-0.2C303.2,319.4,303.1,319.3,303.1,319.4 M303.1,319
				c0.2,0,0.3,0.1,0.4,0.2c0.1,0.2,0.2,0.5,0.2,0.9s-0.1,0.7-0.2,0.9c-0.1,0.1-0.2,0.2-0.4,0.2s-0.3-0.1-0.4-0.2s-0.1-0.4-0.1-0.8
				s0-0.7,0.2-0.9C302.8,319.1,303,319,303.1,319"/>
			<path class="st8" d="M304.5,320.4v-0.7l-0.4,0.7H304.5z M304.5,321.1v-0.4h-0.7v-0.4l0.7-1.3h0.3v1.3h0.2v0.4h-0.2v0.4H304.5
				L304.5,321.1z"/>
			<path class="st1" d="M355.5,324c2.1,0,3.8-1.7,3.8-3.8s-1.7-3.8-3.8-3.8s-3.8,1.7-3.8,3.8S353.4,324,355.5,324"/>
			<path class="st8" d="M353.6,320.6h0.3c0,0.1,0,0.2,0.1,0.2s0.1,0.1,0.2,0.1s0.1,0,0.2-0.1c0-0.1,0.1-0.2,0.1-0.3
				c0-0.1,0-0.2-0.1-0.3s-0.1-0.1-0.2-0.1s-0.2,0-0.2,0.1h-0.3l0.2-1.1h0.9v0.4h-0.6v0.4c0.1,0,0.1-0.1,0.2-0.1s0.3,0.1,0.4,0.2
				s0.1,0.3,0.1,0.5s0,0.3-0.1,0.5s-0.3,0.3-0.5,0.3s-0.3,0-0.4-0.2C353.7,320.9,353.7,320.8,353.6,320.6"/>
			<path class="st8" d="M355.5,319.4h-0.1c0,0,0,0.1-0.1,0.2c0,0.1,0,0.3,0,0.5s0,0.4,0,0.5s0,0.1,0.1,0.2s0.1,0,0.1,0h0.1
				c0,0,0-0.1,0.1-0.2c0-0.1,0-0.3,0-0.5s0-0.4,0-0.5s0-0.1-0.1-0.2C355.5,319.4,355.5,319.3,355.5,319.4 M355.5,319
				c0.2,0,0.3,0.1,0.4,0.2c0.1,0.2,0.2,0.5,0.2,0.9s-0.1,0.7-0.2,0.9c-0.1,0.1-0.2,0.2-0.4,0.2s-0.3-0.1-0.4-0.2s-0.1-0.4-0.1-0.8
				s0-0.7,0.2-0.9C355.2,319.1,355.3,319,355.5,319"/>
			<path class="st8" d="M356.2,320.6h0.3c0,0.1,0,0.2,0.1,0.2s0.1,0.1,0.2,0.1s0.1,0,0.2-0.1s0.1-0.2,0.1-0.3c0-0.1,0-0.2-0.1-0.3
				s-0.1-0.1-0.2-0.1s-0.2,0-0.2,0.1h-0.3l0.2-1.1h0.9v0.4h-0.6v0.4c0.1,0,0.1-0.1,0.2-0.1s0.3,0.1,0.4,0.2s0.1,0.3,0.1,0.5
				s0,0.3-0.1,0.5s-0.3,0.3-0.5,0.3s-0.3,0-0.4-0.2C356.3,320.9,356.2,320.8,356.2,320.6"/>
			<path class="st2" d="M448,324c2.1,0,3.8-1.7,3.8-3.8s-1.7-3.8-3.8-3.8s-3.8,1.7-3.8,3.8S445.9,324,448,324"/>
			<path class="st8" d="M446.1,320.6h0.3c0,0.1,0,0.2,0.1,0.2s0.1,0.1,0.2,0.1s0.1,0,0.2-0.1c0-0.1,0.1-0.2,0.1-0.3
				c0-0.1,0-0.2-0.1-0.3s-0.1-0.1-0.2-0.1s-0.2,0-0.2,0.1h-0.3l0.2-1.1h0.9v0.4h-0.6v0.4c0.1,0,0.1-0.1,0.2-0.1s0.3,0.1,0.4,0.2
				s0.1,0.3,0.1,0.5s0,0.3-0.1,0.5s-0.3,0.3-0.5,0.3s-0.3,0-0.4-0.2C446.2,320.9,446.1,320.8,446.1,320.6"/>
			<path class="st8" d="M448,319.4h-0.1c0,0,0,0.1-0.1,0.2c0,0.1,0,0.3,0,0.5s0,0.4,0,0.5s0,0.1,0.1,0.2s0.1,0,0.1,0h0.1
				c0,0,0-0.1,0.1-0.2c0-0.1,0-0.3,0-0.5s0-0.4,0-0.5s0-0.1-0.1-0.2S448,319.3,448,319.4 M448,319c0.2,0,0.3,0.1,0.4,0.2
				c0.1,0.2,0.2,0.5,0.2,0.9s0,0.7-0.2,0.9c-0.1,0.1-0.2,0.2-0.4,0.2s-0.3-0.1-0.4-0.2s-0.1-0.4-0.1-0.8s0.1-0.7,0.2-0.9
				C447.7,319.1,447.8,319,448,319"/>
			<path class="st8" d="M449.1,320.4c0,0.1,0,0.2,0.1,0.3c0,0.1,0.1,0.1,0.2,0.1s0.1,0,0.1-0.1s0.1-0.1,0.1-0.3s0-0.2-0.1-0.3
				c0-0.1-0.1-0.1-0.2-0.1s-0.1,0-0.2,0.1S449.1,320.3,449.1,320.4 M449.8,319.5h-0.3c0-0.1,0-0.1-0.1-0.2l-0.1-0.1
				c-0.1,0-0.1,0-0.2,0.1c0,0.1-0.1,0.2-0.1,0.5c0.1-0.1,0.2-0.2,0.3-0.2c0.1,0,0.2,0.1,0.4,0.2s0.1,0.3,0.1,0.5s0,0.4-0.1,0.5
				s-0.2,0.2-0.4,0.2c-0.2,0-0.3-0.1-0.4-0.2c-0.1-0.2-0.2-0.4-0.2-0.8s0.1-0.7,0.2-0.8c0.1-0.2,0.3-0.3,0.5-0.3
				c0.1,0,0.2,0,0.3,0.1C449.7,319.2,449.8,319.4,449.8,319.5"/>
			<path class="st2" d="M490.2,324c2.1,0,3.8-1.7,3.8-3.8s-1.7-3.8-3.8-3.8s-3.8,1.7-3.8,3.8S488.1,324,490.2,324"/>
			<path class="st8" d="M488.3,320.6h0.3c0,0.1,0,0.2,0.1,0.2s0.1,0.1,0.2,0.1s0.1,0,0.2-0.1s0.1-0.2,0.1-0.3c0-0.1,0-0.2-0.1-0.3
				s-0.1-0.1-0.2-0.1s-0.2,0-0.2,0.1h-0.3l0.2-1.1h0.9v0.4h-0.6v0.4c0.1,0,0.1-0.1,0.2-0.1s0.3,0.1,0.4,0.2s0.1,0.3,0.1,0.5
				s0,0.3-0.1,0.5s-0.3,0.3-0.5,0.3s-0.3,0-0.4-0.2C488.4,320.9,488.4,320.8,488.3,320.6"/>
			<path class="st8" d="M490.2,319.4h-0.1c0,0,0,0.1-0.1,0.2c0,0.1,0,0.3,0,0.5s0,0.4,0,0.5s0,0.1,0.1,0.2s0.1,0,0.1,0h0.1
				c0,0,0-0.1,0.1-0.2c0-0.1,0-0.3,0-0.5s0-0.4,0-0.5s0-0.1-0.1-0.2C490.2,319.4,490.2,319.3,490.2,319.4 M490.2,319
				c0.2,0,0.3,0.1,0.4,0.2c0.1,0.2,0.2,0.5,0.2,0.9s-0.1,0.7-0.2,0.9c-0.1,0.1-0.2,0.2-0.4,0.2s-0.3-0.1-0.4-0.2s-0.1-0.4-0.1-0.8
				s0.1-0.7,0.2-0.9C489.9,319.1,490,319,490.2,319"/>
			<path class="st8" d="M490.9,319.4V319h1.1v0.3c-0.1,0.1-0.2,0.3-0.3,0.5c-0.1,0.2-0.2,0.4-0.2,0.7c0,0.2-0.1,0.5-0.1,0.6h-0.3
				c0-0.3,0-0.6,0.1-0.9s0.2-0.6,0.4-0.8L490.9,319.4L490.9,319.4z"/>
			<path class="st2" d="M526,324c2.1,0,3.8-1.7,3.8-3.8s-1.7-3.8-3.8-3.8s-3.8,1.7-3.8,3.8S523.8,324,526,324"/>
			<path class="st8" d="M524.1,320.6h0.3c0,0.1,0,0.2,0.1,0.2c0,0,0.1,0.1,0.2,0.1c0.1,0,0.1,0,0.2-0.1c0-0.1,0.1-0.2,0.1-0.3
				c0-0.1,0-0.2-0.1-0.3s-0.1-0.1-0.2-0.1c-0.1,0-0.2,0-0.2,0.1h-0.3l0.2-1.1h0.9v0.4h-0.6v0.4c0.1,0,0.2-0.1,0.2-0.1
				c0.2,0,0.3,0.1,0.4,0.2s0.2,0.3,0.2,0.5s0,0.3-0.1,0.5s-0.3,0.3-0.5,0.3s-0.3,0-0.4-0.2C524.2,320.9,524.1,320.8,524.1,320.6"/>
			<path class="st8" d="M525.9,319.4C525.9,319.4,525.8,319.4,525.9,319.4c-0.1,0.1-0.1,0.1-0.2,0.2c0,0.1,0,0.3,0,0.5s0,0.4,0,0.5
				s0,0.1,0.1,0.2h0.1h0.1c0,0,0-0.1,0.1-0.2c0-0.1,0-0.3,0-0.5s0-0.4,0-0.5C526.1,319.5,526.1,319.4,525.9,319.4
				C526,319.4,526,319.3,525.9,319.4 M525.9,319c0.2,0,0.3,0.1,0.4,0.2c0.1,0.2,0.2,0.5,0.2,0.9s-0.1,0.7-0.2,0.9
				c-0.1,0.1-0.2,0.2-0.4,0.2s-0.3-0.1-0.4-0.2c-0.1-0.2-0.2-0.4-0.2-0.8s0.1-0.7,0.2-0.9C525.6,319.1,525.8,319,525.9,319"/>
			<path class="st8" d="M527,320.5c0,0.1,0,0.2,0.1,0.3s0.1,0.1,0.2,0.1s0.1,0,0.2-0.1s0.1-0.1,0.1-0.3c0-0.1,0-0.2-0.1-0.2
				s-0.1-0.1-0.2-0.1c-0.1,0-0.1,0-0.2,0.1S527,320.4,527,320.5 M527,319.6c0,0.1,0,0.1,0,0.2c0,0,0.1,0.1,0.2,0.1s0.1,0,0.2-0.1
				c0,0,0-0.1,0-0.2s0-0.1,0-0.2c0,0-0.1-0.1-0.2-0.1s-0.1,0-0.2,0.1C527,319.5,527,319.5,527,319.6 M526.9,320
				c-0.1,0-0.2-0.1-0.2-0.2s-0.1-0.2-0.1-0.2c0-0.2,0-0.3,0.1-0.4s0.2-0.1,0.4-0.1s0.3,0,0.4,0.1s0.1,0.2,0.1,0.4
				c0,0.1,0,0.2-0.1,0.3c0,0.1-0.1,0.1-0.2,0.2c0.1,0,0.2,0.1,0.2,0.2s0.1,0.2,0.1,0.3c0,0.2,0,0.4-0.2,0.5
				c-0.1,0.1-0.2,0.2-0.4,0.2s-0.3,0-0.4-0.1c-0.1-0.1-0.2-0.3-0.2-0.5c0-0.1,0-0.2,0.1-0.3C526.8,320.1,526.8,320,526.9,320"/>
			<path class="st2" d="M551.3,324c2.1,0,3.8-1.7,3.8-3.8s-1.7-3.8-3.8-3.8s-3.8,1.7-3.8,3.8S549.2,324,551.3,324"/>
			<path class="st8" d="M549.4,320.6h0.3c0,0.1,0,0.2,0.1,0.2c0,0,0.1,0.1,0.2,0.1c0.1,0,0.1,0,0.2-0.1s0.1-0.2,0.1-0.3
				c0-0.1,0-0.2-0.1-0.3s-0.1-0.1-0.2-0.1c-0.1,0-0.2,0-0.2,0.1h-0.3l0.2-1.1h0.9v0.4H550v0.4c0.1,0,0.2-0.1,0.2-0.1
				c0.2,0,0.3,0.1,0.4,0.2s0.2,0.3,0.2,0.5s0,0.3-0.1,0.5s-0.3,0.3-0.5,0.3s-0.3,0-0.4-0.2C549.5,320.9,549.5,320.8,549.4,320.6"/>
			<path class="st8" d="M551.3,319.4C551.3,319.4,551.2,319.4,551.3,319.4c-0.1,0.1-0.1,0.1-0.2,0.2c0,0.1,0,0.3,0,0.5s0,0.4,0,0.5
				s0,0.1,0.1,0.2h0.1h0.1c0,0,0-0.1,0.1-0.2c0-0.1,0-0.3,0-0.5s0-0.4,0-0.5C551.4,319.5,551.4,319.4,551.3,319.4
				C551.4,319.4,551.3,319.3,551.3,319.4 M551.3,319c0.2,0,0.3,0.1,0.4,0.2c0.1,0.2,0.2,0.5,0.2,0.9s0,0.7-0.2,0.9
				c-0.1,0.1-0.2,0.2-0.4,0.2s-0.3-0.1-0.4-0.2c-0.1-0.2-0.2-0.4-0.2-0.8s0.1-0.7,0.2-0.9C551,319.1,551.1,319,551.3,319"/>
			<path class="st8" d="M552.8,319.8c0-0.1,0-0.2-0.1-0.3c0-0.1-0.1-0.1-0.2-0.1s-0.1,0-0.2,0.1c0,0.1-0.1,0.1-0.1,0.3
				s0,0.2,0.1,0.3c0,0.1,0.1,0.1,0.2,0.1s0.1,0,0.2-0.1C552.8,320,552.8,319.9,552.8,319.8 M552,320.7h0.3c0,0.1,0,0.1,0.1,0.2
				l0.1,0.1c0.1,0,0.1,0,0.2-0.1s0.1-0.2,0.1-0.5c-0.1,0.1-0.2,0.2-0.3,0.2s-0.2-0.1-0.3-0.2s-0.2-0.3-0.2-0.5s0-0.4,0.2-0.5
				c0.1-0.1,0.2-0.2,0.4-0.2s0.3,0.1,0.4,0.2s0.2,0.4,0.2,0.8s-0.1,0.7-0.2,0.8c-0.1,0.2-0.3,0.3-0.5,0.3c-0.1,0-0.2,0-0.3-0.1
				S552.1,320.8,552,320.7"/>
			<path class="st2" d="M576.6,324c2.1,0,3.8-1.7,3.8-3.8s-1.7-3.8-3.8-3.8s-3.8,1.7-3.8,3.8S574.5,324,576.6,324"/>
			<path class="st8" d="M574.8,320.6h0.3c0,0.1,0,0.2,0.1,0.2c0,0,0.1,0.1,0.2,0.1c0.1,0,0.1,0,0.2-0.1c0-0.1,0.1-0.2,0.1-0.3
				c0-0.1,0-0.2-0.1-0.3s-0.1-0.1-0.2-0.1c-0.1,0-0.2,0-0.2,0.1h-0.3l0.2-1.1h0.9v0.4h-0.6v0.4c0.1,0,0.2-0.1,0.2-0.1
				c0.2,0,0.3,0.1,0.4,0.2s0.2,0.3,0.2,0.5s0,0.3-0.1,0.5s-0.3,0.3-0.5,0.3s-0.3,0-0.4-0.2C574.9,320.9,574.8,320.8,574.8,320.6"/>
			<path class="st8" d="M576.9,321.1h-0.3v-1.5c-0.1,0.1-0.3,0.2-0.4,0.3v-0.4c0.1,0,0.2-0.1,0.3-0.2s0.2-0.2,0.2-0.3h0.3
				L576.9,321.1L576.9,321.1z"/>
			<path class="st8" d="M577.9,319.4C577.9,319.4,577.8,319.4,577.9,319.4c-0.1,0.1-0.1,0.1-0.2,0.2c0,0.1,0,0.3,0,0.5s0,0.4,0,0.5
				s0,0.1,0.1,0.2h0.1h0.1c0,0,0-0.1,0.1-0.2c0-0.1,0-0.3,0-0.5s0-0.4,0-0.5C578.1,319.5,578,319.4,577.9,319.4
				C578,319.4,577.9,319.3,577.9,319.4 M577.9,319c0.2,0,0.3,0.1,0.4,0.2c0.1,0.2,0.2,0.5,0.2,0.9s-0.1,0.7-0.2,0.9
				c-0.1,0.1-0.2,0.2-0.4,0.2s-0.3-0.1-0.4-0.2c-0.1-0.2-0.2-0.4-0.2-0.8s0.1-0.7,0.2-0.9C577.6,319.1,577.7,319,577.9,319"/>
			<path class="st2" d="M594.3,324c2.1,0,3.8-1.7,3.8-3.8s-1.7-3.8-3.8-3.8s-3.8,1.7-3.8,3.8S592.2,324,594.3,324"/>
			<path class="st8" d="M592.3,320.8h0.3c0.1,0,0.2,0,0.2,0s0.1,0,0.1-0.1s0-0.1,0-0.2s0-0.2-0.1-0.2s-0.2-0.1-0.3-0.1h-0.3
				L592.3,320.8L592.3,320.8z M591.9,319h1.3v0.4h-0.9v0.5h0.5c0.1,0,0.2,0,0.3,0.1s0.2,0.1,0.2,0.2s0.1,0.2,0.1,0.4s0,0.3-0.1,0.4
				s-0.1,0.2-0.2,0.2c-0.1,0-0.2,0.1-0.3,0.1H592L591.9,319L591.9,319z"/>
			<polygon class="st8" points="593.6,321.1 593.6,319 593.9,319 593.9,319.9 594.6,319.9 594.6,319 595,319 595,321.1 594.6,321.1 
				594.6,320.2 593.9,320.2 593.9,321.1 			"/>
			<path class="st8" d="M596.4,320.4l0.3,0.1c0,0.2-0.1,0.4-0.3,0.5c-0.1,0.1-0.3,0.2-0.5,0.2s-0.4-0.1-0.6-0.3s-0.2-0.5-0.2-0.8
				c0-0.4,0.1-0.6,0.2-0.8c0.2-0.2,0.3-0.3,0.6-0.3c0.2,0,0.4,0.1,0.5,0.2s0.1,0.2,0.2,0.4l-0.3,0.1c0-0.1-0.1-0.2-0.1-0.3
				c-0.1-0.1-0.1-0.1-0.2-0.1c-0.1,0-0.2,0.1-0.3,0.2s-0.1,0.3-0.1,0.5c0,0.3,0,0.5,0.1,0.6s0.2,0.2,0.3,0.2s0.2,0,0.2-0.1
				S596.3,320.5,596.4,320.4"/>
			<path class="st2" d="M690.6,324c2.1,0,3.8-1.7,3.8-3.8s-1.7-3.8-3.8-3.8s-3.8,1.7-3.8,3.8S688.5,324,690.6,324"/>
			<path class="st8" d="M688.8,320.6h0.3c0,0.1,0,0.2,0.1,0.2c0,0,0.1,0.1,0.2,0.1c0.1,0,0.1,0,0.2-0.1s0.1-0.2,0.1-0.3
				c0-0.1,0-0.2-0.1-0.3s-0.1-0.1-0.2-0.1c-0.1,0-0.2,0-0.2,0.1h-0.3l0.2-1.1h0.9v0.4h-0.6v0.4c0.1,0,0.2-0.1,0.2-0.1
				c0.2,0,0.3,0.1,0.4,0.2s0.2,0.3,0.2,0.5s0,0.3-0.1,0.5s-0.3,0.3-0.5,0.3s-0.3,0-0.4-0.2C688.9,320.9,688.8,320.8,688.8,320.6"/>
			<path class="st8" d="M690.9,321.1h-0.3v-1.5c-0.1,0.1-0.3,0.2-0.4,0.3v-0.4c0.1,0,0.2-0.1,0.3-0.2s0.2-0.2,0.2-0.3h0.3
				L690.9,321.1L690.9,321.1z"/>
			<path class="st8" d="M692.1,321.1h-0.3v-1.5c-0.1,0.1-0.3,0.2-0.4,0.3v-0.4c0.1,0,0.2-0.1,0.3-0.2s0.2-0.2,0.2-0.3h0.3
				L692.1,321.1L692.1,321.1z"/>
			<path class="st1" d="M724.1,324c2.1,0,3.8-1.7,3.8-3.8s-1.7-3.8-3.8-3.8s-3.8,1.7-3.8,3.8S722,324,724.1,324"/>
			<path class="st8" d="M722.2,320.6h0.3c0,0.1,0,0.2,0.1,0.2c0,0,0.1,0.1,0.2,0.1c0.1,0,0.1,0,0.2-0.1c0-0.1,0.1-0.2,0.1-0.3
				c0-0.1,0-0.2-0.1-0.3s-0.1-0.1-0.2-0.1c-0.1,0-0.2,0-0.2,0.1h-0.3l0.2-1.1h0.9v0.4h-0.6v0.4c0.1,0,0.2-0.1,0.2-0.1
				c0.2,0,0.3,0.1,0.4,0.2s0.2,0.3,0.2,0.5s0,0.3-0.1,0.5s-0.3,0.3-0.5,0.3s-0.3,0-0.4-0.2C722.3,320.9,722.3,320.8,722.2,320.6"/>
			<path class="st8" d="M724.3,321.1H724v-1.5c-0.1,0.1-0.3,0.2-0.4,0.3v-0.4c0.1,0,0.2-0.1,0.3-0.2s0.2-0.2,0.2-0.3h0.3
				L724.3,321.1L724.3,321.1z"/>
			<path class="st8" d="M725.9,320.8v0.4h-1.1c0-0.1,0-0.3,0.1-0.4s0.2-0.3,0.4-0.5s0.2-0.3,0.3-0.3c0-0.1,0.1-0.2,0.1-0.2
				s0-0.2-0.1-0.2s-0.1-0.1-0.2-0.1s-0.1,0-0.2,0.1s-0.1,0.1-0.1,0.2h-0.3c0-0.2,0.1-0.4,0.2-0.5s0.2-0.1,0.4-0.1s0.3,0.1,0.4,0.2
				s0.1,0.2,0.1,0.4c0,0.1,0,0.2,0,0.3c0,0.1-0.1,0.2-0.1,0.3c0,0.1-0.1,0.1-0.2,0.3c-0.1,0.1-0.2,0.2-0.2,0.2s0,0.1-0.1,0.1
				L725.9,320.8L725.9,320.8z"/>
			<path class="st1" d="M758,324c2.1,0,3.8-1.7,3.8-3.8s-1.7-3.8-3.8-3.8s-3.8,1.7-3.8,3.8S755.9,324,758,324"/>
			<path class="st8" d="M756.1,320.6h0.3c0,0.1,0,0.2,0.1,0.2c0,0,0.1,0.1,0.2,0.1c0.1,0,0.1,0,0.2-0.1c0-0.1,0.1-0.2,0.1-0.3
				c0-0.1,0-0.2-0.1-0.3s-0.1-0.1-0.2-0.1c-0.1,0-0.2,0-0.2,0.1h-0.3l0.2-1.1h0.9v0.4h-0.6v0.4c0.1,0,0.2-0.1,0.2-0.1
				c0.2,0,0.3,0.1,0.4,0.2s0.2,0.3,0.2,0.5s0,0.3-0.1,0.5s-0.3,0.3-0.5,0.3s-0.3,0-0.4-0.2C756.2,320.9,756.1,320.8,756.1,320.6"/>
			<path class="st8" d="M758.2,321.1h-0.3v-1.5c-0.1,0.1-0.3,0.2-0.4,0.3v-0.4c0.1,0,0.2-0.1,0.3-0.2s0.2-0.2,0.2-0.3h0.3
				L758.2,321.1L758.2,321.1z"/>
			<path class="st8" d="M758.7,320.6h0.3c0,0.1,0,0.2,0.1,0.2c0,0,0.1,0.1,0.2,0.1c0.1,0,0.1,0,0.2-0.1s0.1-0.1,0.1-0.3
				c0-0.1,0-0.2-0.1-0.2c0-0.1-0.1-0.1-0.2-0.1c0,0-0.1,0-0.2,0v-0.3c0.1,0,0.2,0,0.2-0.1c0,0,0.1-0.1,0.1-0.2s0-0.1,0-0.2l-0.1-0.1
				c0,0-0.1,0-0.1,0.1s-0.1,0.1-0.1,0.2l-0.3-0.1c0-0.1,0-0.2,0.1-0.3c0-0.1,0.1-0.1,0.2-0.2c0.1,0,0.2-0.1,0.2-0.1
				c0.2,0,0.3,0.1,0.4,0.2c0.1,0.1,0.1,0.2,0.1,0.4c0,0.2-0.1,0.3-0.2,0.4c0.1,0,0.2,0.1,0.2,0.2c0.1,0.1,0.1,0.2,0.1,0.3
				c0,0.2,0,0.3-0.2,0.5s-0.2,0.2-0.4,0.2s-0.3,0-0.4-0.2C758.8,320.9,758.7,320.7,758.7,320.6"/>
			<path class="st2" d="M808.1,324c2.1,0,3.8-1.7,3.8-3.8s-1.7-3.8-3.8-3.8s-3.8,1.7-3.8,3.8S806,324,808.1,324"/>
			<path class="st8" d="M806.2,320.6h0.3c0,0.1,0,0.2,0.1,0.2c0,0,0.1,0.1,0.2,0.1c0.1,0,0.1,0,0.2-0.1c0-0.1,0.1-0.2,0.1-0.3
				c0-0.1,0-0.2-0.1-0.3s-0.1-0.1-0.2-0.1c-0.1,0-0.2,0-0.2,0.1h-0.3l0.2-1.1h0.9v0.4h-0.6v0.4c0.1,0,0.2-0.1,0.2-0.1
				c0.2,0,0.3,0.1,0.4,0.2s0.2,0.3,0.2,0.5s0,0.3-0.1,0.5s-0.3,0.3-0.5,0.3s-0.3,0-0.4-0.2C806.3,320.9,806.3,320.8,806.2,320.6"/>
			<path class="st8" d="M808.3,321.1H808v-1.5c-0.1,0.1-0.3,0.2-0.4,0.3v-0.4c0.1,0,0.2-0.1,0.3-0.2s0.2-0.2,0.2-0.3h0.3
				L808.3,321.1L808.3,321.1z"/>
			<path class="st8" d="M809.5,320.4v-0.7l-0.4,0.7H809.5z M809.5,321.1v-0.4h-0.7v-0.4l0.7-1.3h0.3v1.3h0.2v0.4h-0.2v0.4H809.5
				L809.5,321.1z"/>
			<path class="st1" d="M876.7,298.3c2.1,0,3.8-1.7,3.8-3.8s-1.7-3.8-3.8-3.8s-3.8,1.7-3.8,3.8S874.6,298.3,876.7,298.3"/>
			<path class="st8" d="M874.8,294.9h0.3c0,0.1,0,0.2,0.1,0.2c0,0,0.1,0.1,0.2,0.1c0.1,0,0.1,0,0.2-0.1c0-0.1,0.1-0.2,0.1-0.3
				c0-0.1,0-0.2-0.1-0.3s-0.1-0.1-0.2-0.1c-0.1,0-0.2,0-0.2,0.1h-0.3l0.2-1.1h0.9v0.4h-0.6v0.4c0.1,0,0.2-0.1,0.2-0.1
				c0.2,0,0.3,0.1,0.4,0.2s0.2,0.3,0.2,0.5s0,0.3-0.1,0.5s-0.3,0.3-0.5,0.3s-0.3,0-0.4-0.2C874.9,295.2,874.9,295,874.8,294.9"/>
			<path class="st8" d="M877,295.4h-0.3v-1.5c-0.1,0.1-0.3,0.2-0.4,0.3v-0.4c0.1,0,0.2-0.1,0.3-0.2s0.2-0.2,0.2-0.3h0.3L877,295.4
				L877,295.4z"/>
			<path class="st8" d="M877.4,294.9h0.3c0,0.1,0,0.2,0.1,0.2c0,0,0.1,0.1,0.2,0.1c0.1,0,0.1,0,0.2-0.1c0-0.1,0.1-0.2,0.1-0.3
				c0-0.1,0-0.2-0.1-0.3s-0.1-0.1-0.2-0.1c-0.1,0-0.2,0-0.2,0.1h-0.3l0.2-1.1h0.9v0.4H878v0.4c0.1,0,0.2-0.1,0.2-0.1
				c0.2,0,0.3,0.1,0.4,0.2s0.2,0.3,0.2,0.5s0,0.3-0.1,0.5s-0.3,0.3-0.5,0.3s-0.3,0-0.4-0.2C877.5,295.2,877.5,295,877.4,294.9"/>
			<path class="st1" d="M890,275.8c2.1,0,3.8-1.7,3.8-3.8s-1.7-3.8-3.8-3.8s-3.8,1.7-3.8,3.8S887.9,275.8,890,275.8"/>
			<path class="st8" d="M887.3,272.4h0.3c0,0.1,0,0.2,0.1,0.2c0,0,0.1,0.1,0.2,0.1c0.1,0,0.1,0,0.2-0.1s0.1-0.2,0.1-0.3
				c0-0.1,0-0.2-0.1-0.3s-0.1-0.1-0.2-0.1c-0.1,0-0.2,0-0.2,0.1h-0.3l0.2-1.1h0.9v0.4h-0.6v0.4c0.1,0,0.2-0.1,0.2-0.1
				c0.2,0,0.3,0.1,0.4,0.2s0.2,0.3,0.2,0.5s0,0.3-0.1,0.5s-0.3,0.3-0.5,0.3s-0.3,0-0.4-0.2C887.4,272.7,887.3,272.5,887.3,272.4"/>
			<path class="st8" d="M889.4,272.9h-0.3v-1.5c-0.1,0.1-0.3,0.2-0.4,0.3v-0.4c0.1,0,0.2-0.1,0.3-0.2s0.2-0.2,0.2-0.3h0.3
				L889.4,272.9L889.4,272.9z"/>
			<path class="st8" d="M889.9,272.4h0.3c0,0.1,0,0.2,0.1,0.2c0,0,0.1,0.1,0.2,0.1c0.1,0,0.1,0,0.2-0.1s0.1-0.2,0.1-0.3
				c0-0.1,0-0.2-0.1-0.3s-0.1-0.1-0.2-0.1c-0.1,0-0.2,0-0.2,0.1H890l0.2-1.1h0.9v0.4h-0.6v0.4c0.1,0,0.2-0.1,0.2-0.1
				c0.2,0,0.3,0.1,0.4,0.2s0.2,0.3,0.2,0.5s0,0.3-0.1,0.5s-0.3,0.3-0.5,0.3s-0.3,0-0.4-0.2C890,272.7,889.9,272.5,889.9,272.4"/>
			<path class="st8" d="M892.2,272.1l-0.2-0.8l-0.2,0.8H892.2z M892.8,272.9h-0.4l-0.2-0.5h-0.7l-0.1,0.5H891l0.7-2.1h0.4
				L892.8,272.9L892.8,272.9z"/>
			<path class="st1" d="M917.5,239.8c2.1,0,3.8-1.7,3.8-3.8s-1.7-3.8-3.8-3.8s-3.8,1.7-3.8,3.8S915.4,239.8,917.5,239.8"/>
			<path class="st8" d="M915.6,236.4h0.3c0,0.1,0,0.2,0.1,0.2c0,0,0.1,0.1,0.2,0.1c0.1,0,0.1,0,0.2-0.1c0-0.1,0.1-0.2,0.1-0.3
				c0-0.1,0-0.2-0.1-0.3s-0.1-0.1-0.2-0.1c-0.1,0-0.2,0-0.2,0.1h-0.3l0.2-1.1h0.9v0.4H916v0.4c0.1,0,0.2-0.1,0.2-0.1
				c0.2,0,0.3,0.1,0.4,0.2s0.2,0.3,0.2,0.5s0,0.3-0.1,0.5s-0.3,0.3-0.5,0.3s-0.3,0-0.4-0.2C915.7,236.7,915.6,236.6,915.6,236.4"/>
			<path class="st8" d="M917.7,236.9h-0.3v-1.5c-0.1,0.1-0.3,0.2-0.4,0.3v-0.4c0.1,0,0.2-0.1,0.3-0.2s0.2-0.2,0.2-0.3h0.3
				L917.7,236.9L917.7,236.9z"/>
			<path class="st8" d="M918.5,236.2c0,0.1,0,0.2,0.1,0.3c0,0.1,0.1,0.1,0.2,0.1s0.1,0,0.2-0.1c0-0.1,0.1-0.1,0.1-0.3s0-0.2-0.1-0.3
				c0-0.1-0.1-0.1-0.2-0.1s-0.1,0-0.2,0.1C918.6,236,918.5,236.1,918.5,236.2 M919.3,235.3H919c0-0.1,0-0.1-0.1-0.2l-0.1-0.1
				c-0.1,0-0.1,0-0.2,0.1c0,0.1-0.1,0.2-0.1,0.5c0.1-0.1,0.2-0.2,0.3-0.2s0.2,0.1,0.3,0.2s0.1,0.3,0.1,0.5s0,0.4-0.2,0.5
				c-0.1,0.1-0.2,0.2-0.4,0.2s-0.3-0.1-0.4-0.2c-0.1-0.2-0.2-0.4-0.2-0.8s0.1-0.7,0.2-0.8c0.1-0.2,0.3-0.2,0.5-0.2
				c0.1,0,0.2,0,0.3,0.1C919.2,235,919.2,235.1,919.3,235.3"/>
			<path class="st1" d="M928.3,226.1c2.1,0,3.8-1.7,3.8-3.8s-1.7-3.8-3.8-3.8s-3.8,1.7-3.8,3.8S926.2,226.1,928.3,226.1"/>
			<path class="st8" d="M926.4,222.7h0.3c0,0.1,0,0.2,0.1,0.2c0,0,0.1,0.1,0.2,0.1c0.1,0,0.1,0,0.2-0.1c0-0.1,0.1-0.2,0.1-0.3
				c0-0.1,0-0.2-0.1-0.3s-0.1-0.1-0.2-0.1c-0.1,0-0.2,0-0.2,0.1h-0.3l0.2-1.1h0.9v0.4H927v0.4c0.1,0,0.2-0.1,0.2-0.1
				c0.2,0,0.3,0.1,0.4,0.2s0.2,0.3,0.2,0.5s0,0.3-0.1,0.5s-0.3,0.3-0.5,0.3s-0.3,0-0.4-0.2C926.5,223,926.4,222.8,926.4,222.7"/>
			<path class="st8" d="M928.5,223.2h-0.3v-1.5c-0.1,0.1-0.3,0.2-0.4,0.3v-0.4c0.1,0,0.2-0.1,0.3-0.2s0.2-0.2,0.2-0.3h0.3
				L928.5,223.2L928.5,223.2z"/>
			<path class="st8" d="M929,221.5v-0.4h1.1v0.3c-0.1,0.1-0.2,0.3-0.3,0.5s-0.2,0.4-0.2,0.7c0,0.2-0.1,0.5-0.1,0.6h-0.3
				c0-0.3,0-0.6,0.2-0.9c0.1-0.3,0.2-0.6,0.4-0.8L929,221.5L929,221.5z"/>
			<path class="st1" d="M944.1,199.5c2.1,0,3.8-1.7,3.8-3.8s-1.7-3.8-3.8-3.8s-3.8,1.7-3.8,3.8S942,199.5,944.1,199.5"/>
			<path class="st8" d="M942.2,196.1h0.3c0,0.1,0,0.2,0.1,0.2c0,0,0.1,0.1,0.2,0.1c0.1,0,0.1,0,0.2-0.1c0-0.1,0.1-0.2,0.1-0.3
				c0-0.1,0-0.2-0.1-0.3s-0.1-0.1-0.2-0.1c-0.1,0-0.2,0-0.2,0.1h-0.3l0.2-1.1h0.9v0.4h-0.6v0.4c0.1,0,0.2-0.1,0.2-0.1
				c0.2,0,0.3,0.1,0.4,0.2s0.2,0.3,0.2,0.5s0,0.3-0.1,0.5s-0.3,0.3-0.5,0.3s-0.3,0-0.4-0.2C942.3,196.4,942.2,196.3,942.2,196.1"/>
			<path class="st8" d="M944.3,196.6H944v-1.5c-0.1,0.1-0.3,0.2-0.4,0.3V195c0.1,0,0.2-0.1,0.3-0.2s0.2-0.2,0.2-0.3h0.3L944.3,196.6
				L944.3,196.6z"/>
			<path class="st8" d="M945.1,196c0,0.1,0,0.2,0.1,0.3s0.1,0.1,0.2,0.1s0.1,0,0.2-0.1s0.1-0.1,0.1-0.3c0-0.1,0-0.2-0.1-0.2
				s-0.1-0.1-0.2-0.1c-0.1,0-0.1,0-0.2,0.1S945.1,195.9,945.1,196 M945.1,195.1c0,0.1,0,0.1,0,0.2s0.1,0.1,0.2,0.1s0.1,0,0.2-0.1
				c0,0,0-0.1,0-0.2s0-0.1,0-0.2c0,0-0.1-0.1-0.2-0.1s-0.1,0-0.2,0.1C945.1,195,945.1,195,945.1,195.1 M945,195.5
				c-0.1,0-0.2-0.1-0.2-0.2s-0.1-0.2-0.1-0.2c0-0.2,0-0.3,0.1-0.4s0.2-0.1,0.4-0.1s0.3,0,0.4,0.1s0.1,0.2,0.1,0.4
				c0,0.1,0,0.2-0.1,0.3c0,0.1-0.1,0.1-0.2,0.2c0.1,0,0.2,0.1,0.2,0.2s0.1,0.2,0.1,0.3c0,0.2,0,0.4-0.2,0.5
				c-0.1,0.1-0.2,0.2-0.4,0.2s-0.3,0-0.4-0.1c-0.1-0.1-0.2-0.3-0.2-0.5c0-0.1,0-0.2,0.1-0.3C944.9,195.6,945,195.5,945,195.5"/>
			<path class="st1" d="M984.8,148.9c2.1,0,3.8-1.7,3.8-3.8s-1.7-3.8-3.8-3.8s-3.8,1.7-3.8,3.8S982.7,148.9,984.8,148.9"/>
			<path class="st8" d="M983,145.5h0.3c0,0.1,0,0.2,0.1,0.2c0,0,0.1,0.1,0.2,0.1c0.1,0,0.1,0,0.2-0.1c0-0.1,0.1-0.2,0.1-0.3
				c0-0.1,0-0.2-0.1-0.3s-0.1-0.1-0.2-0.1c-0.1,0-0.2,0-0.2,0.1h-0.3l0.2-1.1h0.9v0.4h-0.6v0.4c0.1,0,0.2-0.1,0.2-0.1
				c0.2,0,0.3,0.1,0.4,0.2s0.2,0.3,0.2,0.5s0,0.3-0.1,0.5s-0.3,0.3-0.5,0.3s-0.3,0-0.4-0.2C983,145.8,983,145.7,983,145.5"/>
			<path class="st8" d="M985.1,146.1h-0.3v-1.5c-0.1,0.1-0.3,0.2-0.4,0.3v-0.4c0.1,0,0.2-0.1,0.3-0.2s0.2-0.2,0.2-0.3h0.3
				L985.1,146.1L985.1,146.1z"/>
			<path class="st8" d="M986.3,144.7c0-0.1,0-0.2-0.1-0.3c0-0.1-0.1-0.1-0.2-0.1s-0.1,0-0.2,0.1s-0.1,0.1-0.1,0.3s0,0.2,0.1,0.3
				c0,0.1,0.1,0.1,0.2,0.1s0.1,0,0.2-0.1C986.3,144.9,986.3,144.8,986.3,144.7 M985.5,145.6h0.3c0,0.1,0,0.1,0.1,0.2l0.1,0.1
				c0.1,0,0.1,0,0.2-0.1s0.1-0.2,0.1-0.5c-0.1,0.1-0.2,0.2-0.3,0.2s-0.2-0.1-0.3-0.2s-0.2-0.3-0.2-0.5s0-0.4,0.2-0.5
				c0.1-0.1,0.2-0.2,0.4-0.2s0.3,0.1,0.4,0.2c0.1,0.2,0.2,0.4,0.2,0.8s-0.1,0.7-0.2,0.8c-0.1,0.2-0.3,0.3-0.5,0.3
				c-0.1,0-0.2,0-0.3-0.1S985.6,145.8,985.5,145.6"/>
			<path class="st1" d="M968.8,256.2c2.1,0,3.8-1.7,3.8-3.8s-1.7-3.8-3.8-3.8s-3.8,1.7-3.8,3.8S966.7,256.2,968.8,256.2"/>
			<path class="st8" d="M966.9,252.8h0.3c0,0.1,0,0.2,0.1,0.2c0,0,0.1,0.1,0.2,0.1c0.1,0,0.1,0,0.2-0.1c0-0.1,0.1-0.2,0.1-0.3
				c0-0.1,0-0.2-0.1-0.3s-0.1-0.1-0.2-0.1c-0.1,0-0.2,0-0.2,0.1H967l0.2-1.1h0.9v0.4h-0.6v0.4c0.1,0,0.2-0.1,0.2-0.1
				c0.2,0,0.3,0.1,0.4,0.2s0.2,0.3,0.2,0.5s0,0.3-0.1,0.5s-0.3,0.3-0.5,0.3s-0.3,0-0.4-0.2C967,253.1,967,253,966.9,252.8"/>
			<path class="st8" d="M969.3,253v0.4h-1.1c0-0.1,0-0.3,0.1-0.4s0.2-0.3,0.4-0.5s0.2-0.3,0.3-0.3c0-0.1,0.1-0.2,0.1-0.2
				s0-0.2-0.1-0.2s-0.1-0.1-0.2-0.1s-0.1,0-0.2,0.1s-0.1,0.1-0.1,0.2h-0.3c0-0.2,0.1-0.4,0.2-0.5s0.2-0.1,0.4-0.1s0.3,0.1,0.4,0.2
				s0.1,0.2,0.1,0.4c0,0.1,0,0.2,0,0.3c0,0.1-0.1,0.2-0.1,0.3c0,0.1-0.1,0.1-0.2,0.3c-0.1,0.1-0.2,0.2-0.2,0.2s0,0.1-0.1,0.1
				L969.3,253L969.3,253z"/>
			<path class="st8" d="M969.8,252.7c0,0.1,0,0.2,0.1,0.3s0.1,0.1,0.2,0.1s0.1,0,0.2-0.1s0.1-0.1,0.1-0.3c0-0.1,0-0.2-0.1-0.2
				s-0.1-0.1-0.2-0.1c-0.1,0-0.1,0-0.2,0.1S969.8,252.6,969.8,252.7 M969.9,251.8c0,0.1,0,0.1,0,0.2c0,0,0.1,0.1,0.2,0.1
				s0.1,0,0.2-0.1c0,0,0-0.1,0-0.2s0-0.1,0-0.2c0,0-0.1-0.1-0.2-0.1s-0.1,0-0.2,0.1S969.9,251.7,969.9,251.8 M969.8,252.2
				c-0.1,0-0.2-0.1-0.2-0.2s-0.1-0.2-0.1-0.2c0-0.2,0-0.3,0.1-0.4s0.2-0.1,0.4-0.1s0.3,0,0.4,0.1s0.1,0.2,0.1,0.4
				c0,0.1,0,0.2-0.1,0.3c0,0.1-0.1,0.1-0.2,0.2c0.1,0,0.2,0.1,0.2,0.2s0.1,0.2,0.1,0.3c0,0.2,0,0.4-0.2,0.5
				c-0.1,0.1-0.2,0.2-0.4,0.2s-0.3,0-0.4-0.1c-0.1-0.1-0.2-0.3-0.2-0.5c0-0.1,0-0.2,0.1-0.3C969.6,252.3,969.7,252.2,969.8,252.2"/>
			<path class="st1" d="M980.5,242.1c2.1,0,3.8-1.7,3.8-3.8s-1.7-3.8-3.8-3.8s-3.8,1.7-3.8,3.8S978.4,242.1,980.5,242.1"/>
			<path class="st8" d="M978.6,238.7h0.3c0,0.1,0,0.2,0.1,0.2c0,0,0.1,0.1,0.2,0.1c0.1,0,0.1,0,0.2-0.1c0-0.1,0.1-0.2,0.1-0.3
				c0-0.1,0-0.2-0.1-0.3s-0.1-0.1-0.2-0.1c-0.1,0-0.2,0-0.2,0.1h-0.3l0.2-1.1h0.9v0.4H979v0.4c0.1,0,0.2-0.1,0.2-0.1
				c0.2,0,0.3,0.1,0.4,0.2s0.2,0.3,0.2,0.5s0,0.3-0.1,0.5s-0.3,0.3-0.5,0.3s-0.3,0-0.4-0.2S978.6,238.9,978.6,238.7"/>
			<path class="st8" d="M981,238.9v0.4h-1.1c0-0.1,0-0.3,0.1-0.4s0.2-0.3,0.4-0.5s0.2-0.3,0.3-0.3c0-0.1,0.1-0.2,0.1-0.2
				s0-0.2-0.1-0.2s-0.1-0.1-0.2-0.1s-0.1,0-0.2,0.1s-0.1,0.1-0.1,0.2h-0.3c0-0.2,0.1-0.4,0.2-0.5s0.2-0.1,0.4-0.1s0.3,0.1,0.4,0.2
				s0.1,0.2,0.1,0.4c0,0.1,0,0.2,0,0.3c0,0.1-0.1,0.2-0.1,0.3c0,0.1-0.1,0.1-0.2,0.3c-0.1,0.1-0.2,0.2-0.2,0.2s0,0.1-0.1,0.1
				L981,238.9L981,238.9z"/>
			<path class="st8" d="M981.2,237.6v-0.4h1.1v0.3c-0.1,0.1-0.2,0.3-0.3,0.5s-0.2,0.4-0.2,0.7c0,0.2-0.1,0.5-0.1,0.6h-0.3
				c0-0.3,0-0.6,0.2-0.9c0.1-0.3,0.2-0.6,0.4-0.8L981.2,237.6L981.2,237.6z"/>
			<path class="st5" d="M990.8,228.1c2.1,0,3.8-1.7,3.8-3.8s-1.7-3.8-3.8-3.8s-3.8,1.7-3.8,3.8S988.7,228.1,990.8,228.1"/>
			<path class="st8" d="M989.2,224.7h0.3c0,0.1,0,0.2,0.1,0.2c0,0,0.1,0.1,0.2,0.1c0.1,0,0.1,0,0.2-0.1c0-0.1,0.1-0.2,0.1-0.3
				c0-0.1,0-0.2-0.1-0.3s-0.1-0.1-0.2-0.1c-0.1,0-0.2,0-0.2,0.1h-0.3l0.2-1.1h0.9v0.4h-0.6v0.4c0.1,0,0.2-0.1,0.2-0.1
				c0.2,0,0.3,0.1,0.4,0.2s0.2,0.3,0.2,0.5s0,0.3-0.1,0.5s-0.3,0.3-0.5,0.3s-0.3,0-0.4-0.2C989.3,225.1,989.3,224.9,989.2,224.7"/>
			<path class="st8" d="M991.7,224.9v0.4h-1.1c0-0.1,0-0.3,0.1-0.4s0.2-0.3,0.4-0.5s0.2-0.3,0.3-0.3c0-0.1,0.1-0.2,0.1-0.2
				s0-0.2-0.1-0.2s-0.1-0.1-0.2-0.1s-0.1,0-0.2,0.1s-0.1,0.1-0.1,0.2h-0.3c0-0.2,0.1-0.4,0.2-0.5s0.2-0.1,0.4-0.1s0.3,0.1,0.4,0.2
				s0.1,0.2,0.1,0.4c0,0.1,0,0.2,0,0.3c0,0.1-0.1,0.2-0.1,0.3c0,0.1-0.1,0.1-0.2,0.3c-0.1,0.1-0.2,0.2-0.2,0.2s0,0.1-0.1,0.1
				L991.7,224.9L991.7,224.9z"/>
			<path class="st8" d="M992.2,224.6c0,0.1,0,0.2,0.1,0.3c0,0.1,0.1,0.1,0.2,0.1s0.1,0,0.2-0.1c0-0.1,0.1-0.1,0.1-0.3s0-0.2-0.1-0.3
				c0-0.1-0.1-0.1-0.2-0.1s-0.1,0-0.2,0.1C992.3,224.3,992.2,224.4,992.2,224.6 M993,223.7h-0.3c0-0.1,0-0.1-0.1-0.2l-0.1-0.1
				c-0.1,0-0.1,0-0.2,0.1c0,0.1-0.1,0.2-0.1,0.5c0.1-0.1,0.2-0.2,0.3-0.2s0.2,0.1,0.3,0.2s0.1,0.3,0.1,0.5s0,0.4-0.2,0.5
				c-0.1,0.1-0.2,0.2-0.4,0.2s-0.3-0.1-0.4-0.2c-0.1-0.2-0.2-0.4-0.2-0.8s0.1-0.7,0.2-0.8c0.1-0.2,0.3-0.2,0.5-0.2
				c0.1,0,0.2,0,0.3,0.1C992.9,223.4,992.9,223.5,993,223.7"/>
			<path class="st5" d="M1000.6,215c2.1,0,3.8-1.7,3.8-3.8s-1.7-3.8-3.8-3.8s-3.8,1.7-3.8,3.8S998.5,215,1000.6,215"/>
			<path class="st8" d="M998.8,211.6h0.3c0,0.1,0,0.2,0.1,0.2c0,0,0.1,0.1,0.2,0.1c0.1,0,0.1,0,0.2-0.1c0-0.1,0.1-0.2,0.1-0.3
				c0-0.1,0-0.2-0.1-0.3s-0.1-0.1-0.2-0.1c-0.1,0-0.2,0-0.2,0.1h-0.3l0.2-1.1h0.9v0.4h-0.6v0.4c0.1,0,0.2-0.1,0.2-0.1
				c0.2,0,0.3,0.1,0.4,0.2s0.2,0.3,0.2,0.5s0,0.3-0.1,0.5s-0.3,0.3-0.5,0.3s-0.3,0-0.4-0.2C998.8,212,998.8,211.8,998.8,211.6"/>
			<path class="st8" d="M1001.1,211.8v0.4h-1.1c0-0.1,0-0.3,0.1-0.4s0.2-0.3,0.4-0.5s0.2-0.3,0.3-0.3c0-0.1,0.1-0.2,0.1-0.2
				s0-0.2-0.1-0.2s-0.1-0.1-0.2-0.1s-0.1,0-0.2,0.1s-0.1,0.1-0.1,0.2h-0.3c0-0.2,0.1-0.4,0.2-0.5s0.2-0.1,0.4-0.1s0.3,0.1,0.4,0.2
				s0.1,0.2,0.1,0.4c0,0.1,0,0.2,0,0.3c0,0.1-0.1,0.2-0.1,0.3c0,0.1-0.1,0.1-0.2,0.3c-0.1,0.1-0.2,0.2-0.2,0.2s0,0.1-0.1,0.1
				L1001.1,211.8L1001.1,211.8z"/>
			<path class="st8" d="M1001.3,211.6h0.3c0,0.1,0,0.2,0.1,0.2c0,0,0.1,0.1,0.2,0.1c0.1,0,0.1,0,0.2-0.1c0-0.1,0.1-0.2,0.1-0.3
				c0-0.1,0-0.2-0.1-0.3s-0.1-0.1-0.2-0.1c-0.1,0-0.2,0-0.2,0.1h-0.3l0.2-1.1h0.9v0.4h-0.6v0.4c0.1,0,0.2-0.1,0.2-0.1
				c0.2,0,0.3,0.1,0.4,0.2s0.2,0.3,0.2,0.5s0,0.3-0.1,0.5s-0.3,0.3-0.5,0.3s-0.3,0-0.4-0.2C1001.4,212,1001.4,211.8,1001.3,211.6"/>
			<path class="st5" d="M1011.2,201.1c2.1,0,3.8-1.7,3.8-3.8s-1.7-3.8-3.8-3.8s-3.8,1.7-3.8,3.8S1009.1,201.1,1011.2,201.1"/>
			<path class="st8" d="M1009.3,197.7h0.3c0,0.1,0,0.2,0.1,0.2c0,0,0.1,0.1,0.2,0.1c0.1,0,0.1,0,0.2-0.1s0.1-0.2,0.1-0.3
				c0-0.1,0-0.2-0.1-0.3s-0.1-0.1-0.2-0.1c-0.1,0-0.2,0-0.2,0.1h-0.3l0.2-1.1h0.9v0.4h-0.6v0.4c0.1,0,0.2-0.1,0.2-0.1
				c0.2,0,0.3,0.1,0.4,0.2s0.2,0.3,0.2,0.5s0,0.3-0.1,0.5s-0.3,0.3-0.5,0.3s-0.3,0-0.4-0.2C1009.4,198,1009.4,197.9,1009.3,197.7"/>
			<path class="st8" d="M1011.8,197.9v0.4h-1.1c0-0.1,0-0.3,0.1-0.4s0.2-0.3,0.4-0.5s0.2-0.3,0.3-0.3c0-0.1,0.1-0.2,0.1-0.2
				s0-0.2-0.1-0.2s-0.1-0.1-0.2-0.1s-0.1,0-0.2,0.1s-0.1,0.1-0.1,0.2h-0.3c0-0.2,0.1-0.4,0.2-0.5s0.2-0.1,0.4-0.1s0.3,0.1,0.4,0.2
				s0.1,0.2,0.1,0.4c0,0.1,0,0.2,0,0.3c0,0.1-0.1,0.2-0.1,0.3c0,0.1-0.1,0.1-0.2,0.3c-0.1,0.1-0.2,0.2-0.2,0.2s0,0.1-0.1,0.1
				L1011.8,197.9L1011.8,197.9z"/>
			<path class="st8" d="M1012.6,197.5v-0.7l-0.4,0.7H1012.6z M1012.6,198.2v-0.4h-0.7v-0.4l0.7-1.3h0.3v1.3h0.2v0.4h-0.2v0.4H1012.6
				L1012.6,198.2z"/>
			<path class="st1" d="M1031.6,174.3c2.1,0,3.8-1.7,3.8-3.8s-1.7-3.8-3.8-3.8s-3.8,1.7-3.8,3.8S1029.5,174.3,1031.6,174.3"/>
			<path class="st8" d="M1029.7,170.9h0.3c0,0.1,0,0.2,0.1,0.2s0.1,0.1,0.2,0.1s0.1,0,0.2-0.1s0.1-0.2,0.1-0.3c0-0.1,0-0.2-0.1-0.3
				s-0.1-0.1-0.2-0.1s-0.2,0-0.2,0.1h-0.3l0.2-1.1h0.9v0.4h-0.6l-0.1,0.4c0.1,0,0.2-0.1,0.2-0.1c0.2,0,0.3,0.1,0.4,0.2
				s0.2,0.3,0.2,0.5s0,0.3-0.1,0.5s-0.3,0.3-0.5,0.3s-0.3,0-0.4-0.2C1029.8,171.2,1029.8,171.1,1029.7,170.9"/>
			<path class="st8" d="M1032.1,171v0.4h-1.1c0-0.1,0.1-0.3,0.1-0.4s0.2-0.3,0.4-0.5c0.2-0.2,0.2-0.3,0.3-0.3c0-0.1,0.1-0.2,0.1-0.2
				s0-0.2-0.1-0.2s-0.1-0.1-0.2-0.1s-0.1,0-0.2,0.1s-0.1,0.1-0.1,0.2h-0.3c0-0.2,0.1-0.4,0.2-0.5s0.2-0.1,0.4-0.1
				c0.2,0,0.3,0.1,0.4,0.2s0.1,0.2,0.1,0.4c0,0.1,0,0.2,0,0.3s-0.1,0.2-0.1,0.3c0,0.1-0.1,0.1-0.2,0.3s-0.2,0.2-0.2,0.2l-0.1,0.1
				L1032.1,171L1032.1,171z"/>
			<path class="st8" d="M1033.4,171v0.4h-1.1c0-0.1,0.1-0.3,0.1-0.4s0.2-0.3,0.4-0.5c0.2-0.2,0.2-0.3,0.3-0.3c0-0.1,0.1-0.2,0.1-0.2
				s0-0.2-0.1-0.2s-0.1-0.1-0.2-0.1s-0.1,0-0.2,0.1s-0.1,0.1-0.1,0.2h-0.3c0-0.2,0.1-0.4,0.2-0.5s0.2-0.1,0.4-0.1
				c0.2,0,0.3,0.1,0.4,0.2s0.1,0.2,0.1,0.4c0,0.1,0,0.2,0,0.3s-0.1,0.2-0.1,0.3c0,0.1-0.1,0.1-0.2,0.3s-0.2,0.2-0.2,0.2l-0.1,0.1
				L1033.4,171L1033.4,171z"/>
			<path class="st1" d="M1018.9,104.2c2.1,0,3.8-1.7,3.8-3.8s-1.7-3.8-3.8-3.8s-3.8,1.7-3.8,3.8S1016.8,104.2,1018.9,104.2"/>
			<path class="st8" d="M1017.3,100.8h0.3c0,0.1,0,0.2,0.1,0.2c0.1,0.1,0.1,0.1,0.2,0.1s0.1,0,0.2-0.1s0.1-0.2,0.1-0.3
				s0-0.2-0.1-0.3s-0.1-0.1-0.2-0.1s-0.2,0.1-0.2,0.1l-0.3-0.1l0.2-1.1h0.9v0.4h-0.6l-0.1,0.4c0.1,0,0.2-0.1,0.2-0.1
				c0.2,0,0.3,0.1,0.4,0.2c0.1,0.1,0.2,0.3,0.2,0.5s0,0.3-0.1,0.5s-0.3,0.3-0.5,0.3s-0.3-0.1-0.4-0.2
				C1017.4,101.1,1017.3,101,1017.3,100.8"/>
			<path class="st8" d="M1019.7,101v0.4h-1.1c0-0.1,0.1-0.3,0.1-0.4s0.2-0.3,0.4-0.5c0.2-0.2,0.2-0.3,0.3-0.3c0-0.1,0.1-0.2,0.1-0.2
				s0-0.2-0.1-0.2s-0.1-0.1-0.2-0.1s-0.1,0-0.2,0.1s-0.1,0.1-0.1,0.2h-0.3c0-0.2,0.1-0.4,0.2-0.5s0.2-0.1,0.4-0.1
				c0.2,0,0.3,0.1,0.4,0.2s0.1,0.2,0.1,0.4c0,0.1,0,0.2,0,0.3s-0.1,0.2-0.1,0.3s-0.1,0.1-0.2,0.3c-0.1,0.1-0.2,0.2-0.2,0.2l-0.1,0.1
				L1019.7,101L1019.7,101z"/>
			<path class="st8" d="M1020.5,99.6C1020.5,99.6,1020.4,99.6,1020.5,99.6c-0.1,0.1-0.2,0.1-0.2,0.2c0,0.1,0,0.3,0,0.5s0,0.4,0,0.5
				s0,0.1,0.1,0.2l0.1,0.1c0,0,0.1,0,0.1-0.1s0.1-0.1,0.1-0.2c0-0.1,0-0.3,0-0.5s0-0.4,0-0.5S1020.6,99.7,1020.5,99.6
				C1020.6,99.6,1020.5,99.6,1020.5,99.6 M1020.5,99.2c0.2,0,0.3,0.1,0.4,0.2c0.1,0.2,0.2,0.5,0.2,0.9s-0.1,0.7-0.2,0.9
				c-0.1,0.1-0.2,0.2-0.4,0.2s-0.3-0.1-0.4-0.2s-0.2-0.4-0.2-0.8s0.1-0.7,0.2-0.9C1020.2,99.3,1020.3,99.2,1020.5,99.2"/>
			<path class="st2" d="M1041.4,160.2c2.1,0,3.8-1.7,3.8-3.8s-1.7-3.8-3.8-3.8s-3.8,1.7-3.8,3.8S1039.3,160.2,1041.4,160.2"/>
			<path class="st8" d="M1039.8,156.8h0.3c0,0.1,0,0.2,0.1,0.2s0.1,0.1,0.2,0.1s0.1,0,0.2-0.1s0.1-0.2,0.1-0.3c0-0.1,0-0.2-0.1-0.3
				s-0.1-0.1-0.2-0.1s-0.2,0-0.2,0.1h-0.3l0.2-1.1h0.9v0.4h-0.6l-0.1,0.4c0.1,0,0.2-0.1,0.2-0.1c0.2,0,0.3,0.1,0.4,0.2
				s0.2,0.3,0.2,0.5s0,0.3-0.1,0.5s-0.3,0.3-0.5,0.3s-0.3,0-0.4-0.2C1039.9,157.1,1039.8,156.9,1039.8,156.8"/>
			<path class="st8" d="M1042.2,156.9v0.4h-1.1c0-0.1,0.1-0.3,0.1-0.4s0.2-0.3,0.4-0.5c0.2-0.2,0.2-0.3,0.3-0.3
				c0-0.1,0.1-0.2,0.1-0.2s0-0.2-0.1-0.2s-0.1-0.1-0.2-0.1s-0.1,0-0.2,0.1s-0.1,0.1-0.1,0.2h-0.3c0-0.2,0.1-0.4,0.2-0.5
				s0.2-0.1,0.4-0.1c0.2,0,0.3,0.1,0.4,0.2s0.1,0.2,0.1,0.4c0,0.1,0,0.2,0,0.3s-0.1,0.2-0.1,0.3c0,0.1-0.1,0.1-0.2,0.3
				s-0.2,0.2-0.2,0.2l-0.1,0.1L1042.2,156.9L1042.2,156.9z"/>
			<path class="st8" d="M1043.2,157.3h-0.3v-1.5c-0.1,0.1-0.3,0.2-0.4,0.3v-0.4c0.1,0,0.2-0.1,0.3-0.2s0.2-0.2,0.2-0.3h0.3
				L1043.2,157.3L1043.2,157.3z"/>
			<path class="st1" d="M1079.2,107.4c2.1,0,3.8-1.7,3.8-3.8s-1.7-3.8-3.8-3.8s-3.8,1.7-3.8,3.8S1077.1,107.4,1079.2,107.4"/>
			<path class="st8" d="M1076.5,103.9h0.3c0,0.1,0,0.2,0.1,0.2c0.1,0.1,0.1,0.1,0.2,0.1s0.1,0,0.2-0.1s0.1-0.2,0.1-0.3
				s0-0.2-0.1-0.3s-0.1-0.1-0.2-0.1s-0.2,0.1-0.2,0.1l-0.3-0.1l0.2-1.1h0.9v0.4h-0.6l-0.1,0.4c0.1,0,0.2-0.1,0.2-0.1
				c0.2,0,0.3,0.1,0.4,0.2c0.1,0.1,0.2,0.3,0.2,0.5s0,0.3-0.1,0.5s-0.3,0.3-0.5,0.3s-0.3-0.1-0.4-0.2
				C1076.6,104.3,1076.5,104.1,1076.5,103.9"/>
			<path class="st8" d="M1078.9,104.1v0.4h-1.1c0-0.1,0.1-0.3,0.1-0.4s0.2-0.3,0.4-0.5c0.2-0.2,0.2-0.3,0.3-0.3
				c0-0.1,0.1-0.2,0.1-0.2s0-0.2-0.1-0.2s-0.1-0.1-0.2-0.1s-0.1,0-0.2,0.1s-0.1,0.1-0.1,0.2h-0.3c0-0.2,0.1-0.4,0.2-0.5
				s0.2-0.1,0.4-0.1c0.2,0,0.3,0.1,0.4,0.2s0.1,0.2,0.1,0.4c0,0.1,0,0.2,0,0.3s-0.1,0.2-0.1,0.3s-0.1,0.1-0.2,0.3
				c-0.1,0.1-0.2,0.2-0.2,0.2l-0.1,0.1L1078.9,104.1L1078.9,104.1z"/>
			<path class="st8" d="M1079.7,102.7C1079.7,102.7,1079.6,102.7,1079.7,102.7c-0.1,0.1-0.2,0.1-0.2,0.2c0,0.1,0,0.3,0,0.5
				s0,0.4,0,0.5s0,0.1,0.1,0.2l0.1,0.1c0,0,0.1,0,0.1-0.1s0.1-0.1,0.1-0.2c0-0.1,0-0.3,0-0.5s0-0.4,0-0.5
				C1079.8,102.8,1079.8,102.8,1079.7,102.7L1079.7,102.7 M1079.6,102.4c0.2,0,0.3,0.1,0.4,0.2c0.1,0.2,0.2,0.5,0.2,0.9
				s-0.1,0.7-0.2,0.9c-0.1,0.1-0.2,0.2-0.4,0.2s-0.3-0.1-0.4-0.2s-0.2-0.4-0.2-0.8s0.1-0.7,0.2-0.9
				C1079.4,102.4,1079.5,102.3,1079.6,102.4"/>
			<path class="st8" d="M1080.8,104.1h0.3c0.1,0,0.2,0,0.2,0s0.1,0,0.1-0.1s0.1-0.1,0.1-0.2c0-0.1,0-0.2-0.1-0.2s-0.2-0.1-0.3-0.1
				h-0.3L1080.8,104.1L1080.8,104.1z M1080.5,102.4h1.3v0.4h-0.9v0.5h0.5c0.1,0,0.2,0,0.3,0.1c0.1,0,0.2,0.1,0.2,0.2
				c0.1,0.1,0.1,0.2,0.1,0.4s0,0.3-0.1,0.4c-0.1,0.1-0.1,0.2-0.2,0.2s-0.2,0.1-0.3,0.1h-0.8L1080.5,102.4L1080.5,102.4z"/>
			<path class="st1" d="M1023.1,187.8c2.1,0,3.8-1.7,3.8-3.8s-1.7-3.8-3.8-3.8s-3.8,1.7-3.8,3.8S1021,187.8,1023.1,187.8"/>
			<path class="st8" d="M1021.5,184.4h0.3c0,0.1,0,0.2,0.1,0.2s0.1,0.1,0.2,0.1s0.1,0,0.2-0.1s0.1-0.2,0.1-0.3c0-0.1,0-0.2-0.1-0.3
				s-0.1-0.1-0.2-0.1s-0.2,0-0.2,0.1h-0.3l0.2-1.1h0.9v0.4h-0.6l-0.1,0.4c0.1,0,0.2-0.1,0.2-0.1c0.2,0,0.3,0.1,0.4,0.2
				s0.2,0.3,0.2,0.5s0,0.3-0.1,0.5s-0.3,0.3-0.5,0.3s-0.3,0-0.4-0.2C1021.6,184.7,1021.5,184.6,1021.5,184.4"/>
			<path class="st8" d="M1023.9,184.6v0.4h-1.1c0-0.1,0.1-0.3,0.1-0.4s0.2-0.3,0.4-0.5c0.2-0.2,0.2-0.3,0.3-0.3
				c0-0.1,0.1-0.2,0.1-0.2s0-0.2-0.1-0.2s-0.1-0.1-0.2-0.1s-0.1,0-0.2,0.1s-0.1,0.1-0.1,0.2h-0.3c0-0.2,0.1-0.4,0.2-0.5
				s0.2-0.1,0.4-0.1c0.2,0,0.3,0.1,0.4,0.2s0.1,0.2,0.1,0.4c0,0.1,0,0.2,0,0.3s-0.1,0.2-0.1,0.3c0,0.1-0.1,0.1-0.2,0.3
				s-0.2,0.2-0.2,0.2l-0.1,0.1L1023.9,184.6L1023.9,184.6z"/>
			<path class="st8" d="M1024.1,184.4h0.3c0,0.1,0,0.2,0.1,0.2c0,0,0.1,0.1,0.2,0.1s0.1,0,0.2-0.1s0.1-0.1,0.1-0.3
				c0-0.1,0-0.2-0.1-0.2c0-0.1-0.1-0.1-0.2-0.1c0,0-0.1,0-0.2,0v-0.3c0.1,0,0.2,0,0.2-0.1c0.1,0,0.1-0.1,0.1-0.2s0-0.1-0.1-0.2
				s-0.1-0.1-0.1-0.1s-0.1,0-0.1,0.1c0,0-0.1,0.1-0.1,0.2l-0.3-0.1c0-0.1,0.1-0.2,0.1-0.3c0-0.1,0.1-0.1,0.2-0.2
				c0.1,0,0.2-0.1,0.2-0.1c0.2,0,0.3,0.1,0.4,0.2s0.1,0.2,0.1,0.4c0,0.2-0.1,0.3-0.2,0.4c0.1,0,0.2,0.1,0.2,0.2
				c0.1,0.1,0.1,0.2,0.1,0.3c0,0.2-0.1,0.3-0.2,0.5s-0.2,0.2-0.4,0.2c-0.2,0-0.3,0-0.4-0.2C1024.2,184.7,1024.1,184.6,1024.1,184.4"
				/>
			<path class="st8" d="M614.1,312.7h0.3c0.1,0,0.2,0,0.2,0s0.1,0,0.1-0.1s0-0.1,0-0.2s0-0.2-0.1-0.2s-0.2-0.1-0.3-0.1H614
				L614.1,312.7L614.1,312.7z M613.8,311h1.3v0.4h-0.9v0.5h0.5c0.1,0,0.2,0,0.3,0.1s0.2,0.1,0.2,0.2s0.1,0.2,0.1,0.4s0,0.3-0.1,0.4
				s-0.1,0.2-0.2,0.2c-0.1,0-0.2,0.1-0.3,0.1h-0.8L613.8,311L613.8,311z"/>
			<polygon class="st8" points="615.4,313.1 615.4,311 615.8,311 615.8,311.8 616.4,311.8 616.4,311 616.8,311 616.8,313.1 
				616.4,313.1 616.4,312.1 615.8,312.1 615.8,313.1 			"/>
			<path class="st8" d="M618.2,312.3l0.3,0.1c0,0.2-0.1,0.4-0.3,0.5c-0.1,0.1-0.3,0.2-0.5,0.2s-0.4-0.1-0.6-0.3s-0.2-0.5-0.2-0.8
				c0-0.4,0.1-0.6,0.2-0.8c0.2-0.2,0.3-0.3,0.6-0.3c0.2,0,0.4,0.1,0.5,0.2s0.1,0.2,0.2,0.4l-0.3,0.1c0-0.1-0.1-0.2-0.1-0.3
				c-0.1-0.1-0.1-0.1-0.2-0.1c-0.1,0-0.2,0.1-0.3,0.2s-0.1,0.3-0.1,0.5c0,0.3,0,0.5,0.1,0.6s0.2,0.2,0.3,0.2s0.2,0,0.2-0.1
				S618.2,312.5,618.2,312.3"/>
			<path class="st1" d="M98.1,374.3c2.1,0,3.8-1.7,3.8-3.8s-1.7-3.8-3.8-3.8s-3.8,1.7-3.8,3.8S95.9,374.3,98.1,374.3"/>
			<path class="st8" d="M96.2,370.9h0.3c0,0.1,0,0.2,0.1,0.2s0.1,0.1,0.2,0.1s0.1,0,0.2-0.1s0.1-0.2,0.1-0.3c0-0.1,0-0.2-0.1-0.3
				c-0.1-0.1-0.1-0.1-0.2-0.1s-0.2,0-0.2,0.1h-0.3l0.2-1.1h0.9v0.4h-0.6l-0.1,0.4c0.1,0,0.2-0.1,0.2-0.1c0.1,0,0.3,0.1,0.4,0.2
				s0.2,0.3,0.2,0.5s0,0.3-0.1,0.5s-0.3,0.3-0.5,0.3s-0.3,0-0.4-0.2C96.3,371.2,96.2,371.1,96.2,370.9"/>
			<path class="st8" d="M98.1,370.7V370l-0.4,0.7H98.1z M98.1,371.4V371h-0.7v-0.4l0.7-1.3h0.3v1.3h0.2v0.4h-0.2v0.4H98.1
				L98.1,371.4z"/>
			<path class="st8" d="M98.8,369.7v-0.4h1.1v0.3c-0.1,0.1-0.2,0.3-0.3,0.5c-0.1,0.2-0.2,0.4-0.2,0.7c-0.1,0.2-0.1,0.5-0.1,0.6H99
				c0-0.3,0.1-0.6,0.2-0.9s0.2-0.6,0.4-0.8L98.8,369.7L98.8,369.7z"/>
			<path class="st1" d="M116.1,374.3c2.1,0,3.8-1.7,3.8-3.8s-1.7-3.8-3.8-3.8s-3.8,1.7-3.8,3.8S114,374.3,116.1,374.3"/>
			<path class="st8" d="M114.2,370.9h0.3c0,0.1,0,0.2,0.1,0.2s0.1,0.1,0.2,0.1s0.1,0,0.2-0.1s0.1-0.2,0.1-0.3c0-0.1,0-0.2-0.1-0.3
				c-0.1-0.1-0.1-0.1-0.2-0.1s-0.2,0-0.2,0.1h-0.3l0.2-1.1h0.9v0.4h-0.6l-0.1,0.4c0.1,0,0.2-0.1,0.2-0.1c0.1,0,0.3,0.1,0.4,0.2
				s0.2,0.3,0.2,0.5s0,0.3-0.1,0.5s-0.3,0.3-0.5,0.3s-0.3,0-0.4-0.2C114.3,371.2,114.3,371.1,114.2,370.9"/>
			<path class="st8" d="M116.2,370.7V370l-0.4,0.7H116.2z M116.2,371.4V371h-0.7v-0.4l0.7-1.3h0.3v1.3h0.2v0.4h-0.2v0.4H116.2
				L116.2,371.4z"/>
			<path class="st8" d="M117.2,370.7c0,0.1,0,0.2,0.1,0.3c0.1,0.1,0.1,0.1,0.2,0.1s0.1,0,0.2-0.1s0.1-0.1,0.1-0.3s0-0.2-0.1-0.3
				c0-0.1-0.1-0.1-0.2-0.1s-0.1,0-0.2,0.1S117.2,370.6,117.2,370.7 M117.9,369.8h-0.3c0-0.1,0-0.1-0.1-0.2l-0.1-0.1
				c-0.1,0-0.1,0-0.2,0.1s-0.1,0.2-0.1,0.5c0.1-0.1,0.2-0.2,0.3-0.2c0.1,0,0.2,0.1,0.3,0.2s0.2,0.3,0.2,0.5s-0.1,0.4-0.2,0.5
				s-0.2,0.2-0.4,0.2c-0.2,0-0.3-0.1-0.4-0.2c-0.1-0.2-0.2-0.4-0.2-0.8s0.1-0.7,0.2-0.8c0.1-0.2,0.3-0.3,0.4-0.3s0.2,0,0.3,0.1
				S117.9,369.7,117.9,369.8"/>
			<path class="st1" d="M132.6,374.3c2.1,0,3.8-1.7,3.8-3.8s-1.7-3.8-3.8-3.8s-3.8,1.7-3.8,3.8S130.5,374.3,132.6,374.3"/>
			<path class="st8" d="M130.7,370.9h0.3c0,0.1,0,0.2,0.1,0.2s0.1,0.1,0.2,0.1c0.1,0,0.1,0,0.2-0.1c0.1-0.1,0.1-0.2,0.1-0.3
				c0-0.1,0-0.2-0.1-0.3s-0.1-0.1-0.2-0.1c-0.1,0-0.2,0-0.2,0.1h-0.3l0.2-1.1h0.9v0.4h-0.6l-0.1,0.4c0.1,0,0.1-0.1,0.2-0.1
				c0.1,0,0.3,0.1,0.4,0.2c0.1,0.1,0.1,0.3,0.1,0.5s0,0.3-0.1,0.5s-0.3,0.3-0.5,0.3s-0.3,0-0.4-0.2
				C130.8,371.2,130.7,371.1,130.7,370.9"/>
			<path class="st8" d="M132.6,370.7V370l-0.4,0.7H132.6z M132.6,371.4V371h-0.7v-0.4l0.7-1.3h0.3v1.3h0.2v0.4H133v0.4H132.6
				L132.6,371.4z"/>
			<path class="st8" d="M133.3,370.9h0.3c0,0.1,0,0.2,0.1,0.2s0.1,0.1,0.2,0.1c0.1,0,0.1,0,0.2-0.1c0.1-0.1,0.1-0.2,0.1-0.3
				c0-0.1,0-0.2-0.1-0.3s-0.1-0.1-0.2-0.1c-0.1,0-0.2,0-0.2,0.1h-0.3l0.2-1.1h0.9v0.4h-0.6l-0.1,0.4c0.1,0,0.1-0.1,0.2-0.1
				c0.1,0,0.3,0.1,0.4,0.2c0.1,0.1,0.1,0.3,0.1,0.5s0,0.3-0.1,0.5s-0.3,0.3-0.5,0.3s-0.3,0-0.4-0.2
				C133.4,371.2,133.3,371.1,133.3,370.9"/>
			<path class="st1" d="M166.7,374.3c2.1,0,3.8-1.7,3.8-3.8s-1.7-3.8-3.8-3.8s-3.8,1.7-3.8,3.8S164.6,374.3,166.7,374.3"/>
			<path class="st8" d="M164.8,370.9h0.3c0,0.1,0,0.2,0.1,0.2s0.1,0.1,0.2,0.1c0.1,0,0.1,0,0.2-0.1c0.1-0.1,0.1-0.2,0.1-0.3
				c0-0.1,0-0.2-0.1-0.3s-0.1-0.1-0.2-0.1c-0.1,0-0.2,0-0.2,0.1h-0.3l0.2-1.1h0.9v0.4h-0.6l-0.1,0.4c0.1,0,0.1-0.1,0.2-0.1
				c0.1,0,0.3,0.1,0.4,0.2c0.1,0.1,0.1,0.3,0.1,0.5s0,0.3-0.1,0.5s-0.3,0.3-0.5,0.3s-0.3,0-0.4-0.2
				C164.9,371.2,164.8,371.1,164.8,370.9"/>
			<path class="st8" d="M166.7,370.7V370l-0.4,0.7H166.7z M166.7,371.4V371H166v-0.4l0.7-1.3h0.3v1.3h0.2v0.4H167v0.4H166.7
				L166.7,371.4z"/>
			<path class="st8" d="M168,370.7V370l-0.4,0.7H168z M168,371.4V371h-0.7v-0.4l0.7-1.3h0.3v1.3h0.2v0.4h-0.2v0.4H168L168,371.4z"/>
			<path class="st1" d="M219.5,374.3c2.1,0,3.8-1.7,3.8-3.8s-1.7-3.8-3.8-3.8s-3.8,1.7-3.8,3.8S217.4,374.3,219.5,374.3"/>
			<path class="st8" d="M217.6,370.9h0.3c0,0.1,0,0.2,0.1,0.2s0.1,0.1,0.2,0.1c0.1,0,0.1,0,0.2-0.1c0.1-0.1,0.1-0.2,0.1-0.3
				c0-0.1,0-0.2-0.1-0.3s-0.1-0.1-0.2-0.1c-0.1,0-0.2,0-0.2,0.1h-0.3l0.2-1.1h0.9v0.4h-0.6l-0.1,0.4c0.1,0,0.1-0.1,0.2-0.1
				c0.1,0,0.3,0.1,0.4,0.2c0.1,0.1,0.1,0.3,0.1,0.5s0,0.3-0.1,0.5s-0.3,0.3-0.5,0.3s-0.3,0-0.4-0.2
				C217.7,371.2,217.6,371.1,217.6,370.9"/>
			<path class="st8" d="M219.5,370.7V370l-0.4,0.7H219.5z M219.5,371.4V371h-0.7v-0.4l0.7-1.3h0.3v1.3h0.2v0.4h-0.2v0.4H219.5
				L219.5,371.4z"/>
			<path class="st8" d="M220.2,370.9h0.3c0,0.1,0,0.2,0.1,0.2c0,0,0.1,0.1,0.2,0.1c0.1,0,0.1,0,0.2-0.1s0.1-0.1,0.1-0.3
				c0-0.1,0-0.2-0.1-0.2c0-0.1-0.1-0.1-0.2-0.1h-0.1v-0.3c0.1,0,0.1,0,0.2-0.1c0.1,0,0.1-0.1,0.1-0.2s0-0.1-0.1-0.2
				s-0.1-0.1-0.1-0.1s-0.1,0-0.1,0.1s-0.1,0.1-0.1,0.2l-0.3-0.1c0-0.1,0.1-0.2,0.1-0.3s0.1-0.1,0.2-0.2c0.1,0,0.2-0.1,0.2-0.1
				c0.2,0,0.3,0.1,0.4,0.2c0.1,0.1,0.1,0.2,0.1,0.4c0,0.2-0.1,0.3-0.2,0.4c0.1,0,0.2,0.1,0.2,0.2c0.1,0.1,0.1,0.2,0.1,0.3
				c0,0.2-0.1,0.3-0.2,0.5c-0.1,0.1-0.2,0.2-0.4,0.2c-0.1,0-0.3,0-0.4-0.2C220.3,371.2,220.2,371,220.2,370.9"/>
			<path class="st1" d="M252.8,374.5c2.1,0,3.8-1.7,3.8-3.8s-1.7-3.8-3.8-3.8s-3.8,1.7-3.8,3.8S250.6,374.5,252.8,374.5"/>
			<path class="st8" d="M251.1,371.1h0.3c0,0.1,0,0.2,0.1,0.2s0.1,0.1,0.2,0.1s0.1,0,0.2-0.1c0-0.1,0.1-0.2,0.1-0.3
				c0-0.1,0-0.2-0.1-0.3s-0.1-0.1-0.2-0.1s-0.2,0-0.2,0.1h-0.3l0.2-1.1h0.9v0.4h-0.6v0.4c0.1,0,0.1-0.1,0.2-0.1s0.3,0.1,0.4,0.2
				s0.1,0.3,0.1,0.5s0,0.3-0.1,0.5s-0.3,0.3-0.5,0.3s-0.3,0-0.4-0.2C251.2,371.4,251.2,371.3,251.1,371.1"/>
			<path class="st8" d="M253.1,370.9v-0.7l-0.4,0.7H253.1z M253.1,371.6v-0.4h-0.7v-0.4l0.7-1.3h0.3v1.3h0.2v0.4h-0.2v0.4H253.1
				L253.1,371.6z"/>
			<path class="st8" d="M254.9,371.3v0.4h-1.1c0-0.1,0-0.3,0.1-0.4s0.2-0.3,0.4-0.5c0.1-0.2,0.2-0.3,0.3-0.3c0-0.1,0.1-0.2,0.1-0.2
				s0-0.2-0.1-0.2s-0.1-0.1-0.2-0.1s-0.1,0-0.2,0.1s-0.1,0.1-0.1,0.2h-0.3c0-0.2,0.1-0.4,0.2-0.5s0.2-0.1,0.4-0.1
				c0.2,0,0.3,0.1,0.4,0.2s0.1,0.2,0.1,0.4c0,0.1,0,0.2,0,0.3s-0.1,0.2-0.1,0.3c0,0.1-0.1,0.1-0.2,0.3s-0.2,0.2-0.2,0.2
				s0,0.1-0.1,0.1L254.9,371.3L254.9,371.3z"/>
			<path class="st1" d="M278.3,374.5c2.1,0,3.8-1.7,3.8-3.8s-1.7-3.8-3.8-3.8s-3.8,1.7-3.8,3.8S276.2,374.5,278.3,374.5"/>
			<path class="st8" d="M276.5,371.1h0.3c0,0.1,0,0.2,0.1,0.2s0.1,0.1,0.2,0.1s0.1,0,0.2-0.1c0-0.1,0.1-0.2,0.1-0.3
				c0-0.1,0-0.2-0.1-0.3s-0.1-0.1-0.2-0.1s-0.2,0-0.2,0.1h-0.3l0.2-1.1h0.9v0.4h-0.6v0.4c0.1,0,0.1-0.1,0.2-0.1s0.3,0.1,0.4,0.2
				s0.1,0.3,0.1,0.5s0,0.3-0.1,0.5s-0.3,0.3-0.5,0.3s-0.3,0-0.4-0.2C276.6,371.4,276.5,371.3,276.5,371.1"/>
			<path class="st8" d="M278.4,370.9v-0.7l-0.4,0.7H278.4z M278.4,371.6v-0.4h-0.7v-0.4l0.7-1.3h0.3v1.3h0.2v0.4h-0.2v0.4H278.4
				L278.4,371.6z"/>
			<path class="st8" d="M279.9,371.6h-0.3v-1.5c-0.1,0.1-0.3,0.2-0.4,0.3V370c0.1,0,0.2-0.1,0.3-0.2s0.2-0.2,0.2-0.3h0.3v2.1H279.9z
				"/>
			<path class="st1" d="M304.3,374.5c2.1,0,3.8-1.7,3.8-3.8s-1.7-3.8-3.8-3.8s-3.8,1.7-3.8,3.8S302.1,374.5,304.3,374.5"/>
			<path class="st8" d="M302.4,371.1h0.3c0,0.1,0,0.2,0.1,0.2s0.1,0.1,0.2,0.1s0.1,0,0.2-0.1c0-0.1,0.1-0.2,0.1-0.3
				c0-0.1,0-0.2-0.1-0.3s-0.1-0.1-0.2-0.1s-0.2,0-0.2,0.1h-0.3l0.2-1.1h0.9v0.4H303v0.4c0.1,0,0.1-0.1,0.2-0.1s0.3,0.1,0.4,0.2
				s0.1,0.3,0.1,0.5s0,0.3-0.1,0.5s-0.3,0.3-0.5,0.3s-0.3,0-0.4-0.2C302.5,371.4,302.4,371.3,302.4,371.1"/>
			<path class="st8" d="M304.3,370.9v-0.7l-0.4,0.7H304.3z M304.3,371.6v-0.4h-0.7v-0.4l0.7-1.3h0.3v1.3h0.2v0.4h-0.2v0.4H304.3
				L304.3,371.6z"/>
			<path class="st8" d="M305.5,369.9h-0.1c0,0,0,0.1-0.1,0.2c0,0.1,0,0.3,0,0.5s0,0.4,0,0.5s0,0.1,0.1,0.2s0.1,0,0.1,0h0.1
				c0,0,0-0.1,0.1-0.2c0-0.1,0-0.3,0-0.5s0-0.4,0-0.5s0-0.1-0.1-0.2C305.6,369.9,305.6,369.9,305.5,369.9 M305.5,369.5
				c0.2,0,0.3,0.1,0.4,0.2c0.1,0.2,0.2,0.5,0.2,0.9s-0.1,0.7-0.2,0.9c-0.1,0.1-0.2,0.2-0.4,0.2s-0.3-0.1-0.4-0.2s-0.1-0.4-0.1-0.8
				s0.1-0.7,0.2-0.9C305.3,369.6,305.4,369.5,305.5,369.5"/>
			<path class="st1" d="M320.3,374.5c2.1,0,3.8-1.7,3.8-3.8s-1.7-3.8-3.8-3.8s-3.8,1.7-3.8,3.8S318.2,374.5,320.3,374.5"/>
			<path class="st8" d="M318.5,371.1h0.3c0,0.1,0,0.2,0.1,0.2s0.1,0.1,0.2,0.1s0.1,0,0.2-0.1s0.1-0.2,0.1-0.3c0-0.1,0-0.2-0.1-0.3
				s-0.1-0.1-0.2-0.1s-0.2,0-0.2,0.1h-0.3l0.2-1.1h0.9v0.4h-0.6v0.4c0.1,0,0.1-0.1,0.2-0.1s0.3,0.1,0.4,0.2s0.1,0.3,0.1,0.5
				s0,0.3-0.1,0.5s-0.3,0.3-0.5,0.3s-0.3,0-0.4-0.2C318.6,371.4,318.5,371.3,318.5,371.1"/>
			<path class="st8" d="M319.7,371.1h0.3c0,0.1,0,0.2,0.1,0.2c0,0,0.1,0.1,0.2,0.1s0.1,0,0.2-0.1c0-0.1,0.1-0.1,0.1-0.3
				c0-0.1,0-0.2-0.1-0.2c0-0.1-0.1-0.1-0.2-0.1h-0.1v-0.3c0.1,0,0.1,0,0.2-0.1c0,0,0.1-0.1,0.1-0.2s0-0.1,0-0.2s-0.1-0.1-0.1-0.1
				s-0.1,0-0.1,0.1c0,0-0.1,0.1-0.1,0.2l-0.3-0.1c0-0.1,0-0.2,0.1-0.3s0.1-0.1,0.2-0.2c0.1,0,0.2-0.1,0.2-0.1c0.2,0,0.3,0.1,0.4,0.2
				s0.1,0.2,0.1,0.4c0,0.2-0.1,0.3-0.2,0.4c0.1,0,0.2,0.1,0.2,0.2s0.1,0.2,0.1,0.3c0,0.2-0.1,0.3-0.2,0.5c-0.1,0.1-0.2,0.2-0.4,0.2
				c-0.1,0-0.3,0-0.4-0.2C319.8,371.4,319.8,371.2,319.7,371.1"/>
			<path class="st8" d="M321.8,370.3c0-0.1,0-0.2-0.1-0.3c0-0.1-0.1-0.1-0.2-0.1s-0.1,0-0.1,0.1s-0.1,0.1-0.1,0.3s0,0.2,0.1,0.3
				c0,0.1,0.1,0.1,0.2,0.1s0.1,0,0.2-0.1S321.8,370.4,321.8,370.3 M321.1,371.2h0.3c0,0.1,0,0.1,0.1,0.2l0.1,0.1
				c0.1,0,0.1,0,0.2-0.1s0.1-0.2,0.1-0.5c-0.1,0.1-0.2,0.2-0.3,0.2s-0.2-0.1-0.4-0.2s-0.1-0.3-0.1-0.5s0-0.4,0.1-0.5
				s0.2-0.2,0.4-0.2c0.2,0,0.3,0.1,0.4,0.2c0.1,0.2,0.2,0.4,0.2,0.8s-0.1,0.7-0.2,0.8c-0.1,0.2-0.3,0.3-0.5,0.3
				c-0.1,0-0.2,0-0.3-0.1C321.1,371.5,321.1,371.4,321.1,371.2"/>
			<path class="st1" d="M345.7,374.5c2.1,0,3.8-1.7,3.8-3.8s-1.7-3.8-3.8-3.8s-3.8,1.7-3.8,3.8S343.6,374.5,345.7,374.5"/>
			<path class="st8" d="M343.8,371.1h0.3c0,0.1,0,0.2,0.1,0.2s0.1,0.1,0.2,0.1s0.1,0,0.2-0.1c0-0.1,0.1-0.2,0.1-0.3
				c0-0.1,0-0.2-0.1-0.3s-0.1-0.1-0.2-0.1s-0.2,0-0.2,0.1h-0.3l0.2-1.1h0.9v0.4h-0.6v0.4c0.1,0,0.1-0.1,0.2-0.1s0.3,0.1,0.4,0.2
				s0.1,0.3,0.1,0.5s0,0.3-0.1,0.5s-0.3,0.3-0.5,0.3s-0.3,0-0.4-0.2C343.9,371.4,343.9,371.3,343.8,371.1"/>
			<path class="st8" d="M345.1,371.1h0.3c0,0.1,0,0.2,0.1,0.2c0,0,0.1,0.1,0.2,0.1s0.1,0,0.2-0.1c0-0.1,0.1-0.1,0.1-0.3
				c0-0.1,0-0.2-0.1-0.2c0-0.1-0.1-0.1-0.2-0.1h-0.1v-0.3c0.1,0,0.1,0,0.2-0.1c0,0,0.1-0.1,0.1-0.2s0-0.1,0-0.2s-0.1-0.1-0.1-0.1
				s-0.1,0-0.1,0.1s-0.1,0.1-0.1,0.2l-0.3-0.1c0-0.1,0-0.2,0.1-0.3s0.1-0.1,0.2-0.2c0.1,0,0.2-0.1,0.2-0.1c0.2,0,0.3,0.1,0.4,0.2
				s0.1,0.2,0.1,0.4c0,0.2-0.1,0.3-0.2,0.4c0.1,0,0.2,0.1,0.2,0.2s0.1,0.2,0.1,0.3c0,0.2-0.1,0.3-0.2,0.5c-0.1,0.1-0.2,0.2-0.4,0.2
				c-0.1,0-0.3,0-0.4-0.2C345.2,371.4,345.1,371.2,345.1,371.1"/>
			<path class="st8" d="M346.7,371c0,0.1,0,0.2,0.1,0.3c0,0.1,0.1,0.1,0.2,0.1s0.1,0,0.2-0.1c0-0.1,0.1-0.1,0.1-0.3
				c0-0.1,0-0.2-0.1-0.2c0-0.1-0.1-0.1-0.2-0.1s-0.1,0-0.2,0.1S346.7,370.9,346.7,371 M346.8,370.1c0,0.1,0,0.1,0,0.2l0.1,0.1
				c0,0,0.1,0,0.1-0.1c0,0,0-0.1,0-0.2s0-0.1,0-0.2l-0.1-0.1c0,0-0.1,0-0.1,0.1S346.7,370,346.8,370.1 M346.7,370.5
				c-0.1,0-0.1-0.1-0.2-0.2c0-0.1-0.1-0.2-0.1-0.2c0-0.2,0-0.3,0.1-0.4s0.2-0.1,0.4-0.1s0.3,0,0.4,0.1s0.1,0.2,0.1,0.4
				c0,0.1,0,0.2-0.1,0.3c0,0.1-0.1,0.1-0.2,0.2c0.1,0,0.2,0.1,0.2,0.2s0.1,0.2,0.1,0.3c0,0.2,0,0.4-0.1,0.5s-0.2,0.2-0.4,0.2
				c-0.1,0-0.3,0-0.4-0.1s-0.2-0.3-0.2-0.5c0-0.1,0-0.2,0.1-0.3C346.5,370.6,346.6,370.6,346.7,370.5"/>
			<path class="st1" d="M372.3,374.5c2.1,0,3.8-1.7,3.8-3.8s-1.7-3.8-3.8-3.8s-3.8,1.7-3.8,3.8S370.2,374.5,372.3,374.5"/>
			<path class="st8" d="M370.4,371.1h0.3c0,0.1,0,0.2,0.1,0.2s0.1,0.1,0.2,0.1s0.1,0,0.2-0.1s0.1-0.2,0.1-0.3c0-0.1,0-0.2-0.1-0.3
				s-0.1-0.1-0.2-0.1s-0.2,0-0.2,0.1h-0.3l0.2-1.1h0.9v0.4H371v0.4c0.1,0,0.1-0.1,0.2-0.1s0.3,0.1,0.4,0.2s0.1,0.3,0.1,0.5
				s0,0.3-0.1,0.5s-0.3,0.3-0.5,0.3s-0.3,0-0.4-0.2C370.5,371.4,370.5,371.3,370.4,371.1"/>
			<path class="st8" d="M371.7,371.1h0.3c0,0.1,0,0.2,0.1,0.2c0,0,0.1,0.1,0.2,0.1s0.1,0,0.2-0.1c0-0.1,0.1-0.1,0.1-0.3
				c0-0.1,0-0.2-0.1-0.2c0-0.1-0.1-0.1-0.2-0.1h-0.1v-0.3c0.1,0,0.1,0,0.2-0.1c0,0,0.1-0.1,0.1-0.2s0-0.1,0-0.2s-0.1-0.1-0.1-0.1
				s-0.1,0-0.1,0.1s-0.1,0.1-0.1,0.2l-0.3-0.1c0-0.1,0-0.2,0.1-0.3s0.1-0.1,0.2-0.2c0.1,0,0.2-0.1,0.2-0.1c0.2,0,0.3,0.1,0.4,0.2
				s0.1,0.2,0.1,0.4c0,0.2-0.1,0.3-0.2,0.4c0.1,0,0.2,0.1,0.2,0.2s0.1,0.2,0.1,0.3c0,0.2-0.1,0.3-0.2,0.5c-0.1,0.1-0.2,0.2-0.4,0.2
				c-0.1,0-0.3,0-0.4-0.2C371.8,371.4,371.7,371.2,371.7,371.1"/>
			<path class="st8" d="M373,370v-0.4h1.1v0.3c-0.1,0.1-0.2,0.3-0.3,0.5c-0.1,0.2-0.2,0.4-0.2,0.7c0,0.2-0.1,0.5-0.1,0.6h-0.3
				c0-0.3,0-0.6,0.1-0.9s0.2-0.6,0.4-0.8L373,370L373,370z"/>
			<path class="st1" d="M406.4,374.5c2.1,0,3.8-1.7,3.8-3.8s-1.7-3.8-3.8-3.8s-3.8,1.7-3.8,3.8S404.3,374.5,406.4,374.5"/>
			<path class="st8" d="M404.5,371.1h0.3c0,0.1,0,0.2,0.1,0.2s0.1,0.1,0.2,0.1s0.1,0,0.2-0.1c0-0.1,0.1-0.2,0.1-0.3
				c0-0.1,0-0.2-0.1-0.3s-0.1-0.1-0.2-0.1s-0.2,0-0.2,0.1h-0.3l0.2-1.1h0.9v0.4H405v0.4c0.1,0,0.1-0.1,0.2-0.1s0.3,0.1,0.4,0.2
				s0.1,0.3,0.1,0.5s0,0.3-0.1,0.5s-0.3,0.3-0.5,0.3s-0.3,0-0.4-0.2S404.6,371.3,404.5,371.1"/>
			<path class="st8" d="M405.8,371.1h0.3c0,0.1,0,0.2,0.1,0.2c0,0,0.1,0.1,0.2,0.1s0.1,0,0.2-0.1c0-0.1,0.1-0.1,0.1-0.3
				c0-0.1,0-0.2-0.1-0.2c0-0.1-0.1-0.1-0.2-0.1h-0.1v-0.3c0.1,0,0.1,0,0.2-0.1c0,0,0.1-0.1,0.1-0.2s0-0.1,0-0.2s-0.1-0.1-0.1-0.1
				s-0.1,0-0.1,0.1s-0.1,0.1-0.1,0.2L406,370c0-0.1,0-0.2,0.1-0.3s0.1-0.1,0.2-0.2c0.1,0,0.2-0.1,0.2-0.1c0.2,0,0.3,0.1,0.4,0.2
				s0.1,0.2,0.1,0.4c0,0.2-0.1,0.3-0.2,0.4c0.1,0,0.2,0.1,0.2,0.2s0.1,0.2,0.1,0.3c0,0.2-0.1,0.3-0.2,0.5c-0.1,0.1-0.2,0.2-0.4,0.2
				c-0.1,0-0.3,0-0.4-0.2C405.9,371.4,405.8,371.2,405.8,371.1"/>
			<path class="st8" d="M407.5,370.9c0,0.1,0,0.2,0.1,0.3c0,0.1,0.1,0.1,0.2,0.1s0.1,0,0.1-0.1s0.1-0.1,0.1-0.3s0-0.2-0.1-0.3
				c0-0.1-0.1-0.1-0.2-0.1s-0.1,0-0.2,0.1S407.5,370.8,407.5,370.9 M408.2,370h-0.3c0-0.1,0-0.1-0.1-0.2l-0.1-0.1
				c-0.1,0-0.1,0-0.2,0.1c0,0.1-0.1,0.2-0.1,0.5c0.1-0.1,0.2-0.2,0.3-0.2c0.1,0,0.2,0.1,0.4,0.2s0.1,0.3,0.1,0.5s0,0.4-0.1,0.5
				s-0.2,0.2-0.4,0.2c-0.2,0-0.3-0.1-0.4-0.2c-0.1-0.2-0.2-0.4-0.2-0.8s0.1-0.7,0.2-0.8c0.1-0.2,0.3-0.3,0.5-0.3
				c0.1,0,0.2,0,0.3,0.1C408.1,369.7,408.2,369.9,408.2,370"/>
			<path class="st1" d="M458.4,374.5c2.1,0,3.8-1.7,3.8-3.8s-1.7-3.8-3.8-3.8s-3.8,1.7-3.8,3.8S456.3,374.5,458.4,374.5"/>
			<path class="st8" d="M456.5,371.1h0.3c0,0.1,0,0.2,0.1,0.2s0.1,0.1,0.2,0.1s0.1,0,0.2-0.1c0-0.1,0.1-0.2,0.1-0.3
				c0-0.1,0-0.2-0.1-0.3s-0.1-0.1-0.2-0.1s-0.2,0-0.2,0.1h-0.3l0.2-1.1h0.9v0.4H457v0.4c0.1,0,0.1-0.1,0.2-0.1s0.3,0.1,0.4,0.2
				s0.1,0.3,0.1,0.5s0,0.3-0.1,0.5s-0.3,0.3-0.5,0.3s-0.3,0-0.4-0.2S456.5,371.3,456.5,371.1"/>
			<path class="st8" d="M457.8,371.1h0.3c0,0.1,0,0.2,0.1,0.2c0,0,0.1,0.1,0.2,0.1s0.1,0,0.2-0.1c0-0.1,0.1-0.1,0.1-0.3
				c0-0.1,0-0.2-0.1-0.2c0-0.1-0.1-0.1-0.2-0.1h-0.1v-0.3c0.1,0,0.1,0,0.2-0.1c0,0,0.1-0.1,0.1-0.2s0-0.1,0-0.2l-0.1-0.1
				c0,0-0.1,0-0.1,0.1s-0.1,0.1-0.1,0.2L458,370c0-0.1,0-0.2,0.1-0.3s0.1-0.1,0.2-0.2c0.1,0,0.2-0.1,0.2-0.1c0.2,0,0.3,0.1,0.4,0.2
				s0.1,0.2,0.1,0.4c0,0.2-0.1,0.3-0.2,0.4c0.1,0,0.2,0.1,0.2,0.2s0.1,0.2,0.1,0.3c0,0.2-0.1,0.3-0.2,0.5c-0.1,0.1-0.2,0.2-0.4,0.2
				c-0.1,0-0.3,0-0.4-0.2C457.9,371.4,457.8,371.2,457.8,371.1"/>
			<path class="st8" d="M459.5,370.9c0,0.1,0,0.2,0.1,0.3c0,0.1,0.1,0.1,0.2,0.1s0.1,0,0.1-0.1s0.1-0.1,0.1-0.3s0-0.2-0.1-0.3
				c0-0.1-0.1-0.1-0.2-0.1s-0.1,0-0.2,0.1C459.5,370.7,459.4,370.8,459.5,370.9 M460.2,370h-0.3c0-0.1,0-0.1-0.1-0.2l-0.1-0.1
				c-0.1,0-0.1,0-0.2,0.1c0,0.1-0.1,0.2-0.1,0.5c0.1-0.1,0.2-0.2,0.3-0.2c0.1,0,0.2,0.1,0.4,0.2s0.1,0.3,0.1,0.5s0,0.4-0.1,0.5
				s-0.2,0.2-0.4,0.2c-0.2,0-0.3-0.1-0.4-0.2c-0.1-0.2-0.2-0.4-0.2-0.8s0.1-0.7,0.2-0.8c0.1-0.2,0.3-0.3,0.5-0.3
				c0.1,0,0.2,0,0.3,0.1C460.1,369.7,460.2,369.9,460.2,370"/>
			<path class="st1" d="M549.6,374.5c2.1,0,3.8-1.7,3.8-3.8s-1.7-3.8-3.8-3.8s-3.8,1.7-3.8,3.8S547.5,374.5,549.6,374.5"/>
			<path class="st8" d="M547.7,371.1h0.3c0,0.1,0,0.2,0.1,0.2c0,0,0.1,0.1,0.2,0.1c0.1,0,0.1,0,0.2-0.1c0-0.1,0.1-0.2,0.1-0.3
				c0-0.1,0-0.2-0.1-0.3s-0.1-0.1-0.2-0.1c-0.1,0-0.2,0-0.2,0.1h-0.3l0.2-1.1h0.9v0.4h-0.6v0.4c0.1,0,0.2-0.1,0.2-0.1
				c0.2,0,0.3,0.1,0.4,0.2s0.2,0.3,0.2,0.5s0,0.3-0.1,0.5s-0.3,0.3-0.5,0.3s-0.3,0-0.4-0.2C547.8,371.4,547.8,371.3,547.7,371.1"/>
			<path class="st8" d="M549,371.1h0.3c0,0.1,0,0.2,0.1,0.2c0,0,0.1,0.1,0.2,0.1c0.1,0,0.1,0,0.2-0.1s0.1-0.1,0.1-0.3
				c0-0.1,0-0.2-0.1-0.2c0-0.1-0.1-0.1-0.2-0.1c0,0-0.1,0-0.2,0v-0.3c0.1,0,0.2,0,0.2-0.1c0,0,0.1-0.1,0.1-0.2s0-0.1,0-0.2l-0.1-0.1
				c0,0-0.1,0-0.1,0.1s-0.1,0.1-0.1,0.2l-0.3-0.1c0-0.1,0-0.2,0.1-0.3c0-0.1,0.1-0.1,0.2-0.2c0.1,0,0.2-0.1,0.2-0.1
				c0.2,0,0.3,0.1,0.4,0.2c0.1,0.1,0.1,0.2,0.1,0.4c0,0.2-0.1,0.3-0.2,0.4c0.1,0,0.2,0.1,0.2,0.2c0.1,0.1,0.1,0.2,0.1,0.3
				c0,0.2,0,0.3-0.2,0.5s-0.2,0.2-0.4,0.2s-0.3,0-0.4-0.2C549.1,371.4,549,371.2,549,371.1"/>
			<path class="st8" d="M550.3,371.1h0.3c0,0.1,0,0.2,0.1,0.2c0,0,0.1,0.1,0.2,0.1c0.1,0,0.1,0,0.2-0.1c0-0.1,0.1-0.2,0.1-0.3
				c0-0.1,0-0.2-0.1-0.3s-0.1-0.1-0.2-0.1c-0.1,0-0.2,0-0.2,0.1h-0.3l0.2-1.1h0.9v0.4h-0.6v0.4c0.1,0,0.2-0.1,0.2-0.1
				c0.2,0,0.3,0.1,0.4,0.2s0.2,0.3,0.2,0.5s0,0.3-0.1,0.5s-0.3,0.3-0.5,0.3s-0.3,0-0.4-0.2C550.4,371.4,550.4,371.3,550.3,371.1"/>
			<path class="st1" d="M645.3,374.5c2.1,0,3.8-1.7,3.8-3.8s-1.7-3.8-3.8-3.8s-3.8,1.7-3.8,3.8S643.2,374.5,645.3,374.5"/>
			<path class="st8" d="M643.4,371.1h0.3c0,0.1,0,0.2,0.1,0.2c0,0,0.1,0.1,0.2,0.1c0.1,0,0.1,0,0.2-0.1c0-0.1,0.1-0.2,0.1-0.3
				c0-0.1,0-0.2-0.1-0.3s-0.1-0.1-0.2-0.1c-0.1,0-0.2,0-0.2,0.1h-0.3l0.2-1.1h0.9v0.4H644v0.4c0.1,0,0.2-0.1,0.2-0.1
				c0.2,0,0.3,0.1,0.4,0.2s0.2,0.3,0.2,0.5s0,0.3-0.1,0.5s-0.3,0.3-0.5,0.3s-0.3,0-0.4-0.2C643.5,371.4,643.5,371.3,643.4,371.1"/>
			<path class="st8" d="M644.7,371.1h0.3c0,0.1,0,0.2,0.1,0.2c0,0,0.1,0.1,0.2,0.1c0.1,0,0.1,0,0.2-0.1s0.1-0.1,0.1-0.3
				c0-0.1,0-0.2-0.1-0.2c0-0.1-0.1-0.1-0.2-0.1c0,0-0.1,0-0.2,0v-0.3c0.1,0,0.2,0,0.2-0.1c0,0,0.1-0.1,0.1-0.2s0-0.1,0-0.2l-0.1-0.1
				c0,0-0.1,0-0.1,0.1s-0.1,0.1-0.1,0.2l-0.3-0.1c0-0.1,0-0.2,0.1-0.3c0-0.1,0.1-0.1,0.2-0.2c0.1,0,0.2-0.1,0.2-0.1
				c0.2,0,0.3,0.1,0.4,0.2c0.1,0.1,0.1,0.2,0.1,0.4c0,0.2-0.1,0.3-0.2,0.4c0.1,0,0.2,0.1,0.2,0.2c0.1,0.1,0.1,0.2,0.1,0.3
				c0,0.2,0,0.3-0.2,0.5s-0.2,0.2-0.4,0.2s-0.3,0-0.4-0.2C644.8,371.4,644.7,371.2,644.7,371.1"/>
			<path class="st8" d="M646.7,370.9v-0.7l-0.4,0.7H646.7z M646.7,371.6v-0.4H646v-0.4l0.7-1.3h0.3v1.3h0.2v0.4H647v0.4H646.7
				L646.7,371.6z"/>
			<path class="st1" d="M690.6,374.5c2.1,0,3.8-1.7,3.8-3.8s-1.7-3.8-3.8-3.8s-3.8,1.7-3.8,3.8S688.5,374.5,690.6,374.5"/>
			<path class="st8" d="M687.8,371.1h0.3c0,0.1,0,0.2,0.1,0.2c0,0,0.1,0.1,0.2,0.1c0.1,0,0.1,0,0.2-0.1c0-0.1,0.1-0.2,0.1-0.3
				c0-0.1,0-0.2-0.1-0.3s-0.1-0.1-0.2-0.1c-0.1,0-0.2,0-0.2,0.1h-0.3l0.2-1.1h0.9v0.4h-0.6v0.4c0.1,0,0.2-0.1,0.2-0.1
				c0.2,0,0.3,0.1,0.4,0.2s0.2,0.3,0.2,0.5s0,0.3-0.1,0.5s-0.3,0.3-0.5,0.3s-0.3,0-0.4-0.2C687.9,371.4,687.8,371.3,687.8,371.1"/>
			<path class="st8" d="M689,371.1h0.3c0,0.1,0,0.2,0.1,0.2c0,0,0.1,0.1,0.2,0.1c0.1,0,0.1,0,0.2-0.1s0.1-0.1,0.1-0.3
				c0-0.1,0-0.2-0.1-0.2c0-0.1-0.1-0.1-0.2-0.1c0,0-0.1,0-0.2,0v-0.3c0.1,0,0.2,0,0.2-0.1c0,0,0.1-0.1,0.1-0.2s0-0.1,0-0.2l-0.1-0.1
				c0,0-0.1,0-0.1,0.1s-0.1,0.1-0.1,0.2l-0.3-0.1c0-0.1,0-0.2,0.1-0.3c0-0.1,0.1-0.1,0.2-0.2c0.1,0,0.2-0.1,0.2-0.1
				c0.2,0,0.3,0.1,0.4,0.2c0.1,0.1,0.1,0.2,0.1,0.4c0,0.2-0.1,0.3-0.2,0.4c0.1,0,0.2,0.1,0.2,0.2c0.1,0.1,0.1,0.2,0.1,0.3
				c0,0.2,0,0.3-0.2,0.5s-0.2,0.2-0.4,0.2s-0.3,0-0.4-0.2C689.1,371.4,689.1,371.2,689,371.1"/>
			<path class="st8" d="M691,370.9v-0.7l-0.4,0.7H691z M691,371.6v-0.4h-0.7v-0.4l0.7-1.3h0.3v1.3h0.2v0.4h-0.2v0.4H691L691,371.6z"
				/>
			<path class="st8" d="M692.7,370.8l-0.2-0.8l-0.2,0.8H692.7z M693.3,371.6h-0.4l-0.2-0.5H692l-0.1,0.5h-0.4l0.7-2.1h0.4
				L693.3,371.6L693.3,371.6z"/>
			<path class="st1" d="M717.2,374.5c2.1,0,3.8-1.7,3.8-3.8s-1.7-3.8-3.8-3.8s-3.8,1.7-3.8,3.8S715.1,374.5,717.2,374.5"/>
			<path class="st8" d="M715.4,371.1h0.3c0,0.1,0,0.2,0.1,0.2c0,0,0.1,0.1,0.2,0.1c0.1,0,0.1,0,0.2-0.1c0-0.1,0.1-0.2,0.1-0.3
				c0-0.1,0-0.2-0.1-0.3s-0.1-0.1-0.2-0.1c-0.1,0-0.2,0-0.2,0.1h-0.3l0.2-1.1h0.9v0.4H716v0.4c0.1,0,0.2-0.1,0.2-0.1
				c0.2,0,0.3,0.1,0.4,0.2s0.2,0.3,0.2,0.5s0,0.3-0.1,0.5s-0.3,0.3-0.5,0.3s-0.3,0-0.4-0.2C715.5,371.4,715.4,371.3,715.4,371.1"/>
			<path class="st8" d="M716.6,371.1h0.3c0,0.1,0,0.2,0.1,0.2c0,0,0.1,0.1,0.2,0.1c0.1,0,0.1,0,0.2-0.1s0.1-0.1,0.1-0.3
				c0-0.1,0-0.2-0.1-0.2c0-0.1-0.1-0.1-0.2-0.1c0,0-0.1,0-0.2,0v-0.3c0.1,0,0.2,0,0.2-0.1c0,0,0.1-0.1,0.1-0.2s0-0.1,0-0.2l-0.1-0.1
				c0,0-0.1,0-0.1,0.1s-0.1,0.1-0.1,0.2l-0.3-0.1c0-0.1,0-0.2,0.1-0.3c0-0.1,0.1-0.1,0.2-0.2c0.1,0,0.2-0.1,0.2-0.1
				c0.2,0,0.3,0.1,0.4,0.2c0.1,0.1,0.1,0.2,0.1,0.4c0,0.2-0.1,0.3-0.2,0.4c0.1,0,0.2,0.1,0.2,0.2c0.1,0.1,0.1,0.2,0.1,0.3
				c0,0.2,0,0.3-0.2,0.5s-0.2,0.2-0.4,0.2s-0.3,0-0.4-0.2C716.7,371.4,716.7,371.2,716.6,371.1"/>
			<path class="st8" d="M717.9,371.1h0.3c0,0.1,0,0.2,0.1,0.2c0,0,0.1,0.1,0.2,0.1c0.1,0,0.1,0,0.2-0.1s0.1-0.1,0.1-0.3
				c0-0.1,0-0.2-0.1-0.2c0-0.1-0.1-0.1-0.2-0.1c0,0-0.1,0-0.2,0v-0.3c0.1,0,0.2,0,0.2-0.1c0,0,0.1-0.1,0.1-0.2s0-0.1,0-0.2l-0.1-0.1
				c0,0-0.1,0-0.1,0.1s-0.1,0.1-0.1,0.2L718,370c0-0.1,0-0.2,0.1-0.3c0-0.1,0.1-0.1,0.2-0.2c0.1,0,0.2-0.1,0.2-0.1
				c0.2,0,0.3,0.1,0.4,0.2c0.1,0.1,0.1,0.2,0.1,0.4c0,0.2-0.1,0.3-0.2,0.4c0.1,0,0.2,0.1,0.2,0.2c0.1,0.1,0.1,0.2,0.1,0.3
				c0,0.2,0,0.3-0.2,0.5s-0.2,0.2-0.4,0.2s-0.3,0-0.4-0.2C718,371.4,718,371.2,717.9,371.1"/>
			<path class="st1" d="M734.1,374.5c2.1,0,3.8-1.7,3.8-3.8s-1.7-3.8-3.8-3.8s-3.8,1.7-3.8,3.8S732,374.5,734.1,374.5"/>
			<path class="st8" d="M732.2,371.1h0.3c0,0.1,0,0.2,0.1,0.2c0,0,0.1,0.1,0.2,0.1c0.1,0,0.1,0,0.2-0.1s0.1-0.2,0.1-0.3
				c0-0.1,0-0.2-0.1-0.3s-0.1-0.1-0.2-0.1c-0.1,0-0.2,0-0.2,0.1h-0.3l0.2-1.1h0.9v0.4h-0.6v0.4c0.1,0,0.2-0.1,0.2-0.1
				c0.2,0,0.3,0.1,0.4,0.2s0.2,0.3,0.2,0.5s0,0.3-0.1,0.5s-0.3,0.3-0.5,0.3s-0.3,0-0.4-0.2C732.3,371.4,732.2,371.3,732.2,371.1"/>
			<path class="st8" d="M733.5,371.1h0.3c0,0.1,0,0.2,0.1,0.2c0,0,0.1,0.1,0.2,0.1c0.1,0,0.1,0,0.2-0.1s0.1-0.1,0.1-0.3
				c0-0.1,0-0.2-0.1-0.2c0-0.1-0.1-0.1-0.2-0.1c0,0-0.1,0-0.2,0v-0.3c0.1,0,0.2,0,0.2-0.1c0,0,0.1-0.1,0.1-0.2s0-0.1,0-0.2l-0.1-0.1
				c0,0-0.1,0-0.1,0.1c0,0-0.1,0.1-0.1,0.2l-0.3-0.1c0-0.1,0-0.2,0.1-0.3c0-0.1,0.1-0.1,0.2-0.2c0.1,0,0.2-0.1,0.2-0.1
				c0.2,0,0.3,0.1,0.4,0.2c0.1,0.1,0.1,0.2,0.1,0.4c0,0.2-0.1,0.3-0.2,0.4c0.1,0,0.2,0.1,0.2,0.2c0.1,0.1,0.1,0.2,0.1,0.3
				c0,0.2,0,0.3-0.2,0.5s-0.2,0.2-0.4,0.2s-0.3,0-0.4-0.2C733.6,371.4,733.5,371.2,733.5,371.1"/>
			<path class="st8" d="M735.9,371.3v0.4h-1.1c0-0.1,0-0.3,0.1-0.4s0.2-0.3,0.4-0.5s0.2-0.3,0.3-0.3c0-0.1,0.1-0.2,0.1-0.2
				s0-0.2-0.1-0.2s-0.1-0.1-0.2-0.1s-0.1,0-0.2,0.1s-0.1,0.1-0.1,0.2h-0.3c0-0.2,0.1-0.4,0.2-0.5s0.2-0.1,0.4-0.1s0.3,0.1,0.4,0.2
				s0.1,0.2,0.1,0.4c0,0.1,0,0.2,0,0.3c0,0.1-0.1,0.2-0.1,0.3c0,0.1-0.1,0.1-0.2,0.3c-0.1,0.1-0.2,0.2-0.2,0.2s0,0.1-0.1,0.1
				L735.9,371.3L735.9,371.3z"/>
			<path class="st1" d="M759.4,374.5c2.1,0,3.8-1.7,3.8-3.8s-1.7-3.8-3.8-3.8s-3.8,1.7-3.8,3.8S757.3,374.5,759.4,374.5"/>
			<path class="st8" d="M757.6,371.1h0.3c0,0.1,0,0.2,0.1,0.2c0,0,0.1,0.1,0.2,0.1c0.1,0,0.1,0,0.2-0.1c0-0.1,0.1-0.2,0.1-0.3
				c0-0.1,0-0.2-0.1-0.3s-0.1-0.1-0.2-0.1c-0.1,0-0.2,0-0.2,0.1h-0.3l0.2-1.1h0.9v0.4H758v0.4c0.1,0,0.2-0.1,0.2-0.1
				c0.2,0,0.3,0.1,0.4,0.2s0.2,0.3,0.2,0.5s0,0.3-0.1,0.5s-0.3,0.3-0.5,0.3s-0.3,0-0.4-0.2S757.6,371.3,757.6,371.1"/>
			<path class="st8" d="M758.8,371.1h0.3c0,0.1,0,0.2,0.1,0.2c0,0,0.1,0.1,0.2,0.1c0.1,0,0.1,0,0.2-0.1s0.1-0.1,0.1-0.3
				c0-0.1,0-0.2-0.1-0.2c0-0.1-0.1-0.1-0.2-0.1c0,0-0.1,0-0.2,0v-0.3c0.1,0,0.2,0,0.2-0.1c0,0,0.1-0.1,0.1-0.2s0-0.1,0-0.2l-0.1-0.1
				c0,0-0.1,0-0.1,0.1s-0.1,0.1-0.1,0.2l-0.3-0.1c0-0.1,0-0.2,0.1-0.3c0-0.1,0.1-0.1,0.2-0.2c0.1,0,0.2-0.1,0.2-0.1
				c0.2,0,0.3,0.1,0.4,0.2c0.1,0.1,0.1,0.2,0.1,0.4c0,0.2-0.1,0.3-0.2,0.4c0.1,0,0.2,0.1,0.2,0.2c0.1,0.1,0.1,0.2,0.1,0.3
				c0,0.2,0,0.3-0.2,0.5s-0.2,0.2-0.4,0.2s-0.3,0-0.4-0.2C758.9,371.4,758.9,371.2,758.8,371.1"/>
			<path class="st8" d="M761,371.6h-0.3v-1.5c-0.1,0.1-0.3,0.2-0.4,0.3V370c0.1,0,0.2-0.1,0.3-0.2s0.2-0.2,0.2-0.3h0.3L761,371.6
				L761,371.6z"/>
			<path class="st1" d="M793.9,374.5c2.1,0,3.8-1.7,3.8-3.8s-1.7-3.8-3.8-3.8s-3.8,1.7-3.8,3.8S791.8,374.5,793.9,374.5"/>
			<path class="st8" d="M791.2,371.1h0.3c0,0.1,0,0.2,0.1,0.2c0,0,0.1,0.1,0.2,0.1c0.1,0,0.1,0,0.2-0.1c0-0.1,0.1-0.2,0.1-0.3
				c0-0.1,0-0.2-0.1-0.3s-0.1-0.1-0.2-0.1c-0.1,0-0.2,0-0.2,0.1h-0.3l0.2-1.1h0.9v0.4h-0.6v0.4c0.1,0,0.2-0.1,0.2-0.1
				c0.2,0,0.3,0.1,0.4,0.2s0.2,0.3,0.2,0.5s0,0.3-0.1,0.5s-0.3,0.3-0.5,0.3s-0.3,0-0.4-0.2C791.3,371.4,791.2,371.3,791.2,371.1"/>
			<path class="st8" d="M792.5,371.1h0.3c0,0.1,0,0.2,0.1,0.2c0,0,0.1,0.1,0.2,0.1c0.1,0,0.1,0,0.2-0.1s0.1-0.1,0.1-0.3
				c0-0.1,0-0.2-0.1-0.2c0-0.1-0.1-0.1-0.2-0.1c0,0-0.1,0-0.2,0v-0.3c0.1,0,0.2,0,0.2-0.1c0,0,0.1-0.1,0.1-0.2s0-0.1,0-0.2l-0.1-0.1
				c0,0-0.1,0-0.1,0.1s-0.1,0.1-0.1,0.2l-0.3-0.1c0-0.1,0-0.2,0.1-0.3c0-0.1,0.1-0.1,0.2-0.2c0.1,0,0.2-0.1,0.2-0.1
				c0.2,0,0.3,0.1,0.4,0.2c0.1,0.1,0.1,0.2,0.1,0.4c0,0.2-0.1,0.3-0.2,0.4c0.1,0,0.2,0.1,0.2,0.2c0.1,0.1,0.1,0.2,0.1,0.3
				c0,0.2,0,0.3-0.2,0.5s-0.2,0.2-0.4,0.2s-0.3,0-0.4-0.2C792.6,371.4,792.5,371.2,792.5,371.1"/>
			<path class="st8" d="M794.3,369.9L794.3,369.9c-0.1,0.1-0.1,0.1-0.2,0.2c0,0.1,0,0.3,0,0.5s0,0.4,0,0.5s0,0.1,0.1,0.2h0.1h0.1
				c0,0,0-0.1,0.1-0.2c0-0.1,0-0.3,0-0.5s0-0.4,0-0.5C794.5,370,794.5,369.9,794.3,369.9C794.4,369.9,794.4,369.9,794.3,369.9
				 M794.3,369.5c0.2,0,0.3,0.1,0.4,0.2c0.1,0.2,0.2,0.5,0.2,0.9s0,0.7-0.2,0.9c-0.1,0.1-0.2,0.2-0.4,0.2s-0.3-0.1-0.4-0.2
				c-0.1-0.2-0.2-0.4-0.2-0.8s0-0.7,0.2-0.9C794,369.6,794.2,369.5,794.3,369.5"/>
			<path class="st8" d="M796,370.8l-0.2-0.8l-0.2,0.8H796z M796.7,371.6h-0.4l-0.2-0.5h-0.7l-0.1,0.5H795l0.7-2.1h0.4L796.7,371.6
				L796.7,371.6z"/>
			<path class="st1" d="M863,374.5c2.1,0,3.8-1.7,3.8-3.8s-1.7-3.8-3.8-3.8s-3.8,1.7-3.8,3.8S860.9,374.5,863,374.5"/>
			<path class="st8" d="M861.1,371.1h0.3c0,0.1,0,0.2,0.1,0.2c0,0,0.1,0.1,0.2,0.1c0.1,0,0.1,0,0.2-0.1c0-0.1,0.1-0.2,0.1-0.3
				c0-0.1,0-0.2-0.1-0.3s-0.1-0.1-0.2-0.1c-0.1,0-0.2,0-0.2,0.1h-0.3l0.2-1.1h0.9v0.4h-0.6v0.4c0.1,0,0.2-0.1,0.2-0.1
				c0.2,0,0.3,0.1,0.4,0.2s0.2,0.3,0.2,0.5s0,0.3-0.1,0.5s-0.3,0.3-0.5,0.3s-0.3,0-0.4-0.2C861.2,371.4,861.1,371.3,861.1,371.1"/>
			<path class="st8" d="M862.4,371.1h0.3c0,0.1,0,0.2,0.1,0.2c0,0,0.1,0.1,0.2,0.1c0.1,0,0.1,0,0.2-0.1s0.1-0.1,0.1-0.3
				c0-0.1,0-0.2-0.1-0.2c0-0.1-0.1-0.1-0.2-0.1c0,0-0.1,0-0.2,0v-0.3c0.1,0,0.2,0,0.2-0.1c0,0,0.1-0.1,0.1-0.2s0-0.1,0-0.2l-0.1-0.1
				c0,0-0.1,0-0.1,0.1s-0.1,0.1-0.1,0.2l-0.3-0.1c0-0.1,0-0.2,0.1-0.3c0-0.1,0.1-0.1,0.2-0.2c0.1,0,0.2-0.1,0.2-0.1
				c0.2,0,0.3,0.1,0.4,0.2c0.1,0.1,0.1,0.2,0.1,0.4c0,0.2-0.1,0.3-0.2,0.4c0.1,0,0.2,0.1,0.2,0.2c0.1,0.1,0.1,0.2,0.1,0.3
				c0,0.2,0,0.3-0.2,0.5s-0.2,0.2-0.4,0.2s-0.3,0-0.4-0.2C862.5,371.4,862.4,371.2,862.4,371.1"/>
			<path class="st8" d="M864.2,369.9L864.2,369.9c-0.1,0.1-0.1,0.1-0.2,0.2c0,0.1,0,0.3,0,0.5s0,0.4,0,0.5s0,0.1,0.1,0.2h0.1h0.1
				c0,0,0-0.1,0.1-0.2c0-0.1,0-0.3,0-0.5s0-0.4,0-0.5C864.4,370,864.4,369.9,864.2,369.9C864.3,369.9,864.3,369.9,864.2,369.9
				 M864.2,369.5c0.2,0,0.3,0.1,0.4,0.2c0.1,0.2,0.2,0.5,0.2,0.9s-0.1,0.7-0.2,0.9c-0.1,0.1-0.2,0.2-0.4,0.2s-0.3-0.1-0.4-0.2
				c-0.1-0.2-0.2-0.4-0.2-0.8s0.1-0.7,0.2-0.9C864,369.6,864.1,369.5,864.2,369.5"/>
			<path class="st1" d="M896.9,354.1c2.1,0,3.8-1.7,3.8-3.8s-1.7-3.8-3.8-3.8s-3.8,1.7-3.8,3.8S894.8,354.1,896.9,354.1"/>
			<path class="st8" d="M895,350.7h0.3c0,0.1,0,0.2,0.1,0.2c0,0,0.1,0.1,0.2,0.1c0.1,0,0.1,0,0.2-0.1s0.1-0.2,0.1-0.3
				c0-0.1,0-0.2-0.1-0.3s-0.1-0.1-0.2-0.1c-0.1,0-0.2,0-0.2,0.1h-0.3l0.2-1.1h0.9v0.4h-0.6v0.4c0.1,0,0.2-0.1,0.2-0.1
				c0.2,0,0.3,0.1,0.4,0.2s0.2,0.3,0.2,0.5s0,0.3-0.1,0.5s-0.3,0.3-0.5,0.3s-0.3,0-0.4-0.2C895.1,351,895,350.9,895,350.7"/>
			<path class="st8" d="M897.4,350.9v0.4h-1.1c0-0.1,0-0.3,0.1-0.4s0.2-0.3,0.4-0.5s0.2-0.3,0.3-0.3c0-0.1,0.1-0.2,0.1-0.2
				s0-0.2-0.1-0.2s-0.1-0.1-0.2-0.1s-0.1,0-0.2,0.1s-0.1,0.1-0.1,0.2h-0.3c0-0.2,0.1-0.4,0.2-0.5s0.2-0.1,0.4-0.1s0.3,0.1,0.4,0.2
				s0.1,0.2,0.1,0.4c0,0.1,0,0.2,0,0.3c0,0.1-0.1,0.2-0.1,0.3c0,0.1-0.1,0.1-0.2,0.3c-0.1,0.1-0.2,0.2-0.2,0.2s0,0.1-0.1,0.1
				L897.4,350.9L897.4,350.9z"/>
			<path class="st8" d="M898.3,349.9c0-0.1,0-0.2-0.1-0.3c0-0.1-0.1-0.1-0.2-0.1s-0.1,0-0.2,0.1c0,0.1-0.1,0.1-0.1,0.3
				s0,0.2,0.1,0.3c0,0.1,0.1,0.1,0.2,0.1s0.1,0,0.2-0.1C898.3,350.1,898.3,350,898.3,349.9 M897.6,350.8h0.3c0,0.1,0,0.1,0.1,0.2
				l0.1,0.1c0.1,0,0.1,0,0.2-0.1s0.1-0.2,0.1-0.5c-0.1,0.1-0.2,0.2-0.3,0.2s-0.2-0.1-0.3-0.2s-0.2-0.3-0.2-0.5s0-0.4,0.2-0.5
				c0.1-0.1,0.2-0.2,0.4-0.2s0.3,0.1,0.4,0.2s0.2,0.4,0.2,0.8s-0.1,0.7-0.2,0.8c-0.1,0.2-0.3,0.3-0.5,0.3c-0.1,0-0.2,0-0.3-0.1
				S897.6,351,897.6,350.8"/>
			<path class="st11" d="M240.9,306c2.3,0,4.1,1.9,4.1,4.1s-1.9,4.1-4.1,4.1s-4.1-1.9-4.1-4.1S238.6,306,240.9,306"/>
			<path class="st11" d="M954.3,278.8c2.3,0,4.1,1.9,4.1,4.1s-1.8,4.1-4.1,4.1s-4.1-1.9-4.1-4.1S952,278.8,954.3,278.8"/>
			<path class="st12" d="M240.9,309.5c-0.1,0-0.1,0.1-0.2,0.2l-0.5,0.9c0,0.1-0.1,0.1-0.1,0.2c-0.1,0.1-0.2,0.3-0.2,0.5
				c0,0.1-0.4,0.6-0.4,0.7s0,0.2,0.1,0.3c0.1,0,0.6,0,0.7,0h1.8c0.1,0,0.2,0,0.3-0.1s0.1-0.2,0-0.3c0-0.1-0.1-0.2-0.1-0.2l-1-1.9
				c-0.1-0.1-0.1-0.3-0.2-0.3C241,309.5,240.9,309.5,240.9,309.5"/>
			<path class="st12" d="M954.3,282.2c-0.1,0-0.1,0.1-0.2,0.2l-0.5,0.9c0,0.1-0.1,0.1-0.1,0.2c-0.1,0.1-0.2,0.3-0.2,0.5
				c0,0.1-0.3,0.6-0.4,0.7c0,0.1,0,0.2,0.1,0.3c0.1,0,0.6,0,0.7,0h1.8c0.1,0,0.2,0,0.3-0.1s0.1-0.2,0-0.3c0-0.1-0.1-0.2-0.1-0.2
				l-1-1.9c0-0.1-0.1-0.3-0.2-0.3C954.5,282.2,954.4,282.2,954.3,282.2"/>
			<path class="st12" d="M240.8,307.6c-0.4,0.1-0.8,0.5-0.7,1c0.1,0.4,0.5,0.8,1,0.7c0.4-0.1,0.8-0.5,0.7-1
				C241.7,307.9,241.3,307.5,240.8,307.6"/>
			<path class="st12" d="M954.3,280.3c-0.4,0.1-0.8,0.5-0.7,1c0.1,0.4,0.5,0.8,1,0.7c0.4-0.1,0.8-0.5,0.7-1
				C955.2,280.6,954.8,280.2,954.3,280.3"/>
			<path class="st11" d="M384.8,307.8c2.3,0,4.1,1.9,4.1,4.1s-1.9,4.1-4.1,4.1s-4.1-1.9-4.1-4.1S382.5,307.8,384.8,307.8"/>
			<path class="st11" d="M614.6,309.3c2.3,0,4.1,1.9,4.1,4.1s-1.8,4.1-4.1,4.1s-4.1-1.9-4.1-4.1S612.3,309.3,614.6,309.3"/>
			<path class="st12" d="M384.9,314c0.1,0,0.1-0.1,0.2-0.2l0.5-0.9c0-0.1,0.1-0.1,0.1-0.2c0.1-0.1,0.2-0.3,0.2-0.5
				c0-0.1,0.4-0.6,0.4-0.7s0-0.2-0.1-0.3c-0.1,0-0.6,0-0.7,0h-1.8c-0.1,0-0.2,0-0.3,0.1c-0.1,0.1-0.1,0.2,0,0.3
				c0,0.1,0.1,0.2,0.1,0.2l1,1.9c0,0.1,0.1,0.3,0.2,0.3C384.8,314,384.9,314.1,384.9,314"/>
			<path class="st12" d="M614.7,315.6c0.1,0,0.1-0.1,0.2-0.2l0.5-0.9c0-0.1,0.1-0.1,0.1-0.2c0.1-0.1,0.2-0.3,0.2-0.5
				c0-0.1,0.3-0.6,0.4-0.7c0-0.1,0-0.2-0.1-0.3c-0.1,0-0.6,0-0.7,0h-1.8c-0.1,0-0.2,0-0.3,0.1s-0.1,0.2,0,0.3c0,0.1,0.1,0.2,0.1,0.2
				l1,1.9c0,0.1,0.1,0.3,0.2,0.3C614.6,315.6,614.6,315.6,614.7,315.6"/>
			<path class="st12" d="M384.8,309.3c-0.4,0.1-0.8,0.5-0.7,1c0.1,0.4,0.5,0.8,1,0.7c0.4-0.1,0.8-0.5,0.7-1
				C385.7,309.6,385.3,309.3,384.8,309.3"/>
			<path class="st12" d="M614.5,310.9c-0.4,0.1-0.8,0.5-0.7,1c0.1,0.4,0.5,0.8,1,0.7c0.4-0.1,0.8-0.5,0.7-1
				C615.5,311.2,615,310.8,614.5,310.9"/>
			<path class="st13" d="M657.2,314.6c2.4,0,4.4,2,4.4,4.4s-2,4.4-4.4,4.4s-4.4-2-4.4-4.4S654.8,314.6,657.2,314.6"/>
			<path class="st12" d="M655.8,316.1c-0.3,0.1-0.5,0.3-0.4,0.7c0.2,0.7,1.2,0.5,1.1-0.3C656.5,316.3,656.2,316.1,655.8,316.1
				 M655.1,318.6v0.4h1.3v-0.6c0.1,0.1,0.5,0.8,0.5,0.8l-0.9,0.9c-0.1,0.1,0,0.7,0,0.8c0,0.2,0,0.6,0,0.9h0.5v-1.3
				c0-0.1,0.1-0.2,0.2-0.2l0.7-0.6v1.2h1.7v-0.5h-1c0-0.1,0-1.4,0-1.5s-0.9-1.3-1-1.5h0.6c0.1,0,0.1,0,0.2,0.1l0.5,0.6
				c0.1,0,0.4-0.3,0.4-0.4l-0.6-0.7c-0.1-0.1-0.1-0.2-0.2-0.2c-0.3,0-0.9,0-1.2,0c-0.1,0-0.7,0.5-0.9,0.6c-0.1,0.1-0.1,0-0.1,0.2
				s0,0.4,0,0.6c0,0.1,0,0.2-0.1,0.2s-0.2,0-0.3,0s-0.2,0-0.3,0C655.2,318.5,655.1,318.5,655.1,318.6"/>
			<path class="st13" d="M1058.5,140.7c2.4,0,4.4,2,4.4,4.4s-2,4.4-4.4,4.4s-4.4-2-4.4-4.4S1056.1,140.7,1058.5,140.7"/>
			<path class="st12" d="M1057.2,142.2c-0.3,0.1-0.5,0.3-0.4,0.7c0.2,0.7,1.2,0.5,1.1-0.3C1057.8,142.4,1057.5,142.2,1057.2,142.2
				 M1056.4,144.7v0.4h1.3v-0.6c0.1,0.1,0.5,0.8,0.5,0.8l-0.9,0.9c-0.1,0.1,0,0.7,0,0.8c0,0.2,0,0.6,0,0.9h0.5v-1.3
				c0-0.1,0.1-0.2,0.2-0.2l0.7-0.6v1.2h1.7v-0.5h-1c0-0.1,0-1.4,0-1.5s-0.9-1.3-1-1.5h0.6c0.1,0,0.1,0,0.2,0.1l0.5,0.6
				c0.1,0,0.4-0.3,0.4-0.4l-0.6-0.7c-0.1-0.1-0.1-0.2-0.2-0.2c-0.3,0-0.9,0-1.2,0c-0.1,0-0.7,0.5-0.9,0.6c-0.1,0.1-0.1,0-0.1,0.2
				s0,0.4,0,0.6c0,0.1,0,0.2-0.1,0.2s-0.2,0-0.3,0c-0.1,0-0.2,0-0.3,0C1056.5,144.6,1056.4,144.6,1056.4,144.7"/>
		</g>
	</g>
</g>
</svg>
