<?xml version="1.0" encoding="utf-8"?>
<!-- Generator: Adobe Illustrator 28.0.0, SVG Export Plug-In . SVG Version: 6.00 Build 0)  -->
<svg version="1.1" id="_Слой_1" xmlns="http://www.w3.org/2000/svg" xmlns:xlink="http://www.w3.org/1999/xlink" x="0px"
	 y="0px" viewBox="0 0 1190.6 841.9" style="enable-background:new 0 0 1190.6 841.9;" xml:space="preserve">
<style type="text/css">
	.st0{fill:#201600;}
	.st1{fill:#8F589E;}
	.st2{fill:#3EB5F1;}
	.st3{fill:#72AE5F;}
	.st4{clip-path:url(#SVGID_00000178887508123156179600000018304099782906699936_);}
	.st5{fill:#7775B4;}
	.st6{fill:#7F7D7C;}
	.st7{fill:none;stroke:#201600;stroke-width:0.18;}
	.st8{fill:#FFFFFF;}
	.st9{fill:none;stroke:#201600;stroke-width:0.15;}
	.st10{fill:none;stroke:#201600;stroke-width:0.2;}
	.st11{fill-rule:evenodd;clip-rule:evenodd;fill:#5C91C5;}
	.st12{fill-rule:evenodd;clip-rule:evenodd;fill:#72AE5F;}
	.st13{fill-rule:evenodd;clip-rule:evenodd;fill:#FFFFFF;}
	.st14{fill-rule:evenodd;clip-rule:evenodd;fill:#52AC62;}
</style>
<polygon class="st0" points="196.2,456.2 235.3,456.2 235.3,425.4 233.9,425.4 233.9,454.7 196.2,454.7 "/>
<path class="st0" d="M614.3,465.2h1.5V425h-1.5V465.2z M614.3,515.6h1.5v-41.1h-1.5V515.6z"/>
<polygon class="st1" points="751.3,463.8 770.7,463.8 770.7,462.4 752.7,462.4 752.7,427.6 782.3,427.6 782.3,462.4 777.9,462.4 
	777.9,463.8 783.8,463.8 783.8,426.2 751.3,426.2 "/>
<path class="st2" d="M796.1,463.8h42.6v-1.5h-42.6V463.8z M784.6,463.8h4.8v-1.5h-3.4v-34.7h63.1v34.7h-3.9v1.5h5.3v-37.6h-66
	L784.6,463.8L784.6,463.8z"/>
<polygon class="st1" points="752,514.3 785,514.3 785,476.7 777.6,476.7 777.6,478.1 783.6,478.1 783.6,512.9 753.4,512.9 
	753.4,478.1 771,478.1 771,476.7 752,476.7 "/>
<polygon class="st1" points="735.2,514.3 751.3,514.3 751.3,476.7 744,476.7 744,478.1 749.8,478.1 749.8,512.9 736.6,512.9 
	736.6,478.1 738,478.1 738,476.7 735.2,476.7 "/>
<polygon class="st1" points="717,463.8 735.2,463.8 735.2,462.4 718.4,462.4 718.4,427.6 748.8,427.6 748.8,462.4 742.9,462.4 
	742.9,463.8 750.2,463.8 750.2,426.2 717,426.2 "/>
<polygon class="st2" points="683.7,463.8 688.8,463.8 688.8,462.4 685.1,462.4 685.1,427.6 714.9,427.6 714.9,462.4 695.6,462.4 
	695.6,463.8 716.3,463.8 716.3,426.2 683.7,426.2 "/>
<polygon class="st1" points="718,514.3 734.4,514.3 734.4,476.7 730.4,476.7 730.4,478.1 733,478.1 733,512.9 719.4,512.9 
	719.4,478.1 724.2,478.1 724.2,476.7 718,476.7 "/>
<polygon class="st1" points="373.4,514.3 390.5,514.3 390.5,476.7 385,476.7 385,478.1 389.1,478.1 389.1,512.9 374.8,512.9 
	374.8,478.1 377,478.1 377,476.7 373.4,476.7 "/>
<polygon class="st1" points="321.4,514.3 338.5,514.3 338.5,476.7 333,476.7 333,478.1 337.1,478.1 337.1,512.9 322.8,512.9 
	322.8,478.1 325,478.1 325,476.7 321.4,476.7 "/>
<polygon class="st1" points="305,514.3 321,514.3 321,476.7 315.5,476.7 315.5,478.1 319.5,478.1 319.5,512.9 306.4,512.9 
	306.4,478.1 309.2,478.1 309.2,476.7 305,476.7 "/>
<polygon class="st1" points="270.8,514.3 304.1,514.3 304.1,476.7 283.1,476.7 283.1,478.1 302.7,478.1 302.7,512.9 272.2,512.9 
	272.2,478.1 274.8,478.1 274.8,476.7 270.8,476.7 "/>
<polygon class="st1" points="253.3,514.3 269.9,514.3 269.9,476.7 264,476.7 264,478.1 268.5,478.1 268.5,512.9 254.8,512.9 
	254.8,478.1 256.9,478.1 256.9,476.7 253.3,476.7 "/>
<polygon class="st1" points="201.9,514.3 252.5,514.3 252.5,476.7 213.6,476.7 213.6,478.1 251,478.1 251,512.9 203.4,512.9 
	203.4,478.1 205.9,478.1 205.9,476.7 201.9,476.7 "/>
<polygon class="st1" points="150.4,514.3 200.9,514.3 200.9,476.7 160.1,476.7 160.1,478.1 199.5,478.1 199.5,512.9 151.8,512.9 
	151.8,478.1 153.5,478.1 153.5,476.7 150.4,476.7 "/>
<polygon class="st1" points="134.4,514.3 149.3,514.3 149.3,476.7 146.5,476.7 146.5,478.1 147.9,478.1 147.9,512.9 135.8,512.9 
	135.8,478.1 138.9,478.1 138.9,476.7 134.4,476.7 "/>
<polygon class="st1" points="159.2,456.2 168.1,456.2 168.1,426.2 134.4,426.2 134.4,456.1 151.4,456.1 151.4,454.7 135.8,454.7 
	135.8,427.6 166.6,427.6 166.6,454.8 159.2,454.8 "/>
<polygon class="st1" points="127.8,456.2 133.5,456.2 133.5,426.2 99.9,426.2 99.9,456.1 119.8,456.1 119.8,454.7 101.3,454.7 
	101.3,427.6 132.1,427.6 132.1,454.8 127.8,454.8 "/>
<polygon class="st1" points="93.8,456.2 99,456.2 99,426.2 63.1,426.2 63.1,456.1 86.4,456.1 86.4,454.7 64.6,454.7 64.6,427.6 
	97.6,427.6 97.6,454.8 93.8,454.8 "/>
<polygon class="st1" points="117.1,514.3 133.5,514.3 133.5,476.7 128.6,476.7 128.6,478.1 132.1,478.1 132.1,512.9 118.6,512.9 
	118.6,478.1 122.3,478.1 122.3,476.7 117.1,476.7 "/>
<polygon class="st1" points="97.4,514.3 116.1,514.3 116.1,476.7 110.6,476.7 110.6,478.1 114.6,478.1 114.6,512.9 98.8,512.9 
	98.8,478.1 103.1,478.1 103.1,476.7 97.4,476.7 "/>
<polygon class="st1" points="339.5,514.3 372.2,514.3 372.2,476.7 352.2,476.7 352.2,478.1 370.8,478.1 370.8,512.9 340.9,512.9 
	340.9,478.1 344.2,478.1 344.2,476.7 339.5,476.7 "/>
<polygon class="st2" points="441.8,463.8 445.1,463.8 445.1,462.4 443.2,462.4 443.2,427.6 472.6,427.6 472.6,462.4 452.9,462.4 
	452.9,463.8 474,463.8 474,426.2 441.8,426.2 "/>
<polygon class="st3" points="373.4,463.8 382.2,463.8 382.2,462.4 374.8,462.4 374.8,427.6 404.7,427.6 404.7,445.1 386.4,445.1 
	386.4,435.2 384.9,435.2 384.9,445.1 384,445.1 384,446.5 384.9,446.5 384.9,446.6 386.4,446.6 386.4,446.5 394.5,446.5 
	394.5,451.3 395.9,451.3 395.9,446.5 404.7,446.5 404.7,462.4 395.9,462.4 395.9,456.5 394.5,456.5 394.5,462.4 389.8,462.4 
	389.8,463.8 406.1,463.8 406.1,426.2 373.4,426.2 "/>
<polygon class="st3" points="616.1,463.8 620.7,463.8 620.7,462.4 617.5,462.4 617.5,446.6 620.7,446.6 620.7,445.1 617.5,445.1 
	617.5,427.6 646.7,427.6 646.7,445.1 634.9,445.1 634.9,445.1 633.5,445.1 633.5,445.1 632.5,445.1 632.5,435.2 631.1,435.2 
	631.1,445.1 627.3,445.1 627.3,446.6 633.5,446.6 633.5,451.3 634.9,451.3 634.9,446.6 646.7,446.6 646.7,462.4 634.9,462.4 
	634.9,456.5 633.5,456.5 633.5,462.4 627.3,462.4 627.3,463.8 648.1,463.8 648.1,426.2 616.1,426.2 "/>
<polygon class="st3" points="268.5,463.8 269.9,463.8 269.9,426.2 236.7,426.2 236.7,442.7 261.9,442.7 261.9,456.1 263.4,456.1 
	263.4,433.1 261.9,433.1 261.9,441.3 238.1,441.3 238.1,427.6 268.5,427.6 "/>
<path class="st2" d="M316.9,462.4v1.5h39.8v-1.5h0v-6.2h-1.5v6.2H316.9L316.9,462.4z M356.6,426.2h-85.9v37.6h38.4v-1.5h-37v-34.7
	h83v28.5h1.5L356.6,426.2L356.6,426.2z"/>
<polygon class="st2" points="316.9,462.4 316.9,463.8 356.5,463.8 356.6,462.4 356.6,456.1 355.2,456.1 355.2,462.4 "/>
<g>
	<defs>
		<rect id="SVGID_1_" width="1190.6" height="841.9"/>
	</defs>
	<clipPath id="SVGID_00000056409096735663376220000002898629906673358217_">
		<use xlink:href="#SVGID_1_"  style="overflow:visible;"/>
	</clipPath>
	<g style="clip-path:url(#SVGID_00000056409096735663376220000002898629906673358217_);">
		<path class="st1" d="M361.6,427.6h9.2v34.7h-4.1v1.5h5.5v-37.6H361C361.4,426.5,361.7,427.1,361.6,427.6"/>
		<polygon class="st1" points="363,462.4 358.9,462.4 358.9,427.6 363,427.6 363,426.2 357.5,426.2 357.5,463.8 362.9,463.8 		"/>
		<path class="st2" d="M520.5,462.4v1.5h11v-1.5h-4.6v-7.8h-1.5v7.8H520.5z M475.1,463.8h38v-1.5h-4v-7.6h-1.5v7.6h-31.2v-34.7h31.2
			V449h1.5v-21.3h16.2v21.1h1.5v-21.1h14.5v34.7h-2.6v1.5h4v-37.6h-67.7L475.1,463.8L475.1,463.8z"/>
		<path class="st2" d="M589.8,462.4v1.5h9.5v-1.5h-4.7v-6.8h-1.4v6.8H589.8L589.8,462.4z M558,462.4v1.5h24.5v-1.5h-3.9v-7.8h-1.4
			v7.8H558z M544.2,463.8h6.2v-1.5h-4.8v-34.7h31.5v21.1h1.4v-21.1h14.8v21.6h1.4v-21.6h17.4v34.7h-5.8v1.5h7.2v-37.6h-69.4
			L544.2,463.8L544.2,463.8z"/>
		<path class="st1" d="M479.8,478.1v-1.5h-76.1v1.5h36.6v3.6h1.5v-3.6H479.8L479.8,478.1z M496.4,478.1v-1.5h-8.3v1.5h4.1v3.6h1.5
			v-3.6H496.4L496.4,478.1z M513,478.1v-1.5h-9.2v1.5h4.8v3.6h1.4v-3.6H513L513,478.1z M599.3,476.7h-79.1v1.5h79.1V476.7z
			 M391.6,514.3h222v-37.6h-7.3v1.5h5.8v34.7H510v-26.7h-1.4v26.7h-14.9v-26.7h-1.5v26.7h-50.4v-26.7h-1.5v26.7H393v-34.7h2.8v-1.5
			h-4.2L391.6,514.3L391.6,514.3z"/>
		<path class="st1" d="M701.6,478.1v-1.5H628v1.5h54.6v7.3h1.5v-7.3H701.6L701.6,478.1z M617.2,514.3H717v-37.6h-8.3v1.5h6.9v34.7
			H684v-21.2h-1.5v21.2h-63.9v-34.7h2.3v-1.5h-3.7L617.2,514.3L617.2,514.3z"/>
		<polygon class="st1" points="1007.4,219.2 1008.6,220.1 1035.2,240 1036.4,240.9 1037.3,239.7 1038.8,237.7 1037.6,236.8 
			1036.1,238.8 1009.5,218.9 1017.5,208.1 1044.2,228.1 1041.4,231.8 1042.6,232.6 1045.3,228.9 1046.2,227.8 1045.1,226.9 
			1018.4,207 1017.2,206.1 1016.4,207.2 1008.3,218 		"/>
		<polygon class="st1" points="1033.6,278.8 1034.8,279.6 1057.3,296.5 1057.3,296.4 1058.1,295.3 1065.6,285.4 1066.4,284.2 
			1065.3,283.3 1044,267.4 1042.8,266.5 1041.9,267.7 1038.9,271.7 1040.1,272.5 1043.1,268.5 1064.4,284.5 1057,294.5 
			1035.7,278.5 1036.5,277.3 1035.4,276.5 1034.5,277.6 		"/>
		<polygon class="st1" points="1074.2,248.7 1075.1,249.4 1075.4,249.6 1085.1,256.9 1086.2,257.7 1087.1,256.6 1106.5,230.7 
			1107.3,229.6 1106.2,228.7 1084.5,212.5 1084.5,212.5 1083.7,211.9 1078.4,218.9 1079.6,219.8 1084,213.9 1105.3,229.8 
			1086,255.7 1076.3,248.4 1086,235.4 1085.9,235.3 1085.9,235.2 1074.4,226.6 1075.9,224.6 1074.8,223.8 1073.3,225.8 
			1072.4,226.9 1073.6,227.8 1084,235.6 		"/>
		<polygon class="st1" points="1023.5,292.3 1024.7,293.1 1046,309.1 1047.2,310 1048,308.8 1055.7,298.6 1056.5,297.5 
			1055.4,296.6 1034,280.6 1032.9,279.8 1032,280.9 1029.1,284.9 1030.2,285.7 1033.2,281.8 1054.5,297.8 1046.9,307.9 1025.6,292 
			1026.4,290.9 1025.2,290 1024.4,291.1 		"/>
		<polygon class="st1" points="1013.6,305.6 1014.7,306.5 1036.1,322.4 1037.2,323.3 1038.1,322.1 1045.8,311.8 1046.7,310.6 
			1045.5,309.8 1024.2,293.8 1023,292.9 1022.2,294.1 1018.9,298.4 1020.1,299.3 1023.3,295 1044.7,310.9 1036.9,321.2 
			1015.6,305.3 1016.5,304.1 1015.3,303.3 1014.4,304.4 		"/>
		<path class="st5" d="M1000,339l15.1,11.3l1.2,0.9l0.9-1.2l8-10.7l0.9-1.2l-1.2-0.9l-21.3-16l-1.2-0.9l-0.9,1.2l-3.3,4.4l1.2,0.9
			l3.3-4.4l21.3,16l-8,10.7l-15-11.2L1000,339L1000,339z M992.7,333.5l1.2,0.9l2.8,2.1l0.9-1.1l-2.9-2.1l1-1.3l-1.2-0.9l-1,1.3
			L992.7,333.5L992.7,333.5z M996.2,337.1l-2.8-2.1l-1.2-0.9l-0.9,1.2l-6.5,8.8l1.2,0.9l6.5-8.8l2.8,2.1L996.2,337.1L996.2,337.1z
			 M982.7,346.9l1.2,0.9l21.3,16l1.2,0.9l0.9-1.2l7.8-10.4l0.9-1.2l-1.2-0.9l-15.2-11.4l-1,1.1l15.3,11.4l-7.8,10.4l-21.3-16
			l1.2-1.7l-1.2-0.9l-1.3,1.7L982.7,346.9L982.7,346.9z M1003.1,319.6l1.2,0.9l21.3,16l1.2,0.9l0.9-1.2l8.2-11l0.9-1.2l-1.2-0.9
			l-21.3-16l-1.2-0.9l-0.9,1.2l-3.5,4.7l1.2,0.9l3.5-4.7l21.3,16l-8.2,11l-21.3-16l1-1.4l-1.2-0.9l-1,1.4L1003.1,319.6L1003.1,319.6
			z"/>
		<polygon class="st1" points="972,361.2 973.1,362.1 994.5,378 995.6,378.9 996.5,377.7 1005,366.3 1005.9,365.2 1004.7,364.3 
			983.4,348.4 982.2,347.5 981.4,348.6 978.4,352.6 979.6,353.4 982.5,349.5 1003.8,365.5 995.3,376.9 974,360.9 975.5,358.9 
			974.4,358 972.8,360 		"/>
		<polygon class="st1" points="916,341.5 917.1,342.4 943.8,362.3 944.9,363.2 945.8,362 948.3,358.7 947.1,357.8 944.6,361.1 
			918,341.2 925.7,331 952.3,350.9 950.7,353.1 951.8,353.9 953.5,351.8 954.3,350.6 953.2,349.7 926.5,329.8 925.4,328.9 
			924.5,330.1 916.8,340.3 		"/>
		<polygon class="st1" points="905.7,355.2 906.9,356.1 933.5,376 934.7,376.9 935.5,375.7 937.5,373.2 936.3,372.3 934.4,374.8 
			907.7,354.9 915.7,344.3 942.3,364.2 939.8,367.5 941,368.4 943.5,365.1 944.4,363.9 943.2,363 916.5,343.1 915.4,342.2 
			914.5,343.4 906.6,354 		"/>
		<path class="st1" d="M901.2,419.1l-3.3,4.4l1.2,0.9l3.3-4.4l0.2,0.1l0.9-1.2l-0.2-0.1l12.9-17.2l-1.2-0.9L902.1,418l-4.8-3.6
			l-0.9,1.2L901.2,419.1L901.2,419.1z M853.1,425.6l29,21.7l0.1-0.1l0.8-1.1l6.5-8.6l0.9-1.2l5.3-7l-1.2-0.9l-5.3,7l-10.1-7.6
			l-0.9,1.2l10.1,7.6l-6.5,8.6l-26.7-19.9l11.6-15.6l8.6,6.4l-4.3,5.8l-0.9,1.2l1.2,0.9l1.9,1.4l0.9-1.2l-1.9-1.4l4.3-5.8l0.9-1.2
			l-1.2-0.9l-8.6-6.4l7-9.3l16.7,12.5l0.9-1.2l-16.7-12.5l19.5-26.1l16.7,12.5l0.9-1.2l-16.7-12.5l9.6-12.8l26.7,19.9l-9.6,12.8
			l-4.9-3.7l-0.9,1.2l4.9,3.7l-2.8,3.8l1.2,0.9l2.8-3.8l0,0l0.9-1.2l0,0l9.6-12.8l0.9-1.2l-1.2-0.9l-26.7-19.9l-1.2-0.9l-0.9,1.2
			l-30,40l-0.9,1.2l-7,9.3l-0.9,1.2l-11.7,15.6L853.1,425.6L853.1,425.6L853.1,425.6z"/>
		<polygon class="st6" points="851.6,463.8 869.6,463.8 869.6,463.8 869.7,463.8 874.6,457.1 873.5,456.3 868.9,462.4 853,462.4 
			853,428.4 879.5,448.2 877.8,450.5 879,451.3 880.7,449 881.5,447.9 881.5,447.9 852.7,426.2 851.6,426.2 		"/>
		<polygon class="st1" points="961.3,375.4 962.5,376.3 983.8,392.2 985,393.1 985.8,392 994.2,380.7 995.1,379.5 994,378.7 
			972.6,362.7 971.5,361.9 970.6,363 968.1,366.4 969.2,367.3 971.8,363.9 993.1,379.8 984.7,391.1 963.3,375.1 964.8,373.1 
			963.7,372.3 962.2,374.3 		"/>
		<polygon class="st1" points="887,474.7 888.2,475.6 909.5,491.6 910.7,492.4 911.5,491.3 922.1,477.2 922.9,476 921.8,475.2 
			900.5,459.2 899.3,458.3 898.4,459.5 895.9,462.9 897.1,463.7 899.6,460.4 920.9,476.3 910.4,490.4 889,474.5 890.5,472.5 
			889.4,471.6 887.9,473.6 		"/>
		<path class="st1" d="M858.1,478.1v-1.5H796v1.5h21.5v6.9h1.5v-6.9h31.4v7.6h1.5v-7.6H858.1L858.1,478.1z M894.3,514.3l15.2-20.4
			l0,0l0.9-1.1l-22.5-16.8l-1.2-0.9l-0.9,1.2l-0.3,0.5h-20.9v1.5h21.5l0.8-1l21.3,16l-14.8,19.8h-41.8v-20h-1.5v20h-31.4v-20.3h-1.5
			v20.3h-30.2v-34.7h2.1v-1.5h-3.6v37.6L894.3,514.3L894.3,514.3z"/>
		<polygon class="st3" points="952.2,410.2 953,410.9 953.3,411.1 963.8,419 965,419.8 965,419.8 965.8,418.7 965.8,418.7 
			983.8,394.7 983.8,394.7 984.6,393.6 961,375.9 960.1,377 982.6,393.9 964.7,417.8 954.2,410 962.6,398.7 968,402.7 968.9,401.5 
			963.5,397.5 968.6,390.7 972.7,393.8 973.6,392.7 957.5,380.6 956.6,381.8 967.4,389.9 		"/>
		<polygon class="st1" points="957,286.5 958.2,287.4 984.9,307.4 986,308.2 986.9,307.1 989.1,304.1 987.9,303.3 985.7,306.2 
			959.1,286.3 997.9,234.4 1024.5,254.3 991.3,298.8 992.4,299.6 1025.7,255.2 1026.6,254 1025.4,253.2 998.8,233.2 997.6,232.4 
			996.7,233.5 957.9,285.4 		"/>
		<polygon class="st1" points="926.1,327.9 927.3,328.8 953.9,348.7 955.1,349.6 955.9,348.4 977.5,319.6 976.4,318.7 954.8,347.6 
			928.1,327.6 956.8,289.3 983.4,309.3 980.8,312.7 982,313.6 984.6,310.1 985.5,309 984.3,308.1 957.7,288.2 956.5,287.3 
			955.6,288.5 927,326.8 		"/>
		<polygon class="st0" points="93.8,517.8 896.3,517.8 897,516.7 1112.5,228.6 1110.4,227 1068.8,282.5 1046.1,265.5 1067,237.6 
			1065.4,236.4 1044.5,264.3 1044.4,264.3 1043.3,265.9 1043.3,265.9 1044.9,267.1 1067.7,284.1 965.2,421.1 940.8,402.9 
			940.5,403.3 939.6,404.5 918.4,432.8 920,434 941.2,405.7 964,422.7 894.9,515.1 96.5,515.1 96.5,498.5 56.4,498.5 56.4,465.2 
			74.5,465.2 74.5,462.5 51.6,462.5 51.6,465.2 53.7,465.2 53.7,501.2 54.3,501.2 56.4,501.2 93.8,501.2 		"/>
		<path class="st7" d="M1068.9,136l70.2,52.6l0.1,0.1l-0.1,0.1c-9.5,12.7-19,25.4-28.5,38.1c0.7,0.5,1.3,1,2,1.5
			c9.5-12.7,19-25.4,28.5-38.1c0.5-0.7,1-1.4,1.6-2.1c-0.7-0.5-1.4-1-2.1-1.6c-24.1-18-48.2-36.1-72.3-54.1
			c-0.3,0.4-0.5,0.7-0.8,1.1l-0.8,1c-16.6,22.2-33.2,44.4-49.8,66.5c0.7,0.5,1.3,1,2,1.5c16.6-22.2,33.2-44.4,49.8-66.5L1068.9,136
			L1068.9,136L1068.9,136z"/>
		<path class="st0" d="M1085.3,211.4l25.7,19.2l1.6-2.2l-25.7-19.2L1085.3,211.4L1085.3,211.4z M59.9,456.6h2.7v-31h789.5
			l165.3-220.8l11.7,8.8l0.5-0.7l1.1-1.5l23.8-31.8l28.1,21l-11.4,15.2l2.2,1.6l15-20.1l-2.2-1.6l-2,2.7l-28.1-21l-2.2-1.6l-1.6,2.2
			l-23.8,31.8l-9.6-7.2l-2.2-1.6l-1.6,2.2L850.9,422.9H59.9V456.6L59.9,456.6z"/>
		<path class="st0" d="M949.1,403l-0.5-3.2l3.2-0.5L949.1,403L949.1,403z M949.5,403.2l2.8-3.7l0.5,3.2L949.5,403.2z M948.4,404.2
			c1.7,1.2,4,0.9,5.2-0.8c1.2-1.6,0.9-4-0.8-5.2c-1.6-1.2-4-0.9-5.2,0.8C946.4,400.7,946.8,403,948.4,404.2 M948.1,404.7
			c-1.9-1.4-2.3-4.1-0.9-6c1.4-1.9,4.1-2.3,6-0.9c1.9,1.4,2.3,4.1,0.9,6S950,406.1,948.1,404.7 M942.8,402.4l9,6.8l6.8-9l-9-6.8
			L942.8,402.4L942.8,402.4z"/>
		<path class="st0" d="M956.6,393l-0.5-3.2l3.2-0.5L956.6,393L956.6,393z M956.9,393.2l2.8-3.7l0.5,3.2L956.9,393.2L956.9,393.2z
			 M955.9,394.2c1.7,1.2,4,0.9,5.2-0.8c1.2-1.6,0.9-4-0.8-5.2c-1.7-1.2-4-0.9-5.2,0.8C953.9,390.7,954.3,393,955.9,394.2
			 M955.6,394.7c-1.9-1.4-2.3-4.1-0.9-6c1.4-1.9,4.1-2.3,6-0.9s2.3,4.1,0.9,6S957.5,396.1,955.6,394.7 M950.2,392.4l9,6.8l6.8-9
			l-9-6.8L950.2,392.4L950.2,392.4z"/>
		
			<rect x="927.5" y="416.5" transform="matrix(0.599 -0.8007 0.8007 0.599 35.1355 925.5533)" class="st8" width="28.4" height="22.4"/>
		
			<rect x="1052.1" y="251.3" transform="matrix(0.599 -0.8007 0.8007 0.599 217.3496 959.0308)" class="st8" width="28.4" height="22.3"/>
		<polygon class="st0" points="939,430 940,428.6 933.3,423.6 932.3,425 		"/>
		<polygon class="st0" points="940.7,427.6 941.8,426.2 935.1,421.2 934,422.7 		"/>
		<polygon class="st0" points="942.4,425.3 943.5,423.9 936.8,418.9 935.8,420.3 		"/>
		<polygon class="st0" points="944.2,423 945.2,421.6 938.6,416.6 937.5,418 		"/>
		<polygon class="st0" points="945.9,420.6 947,419.2 940.3,414.3 939.3,415.7 		"/>
		<polygon class="st0" points="947.7,418.3 948.7,416.9 942.1,411.9 941,413.3 		"/>
		
			<rect x="1059.8" y="257.4" transform="matrix(0.5996 -0.8003 0.8003 0.5996 215.3916 953.5999)" class="st0" width="1.8" height="8.3"/>
		<polygon class="st0" points="1065.2,262.5 1066.3,261 1059.6,256.1 1058.6,257.5 		"/>
		<polygon class="st0" points="1067,260.1 1068.1,258.7 1061.4,253.7 1060.3,255.1 		"/>
		<polygon class="st0" points="1068.7,257.8 1069.8,256.4 1063.1,251.4 1062.1,252.8 		"/>
		
			<rect x="1066.8" y="248.1" transform="matrix(0.5999 -0.8001 0.8001 0.5999 225.3881 955.1718)" class="st0" width="1.8" height="8.3"/>
		
			<rect x="1068.5" y="245.8" transform="matrix(0.6001 -0.7999 0.7999 0.6001 227.7063 955.3277)" class="st0" width="1.8" height="8.3"/>
		
			<rect x="1009.2" y="227.7" transform="matrix(0.5992 -0.8006 0.8006 0.5992 222.6844 902.0538)" class="st0" width="6.1" height="1.8"/>
		
			<rect x="1011.6" y="229.6" transform="matrix(0.5992 -0.8006 0.8006 0.5992 222.1981 904.7006)" class="st0" width="6.1" height="1.8"/>
		
			<rect x="1013.9" y="231.3" transform="matrix(0.5989 -0.8008 0.8008 0.5989 221.9555 907.538)" class="st0" width="6.1" height="1.8"/>
		
			<rect x="1016.2" y="233" transform="matrix(0.5994 -0.8004 0.8004 0.5994 221.0714 909.4681)" class="st0" width="6.1" height="1.8"/>
		
			<rect x="1018.5" y="234.7" transform="matrix(0.5994 -0.8004 0.8004 0.5994 220.6037 912.0416)" class="st0" width="6.1" height="1.8"/>
		
			<rect x="1020.9" y="236.5" transform="matrix(0.5989 -0.8008 0.8008 0.5989 220.5737 915.2399)" class="st0" width="6.1" height="1.8"/>
		<path class="st0" d="M257.6,450.7l-2.3,2.3l-2.3-2.3H257.6z M257.6,450.3H253l2.3-2.3L257.6,450.3z M259,450.5
			c0-2.1-1.7-3.7-3.7-3.7s-3.7,1.7-3.7,3.7s1.7,3.7,3.7,3.7C257.4,454.2,259,452.6,259,450.5 M259.6,450.5c0,2.4-1.9,4.3-4.3,4.3
			s-4.3-1.9-4.3-4.3s1.9-4.3,4.3-4.3C257.7,446.2,259.6,448.1,259.6,450.5 M260.9,444.9h-11.3v11.3h11.3V444.9z"/>
		<path class="st0" d="M245.3,450.7L243,453l-2.3-2.3H245.3z M245.3,450.3h-4.6l2.3-2.3L245.3,450.3z M246.7,450.5
			c0-2.1-1.7-3.7-3.7-3.7s-3.7,1.7-3.7,3.7s1.7,3.7,3.7,3.7S246.7,452.6,246.7,450.5 M247.3,450.5c0,2.4-1.9,4.3-4.3,4.3
			s-4.3-1.9-4.3-4.3s1.9-4.3,4.3-4.3S247.3,448.1,247.3,450.5 M248.6,444.9h-11.3v11.3h11.3V444.9z"/>
		<rect x="649.1" y="426.2" class="st8" width="34.2" height="34.2"/>
		<rect x="650.3" y="447" class="st0" width="8.7" height="2"/>
		<rect x="650.3" y="444" class="st0" width="8.7" height="2"/>
		<rect x="650.3" y="441.1" class="st0" width="8.7" height="2"/>
		<rect x="650.3" y="438.1" class="st0" width="8.7" height="2"/>
		<rect x="669.2" y="427.4" class="st0" width="2" height="8.7"/>
		<rect x="666.2" y="427.4" class="st0" width="2" height="8.7"/>
		<rect x="663.3" y="427.4" class="st0" width="2" height="8.7"/>
		<rect x="660.3" y="427.4" class="st0" width="2" height="8.7"/>
		<rect x="670" y="450.4" class="st0" width="2" height="8.7"/>
		<rect x="667.2" y="450.4" class="st0" width="2" height="8.7"/>
		<rect x="664.3" y="450.4" class="st0" width="2" height="8.7"/>
		<rect x="661.4" y="450.4" class="st0" width="2" height="8.7"/>
		<rect x="673.3" y="446.1" class="st0" width="8.7" height="2"/>
		<rect x="673.3" y="443.2" class="st0" width="8.7" height="2"/>
		<rect x="673.3" y="440.3" class="st0" width="8.7" height="2"/>
		<rect x="673.3" y="437.4" class="st0" width="8.7" height="2"/>
		<path class="st9" d="M673.4,436h8.5v-8.5h-8.5V436z M673.4,459h8.5v-8.5h-8.5V459z"/>
		<rect x="660.4" y="437.5" class="st10" width="11.5" height="11.5"/>
		<path class="st9" d="M650.4,436h8.5v-8.5h-8.5V436z M650.4,459h8.5v-8.5h-8.5V459z"/>
		<rect x="406.7" y="426.2" class="st8" width="34.2" height="34.2"/>
		<rect x="408" y="447" class="st0" width="8.7" height="2"/>
		<rect x="408" y="444" class="st0" width="8.7" height="2"/>
		<rect x="408" y="441.1" class="st0" width="8.7" height="2"/>
		<rect x="408" y="438.1" class="st0" width="8.7" height="2"/>
		<rect x="426.8" y="427.4" class="st0" width="2" height="8.7"/>
		<rect x="423.8" y="427.4" class="st0" width="2" height="8.7"/>
		<rect x="420.9" y="427.4" class="st0" width="2" height="8.7"/>
		<rect x="418" y="427.4" class="st0" width="2" height="8.7"/>
		<rect x="427.7" y="450.4" class="st0" width="2" height="8.7"/>
		<rect x="424.8" y="450.4" class="st0" width="2" height="8.7"/>
		<rect x="421.9" y="450.4" class="st0" width="2" height="8.7"/>
		<rect x="419" y="450.4" class="st0" width="2" height="8.7"/>
		<rect x="431" y="446.1" class="st0" width="8.7" height="2"/>
		<rect x="431" y="443.2" class="st0" width="8.7" height="2"/>
		<rect x="431" y="440.3" class="st0" width="8.7" height="2"/>
		<rect x="431" y="437.4" class="st0" width="8.7" height="2"/>
		<path class="st9" d="M431,436h8.5v-8.5H431V436z M431,459h8.5v-8.5H431V459z"/>
		<rect x="418" y="437.5" class="st10" width="11.5" height="11.5"/>
		<path class="st9" d="M408,436h8.5v-8.5H408V436z M408,459h8.5v-8.5H408V459z"/>
		<rect x="203.8" y="429.8" class="st8" width="28.4" height="22.4"/>
		<rect x="219.7" y="431.8" class="st0" width="1.8" height="8.3"/>
		<rect x="216.8" y="431.8" class="st0" width="1.8" height="8.3"/>
		<rect x="213.9" y="431.8" class="st0" width="1.8" height="8.3"/>
		<rect x="210.9" y="431.8" class="st0" width="1.8" height="8.3"/>
		<rect x="208" y="431.8" class="st0" width="1.8" height="8.3"/>
		<rect x="205.1" y="431.8" class="st0" width="1.8" height="8.3"/>
		<rect x="219.7" y="441.8" class="st0" width="1.8" height="8.3"/>
		<rect x="216.8" y="441.8" class="st0" width="1.8" height="8.3"/>
		<rect x="213.9" y="441.8" class="st0" width="1.8" height="8.3"/>
		<rect x="210.9" y="441.8" class="st0" width="1.8" height="8.3"/>
		<rect x="208" y="441.8" class="st0" width="1.8" height="8.3"/>
		<rect x="205.1" y="441.8" class="st0" width="1.8" height="8.3"/>
		<path class="st7" d="M16.1,517.3h3.2c24.4,0,48.8,0,73.3,0v-2.7H18.2v-89h42.5v-2.7H16.1V517.3z"/>
		<path class="st1" d="M81.7,444.8c2.1,0,3.8-1.7,3.8-3.8s-1.7-3.8-3.8-3.8s-3.8,1.7-3.8,3.8S79.6,444.8,81.7,444.8"/>
		<path class="st8" d="M79.8,441.4l0.3,0c0,0.1,0,0.2,0.1,0.2s0.1,0.1,0.2,0.1c0.1,0,0.1,0,0.2-0.1c0.1-0.1,0.1-0.2,0.1-0.3
			c0-0.1,0-0.2-0.1-0.3c-0.1-0.1-0.1-0.1-0.2-0.1c-0.1,0-0.2,0-0.2,0.1l-0.3,0l0.2-1.1h0.9v0.4h-0.6l-0.1,0.4c0.1,0,0.2-0.1,0.2-0.1
			c0.1,0,0.3,0.1,0.4,0.2c0.1,0.1,0.2,0.3,0.2,0.5c0,0.2,0,0.3-0.1,0.5c-0.1,0.2-0.3,0.3-0.5,0.3c-0.2,0-0.3,0-0.4-0.2
			C79.9,441.7,79.9,441.6,79.8,441.4"/>
		<path class="st8" d="M81.7,440.2C81.7,440.2,81.6,440.2,81.7,440.2c-0.1,0.1-0.2,0.1-0.2,0.2c0,0.1,0,0.3,0,0.5s0,0.4,0,0.5
			c0,0.1,0,0.1,0.1,0.2s0.1,0,0.1,0s0.1,0,0.1,0s0.1-0.1,0.1-0.2c0-0.1,0-0.3,0-0.5s0-0.4,0-0.5C81.8,440.3,81.8,440.3,81.7,440.2
			C81.7,440.2,81.7,440.2,81.7,440.2 M81.7,439.9c0.2,0,0.3,0.1,0.4,0.2c0.1,0.2,0.2,0.5,0.2,0.9s-0.1,0.7-0.2,0.9
			c-0.1,0.1-0.2,0.2-0.4,0.2s-0.3-0.1-0.4-0.2s-0.2-0.4-0.2-0.8s0.1-0.7,0.2-0.9C81.4,439.9,81.5,439.8,81.7,439.9"/>
		<path class="st8" d="M83.2,442h-0.3v-1.5c-0.1,0.1-0.3,0.2-0.4,0.3v-0.4c0.1,0,0.2-0.1,0.3-0.2s0.2-0.2,0.2-0.3h0.3L83.2,442
			L83.2,442z"/>
		<path class="st1" d="M116,444.8c2.1,0,3.8-1.7,3.8-3.8s-1.7-3.8-3.8-3.8s-3.8,1.7-3.8,3.8S113.9,444.8,116,444.8"/>
		<path class="st8" d="M114.1,441.4l0.3,0c0,0.1,0,0.2,0.1,0.2s0.1,0.1,0.2,0.1c0.1,0,0.1,0,0.2-0.1c0.1-0.1,0.1-0.2,0.1-0.3
			c0-0.1,0-0.2-0.1-0.3c-0.1-0.1-0.1-0.1-0.2-0.1c-0.1,0-0.2,0-0.2,0.1l-0.3,0l0.2-1.1h0.9v0.4h-0.6l-0.1,0.4c0.1,0,0.2-0.1,0.2-0.1
			c0.1,0,0.3,0.1,0.4,0.2c0.1,0.1,0.2,0.3,0.2,0.5c0,0.2,0,0.3-0.1,0.5c-0.1,0.2-0.3,0.3-0.5,0.3c-0.2,0-0.3,0-0.4-0.2
			C114.2,441.7,114.2,441.6,114.1,441.4"/>
		<path class="st8" d="M116,440.2C116,440.2,115.9,440.2,116,440.2c-0.1,0.1-0.2,0.1-0.2,0.2c0,0.1,0,0.3,0,0.5s0,0.4,0,0.5
			c0,0.1,0,0.1,0.1,0.2s0.1,0,0.1,0s0.1,0,0.1,0s0.1-0.1,0.1-0.2c0-0.1,0-0.3,0-0.5s0-0.4,0-0.5C116.1,440.3,116.1,440.3,116,440.2
			C116,440.2,116,440.2,116,440.2 M116,439.9c0.2,0,0.3,0.1,0.4,0.2c0.1,0.2,0.2,0.5,0.2,0.9s-0.1,0.7-0.2,0.9
			c-0.1,0.1-0.2,0.2-0.4,0.2s-0.3-0.1-0.4-0.2s-0.2-0.4-0.2-0.8s0.1-0.7,0.2-0.9C115.7,439.9,115.8,439.8,116,439.9"/>
		<path class="st8" d="M117.8,441.6v0.4h-1.1c0-0.1,0.1-0.3,0.1-0.4c0.1-0.1,0.2-0.3,0.4-0.5c0.2-0.2,0.2-0.3,0.3-0.3
			c0-0.1,0.1-0.2,0.1-0.2s0-0.2-0.1-0.2s-0.1-0.1-0.2-0.1s-0.1,0-0.2,0.1s-0.1,0.1-0.1,0.2l-0.3,0c0-0.2,0.1-0.4,0.2-0.5
			s0.2-0.1,0.4-0.1c0.2,0,0.3,0.1,0.4,0.2s0.1,0.2,0.1,0.4c0,0.1,0,0.2,0,0.3s-0.1,0.2-0.1,0.3c0,0.1-0.1,0.1-0.2,0.3
			s-0.2,0.2-0.2,0.2s-0.1,0.1-0.1,0.1L117.8,441.6L117.8,441.6z"/>
		<path class="st1" d="M150.3,444.8c2.1,0,3.8-1.7,3.8-3.8s-1.7-3.8-3.8-3.8s-3.8,1.7-3.8,3.8S148.2,444.8,150.3,444.8"/>
		<path class="st8" d="M148.4,441.4l0.3,0c0,0.1,0,0.2,0.1,0.2c0.1,0,0.1,0.1,0.2,0.1c0.1,0,0.1,0,0.2-0.1c0.1-0.1,0.1-0.2,0.1-0.3
			c0-0.1,0-0.2-0.1-0.3s-0.1-0.1-0.2-0.1c-0.1,0-0.2,0-0.2,0.1l-0.3,0l0.2-1.1h0.9v0.4h-0.6l-0.1,0.4c0.1,0,0.1-0.1,0.2-0.1
			c0.1,0,0.3,0.1,0.4,0.2c0.1,0.1,0.1,0.3,0.1,0.5c0,0.2,0,0.3-0.1,0.5c-0.1,0.2-0.3,0.3-0.5,0.3c-0.2,0-0.3,0-0.4-0.2
			C148.5,441.7,148.5,441.6,148.4,441.4"/>
		<path class="st8" d="M150.3,440.2c0,0-0.1,0-0.1,0s-0.1,0.1-0.1,0.2c0,0.1,0,0.3,0,0.5s0,0.4,0,0.5c0,0.1,0,0.1,0.1,0.2
			s0.1,0,0.1,0s0.1,0,0.1,0s0.1-0.1,0.1-0.2c0-0.1,0-0.3,0-0.5s0-0.4,0-0.5c0-0.1,0-0.1-0.1-0.2
			C150.4,440.2,150.3,440.2,150.3,440.2 M150.3,439.9c0.2,0,0.3,0.1,0.4,0.2c0.1,0.2,0.2,0.5,0.2,0.9s-0.1,0.7-0.2,0.9
			c-0.1,0.1-0.2,0.2-0.4,0.2s-0.3-0.1-0.4-0.2c-0.1-0.2-0.1-0.4-0.1-0.8s0.1-0.7,0.2-0.9C150,439.9,150.1,439.8,150.3,439.9"/>
		<path class="st8" d="M151,441.4l0.3,0c0,0.1,0,0.2,0.1,0.2c0,0,0.1,0.1,0.2,0.1c0.1,0,0.1,0,0.2-0.1s0.1-0.1,0.1-0.3
			c0-0.1,0-0.2-0.1-0.2c0-0.1-0.1-0.1-0.2-0.1c0,0-0.1,0-0.1,0l0-0.3c0.1,0,0.1,0,0.2-0.1c0.1,0,0.1-0.1,0.1-0.2
			c0-0.1,0-0.1-0.1-0.2s-0.1-0.1-0.1-0.1s-0.1,0-0.1,0.1s-0.1,0.1-0.1,0.2l-0.3-0.1c0-0.1,0.1-0.2,0.1-0.3s0.1-0.1,0.2-0.2
			c0.1,0,0.2-0.1,0.2-0.1c0.2,0,0.3,0.1,0.4,0.2c0.1,0.1,0.1,0.2,0.1,0.4c0,0.2-0.1,0.3-0.2,0.4c0.1,0,0.2,0.1,0.2,0.2
			c0.1,0.1,0.1,0.2,0.1,0.3c0,0.2-0.1,0.3-0.2,0.5c-0.1,0.1-0.2,0.2-0.4,0.2c-0.1,0-0.3,0-0.4-0.2C151.1,441.7,151,441.6,151,441.4"
			/>
		<path class="st2" d="M311.9,449c2.1,0,3.8-1.7,3.8-3.8s-1.7-3.8-3.8-3.8s-3.8,1.7-3.8,3.8S309.8,449,311.9,449"/>
		<path class="st8" d="M310.2,445.6l0.3,0c0,0.1,0,0.2,0.1,0.2s0.1,0.1,0.2,0.1c0.1,0,0.1,0,0.2-0.1c0-0.1,0.1-0.2,0.1-0.3
			c0-0.1,0-0.2-0.1-0.3s-0.1-0.1-0.2-0.1c-0.1,0-0.2,0-0.2,0.1l-0.3,0l0.2-1.1h0.9v0.4h-0.6l0,0.4c0.1,0,0.1-0.1,0.2-0.1
			c0.1,0,0.3,0.1,0.4,0.2s0.1,0.3,0.1,0.5c0,0.2,0,0.3-0.1,0.5c-0.1,0.2-0.3,0.3-0.5,0.3c-0.2,0-0.3,0-0.4-0.2
			C310.3,445.9,310.3,445.8,310.2,445.6"/>
		<path class="st8" d="M312.1,444.4c0,0-0.1,0-0.1,0s0,0.1-0.1,0.2c0,0.1,0,0.3,0,0.5s0,0.4,0,0.5c0,0.1,0,0.1,0.1,0.2s0.1,0,0.1,0
			s0.1,0,0.1,0s0-0.1,0.1-0.2c0-0.1,0-0.3,0-0.5s0-0.4,0-0.5c0-0.1,0-0.1-0.1-0.2C312.2,444.4,312.1,444.3,312.1,444.4 M312.1,444
			c0.2,0,0.3,0.1,0.4,0.2c0.1,0.2,0.2,0.5,0.2,0.9s-0.1,0.7-0.2,0.9c-0.1,0.1-0.2,0.2-0.4,0.2s-0.3-0.1-0.4-0.2s-0.1-0.4-0.1-0.8
			s0-0.7,0.2-0.9C311.8,444.1,312,444,312.1,444"/>
		<path class="st8" d="M313.5,445.4v-0.7l-0.4,0.7H313.5z M313.5,446.1v-0.4h-0.7v-0.4l0.7-1.3h0.3v1.3h0.2v0.4h-0.2v0.4
			L313.5,446.1L313.5,446.1z"/>
		<path class="st1" d="M364.5,449c2.1,0,3.8-1.7,3.8-3.8s-1.7-3.8-3.8-3.8s-3.8,1.7-3.8,3.8S362.4,449,364.5,449"/>
		<path class="st8" d="M362.6,445.6l0.3,0c0,0.1,0,0.2,0.1,0.2s0.1,0.1,0.2,0.1c0.1,0,0.1,0,0.2-0.1c0-0.1,0.1-0.2,0.1-0.3
			c0-0.1,0-0.2-0.1-0.3s-0.1-0.1-0.2-0.1c-0.1,0-0.2,0-0.2,0.1l-0.3,0l0.2-1.1h0.9v0.4h-0.6l0,0.4c0.1,0,0.1-0.1,0.2-0.1
			c0.1,0,0.3,0.1,0.4,0.2s0.1,0.3,0.1,0.5c0,0.2,0,0.3-0.1,0.5c-0.1,0.2-0.3,0.3-0.5,0.3c-0.2,0-0.3,0-0.4-0.2
			C362.7,445.9,362.7,445.8,362.6,445.6"/>
		<path class="st8" d="M364.5,444.4c0,0-0.1,0-0.1,0s0,0.1-0.1,0.2c0,0.1,0,0.3,0,0.5s0,0.4,0,0.5c0,0.1,0,0.1,0.1,0.2s0.1,0,0.1,0
			s0.1,0,0.1,0s0-0.1,0.1-0.2c0-0.1,0-0.3,0-0.5s0-0.4,0-0.5c0-0.1,0-0.1-0.1-0.2C364.5,444.4,364.5,444.3,364.5,444.4 M364.5,444
			c0.2,0,0.3,0.1,0.4,0.2c0.1,0.2,0.2,0.5,0.2,0.9s-0.1,0.7-0.2,0.9c-0.1,0.1-0.2,0.2-0.4,0.2s-0.3-0.1-0.4-0.2s-0.1-0.4-0.1-0.8
			s0-0.7,0.2-0.9C364.2,444.1,364.3,444,364.5,444"/>
		<path class="st8" d="M365.2,445.6l0.3,0c0,0.1,0,0.2,0.1,0.2s0.1,0.1,0.2,0.1c0.1,0,0.1,0,0.2-0.1s0.1-0.2,0.1-0.3
			c0-0.1,0-0.2-0.1-0.3s-0.1-0.1-0.2-0.1c-0.1,0-0.2,0-0.2,0.1l-0.3,0l0.2-1.1h0.9v0.4h-0.6l0,0.4c0.1,0,0.1-0.1,0.2-0.1
			c0.1,0,0.3,0.1,0.4,0.2s0.1,0.3,0.1,0.5c0,0.2,0,0.3-0.1,0.5c-0.1,0.2-0.3,0.3-0.5,0.3c-0.2,0-0.3,0-0.4-0.2
			C365.3,445.9,365.2,445.8,365.2,445.6"/>
		<path class="st2" d="M457,449c2.1,0,3.8-1.7,3.8-3.8s-1.7-3.8-3.8-3.8s-3.8,1.7-3.8,3.8S454.9,449,457,449"/>
		<path class="st8" d="M455.1,445.6l0.3,0c0,0.1,0,0.2,0.1,0.2s0.1,0.1,0.2,0.1c0.1,0,0.1,0,0.2-0.1c0-0.1,0.1-0.2,0.1-0.3
			c0-0.1,0-0.2-0.1-0.3s-0.1-0.1-0.2-0.1c-0.1,0-0.2,0-0.2,0.1l-0.3,0l0.2-1.1h0.9v0.4h-0.6l0,0.4c0.1,0,0.1-0.1,0.2-0.1
			c0.1,0,0.3,0.1,0.4,0.2s0.1,0.3,0.1,0.5c0,0.2,0,0.3-0.1,0.5c-0.1,0.2-0.3,0.3-0.5,0.3c-0.2,0-0.3,0-0.4-0.2
			C455.2,445.9,455.1,445.8,455.1,445.6"/>
		<path class="st8" d="M457,444.4c0,0-0.1,0-0.1,0s0,0.1-0.1,0.2c0,0.1,0,0.3,0,0.5s0,0.4,0,0.5c0,0.1,0,0.1,0.1,0.2s0.1,0,0.1,0
			s0.1,0,0.1,0s0-0.1,0.1-0.2c0-0.1,0-0.3,0-0.5s0-0.4,0-0.5c0-0.1,0-0.1-0.1-0.2S457,444.3,457,444.4 M457,444
			c0.2,0,0.3,0.1,0.4,0.2c0.1,0.2,0.2,0.5,0.2,0.9s0,0.7-0.2,0.9c-0.1,0.1-0.2,0.2-0.4,0.2s-0.3-0.1-0.4-0.2s-0.1-0.4-0.1-0.8
			s0.1-0.7,0.2-0.9C456.7,444.1,456.8,444,457,444"/>
		<path class="st8" d="M458.1,445.4c0,0.1,0,0.2,0.1,0.3c0,0.1,0.1,0.1,0.2,0.1s0.1,0,0.1-0.1s0.1-0.1,0.1-0.3s0-0.2-0.1-0.3
			c0-0.1-0.1-0.1-0.2-0.1s-0.1,0-0.2,0.1S458.1,445.3,458.1,445.4 M458.8,444.5l-0.3,0c0-0.1,0-0.1-0.1-0.2c0,0-0.1-0.1-0.1-0.1
			c-0.1,0-0.1,0-0.2,0.1c0,0.1-0.1,0.2-0.1,0.5c0.1-0.1,0.2-0.2,0.3-0.2c0.1,0,0.2,0.1,0.4,0.2s0.1,0.3,0.1,0.5s0,0.4-0.1,0.5
			c-0.1,0.1-0.2,0.2-0.4,0.2c-0.2,0-0.3-0.1-0.4-0.2c-0.1-0.2-0.2-0.4-0.2-0.8s0.1-0.7,0.2-0.8c0.1-0.2,0.3-0.3,0.5-0.3
			c0.1,0,0.2,0,0.3,0.1C458.7,444.2,458.8,444.4,458.8,444.5"/>
		<path class="st2" d="M499.2,449c2.1,0,3.8-1.7,3.8-3.8s-1.7-3.8-3.8-3.8s-3.8,1.7-3.8,3.8S497.1,449,499.2,449"/>
		<path class="st8" d="M497.3,445.6l0.3,0c0,0.1,0,0.2,0.1,0.2s0.1,0.1,0.2,0.1c0.1,0,0.1,0,0.2-0.1s0.1-0.2,0.1-0.3
			c0-0.1,0-0.2-0.1-0.3s-0.1-0.1-0.2-0.1c-0.1,0-0.2,0-0.2,0.1l-0.3,0l0.2-1.1h0.9v0.4h-0.6l0,0.4c0.1,0,0.1-0.1,0.2-0.1
			c0.1,0,0.3,0.1,0.4,0.2s0.1,0.3,0.1,0.5c0,0.2,0,0.3-0.1,0.5c-0.1,0.2-0.3,0.3-0.5,0.3c-0.2,0-0.3,0-0.4-0.2
			C497.4,445.9,497.4,445.8,497.3,445.6"/>
		<path class="st8" d="M499.2,444.4c0,0-0.1,0-0.1,0s0,0.1-0.1,0.2c0,0.1,0,0.3,0,0.5s0,0.4,0,0.5c0,0.1,0,0.1,0.1,0.2s0.1,0,0.1,0
			s0.1,0,0.1,0s0-0.1,0.1-0.2c0-0.1,0-0.3,0-0.5s0-0.4,0-0.5c0-0.1,0-0.1-0.1-0.2C499.2,444.4,499.2,444.3,499.2,444.4 M499.2,444
			c0.2,0,0.3,0.1,0.4,0.2c0.1,0.2,0.2,0.5,0.2,0.9s-0.1,0.7-0.2,0.9c-0.1,0.1-0.2,0.2-0.4,0.2s-0.3-0.1-0.4-0.2s-0.1-0.4-0.1-0.8
			s0.1-0.7,0.2-0.9C498.9,444.1,499,444,499.2,444"/>
		<path class="st8" d="M499.9,444.4v-0.4h1.1v0.3c-0.1,0.1-0.2,0.3-0.3,0.5c-0.1,0.2-0.2,0.4-0.2,0.7c0,0.2-0.1,0.5-0.1,0.6h-0.3
			c0-0.3,0-0.6,0.1-0.9c0.1-0.3,0.2-0.6,0.4-0.8L499.9,444.4L499.9,444.4z"/>
		<path class="st2" d="M535,449c2.1,0,3.8-1.7,3.8-3.8s-1.7-3.8-3.8-3.8s-3.8,1.7-3.8,3.8S532.8,449,535,449"/>
		<path class="st8" d="M533.1,445.6l0.3,0c0,0.1,0,0.2,0.1,0.2c0,0,0.1,0.1,0.2,0.1c0.1,0,0.1,0,0.2-0.1c0-0.1,0.1-0.2,0.1-0.3
			c0-0.1,0-0.2-0.1-0.3s-0.1-0.1-0.2-0.1c-0.1,0-0.2,0-0.2,0.1l-0.3,0l0.2-1.1h0.9v0.4h-0.6l0,0.4c0.1,0,0.2-0.1,0.2-0.1
			c0.2,0,0.3,0.1,0.4,0.2s0.2,0.3,0.2,0.5c0,0.2,0,0.3-0.1,0.5c-0.1,0.2-0.3,0.3-0.5,0.3c-0.2,0-0.3,0-0.4-0.2
			C533.2,445.9,533.1,445.8,533.1,445.6"/>
		<path class="st8" d="M534.9,444.4C534.9,444.4,534.8,444.4,534.9,444.4c-0.1,0.1-0.1,0.1-0.2,0.2c0,0.1,0,0.3,0,0.5s0,0.4,0,0.5
			c0,0.1,0,0.1,0.1,0.2c0,0,0.1,0,0.1,0s0.1,0,0.1,0c0,0,0-0.1,0.1-0.2c0-0.1,0-0.3,0-0.5s0-0.4,0-0.5
			C535.1,444.5,535.1,444.4,534.9,444.4C535,444.4,535,444.3,534.9,444.4 M534.9,444c0.2,0,0.3,0.1,0.4,0.2c0.1,0.2,0.2,0.5,0.2,0.9
			s-0.1,0.7-0.2,0.9c-0.1,0.1-0.2,0.2-0.4,0.2s-0.3-0.1-0.4-0.2c-0.1-0.2-0.2-0.4-0.2-0.8s0.1-0.7,0.2-0.9
			C534.6,444.1,534.8,444,534.9,444"/>
		<path class="st8" d="M536,445.5c0,0.1,0,0.2,0.1,0.3s0.1,0.1,0.2,0.1s0.1,0,0.2-0.1s0.1-0.1,0.1-0.3c0-0.1,0-0.2-0.1-0.2
			s-0.1-0.1-0.2-0.1c-0.1,0-0.1,0-0.2,0.1S536,445.4,536,445.5 M536,444.6c0,0.1,0,0.1,0,0.2c0,0,0.1,0.1,0.2,0.1s0.1,0,0.2-0.1
			c0,0,0-0.1,0-0.2s0-0.1,0-0.2c0,0-0.1-0.1-0.2-0.1s-0.1,0-0.2,0.1C536,444.5,536,444.5,536,444.6 M535.9,445
			c-0.1,0-0.2-0.1-0.2-0.2c0-0.1-0.1-0.2-0.1-0.2c0-0.2,0-0.3,0.1-0.4s0.2-0.1,0.4-0.1s0.3,0,0.4,0.1s0.1,0.2,0.1,0.4
			c0,0.1,0,0.2-0.1,0.3c0,0.1-0.1,0.1-0.2,0.2c0.1,0,0.2,0.1,0.2,0.2s0.1,0.2,0.1,0.3c0,0.2,0,0.4-0.2,0.5c-0.1,0.1-0.2,0.2-0.4,0.2
			c-0.2,0-0.3,0-0.4-0.1c-0.1-0.1-0.2-0.3-0.2-0.5c0-0.1,0-0.2,0.1-0.3C535.8,445.1,535.8,445,535.9,445"/>
		<path class="st2" d="M560.3,449c2.1,0,3.8-1.7,3.8-3.8s-1.7-3.8-3.8-3.8s-3.8,1.7-3.8,3.8S558.2,449,560.3,449"/>
		<path class="st8" d="M558.4,445.6l0.3,0c0,0.1,0,0.2,0.1,0.2c0,0,0.1,0.1,0.2,0.1c0.1,0,0.1,0,0.2-0.1s0.1-0.2,0.1-0.3
			c0-0.1,0-0.2-0.1-0.3s-0.1-0.1-0.2-0.1c-0.1,0-0.2,0-0.2,0.1l-0.3,0l0.2-1.1h0.9v0.4h-0.6l0,0.4c0.1,0,0.2-0.1,0.2-0.1
			c0.2,0,0.3,0.1,0.4,0.2s0.2,0.3,0.2,0.5c0,0.2,0,0.3-0.1,0.5c-0.1,0.2-0.3,0.3-0.5,0.3c-0.2,0-0.3,0-0.4-0.2
			C558.5,445.9,558.5,445.8,558.4,445.6"/>
		<path class="st8" d="M560.3,444.4C560.3,444.4,560.2,444.4,560.3,444.4c-0.1,0.1-0.1,0.1-0.2,0.2c0,0.1,0,0.3,0,0.5s0,0.4,0,0.5
			c0,0.1,0,0.1,0.1,0.2c0,0,0.1,0,0.1,0s0.1,0,0.1,0c0,0,0-0.1,0.1-0.2c0-0.1,0-0.3,0-0.5s0-0.4,0-0.5
			C560.4,444.5,560.4,444.4,560.3,444.4C560.4,444.4,560.3,444.3,560.3,444.4 M560.3,444c0.2,0,0.3,0.1,0.4,0.2
			c0.1,0.2,0.2,0.5,0.2,0.9s0,0.7-0.2,0.9c-0.1,0.1-0.2,0.2-0.4,0.2s-0.3-0.1-0.4-0.2c-0.1-0.2-0.2-0.4-0.2-0.8s0.1-0.7,0.2-0.9
			C560,444.1,560.1,444,560.3,444"/>
		<path class="st8" d="M561.8,444.8c0-0.1,0-0.2-0.1-0.3c0-0.1-0.1-0.1-0.2-0.1s-0.1,0-0.2,0.1c0,0.1-0.1,0.1-0.1,0.3s0,0.2,0.1,0.3
			c0,0.1,0.1,0.1,0.2,0.1s0.1,0,0.2-0.1C561.8,445,561.8,444.9,561.8,444.8 M561,445.7l0.3,0c0,0.1,0,0.1,0.1,0.2
			c0,0,0.1,0.1,0.1,0.1c0.1,0,0.1,0,0.2-0.1s0.1-0.2,0.1-0.5c-0.1,0.1-0.2,0.2-0.3,0.2s-0.2-0.1-0.3-0.2s-0.2-0.3-0.2-0.5
			s0-0.4,0.2-0.5c0.1-0.1,0.2-0.2,0.4-0.2c0.2,0,0.3,0.1,0.4,0.2s0.2,0.4,0.2,0.8s-0.1,0.7-0.2,0.8c-0.1,0.2-0.3,0.3-0.5,0.3
			c-0.1,0-0.2,0-0.3-0.1S561.1,445.8,561,445.7"/>
		<path class="st2" d="M585.6,449c2.1,0,3.8-1.7,3.8-3.8s-1.7-3.8-3.8-3.8s-3.8,1.7-3.8,3.8S583.5,449,585.6,449"/>
		<path class="st8" d="M583.8,445.6l0.3,0c0,0.1,0,0.2,0.1,0.2c0,0,0.1,0.1,0.2,0.1c0.1,0,0.1,0,0.2-0.1c0-0.1,0.1-0.2,0.1-0.3
			c0-0.1,0-0.2-0.1-0.3s-0.1-0.1-0.2-0.1c-0.1,0-0.2,0-0.2,0.1l-0.3,0l0.2-1.1h0.9v0.4h-0.6l0,0.4c0.1,0,0.2-0.1,0.2-0.1
			c0.2,0,0.3,0.1,0.4,0.2s0.2,0.3,0.2,0.5c0,0.2,0,0.3-0.1,0.5c-0.1,0.2-0.3,0.3-0.5,0.3c-0.2,0-0.3,0-0.4-0.2
			C583.9,445.9,583.8,445.8,583.8,445.6"/>
		<path class="st8" d="M585.9,446.1h-0.3v-1.5c-0.1,0.1-0.3,0.2-0.4,0.3v-0.4c0.1,0,0.2-0.1,0.3-0.2c0.1-0.1,0.2-0.2,0.2-0.3h0.3
			L585.9,446.1L585.9,446.1z"/>
		<path class="st8" d="M586.9,444.4C586.9,444.4,586.8,444.4,586.9,444.4c-0.1,0.1-0.1,0.1-0.2,0.2c0,0.1,0,0.3,0,0.5s0,0.4,0,0.5
			c0,0.1,0,0.1,0.1,0.2c0,0,0.1,0,0.1,0s0.1,0,0.1,0c0,0,0-0.1,0.1-0.2c0-0.1,0-0.3,0-0.5s0-0.4,0-0.5
			C587.1,444.5,587,444.4,586.9,444.4C587,444.4,586.9,444.3,586.9,444.4 M586.9,444c0.2,0,0.3,0.1,0.4,0.2c0.1,0.2,0.2,0.5,0.2,0.9
			s-0.1,0.7-0.2,0.9c-0.1,0.1-0.2,0.2-0.4,0.2s-0.3-0.1-0.4-0.2c-0.1-0.2-0.2-0.4-0.2-0.8s0.1-0.7,0.2-0.9
			C586.6,444.1,586.7,444,586.9,444"/>
		<path class="st2" d="M603.3,449c2.1,0,3.8-1.7,3.8-3.8s-1.7-3.8-3.8-3.8s-3.8,1.7-3.8,3.8S601.2,449,603.3,449"/>
		<path class="st8" d="M601.3,445.8h0.3c0.1,0,0.2,0,0.2,0c0,0,0.1,0,0.1-0.1s0-0.1,0-0.2c0-0.1,0-0.2-0.1-0.2
			c-0.1,0-0.2-0.1-0.3-0.1h-0.3L601.3,445.8L601.3,445.8z M600.9,444h1.3v0.4h-0.9v0.5h0.5c0.1,0,0.2,0,0.3,0.1s0.2,0.1,0.2,0.2
			s0.1,0.2,0.1,0.4s0,0.3-0.1,0.4c-0.1,0.1-0.1,0.2-0.2,0.2c-0.1,0-0.2,0.1-0.3,0.1h-0.8L600.9,444L600.9,444z"/>
		<polygon class="st8" points="602.6,446.1 602.6,444 602.9,444 602.9,444.9 603.6,444.9 603.6,444 604,444 604,446.1 603.6,446.1 
			603.6,445.2 602.9,445.2 602.9,446.1 		"/>
		<path class="st8" d="M605.4,445.4l0.3,0.1c0,0.2-0.1,0.4-0.3,0.5c-0.1,0.1-0.3,0.2-0.5,0.2c-0.2,0-0.4-0.1-0.6-0.3
			s-0.2-0.5-0.2-0.8c0-0.4,0.1-0.6,0.2-0.8c0.2-0.2,0.3-0.3,0.6-0.3c0.2,0,0.4,0.1,0.5,0.2c0.1,0.1,0.1,0.2,0.2,0.4l-0.3,0.1
			c0-0.1-0.1-0.2-0.1-0.3c-0.1-0.1-0.1-0.1-0.2-0.1c-0.1,0-0.2,0.1-0.3,0.2c-0.1,0.1-0.1,0.3-0.1,0.5c0,0.3,0,0.5,0.1,0.6
			c0.1,0.1,0.2,0.2,0.3,0.2c0.1,0,0.2,0,0.2-0.1S605.3,445.5,605.4,445.4"/>
		<path class="st2" d="M699.6,449c2.1,0,3.8-1.7,3.8-3.8s-1.7-3.8-3.8-3.8s-3.8,1.7-3.8,3.8S697.5,449,699.6,449"/>
		<path class="st8" d="M697.8,445.6l0.3,0c0,0.1,0,0.2,0.1,0.2c0,0,0.1,0.1,0.2,0.1c0.1,0,0.1,0,0.2-0.1s0.1-0.2,0.1-0.3
			c0-0.1,0-0.2-0.1-0.3s-0.1-0.1-0.2-0.1c-0.1,0-0.2,0-0.2,0.1l-0.3,0l0.2-1.1h0.9v0.4h-0.6l0,0.4c0.1,0,0.2-0.1,0.2-0.1
			c0.2,0,0.3,0.1,0.4,0.2s0.2,0.3,0.2,0.5c0,0.2,0,0.3-0.1,0.5c-0.1,0.2-0.3,0.3-0.5,0.3c-0.2,0-0.3,0-0.4-0.2
			C697.9,445.9,697.8,445.8,697.8,445.6"/>
		<path class="st8" d="M699.9,446.1h-0.3v-1.5c-0.1,0.1-0.3,0.2-0.4,0.3v-0.4c0.1,0,0.2-0.1,0.3-0.2c0.1-0.1,0.2-0.2,0.2-0.3h0.3
			L699.9,446.1L699.9,446.1z"/>
		<path class="st8" d="M701.1,446.1h-0.3v-1.5c-0.1,0.1-0.3,0.2-0.4,0.3v-0.4c0.1,0,0.2-0.1,0.3-0.2c0.1-0.1,0.2-0.2,0.2-0.3h0.3
			L701.1,446.1L701.1,446.1z"/>
		<path class="st1" d="M733.1,449c2.1,0,3.8-1.7,3.8-3.8s-1.7-3.8-3.8-3.8s-3.8,1.7-3.8,3.8S731,449,733.1,449"/>
		<path class="st8" d="M731.2,445.6l0.3,0c0,0.1,0,0.2,0.1,0.2c0,0,0.1,0.1,0.2,0.1c0.1,0,0.1,0,0.2-0.1c0-0.1,0.1-0.2,0.1-0.3
			c0-0.1,0-0.2-0.1-0.3s-0.1-0.1-0.2-0.1c-0.1,0-0.2,0-0.2,0.1l-0.3,0l0.2-1.1h0.9v0.4h-0.6l0,0.4c0.1,0,0.2-0.1,0.2-0.1
			c0.2,0,0.3,0.1,0.4,0.2s0.2,0.3,0.2,0.5c0,0.2,0,0.3-0.1,0.5c-0.1,0.2-0.3,0.3-0.5,0.3c-0.2,0-0.3,0-0.4-0.2
			C731.3,445.9,731.3,445.8,731.2,445.6"/>
		<path class="st8" d="M733.3,446.1H733v-1.5c-0.1,0.1-0.3,0.2-0.4,0.3v-0.4c0.1,0,0.2-0.1,0.3-0.2c0.1-0.1,0.2-0.2,0.2-0.3h0.3
			L733.3,446.1L733.3,446.1z"/>
		<path class="st8" d="M734.9,445.8v0.4h-1.1c0-0.1,0-0.3,0.1-0.4c0.1-0.1,0.2-0.3,0.4-0.5c0.2-0.2,0.2-0.3,0.3-0.3
			c0-0.1,0.1-0.2,0.1-0.2s0-0.2-0.1-0.2s-0.1-0.1-0.2-0.1s-0.1,0-0.2,0.1s-0.1,0.1-0.1,0.2l-0.3,0c0-0.2,0.1-0.4,0.2-0.5
			s0.2-0.1,0.4-0.1c0.2,0,0.3,0.1,0.4,0.2s0.1,0.2,0.1,0.4c0,0.1,0,0.2,0,0.3c0,0.1-0.1,0.2-0.1,0.3c0,0.1-0.1,0.1-0.2,0.3
			c-0.1,0.1-0.2,0.2-0.2,0.2s0,0.1-0.1,0.1L734.9,445.8L734.9,445.8z"/>
		<path class="st1" d="M767,449c2.1,0,3.8-1.7,3.8-3.8s-1.7-3.8-3.8-3.8s-3.8,1.7-3.8,3.8S764.9,449,767,449"/>
		<path class="st8" d="M765.1,445.6l0.3,0c0,0.1,0,0.2,0.1,0.2c0,0,0.1,0.1,0.2,0.1c0.1,0,0.1,0,0.2-0.1c0-0.1,0.1-0.2,0.1-0.3
			c0-0.1,0-0.2-0.1-0.3s-0.1-0.1-0.2-0.1c-0.1,0-0.2,0-0.2,0.1l-0.3,0l0.2-1.1h0.9v0.4h-0.6l0,0.4c0.1,0,0.2-0.1,0.2-0.1
			c0.2,0,0.3,0.1,0.4,0.2s0.2,0.3,0.2,0.5c0,0.2,0,0.3-0.1,0.5c-0.1,0.2-0.3,0.3-0.5,0.3c-0.2,0-0.3,0-0.4-0.2
			C765.2,445.9,765.1,445.8,765.1,445.6"/>
		<path class="st8" d="M767.2,446.1h-0.3v-1.5c-0.1,0.1-0.3,0.2-0.4,0.3v-0.4c0.1,0,0.2-0.1,0.3-0.2c0.1-0.1,0.2-0.2,0.2-0.3h0.3
			L767.2,446.1L767.2,446.1z"/>
		<path class="st8" d="M767.7,445.6l0.3,0c0,0.1,0,0.2,0.1,0.2c0,0,0.1,0.1,0.2,0.1c0.1,0,0.1,0,0.2-0.1s0.1-0.1,0.1-0.3
			c0-0.1,0-0.2-0.1-0.2c0-0.1-0.1-0.1-0.2-0.1c0,0-0.1,0-0.2,0l0-0.3c0.1,0,0.2,0,0.2-0.1c0,0,0.1-0.1,0.1-0.2c0-0.1,0-0.1,0-0.2
			c0,0-0.1-0.1-0.1-0.1s-0.1,0-0.1,0.1s-0.1,0.1-0.1,0.2l-0.3-0.1c0-0.1,0-0.2,0.1-0.3c0-0.1,0.1-0.1,0.2-0.2c0.1,0,0.2-0.1,0.2-0.1
			c0.2,0,0.3,0.1,0.4,0.2c0.1,0.1,0.1,0.2,0.1,0.4c0,0.2-0.1,0.3-0.2,0.4c0.1,0,0.2,0.1,0.2,0.2c0.1,0.1,0.1,0.2,0.1,0.3
			c0,0.2,0,0.3-0.2,0.5s-0.2,0.2-0.4,0.2c-0.2,0-0.3,0-0.4-0.2C767.8,445.9,767.7,445.7,767.7,445.6"/>
		<path class="st2" d="M817.1,449c2.1,0,3.8-1.7,3.8-3.8s-1.7-3.8-3.8-3.8s-3.8,1.7-3.8,3.8S815,449,817.1,449"/>
		<path class="st8" d="M815.2,445.6l0.3,0c0,0.1,0,0.2,0.1,0.2c0,0,0.1,0.1,0.2,0.1c0.1,0,0.1,0,0.2-0.1c0-0.1,0.1-0.2,0.1-0.3
			c0-0.1,0-0.2-0.1-0.3s-0.1-0.1-0.2-0.1c-0.1,0-0.2,0-0.2,0.1l-0.3,0l0.2-1.1h0.9v0.4h-0.6l0,0.4c0.1,0,0.2-0.1,0.2-0.1
			c0.2,0,0.3,0.1,0.4,0.2s0.2,0.3,0.2,0.5c0,0.2,0,0.3-0.1,0.5c-0.1,0.2-0.3,0.3-0.5,0.3c-0.2,0-0.3,0-0.4-0.2
			C815.3,445.9,815.3,445.8,815.2,445.6"/>
		<path class="st8" d="M817.3,446.1H817v-1.5c-0.1,0.1-0.3,0.2-0.4,0.3v-0.4c0.1,0,0.2-0.1,0.3-0.2c0.1-0.1,0.2-0.2,0.2-0.3h0.3
			L817.3,446.1L817.3,446.1z"/>
		<path class="st8" d="M818.5,445.4v-0.7l-0.4,0.7H818.5z M818.5,446.1v-0.4h-0.7v-0.4l0.7-1.3h0.3v1.3h0.2v0.4h-0.2v0.4
			L818.5,446.1L818.5,446.1z"/>
		<path class="st1" d="M885.7,423.3c2.1,0,3.8-1.7,3.8-3.8s-1.7-3.8-3.8-3.8s-3.8,1.7-3.8,3.8S883.6,423.3,885.7,423.3"/>
		<path class="st8" d="M883.8,419.9l0.3,0c0,0.1,0,0.2,0.1,0.2c0,0,0.1,0.1,0.2,0.1c0.1,0,0.1,0,0.2-0.1c0-0.1,0.1-0.2,0.1-0.3
			c0-0.1,0-0.2-0.1-0.3s-0.1-0.1-0.2-0.1c-0.1,0-0.2,0-0.2,0.1l-0.3,0l0.2-1.1h0.9v0.4h-0.6l0,0.4c0.1,0,0.2-0.1,0.2-0.1
			c0.2,0,0.3,0.1,0.4,0.2s0.2,0.3,0.2,0.5c0,0.2,0,0.3-0.1,0.5c-0.1,0.2-0.3,0.3-0.5,0.3c-0.2,0-0.3,0-0.4-0.2
			C883.9,420.2,883.9,420,883.8,419.9"/>
		<path class="st8" d="M886,420.4h-0.3v-1.5c-0.1,0.1-0.3,0.2-0.4,0.3v-0.4c0.1,0,0.2-0.1,0.3-0.2c0.1-0.1,0.2-0.2,0.2-0.3h0.3
			L886,420.4L886,420.4z"/>
		<path class="st8" d="M886.4,419.9l0.3,0c0,0.1,0,0.2,0.1,0.2c0,0,0.1,0.1,0.2,0.1c0.1,0,0.1,0,0.2-0.1c0-0.1,0.1-0.2,0.1-0.3
			c0-0.1,0-0.2-0.1-0.3s-0.1-0.1-0.2-0.1c-0.1,0-0.2,0-0.2,0.1l-0.3,0l0.2-1.1h0.9v0.4h-0.6l0,0.4c0.1,0,0.2-0.1,0.2-0.1
			c0.2,0,0.3,0.1,0.4,0.2s0.2,0.3,0.2,0.5c0,0.2,0,0.3-0.1,0.5c-0.1,0.2-0.3,0.3-0.5,0.3c-0.2,0-0.3,0-0.4-0.2
			C886.5,420.2,886.5,420,886.4,419.9"/>
		<path class="st1" d="M899,400.8c2.1,0,3.8-1.7,3.8-3.8s-1.7-3.8-3.8-3.8s-3.8,1.7-3.8,3.8S896.9,400.8,899,400.8"/>
		<path class="st8" d="M896.3,397.4l0.3,0c0,0.1,0,0.2,0.1,0.2c0,0,0.1,0.1,0.2,0.1c0.1,0,0.1,0,0.2-0.1s0.1-0.2,0.1-0.3
			c0-0.1,0-0.2-0.1-0.3s-0.1-0.1-0.2-0.1c-0.1,0-0.2,0-0.2,0.1l-0.3,0l0.2-1.1h0.9v0.4h-0.6l0,0.4c0.1,0,0.2-0.1,0.2-0.1
			c0.2,0,0.3,0.1,0.4,0.2s0.2,0.3,0.2,0.5c0,0.2,0,0.3-0.1,0.5c-0.1,0.2-0.3,0.3-0.5,0.3c-0.2,0-0.3,0-0.4-0.2
			C896.4,397.7,896.3,397.5,896.3,397.4"/>
		<path class="st8" d="M898.4,397.9h-0.3v-1.5c-0.1,0.1-0.3,0.2-0.4,0.3v-0.4c0.1,0,0.2-0.1,0.3-0.2c0.1-0.1,0.2-0.2,0.2-0.3h0.3
			L898.4,397.9L898.4,397.9z"/>
		<path class="st8" d="M898.9,397.4l0.3,0c0,0.1,0,0.2,0.1,0.2c0,0,0.1,0.1,0.2,0.1c0.1,0,0.1,0,0.2-0.1s0.1-0.2,0.1-0.3
			c0-0.1,0-0.2-0.1-0.3s-0.1-0.1-0.2-0.1c-0.1,0-0.2,0-0.2,0.1l-0.3,0l0.2-1.1h0.9v0.4h-0.6l0,0.4c0.1,0,0.2-0.1,0.2-0.1
			c0.2,0,0.3,0.1,0.4,0.2s0.2,0.3,0.2,0.5c0,0.2,0,0.3-0.1,0.5c-0.1,0.2-0.3,0.3-0.5,0.3c-0.2,0-0.3,0-0.4-0.2
			C899,397.7,898.9,397.5,898.9,397.4"/>
		<path class="st8" d="M901.2,397.1l-0.2-0.8l-0.2,0.8H901.2z M901.8,397.9h-0.4l-0.2-0.5h-0.7l-0.1,0.5h-0.4l0.7-2.1h0.4
			L901.8,397.9L901.8,397.9z"/>
		<path class="st1" d="M926.5,364.8c2.1,0,3.8-1.7,3.8-3.8s-1.7-3.8-3.8-3.8s-3.8,1.7-3.8,3.8S924.4,364.8,926.5,364.8"/>
		<path class="st8" d="M924.6,361.4l0.3,0c0,0.1,0,0.2,0.1,0.2c0,0,0.1,0.1,0.2,0.1c0.1,0,0.1,0,0.2-0.1c0-0.1,0.1-0.2,0.1-0.3
			c0-0.1,0-0.2-0.1-0.3s-0.1-0.1-0.2-0.1c-0.1,0-0.2,0-0.2,0.1l-0.3,0l0.2-1.1h0.9v0.4H925l0,0.4c0.1,0,0.2-0.1,0.2-0.1
			c0.2,0,0.3,0.1,0.4,0.2s0.2,0.3,0.2,0.5c0,0.2,0,0.3-0.1,0.5c-0.1,0.2-0.3,0.3-0.5,0.3c-0.2,0-0.3,0-0.4-0.2
			C924.7,361.7,924.6,361.6,924.6,361.4"/>
		<path class="st8" d="M926.7,361.9h-0.3v-1.5c-0.1,0.1-0.3,0.2-0.4,0.3v-0.4c0.1,0,0.2-0.1,0.3-0.2c0.1-0.1,0.2-0.2,0.2-0.3h0.3
			L926.7,361.9L926.7,361.9z"/>
		<path class="st8" d="M927.5,361.2c0,0.1,0,0.2,0.1,0.3c0,0.1,0.1,0.1,0.2,0.1s0.1,0,0.2-0.1c0-0.1,0.1-0.1,0.1-0.3s0-0.2-0.1-0.3
			c0-0.1-0.1-0.1-0.2-0.1s-0.1,0-0.2,0.1C927.6,361,927.5,361.1,927.5,361.2 M928.3,360.3l-0.3,0c0-0.1,0-0.1-0.1-0.2
			c0,0-0.1-0.1-0.1-0.1c-0.1,0-0.1,0-0.2,0.1c0,0.1-0.1,0.2-0.1,0.5c0.1-0.1,0.2-0.2,0.3-0.2c0.1,0,0.2,0.1,0.3,0.2s0.1,0.3,0.1,0.5
			s0,0.4-0.2,0.5c-0.1,0.1-0.2,0.2-0.4,0.2c-0.2,0-0.3-0.1-0.4-0.2c-0.1-0.2-0.2-0.4-0.2-0.8s0.1-0.7,0.2-0.8
			c0.1-0.2,0.3-0.2,0.5-0.2c0.1,0,0.2,0,0.3,0.1C928.2,360,928.2,360.1,928.3,360.3"/>
		<path class="st1" d="M937.3,351.1c2.1,0,3.8-1.7,3.8-3.8s-1.7-3.8-3.8-3.8s-3.8,1.7-3.8,3.8S935.2,351.1,937.3,351.1"/>
		<path class="st8" d="M935.4,347.7l0.3,0c0,0.1,0,0.2,0.1,0.2c0,0,0.1,0.1,0.2,0.1c0.1,0,0.1,0,0.2-0.1c0-0.1,0.1-0.2,0.1-0.3
			c0-0.1,0-0.2-0.1-0.3s-0.1-0.1-0.2-0.1c-0.1,0-0.2,0-0.2,0.1l-0.3,0l0.2-1.1h0.9v0.4h-0.6l0,0.4c0.1,0,0.2-0.1,0.2-0.1
			c0.2,0,0.3,0.1,0.4,0.2s0.2,0.3,0.2,0.5c0,0.2,0,0.3-0.1,0.5c-0.1,0.2-0.3,0.3-0.5,0.3c-0.2,0-0.3,0-0.4-0.2
			C935.5,348,935.4,347.8,935.4,347.7"/>
		<path class="st8" d="M937.5,348.2h-0.3v-1.5c-0.1,0.1-0.3,0.2-0.4,0.3v-0.4c0.1,0,0.2-0.1,0.3-0.2c0.1-0.1,0.2-0.2,0.2-0.3h0.3
			L937.5,348.2L937.5,348.2z"/>
		<path class="st8" d="M938,346.5v-0.4h1.1v0.3c-0.1,0.1-0.2,0.3-0.3,0.5c-0.1,0.2-0.2,0.4-0.2,0.7c0,0.2-0.1,0.5-0.1,0.6h-0.3
			c0-0.3,0-0.6,0.2-0.9c0.1-0.3,0.2-0.6,0.4-0.8L938,346.5L938,346.5z"/>
		<path class="st1" d="M953.1,324.5c2.1,0,3.8-1.7,3.8-3.8s-1.7-3.8-3.8-3.8s-3.8,1.7-3.8,3.8S951,324.5,953.1,324.5"/>
		<path class="st8" d="M951.2,321.1l0.3,0c0,0.1,0,0.2,0.1,0.2c0,0,0.1,0.1,0.2,0.1c0.1,0,0.1,0,0.2-0.1c0-0.1,0.1-0.2,0.1-0.3
			c0-0.1,0-0.2-0.1-0.3s-0.1-0.1-0.2-0.1c-0.1,0-0.2,0-0.2,0.1l-0.3,0l0.2-1.1h0.9v0.4h-0.6l0,0.4c0.1,0,0.2-0.1,0.2-0.1
			c0.2,0,0.3,0.1,0.4,0.2s0.2,0.3,0.2,0.5c0,0.2,0,0.3-0.1,0.5c-0.1,0.2-0.3,0.3-0.5,0.3c-0.2,0-0.3,0-0.4-0.2
			C951.3,321.4,951.2,321.3,951.2,321.1"/>
		<path class="st8" d="M953.3,321.6H953v-1.5c-0.1,0.1-0.3,0.2-0.4,0.3v-0.4c0.1,0,0.2-0.1,0.3-0.2c0.1-0.1,0.2-0.2,0.2-0.3h0.3
			L953.3,321.6L953.3,321.6z"/>
		<path class="st8" d="M954.1,321c0,0.1,0,0.2,0.1,0.3s0.1,0.1,0.2,0.1s0.1,0,0.2-0.1s0.1-0.1,0.1-0.3c0-0.1,0-0.2-0.1-0.2
			s-0.1-0.1-0.2-0.1c-0.1,0-0.1,0-0.2,0.1S954.1,320.9,954.1,321 M954.1,320.1c0,0.1,0,0.1,0,0.2s0.1,0.1,0.2,0.1s0.1,0,0.2-0.1
			c0,0,0-0.1,0-0.2s0-0.1,0-0.2c0,0-0.1-0.1-0.2-0.1s-0.1,0-0.2,0.1C954.1,320,954.1,320,954.1,320.1 M954,320.5
			c-0.1,0-0.2-0.1-0.2-0.2c0-0.1-0.1-0.2-0.1-0.2c0-0.2,0-0.3,0.1-0.4s0.2-0.1,0.4-0.1s0.3,0,0.4,0.1s0.1,0.2,0.1,0.4
			c0,0.1,0,0.2-0.1,0.3c0,0.1-0.1,0.1-0.2,0.2c0.1,0,0.2,0.1,0.2,0.2s0.1,0.2,0.1,0.3c0,0.2,0,0.4-0.2,0.5c-0.1,0.1-0.2,0.2-0.4,0.2
			c-0.2,0-0.3,0-0.4-0.1c-0.1-0.1-0.2-0.3-0.2-0.5c0-0.1,0-0.2,0.1-0.3C953.9,320.6,954,320.5,954,320.5"/>
		<path class="st1" d="M993.8,273.9c2.1,0,3.8-1.7,3.8-3.8s-1.7-3.8-3.8-3.8s-3.8,1.7-3.8,3.8S991.7,273.9,993.8,273.9"/>
		<path class="st8" d="M992,270.5l0.3,0c0,0.1,0,0.2,0.1,0.2c0,0,0.1,0.1,0.2,0.1c0.1,0,0.1,0,0.2-0.1c0-0.1,0.1-0.2,0.1-0.3
			c0-0.1,0-0.2-0.1-0.3s-0.1-0.1-0.2-0.1c-0.1,0-0.2,0-0.2,0.1l-0.3,0l0.2-1.1h0.9v0.4h-0.6l0,0.4c0.1,0,0.2-0.1,0.2-0.1
			c0.2,0,0.3,0.1,0.4,0.2s0.2,0.3,0.2,0.5c0,0.2,0,0.3-0.1,0.5c-0.1,0.2-0.3,0.3-0.5,0.3c-0.2,0-0.3,0-0.4-0.2
			C992,270.8,992,270.7,992,270.5"/>
		<path class="st8" d="M994.1,271.1h-0.3v-1.5c-0.1,0.1-0.3,0.2-0.4,0.3v-0.4c0.1,0,0.2-0.1,0.3-0.2c0.1-0.1,0.2-0.2,0.2-0.3h0.3
			L994.1,271.1L994.1,271.1z"/>
		<path class="st8" d="M995.3,269.7c0-0.1,0-0.2-0.1-0.3c0-0.1-0.1-0.1-0.2-0.1s-0.1,0-0.2,0.1s-0.1,0.1-0.1,0.3s0,0.2,0.1,0.3
			c0,0.1,0.1,0.1,0.2,0.1s0.1,0,0.2-0.1C995.3,269.9,995.3,269.8,995.3,269.7 M994.5,270.6l0.3,0c0,0.1,0,0.1,0.1,0.2
			c0,0,0.1,0.1,0.1,0.1c0.1,0,0.1,0,0.2-0.1s0.1-0.2,0.1-0.5c-0.1,0.1-0.2,0.2-0.3,0.2s-0.2-0.1-0.3-0.2s-0.2-0.3-0.2-0.5
			s0-0.4,0.2-0.5c0.1-0.1,0.2-0.2,0.4-0.2c0.2,0,0.3,0.1,0.4,0.2c0.1,0.2,0.2,0.4,0.2,0.8s-0.1,0.7-0.2,0.8
			c-0.1,0.2-0.3,0.3-0.5,0.3c-0.1,0-0.2,0-0.3-0.1S994.6,270.8,994.5,270.6"/>
		<path class="st1" d="M977.8,381.2c2.1,0,3.8-1.7,3.8-3.8s-1.7-3.8-3.8-3.8s-3.8,1.7-3.8,3.8S975.7,381.2,977.8,381.2"/>
		<path class="st8" d="M975.9,377.8l0.3,0c0,0.1,0,0.2,0.1,0.2c0,0,0.1,0.1,0.2,0.1c0.1,0,0.1,0,0.2-0.1c0-0.1,0.1-0.2,0.1-0.3
			c0-0.1,0-0.2-0.1-0.3s-0.1-0.1-0.2-0.1c-0.1,0-0.2,0-0.2,0.1l-0.3,0l0.2-1.1h0.9v0.4h-0.6l0,0.4c0.1,0,0.2-0.1,0.2-0.1
			c0.2,0,0.3,0.1,0.4,0.2s0.2,0.3,0.2,0.5c0,0.2,0,0.3-0.1,0.5c-0.1,0.2-0.3,0.3-0.5,0.3c-0.2,0-0.3,0-0.4-0.2
			C976,378.1,976,378,975.9,377.8"/>
		<path class="st8" d="M978.3,378v0.4h-1.1c0-0.1,0-0.3,0.1-0.4c0.1-0.1,0.2-0.3,0.4-0.5c0.2-0.2,0.2-0.3,0.3-0.3
			c0-0.1,0.1-0.2,0.1-0.2s0-0.2-0.1-0.2s-0.1-0.1-0.2-0.1s-0.1,0-0.2,0.1s-0.1,0.1-0.1,0.2l-0.3,0c0-0.2,0.1-0.4,0.2-0.5
			s0.2-0.1,0.4-0.1c0.2,0,0.3,0.1,0.4,0.2s0.1,0.2,0.1,0.4c0,0.1,0,0.2,0,0.3c0,0.1-0.1,0.2-0.1,0.3c0,0.1-0.1,0.1-0.2,0.3
			c-0.1,0.1-0.2,0.2-0.2,0.2s0,0.1-0.1,0.1L978.3,378L978.3,378z"/>
		<path class="st8" d="M978.8,377.7c0,0.1,0,0.2,0.1,0.3s0.1,0.1,0.2,0.1s0.1,0,0.2-0.1s0.1-0.1,0.1-0.3c0-0.1,0-0.2-0.1-0.2
			s-0.1-0.1-0.2-0.1c-0.1,0-0.1,0-0.2,0.1S978.8,377.6,978.8,377.7 M978.9,376.8c0,0.1,0,0.1,0,0.2c0,0,0.1,0.1,0.2,0.1
			s0.1,0,0.2-0.1c0,0,0-0.1,0-0.2s0-0.1,0-0.2c0,0-0.1-0.1-0.2-0.1s-0.1,0-0.2,0.1S978.9,376.7,978.9,376.8 M978.8,377.2
			c-0.1,0-0.2-0.1-0.2-0.2c0-0.1-0.1-0.2-0.1-0.2c0-0.2,0-0.3,0.1-0.4s0.2-0.1,0.4-0.1s0.3,0,0.4,0.1s0.1,0.2,0.1,0.4
			c0,0.1,0,0.2-0.1,0.3c0,0.1-0.1,0.1-0.2,0.2c0.1,0,0.2,0.1,0.2,0.2s0.1,0.2,0.1,0.3c0,0.2,0,0.4-0.2,0.5c-0.1,0.1-0.2,0.2-0.4,0.2
			c-0.2,0-0.3,0-0.4-0.1c-0.1-0.1-0.2-0.3-0.2-0.5c0-0.1,0-0.2,0.1-0.3C978.6,377.3,978.7,377.2,978.8,377.2"/>
		<path class="st1" d="M989.5,367.1c2.1,0,3.8-1.7,3.8-3.8s-1.7-3.8-3.8-3.8s-3.8,1.7-3.8,3.8S987.4,367.1,989.5,367.1"/>
		<path class="st8" d="M987.6,363.7l0.3,0c0,0.1,0,0.2,0.1,0.2c0,0,0.1,0.1,0.2,0.1c0.1,0,0.1,0,0.2-0.1c0-0.1,0.1-0.2,0.1-0.3
			c0-0.1,0-0.2-0.1-0.3s-0.1-0.1-0.2-0.1c-0.1,0-0.2,0-0.2,0.1l-0.3,0l0.2-1.1h0.9v0.4H988l0,0.4c0.1,0,0.2-0.1,0.2-0.1
			c0.2,0,0.3,0.1,0.4,0.2s0.2,0.3,0.2,0.5c0,0.2,0,0.3-0.1,0.5c-0.1,0.2-0.3,0.3-0.5,0.3c-0.2,0-0.3,0-0.4-0.2
			C987.7,364,987.6,363.9,987.6,363.7"/>
		<path class="st8" d="M990,363.9v0.4h-1.1c0-0.1,0-0.3,0.1-0.4s0.2-0.3,0.4-0.5c0.2-0.2,0.2-0.3,0.3-0.3c0-0.1,0.1-0.2,0.1-0.2
			s0-0.2-0.1-0.2s-0.1-0.1-0.2-0.1s-0.1,0-0.2,0.1s-0.1,0.1-0.1,0.2l-0.3,0c0-0.2,0.1-0.4,0.2-0.5s0.2-0.1,0.4-0.1
			c0.2,0,0.3,0.1,0.4,0.2s0.1,0.2,0.1,0.4c0,0.1,0,0.2,0,0.3c0,0.1-0.1,0.2-0.1,0.3c0,0.1-0.1,0.1-0.2,0.3c-0.1,0.1-0.2,0.2-0.2,0.2
			s0,0.1-0.1,0.1L990,363.9L990,363.9z"/>
		<path class="st8" d="M990.2,362.6v-0.4h1.1v0.3c-0.1,0.1-0.2,0.3-0.3,0.5c-0.1,0.2-0.2,0.4-0.2,0.7c0,0.2-0.1,0.5-0.1,0.6h-0.3
			c0-0.3,0-0.6,0.2-0.9c0.1-0.3,0.2-0.6,0.4-0.8L990.2,362.6L990.2,362.6z"/>
		<path class="st5" d="M999.8,353.1c2.1,0,3.8-1.7,3.8-3.8s-1.7-3.8-3.8-3.8s-3.8,1.7-3.8,3.8S997.7,353.1,999.8,353.1"/>
		<path class="st8" d="M998.2,349.7l0.3,0c0,0.1,0,0.2,0.1,0.2c0,0,0.1,0.1,0.2,0.1c0.1,0,0.1,0,0.2-0.1c0-0.1,0.1-0.2,0.1-0.3
			c0-0.1,0-0.2-0.1-0.3s-0.1-0.1-0.2-0.1c-0.1,0-0.2,0-0.2,0.1l-0.3,0l0.2-1.1h0.9v0.4h-0.6l0,0.4c0.1,0,0.2-0.1,0.2-0.1
			c0.2,0,0.3,0.1,0.4,0.2s0.2,0.3,0.2,0.5c0,0.2,0,0.3-0.1,0.5c-0.1,0.2-0.3,0.3-0.5,0.3c-0.2,0-0.3,0-0.4-0.2
			C998.3,350.1,998.3,349.9,998.2,349.7"/>
		<path class="st8" d="M1000.7,349.9v0.4h-1.1c0-0.1,0-0.3,0.1-0.4c0.1-0.1,0.2-0.3,0.4-0.5c0.2-0.2,0.2-0.3,0.3-0.3
			c0-0.1,0.1-0.2,0.1-0.2s0-0.2-0.1-0.2s-0.1-0.1-0.2-0.1s-0.1,0-0.2,0.1s-0.1,0.1-0.1,0.2l-0.3,0c0-0.2,0.1-0.4,0.2-0.5
			s0.2-0.1,0.4-0.1c0.2,0,0.3,0.1,0.4,0.2s0.1,0.2,0.1,0.4c0,0.1,0,0.2,0,0.3c0,0.1-0.1,0.2-0.1,0.3c0,0.1-0.1,0.1-0.2,0.3
			c-0.1,0.1-0.2,0.2-0.2,0.2s0,0.1-0.1,0.1L1000.7,349.9L1000.7,349.9z"/>
		<path class="st8" d="M1001.2,349.6c0,0.1,0,0.2,0.1,0.3c0,0.1,0.1,0.1,0.2,0.1s0.1,0,0.2-0.1c0-0.1,0.1-0.1,0.1-0.3s0-0.2-0.1-0.3
			c0-0.1-0.1-0.1-0.2-0.1s-0.1,0-0.2,0.1C1001.3,349.3,1001.2,349.4,1001.2,349.6 M1002,348.7l-0.3,0c0-0.1,0-0.1-0.1-0.2
			c0,0-0.1-0.1-0.1-0.1c-0.1,0-0.1,0-0.2,0.1c0,0.1-0.1,0.2-0.1,0.5c0.1-0.1,0.2-0.2,0.3-0.2c0.1,0,0.2,0.1,0.3,0.2s0.1,0.3,0.1,0.5
			s0,0.4-0.2,0.5c-0.1,0.1-0.2,0.2-0.4,0.2c-0.2,0-0.3-0.1-0.4-0.2c-0.1-0.2-0.2-0.4-0.2-0.8s0.1-0.7,0.2-0.8
			c0.1-0.2,0.3-0.2,0.5-0.2c0.1,0,0.2,0,0.3,0.1C1001.9,348.4,1001.9,348.5,1002,348.7"/>
		<path class="st5" d="M1009.6,340c2.1,0,3.8-1.7,3.8-3.8s-1.7-3.8-3.8-3.8s-3.8,1.7-3.8,3.8S1007.5,340,1009.6,340"/>
		<path class="st8" d="M1007.8,336.6l0.3,0c0,0.1,0,0.2,0.1,0.2c0,0,0.1,0.1,0.2,0.1c0.1,0,0.1,0,0.2-0.1c0-0.1,0.1-0.2,0.1-0.3
			c0-0.1,0-0.2-0.1-0.3s-0.1-0.1-0.2-0.1c-0.1,0-0.2,0-0.2,0.1l-0.3,0l0.2-1.1h0.9v0.4h-0.6l0,0.4c0.1,0,0.2-0.1,0.2-0.1
			c0.2,0,0.3,0.1,0.4,0.2s0.2,0.3,0.2,0.5c0,0.2,0,0.3-0.1,0.5c-0.1,0.2-0.3,0.3-0.5,0.3c-0.2,0-0.3,0-0.4-0.2
			C1007.8,337,1007.8,336.8,1007.8,336.6"/>
		<path class="st8" d="M1010.1,336.8v0.4h-1.1c0-0.1,0-0.3,0.1-0.4c0.1-0.1,0.2-0.3,0.4-0.5c0.2-0.2,0.2-0.3,0.3-0.3
			c0-0.1,0.1-0.2,0.1-0.2s0-0.2-0.1-0.2s-0.1-0.1-0.2-0.1s-0.1,0-0.2,0.1s-0.1,0.1-0.1,0.2l-0.3,0c0-0.2,0.1-0.4,0.2-0.5
			s0.2-0.1,0.4-0.1c0.2,0,0.3,0.1,0.4,0.2s0.1,0.2,0.1,0.4c0,0.1,0,0.2,0,0.3c0,0.1-0.1,0.2-0.1,0.3c0,0.1-0.1,0.1-0.2,0.3
			c-0.1,0.1-0.2,0.2-0.2,0.2s0,0.1-0.1,0.1L1010.1,336.8L1010.1,336.8z"/>
		<path class="st8" d="M1010.3,336.6l0.3,0c0,0.1,0,0.2,0.1,0.2c0,0,0.1,0.1,0.2,0.1c0.1,0,0.1,0,0.2-0.1c0-0.1,0.1-0.2,0.1-0.3
			c0-0.1,0-0.2-0.1-0.3s-0.1-0.1-0.2-0.1c-0.1,0-0.2,0-0.2,0.1l-0.3,0l0.2-1.1h0.9v0.4h-0.6l0,0.4c0.1,0,0.2-0.1,0.2-0.1
			c0.2,0,0.3,0.1,0.4,0.2s0.2,0.3,0.2,0.5c0,0.2,0,0.3-0.1,0.5c-0.1,0.2-0.3,0.3-0.5,0.3c-0.2,0-0.3,0-0.4-0.2
			C1010.4,337,1010.4,336.8,1010.3,336.6"/>
		<path class="st5" d="M1020.2,326.1c2.1,0,3.8-1.7,3.8-3.8s-1.7-3.8-3.8-3.8s-3.8,1.7-3.8,3.8S1018.1,326.1,1020.2,326.1"/>
		<path class="st8" d="M1018.3,322.7l0.3,0c0,0.1,0,0.2,0.1,0.2c0,0,0.1,0.1,0.2,0.1c0.1,0,0.1,0,0.2-0.1s0.1-0.2,0.1-0.3
			c0-0.1,0-0.2-0.1-0.3s-0.1-0.1-0.2-0.1c-0.1,0-0.2,0-0.2,0.1l-0.3,0l0.2-1.1h0.9v0.4h-0.6l0,0.4c0.1,0,0.2-0.1,0.2-0.1
			c0.2,0,0.3,0.1,0.4,0.2s0.2,0.3,0.2,0.5c0,0.2,0,0.3-0.1,0.5c-0.1,0.2-0.3,0.3-0.5,0.3c-0.2,0-0.3,0-0.4-0.2
			C1018.4,323,1018.4,322.9,1018.3,322.7"/>
		<path class="st8" d="M1020.8,322.9v0.4h-1.1c0-0.1,0-0.3,0.1-0.4c0.1-0.1,0.2-0.3,0.4-0.5c0.2-0.2,0.2-0.3,0.3-0.3
			c0-0.1,0.1-0.2,0.1-0.2s0-0.2-0.1-0.2s-0.1-0.1-0.2-0.1s-0.1,0-0.2,0.1s-0.1,0.1-0.1,0.2l-0.3,0c0-0.2,0.1-0.4,0.2-0.5
			s0.2-0.1,0.4-0.1c0.2,0,0.3,0.1,0.4,0.2s0.1,0.2,0.1,0.4c0,0.1,0,0.2,0,0.3c0,0.1-0.1,0.2-0.1,0.3c0,0.1-0.1,0.1-0.2,0.3
			c-0.1,0.1-0.2,0.2-0.2,0.2s0,0.1-0.1,0.1L1020.8,322.9L1020.8,322.9z"/>
		<path class="st8" d="M1021.6,322.5v-0.7l-0.4,0.7H1021.6z M1021.6,323.2v-0.4h-0.7v-0.4l0.7-1.3h0.3v1.3h0.2v0.4h-0.2v0.4
			L1021.6,323.2L1021.6,323.2z"/>
		<path class="st1" d="M1040.6,299.3c2.1,0,3.8-1.7,3.8-3.8s-1.7-3.8-3.8-3.8s-3.8,1.7-3.8,3.8S1038.5,299.3,1040.6,299.3"/>
		<path class="st8" d="M1038.7,295.9l0.3,0c0,0.1,0,0.2,0.1,0.2c0.1,0,0.1,0.1,0.2,0.1c0.1,0,0.1,0,0.2-0.1c0.1-0.1,0.1-0.2,0.1-0.3
			c0-0.1,0-0.2-0.1-0.3s-0.1-0.1-0.2-0.1c-0.1,0-0.2,0-0.2,0.1l-0.3,0l0.2-1.1h0.9v0.4h-0.6l-0.1,0.4c0.1,0,0.2-0.1,0.2-0.1
			c0.2,0,0.3,0.1,0.4,0.2s0.2,0.3,0.2,0.5c0,0.2,0,0.3-0.1,0.5c-0.1,0.2-0.3,0.3-0.5,0.3c-0.2,0-0.3,0-0.4-0.2
			C1038.8,296.2,1038.8,296.1,1038.7,295.9"/>
		<path class="st8" d="M1041.1,296v0.4h-1.1c0-0.1,0.1-0.3,0.1-0.4s0.2-0.3,0.4-0.5c0.2-0.2,0.2-0.3,0.3-0.3c0-0.1,0.1-0.2,0.1-0.2
			s0-0.2-0.1-0.2s-0.1-0.1-0.2-0.1s-0.1,0-0.2,0.1s-0.1,0.1-0.1,0.2l-0.3,0c0-0.2,0.1-0.4,0.2-0.5c0.1-0.1,0.2-0.1,0.4-0.1
			c0.2,0,0.3,0.1,0.4,0.2c0.1,0.1,0.1,0.2,0.1,0.4c0,0.1,0,0.2,0,0.3s-0.1,0.2-0.1,0.3c0,0.1-0.1,0.1-0.2,0.3s-0.2,0.2-0.2,0.2
			c0,0-0.1,0.1-0.1,0.1L1041.1,296L1041.1,296z"/>
		<path class="st8" d="M1042.4,296v0.4h-1.1c0-0.1,0.1-0.3,0.1-0.4s0.2-0.3,0.4-0.5c0.2-0.2,0.2-0.3,0.3-0.3c0-0.1,0.1-0.2,0.1-0.2
			s0-0.2-0.1-0.2s-0.1-0.1-0.2-0.1s-0.1,0-0.2,0.1s-0.1,0.1-0.1,0.2l-0.3,0c0-0.2,0.1-0.4,0.2-0.5c0.1-0.1,0.2-0.1,0.4-0.1
			c0.2,0,0.3,0.1,0.4,0.2c0.1,0.1,0.1,0.2,0.1,0.4c0,0.1,0,0.2,0,0.3s-0.1,0.2-0.1,0.3c0,0.1-0.1,0.1-0.2,0.3s-0.2,0.2-0.2,0.2
			c0,0-0.1,0.1-0.1,0.1L1042.4,296L1042.4,296z"/>
		<path class="st1" d="M1027.9,229.2c2.1,0,3.8-1.7,3.8-3.8s-1.7-3.8-3.8-3.8s-3.8,1.7-3.8,3.8S1025.8,229.2,1027.9,229.2"/>
		<path class="st8" d="M1026.3,225.8l0.3,0c0,0.1,0,0.2,0.1,0.2c0.1,0.1,0.1,0.1,0.2,0.1c0.1,0,0.1,0,0.2-0.1
			c0.1-0.1,0.1-0.2,0.1-0.3c0-0.1,0-0.2-0.1-0.3s-0.1-0.1-0.2-0.1c-0.1,0-0.2,0.1-0.2,0.1l-0.3-0.1l0.2-1.1h0.9v0.4h-0.6l-0.1,0.4
			c0.1,0,0.2-0.1,0.2-0.1c0.2,0,0.3,0.1,0.4,0.2c0.1,0.1,0.2,0.3,0.2,0.5c0,0.2,0,0.3-0.1,0.5c-0.1,0.2-0.3,0.3-0.5,0.3
			c-0.2,0-0.3-0.1-0.4-0.2C1026.4,226.1,1026.3,226,1026.3,225.8"/>
		<path class="st8" d="M1028.7,226v0.4h-1.1c0-0.1,0.1-0.3,0.1-0.4s0.2-0.3,0.4-0.5c0.2-0.2,0.2-0.3,0.3-0.3c0-0.1,0.1-0.2,0.1-0.2
			s0-0.2-0.1-0.2s-0.1-0.1-0.2-0.1s-0.1,0-0.2,0.1s-0.1,0.1-0.1,0.2l-0.3,0c0-0.2,0.1-0.4,0.2-0.5c0.1-0.1,0.2-0.1,0.4-0.1
			c0.2,0,0.3,0.1,0.4,0.2s0.1,0.2,0.1,0.4c0,0.1,0,0.2,0,0.3c0,0.1-0.1,0.2-0.1,0.3c0,0.1-0.1,0.1-0.2,0.3c-0.1,0.1-0.2,0.2-0.2,0.2
			c0,0-0.1,0.1-0.1,0.1L1028.7,226L1028.7,226z"/>
		<path class="st8" d="M1029.5,224.6C1029.5,224.6,1029.4,224.6,1029.5,224.6c-0.1,0.1-0.2,0.1-0.2,0.2c0,0.1,0,0.3,0,0.5
			s0,0.4,0,0.5c0,0.1,0,0.1,0.1,0.2c0,0,0.1,0.1,0.1,0.1s0.1,0,0.1-0.1s0.1-0.1,0.1-0.2c0-0.1,0-0.3,0-0.5s0-0.4,0-0.5
			C1029.7,224.7,1029.6,224.7,1029.5,224.6C1029.6,224.6,1029.5,224.6,1029.5,224.6 M1029.5,224.2c0.2,0,0.3,0.1,0.4,0.2
			c0.1,0.2,0.2,0.5,0.2,0.9s-0.1,0.7-0.2,0.9c-0.1,0.1-0.2,0.2-0.4,0.2s-0.3-0.1-0.4-0.2s-0.2-0.4-0.2-0.8s0.1-0.7,0.2-0.9
			C1029.2,224.3,1029.3,224.2,1029.5,224.2"/>
		<path class="st2" d="M1050.4,285.2c2.1,0,3.8-1.7,3.8-3.8s-1.7-3.8-3.8-3.8s-3.8,1.7-3.8,3.8S1048.3,285.2,1050.4,285.2"/>
		<path class="st8" d="M1048.8,281.8l0.3,0c0,0.1,0,0.2,0.1,0.2c0.1,0,0.1,0.1,0.2,0.1c0.1,0,0.1,0,0.2-0.1c0.1-0.1,0.1-0.2,0.1-0.3
			c0-0.1,0-0.2-0.1-0.3s-0.1-0.1-0.2-0.1c-0.1,0-0.2,0-0.2,0.1l-0.3,0l0.2-1.1h0.9v0.4h-0.6l-0.1,0.4c0.1,0,0.2-0.1,0.2-0.1
			c0.2,0,0.3,0.1,0.4,0.2s0.2,0.3,0.2,0.5c0,0.2,0,0.3-0.1,0.5c-0.1,0.2-0.3,0.3-0.5,0.3c-0.2,0-0.3,0-0.4-0.2
			C1048.9,282.1,1048.8,281.9,1048.8,281.8"/>
		<path class="st8" d="M1051.2,281.9v0.4h-1.1c0-0.1,0.1-0.3,0.1-0.4s0.2-0.3,0.4-0.5c0.2-0.2,0.2-0.3,0.3-0.3
			c0-0.1,0.1-0.2,0.1-0.2s0-0.2-0.1-0.2s-0.1-0.1-0.2-0.1s-0.1,0-0.2,0.1s-0.1,0.1-0.1,0.2l-0.3,0c0-0.2,0.1-0.4,0.2-0.5
			c0.1-0.1,0.2-0.1,0.4-0.1c0.2,0,0.3,0.1,0.4,0.2c0.1,0.1,0.1,0.2,0.1,0.4c0,0.1,0,0.2,0,0.3s-0.1,0.2-0.1,0.3
			c0,0.1-0.1,0.1-0.2,0.3s-0.2,0.2-0.2,0.2c0,0-0.1,0.1-0.1,0.1L1051.2,281.9L1051.2,281.9z"/>
		<path class="st8" d="M1052.2,282.3h-0.3v-1.5c-0.1,0.1-0.3,0.2-0.4,0.3v-0.4c0.1,0,0.2-0.1,0.3-0.2s0.2-0.2,0.2-0.3h0.3V282.3
			L1052.2,282.3z"/>
		<path class="st1" d="M1088.2,232.4c2.1,0,3.8-1.7,3.8-3.8s-1.7-3.8-3.8-3.8s-3.8,1.7-3.8,3.8S1086.1,232.4,1088.2,232.4"/>
		<path class="st8" d="M1085.5,228.9l0.3,0c0,0.1,0,0.2,0.1,0.2c0.1,0.1,0.1,0.1,0.2,0.1c0.1,0,0.1,0,0.2-0.1
			c0.1-0.1,0.1-0.2,0.1-0.3c0-0.1,0-0.2-0.1-0.3s-0.1-0.1-0.2-0.1c-0.1,0-0.2,0.1-0.2,0.1l-0.3-0.1l0.2-1.1h0.9v0.4h-0.6l-0.1,0.4
			c0.1,0,0.2-0.1,0.2-0.1c0.2,0,0.3,0.1,0.4,0.2c0.1,0.1,0.2,0.3,0.2,0.5c0,0.2,0,0.3-0.1,0.5c-0.1,0.2-0.3,0.3-0.5,0.3
			c-0.2,0-0.3-0.1-0.4-0.2C1085.6,229.3,1085.5,229.1,1085.5,228.9"/>
		<path class="st8" d="M1087.9,229.1v0.4h-1.1c0-0.1,0.1-0.3,0.1-0.4s0.2-0.3,0.4-0.5c0.2-0.2,0.2-0.3,0.3-0.3
			c0-0.1,0.1-0.2,0.1-0.2s0-0.2-0.1-0.2s-0.1-0.1-0.2-0.1s-0.1,0-0.2,0.1s-0.1,0.1-0.1,0.2l-0.3,0c0-0.2,0.1-0.4,0.2-0.5
			c0.1-0.1,0.2-0.1,0.4-0.1c0.2,0,0.3,0.1,0.4,0.2s0.1,0.2,0.1,0.4c0,0.1,0,0.2,0,0.3c0,0.1-0.1,0.2-0.1,0.3c0,0.1-0.1,0.1-0.2,0.3
			c-0.1,0.1-0.2,0.2-0.2,0.2c0,0-0.1,0.1-0.1,0.1L1087.9,229.1L1087.9,229.1z"/>
		<path class="st8" d="M1088.7,227.7C1088.7,227.7,1088.6,227.7,1088.7,227.7c-0.1,0.1-0.2,0.1-0.2,0.2c0,0.1,0,0.3,0,0.5
			s0,0.4,0,0.5c0,0.1,0,0.1,0.1,0.2c0,0,0.1,0.1,0.1,0.1s0.1,0,0.1-0.1s0.1-0.1,0.1-0.2c0-0.1,0-0.3,0-0.5s0-0.4,0-0.5
			C1088.8,227.8,1088.8,227.8,1088.7,227.7C1088.7,227.7,1088.7,227.7,1088.7,227.7 M1088.6,227.4c0.2,0,0.3,0.1,0.4,0.2
			c0.1,0.2,0.2,0.5,0.2,0.9s-0.1,0.7-0.2,0.9c-0.1,0.1-0.2,0.2-0.4,0.2s-0.3-0.1-0.4-0.2s-0.2-0.4-0.2-0.8s0.1-0.7,0.2-0.9
			C1088.4,227.4,1088.5,227.3,1088.6,227.4"/>
		<path class="st8" d="M1089.8,229.1h0.3c0.1,0,0.2,0,0.2,0c0,0,0.1,0,0.1-0.1s0.1-0.1,0.1-0.2c0-0.1,0-0.2-0.1-0.2
			c-0.1,0-0.2-0.1-0.3-0.1h-0.3L1089.8,229.1L1089.8,229.1z M1089.5,227.4h1.3v0.4h-0.9v0.5h0.5c0.1,0,0.2,0,0.3,0.1
			c0.1,0,0.2,0.1,0.2,0.2c0.1,0.1,0.1,0.2,0.1,0.4s0,0.3-0.1,0.4c-0.1,0.1-0.1,0.2-0.2,0.2s-0.2,0.1-0.3,0.1h-0.8V227.4
			L1089.5,227.4z"/>
		<path class="st1" d="M1032.1,312.8c2.1,0,3.8-1.7,3.8-3.8s-1.7-3.8-3.8-3.8s-3.8,1.7-3.8,3.8S1030,312.8,1032.1,312.8"/>
		<path class="st8" d="M1030.5,309.4l0.3,0c0,0.1,0,0.2,0.1,0.2c0.1,0,0.1,0.1,0.2,0.1c0.1,0,0.1,0,0.2-0.1c0.1-0.1,0.1-0.2,0.1-0.3
			c0-0.1,0-0.2-0.1-0.3s-0.1-0.1-0.2-0.1c-0.1,0-0.2,0-0.2,0.1l-0.3,0l0.2-1.1h0.9v0.4h-0.6l-0.1,0.4c0.1,0,0.2-0.1,0.2-0.1
			c0.2,0,0.3,0.1,0.4,0.2s0.2,0.3,0.2,0.5c0,0.2,0,0.3-0.1,0.5c-0.1,0.2-0.3,0.3-0.5,0.3c-0.2,0-0.3,0-0.4-0.2
			C1030.6,309.7,1030.5,309.6,1030.5,309.4"/>
		<path class="st8" d="M1032.9,309.6v0.4h-1.1c0-0.1,0.1-0.3,0.1-0.4s0.2-0.3,0.4-0.5c0.2-0.2,0.2-0.3,0.3-0.3
			c0-0.1,0.1-0.2,0.1-0.2s0-0.2-0.1-0.2s-0.1-0.1-0.2-0.1s-0.1,0-0.2,0.1s-0.1,0.1-0.1,0.2l-0.3,0c0-0.2,0.1-0.4,0.2-0.5
			c0.1-0.1,0.2-0.1,0.4-0.1c0.2,0,0.3,0.1,0.4,0.2c0.1,0.1,0.1,0.2,0.1,0.4c0,0.1,0,0.2,0,0.3s-0.1,0.2-0.1,0.3
			c0,0.1-0.1,0.1-0.2,0.3s-0.2,0.2-0.2,0.2c0,0-0.1,0.1-0.1,0.1L1032.9,309.6L1032.9,309.6z"/>
		<path class="st8" d="M1033.1,309.4l0.3,0c0,0.1,0,0.2,0.1,0.2c0,0,0.1,0.1,0.2,0.1c0.1,0,0.1,0,0.2-0.1s0.1-0.1,0.1-0.3
			c0-0.1,0-0.2-0.1-0.2c0-0.1-0.1-0.1-0.2-0.1c0,0-0.1,0-0.2,0l0-0.3c0.1,0,0.2,0,0.2-0.1c0.1,0,0.1-0.1,0.1-0.2
			c0-0.1,0-0.1-0.1-0.2s-0.1-0.1-0.1-0.1s-0.1,0-0.1,0.1c0,0-0.1,0.1-0.1,0.2l-0.3-0.1c0-0.1,0.1-0.2,0.1-0.3c0-0.1,0.1-0.1,0.2-0.2
			c0.1,0,0.2-0.1,0.2-0.1c0.2,0,0.3,0.1,0.4,0.2c0.1,0.1,0.1,0.2,0.1,0.4c0,0.2-0.1,0.3-0.2,0.4c0.1,0,0.2,0.1,0.2,0.2
			c0.1,0.1,0.1,0.2,0.1,0.3c0,0.2-0.1,0.3-0.2,0.5s-0.2,0.2-0.4,0.2c-0.2,0-0.3,0-0.4-0.2C1033.2,309.7,1033.1,309.6,1033.1,309.4"
			/>
		<path class="st8" d="M623.1,437.7h0.3c0.1,0,0.2,0,0.2,0c0,0,0.1,0,0.1-0.1s0-0.1,0-0.2c0-0.1,0-0.2-0.1-0.2
			c-0.1,0-0.2-0.1-0.3-0.1h-0.3L623.1,437.7L623.1,437.7z M622.8,436h1.3v0.4h-0.9v0.5h0.5c0.1,0,0.2,0,0.3,0.1s0.2,0.1,0.2,0.2
			s0.1,0.2,0.1,0.4s0,0.3-0.1,0.4c-0.1,0.1-0.1,0.2-0.2,0.2c-0.1,0-0.2,0.1-0.3,0.1h-0.8L622.8,436L622.8,436z"/>
		<polygon class="st8" points="624.4,438.1 624.4,436 624.8,436 624.8,436.8 625.4,436.8 625.4,436 625.8,436 625.8,438.1 
			625.4,438.1 625.4,437.1 624.8,437.1 624.8,438.1 		"/>
		<path class="st8" d="M627.2,437.3l0.3,0.1c0,0.2-0.1,0.4-0.3,0.5c-0.1,0.1-0.3,0.2-0.5,0.2c-0.2,0-0.4-0.1-0.6-0.3
			s-0.2-0.5-0.2-0.8c0-0.4,0.1-0.6,0.2-0.8c0.2-0.2,0.3-0.3,0.6-0.3c0.2,0,0.4,0.1,0.5,0.2c0.1,0.1,0.1,0.2,0.2,0.4l-0.3,0.1
			c0-0.1-0.1-0.2-0.1-0.3c-0.1-0.1-0.1-0.1-0.2-0.1c-0.1,0-0.2,0.1-0.3,0.2c-0.1,0.1-0.1,0.3-0.1,0.5c0,0.3,0,0.5,0.1,0.6
			c0.1,0.1,0.2,0.2,0.3,0.2c0.1,0,0.2,0,0.2-0.1S627.2,437.5,627.2,437.3"/>
		<path class="st1" d="M107.1,499.3c2.1,0,3.8-1.7,3.8-3.8s-1.7-3.8-3.8-3.8s-3.8,1.7-3.8,3.8S104.9,499.3,107.1,499.3"/>
		<path class="st8" d="M105.2,495.9l0.3,0c0,0.1,0,0.2,0.1,0.2c0.1,0,0.1,0.1,0.2,0.1c0.1,0,0.1,0,0.2-0.1c0.1-0.1,0.1-0.2,0.1-0.3
			c0-0.1,0-0.2-0.1-0.3c-0.1-0.1-0.1-0.1-0.2-0.1c-0.1,0-0.2,0-0.2,0.1l-0.3,0l0.2-1.1h0.9v0.4h-0.6l-0.1,0.4c0.1,0,0.2-0.1,0.2-0.1
			c0.1,0,0.3,0.1,0.4,0.2c0.1,0.1,0.2,0.3,0.2,0.5c0,0.2,0,0.3-0.1,0.5c-0.1,0.2-0.3,0.3-0.5,0.3c-0.2,0-0.3,0-0.4-0.2
			C105.3,496.2,105.2,496.1,105.2,495.9"/>
		<path class="st8" d="M107.1,495.7V495l-0.4,0.7H107.1z M107.1,496.4V496h-0.7v-0.4l0.7-1.3h0.3v1.3h0.2v0.4h-0.2v0.4L107.1,496.4
			L107.1,496.4z"/>
		<path class="st8" d="M107.8,494.7v-0.4h1.1v0.3c-0.1,0.1-0.2,0.3-0.3,0.5c-0.1,0.2-0.2,0.4-0.2,0.7c-0.1,0.2-0.1,0.5-0.1,0.6H108
			c0-0.3,0.1-0.6,0.2-0.9c0.1-0.3,0.2-0.6,0.4-0.8L107.8,494.7L107.8,494.7z"/>
		<path class="st1" d="M125.1,499.3c2.1,0,3.8-1.7,3.8-3.8s-1.7-3.8-3.8-3.8s-3.8,1.7-3.8,3.8S123,499.3,125.1,499.3"/>
		<path class="st8" d="M123.2,495.9l0.3,0c0,0.1,0,0.2,0.1,0.2s0.1,0.1,0.2,0.1c0.1,0,0.1,0,0.2-0.1c0.1-0.1,0.1-0.2,0.1-0.3
			c0-0.1,0-0.2-0.1-0.3c-0.1-0.1-0.1-0.1-0.2-0.1c-0.1,0-0.2,0-0.2,0.1l-0.3,0l0.2-1.1h0.9v0.4h-0.6l-0.1,0.4c0.1,0,0.2-0.1,0.2-0.1
			c0.1,0,0.3,0.1,0.4,0.2c0.1,0.1,0.2,0.3,0.2,0.5c0,0.2,0,0.3-0.1,0.5c-0.1,0.2-0.3,0.3-0.5,0.3c-0.2,0-0.3,0-0.4-0.2
			C123.3,496.2,123.3,496.1,123.2,495.9"/>
		<path class="st8" d="M125.2,495.7V495l-0.4,0.7H125.2z M125.2,496.4V496h-0.7v-0.4l0.7-1.3h0.3v1.3h0.2v0.4h-0.2v0.4L125.2,496.4
			L125.2,496.4z"/>
		<path class="st8" d="M126.2,495.7c0,0.1,0,0.2,0.1,0.3c0.1,0.1,0.1,0.1,0.2,0.1s0.1,0,0.2-0.1s0.1-0.1,0.1-0.3s0-0.2-0.1-0.3
			c0-0.1-0.1-0.1-0.2-0.1s-0.1,0-0.2,0.1S126.2,495.6,126.2,495.7 M126.9,494.8l-0.3,0c0-0.1,0-0.1-0.1-0.2c0,0-0.1-0.1-0.1-0.1
			c-0.1,0-0.1,0-0.2,0.1c-0.1,0.1-0.1,0.2-0.1,0.5c0.1-0.1,0.2-0.2,0.3-0.2c0.1,0,0.2,0.1,0.3,0.2s0.2,0.3,0.2,0.5s-0.1,0.4-0.2,0.5
			c-0.1,0.1-0.2,0.2-0.4,0.2c-0.2,0-0.3-0.1-0.4-0.2c-0.1-0.2-0.2-0.4-0.2-0.8s0.1-0.7,0.2-0.8c0.1-0.2,0.3-0.3,0.4-0.3
			c0.1,0,0.2,0,0.3,0.1S126.9,494.7,126.9,494.8"/>
		<path class="st1" d="M141.6,499.3c2.1,0,3.8-1.7,3.8-3.8s-1.7-3.8-3.8-3.8s-3.8,1.7-3.8,3.8S139.5,499.3,141.6,499.3"/>
		<path class="st8" d="M139.7,495.9l0.3,0c0,0.1,0,0.2,0.1,0.2c0.1,0,0.1,0.1,0.2,0.1c0.1,0,0.1,0,0.2-0.1c0.1-0.1,0.1-0.2,0.1-0.3
			c0-0.1,0-0.2-0.1-0.3s-0.1-0.1-0.2-0.1c-0.1,0-0.2,0-0.2,0.1l-0.3,0l0.2-1.1h0.9v0.4h-0.6l-0.1,0.4c0.1,0,0.1-0.1,0.2-0.1
			c0.1,0,0.3,0.1,0.4,0.2c0.1,0.1,0.1,0.3,0.1,0.5c0,0.2,0,0.3-0.1,0.5c-0.1,0.2-0.3,0.3-0.5,0.3c-0.2,0-0.3,0-0.4-0.2
			C139.8,496.2,139.7,496.1,139.7,495.9"/>
		<path class="st8" d="M141.6,495.7V495l-0.4,0.7H141.6z M141.6,496.4V496h-0.7v-0.4l0.7-1.3h0.3v1.3h0.2v0.4H142v0.4L141.6,496.4
			L141.6,496.4z"/>
		<path class="st8" d="M142.3,495.9l0.3,0c0,0.1,0,0.2,0.1,0.2c0.1,0,0.1,0.1,0.2,0.1c0.1,0,0.1,0,0.2-0.1c0.1-0.1,0.1-0.2,0.1-0.3
			c0-0.1,0-0.2-0.1-0.3s-0.1-0.1-0.2-0.1c-0.1,0-0.2,0-0.2,0.1l-0.3,0l0.2-1.1h0.9v0.4h-0.6l-0.1,0.4c0.1,0,0.1-0.1,0.2-0.1
			c0.1,0,0.3,0.1,0.4,0.2c0.1,0.1,0.1,0.3,0.1,0.5c0,0.2,0,0.3-0.1,0.5c-0.1,0.2-0.3,0.3-0.5,0.3c-0.2,0-0.3,0-0.4-0.2
			C142.4,496.2,142.3,496.1,142.3,495.9"/>
		<path class="st1" d="M175.7,499.3c2.1,0,3.8-1.7,3.8-3.8s-1.7-3.8-3.8-3.8s-3.8,1.7-3.8,3.8S173.6,499.3,175.7,499.3"/>
		<path class="st8" d="M173.8,495.9l0.3,0c0,0.1,0,0.2,0.1,0.2c0.1,0,0.1,0.1,0.2,0.1c0.1,0,0.1,0,0.2-0.1c0.1-0.1,0.1-0.2,0.1-0.3
			c0-0.1,0-0.2-0.1-0.3s-0.1-0.1-0.2-0.1c-0.1,0-0.2,0-0.2,0.1l-0.3,0l0.2-1.1h0.9v0.4h-0.6l-0.1,0.4c0.1,0,0.1-0.1,0.2-0.1
			c0.1,0,0.3,0.1,0.4,0.2c0.1,0.1,0.1,0.3,0.1,0.5c0,0.2,0,0.3-0.1,0.5c-0.1,0.2-0.3,0.3-0.5,0.3c-0.2,0-0.3,0-0.4-0.2
			C173.9,496.2,173.8,496.1,173.8,495.9"/>
		<path class="st8" d="M175.7,495.7V495l-0.4,0.7H175.7z M175.7,496.4V496H175v-0.4l0.7-1.3h0.3v1.3h0.2v0.4h-0.2v0.4L175.7,496.4
			L175.7,496.4z"/>
		<path class="st8" d="M177,495.7V495l-0.4,0.7H177z M177,496.4V496h-0.7v-0.4l0.7-1.3h0.3v1.3h0.2v0.4h-0.2v0.4L177,496.4
			L177,496.4z"/>
		<path class="st1" d="M228.5,499.3c2.1,0,3.8-1.7,3.8-3.8s-1.7-3.8-3.8-3.8s-3.8,1.7-3.8,3.8S226.4,499.3,228.5,499.3"/>
		<path class="st8" d="M226.6,495.9l0.3,0c0,0.1,0,0.2,0.1,0.2c0.1,0,0.1,0.1,0.2,0.1c0.1,0,0.1,0,0.2-0.1c0.1-0.1,0.1-0.2,0.1-0.3
			c0-0.1,0-0.2-0.1-0.3s-0.1-0.1-0.2-0.1c-0.1,0-0.2,0-0.2,0.1l-0.3,0l0.2-1.1h0.9v0.4h-0.6l-0.1,0.4c0.1,0,0.1-0.1,0.2-0.1
			c0.1,0,0.3,0.1,0.4,0.2c0.1,0.1,0.1,0.3,0.1,0.5c0,0.2,0,0.3-0.1,0.5c-0.1,0.2-0.3,0.3-0.5,0.3c-0.2,0-0.3,0-0.4-0.2
			C226.7,496.2,226.6,496.1,226.6,495.9"/>
		<path class="st8" d="M228.5,495.7V495l-0.4,0.7H228.5z M228.5,496.4V496h-0.7v-0.4l0.7-1.3h0.3v1.3h0.2v0.4h-0.2v0.4L228.5,496.4
			L228.5,496.4z"/>
		<path class="st8" d="M229.2,495.9l0.3,0c0,0.1,0,0.2,0.1,0.2c0,0,0.1,0.1,0.2,0.1c0.1,0,0.1,0,0.2-0.1s0.1-0.1,0.1-0.3
			c0-0.1,0-0.2-0.1-0.2c0-0.1-0.1-0.1-0.2-0.1c0,0-0.1,0-0.1,0l0-0.3c0.1,0,0.1,0,0.2-0.1c0.1,0,0.1-0.1,0.1-0.2
			c0-0.1,0-0.1-0.1-0.2s-0.1-0.1-0.1-0.1s-0.1,0-0.1,0.1s-0.1,0.1-0.1,0.2l-0.3-0.1c0-0.1,0.1-0.2,0.1-0.3s0.1-0.1,0.2-0.2
			c0.1,0,0.2-0.1,0.2-0.1c0.2,0,0.3,0.1,0.4,0.2c0.1,0.1,0.1,0.2,0.1,0.4c0,0.2-0.1,0.3-0.2,0.4c0.1,0,0.2,0.1,0.2,0.2
			c0.1,0.1,0.1,0.2,0.1,0.3c0,0.2-0.1,0.3-0.2,0.5c-0.1,0.1-0.2,0.2-0.4,0.2c-0.1,0-0.3,0-0.4-0.2
			C229.3,496.2,229.2,496,229.2,495.9"/>
		<path class="st1" d="M261.8,499.5c2.1,0,3.8-1.7,3.8-3.8s-1.7-3.8-3.8-3.8s-3.8,1.7-3.8,3.8S259.6,499.5,261.8,499.5"/>
		<path class="st8" d="M260.1,496.1l0.3,0c0,0.1,0,0.2,0.1,0.2s0.1,0.1,0.2,0.1c0.1,0,0.1,0,0.2-0.1c0-0.1,0.1-0.2,0.1-0.3
			c0-0.1,0-0.2-0.1-0.3s-0.1-0.1-0.2-0.1c-0.1,0-0.2,0-0.2,0.1l-0.3,0l0.2-1.1h0.9v0.4h-0.6l0,0.4c0.1,0,0.1-0.1,0.2-0.1
			c0.1,0,0.3,0.1,0.4,0.2s0.1,0.3,0.1,0.5c0,0.2,0,0.3-0.1,0.5c-0.1,0.2-0.3,0.3-0.5,0.3c-0.2,0-0.3,0-0.4-0.2
			C260.2,496.4,260.2,496.3,260.1,496.1"/>
		<path class="st8" d="M262.1,495.9v-0.7l-0.4,0.7H262.1z M262.1,496.6v-0.4h-0.7v-0.4l0.7-1.3h0.3v1.3h0.2v0.4h-0.2v0.4
			L262.1,496.6L262.1,496.6z"/>
		<path class="st8" d="M263.9,496.3v0.4h-1.1c0-0.1,0-0.3,0.1-0.4c0.1-0.1,0.2-0.3,0.4-0.5c0.1-0.2,0.2-0.3,0.3-0.3
			c0-0.1,0.1-0.2,0.1-0.2s0-0.2-0.1-0.2s-0.1-0.1-0.2-0.1s-0.1,0-0.2,0.1s-0.1,0.1-0.1,0.2l-0.3,0c0-0.2,0.1-0.4,0.2-0.5
			s0.2-0.1,0.4-0.1c0.2,0,0.3,0.1,0.4,0.2s0.1,0.2,0.1,0.4c0,0.1,0,0.2,0,0.3s-0.1,0.2-0.1,0.3c0,0.1-0.1,0.1-0.2,0.3
			s-0.2,0.2-0.2,0.2s0,0.1-0.1,0.1L263.9,496.3L263.9,496.3z"/>
		<path class="st1" d="M287.3,499.5c2.1,0,3.8-1.7,3.8-3.8s-1.7-3.8-3.8-3.8s-3.8,1.7-3.8,3.8S285.2,499.5,287.3,499.5"/>
		<path class="st8" d="M285.5,496.1l0.3,0c0,0.1,0,0.2,0.1,0.2s0.1,0.1,0.2,0.1c0.1,0,0.1,0,0.2-0.1c0-0.1,0.1-0.2,0.1-0.3
			c0-0.1,0-0.2-0.1-0.3s-0.1-0.1-0.2-0.1c-0.1,0-0.2,0-0.2,0.1l-0.3,0l0.2-1.1h0.9v0.4h-0.6l0,0.4c0.1,0,0.1-0.1,0.2-0.1
			c0.1,0,0.3,0.1,0.4,0.2s0.1,0.3,0.1,0.5c0,0.2,0,0.3-0.1,0.5c-0.1,0.2-0.3,0.3-0.5,0.3c-0.2,0-0.3,0-0.4-0.2
			C285.6,496.4,285.5,496.3,285.5,496.1"/>
		<path class="st8" d="M287.4,495.9v-0.7l-0.4,0.7H287.4z M287.4,496.6v-0.4h-0.7v-0.4l0.7-1.3h0.3v1.3h0.2v0.4h-0.2v0.4
			L287.4,496.6L287.4,496.6z"/>
		<path class="st8" d="M288.9,496.6h-0.3v-1.5c-0.1,0.1-0.3,0.2-0.4,0.3v-0.4c0.1,0,0.2-0.1,0.3-0.2s0.2-0.2,0.2-0.3h0.3V496.6
			L288.9,496.6z"/>
		<path class="st1" d="M313.3,499.5c2.1,0,3.8-1.7,3.8-3.8s-1.7-3.8-3.8-3.8s-3.8,1.7-3.8,3.8S311.1,499.5,313.3,499.5"/>
		<path class="st8" d="M311.4,496.1l0.3,0c0,0.1,0,0.2,0.1,0.2s0.1,0.1,0.2,0.1c0.1,0,0.1,0,0.2-0.1c0-0.1,0.1-0.2,0.1-0.3
			c0-0.1,0-0.2-0.1-0.3s-0.1-0.1-0.2-0.1c-0.1,0-0.2,0-0.2,0.1l-0.3,0l0.2-1.1h0.9v0.4h-0.6l0,0.4c0.1,0,0.1-0.1,0.2-0.1
			c0.1,0,0.3,0.1,0.4,0.2s0.1,0.3,0.1,0.5c0,0.2,0,0.3-0.1,0.5c-0.1,0.2-0.3,0.3-0.5,0.3c-0.2,0-0.3,0-0.4-0.2
			C311.5,496.4,311.4,496.3,311.4,496.1"/>
		<path class="st8" d="M313.3,495.9v-0.7l-0.4,0.7H313.3z M313.3,496.6v-0.4h-0.7v-0.4l0.7-1.3h0.3v1.3h0.2v0.4h-0.2v0.4
			L313.3,496.6L313.3,496.6z"/>
		<path class="st8" d="M314.5,494.9c0,0-0.1,0-0.1,0s0,0.1-0.1,0.2c0,0.1,0,0.3,0,0.5s0,0.4,0,0.5c0,0.1,0,0.1,0.1,0.2s0.1,0,0.1,0
			s0.1,0,0.1,0s0-0.1,0.1-0.2c0-0.1,0-0.3,0-0.5s0-0.4,0-0.5c0-0.1,0-0.1-0.1-0.2C314.6,494.9,314.6,494.9,314.5,494.9 M314.5,494.5
			c0.2,0,0.3,0.1,0.4,0.2c0.1,0.2,0.2,0.5,0.2,0.9s-0.1,0.7-0.2,0.9c-0.1,0.1-0.2,0.2-0.4,0.2s-0.3-0.1-0.4-0.2s-0.1-0.4-0.1-0.8
			s0.1-0.7,0.2-0.9C314.3,494.6,314.4,494.5,314.5,494.5"/>
		<path class="st1" d="M329.3,499.5c2.1,0,3.8-1.7,3.8-3.8s-1.7-3.8-3.8-3.8s-3.8,1.7-3.8,3.8S327.2,499.5,329.3,499.5"/>
		<path class="st8" d="M327.5,496.1l0.3,0c0,0.1,0,0.2,0.1,0.2s0.1,0.1,0.2,0.1c0.1,0,0.1,0,0.2-0.1s0.1-0.2,0.1-0.3
			c0-0.1,0-0.2-0.1-0.3s-0.1-0.1-0.2-0.1c-0.1,0-0.2,0-0.2,0.1l-0.3,0l0.2-1.1h0.9v0.4h-0.6l0,0.4c0.1,0,0.1-0.1,0.2-0.1
			c0.1,0,0.3,0.1,0.4,0.2s0.1,0.3,0.1,0.5c0,0.2,0,0.3-0.1,0.5c-0.1,0.2-0.3,0.3-0.5,0.3c-0.2,0-0.3,0-0.4-0.2
			C327.6,496.4,327.5,496.3,327.5,496.1"/>
		<path class="st8" d="M328.7,496.1l0.3,0c0,0.1,0,0.2,0.1,0.2c0,0,0.1,0.1,0.2,0.1c0.1,0,0.1,0,0.2-0.1c0-0.1,0.1-0.1,0.1-0.3
			c0-0.1,0-0.2-0.1-0.2c0-0.1-0.1-0.1-0.2-0.1c0,0-0.1,0-0.1,0l0-0.3c0.1,0,0.1,0,0.2-0.1c0,0,0.1-0.1,0.1-0.2c0-0.1,0-0.1,0-0.2
			s-0.1-0.1-0.1-0.1s-0.1,0-0.1,0.1c0,0-0.1,0.1-0.1,0.2l-0.3-0.1c0-0.1,0-0.2,0.1-0.3s0.1-0.1,0.2-0.2c0.1,0,0.2-0.1,0.2-0.1
			c0.2,0,0.3,0.1,0.4,0.2c0.1,0.1,0.1,0.2,0.1,0.4c0,0.2-0.1,0.3-0.2,0.4c0.1,0,0.2,0.1,0.2,0.2s0.1,0.2,0.1,0.3
			c0,0.2-0.1,0.3-0.2,0.5c-0.1,0.1-0.2,0.2-0.4,0.2c-0.1,0-0.3,0-0.4-0.2C328.8,496.4,328.8,496.2,328.7,496.1"/>
		<path class="st8" d="M330.8,495.3c0-0.1,0-0.2-0.1-0.3c0-0.1-0.1-0.1-0.2-0.1s-0.1,0-0.1,0.1s-0.1,0.1-0.1,0.3s0,0.2,0.1,0.3
			c0,0.1,0.1,0.1,0.2,0.1s0.1,0,0.2-0.1S330.8,495.4,330.8,495.3 M330.1,496.2l0.3,0c0,0.1,0,0.1,0.1,0.2c0,0,0.1,0.1,0.1,0.1
			c0.1,0,0.1,0,0.2-0.1s0.1-0.2,0.1-0.5c-0.1,0.1-0.2,0.2-0.3,0.2s-0.2-0.1-0.4-0.2s-0.1-0.3-0.1-0.5s0-0.4,0.1-0.5
			c0.1-0.1,0.2-0.2,0.4-0.2c0.2,0,0.3,0.1,0.4,0.2c0.1,0.2,0.2,0.4,0.2,0.8s-0.1,0.7-0.2,0.8c-0.1,0.2-0.3,0.3-0.5,0.3
			c-0.1,0-0.2,0-0.3-0.1C330.1,496.5,330.1,496.4,330.1,496.2"/>
		<path class="st1" d="M354.7,499.5c2.1,0,3.8-1.7,3.8-3.8s-1.7-3.8-3.8-3.8s-3.8,1.7-3.8,3.8S352.6,499.5,354.7,499.5"/>
		<path class="st8" d="M352.8,496.1l0.3,0c0,0.1,0,0.2,0.1,0.2s0.1,0.1,0.2,0.1c0.1,0,0.1,0,0.2-0.1c0-0.1,0.1-0.2,0.1-0.3
			c0-0.1,0-0.2-0.1-0.3s-0.1-0.1-0.2-0.1c-0.1,0-0.2,0-0.2,0.1l-0.3,0l0.2-1.1h0.9v0.4h-0.6l0,0.4c0.1,0,0.1-0.1,0.2-0.1
			c0.1,0,0.3,0.1,0.4,0.2s0.1,0.3,0.1,0.5c0,0.2,0,0.3-0.1,0.5c-0.1,0.2-0.3,0.3-0.5,0.3c-0.2,0-0.3,0-0.4-0.2
			C352.9,496.4,352.9,496.3,352.8,496.1"/>
		<path class="st8" d="M354.1,496.1l0.3,0c0,0.1,0,0.2,0.1,0.2c0,0,0.1,0.1,0.2,0.1c0.1,0,0.1,0,0.2-0.1c0-0.1,0.1-0.1,0.1-0.3
			c0-0.1,0-0.2-0.1-0.2c0-0.1-0.1-0.1-0.2-0.1c0,0-0.1,0-0.1,0l0-0.3c0.1,0,0.1,0,0.2-0.1c0,0,0.1-0.1,0.1-0.2c0-0.1,0-0.1,0-0.2
			s-0.1-0.1-0.1-0.1s-0.1,0-0.1,0.1s-0.1,0.1-0.1,0.2l-0.3-0.1c0-0.1,0-0.2,0.1-0.3s0.1-0.1,0.2-0.2c0.1,0,0.2-0.1,0.2-0.1
			c0.2,0,0.3,0.1,0.4,0.2c0.1,0.1,0.1,0.2,0.1,0.4c0,0.2-0.1,0.3-0.2,0.4c0.1,0,0.2,0.1,0.2,0.2s0.1,0.2,0.1,0.3
			c0,0.2-0.1,0.3-0.2,0.5c-0.1,0.1-0.2,0.2-0.4,0.2c-0.1,0-0.3,0-0.4-0.2C354.2,496.4,354.1,496.2,354.1,496.1"/>
		<path class="st8" d="M355.7,496c0,0.1,0,0.2,0.1,0.3c0,0.1,0.1,0.1,0.2,0.1s0.1,0,0.2-0.1c0-0.1,0.1-0.1,0.1-0.3
			c0-0.1,0-0.2-0.1-0.2c0-0.1-0.1-0.1-0.2-0.1c-0.1,0-0.1,0-0.2,0.1C355.7,495.9,355.7,495.9,355.7,496 M355.8,495.1
			c0,0.1,0,0.1,0,0.2c0,0,0.1,0.1,0.1,0.1s0.1,0,0.1-0.1c0,0,0-0.1,0-0.2s0-0.1,0-0.2c0,0-0.1-0.1-0.1-0.1s-0.1,0-0.1,0.1
			C355.8,495,355.7,495,355.8,495.1 M355.7,495.5c-0.1,0-0.1-0.1-0.2-0.2c0-0.1-0.1-0.2-0.1-0.2c0-0.2,0-0.3,0.1-0.4
			c0.1-0.1,0.2-0.1,0.4-0.1s0.3,0,0.4,0.1s0.1,0.2,0.1,0.4c0,0.1,0,0.2-0.1,0.3c0,0.1-0.1,0.1-0.2,0.2c0.1,0,0.2,0.1,0.2,0.2
			s0.1,0.2,0.1,0.3c0,0.2,0,0.4-0.1,0.5s-0.2,0.2-0.4,0.2c-0.1,0-0.3,0-0.4-0.1c-0.1-0.1-0.2-0.3-0.2-0.5c0-0.1,0-0.2,0.1-0.3
			C355.5,495.6,355.6,495.6,355.7,495.5"/>
		<path class="st1" d="M381.3,499.5c2.1,0,3.8-1.7,3.8-3.8s-1.7-3.8-3.8-3.8s-3.8,1.7-3.8,3.8S379.2,499.5,381.3,499.5"/>
		<path class="st8" d="M379.4,496.1l0.3,0c0,0.1,0,0.2,0.1,0.2s0.1,0.1,0.2,0.1c0.1,0,0.1,0,0.2-0.1s0.1-0.2,0.1-0.3
			c0-0.1,0-0.2-0.1-0.3s-0.1-0.1-0.2-0.1c-0.1,0-0.2,0-0.2,0.1l-0.3,0l0.2-1.1h0.9v0.4h-0.6l0,0.4c0.1,0,0.1-0.1,0.2-0.1
			c0.1,0,0.3,0.1,0.4,0.2s0.1,0.3,0.1,0.5c0,0.2,0,0.3-0.1,0.5c-0.1,0.2-0.3,0.3-0.5,0.3c-0.2,0-0.3,0-0.4-0.2
			C379.5,496.4,379.5,496.3,379.4,496.1"/>
		<path class="st8" d="M380.7,496.1l0.3,0c0,0.1,0,0.2,0.1,0.2c0,0,0.1,0.1,0.2,0.1c0.1,0,0.1,0,0.2-0.1c0-0.1,0.1-0.1,0.1-0.3
			c0-0.1,0-0.2-0.1-0.2c0-0.1-0.1-0.1-0.2-0.1c0,0-0.1,0-0.1,0l0-0.3c0.1,0,0.1,0,0.2-0.1c0,0,0.1-0.1,0.1-0.2c0-0.1,0-0.1,0-0.2
			s-0.1-0.1-0.1-0.1s-0.1,0-0.1,0.1s-0.1,0.1-0.1,0.2l-0.3-0.1c0-0.1,0-0.2,0.1-0.3s0.1-0.1,0.2-0.2c0.1,0,0.2-0.1,0.2-0.1
			c0.2,0,0.3,0.1,0.4,0.2c0.1,0.1,0.1,0.2,0.1,0.4c0,0.2-0.1,0.3-0.2,0.4c0.1,0,0.2,0.1,0.2,0.2s0.1,0.2,0.1,0.3
			c0,0.2-0.1,0.3-0.2,0.5c-0.1,0.1-0.2,0.2-0.4,0.2c-0.1,0-0.3,0-0.4-0.2C380.8,496.4,380.7,496.2,380.7,496.1"/>
		<path class="st8" d="M382,495v-0.4h1.1v0.3c-0.1,0.1-0.2,0.3-0.3,0.5c-0.1,0.2-0.2,0.4-0.2,0.7c0,0.2-0.1,0.5-0.1,0.6h-0.3
			c0-0.3,0-0.6,0.1-0.9c0.1-0.3,0.2-0.6,0.4-0.8L382,495L382,495z"/>
		<path class="st1" d="M415.4,499.5c2.1,0,3.8-1.7,3.8-3.8s-1.7-3.8-3.8-3.8s-3.8,1.7-3.8,3.8S413.3,499.5,415.4,499.5"/>
		<path class="st8" d="M413.5,496.1l0.3,0c0,0.1,0,0.2,0.1,0.2s0.1,0.1,0.2,0.1c0.1,0,0.1,0,0.2-0.1c0-0.1,0.1-0.2,0.1-0.3
			c0-0.1,0-0.2-0.1-0.3s-0.1-0.1-0.2-0.1c-0.1,0-0.2,0-0.2,0.1l-0.3,0l0.2-1.1h0.9v0.4H414l0,0.4c0.1,0,0.1-0.1,0.2-0.1
			c0.1,0,0.3,0.1,0.4,0.2s0.1,0.3,0.1,0.5c0,0.2,0,0.3-0.1,0.5c-0.1,0.2-0.3,0.3-0.5,0.3c-0.2,0-0.3,0-0.4-0.2
			C413.6,496.4,413.6,496.3,413.5,496.1"/>
		<path class="st8" d="M414.8,496.1l0.3,0c0,0.1,0,0.2,0.1,0.2c0,0,0.1,0.1,0.2,0.1c0.1,0,0.1,0,0.2-0.1c0-0.1,0.1-0.1,0.1-0.3
			c0-0.1,0-0.2-0.1-0.2c0-0.1-0.1-0.1-0.2-0.1c0,0-0.1,0-0.1,0l0-0.3c0.1,0,0.1,0,0.2-0.1c0,0,0.1-0.1,0.1-0.2c0-0.1,0-0.1,0-0.2
			s-0.1-0.1-0.1-0.1s-0.1,0-0.1,0.1s-0.1,0.1-0.1,0.2l-0.3-0.1c0-0.1,0-0.2,0.1-0.3s0.1-0.1,0.2-0.2c0.1,0,0.2-0.1,0.2-0.1
			c0.2,0,0.3,0.1,0.4,0.2c0.1,0.1,0.1,0.2,0.1,0.4c0,0.2-0.1,0.3-0.2,0.4c0.1,0,0.2,0.1,0.2,0.2s0.1,0.2,0.1,0.3
			c0,0.2-0.1,0.3-0.2,0.5c-0.1,0.1-0.2,0.2-0.4,0.2c-0.1,0-0.3,0-0.4-0.2C414.9,496.4,414.8,496.2,414.8,496.1"/>
		<path class="st8" d="M416.5,495.9c0,0.1,0,0.2,0.1,0.3c0,0.1,0.1,0.1,0.2,0.1s0.1,0,0.1-0.1s0.1-0.1,0.1-0.3s0-0.2-0.1-0.3
			c0-0.1-0.1-0.1-0.2-0.1s-0.1,0-0.2,0.1S416.5,495.8,416.5,495.9 M417.2,495l-0.3,0c0-0.1,0-0.1-0.1-0.2c0,0-0.1-0.1-0.1-0.1
			c-0.1,0-0.1,0-0.2,0.1c0,0.1-0.1,0.2-0.1,0.5c0.1-0.1,0.2-0.2,0.3-0.2c0.1,0,0.2,0.1,0.4,0.2s0.1,0.3,0.1,0.5s0,0.4-0.1,0.5
			c-0.1,0.1-0.2,0.2-0.4,0.2c-0.2,0-0.3-0.1-0.4-0.2c-0.1-0.2-0.2-0.4-0.2-0.8s0.1-0.7,0.2-0.8c0.1-0.2,0.3-0.3,0.5-0.3
			c0.1,0,0.2,0,0.3,0.1C417.1,494.7,417.2,494.9,417.2,495"/>
		<path class="st1" d="M467.4,499.5c2.1,0,3.8-1.7,3.8-3.8s-1.7-3.8-3.8-3.8s-3.8,1.7-3.8,3.8S465.3,499.5,467.4,499.5"/>
		<path class="st8" d="M465.5,496.1l0.3,0c0,0.1,0,0.2,0.1,0.2s0.1,0.1,0.2,0.1c0.1,0,0.1,0,0.2-0.1c0-0.1,0.1-0.2,0.1-0.3
			c0-0.1,0-0.2-0.1-0.3s-0.1-0.1-0.2-0.1c-0.1,0-0.2,0-0.2,0.1l-0.3,0l0.2-1.1h0.9v0.4H466l0,0.4c0.1,0,0.1-0.1,0.2-0.1
			c0.1,0,0.3,0.1,0.4,0.2s0.1,0.3,0.1,0.5c0,0.2,0,0.3-0.1,0.5c-0.1,0.2-0.3,0.3-0.5,0.3c-0.2,0-0.3,0-0.4-0.2
			C465.6,496.4,465.5,496.3,465.5,496.1"/>
		<path class="st8" d="M466.8,496.1l0.3,0c0,0.1,0,0.2,0.1,0.2c0,0,0.1,0.1,0.2,0.1c0.1,0,0.1,0,0.2-0.1c0-0.1,0.1-0.1,0.1-0.3
			c0-0.1,0-0.2-0.1-0.2c0-0.1-0.1-0.1-0.2-0.1c0,0-0.1,0-0.1,0l0-0.3c0.1,0,0.1,0,0.2-0.1c0,0,0.1-0.1,0.1-0.2c0-0.1,0-0.1,0-0.2
			c0,0-0.1-0.1-0.1-0.1s-0.1,0-0.1,0.1s-0.1,0.1-0.1,0.2l-0.3-0.1c0-0.1,0-0.2,0.1-0.3s0.1-0.1,0.2-0.2c0.1,0,0.2-0.1,0.2-0.1
			c0.2,0,0.3,0.1,0.4,0.2c0.1,0.1,0.1,0.2,0.1,0.4c0,0.2-0.1,0.3-0.2,0.4c0.1,0,0.2,0.1,0.2,0.2s0.1,0.2,0.1,0.3
			c0,0.2-0.1,0.3-0.2,0.5c-0.1,0.1-0.2,0.2-0.4,0.2c-0.1,0-0.3,0-0.4-0.2C466.9,496.4,466.8,496.2,466.8,496.1"/>
		<path class="st8" d="M468.5,495.9c0,0.1,0,0.2,0.1,0.3c0,0.1,0.1,0.1,0.2,0.1s0.1,0,0.1-0.1s0.1-0.1,0.1-0.3s0-0.2-0.1-0.3
			c0-0.1-0.1-0.1-0.2-0.1s-0.1,0-0.2,0.1C468.5,495.7,468.4,495.8,468.5,495.9 M469.2,495l-0.3,0c0-0.1,0-0.1-0.1-0.2
			c0,0-0.1-0.1-0.1-0.1c-0.1,0-0.1,0-0.2,0.1c0,0.1-0.1,0.2-0.1,0.5c0.1-0.1,0.2-0.2,0.3-0.2c0.1,0,0.2,0.1,0.4,0.2s0.1,0.3,0.1,0.5
			s0,0.4-0.1,0.5c-0.1,0.1-0.2,0.2-0.4,0.2c-0.2,0-0.3-0.1-0.4-0.2c-0.1-0.2-0.2-0.4-0.2-0.8s0.1-0.7,0.2-0.8
			c0.1-0.2,0.3-0.3,0.5-0.3c0.1,0,0.2,0,0.3,0.1C469.1,494.7,469.2,494.9,469.2,495"/>
		<path class="st1" d="M558.6,499.5c2.1,0,3.8-1.7,3.8-3.8s-1.7-3.8-3.8-3.8s-3.8,1.7-3.8,3.8S556.5,499.5,558.6,499.5"/>
		<path class="st8" d="M556.7,496.1l0.3,0c0,0.1,0,0.2,0.1,0.2c0,0,0.1,0.1,0.2,0.1c0.1,0,0.1,0,0.2-0.1c0-0.1,0.1-0.2,0.1-0.3
			c0-0.1,0-0.2-0.1-0.3s-0.1-0.1-0.2-0.1c-0.1,0-0.2,0-0.2,0.1l-0.3,0l0.2-1.1h0.9v0.4h-0.6l0,0.4c0.1,0,0.2-0.1,0.2-0.1
			c0.2,0,0.3,0.1,0.4,0.2s0.2,0.3,0.2,0.5c0,0.2,0,0.3-0.1,0.5c-0.1,0.2-0.3,0.3-0.5,0.3c-0.2,0-0.3,0-0.4-0.2
			C556.8,496.4,556.8,496.3,556.7,496.1"/>
		<path class="st8" d="M558,496.1l0.3,0c0,0.1,0,0.2,0.1,0.2c0,0,0.1,0.1,0.2,0.1c0.1,0,0.1,0,0.2-0.1s0.1-0.1,0.1-0.3
			c0-0.1,0-0.2-0.1-0.2c0-0.1-0.1-0.1-0.2-0.1c0,0-0.1,0-0.2,0l0-0.3c0.1,0,0.2,0,0.2-0.1c0,0,0.1-0.1,0.1-0.2c0-0.1,0-0.1,0-0.2
			c0,0-0.1-0.1-0.1-0.1s-0.1,0-0.1,0.1s-0.1,0.1-0.1,0.2l-0.3-0.1c0-0.1,0-0.2,0.1-0.3c0-0.1,0.1-0.1,0.2-0.2c0.1,0,0.2-0.1,0.2-0.1
			c0.2,0,0.3,0.1,0.4,0.2c0.1,0.1,0.1,0.2,0.1,0.4c0,0.2-0.1,0.3-0.2,0.4c0.1,0,0.2,0.1,0.2,0.2c0.1,0.1,0.1,0.2,0.1,0.3
			c0,0.2,0,0.3-0.2,0.5s-0.2,0.2-0.4,0.2c-0.2,0-0.3,0-0.4-0.2C558.1,496.4,558,496.2,558,496.1"/>
		<path class="st8" d="M559.3,496.1l0.3,0c0,0.1,0,0.2,0.1,0.2c0,0,0.1,0.1,0.2,0.1c0.1,0,0.1,0,0.2-0.1c0-0.1,0.1-0.2,0.1-0.3
			c0-0.1,0-0.2-0.1-0.3s-0.1-0.1-0.2-0.1c-0.1,0-0.2,0-0.2,0.1l-0.3,0l0.2-1.1h0.9v0.4h-0.6l0,0.4c0.1,0,0.2-0.1,0.2-0.1
			c0.2,0,0.3,0.1,0.4,0.2s0.2,0.3,0.2,0.5c0,0.2,0,0.3-0.1,0.5c-0.1,0.2-0.3,0.3-0.5,0.3c-0.2,0-0.3,0-0.4-0.2
			C559.4,496.4,559.4,496.3,559.3,496.1"/>
		<path class="st1" d="M654.3,499.5c2.1,0,3.8-1.7,3.8-3.8s-1.7-3.8-3.8-3.8s-3.8,1.7-3.8,3.8S652.2,499.5,654.3,499.5"/>
		<path class="st8" d="M652.4,496.1l0.3,0c0,0.1,0,0.2,0.1,0.2c0,0,0.1,0.1,0.2,0.1c0.1,0,0.1,0,0.2-0.1c0-0.1,0.1-0.2,0.1-0.3
			c0-0.1,0-0.2-0.1-0.3s-0.1-0.1-0.2-0.1c-0.1,0-0.2,0-0.2,0.1l-0.3,0l0.2-1.1h0.9v0.4h-0.6l0,0.4c0.1,0,0.2-0.1,0.2-0.1
			c0.2,0,0.3,0.1,0.4,0.2s0.2,0.3,0.2,0.5c0,0.2,0,0.3-0.1,0.5c-0.1,0.2-0.3,0.3-0.5,0.3c-0.2,0-0.3,0-0.4-0.2
			C652.5,496.4,652.5,496.3,652.4,496.1"/>
		<path class="st8" d="M653.7,496.1l0.3,0c0,0.1,0,0.2,0.1,0.2c0,0,0.1,0.1,0.2,0.1c0.1,0,0.1,0,0.2-0.1s0.1-0.1,0.1-0.3
			c0-0.1,0-0.2-0.1-0.2c0-0.1-0.1-0.1-0.2-0.1c0,0-0.1,0-0.2,0l0-0.3c0.1,0,0.2,0,0.2-0.1c0,0,0.1-0.1,0.1-0.2c0-0.1,0-0.1,0-0.2
			c0,0-0.1-0.1-0.1-0.1s-0.1,0-0.1,0.1s-0.1,0.1-0.1,0.2l-0.3-0.1c0-0.1,0-0.2,0.1-0.3c0-0.1,0.1-0.1,0.2-0.2c0.1,0,0.2-0.1,0.2-0.1
			c0.2,0,0.3,0.1,0.4,0.2c0.1,0.1,0.1,0.2,0.1,0.4c0,0.2-0.1,0.3-0.2,0.4c0.1,0,0.2,0.1,0.2,0.2c0.1,0.1,0.1,0.2,0.1,0.3
			c0,0.2,0,0.3-0.2,0.5s-0.2,0.2-0.4,0.2c-0.2,0-0.3,0-0.4-0.2C653.8,496.4,653.7,496.2,653.7,496.1"/>
		<path class="st8" d="M655.7,495.9v-0.7l-0.4,0.7H655.7z M655.7,496.6v-0.4H655v-0.4l0.7-1.3h0.3v1.3h0.2v0.4H656v0.4L655.7,496.6
			L655.7,496.6z"/>
		<path class="st1" d="M699.6,499.5c2.1,0,3.8-1.7,3.8-3.8s-1.7-3.8-3.8-3.8s-3.8,1.7-3.8,3.8S697.5,499.5,699.6,499.5"/>
		<path class="st8" d="M696.8,496.1l0.3,0c0,0.1,0,0.2,0.1,0.2c0,0,0.1,0.1,0.2,0.1c0.1,0,0.1,0,0.2-0.1c0-0.1,0.1-0.2,0.1-0.3
			c0-0.1,0-0.2-0.1-0.3s-0.1-0.1-0.2-0.1c-0.1,0-0.2,0-0.2,0.1l-0.3,0l0.2-1.1h0.9v0.4h-0.6l0,0.4c0.1,0,0.2-0.1,0.2-0.1
			c0.2,0,0.3,0.1,0.4,0.2s0.2,0.3,0.2,0.5c0,0.2,0,0.3-0.1,0.5c-0.1,0.2-0.3,0.3-0.5,0.3c-0.2,0-0.3,0-0.4-0.2
			C696.9,496.4,696.8,496.3,696.8,496.1"/>
		<path class="st8" d="M698,496.1l0.3,0c0,0.1,0,0.2,0.1,0.2c0,0,0.1,0.1,0.2,0.1c0.1,0,0.1,0,0.2-0.1s0.1-0.1,0.1-0.3
			c0-0.1,0-0.2-0.1-0.2c0-0.1-0.1-0.1-0.2-0.1c0,0-0.1,0-0.2,0l0-0.3c0.1,0,0.2,0,0.2-0.1c0,0,0.1-0.1,0.1-0.2c0-0.1,0-0.1,0-0.2
			c0,0-0.1-0.1-0.1-0.1s-0.1,0-0.1,0.1s-0.1,0.1-0.1,0.2l-0.3-0.1c0-0.1,0-0.2,0.1-0.3c0-0.1,0.1-0.1,0.2-0.2c0.1,0,0.2-0.1,0.2-0.1
			c0.2,0,0.3,0.1,0.4,0.2c0.1,0.1,0.1,0.2,0.1,0.4c0,0.2-0.1,0.3-0.2,0.4c0.1,0,0.2,0.1,0.2,0.2c0.1,0.1,0.1,0.2,0.1,0.3
			c0,0.2,0,0.3-0.2,0.5s-0.2,0.2-0.4,0.2c-0.2,0-0.3,0-0.4-0.2C698.1,496.4,698.1,496.2,698,496.1"/>
		<path class="st8" d="M700,495.9v-0.7l-0.4,0.7H700z M700,496.6v-0.4h-0.7v-0.4l0.7-1.3h0.3v1.3h0.2v0.4h-0.2v0.4L700,496.6
			L700,496.6z"/>
		<path class="st8" d="M701.7,495.8l-0.2-0.8l-0.2,0.8H701.7z M702.3,496.6h-0.4l-0.2-0.5h-0.7l-0.1,0.5h-0.4l0.7-2.1h0.4
			L702.3,496.6L702.3,496.6z"/>
		<path class="st1" d="M726.2,499.5c2.1,0,3.8-1.7,3.8-3.8s-1.7-3.8-3.8-3.8s-3.8,1.7-3.8,3.8S724.1,499.5,726.2,499.5"/>
		<path class="st8" d="M724.4,496.1l0.3,0c0,0.1,0,0.2,0.1,0.2c0,0,0.1,0.1,0.2,0.1c0.1,0,0.1,0,0.2-0.1c0-0.1,0.1-0.2,0.1-0.3
			c0-0.1,0-0.2-0.1-0.3s-0.1-0.1-0.2-0.1c-0.1,0-0.2,0-0.2,0.1l-0.3,0l0.2-1.1h0.9v0.4h-0.6l0,0.4c0.1,0,0.2-0.1,0.2-0.1
			c0.2,0,0.3,0.1,0.4,0.2s0.2,0.3,0.2,0.5c0,0.2,0,0.3-0.1,0.5c-0.1,0.2-0.3,0.3-0.5,0.3c-0.2,0-0.3,0-0.4-0.2
			C724.5,496.4,724.4,496.3,724.4,496.1"/>
		<path class="st8" d="M725.6,496.1l0.3,0c0,0.1,0,0.2,0.1,0.2c0,0,0.1,0.1,0.2,0.1c0.1,0,0.1,0,0.2-0.1s0.1-0.1,0.1-0.3
			c0-0.1,0-0.2-0.1-0.2c0-0.1-0.1-0.1-0.2-0.1c0,0-0.1,0-0.2,0l0-0.3c0.1,0,0.2,0,0.2-0.1c0,0,0.1-0.1,0.1-0.2c0-0.1,0-0.1,0-0.2
			c0,0-0.1-0.1-0.1-0.1s-0.1,0-0.1,0.1s-0.1,0.1-0.1,0.2l-0.3-0.1c0-0.1,0-0.2,0.1-0.3c0-0.1,0.1-0.1,0.2-0.2c0.1,0,0.2-0.1,0.2-0.1
			c0.2,0,0.3,0.1,0.4,0.2c0.1,0.1,0.1,0.2,0.1,0.4c0,0.2-0.1,0.3-0.2,0.4c0.1,0,0.2,0.1,0.2,0.2c0.1,0.1,0.1,0.2,0.1,0.3
			c0,0.2,0,0.3-0.2,0.5s-0.2,0.2-0.4,0.2c-0.2,0-0.3,0-0.4-0.2C725.7,496.4,725.7,496.2,725.6,496.1"/>
		<path class="st8" d="M726.9,496.1l0.3,0c0,0.1,0,0.2,0.1,0.2c0,0,0.1,0.1,0.2,0.1c0.1,0,0.1,0,0.2-0.1s0.1-0.1,0.1-0.3
			c0-0.1,0-0.2-0.1-0.2c0-0.1-0.1-0.1-0.2-0.1c0,0-0.1,0-0.2,0l0-0.3c0.1,0,0.2,0,0.2-0.1c0,0,0.1-0.1,0.1-0.2c0-0.1,0-0.1,0-0.2
			c0,0-0.1-0.1-0.1-0.1s-0.1,0-0.1,0.1s-0.1,0.1-0.1,0.2l-0.3-0.1c0-0.1,0-0.2,0.1-0.3c0-0.1,0.1-0.1,0.2-0.2c0.1,0,0.2-0.1,0.2-0.1
			c0.2,0,0.3,0.1,0.4,0.2c0.1,0.1,0.1,0.2,0.1,0.4c0,0.2-0.1,0.3-0.2,0.4c0.1,0,0.2,0.1,0.2,0.2c0.1,0.1,0.1,0.2,0.1,0.3
			c0,0.2,0,0.3-0.2,0.5s-0.2,0.2-0.4,0.2c-0.2,0-0.3,0-0.4-0.2C727,496.4,727,496.2,726.9,496.1"/>
		<path class="st1" d="M743.1,499.5c2.1,0,3.8-1.7,3.8-3.8s-1.7-3.8-3.8-3.8s-3.8,1.7-3.8,3.8S741,499.5,743.1,499.5"/>
		<path class="st8" d="M741.2,496.1l0.3,0c0,0.1,0,0.2,0.1,0.2c0,0,0.1,0.1,0.2,0.1c0.1,0,0.1,0,0.2-0.1s0.1-0.2,0.1-0.3
			c0-0.1,0-0.2-0.1-0.3s-0.1-0.1-0.2-0.1c-0.1,0-0.2,0-0.2,0.1l-0.3,0l0.2-1.1h0.9v0.4h-0.6l0,0.4c0.1,0,0.2-0.1,0.2-0.1
			c0.2,0,0.3,0.1,0.4,0.2s0.2,0.3,0.2,0.5c0,0.2,0,0.3-0.1,0.5c-0.1,0.2-0.3,0.3-0.5,0.3c-0.2,0-0.3,0-0.4-0.2
			C741.3,496.4,741.2,496.3,741.2,496.1"/>
		<path class="st8" d="M742.5,496.1l0.3,0c0,0.1,0,0.2,0.1,0.2c0,0,0.1,0.1,0.2,0.1c0.1,0,0.1,0,0.2-0.1s0.1-0.1,0.1-0.3
			c0-0.1,0-0.2-0.1-0.2c0-0.1-0.1-0.1-0.2-0.1c0,0-0.1,0-0.2,0l0-0.3c0.1,0,0.2,0,0.2-0.1c0,0,0.1-0.1,0.1-0.2c0-0.1,0-0.1,0-0.2
			c0,0-0.1-0.1-0.1-0.1s-0.1,0-0.1,0.1c0,0-0.1,0.1-0.1,0.2l-0.3-0.1c0-0.1,0-0.2,0.1-0.3c0-0.1,0.1-0.1,0.2-0.2
			c0.1,0,0.2-0.1,0.2-0.1c0.2,0,0.3,0.1,0.4,0.2c0.1,0.1,0.1,0.2,0.1,0.4c0,0.2-0.1,0.3-0.2,0.4c0.1,0,0.2,0.1,0.2,0.2
			c0.1,0.1,0.1,0.2,0.1,0.3c0,0.2,0,0.3-0.2,0.5s-0.2,0.2-0.4,0.2c-0.2,0-0.3,0-0.4-0.2C742.6,496.4,742.5,496.2,742.5,496.1"/>
		<path class="st8" d="M744.9,496.3v0.4h-1.1c0-0.1,0-0.3,0.1-0.4c0.1-0.1,0.2-0.3,0.4-0.5c0.2-0.2,0.2-0.3,0.3-0.3
			c0-0.1,0.1-0.2,0.1-0.2s0-0.2-0.1-0.2s-0.1-0.1-0.2-0.1s-0.1,0-0.2,0.1s-0.1,0.1-0.1,0.2l-0.3,0c0-0.2,0.1-0.4,0.2-0.5
			s0.2-0.1,0.4-0.1c0.2,0,0.3,0.1,0.4,0.2s0.1,0.2,0.1,0.4c0,0.1,0,0.2,0,0.3c0,0.1-0.1,0.2-0.1,0.3c0,0.1-0.1,0.1-0.2,0.3
			c-0.1,0.1-0.2,0.2-0.2,0.2s0,0.1-0.1,0.1L744.9,496.3L744.9,496.3z"/>
		<path class="st1" d="M768.4,499.5c2.1,0,3.8-1.7,3.8-3.8s-1.7-3.8-3.8-3.8s-3.8,1.7-3.8,3.8S766.3,499.5,768.4,499.5"/>
		<path class="st8" d="M766.6,496.1l0.3,0c0,0.1,0,0.2,0.1,0.2c0,0,0.1,0.1,0.2,0.1c0.1,0,0.1,0,0.2-0.1c0-0.1,0.1-0.2,0.1-0.3
			c0-0.1,0-0.2-0.1-0.3s-0.1-0.1-0.2-0.1c-0.1,0-0.2,0-0.2,0.1l-0.3,0l0.2-1.1h0.9v0.4H767l0,0.4c0.1,0,0.2-0.1,0.2-0.1
			c0.2,0,0.3,0.1,0.4,0.2s0.2,0.3,0.2,0.5c0,0.2,0,0.3-0.1,0.5c-0.1,0.2-0.3,0.3-0.5,0.3c-0.2,0-0.3,0-0.4-0.2
			C766.7,496.4,766.6,496.3,766.6,496.1"/>
		<path class="st8" d="M767.8,496.1l0.3,0c0,0.1,0,0.2,0.1,0.2c0,0,0.1,0.1,0.2,0.1c0.1,0,0.1,0,0.2-0.1s0.1-0.1,0.1-0.3
			c0-0.1,0-0.2-0.1-0.2c0-0.1-0.1-0.1-0.2-0.1c0,0-0.1,0-0.2,0l0-0.3c0.1,0,0.2,0,0.2-0.1c0,0,0.1-0.1,0.1-0.2c0-0.1,0-0.1,0-0.2
			c0,0-0.1-0.1-0.1-0.1s-0.1,0-0.1,0.1s-0.1,0.1-0.1,0.2l-0.3-0.1c0-0.1,0-0.2,0.1-0.3c0-0.1,0.1-0.1,0.2-0.2c0.1,0,0.2-0.1,0.2-0.1
			c0.2,0,0.3,0.1,0.4,0.2c0.1,0.1,0.1,0.2,0.1,0.4c0,0.2-0.1,0.3-0.2,0.4c0.1,0,0.2,0.1,0.2,0.2c0.1,0.1,0.1,0.2,0.1,0.3
			c0,0.2,0,0.3-0.2,0.5s-0.2,0.2-0.4,0.2c-0.2,0-0.3,0-0.4-0.2C767.9,496.4,767.9,496.2,767.8,496.1"/>
		<path class="st8" d="M770,496.6h-0.3v-1.5c-0.1,0.1-0.3,0.2-0.4,0.3v-0.4c0.1,0,0.2-0.1,0.3-0.2c0.1-0.1,0.2-0.2,0.2-0.3h0.3
			L770,496.6L770,496.6z"/>
		<path class="st1" d="M802.9,499.5c2.1,0,3.8-1.7,3.8-3.8s-1.7-3.8-3.8-3.8s-3.8,1.7-3.8,3.8S800.8,499.5,802.9,499.5"/>
		<path class="st8" d="M800.2,496.1l0.3,0c0,0.1,0,0.2,0.1,0.2c0,0,0.1,0.1,0.2,0.1c0.1,0,0.1,0,0.2-0.1c0-0.1,0.1-0.2,0.1-0.3
			c0-0.1,0-0.2-0.1-0.3s-0.1-0.1-0.2-0.1c-0.1,0-0.2,0-0.2,0.1l-0.3,0l0.2-1.1h0.9v0.4h-0.6l0,0.4c0.1,0,0.2-0.1,0.2-0.1
			c0.2,0,0.3,0.1,0.4,0.2s0.2,0.3,0.2,0.5c0,0.2,0,0.3-0.1,0.5c-0.1,0.2-0.3,0.3-0.5,0.3c-0.2,0-0.3,0-0.4-0.2
			C800.3,496.4,800.2,496.3,800.2,496.1"/>
		<path class="st8" d="M801.5,496.1l0.3,0c0,0.1,0,0.2,0.1,0.2c0,0,0.1,0.1,0.2,0.1c0.1,0,0.1,0,0.2-0.1s0.1-0.1,0.1-0.3
			c0-0.1,0-0.2-0.1-0.2c0-0.1-0.1-0.1-0.2-0.1c0,0-0.1,0-0.2,0l0-0.3c0.1,0,0.2,0,0.2-0.1c0,0,0.1-0.1,0.1-0.2c0-0.1,0-0.1,0-0.2
			c0,0-0.1-0.1-0.1-0.1s-0.1,0-0.1,0.1s-0.1,0.1-0.1,0.2l-0.3-0.1c0-0.1,0-0.2,0.1-0.3c0-0.1,0.1-0.1,0.2-0.2c0.1,0,0.2-0.1,0.2-0.1
			c0.2,0,0.3,0.1,0.4,0.2c0.1,0.1,0.1,0.2,0.1,0.4c0,0.2-0.1,0.3-0.2,0.4c0.1,0,0.2,0.1,0.2,0.2c0.1,0.1,0.1,0.2,0.1,0.3
			c0,0.2,0,0.3-0.2,0.5s-0.2,0.2-0.4,0.2c-0.2,0-0.3,0-0.4-0.2C801.6,496.4,801.5,496.2,801.5,496.1"/>
		<path class="st8" d="M803.3,494.9C803.3,494.9,803.3,494.9,803.3,494.9c-0.1,0.1-0.1,0.1-0.2,0.2c0,0.1,0,0.3,0,0.5s0,0.4,0,0.5
			c0,0.1,0,0.1,0.1,0.2c0,0,0.1,0,0.1,0s0.1,0,0.1,0c0,0,0-0.1,0.1-0.2c0-0.1,0-0.3,0-0.5s0-0.4,0-0.5
			C803.5,495,803.5,494.9,803.3,494.9C803.4,494.9,803.4,494.9,803.3,494.9 M803.3,494.5c0.2,0,0.3,0.1,0.4,0.2
			c0.1,0.2,0.2,0.5,0.2,0.9s0,0.7-0.2,0.9c-0.1,0.1-0.2,0.2-0.4,0.2s-0.3-0.1-0.4-0.2c-0.1-0.2-0.2-0.4-0.2-0.8s0-0.7,0.2-0.9
			C803,494.6,803.2,494.5,803.3,494.5"/>
		<path class="st8" d="M805,495.8l-0.2-0.8l-0.2,0.8H805z M805.7,496.6h-0.4l-0.2-0.5h-0.7l-0.1,0.5H804l0.7-2.1h0.4L805.7,496.6
			L805.7,496.6z"/>
		<path class="st1" d="M872,499.5c2.1,0,3.8-1.7,3.8-3.8s-1.7-3.8-3.8-3.8s-3.8,1.7-3.8,3.8S869.9,499.5,872,499.5"/>
		<path class="st8" d="M870.1,496.1l0.3,0c0,0.1,0,0.2,0.1,0.2c0,0,0.1,0.1,0.2,0.1c0.1,0,0.1,0,0.2-0.1c0-0.1,0.1-0.2,0.1-0.3
			c0-0.1,0-0.2-0.1-0.3s-0.1-0.1-0.2-0.1c-0.1,0-0.2,0-0.2,0.1l-0.3,0l0.2-1.1h0.9v0.4h-0.6l0,0.4c0.1,0,0.2-0.1,0.2-0.1
			c0.2,0,0.3,0.1,0.4,0.2s0.2,0.3,0.2,0.5c0,0.2,0,0.3-0.1,0.5c-0.1,0.2-0.3,0.3-0.5,0.3c-0.2,0-0.3,0-0.4-0.2
			C870.2,496.4,870.1,496.3,870.1,496.1"/>
		<path class="st8" d="M871.4,496.1l0.3,0c0,0.1,0,0.2,0.1,0.2c0,0,0.1,0.1,0.2,0.1c0.1,0,0.1,0,0.2-0.1s0.1-0.1,0.1-0.3
			c0-0.1,0-0.2-0.1-0.2c0-0.1-0.1-0.1-0.2-0.1c0,0-0.1,0-0.2,0l0-0.3c0.1,0,0.2,0,0.2-0.1c0,0,0.1-0.1,0.1-0.2c0-0.1,0-0.1,0-0.2
			c0,0-0.1-0.1-0.1-0.1s-0.1,0-0.1,0.1s-0.1,0.1-0.1,0.2l-0.3-0.1c0-0.1,0-0.2,0.1-0.3c0-0.1,0.1-0.1,0.2-0.2c0.1,0,0.2-0.1,0.2-0.1
			c0.2,0,0.3,0.1,0.4,0.2c0.1,0.1,0.1,0.2,0.1,0.4c0,0.2-0.1,0.3-0.2,0.4c0.1,0,0.2,0.1,0.2,0.2c0.1,0.1,0.1,0.2,0.1,0.3
			c0,0.2,0,0.3-0.2,0.5s-0.2,0.2-0.4,0.2c-0.2,0-0.3,0-0.4-0.2C871.5,496.4,871.4,496.2,871.4,496.1"/>
		<path class="st8" d="M873.2,494.9C873.2,494.9,873.2,494.9,873.2,494.9c-0.1,0.1-0.1,0.1-0.2,0.2c0,0.1,0,0.3,0,0.5s0,0.4,0,0.5
			c0,0.1,0,0.1,0.1,0.2c0,0,0.1,0,0.1,0s0.1,0,0.1,0c0,0,0-0.1,0.1-0.2c0-0.1,0-0.3,0-0.5s0-0.4,0-0.5
			C873.4,495,873.4,494.9,873.2,494.9C873.3,494.9,873.3,494.9,873.2,494.9 M873.2,494.5c0.2,0,0.3,0.1,0.4,0.2
			c0.1,0.2,0.2,0.5,0.2,0.9s-0.1,0.7-0.2,0.9c-0.1,0.1-0.2,0.2-0.4,0.2s-0.3-0.1-0.4-0.2c-0.1-0.2-0.2-0.4-0.2-0.8s0.1-0.7,0.2-0.9
			C873,494.6,873.1,494.5,873.2,494.5"/>
		<path class="st1" d="M905.9,479.1c2.1,0,3.8-1.7,3.8-3.8s-1.7-3.8-3.8-3.8s-3.8,1.7-3.8,3.8S903.8,479.1,905.9,479.1"/>
		<path class="st8" d="M904,475.7l0.3,0c0,0.1,0,0.2,0.1,0.2c0,0,0.1,0.1,0.2,0.1c0.1,0,0.1,0,0.2-0.1s0.1-0.2,0.1-0.3
			c0-0.1,0-0.2-0.1-0.3s-0.1-0.1-0.2-0.1c-0.1,0-0.2,0-0.2,0.1l-0.3,0l0.2-1.1h0.9v0.4h-0.6l0,0.4c0.1,0,0.2-0.1,0.2-0.1
			c0.2,0,0.3,0.1,0.4,0.2s0.2,0.3,0.2,0.5c0,0.2,0,0.3-0.1,0.5c-0.1,0.2-0.3,0.3-0.5,0.3c-0.2,0-0.3,0-0.4-0.2
			C904.1,476,904,475.9,904,475.7"/>
		<path class="st8" d="M906.4,475.9v0.4h-1.1c0-0.1,0-0.3,0.1-0.4c0.1-0.1,0.2-0.3,0.4-0.5c0.2-0.2,0.2-0.3,0.3-0.3
			c0-0.1,0.1-0.2,0.1-0.2s0-0.2-0.1-0.2s-0.1-0.1-0.2-0.1s-0.1,0-0.2,0.1s-0.1,0.1-0.1,0.2l-0.3,0c0-0.2,0.1-0.4,0.2-0.5
			s0.2-0.1,0.4-0.1c0.2,0,0.3,0.1,0.4,0.2s0.1,0.2,0.1,0.4c0,0.1,0,0.2,0,0.3c0,0.1-0.1,0.2-0.1,0.3c0,0.1-0.1,0.1-0.2,0.3
			c-0.1,0.1-0.2,0.2-0.2,0.2s0,0.1-0.1,0.1L906.4,475.9L906.4,475.9z"/>
		<path class="st8" d="M907.3,474.9c0-0.1,0-0.2-0.1-0.3c0-0.1-0.1-0.1-0.2-0.1s-0.1,0-0.2,0.1c0,0.1-0.1,0.1-0.1,0.3s0,0.2,0.1,0.3
			c0,0.1,0.1,0.1,0.2,0.1s0.1,0,0.2-0.1C907.3,475.1,907.3,475,907.3,474.9 M906.6,475.8l0.3,0c0,0.1,0,0.1,0.1,0.2
			c0,0,0.1,0.1,0.1,0.1c0.1,0,0.1,0,0.2-0.1s0.1-0.2,0.1-0.5c-0.1,0.1-0.2,0.2-0.3,0.2s-0.2-0.1-0.3-0.2s-0.2-0.3-0.2-0.5
			s0-0.4,0.2-0.5c0.1-0.1,0.2-0.2,0.4-0.2c0.2,0,0.3,0.1,0.4,0.2s0.2,0.4,0.2,0.8s-0.1,0.7-0.2,0.8c-0.1,0.2-0.3,0.3-0.5,0.3
			c-0.1,0-0.2,0-0.3-0.1S906.6,476,906.6,475.8"/>
		<path class="st11" d="M377.6,325.8c7.4,0,13.4,6,13.4,13.4s-6,13.4-13.4,13.4s-13.4-6-13.4-13.4S370.2,325.8,377.6,325.8"/>
		<path class="st8" d="M374,341.9l2.2-0.2c0.1,0.5,0.2,0.9,0.5,1.2c0.3,0.3,0.7,0.4,1.1,0.4c0.5,0,0.9-0.2,1.2-0.6
			c0.3-0.4,0.5-0.9,0.5-1.7c0-0.7-0.2-1.2-0.5-1.6s-0.7-0.5-1.2-0.5c-0.6,0-1.2,0.3-1.7,0.8l-1.8-0.2l1.1-5.9h5.8v2H377l-0.4,1.9
			c0.5-0.2,1-0.4,1.5-0.4c1,0,1.8,0.4,2.5,1.1c0.7,0.7,1,1.6,1,2.8c0,0.9-0.3,1.8-0.8,2.5c-0.7,1-1.8,1.5-3.1,1.5
			c-1,0-1.9-0.3-2.6-0.9C374.5,343.6,374.1,342.9,374,341.9"/>
		<path class="st0" d="M398.7,338.8h2.6c-0.1-0.6-0.3-1.1-0.6-1.5c-0.3-0.4-0.8-0.6-1.4-0.6c-0.5,0-0.8,0.1-1.1,0.4
			c-0.3,0.2-0.5,0.6-0.6,1l-1.7-0.4c0.2-0.7,0.5-1.3,1.1-1.8c0.6-0.4,1.3-0.7,2.3-0.7c1.2,0,2.1,0.4,2.8,1.2c0.7,0.8,1,1.9,1,3.1
			c0,0.9-0.2,1.6-0.5,2.3c-0.3,0.6-0.8,1.1-1.3,1.5s-1.2,0.5-2,0.5c-1.9,0-3-0.9-3.5-2.7l1.7-0.5c0.1,0.6,0.3,1,0.6,1.3
			c0.3,0.3,0.8,0.4,1.2,0.4s0.9-0.2,1.3-0.5s0.6-0.9,0.7-1.6h-2.6L398.7,338.8L398.7,338.8z"/>
		<polygon class="st0" points="406.3,343.7 406.3,336.8 403.8,336.8 403.8,335.4 410.4,335.4 410.4,336.8 408,336.8 408,343.7 		"/>
		<path class="st0" d="M415.2,340.4l-1.1-3.1l-1.1,3.1H415.2z M418.2,343.7h-1.8l-0.7-1.9h-3.3l-0.7,1.9h-1.8l3.2-8.3h1.8
			L418.2,343.7L418.2,343.7z"/>
		<path class="st0" d="M424.4,335.4v3.5c0.3,0,0.5-0.1,0.6-0.3c0.1-0.2,0.3-0.6,0.6-1.3c0.3-0.9,0.7-1.4,1-1.6
			c0.3-0.2,0.9-0.4,1.7-0.4c0,0,0.1,0,0.2,0v1.2h-0.2c-0.3,0-0.6,0-0.8,0.1s-0.3,0.2-0.4,0.4c-0.1,0.2-0.2,0.5-0.4,1.1
			c-0.1,0.3-0.2,0.5-0.3,0.7s-0.3,0.4-0.6,0.5c0.4,0.1,0.7,0.3,0.9,0.6c0.2,0.3,0.5,0.8,0.8,1.4l1.1,2.3h-2l-1-2.1
			c0,0,0-0.1-0.1-0.2c0-0.1-0.1-0.2-0.2-0.4c-0.2-0.4-0.4-0.6-0.5-0.8c-0.1-0.1-0.3-0.2-0.5-0.2v3.6h-1.6v-3.6c-0.2,0-0.4,0-0.5,0.2
			c-0.1,0.1-0.3,0.4-0.5,0.8c-0.1,0.2-0.2,0.4-0.2,0.4c0,0.1-0.1,0.1-0.1,0.2l-1,2.1h-2l1.1-2.3c0.3-0.6,0.5-1,0.8-1.3
			s0.6-0.5,0.9-0.7c-0.3-0.2-0.5-0.4-0.6-0.5s-0.2-0.4-0.3-0.7c-0.2-0.5-0.3-0.9-0.4-1.1s-0.2-0.3-0.4-0.4s-0.4-0.1-0.8-0.1
			c0,0-0.1,0-0.2,0v-1.2c0.1,0,0.2,0,0.2,0c0.8,0,1.4,0.1,1.7,0.4s0.7,0.8,1,1.6c0.3,0.7,0.5,1.1,0.6,1.3s0.4,0.3,0.6,0.3v-3.5
			L424.4,335.4L424.4,335.4z"/>
		<path class="st12" d="M249.9,431c2.3,0,4.1,1.9,4.1,4.1s-1.9,4.1-4.1,4.1s-4.1-1.9-4.1-4.1S247.6,431,249.9,431"/>
		<path class="st12" d="M963.3,403.8c2.3,0,4.1,1.9,4.1,4.1s-1.8,4.1-4.1,4.1s-4.1-1.9-4.1-4.1S961,403.8,963.3,403.8"/>
		<path class="st13" d="M249.9,434.5c-0.1,0-0.1,0.1-0.2,0.2l-0.5,0.9c0,0.1-0.1,0.1-0.1,0.2c-0.1,0.1-0.2,0.3-0.2,0.5
			c0,0.1-0.4,0.6-0.4,0.7c0,0.1,0,0.2,0.1,0.3c0.1,0,0.6,0,0.7,0h1.8c0.1,0,0.2,0,0.3-0.1c0.1-0.1,0.1-0.2,0-0.3
			c0-0.1-0.1-0.2-0.1-0.2l-1-1.9c-0.1-0.1-0.1-0.3-0.2-0.3C250,434.5,249.9,434.5,249.9,434.5"/>
		<path class="st13" d="M963.3,407.2c-0.1,0-0.1,0.1-0.2,0.2l-0.5,0.9c0,0.1-0.1,0.1-0.1,0.2c-0.1,0.1-0.2,0.3-0.2,0.5
			c0,0.1-0.3,0.6-0.4,0.7c0,0.1,0,0.2,0.1,0.3c0.1,0,0.6,0,0.7,0h1.8c0.1,0,0.2,0,0.3-0.1c0.1-0.1,0.1-0.2,0-0.3
			c0-0.1-0.1-0.2-0.1-0.2l-1-1.9c0-0.1-0.1-0.3-0.2-0.3C963.5,407.2,963.4,407.2,963.3,407.2"/>
		<path class="st13" d="M249.8,432.6c-0.4,0.1-0.8,0.5-0.7,1c0.1,0.4,0.5,0.8,1,0.7c0.4-0.1,0.8-0.5,0.7-1
			C250.7,432.9,250.3,432.5,249.8,432.6"/>
		<path class="st13" d="M963.3,405.3c-0.4,0.1-0.8,0.5-0.7,1c0.1,0.4,0.5,0.8,1,0.7c0.4-0.1,0.8-0.5,0.7-1
			C964.2,405.6,963.8,405.2,963.3,405.3"/>
		<path class="st12" d="M393.8,432.8c2.3,0,4.1,1.9,4.1,4.1s-1.9,4.1-4.1,4.1s-4.1-1.9-4.1-4.1S391.5,432.8,393.8,432.8"/>
		<path class="st12" d="M623.6,434.3c2.3,0,4.1,1.9,4.1,4.1s-1.8,4.1-4.1,4.1s-4.1-1.9-4.1-4.1S621.3,434.3,623.6,434.3"/>
		<path class="st13" d="M393.9,439c0.1,0,0.1-0.1,0.2-0.2l0.5-0.9c0-0.1,0.1-0.1,0.1-0.2c0.1-0.1,0.2-0.3,0.2-0.5
			c0-0.1,0.4-0.6,0.4-0.7c0-0.1,0-0.2-0.1-0.3c-0.1,0-0.6,0-0.7,0h-1.8c-0.1,0-0.2,0-0.3,0.1c-0.1,0.1-0.1,0.2,0,0.3
			c0,0.1,0.1,0.2,0.1,0.2l1,1.9c0,0.1,0.1,0.3,0.2,0.3C393.8,439,393.9,439.1,393.9,439"/>
		<path class="st13" d="M623.7,440.6c0.1,0,0.1-0.1,0.2-0.2l0.5-0.9c0-0.1,0.1-0.1,0.1-0.2c0.1-0.1,0.2-0.3,0.2-0.5
			c0-0.1,0.3-0.6,0.4-0.7c0-0.1,0-0.2-0.1-0.3c-0.1,0-0.6,0-0.7,0h-1.8c-0.1,0-0.2,0-0.3,0.1c-0.1,0.1-0.1,0.2,0,0.3
			c0,0.1,0.1,0.2,0.1,0.2l1,1.9c0,0.1,0.1,0.3,0.2,0.3C623.6,440.6,623.6,440.6,623.7,440.6"/>
		<path class="st13" d="M393.8,434.3c-0.4,0.1-0.8,0.5-0.7,1c0.1,0.4,0.5,0.8,1,0.7c0.4-0.1,0.8-0.5,0.7-1
			C394.7,434.6,394.3,434.3,393.8,434.3"/>
		<path class="st13" d="M623.5,435.9c-0.4,0.1-0.8,0.5-0.7,1c0.1,0.4,0.5,0.8,1,0.7c0.4-0.1,0.8-0.5,0.7-1
			C624.5,436.2,624,435.8,623.5,435.9"/>
		<path class="st14" d="M666.2,439.6c2.4,0,4.4,2,4.4,4.4s-2,4.4-4.4,4.4s-4.4-2-4.4-4.4S663.8,439.6,666.2,439.6"/>
		<path class="st13" d="M664.8,441.1c-0.3,0.1-0.5,0.3-0.4,0.7c0.2,0.7,1.2,0.5,1.1-0.3C665.5,441.3,665.2,441.1,664.8,441.1
			 M664.1,443.6v0.4l1.3,0l0-0.6c0.1,0.1,0.5,0.8,0.5,0.8l-0.9,0.9c-0.1,0.1,0,0.7,0,0.8c0,0.2,0,0.6,0,0.9l0.5,0v-1.3
			c0-0.1,0.1-0.2,0.2-0.2l0.7-0.6v1.2l1.7,0v-0.5l-1,0c0-0.1,0-1.4,0-1.5s-0.9-1.3-1-1.5h0.6c0.1,0,0.1,0,0.2,0.1l0.5,0.6
			c0.1,0,0.4-0.3,0.4-0.4l-0.6-0.7c-0.1-0.1-0.1-0.2-0.2-0.2c-0.3,0-0.9,0-1.2,0c-0.1,0-0.7,0.5-0.9,0.6c-0.1,0.1-0.1,0-0.1,0.2
			c0,0.2,0,0.4,0,0.6c0,0.1,0,0.2-0.1,0.2c-0.1,0-0.2,0-0.3,0c-0.1,0-0.2,0-0.3,0C664.2,443.5,664.1,443.5,664.1,443.6"/>
		<path class="st14" d="M1067.5,265.7c2.4,0,4.4,2,4.4,4.4s-2,4.4-4.4,4.4s-4.4-2-4.4-4.4S1065.1,265.7,1067.5,265.7"/>
		<path class="st13" d="M1066.2,267.2c-0.3,0.1-0.5,0.3-0.4,0.7c0.2,0.7,1.2,0.5,1.1-0.3C1066.8,267.4,1066.5,267.2,1066.2,267.2
			 M1065.4,269.7v0.4l1.3,0l0-0.6c0.1,0.1,0.5,0.8,0.5,0.8l-0.9,0.9c-0.1,0.1,0,0.7,0,0.8c0,0.2,0,0.6,0,0.9l0.5,0v-1.3
			c0-0.1,0.1-0.2,0.2-0.2l0.7-0.6v1.2l1.7,0v-0.5l-1,0c0-0.1,0-1.4,0-1.5s-0.9-1.3-1-1.5h0.6c0.1,0,0.1,0,0.2,0.1l0.5,0.6
			c0.1,0,0.4-0.3,0.4-0.4l-0.6-0.7c-0.1-0.1-0.1-0.2-0.2-0.2c-0.3,0-0.9,0-1.2,0c-0.1,0-0.7,0.5-0.9,0.6c-0.1,0.1-0.1,0-0.1,0.2
			c0,0.2,0,0.4,0,0.6c0,0.1,0,0.2-0.1,0.2c-0.1,0-0.2,0-0.3,0c-0.1,0-0.2,0-0.3,0C1065.5,269.6,1065.4,269.6,1065.4,269.7"/>
	</g>
</g>
</svg>
